<?xml version="1.0" encoding="utf-8"?>
<!-- Generator: Adobe Illustrator 24.3.0, SVG Export Plug-In . SVG Version: 6.00 Build 0)  -->
<svg version="1.1" id="Layer_1" xmlns="http://www.w3.org/2000/svg" xmlns:xlink="http://www.w3.org/1999/xlink" x="0px" y="0px"
	 viewBox="0 0 1444 812" style="enable-background:new 0 0 1444 812;" xml:space="preserve">
<style type="text/css">
	.st0{fill:#979DAD;}
</style>
<path class="st0" d="M135.5,314c-1.6,1.3-7.7,6.5-8.9,14.6c-1,7.2,2.5,9.2,1.2,17.5c-0.8,5.3-3,9.2-5.8,14.3
	c-3.5,6.4-4.6,6-6.7,10.4c-3.6,7.5-3.4,15.1-3.4,19.6c0.1,3.4,0.3,11.9,4.4,20.3c1.8,3.8,4.6,7.9,5.7,9.4c2.7,3.9,4,5.8,5.1,7.1
	c1.1,1.1,2.4,2.4,3.6,4.7c0.3,0.7,1,1.9,1.4,3.5c0.3,1.2,0.7,3.8-1.7,10.6c-0.3,0.9-1.1,3-3.5,8.5c-2.1,4.7-3.2,7-3.9,8.2
	c-3,5-6.7,7.6-9.6,9.6c-3.9,2.8-7.7,4.4-11,5.4c-0.6,0.2-1.2,0.6-1.5,1.3c-0.3,0.6-0.6,1.2-0.8,1.7c-3.3,7.9-0.3,16.6,0.9,19.7
	c0,0.1,0.1,0.2,0.1,0.3c5.8,11.5,9.9,13.7,12.6,13.5c0.8-0.1,1.5-0.3,2.8-0.2c4.5,0.5,7.4,5.3,8.3,6.8c5.8,9,18.5,18.7,24.6,22.1
	c8.2,4.6,15.8,4.3,25.5,3.8c10.2-0.5,11-2.7,29.4-6.3c11.8-2.3,17.9-3.5,26.6-3.4c7.6,0.1,10.2,1.1,23,2c7.3,0.5,13.4,0.7,17.7,0.7
	c0.8,0,1.6,0.5,2,1.2c1.8,2.9,4.6,6.3,8.7,8.3c4.7,2.4,7.9,1.5,21-0.7c17.7-3,19.1-2.5,30.2-5.1c3.3-0.8,7.1-3.3,12.7-3.3
	c4.1,0,4.9,1.1,10.8,2c5.6,0.8,9.7,0.5,15.4,0.2c8-0.5,7.6-1.3,15.1-1.9c9.2-0.7,8.7,0.6,19,0c8-0.5,9.8-1.4,14.3-0.2
	c4.4,1.2,4.8,2.5,9.6,3.3c2.9,0.5,5.8,0.3,11.5,0c4.3-0.2,4.8-0.4,7.3-0.5c6.2-0.3,10.8,0.5,13.4,0.9c12.5,1.9,14.2-1.1,29.5,0.5
	c11.1,1.2,13.1,3.1,21.6,2.4c4-0.3,5.9-0.9,11.7-1.2c7.9-0.4,9.2,0.5,15,0.4c11.7-0.3,13.3-4.1,22.2-3.7c7.2,0.3,12,3,15.4,4.6
	c8.6,3.9,22.4,6.8,45.2,1.7c0.7-0.2,1.3-0.7,1.7-1.3c0.3-0.5,0.7-1.1,1.3-1.5c0.9-0.6,1.7-0.6,2.1-0.7c8.2-0.5,14.6-3.3,24.9,0.3
	c2.9,1,2.3,1.2,5.3,2.3c2.8,1,10.6,3.6,28.2,0.7c3.2-0.5,15.2-2.6,24.4-2.4c1.9,0,5.2,0.2,7,2.8c1.7,2.5,0.9,5.6,2.4,6.4
	c1.4,0.8,3.3-1.4,5-2.7c2-1.6,4.9-2.7,15.7-1.7c10.1,0.9,12.7,2.4,19.5,3.2c4.5,0.5,10.9,0.8,18.9-0.7c0.7-0.1,1.3-0.6,1.7-1.3
	l0.6-1c0.5-0.9,1.4-1.4,2.3-1.3c4.6,0.5,11.1,0.9,18.9,0.6c11.6-0.4,15.8-2,23.5-1.7c6,0.2,14.7,1.5,25.4,7c0.9,0.4,1.9,0.3,2.6-0.3
	c0.6-0.5,1.3-1.1,2.2-1.7c1.5-1.1,4.1-2.9,7.7-3.5c0.9-0.2,7.6-1.1,12.6,4c0.5,0.5,0.9,1,1.2,1.4c0.6,0.7,1.4,1.1,2.2,1
	c2.4-0.3,5.6-0.7,9.4-0.9c12-0.5,18.8,1.3,27.3,2.4c20.5,2.6,18.8-3.4,37.5-0.8c0,0,15.9,2.2,25.7-1.6c3-1.2,3.1-1.2,3.1-1.2
	c3.5-1.4,3.8-1.6,4.5-1.7c3.2-0.6,6.3,3.7,7.2,4.8c5.4,6.6,17.5,4.2,32.7,2.9c7.5-0.6,18.5-1.3,32.4-0.9c9.6-0.4,17.5-0.3,22.9-0.1
	c10.3,0.3,15.5,1,24.8,0c5.3-0.6,5.1-0.9,12.2-1.7c4.8-0.6,11.9-1.3,20.8-1.2c5.8,0.1,13.4,0.6,22.3,2.3c0.3,0.1,0.7,0,1,0
	c2.6-0.8,5.4-1.4,8.3-2c11.3-2.1,21.4-1.5,29.6-0.2c0.1,0,0.2,0,0.2,0c6.3,0.4,12.7,0.7,19,1.1c1.1,0.1,2.1-0.7,2.5-1.9
	c0.2-0.5,0.4-1.1,0.7-1.6c2.7-4.8,9-5,15-5c6.4,0,14.6,0.3,24.4,1.2c0.8,0.1,1.7-0.3,2.2-1.1c0.7-1.1,1.8-2.2,3.1-3.2
	c3.9-2.8,7.6-1.7,10.7-2.1c7-1.1,11-10.9,13.3-15.4c4.1-8.1,12.6-18.8,32.1-29.2c0.8-0.4,1.3-1.2,1.5-2.2c0.8-5.6,1.3-12.2,1.1-19.7
	c-0.1-4.2-0.5-8.1-0.9-11.6c-0.1-0.6-0.3-1.2-0.7-1.6c-0.8-1-1.8-2.5-2.4-4.4c-1.4-4.3-0.2-8,0.8-12.6c0,0,0.9-4,1-33.2
	c0-0.3,0-1.1-0.3-1.9c-0.8-2-3-2.5-3.6-2.7c-3.9-1.3-6.5-12.8-7.2-20.9c-0.9-10.4,1.2-19.2,3.1-24.9c0.1-0.3,0.1-0.6,0.2-0.9
	c0.5-8.2,0.6-15.1,0.4-20.2c-0.3-12.2-1.4-15.1-3.1-17c-1.2-1.3-3.6-2.7-8.6-5.5c-2.5-1.4-3.8-2.1-5.3-2.5c-3.8-1.1-5.2,0.1-8.9-0.1
	c-5.2-0.4-5.1-2.9-9.9-3.5c-4.9-0.6-5.3,2-11.9,2.7c-6.2,0.6-7.3-1.6-12.7-0.8c-5.1,0.8-7.6,3.2-10.5,4.7c-9.3,4.6-19.6-2-27.1-5.5
	c-7.4-3.5-19.4-4.1-43.3-5.5c-14.7-0.8-55.3-1.8-74.5,2.4c-3.1,0.7-8.2,2.1-14.4,0.3c-5.3-1.5-6.7-4-12.6-5.5
	c-4.1-1-6.7-0.7-12.8-0.3c-6.6,0.5-13.2,0.3-19.8,0.8c-25.5,1.9-34.5-3.5-61.3-0.4c-16.1,1.8-17.3,4.3-26.1,2.9
	c-12.2-1.8-22.7-3.4-28.7-5.1c-0.5-0.2-2-0.6-3.9-0.4c-4.2,0.4-7.1,3.5-7.7,4c-5.7,5.5-24.4-0.1-31.8-1.9c-6-1.5-30.5-7.4-54.1,1.2
	c-8.3,3-12.6,6.5-21.6,6.3c-8.4-0.2-11.6-3.3-22.2-4.3c-8.9-0.8-9.4,1.2-19.1,1.3c-14.8,0.2-27.8-4.2-37.4-7.5
	c-9.8-3.4-13.9-5.9-21.3-4.8c-5.3,0.8-5.5,2.4-14.1,5.1c-3.7,1.2-12.8,3.9-23.8,3.7c-10.6-0.2-11.5-2.9-20.1-1.7
	c-6.4,0.9-7.6,2.7-14.7,4.3c-6.3,1.4-9,0.8-21,0.7c-18.2-0.3-19.2,1-36.1,0.4c-5.3-0.2-3.2-0.3-15.4-0.9
	c-23.9-1.4-27.2-0.9-35.7-2.1c-5.6-0.8-13.7-2.5-23.4-6c-0.7-0.3-1.5-0.1-2.2,0.3c-4.9,3.5-9,5.3-11.5,6.2c-4,1.4-5.6,1.2-6.8,0.8
	c-2.2-0.8-2.8-2.4-4.5-2.1c-1.2,0.2-1.4,1-4.4,3.7c-1.8,1.6-2.6,2.4-3.4,2.7c-2.9,1-5.8-1.5-6.3-1.9c-3.7-3-3.2-7-5.5-7.5
	c-1.6-0.3-2.4,1.6-6.1,4c0,0-2,1.3-6.3,2.9c-12,4.6-33.5-0.5-33.5-0.5c-7.9-1.9-18.6-5.2-30.7-11.3c-0.6-0.3-1.2-0.3-1.9-0.1
	c-1.2,0.5-3.1,1.2-5.5,2.2c-14.4,5.7-18.5,7.5-24.4,7.2c-2.7-0.1-1.8-0.5-6-0.9c-6.1-0.7-10-0.1-21.4,1.3c-13.2,1.7-15.2,1.9-18.3,2
	c-5.7,0.2-5.3-0.2-11.7-0.1c-2,0-11.7,0.2-24.6,2.4c-6.5,1.1-7.5,1.6-11.8,2.4c-13.2,2.4-22.9,0.8-30.8,0c-22.4-2.2-21,2.9-41.7,1.1
	C156.9,314.5,146,305.1,135.5,314z"/>
<g>
	<path d="M462.4,284.4h58.2c6.6,0,13.2,1.2,19.9,3.7c6.7,2.5,12.9,6,18.6,10.7c5.8,4.7,10.4,10.8,14,18.3c3.6,7.5,5.3,15.9,5.3,25.1
		c0,9.3-1.6,18.1-4.8,26.3c-3.2,8.2-7.5,15.2-12.9,20.9c-5.3,5.7-11.5,10.2-18.5,13.5s-14.2,4.9-21.6,4.9h-58.2
		c-1.1,0-1.6-0.5-1.6-1.6c0-0.8,0.5-1.3,1.6-1.4c4.2-0.5,7.1-2.2,8.5-4.9c1.4-2.7,2.2-7.3,2.2-13.6V306c0-6.3-0.7-10.8-2.2-13.6
		c-1.4-2.7-4.3-4.4-8.5-4.9c-1.1-0.1-1.6-0.6-1.6-1.4C460.8,284.9,461.3,284.4,462.4,284.4z M501.7,287.5v117.3h5.1
		c11.8,0,21.9-5.6,30.2-16.7c8.4-11.1,12.5-26.4,12.5-45.9c0-7.8-1-14.9-2.9-21.3c-1.9-6.4-4.4-11.6-7.3-15.6c-3-4-6.3-7.4-10-10.2
		c-3.7-2.7-7.3-4.7-10.9-5.9c-3.6-1.2-7.1-1.7-10.5-1.7H501.7z"/>
	<path d="M622,328.2c24.8-1.2,38.9,8.4,42.2,29l3.1,26.5c1.8,10.8,5.1,16.7,9.9,17.5c0.1,0.1,0.6,0.2,1.5,0.1
		c0.9-0.1,1.5-0.1,1.7-0.1c0.8,0,1.3,0.4,1.4,1.1c0.1,0.8-0.1,1.3-0.8,1.7c-5.8,3.4-12.3,5.1-19.5,5.1c-10.3,0-17.1-3.4-20.6-10.3
		c-1.2,1.4-2.6,2.6-4,3.6c-1.4,1-3.1,2-5,3c-1.9,1-4.4,1.8-7.3,2.5c-3,0.7-6.1,1-9.6,1c-4.9,0-9.4-0.6-13.5-1.9
		c-4-1.2-7.5-3.4-10.3-6.6c-2.8-3.2-4.2-7.2-4.2-12.1c0-4.8,1-8.8,3.1-11.9c2.1-3.2,4.8-5.4,8.2-6.8c3.4-1.4,6.9-2.4,10.4-3.1
		c3.5-0.7,7.3-1.3,11.3-2c4-0.6,7.1-1.4,9.2-2.4c2.5-1.1,4.1-2.5,4.8-4.3c0.8-1.8,0.9-4.2,0.5-7.4c-0.3-2.9-0.9-5.6-1.7-8.2
		c-0.9-2.6-2.5-5.1-4.8-7.5c-2.3-2.4-5.1-3.6-8.2-3.6c-3,0-5.2,0.7-6.7,2.2c-1.4,1.4-2.2,3.2-2.2,5.2c0,1.4,0.4,2.6,1.3,3.7
		c0.9,1.1,1.9,2,3,2.7c1.1,0.7,2,1.8,2.8,3.3c0.8,1.5,1,3.2,0.6,5.1c-0.3,1.9-1.3,3.6-2.9,5c-1.6,1.4-3.4,2.4-5.3,2.8
		c-2,0.4-4,0.5-6.2,0.2c-2.1-0.3-4-1.2-5.8-2.7c-1.7-1.5-2.8-3.4-3.4-5.8c-1.8-6.3-0.3-11.9,4.5-16.8
		C604.4,331.4,611.9,328.7,622,328.2z M635.8,361.1c-1.4,1.9-3.2,3.4-5.3,4.5c-0.4,0.3-1.5,1-3.4,2.1c-1.9,1.1-3.1,1.9-3.8,2.4
		c-0.7,0.5-1.8,1.3-3.3,2.6c-1.5,1.2-2.6,2.4-3.2,3.4c-0.6,1-1.2,2.4-1.7,4.1c-0.5,1.7-0.8,3.5-0.8,5.5c0,7.7,3.2,12.8,9.5,15.2
		c5.1,1.9,9.3,1.4,12.8-1.6c2.3-1.9,3.3-4.5,2.9-7.6L635.8,361.1z"/>
	<path d="M730,328c0.3,0,0.5,0.1,0.8,0.2c0.4,0.3,0.6,0.8,0.6,1.4v7.6c4.9-5.9,11.7-8.8,20.4-8.8c20,0,31.5,9.6,34.6,28.8l3.3,29
		c0.8,6,2.2,10.5,4.1,13.3c1.9,2.8,4.9,4.6,8.8,5.2c1.2,0.1,1.9,0.6,1.9,1.4c0,1.1-0.5,1.6-1.6,1.6h-49.8c-1.2,0-1.9-0.5-1.9-1.6
		c0-0.8,0.6-1.3,1.9-1.4c4-0.7,6.5-2.4,7.5-5c1-2.7,1.2-7.2,0.5-13.5l-3.3-31.9c-0.8-6.2-2.5-11.3-4.9-15.3c-2.5-4-6-5.7-10.7-5
		c-2.3,0.3-4.2,1.1-5.7,2.5c-1.4,1.4-2.5,3.4-3.2,6.1c-0.7,2.7-1.2,5.6-1.4,8.6c-0.3,3.1-0.4,7-0.4,11.8v23.2
		c0,6.2,0.8,10.7,2.5,13.5c1.6,2.8,4.4,4.5,8.2,5c1.1,0.1,1.6,0.6,1.6,1.4c0,1.1-0.5,1.6-1.4,1.6h-50.2c-1.1,0-1.6-0.5-1.6-1.6
		c0-0.8,0.5-1.3,1.6-1.4c4.2-0.5,7.1-2.2,8.5-4.9c1.4-2.7,2.2-7.3,2.2-13.6v-19.7c0-6.9-0.6-11.8-1.9-14.9c-1.2-3.1-4-5.2-8.2-6.3
		c-1.1-0.3-1.6-0.8-1.6-1.6c0-1,0.5-1.5,1.6-1.6c5.9-0.1,11.9-1.4,17.9-3.7c6-2.3,10.2-4.2,12.5-5.8c2.3-1.5,4.2-2.9,5.8-4.1
		C729.3,328.1,729.6,328,730,328z"/>
	<path d="M846.9,328.2c5.9,0,11.2,0.9,15.8,2.8c4.7,1.9,8.2,4.3,10.5,7.2c2.3,3,3.8,6.3,4.3,10.2c0.5,3.8-0.3,7.8-2.5,11.9
		c-1.2,2.3-3.1,4.1-5.5,5.2c-2.4,1.2-4.8,1.7-7.3,1.5c-2.5-0.1-4.8-0.9-6.9-2.4c-2.1-1.4-3.5-3.4-4.2-5.9c-0.7-2.3-0.6-4.3,0.2-6
		c0.8-1.6,1.9-2.9,3.2-3.7c1.3-0.8,2.6-1.9,3.8-3.3c1.2-1.4,1.9-2.8,1.9-4.3c-0.1-2.7-1.2-5.1-3.3-7.2c-2.1-2.1-4.8-3.1-8.2-3.1
		c-5.6,0-10.1,3.6-13.4,10.7c-3.3,7.1-4.2,15.7-2.7,25.7c1.2,8.5,4.5,15.5,9.8,20.9c5.3,5.4,11.1,8.1,17.6,7.9
		c4.5,0,8.6-1.3,12.2-3.9c3.6-2.6,6.3-5.8,8.1-9.7c0.3-1,0.9-1.3,2-1.1c1,0.2,1.4,0.9,1.1,2c-1.4,5.1-4,9.6-7.9,13.5
		c-3.9,3.9-8.5,6.9-13.9,8.9c-5.3,2.1-11,3.1-16.9,3.1c-10.4-0.1-19.7-3.5-27.9-10c-8.2-6.5-12.7-15.3-13.7-26.4
		c-1.1-12.6,2.1-23.2,9.6-31.8C820.3,332.5,831.6,328.2,846.9,328.2z"/>
	<path d="M933.7,328.2c3.6,0,7.1,0.4,10.7,1.3c3.6,0.9,7,2.3,10.3,4.2c3.3,1.9,6,4.3,8.2,7c1.8,2.3,3,4.9,3.7,7.8
		c0.7,2.9,0.7,5.7,0.1,8.3s-2.1,5-4.5,7c-2.4,2-5.6,3.2-9.6,3.6l-30,3.5c1.4,6.6,4.1,11.9,8.2,16c4.1,4.1,8.5,6.7,13.3,7.6
		c4.7,1,9.4,0.6,14-1.1c4.6-1.7,8.1-4.7,10.6-8.9c0.1-0.1,0.2-0.3,0.2-0.4c1-1.9,1.9-2.7,2.9-2.3c0.7,0.4,1,1,0.8,1.9
		c-4.5,16.9-17.3,25.3-38.5,25.3c-5.9,0-11.5-1.1-16.9-3.2c-5.3-2.1-10.1-5.4-14.3-9.8c-4.2-4.4-7.1-9.5-8.7-15.4
		c-0.8-2.3-1.4-4.9-1.6-7.8c-0.5-6.2-0.2-11.9,1.1-17.1c1.3-5.2,3.5-9.9,6.7-14.1c3.2-4.2,7.5-7.5,13.2-9.9
		C919.1,329.4,925.9,328.2,933.7,328.2z M933.5,331.3c-3.6,0-6.5,2.2-8.8,6.5c-2.3,4.3-3.6,9.2-3.8,14.6c-0.2,5.4,0.2,10.7,1.1,15.7
		c7.7-1,13.6-2.9,17.9-6c4.2-3,6.1-7.6,5.6-13.8c-0.3-2.7-0.7-5.1-1.1-7c-0.5-1.9-1.2-3.7-2.1-5.3c-0.9-1.6-2.1-2.8-3.5-3.6
		C937.3,331.6,935.5,331.3,933.5,331.3z"/>
	<path d="M577.5,456.6c8.1-2.2,17.1-2.9,27.2-2.3c4,0.3,7.8,0.7,11.4,1.3c3.6,0.6,6.4,1.2,8.2,1.6c1.9,0.5,3.6,0.9,5.1,1.1
		c1.6,0.3,2.7,0.3,3.5,0c0.8-0.3,1.4-1,2-2.1c0.3-0.8,0.8-1.2,1.6-1c0.8,0.1,1.2,0.7,1.2,1.6v26.5c0,1-0.5,1.5-1.4,1.6
		c-0.8,0-1.4-0.4-1.6-1.2c-1.5-5.5-3.5-10.1-5.9-13.8c-2.4-3.7-5.1-6.4-8.1-8.2c-3-1.8-5.9-3-8.6-3.7c-2.7-0.7-5.8-1-9.3-1
		c-4.9,0-9.7,1.2-14.4,3.7c-4.7,2.5-9,6.1-13,10.8c-4,4.7-7.2,11-9.6,18.9c-2.4,7.9-3.6,16.7-3.6,26.5c0,9.8,1.1,18.7,3.4,26.5
		c2.3,7.9,5.3,14.2,9.2,18.8c3.8,4.7,8.1,8.2,12.7,10.6c4.6,2.4,9.3,3.6,14.1,3.6c7.7-0.1,14.6-2.8,20.7-8.1
		c6.1-5.3,10.2-12.2,12.4-20.9c0.3-0.8,0.9-1.2,1.7-1.1c0.9,0.1,1.3,0.6,1.3,1.5v29c0,1-0.3,1.5-1,1.6c-0.7,0.1-1.3-0.2-1.9-1
		c-1-1.4-2.6-2.1-5-2.2c-2.4-0.1-5.1,0.2-8,0.9c-3,0.7-6.9,1.4-11.8,2.3c-4.9,0.8-9.7,1.2-14.2,1.2c-6-0.1-11.6-0.8-16.7-1.9
		c-13.6-3.3-24.6-10.6-33-21.9c-8.4-11.3-12.7-24.4-12.7-39.2c0-14.4,4-27.2,12.1-38.3C553.7,467.7,564.3,460.3,577.5,456.6z"/>
	<path d="M687.1,455.8c0.5-0.5,1.2-0.6,1.9-0.2c0.4,0.3,0.6,0.8,0.6,1.4v100.2c0,6.2,0.8,10.7,2.5,13.5c1.6,2.8,4.4,4.5,8.2,5
		c1.1,0.1,1.6,0.6,1.6,1.4c0,1.1-0.5,1.6-1.4,1.6h-50.2c-1.1,0-1.6-0.5-1.6-1.6c0-0.8,0.5-1.3,1.6-1.4c4.2-0.5,7.1-2.2,8.5-4.9
		c1.4-2.7,2.2-7.3,2.2-13.6v-63.6c0-6.6-0.8-11.6-2.4-14.9c-1.6-3.4-4.1-5.4-7.7-6.1c-1.2-0.3-1.9-0.8-1.9-1.6c0-1,0.6-1.4,1.9-1.4
		c5.9-0.3,11.9-1.5,17.9-3.8c6-2.3,10.2-4.2,12.5-5.8C683.7,458.4,685.6,457,687.1,455.8z"/>
	<path d="M739.4,499.2c1.1,0,1.6,0.5,1.6,1.6V551c0,7.3,1,13.2,3.1,17.9c2.1,4.7,5.4,7,10.1,7c4.4-0.1,7.9-3,10.5-8.6
		c2.6-5.6,3.9-11.8,3.9-18.5v-11.3c0-4.4-0.3-8-0.9-10.9s-1.7-5.2-3.2-6.9c-1.5-1.7-3.4-2.8-5.8-3.2c-1.2-0.3-1.9-0.8-1.9-1.6
		c0-1,0.5-1.4,1.6-1.4c4.7-0.1,9.2-0.9,13.7-2.2c4.5-1.3,8.3-2.8,11.6-4.6c3.3-1.8,5.7-3.2,7.2-4.2c1.5-1,2.7-2,3.7-2.8
		c0.3-0.3,0.6-0.4,1-0.4c1.1,0,1.6,0.5,1.6,1.6v52.5c0,5.1,0.4,9.2,1.2,12.3c1.1,3.8,3,6,5.8,6.6c0.3,0.1,0.9,0.2,1.7,0.1
		c0.9-0.1,1.4-0.1,1.5-0.1c0.8,0,1.3,0.4,1.5,1.1c0.2,0.8,0,1.3-0.7,1.7c-6,3.3-12,4.9-17.9,4.9c-9.9,0-16.6-3.1-20.2-9.3
		c-4.7,6.3-13,9.4-25.1,9.3c-9.7,0-17.7-2.5-23.9-7.6c-6.2-5.1-9.3-12.2-9.3-21.4v-13.6c0-6.6-0.8-11.6-2.3-14.9
		c-1.5-3.4-4-5.4-7.6-6.1c-1.2-0.3-1.9-0.8-1.9-1.6c0-1,0.5-1.4,1.6-1.4c6-0.3,12.1-1.6,18.1-3.9c6-2.3,10.2-4.2,12.4-5.8
		c2.3-1.5,4.1-2.9,5.7-4.1C738.6,499.3,739,499.2,739.4,499.2z"/>
	<path d="M845.5,455.8c0.5-0.5,1.2-0.6,1.9-0.2c0.5,0.3,0.8,0.8,0.8,1.4v49.6c6-4.5,12.5-6.9,19.3-7.2c6.9-0.3,13,1.2,18.5,4.4
		c5.5,3.2,10.1,7.9,13.9,13.9c3.8,6,5.7,12.6,5.9,19.7c0.3,11.4-2.8,21.2-9.4,29.4c-6.5,8.2-14.8,12.7-24.8,13.4
		c-10.6,0.7-19.7-3.2-27.6-11.5l-22.4,9.9c-1.5,0.5-2.3,0.1-2.3-1.4v-83.5c0-6.6-0.8-11.6-2.3-14.9c-1.5-3.4-4.1-5.4-7.8-6.1
		c-1.1,0-1.6-0.5-1.6-1.6c0-1,0.5-1.4,1.6-1.4c4.5-0.1,9.1-0.9,13.6-2.2c4.5-1.3,8.4-2.8,11.7-4.6c3.3-1.8,5.7-3.2,7.2-4.2
		C843.3,457.5,844.6,456.6,845.5,455.8z M856.6,505.8c-2.5,0-4.5,1.2-6,3.7c-3.8,6.2-3.5,18,1,35.4c2.9,10.3,6.3,18.4,10.4,24.5
		c4,6,8.1,8.5,12,7.4c3.8-1,5.9-5.5,6.3-13.5c0.3-8-0.8-16.4-3.4-25.2c-1.6-6.3-3.6-11.9-5.8-16.7c-2.2-4.8-4.6-8.6-7.1-11.4
		C861.6,507.2,859.1,505.8,856.6,505.8z"/>
</g>
<g>
	<path d="M691.6,211.5c0,0.5,0,0.8-0.1,1.2c-0.1,0.3-0.1,0.6-0.3,0.8c-0.1,0.2-0.3,0.4-0.4,0.4c-0.2,0.1-0.4,0.1-0.6,0.1h-14.2v40.1
		c0,0.2-0.1,0.4-0.2,0.5c-0.1,0.1-0.3,0.3-0.5,0.3c-0.3,0.1-0.6,0.2-1,0.2c-0.4,0.1-1,0.1-1.6,0.1c-0.6,0-1.2,0-1.6-0.1
		c-0.4-0.1-0.8-0.1-1.1-0.2c-0.3-0.1-0.4-0.2-0.5-0.3s-0.2-0.3-0.2-0.5v-40.1h-14.2c-0.2,0-0.4,0-0.6-0.1c-0.2-0.1-0.3-0.2-0.4-0.4
		c-0.1-0.2-0.2-0.5-0.3-0.8c-0.1-0.3-0.1-0.7-0.1-1.2c0-0.5,0-0.9,0.1-1.2c0.1-0.3,0.1-0.6,0.3-0.8s0.2-0.4,0.4-0.5
		c0.2-0.1,0.4-0.1,0.6-0.1h35.2c0.2,0,0.4,0,0.6,0.1c0.2,0.1,0.3,0.3,0.4,0.5s0.2,0.5,0.3,0.8C691.6,210.6,691.6,211,691.6,211.5z"
		/>
	<path d="M738.6,254.2c0,0.2-0.1,0.4-0.2,0.5c-0.1,0.1-0.3,0.3-0.5,0.3c-0.3,0.1-0.6,0.2-1,0.2c-0.4,0.1-1,0.1-1.6,0.1
		c-0.7,0-1.2,0-1.6-0.1c-0.4-0.1-0.8-0.1-1-0.2c-0.3-0.1-0.4-0.2-0.5-0.3s-0.2-0.3-0.2-0.5v-20.5h-23v20.5c0,0.2-0.1,0.4-0.2,0.5
		c-0.1,0.1-0.3,0.3-0.5,0.3c-0.3,0.1-0.6,0.2-1,0.2c-0.4,0.1-1,0.1-1.6,0.1c-0.6,0-1.2,0-1.6-0.1c-0.4-0.1-0.8-0.1-1.1-0.2
		c-0.3-0.1-0.4-0.2-0.5-0.3c-0.1-0.1-0.2-0.3-0.2-0.5v-44.4c0-0.2,0.1-0.4,0.2-0.5c0.1-0.1,0.3-0.3,0.5-0.3s0.6-0.2,1.1-0.2
		c0.4-0.1,1-0.1,1.6-0.1c0.7,0,1.2,0,1.6,0.1s0.8,0.1,1,0.2c0.3,0.1,0.4,0.2,0.5,0.3c0.1,0.1,0.2,0.3,0.2,0.5v18.5h23v-18.5
		c0-0.2,0.1-0.4,0.2-0.5s0.3-0.3,0.5-0.3c0.3-0.1,0.6-0.2,1-0.2s1-0.1,1.6-0.1c0.6,0,1.2,0,1.6,0.1s0.8,0.1,1,0.2
		c0.3,0.1,0.4,0.2,0.5,0.3c0.1,0.1,0.2,0.3,0.2,0.5V254.2z"/>
	<path d="M783.4,252.5c0,0.4,0,0.8-0.1,1.1c-0.1,0.3-0.1,0.6-0.3,0.8c-0.1,0.2-0.3,0.4-0.5,0.5c-0.2,0.1-0.4,0.1-0.6,0.1h-24.3
		c-0.6,0-1.2-0.2-1.7-0.6c-0.5-0.4-0.8-1-0.8-1.9v-41.2c0-0.9,0.3-1.6,0.8-1.9c0.5-0.4,1.1-0.6,1.7-0.6h24c0.2,0,0.4,0,0.6,0.1
		c0.2,0.1,0.3,0.3,0.4,0.5s0.2,0.5,0.3,0.8c0.1,0.3,0.1,0.7,0.1,1.2c0,0.4,0,0.8-0.1,1.1c-0.1,0.3-0.2,0.6-0.3,0.8
		c-0.1,0.2-0.2,0.4-0.4,0.4c-0.2,0.1-0.4,0.1-0.6,0.1h-19.8v14.5h17c0.2,0,0.4,0.1,0.6,0.2c0.2,0.1,0.3,0.3,0.4,0.4
		c0.1,0.2,0.2,0.5,0.3,0.8c0.1,0.3,0.1,0.7,0.1,1.2c0,0.4,0,0.8-0.1,1.1c-0.1,0.3-0.1,0.6-0.3,0.8c-0.1,0.2-0.3,0.3-0.4,0.4
		s-0.4,0.1-0.6,0.1h-17V250H782c0.2,0,0.4,0,0.6,0.1c0.2,0.1,0.3,0.2,0.5,0.4c0.1,0.2,0.2,0.5,0.3,0.8
		C783.3,251.7,783.4,252.1,783.4,252.5z"/>
</g>
<g>
	<path d="M554.4,691c0,0.1,0,0.3-0.1,0.4c-0.1,0.1-0.2,0.2-0.4,0.3c-0.2,0.1-0.4,0.1-0.7,0.2c-0.3,0-0.6,0.1-1.1,0.1
		c-0.4,0-0.8,0-1-0.1c-0.3,0-0.5-0.1-0.7-0.2c-0.2-0.1-0.3-0.2-0.4-0.3c-0.1-0.1-0.1-0.2-0.1-0.4v-41c0-0.1,0-0.2,0.1-0.4
		c0.1-0.1,0.2-0.2,0.4-0.3s0.4-0.1,0.7-0.2c0.3,0,0.6-0.1,1-0.1c0.4,0,0.8,0,1.1,0.1c0.3,0,0.5,0.1,0.7,0.2c0.2,0.1,0.3,0.2,0.4,0.3
		c0.1,0.1,0.1,0.2,0.1,0.4V691z"/>
	<path d="M574.5,691c0,0.1,0,0.3-0.1,0.4c-0.1,0.1-0.2,0.2-0.4,0.3c-0.2,0.1-0.4,0.1-0.7,0.2c-0.3,0-0.6,0.1-1.1,0.1
		c-0.4,0-0.8,0-1-0.1c-0.3,0-0.5-0.1-0.7-0.2c-0.2-0.1-0.3-0.2-0.4-0.3c-0.1-0.1-0.1-0.2-0.1-0.4v-41c0-0.1,0-0.2,0.1-0.4
		c0.1-0.1,0.2-0.2,0.4-0.3s0.4-0.1,0.7-0.2c0.3,0,0.6-0.1,1-0.1c0.4,0,0.8,0,1.1,0.1c0.3,0,0.5,0.1,0.7,0.2c0.2,0.1,0.3,0.2,0.4,0.3
		c0.1,0.1,0.1,0.2,0.1,0.4V691z"/>
	<path d="M618.2,651.1c0,0.3,0,0.5-0.1,0.8c0,0.2-0.1,0.4-0.2,0.5c-0.1,0.1-0.2,0.3-0.4,0.3c-0.1,0.1-0.3,0.1-0.5,0.1h-13.8V691
		c0,0.1,0,0.3-0.1,0.4s-0.2,0.2-0.4,0.3c-0.2,0.1-0.4,0.1-0.7,0.2c-0.3,0-0.6,0.1-1,0.1c-0.4,0-0.8,0-1-0.1c-0.3,0-0.5-0.1-0.7-0.2
		c-0.2-0.1-0.3-0.2-0.4-0.3c-0.1-0.1-0.1-0.2-0.1-0.4v-38.1h-13.8c-0.2,0-0.4,0-0.5-0.1c-0.1-0.1-0.2-0.2-0.3-0.3
		c-0.1-0.1-0.2-0.3-0.2-0.5c0-0.2-0.1-0.5-0.1-0.8c0-0.3,0-0.6,0.1-0.8c0-0.2,0.1-0.4,0.2-0.6c0.1-0.2,0.2-0.3,0.3-0.3
		c0.1-0.1,0.3-0.1,0.5-0.1h32c0.2,0,0.3,0,0.5,0.1c0.1,0.1,0.3,0.2,0.4,0.3c0.1,0.2,0.2,0.3,0.2,0.6
		C618.2,650.6,618.2,650.8,618.2,651.1z"/>
	<path d="M674.7,690.9c0,0.2,0,0.3-0.1,0.4c0,0.1-0.2,0.2-0.3,0.3s-0.4,0.1-0.7,0.2c-0.3,0-0.7,0.1-1.1,0.1c-0.4,0-0.9,0-1.3-0.1
		c-0.4,0-0.8-0.1-1-0.3c-0.2-0.1-0.4-0.3-0.6-0.5l-18.7-21.7V691c0,0.1,0,0.3-0.1,0.4c-0.1,0.1-0.2,0.2-0.4,0.3
		c-0.2,0.1-0.4,0.1-0.7,0.2c-0.3,0-0.6,0.1-1.1,0.1c-0.4,0-0.8,0-1-0.1c-0.3,0-0.5-0.1-0.7-0.2c-0.2-0.1-0.3-0.2-0.4-0.3
		c-0.1-0.1-0.1-0.2-0.1-0.4v-41c0-0.1,0-0.2,0.1-0.4c0.1-0.1,0.2-0.2,0.4-0.3s0.4-0.1,0.7-0.2c0.3,0,0.6-0.1,1-0.1
		c0.4,0,0.8,0,1.1,0.1c0.3,0,0.5,0.1,0.7,0.2s0.3,0.2,0.4,0.3c0.1,0.1,0.1,0.2,0.1,0.4v19.2l17.9-19.2c0.1-0.2,0.3-0.3,0.5-0.4
		c0.2-0.1,0.4-0.2,0.6-0.3s0.5-0.1,0.8-0.1c0.3,0,0.6,0,1.1,0c0.4,0,0.8,0,1,0.1c0.3,0,0.5,0.1,0.6,0.2s0.3,0.2,0.3,0.3
		c0,0.1,0.1,0.2,0.1,0.3c0,0.2-0.1,0.5-0.2,0.7c-0.1,0.2-0.4,0.5-0.7,0.8L656,669.1l18,20.6c0.3,0.4,0.5,0.7,0.6,0.8
		C674.7,690.7,674.7,690.8,674.7,690.9z"/>
	<path d="M718.6,690.3c0.1,0.3,0.2,0.6,0.2,0.8c0,0.2-0.1,0.4-0.2,0.5c-0.2,0.1-0.4,0.2-0.7,0.2c-0.3,0-0.7,0-1.2,0s-0.9,0-1.2,0
		c-0.3,0-0.5-0.1-0.7-0.1s-0.3-0.2-0.4-0.3c-0.1-0.1-0.2-0.2-0.2-0.4l-4.4-11.3h-20.3l-4.3,11.2c0,0.2-0.1,0.3-0.2,0.4
		c-0.1,0.1-0.2,0.2-0.4,0.3c-0.2,0.1-0.4,0.1-0.7,0.2c-0.3,0-0.7,0.1-1.1,0.1c-0.5,0-0.9,0-1.3-0.1c-0.3,0-0.6-0.1-0.7-0.2
		c-0.2-0.1-0.2-0.3-0.2-0.5c0-0.2,0.1-0.5,0.2-0.8l16.2-40.3c0.1-0.2,0.2-0.3,0.3-0.4c0.1-0.1,0.3-0.2,0.6-0.3
		c0.2-0.1,0.5-0.1,0.8-0.1c0.3,0,0.7,0,1.1,0c0.4,0,0.8,0,1.1,0c0.3,0,0.6,0.1,0.8,0.1s0.4,0.2,0.5,0.3c0.1,0.1,0.2,0.3,0.3,0.4
		L718.6,690.3z M699.4,653.6L699.4,653.6l-8.8,22.8h17.7L699.4,653.6z"/>
	<path d="M762.4,689.7c0,0.4-0.1,0.7-0.2,1s-0.3,0.5-0.5,0.6c-0.2,0.2-0.4,0.3-0.7,0.3c-0.2,0.1-0.5,0.1-0.7,0.1h-0.9
		c-0.5,0-0.9-0.1-1.3-0.2c-0.4-0.1-0.8-0.3-1.1-0.6c-0.4-0.3-0.7-0.6-1.1-1.1c-0.4-0.5-0.8-1-1.2-1.8l-16.3-26.4
		c-0.8-1.3-1.6-2.6-2.5-4c-0.8-1.4-1.6-2.7-2.3-4h0c0,1.6,0,3.2,0,4.9s0,3.3,0,4.9V691c0,0.1,0,0.3-0.1,0.4
		c-0.1,0.1-0.2,0.2-0.4,0.3c-0.2,0.1-0.4,0.1-0.7,0.2c-0.3,0-0.6,0.1-1.1,0.1c-0.4,0-0.8,0-1-0.1c-0.3,0-0.5-0.1-0.7-0.2
		c-0.2-0.1-0.3-0.2-0.4-0.3c-0.1-0.1-0.1-0.2-0.1-0.4v-39.6c0-0.8,0.2-1.3,0.7-1.6c0.5-0.3,0.9-0.4,1.3-0.4h1.8c0.6,0,1,0,1.4,0.1
		c0.4,0.1,0.7,0.2,1,0.4c0.3,0.2,0.6,0.5,0.9,0.9c0.3,0.4,0.6,0.9,1,1.5l12.5,20.2c0.8,1.3,1.5,2.5,2.2,3.6c0.7,1.2,1.4,2.3,2.1,3.4
		c0.7,1.1,1.3,2.2,2,3.3c0.7,1.1,1.3,2.2,1.9,3.3h0c0-1.8,0-3.7,0-5.7c0-2,0-3.9,0-5.7v-24.6c0-0.1,0-0.2,0.1-0.4
		c0.1-0.1,0.2-0.2,0.4-0.3c0.2-0.1,0.4-0.1,0.7-0.2c0.3,0,0.6,0,1.1,0c0.4,0,0.7,0,1,0c0.3,0,0.5,0.1,0.7,0.2
		c0.2,0.1,0.3,0.2,0.4,0.3c0.1,0.1,0.1,0.2,0.1,0.4V689.7z"/>
	<path d="M804.8,661.4c0,2-0.4,3.8-1.1,5.4c-0.7,1.6-1.8,3-3.1,4.2c-1.4,1.2-3,2.1-5,2.7c-2,0.7-4.3,1-7.1,1h-6V691
		c0,0.1,0,0.3-0.1,0.4c-0.1,0.1-0.2,0.2-0.4,0.3c-0.2,0.1-0.4,0.1-0.7,0.2c-0.3,0-0.6,0.1-1.1,0.1c-0.4,0-0.8,0-1-0.1
		c-0.3,0-0.5-0.1-0.7-0.2c-0.2-0.1-0.3-0.2-0.4-0.3c-0.1-0.1-0.1-0.2-0.1-0.4v-39.6c0-0.8,0.2-1.3,0.7-1.6c0.5-0.3,0.9-0.4,1.3-0.4
		h9.4c0.9,0,1.8,0,2.7,0.1s1.9,0.2,3.1,0.5s2.4,0.7,3.6,1.4s2.3,1.5,3.1,2.5c0.9,1,1.5,2.1,2,3.4
		C804.6,658.5,804.8,659.9,804.8,661.4z M800.2,661.8c0-1.8-0.4-3.4-1.2-4.7s-1.7-2.2-2.9-2.8s-2.3-1-3.5-1.2
		c-1.2-0.2-2.4-0.2-3.5-0.2h-6.6v18.4h6.3c2,0,3.7-0.2,5.1-0.7s2.5-1.1,3.4-1.9c0.9-0.8,1.6-1.8,2.1-3
		C799.9,664.4,800.2,663.2,800.2,661.8z"/>
	<path d="M850.7,676c0,2.6-0.4,4.9-1.2,6.9s-1.9,3.7-3.4,5.1c-1.5,1.4-3.3,2.4-5.4,3.1c-2.1,0.7-4.4,1.1-7,1.1c-2.4,0-4.5-0.3-6.5-1
		c-2-0.7-3.7-1.7-5.2-3c-1.4-1.3-2.6-3-3.4-4.9s-1.2-4.2-1.2-6.8V650c0-0.1,0-0.2,0.1-0.4s0.2-0.2,0.4-0.3c0.2-0.1,0.4-0.1,0.7-0.2
		c0.3,0,0.6-0.1,1-0.1c0.4,0,0.8,0,1,0.1c0.3,0,0.5,0.1,0.7,0.2s0.3,0.2,0.4,0.3c0.1,0.1,0.1,0.2,0.1,0.4v25.9c0,2.1,0.3,4,0.8,5.6
		c0.6,1.6,1.4,2.9,2.4,4c1.1,1.1,2.3,1.9,3.9,2.4c1.5,0.5,3.2,0.8,5.1,0.8c1.9,0,3.7-0.3,5.2-0.8c1.5-0.5,2.8-1.3,3.8-2.3
		c1-1,1.9-2.3,2.4-3.9c0.6-1.6,0.8-3.4,0.8-5.5V650c0-0.1,0-0.2,0.1-0.4s0.2-0.2,0.4-0.3s0.4-0.1,0.7-0.2c0.3,0,0.6-0.1,1-0.1
		c0.4,0,0.8,0,1,0.1c0.3,0,0.5,0.1,0.7,0.2s0.3,0.2,0.4,0.3c0.1,0.1,0.1,0.2,0.1,0.4V676z"/>
	<path d="M895.3,690.9c0,0.2,0,0.3-0.1,0.4c-0.1,0.1-0.2,0.2-0.3,0.3c-0.2,0.1-0.4,0.1-0.7,0.2c-0.3,0-0.7,0.1-1.1,0.1
		c-0.4,0-0.7,0-1,0c-0.3,0-0.5-0.1-0.7-0.2c-0.2-0.1-0.3-0.2-0.5-0.4c-0.1-0.2-0.2-0.4-0.3-0.6l-4.3-10.3c-0.5-1.2-1-2.2-1.6-3.3
		c-0.6-1-1.3-1.9-2.1-2.7c-0.8-0.8-1.8-1.3-2.9-1.8c-1.1-0.4-2.5-0.7-4.1-0.7h-4.8V691c0,0.1,0,0.3-0.1,0.4
		c-0.1,0.1-0.2,0.2-0.4,0.3c-0.2,0.1-0.4,0.1-0.7,0.2c-0.3,0-0.6,0.1-1.1,0.1c-0.4,0-0.8,0-1-0.1c-0.3,0-0.5-0.1-0.7-0.2
		c-0.2-0.1-0.3-0.2-0.4-0.3c-0.1-0.1-0.1-0.2-0.1-0.4v-39.6c0-0.8,0.2-1.3,0.7-1.6c0.5-0.3,0.9-0.4,1.3-0.4h8.7c1.1,0,2.1,0,2.8,0.1
		c0.8,0.1,1.4,0.1,2.1,0.2c1.8,0.3,3.3,0.7,4.6,1.4c1.3,0.6,2.4,1.4,3.3,2.3c0.9,0.9,1.5,2,1.9,3.1c0.4,1.2,0.6,2.4,0.6,3.8
		c0,1.4-0.2,2.6-0.6,3.7c-0.4,1.1-1,2.1-1.8,2.9c-0.8,0.8-1.7,1.6-2.8,2.2c-1.1,0.6-2.3,1.1-3.6,1.5c0.8,0.3,1.5,0.7,2.1,1.2
		c0.6,0.5,1.2,1.1,1.8,1.7c0.5,0.7,1,1.5,1.5,2.3c0.5,0.9,1,1.9,1.4,3l4.3,9.9c0.3,0.8,0.5,1.3,0.6,1.6
		C895.3,690.6,895.3,690.8,895.3,690.9z M887.6,660.6c0-1.8-0.4-3.3-1.3-4.6c-0.9-1.3-2.4-2.2-4.4-2.7c-0.7-0.2-1.4-0.3-2.3-0.4
		c-0.8-0.1-1.9-0.1-3.2-0.1h-5.7v15.5h6.7c1.8,0,3.3-0.2,4.6-0.6s2.4-1,3.2-1.7c0.8-0.7,1.5-1.5,1.9-2.5S887.6,661.7,887.6,660.6z"
		/>
</g>
</svg>
