<?xml version="1.0" encoding="utf-8"?>
<!-- Generator: Adobe Illustrator 24.3.0, SVG Export Plug-In . SVG Version: 6.00 Build 0)  -->
<svg version="1.1" id="Layer_1" xmlns="http://www.w3.org/2000/svg" xmlns:xlink="http://www.w3.org/1999/xlink" x="0px" y="0px"
	 viewBox="0 0 1895.9 812" style="enable-background:new 0 0 1895.9 812;" xml:space="preserve">
<style type="text/css">
	.st0{fill:#F8ABAD;}
</style>
<path class="st0" d="M96.8,310.3c-2.3,1.4-11.2,6.7-12.9,15.1c-1.5,7.4,3.6,9.5,1.8,18c-1.1,5.4-4.4,9.5-8.5,14.7
	c-5.2,6.6-6.7,6.1-9.8,10.7c-5.2,7.7-5,15.5-4.9,20.2c0.1,3.6,0.4,12.3,6.4,20.9c2.7,3.9,6.7,8.1,8.2,9.7c3.9,4,5.8,6,7.5,7.3
	c1.5,1.2,3.5,2.5,5.2,4.9c0.5,0.7,1.5,2,2,3.6c0.4,1.3,1,3.9-2.5,11c-0.4,0.9-1.5,3.1-5.1,8.7c-3.1,4.8-4.6,7.2-5.7,8.5
	c-4.4,5.1-9.8,7.8-13.9,9.9c-5.7,2.9-11.2,4.6-16,5.6c-0.9,0.2-1.7,0.7-2.3,1.3c-0.5,0.6-0.9,1.2-1.2,1.8
	c-4.8,8.1-0.4,17.2,1.4,20.3c0.1,0.1,0.1,0.2,0.2,0.3c8.5,11.8,14.4,14.1,18.4,13.9c1.1-0.1,2.2-0.3,4-0.2c6.5,0.5,10.8,5.5,12.1,7
	c8.5,9.3,27,19.3,35.9,22.8c12,4.8,23,4.4,37.2,4c14.9-0.5,16-2.8,42.8-6.5c17.2-2.4,26.1-3.6,38.8-3.5c11.1,0.1,14.9,1.1,33.5,2
	c10.6,0.5,19.5,0.7,25.7,0.7c1.2,0,2.3,0.5,3,1.3c2.7,3,6.7,6.5,12.6,8.6c6.8,2.5,11.5,1.5,30.6-0.7c25.8-3.1,27.8-2.6,44-5.2
	c4.8-0.8,10.3-3.4,18.5-3.4c6,0,7.2,1.1,15.7,2c8.1,0.8,14.2,0.6,22.4,0.2c11.7-0.5,11.1-1.3,22-1.9c13.5-0.7,12.6,0.6,27.7,0
	c11.7-0.5,14.3-1.4,20.9-0.2c6.5,1.2,7,2.6,13.9,3.4c4.2,0.5,8.4,0.3,16.7,0c6.3-0.2,7-0.4,10.7-0.6c9.1-0.3,15.7,0.6,19.6,1
	c18.3,1.9,20.7-1.2,43,0.6c16.2,1.2,19.1,3.2,31.4,2.5c5.8-0.3,8.6-1,17.1-1.2c11.6-0.4,13.4,0.6,21.9,0.4c17-0.3,19.4-4.3,32.4-3.9
	c10.5,0.3,17.5,3.1,22.4,4.7c12.5,4,32.7,7,66,1.8c1-0.2,1.9-0.7,2.5-1.4c0.5-0.6,1.1-1.1,1.9-1.5c1.3-0.6,2.5-0.7,3-0.7
	c12-0.5,21.3-3.4,36.3,0.3c4.2,1,3.4,1.2,7.7,2.3c4,1,15.5,3.7,41.1,0.7c4.7-0.5,22.2-2.7,35.6-2.5c2.8,0,7.6,0.2,10.2,2.9
	c2.5,2.6,1.3,5.8,3.5,6.6c2.1,0.8,4.8-1.4,7.4-2.8c3-1.6,7.1-2.8,22.9-1.8c14.8,1,18.5,2.5,28.4,3.3c6.5,0.5,15.8,0.8,27.5-0.7
	c1-0.1,1.9-0.6,2.5-1.3l0.8-1c0.8-0.9,2.1-1.4,3.4-1.3c6.6,0.5,16.2,0.9,27.6,0.7c16.9-0.4,23.1-2,34.3-1.8c8.8,0.2,21.5,1.6,37,7.2
	c1.3,0.5,2.7,0.3,3.8-0.4c0.9-0.6,1.9-1.2,3.1-1.8c2.2-1.1,6-3,11.2-3.6c1.4-0.2,11.1-1.2,18.4,4.1c0.7,0.5,1.3,1,1.8,1.5
	c0.8,0.8,2,1.2,3.2,1.1c3.5-0.3,8.2-0.7,13.7-0.9c17.5-0.6,27.4,1.4,39.8,2.5c29.9,2.7,27.4-3.5,54.7-0.8c0,0,23.1,2.3,37.4-1.7
	c4.4-1.2,4.5-1.2,4.5-1.2c5-1.4,5.6-1.7,6.5-1.8c4.7-0.6,9.1,3.8,10.5,5c7.9,6.8,25.6,4.4,47.6,3c11-0.7,27-1.3,47.3-1
	c14-0.4,25.5-0.3,33.4-0.1c15,0.3,22.6,1,36.1,0c7.8-0.6,7.5-1,17.7-1.8c7-0.6,17.4-1.4,30.3-1.2c8.5,0.1,19.5,0.6,32.5,2.4
	c0.5,0.1,1,0.1,1.5-0.1c3.8-0.8,7.9-1.5,12.1-2.1c16.5-2.2,31.3-1.6,43.1-0.2c0.1,0,0.2,0,0.3,0c9.2,0.4,18.5,0.7,27.7,1.1
	c1.6,0.1,3.1-0.7,3.7-1.9c0.2-0.5,0.6-1.1,1-1.7c3.9-4.9,13.1-5.1,21.9-5.1c9.3,0,21.3,0.3,35.5,1.2c1.2,0.1,2.4-0.3,3.2-1.1
	c1.1-1.1,2.6-2.3,4.6-3.3c5.7-2.9,11.1-1.7,15.5-2.2c10.2-1.1,16.1-11.2,19.4-15.9c6-8.3,18.4-19.3,46.8-30.1c1.1-0.4,2-1.3,2.2-2.3
	c1.2-5.8,2-12.6,1.7-20.3c-0.2-4.3-0.7-8.3-1.3-12c-0.1-0.6-0.5-1.2-1-1.7c-1.2-1.1-2.6-2.6-3.5-4.6c-2-4.4-0.3-8.3,1.2-13
	c0,0,1.3-4.1,1.5-34.2c0-0.3,0-1.1-0.5-1.9c-1.2-2-4.4-2.6-5.2-2.8c-5.6-1.4-9.5-13.2-10.5-21.5c-1.3-10.8,1.7-19.8,4.5-25.7
	c0.1-0.3,0.2-0.6,0.2-0.9c0.8-8.5,0.8-15.5,0.6-20.8c-0.4-12.6-2-15.5-4.5-17.5c-1.7-1.4-5.3-2.8-12.5-5.7c-3.7-1.5-5.6-2.2-7.7-2.6
	c-5.5-1.1-7.6,0.2-13-0.1c-7.5-0.4-7.5-3-14.4-3.6c-7.2-0.7-7.7,2.1-17.4,2.8c-9,0.6-10.6-1.7-18.6-0.8c-7.4,0.8-11,3.3-15.4,4.8
	c-13.6,4.8-28.6-2.1-39.5-5.7c-10.8-3.6-28.3-4.3-63.2-5.7c-21.4-0.8-80.6-1.9-108.7,2.5c-4.5,0.7-11.9,2.1-21.1,0.3
	c-7.8-1.6-9.8-4.1-18.4-5.7c-5.9-1.1-9.7-0.7-18.7-0.3c-9.6,0.5-19.3,0.3-28.9,0.8c-37.2,1.9-50.4-3.6-89.4-0.4
	c-23.5,1.9-25.2,4.4-38.1,3c-17.7-1.9-33-3.5-41.8-5.2c-0.8-0.2-2.9-0.6-5.7-0.4c-6.1,0.4-10.3,3.6-11.2,4.1
	c-8.3,5.6-35.6-0.1-46.3-1.9c-8.8-1.5-44.4-7.7-78.9,1.2c-12.2,3.1-18.4,6.7-31.4,6.5c-12.2-0.2-17-3.4-32.4-4.4
	c-13-0.8-13.7,1.2-27.9,1.4c-21.6,0.2-40.6-4.4-54.5-7.7c-14.3-3.5-20.3-6-31.1-5c-7.8,0.8-8.1,2.5-20.6,5.2
	c-5.4,1.2-18.7,4.1-34.8,3.9c-15.4-0.2-16.8-3-29.3-1.8c-9.4,0.9-11.1,2.8-21.4,4.4c-9.2,1.5-13.1,0.9-30.6,0.7
	c-26.6-0.3-28.1,1.1-52.7,0.4c-7.7-0.2-4.7-0.3-22.4-1c-34.8-1.4-39.7-0.9-52-2.2c-8.1-0.9-19.9-2.5-34.1-6.2
	c-1.1-0.3-2.2-0.1-3.1,0.3c-7.2,3.7-13.1,5.5-16.7,6.4c-5.8,1.5-8.1,1.3-9.9,0.8c-3.2-0.8-4.1-2.5-6.5-2.2c-1.7,0.2-2,1-6.4,3.9
	c-2.6,1.7-3.8,2.5-5,2.8c-4.2,1-8.5-1.5-9.2-1.9c-5.4-3.1-4.7-7.2-8-7.7c-2.4-0.4-3.5,1.6-8.9,4.1c0,0-2.9,1.3-9.2,3
	c-17.6,4.7-48.8-0.6-48.8-0.6c-11.5-1.9-27.1-5.3-44.8-11.7c-0.9-0.3-1.8-0.3-2.7-0.1c-1.8,0.5-4.6,1.3-8,2.2
	c-21,5.9-27,7.7-35.6,7.5c-3.9-0.1-2.6-0.5-8.7-1c-8.9-0.7-14.6-0.1-31.3,1.4c-19.2,1.7-22.1,2-26.7,2.1c-8.3,0.2-7.7-0.2-17.1-0.1
	c-2.9,0-17,0.2-35.9,2.5c-9.5,1.1-10.9,1.7-17.2,2.5c-19.2,2.4-33.4,0.8-45,0c-32.7-2.3-30.6,3-60.8,1.1
	C128,310.9,112.2,301.2,96.8,310.3z"/>
<g>
	<path d="M398.4,287.2h56.9c6.4,0,12.9,1.2,19.4,3.6c6.5,2.4,12.6,5.9,18.2,10.5c5.6,4.6,10.2,10.5,13.7,17.9
		c3.5,7.4,5.2,15.5,5.2,24.5c0,9.1-1.6,17.7-4.7,25.7c-3.1,8-7.3,14.8-12.6,20.4c-5.2,5.6-11.3,9.9-18.1,13.2
		c-6.8,3.2-13.9,4.8-21.1,4.8h-56.9c-1.1,0-1.6-0.5-1.6-1.6c0-0.8,0.5-1.3,1.6-1.4c4.2-0.5,6.9-2.1,8.3-4.8
		c1.4-2.7,2.1-7.1,2.1-13.3v-78.4c0-6.2-0.7-10.6-2.1-13.3c-1.4-2.7-4.2-4.3-8.3-4.8c-1.1-0.1-1.6-0.6-1.6-1.4
		C396.8,287.7,397.3,287.2,398.4,287.2z M436.8,290.2v114.6h5c11.5,0,21.4-5.4,29.5-16.3c8.2-10.9,12.3-25.8,12.3-44.8
		c0-7.6-0.9-14.6-2.8-20.8c-1.9-6.2-4.3-11.3-7.1-15.3c-2.9-4-6.1-7.3-9.7-9.9c-3.6-2.7-7.2-4.6-10.7-5.7c-3.5-1.1-6.9-1.7-10.3-1.7
		H436.8z"/>
	<path d="M564.6,330c3.5,0,7,0.4,10.5,1.3c3.5,0.9,6.8,2.2,10,4.1c3.2,1.9,5.9,4.2,8,6.8c1.7,2.3,2.9,4.8,3.6,7.6
		c0.7,2.8,0.7,5.5,0.1,8.1c-0.6,2.6-2.1,4.9-4.4,6.8c-2.3,1.9-5.5,3.1-9.3,3.5l-29.3,3.4c1.3,6.4,4,11.7,8,15.7c4,4,8.3,6.5,13,7.4
		c4.6,0.9,9.2,0.6,13.7-1.1c4.5-1.7,7.9-4.6,10.4-8.7c0.1-0.1,0.2-0.3,0.2-0.4c0.9-1.9,1.9-2.6,2.8-2.2c0.7,0.4,0.9,1,0.8,1.8
		c-4.4,16.5-17,24.7-37.6,24.7c-5.8,0-11.3-1-16.5-3.1c-5.2-2.1-9.9-5.3-14-9.5c-4.1-4.3-6.9-9.3-8.5-15.1c-0.8-2.3-1.3-4.8-1.6-7.6
		c-0.5-6-0.2-11.6,1.1-16.7c1.3-5.1,3.5-9.7,6.5-13.8c3.1-4.1,7.4-7.3,12.9-9.6C550.4,331.2,557,330,564.6,330z M564.4,333
		c-3.5,0-6.4,2.1-8.6,6.3c-2.3,4.2-3.5,9-3.7,14.3c-0.2,5.3,0.2,10.4,1.1,15.4c7.5-0.9,13.3-2.9,17.5-5.8c4.2-2.9,6-7.4,5.4-13.5
		c-0.3-2.7-0.6-5-1.1-6.8c-0.5-1.9-1.1-3.6-2-5.2c-0.9-1.6-2-2.8-3.4-3.5C568.1,333.4,566.4,333,564.4,333z"/>
	<path d="M640,287.6c0.5-0.5,1.1-0.6,1.8-0.2c0.5,0.3,0.8,0.7,0.8,1.4v48.4c5.9-4.4,12.2-6.8,18.9-7c6.7-0.3,12.7,1.2,18.1,4.3
		c5.4,3.2,9.9,7.7,13.6,13.6c3.7,5.9,5.6,12.3,5.7,19.3c0.3,11.1-2.8,20.7-9.1,28.7c-6.4,8-14.4,12.4-24.2,13.1
		c-10.3,0.7-19.3-3.1-26.9-11.3l-21.9,9.6c-1.5,0.5-2.2,0.1-2.2-1.4v-81.6c0-6.4-0.7-11.3-2.2-14.6c-1.5-3.3-4-5.3-7.6-5.9
		c-1.1,0-1.6-0.5-1.6-1.6c0-0.9,0.5-1.4,1.6-1.4c4.4-0.1,8.8-0.8,13.3-2.1c4.4-1.3,8.2-2.8,11.5-4.5c3.2-1.7,5.6-3.1,7-4.1
		C637.8,289.3,639,288.4,640,287.6z M650.8,336.4c-2.4,0-4.4,1.2-5.8,3.6c-3.8,6-3.4,17.6,1,34.6c2.8,10,6.2,18,10.2,23.9
		c4,5.9,7.9,8.3,11.8,7.2c3.8-0.9,5.8-5.3,6.1-13.2c0.3-7.8-0.8-16-3.3-24.6c-1.6-6.2-3.5-11.6-5.6-16.3c-2.1-4.7-4.5-8.4-6.9-11.2
		C655.7,337.8,653.2,336.4,650.8,336.4z"/>
	<path d="M743.7,330c24.3-1.2,38,8.2,41.2,28.3l3,25.9c1.7,10.6,5,16.3,9.6,17.1c0.1,0.1,0.6,0.2,1.5,0.1c0.9-0.1,1.4-0.1,1.7-0.1
		c0.8,0,1.3,0.4,1.4,1.1c0.1,0.7-0.1,1.3-0.8,1.7c-5.6,3.4-12,5-19.1,5c-10,0-16.8-3.3-20.1-10.1c-1.2,1.3-2.5,2.5-3.9,3.5
		s-3,2-4.9,2.9c-1.9,0.9-4.3,1.7-7.1,2.4c-2.9,0.7-6,1-9.3,1c-4.8,0-9.2-0.6-13.2-1.8c-4-1.2-7.3-3.3-10-6.4
		c-2.7-3.1-4.1-7-4.1-11.9c0-4.7,1-8.6,3-11.7c2-3.1,4.7-5.3,8-6.6c3.3-1.3,6.7-2.3,10.2-3c3.4-0.7,7.1-1.3,11.1-1.9
		c4-0.6,6.9-1.4,8.9-2.3c2.4-1.1,4-2.5,4.7-4.2c0.7-1.7,0.9-4.2,0.5-7.2c-0.3-2.8-0.8-5.5-1.7-8c-0.9-2.5-2.4-5-4.7-7.3
		c-2.3-2.3-5-3.5-8-3.5c-2.9,0-5.1,0.7-6.5,2.1c-1.4,1.4-2.1,3.1-2.1,5.1c0,1.3,0.4,2.5,1.3,3.6c0.9,1.1,1.8,1.9,2.9,2.6
		c1.1,0.7,2,1.7,2.7,3.2c0.7,1.5,0.9,3.1,0.6,5c-0.3,1.9-1.3,3.5-2.8,4.9c-1.5,1.4-3.3,2.3-5.2,2.7c-1.9,0.4-4,0.5-6,0.2
		c-2.1-0.3-4-1.1-5.6-2.6c-1.7-1.5-2.8-3.3-3.3-5.6c-1.7-6.2-0.3-11.6,4.4-16.4C726.5,333.2,733.8,330.5,743.7,330z M757.2,362.2
		c-1.3,1.9-3.1,3.4-5.2,4.4c-0.4,0.3-1.5,0.9-3.3,2c-1.8,1.1-3,1.8-3.7,2.3c-0.7,0.5-1.7,1.3-3.2,2.5c-1.5,1.2-2.5,2.3-3.1,3.3
		c-0.6,1-1.2,2.3-1.7,4c-0.5,1.7-0.8,3.5-0.8,5.3c0,7.5,3.1,12.5,9.2,14.9c5,1.9,9.1,1.3,12.5-1.6c2.3-1.9,3.2-4.4,2.8-7.4
		L757.2,362.2z"/>
	<path d="M833.3,302.9c0.3-0.8,0.8-1.1,1.6-1c0.8,0.1,1.2,0.7,1.2,1.6v30.8H850c1.1,0,1.6,0.5,1.6,1.5s-0.5,1.5-1.6,1.5h-13.9v43.6
		c0,10.5,2.1,15.6,6.4,15.5c1.6,0,3.2-0.7,4.8-2.2c1.6-1.5,2.8-3.1,3.6-5c0.3-0.7,0.7-1,1.4-1c0.5,0,0.9,0.2,1.2,0.7
		c0.3,0.5,0.3,1,0,1.5c-2.3,5.2-5.6,9.6-10.1,13.3s-9.3,5.4-14.7,5.4c-7,0-12.2-2.2-15.7-6.5c-3.5-4.4-5.2-11.6-5.2-21.6l0.2-31
		c0-2.4,0-4.2,0-5.4s-0.2-2.4-0.5-3.6c-0.3-1.2-0.6-2-0.8-2.3c-0.2-0.3-0.8-0.7-1.8-1c-1-0.3-1.9-0.5-2.7-0.5c-0.8,0-2.1,0-4,0
		c-1.2-0.3-1.8-0.8-1.8-1.6c0-0.8,0.5-1.3,1.6-1.4c5.6-1.2,12.4-5.1,20.4-11.8C826.5,315.6,831.5,309.2,833.3,302.9z"/>
	<path d="M894,330.4c0.4-0.4,0.9-0.5,1.5-0.3s0.9,0.7,0.9,1.5v55.1c0,4,0.3,7.3,1,9.7c0.7,2.5,1.8,4.4,3.3,5.7
		c1.5,1.3,3.6,2.2,6.1,2.6c1.1,0.1,1.6,0.6,1.6,1.4c0,1.1-0.5,1.6-1.4,1.6h-49c-1.1,0-1.6-0.5-1.6-1.6c0-0.8,0.5-1.3,1.6-1.4
		c4.2-0.5,6.9-2.1,8.3-4.8c1.4-2.7,2.1-7.1,2.1-13.3v-19.3c0-6.4-0.8-11.3-2.3-14.6c-1.5-3.3-4.1-5.3-7.5-5.9
		c-1.1-0.3-1.6-0.8-1.6-1.6c0-0.9,0.5-1.4,1.6-1.4c5.8-0.3,11.6-1.5,17.5-3.8c5.9-2.3,10-4.2,12.3-5.6
		C890.7,333,892.6,331.6,894,330.4z M880.2,287.2c4,0,7.7,1.5,11.2,4.5c3.4,3,5.1,6.9,5.1,11.8c0,4.6-1.6,8.4-4.7,11.7
		c-3.1,3.2-7,4.8-11.6,4.8c-3.9,0-7.6-1.5-11.1-4.6c-3.5-3.1-5.2-7-5.2-11.9c0-4.4,1.6-8.2,4.7-11.5
		C871.8,288.8,875.6,287.2,880.2,287.2z"/>
	<path d="M957.7,329.8c0.3,0,0.5,0.1,0.8,0.2c0.4,0.3,0.6,0.7,0.6,1.4v7.4c4.8-5.8,11.5-8.6,19.9-8.6c19.6,0,30.8,9.4,33.8,28.1
		l3.2,28.3c0.8,5.9,2.1,10.2,4,13c1.9,2.7,4.8,4.5,8.6,5.1c1.2,0.1,1.8,0.6,1.8,1.4c0,1.1-0.5,1.6-1.6,1.6h-48.6
		c-1.2,0-1.8-0.5-1.8-1.6c0-0.8,0.6-1.3,1.8-1.4c3.9-0.7,6.3-2.3,7.3-4.9c1-2.6,1.2-7,0.5-13.2l-3.2-31.2c-0.8-6-2.4-11-4.8-15
		c-2.4-4-5.9-5.6-10.5-4.9c-2.3,0.3-4.1,1.1-5.5,2.4c-1.4,1.3-2.4,3.3-3.1,5.9c-0.7,2.6-1.1,5.4-1.4,8.4c-0.3,3-0.4,6.9-0.4,11.6
		v22.7c0,6,0.8,10.4,2.4,13.2c1.6,2.7,4.3,4.4,8,4.9c1.1,0.1,1.6,0.6,1.6,1.4c0,1.1-0.5,1.6-1.4,1.6h-49c-1.1,0-1.6-0.5-1.6-1.6
		c0-0.8,0.5-1.3,1.6-1.4c4.2-0.5,6.9-2.1,8.3-4.8c1.4-2.7,2.1-7.1,2.1-13.3v-19.3c0-6.7-0.6-11.6-1.8-14.6c-1.2-3-3.9-5.1-8-6.1
		c-1.1-0.3-1.6-0.8-1.6-1.6c0-0.9,0.5-1.5,1.6-1.6c5.8-0.1,11.6-1.3,17.5-3.6c5.9-2.3,10-4.2,12.3-5.6c2.3-1.5,4.2-2.8,5.6-4
		C957,329.9,957.3,329.8,957.7,329.8z"/>
	<path d="M1095.4,313.9c4.7-4.4,9.9-6.6,15.7-6.6c3.1,0,5.8,0.8,8.1,2.3c2.3,1.5,3.9,3.7,4.7,6.3c0.9,2.9,1,5.6,0.3,7.9
		c-0.7,2.3-2.1,4.3-4,5.9c-1.9,1.6-4.1,2.5-6.3,2.6c-3.8,0.1-6-1-6.8-3.4c-0.3-1.1-0.3-2.5-0.1-4.2c0.2-1.7,0-3-0.7-3.8
		c-2.7-3.6-6.2-3.5-10.7,0.2c-2.8,2.3-4.6,5-5.2,8.2c7.5,2.1,13.6,6,18.3,11.7c4.7,5.6,7,12,7,19.1c0,8.8-3.5,16.4-10.6,22.7
		c-7,6.3-15.6,9.4-25.6,9.4c-7.1,0-13.5-1.6-19.3-4.8c-4.2,1.1-5.9,2.9-5.2,5.6c0.5,2.1,2.7,4,6.5,5.5c3.8,1.5,8.8,2.3,15,2.3
		c7.9,0,14.4,0.2,19.5,0.7c5.1,0.5,9.8,1.4,14.2,2.8c4.4,1.4,7.5,3.5,9.5,6.2c2,2.7,3,6.3,3,10.6c0,6.7-2.2,12.4-6.7,17.2
		c-4.5,4.8-10.2,8.2-17,10.4c-6.8,2.1-14.4,3.2-22.7,3.2c-2.9,0-5.9-0.1-8.7-0.3c-2.9-0.2-6.1-0.7-9.7-1.5s-6.7-1.8-9.2-3.1
		c-2.5-1.3-4.8-3.1-6.6-5.5c-1.9-2.4-2.8-5.2-2.8-8.4c0-6,4-10.2,11.9-12.5c-3.5-0.9-6.2-3-8-6.1c-1.9-3.2-2.7-6.6-2.6-10.3
		c0.1-3.7,1.6-7.3,4.5-11c2.9-3.6,6.9-6.2,12.2-7.8c-9.1-6.4-13.7-14.9-13.7-25.3c0-8.8,3.5-16.4,10.6-22.7c7-6.3,15.6-9.4,25.6-9.4
		c2.5,0,5.2,0.3,7.8,0.8c0.9-3.1,1.9-5.5,2.8-7.2C1091.5,318.6,1093.3,316.1,1095.4,313.9z M1061.9,423.3c-3.2,2.8-5,6.2-5.2,10.3
		c-0.3,4,1.3,7.6,4.8,10.8c3.5,3.1,8.5,4.7,15.1,4.7c9.1,0,16.5-2.9,22.1-8.6c4.4-4.6,5.4-8.4,2.8-11.7c-1.7-2.3-5-3.6-9.8-3.8
		C1080.6,424.5,1070.7,423.9,1061.9,423.3z M1073.9,331.8c-2.4,0-4.2,1.7-5.4,5.2c-2,5.4-1.4,13.9,1.8,25.5c2.3,8.2,5,14.7,8.1,19.5
		c3.1,4.8,6.3,6.8,9.3,6c3.1-0.9,4.8-4.4,5.1-10.3c0.3-5.9-0.6-12.7-2.7-20.5c-3.2-11.5-7-19.3-11.3-23.3
		C1077.2,332.6,1075.5,331.8,1073.9,331.8z"/>
	<path d="M1212.2,330c24.3-1.2,38,8.2,41.2,28.3l3,25.9c1.7,10.6,5,16.3,9.6,17.1c0.1,0.1,0.6,0.2,1.5,0.1c0.9-0.1,1.4-0.1,1.7-0.1
		c0.8,0,1.3,0.4,1.4,1.1c0.1,0.7-0.1,1.3-0.8,1.7c-5.6,3.4-12,5-19.1,5c-10.1,0-16.8-3.3-20.1-10.1c-1.2,1.3-2.5,2.5-3.9,3.5
		c-1.4,1-3,2-4.9,2.9c-1.9,0.9-4.3,1.7-7.1,2.4c-2.9,0.7-6,1-9.3,1c-4.8,0-9.2-0.6-13.2-1.8c-4-1.2-7.3-3.3-10-6.4
		c-2.7-3.1-4.1-7-4.1-11.9c0-4.7,1-8.6,3-11.7c2-3.1,4.7-5.3,8-6.6c3.3-1.3,6.7-2.3,10.2-3c3.4-0.7,7.1-1.3,11.1-1.9
		c4-0.6,6.9-1.4,8.9-2.3c2.4-1.1,4-2.5,4.7-4.2c0.7-1.7,0.9-4.2,0.5-7.2c-0.3-2.8-0.8-5.5-1.7-8c-0.9-2.5-2.4-5-4.7-7.3
		c-2.3-2.3-5-3.5-8-3.5c-2.9,0-5.1,0.7-6.5,2.1c-1.4,1.4-2.1,3.1-2.1,5.1c0,1.3,0.4,2.5,1.3,3.6c0.9,1.1,1.8,1.9,2.9,2.6
		c1.1,0.7,2,1.7,2.7,3.2c0.7,1.5,0.9,3.1,0.6,5c-0.3,1.9-1.3,3.5-2.8,4.9c-1.5,1.4-3.3,2.3-5.2,2.7c-1.9,0.4-4,0.5-6,0.2
		c-2.1-0.3-4-1.1-5.6-2.6c-1.7-1.5-2.8-3.3-3.3-5.6c-1.7-6.2-0.3-11.6,4.4-16.4C1195,333.2,1202.3,330.5,1212.2,330z M1225.7,362.2
		c-1.3,1.9-3.1,3.4-5.2,4.4c-0.4,0.3-1.5,0.9-3.3,2c-1.8,1.1-3,1.8-3.7,2.3c-0.7,0.5-1.7,1.3-3.2,2.5c-1.5,1.2-2.5,2.3-3.1,3.3
		c-0.6,1-1.2,2.3-1.7,4c-0.5,1.7-0.8,3.5-0.8,5.3c0,7.5,3.1,12.5,9.2,14.9c5,1.9,9.1,1.3,12.5-1.6c2.3-1.9,3.2-4.4,2.8-7.4
		L1225.7,362.2z"/>
	<path d="M1317.7,329.8c0.3,0,0.5,0.1,0.8,0.2c0.4,0.3,0.6,0.7,0.6,1.4v7.4c4.8-5.8,11.5-8.6,19.9-8.6c19.6,0,30.8,9.4,33.8,28.1
		l3.2,28.3c0.8,5.9,2.1,10.2,4,13c1.9,2.7,4.8,4.5,8.6,5.1c1.2,0.1,1.8,0.6,1.8,1.4c0,1.1-0.5,1.6-1.6,1.6h-48.6
		c-1.2,0-1.8-0.5-1.8-1.6c0-0.8,0.6-1.3,1.8-1.4c3.9-0.7,6.3-2.3,7.3-4.9c1-2.6,1.2-7,0.5-13.2l-3.2-31.2c-0.8-6-2.4-11-4.8-15
		c-2.4-4-5.9-5.6-10.5-4.9c-2.3,0.3-4.1,1.1-5.5,2.4c-1.4,1.3-2.4,3.3-3.1,5.9c-0.7,2.6-1.1,5.4-1.4,8.4c-0.3,3-0.4,6.9-0.4,11.6
		v22.7c0,6,0.8,10.4,2.4,13.2c1.6,2.7,4.3,4.4,8,4.9c1.1,0.1,1.6,0.6,1.6,1.4c0,1.1-0.5,1.6-1.4,1.6h-49c-1.1,0-1.6-0.5-1.6-1.6
		c0-0.8,0.5-1.3,1.6-1.4c4.2-0.5,6.9-2.1,8.3-4.8c1.4-2.7,2.1-7.1,2.1-13.3v-19.3c0-6.7-0.6-11.6-1.8-14.6c-1.2-3-3.9-5.1-8-6.1
		c-1.1-0.3-1.6-0.8-1.6-1.6c0-0.9,0.5-1.5,1.6-1.6c5.8-0.1,11.6-1.3,17.5-3.6c5.9-2.3,10-4.2,12.3-5.6c2.3-1.5,4.2-2.8,5.6-4
		C1317,329.9,1317.3,329.8,1317.7,329.8z"/>
	<path d="M1471.1,287.6c0.5-0.4,1.1-0.5,1.6-0.2c0.5,0.3,0.8,0.7,0.8,1.4v94.1c0,5,0.5,9,1.4,12.1c0.9,3.8,2.8,5.9,5.6,6.4
		c0.1,0.1,0.6,0.2,1.5,0.1c0.9-0.1,1.4-0.1,1.7-0.1c0.7,0,1.1,0.4,1.3,1.1c0.2,0.7,0,1.3-0.7,1.7c-5.8,3.2-11.5,4.8-17.3,4.8
		c-9.4,0.5-15.9-2.3-19.5-8.4c-6,5.4-12.8,8.2-20.3,8.6h-1.8h-1.8c-6-0.3-11.6-2.1-16.8-5.5c-5.2-3.4-9.3-7.9-12.4-13.5
		c-3.1-5.6-4.8-11.7-5.2-18.4c-0.7-11,2.2-20.5,8.6-28.6c6.4-8.1,14.6-12.4,24.5-13c8.6-0.5,16.3,2,23.1,7.6v-13.3
		c0-6.4-0.8-11.3-2.3-14.6c-1.5-3.3-4.1-5.3-7.7-5.9c-0.9-0.1-1.4-0.7-1.4-1.6c0-0.9,0.5-1.4,1.4-1.4c5.9-0.3,11.8-1.5,17.7-3.7
		c5.9-2.2,10-4.1,12.3-5.6C1467.7,290.2,1469.6,288.8,1471.1,287.6z M1421.7,332.8c-0.4,0-0.9,0.1-1.4,0.2c-3.9,1.1-6,5.3-6.4,12.8
		c-0.4,7.4,0.7,15.9,3.4,25.4c2.5,9.5,5.7,17.2,9.3,23.1c3.7,5.9,7.3,8.8,11,8.8c0.4,0,0.9-0.1,1.4-0.4c3.9-1.1,6-5.3,6.4-12.7
		c0.4-7.4-0.7-15.8-3.4-25.3c-2.5-9.5-5.7-17.3-9.3-23.2C1428.9,335.6,1425.3,332.7,1421.7,332.8z"/>
	<path d="M204.3,441.2h56.9c6.4,0,12.9,1.2,19.4,3.6c6.5,2.4,12.6,5.9,18.2,10.5c5.6,4.6,10.2,10.5,13.7,17.9
		c3.5,7.4,5.2,15.5,5.2,24.5c0,9.1-1.6,17.7-4.7,25.7c-3.2,8-7.3,14.8-12.6,20.4c-5.2,5.6-11.3,9.9-18.1,13.2s-13.9,4.8-21.1,4.8
		h-56.9c-1.1,0-1.6-0.5-1.6-1.6c0-0.8,0.5-1.3,1.6-1.4c4.2-0.5,6.9-2.1,8.3-4.8c1.4-2.7,2.1-7.1,2.1-13.3v-78.4
		c0-6.2-0.7-10.6-2.1-13.3c-1.4-2.7-4.2-4.3-8.3-4.8c-1.1-0.1-1.6-0.6-1.6-1.4C202.7,441.7,203.2,441.2,204.3,441.2z M242.7,444.2
		v114.6h5c11.5,0,21.4-5.4,29.5-16.3c8.2-10.9,12.3-25.8,12.3-44.8c0-7.6-0.9-14.6-2.8-20.8c-1.9-6.2-4.3-11.3-7.1-15.3
		c-2.9-4-6.1-7.3-9.7-10c-3.6-2.7-7.2-4.6-10.7-5.7c-3.5-1.1-6.9-1.7-10.3-1.7H242.7z"/>
	<path d="M365.7,484.4c0.4-0.4,0.9-0.5,1.5-0.3s0.9,0.7,0.9,1.5v55.1c0,4,0.3,7.3,1,9.7c0.7,2.5,1.8,4.4,3.3,5.7
		c1.5,1.3,3.6,2.2,6.1,2.6c1.1,0.1,1.6,0.6,1.6,1.4c0,1.1-0.5,1.6-1.4,1.6h-49c-1.1,0-1.6-0.5-1.6-1.6c0-0.8,0.5-1.3,1.6-1.4
		c4.2-0.5,6.9-2.1,8.3-4.8c1.4-2.7,2.1-7.1,2.1-13.3v-19.3c0-6.4-0.8-11.3-2.3-14.6c-1.5-3.3-4.1-5.3-7.5-5.9
		c-1.1-0.3-1.6-0.8-1.6-1.6c0-0.9,0.5-1.4,1.6-1.4c5.8-0.3,11.6-1.5,17.5-3.8c5.9-2.3,10-4.2,12.3-5.6
		C362.4,487,364.2,485.6,365.7,484.4z M351.9,441.2c4,0,7.7,1.5,11.2,4.5c3.4,3,5.1,6.9,5.1,11.8c0,4.6-1.6,8.4-4.7,11.7
		c-3.1,3.2-7,4.8-11.6,4.8c-3.9,0-7.6-1.5-11.1-4.6c-3.5-3.1-5.2-7-5.2-11.9c0-4.4,1.6-8.2,4.7-11.5
		C343.4,442.8,347.3,441.2,351.9,441.2z"/>
	<path d="M417.2,484c3.2,0,6.4,0.2,9.5,0.6c3.1,0.4,5.2,0.7,6,0.9c0.9,0.2,1.9,0.2,3.1-0.1c1.3-0.9,2.1-1.4,2.4-1.4
		c0.9,0,1.5,0.5,1.6,1.4l2,22.1c0,1.1-0.5,1.6-1.4,1.6c-0.8,0.1-1.3-0.3-1.6-1.4c-2-8.7-5.4-14.6-10-17.7c-3.1-2-7-3-11.7-3
		c-4.3,0-7.2,1.6-8.8,4.8s-1.5,6.5,0.4,9.8c1.1,2,3.3,4,6.7,5.9c3.4,1.9,7.1,3.8,11.2,5.4c4,1.7,8,3.5,11.9,5.5
		c3.9,2,7.1,4.5,9.7,7.5c2.6,3,3.9,6.5,3.9,10.4c0,7.9-3.4,14.3-10.3,19.2c-6.8,4.9-16.1,7.3-27.7,7.3c-10,0-17.8-2.5-23.2-7.4
		c-5.4-5-7.3-10.5-5.7-16.7c0.8-2.7,2.2-4.8,4.1-6.2c1.9-1.5,4.2-2.2,6.7-2.2c3.6,0,6.6,1.1,8.9,3.4c2.3,2.3,3.3,4.9,2.9,7.8
		c-0.4,2.1-1.7,4.1-3.9,5.9c-2.2,1.8-3.3,3.5-3.3,5.1c0.1,1.9,1.3,3.6,3.6,5c2.3,1.5,5,2.2,8.2,2.2c5.2,0,9.1-1.3,11.6-3.9
		c2.5-2.6,3.7-5.6,3.7-8.9c0-2.8-1-5.3-2.9-7.4c-1.9-2.1-4.4-3.9-7.3-5.2c-2.9-1.3-6.2-2.8-9.7-4.5c-3.6-1.7-6.9-3.3-9.9-5
		c-3.1-1.7-5.7-4-7.9-6.9c-2.2-2.9-3.5-6.4-3.9-10.3c-0.7-7,1.5-12.7,6.6-17.1S405.9,484,417.2,484z"/>
	<path d="M505,484c5.8,0,10.9,0.9,15.5,2.7c4.6,1.8,8,4.2,10.3,7c2.3,2.9,3.7,6.2,4.2,9.9c0.5,3.8-0.3,7.6-2.4,11.7
		c-1.2,2.3-3,4-5.3,5.1c-2.3,1.1-4.7,1.6-7.1,1.5c-2.4-0.1-4.7-0.9-6.7-2.3c-2.1-1.4-3.5-3.3-4.1-5.7c-0.7-2.3-0.6-4.2,0.2-5.8
		s1.8-2.8,3.1-3.6c1.3-0.8,2.5-1.9,3.7-3.2c1.2-1.3,1.8-2.7,1.8-4.2c-0.1-2.7-1.2-5-3.2-7c-2-2-4.7-3-8-3c-5.5,0-9.8,3.5-13.1,10.5
		c-3.2,7-4.1,15.3-2.6,25.1c1.2,8.3,4.4,15.1,9.5,20.4c5.2,5.3,10.9,7.9,17.2,7.7c4.4,0,8.4-1.3,12-3.8c3.5-2.5,6.2-5.7,7.9-9.4
		c0.3-0.9,0.9-1.3,1.9-1.1s1.4,0.8,1.1,1.9c-1.3,5-3.9,9.3-7.7,13.2c-3.8,3.8-8.3,6.7-13.6,8.7c-5.2,2-10.7,3-16.5,3
		c-10.2-0.1-19.3-3.4-27.2-9.7c-8-6.4-12.4-15-13.4-25.8c-1.1-12.3,2-22.7,9.3-31.1C479,488.2,490.1,484,505,484z"/>
	<path d="M581.4,484c1.1,0,1.6,0.5,1.6,1.6v49c0,7.1,1,12.9,3,17.5c2,4.6,5.3,6.8,9.8,6.8c4.3-0.1,7.7-2.9,10.3-8.4
		c2.5-5.5,3.8-11.5,3.8-18.1v-11.1c0-4.3-0.3-7.8-0.9-10.7c-0.6-2.8-1.6-5.1-3.1-6.7c-1.5-1.7-3.4-2.7-5.6-3.1
		c-1.2-0.3-1.8-0.8-1.8-1.6c0-0.9,0.5-1.4,1.6-1.4c4.6-0.1,9-0.8,13.4-2.1c4.4-1.3,8.1-2.8,11.4-4.5c3.2-1.7,5.6-3.1,7-4.1
		c1.5-1,2.7-1.9,3.6-2.7c0.3-0.3,0.6-0.4,1-0.4c1.1,0,1.6,0.5,1.6,1.6v51.3c0,5,0.4,9,1.2,12.1c1.1,3.8,2.9,5.9,5.6,6.4
		c0.3,0.1,0.8,0.2,1.7,0.1c0.9-0.1,1.4-0.1,1.5-0.1c0.8,0,1.3,0.4,1.5,1.1c0.2,0.7,0,1.3-0.7,1.7c-5.9,3.2-11.7,4.8-17.5,4.8
		c-9.6,0-16.2-3-19.7-9c-4.6,6.2-12.7,9.2-24.5,9c-9.5,0-17.3-2.5-23.3-7.4c-6-5-9-11.9-9-20.9v-13.3c0-6.4-0.7-11.3-2.2-14.6
		c-1.5-3.3-4-5.3-7.4-5.9c-1.2-0.3-1.8-0.8-1.8-1.6c0-0.9,0.5-1.4,1.6-1.4c5.9-0.3,11.8-1.5,17.7-3.8c5.9-2.3,9.9-4.2,12.2-5.6
		c2.2-1.5,4.1-2.8,5.5-4C580.6,484.1,581,484,581.4,484z"/>
	<path d="M686.5,484c3.2,0,6.4,0.2,9.5,0.6c3.1,0.4,5.2,0.7,6,0.9c0.9,0.2,1.9,0.2,3.1-0.1c1.3-0.9,2.1-1.4,2.4-1.4
		c0.9,0,1.5,0.5,1.6,1.4l2,22.1c0,1.1-0.5,1.6-1.4,1.6c-0.8,0.1-1.3-0.3-1.6-1.4c-2-8.7-5.4-14.6-10-17.7c-3.1-2-7-3-11.7-3
		c-4.3,0-7.2,1.6-8.8,4.8s-1.5,6.5,0.4,9.8c1.1,2,3.3,4,6.7,5.9c3.4,1.9,7.1,3.8,11.2,5.4c4,1.7,8,3.5,11.9,5.5
		c3.9,2,7.1,4.5,9.7,7.5c2.6,3,3.9,6.5,3.9,10.4c0,7.9-3.4,14.3-10.3,19.2c-6.8,4.9-16.1,7.3-27.7,7.3c-10,0-17.8-2.5-23.2-7.4
		c-5.4-5-7.3-10.5-5.7-16.7c0.8-2.7,2.2-4.8,4.1-6.2c1.9-1.5,4.2-2.2,6.7-2.2c3.6,0,6.6,1.1,8.9,3.4c2.3,2.3,3.3,4.9,2.9,7.8
		c-0.4,2.1-1.7,4.1-3.9,5.9c-2.2,1.8-3.3,3.5-3.3,5.1c0.1,1.9,1.3,3.6,3.6,5c2.3,1.5,5,2.2,8.2,2.2c5.2,0,9.1-1.3,11.6-3.9
		c2.5-2.6,3.7-5.6,3.7-8.9c0-2.8-1-5.3-2.9-7.4c-1.9-2.1-4.4-3.9-7.3-5.2c-2.9-1.3-6.2-2.8-9.7-4.5c-3.6-1.7-6.9-3.3-9.9-5
		c-3.1-1.7-5.7-4-7.9-6.9c-2.2-2.9-3.5-6.4-3.9-10.3c-0.7-7,1.5-12.7,6.6-17.1S675.3,484,686.5,484z"/>
	<path d="M763.9,484c3.2,0,6.4,0.2,9.5,0.6c3.1,0.4,5.2,0.7,6,0.9c0.9,0.2,1.9,0.2,3.1-0.1c1.3-0.9,2.1-1.4,2.4-1.4
		c0.9,0,1.5,0.5,1.6,1.4l2,22.1c0,1.1-0.5,1.6-1.4,1.6c-0.8,0.1-1.3-0.3-1.6-1.4c-2-8.7-5.4-14.6-10-17.7c-3.1-2-7-3-11.7-3
		c-4.3,0-7.2,1.6-8.8,4.8s-1.5,6.5,0.4,9.8c1.1,2,3.3,4,6.7,5.9c3.4,1.9,7.1,3.8,11.2,5.4c4,1.7,8,3.5,11.9,5.5
		c3.9,2,7.1,4.5,9.7,7.5c2.6,3,3.9,6.5,3.9,10.4c0,7.9-3.4,14.3-10.3,19.2c-6.8,4.9-16.1,7.3-27.7,7.3c-10,0-17.8-2.5-23.2-7.4
		c-5.4-5-7.3-10.5-5.7-16.7c0.8-2.7,2.2-4.8,4.1-6.2c1.9-1.5,4.2-2.2,6.7-2.2c3.6,0,6.6,1.1,8.9,3.4c2.3,2.3,3.3,4.9,2.9,7.8
		c-0.4,2.1-1.7,4.1-3.9,5.9c-2.2,1.8-3.3,3.5-3.3,5.1c0.1,1.9,1.3,3.6,3.6,5c2.3,1.5,5,2.2,8.2,2.2c5.2,0,9.1-1.3,11.6-3.9
		c2.5-2.6,3.7-5.6,3.7-8.9c0-2.8-1-5.3-2.9-7.4c-1.9-2.1-4.4-3.9-7.3-5.2c-2.9-1.3-6.2-2.8-9.7-4.5c-3.6-1.7-6.9-3.3-9.9-5
		c-3.1-1.7-5.7-4-7.9-6.9c-2.2-2.9-3.5-6.4-3.9-10.3c-0.7-7,1.5-12.7,6.6-17.1S752.6,484,763.9,484z"/>
	<path d="M840.5,484.4c0.4-0.4,0.9-0.5,1.5-0.3s0.9,0.7,0.9,1.5v55.1c0,4,0.3,7.3,1,9.7c0.7,2.5,1.8,4.4,3.3,5.7
		c1.5,1.3,3.6,2.2,6.1,2.6c1.1,0.1,1.6,0.6,1.6,1.4c0,1.1-0.5,1.6-1.4,1.6h-49c-1.1,0-1.6-0.5-1.6-1.6c0-0.8,0.5-1.3,1.6-1.4
		c4.2-0.5,6.9-2.1,8.3-4.8c1.4-2.7,2.1-7.1,2.1-13.3v-19.3c0-6.4-0.8-11.3-2.3-14.6c-1.5-3.3-4.1-5.3-7.5-5.9
		c-1.1-0.3-1.6-0.8-1.6-1.6c0-0.9,0.5-1.4,1.6-1.4c5.8-0.3,11.6-1.5,17.5-3.8c5.9-2.3,10-4.2,12.3-5.6
		C837.1,487,839,485.6,840.5,484.4z M826.6,441.2c4,0,7.7,1.5,11.2,4.5c3.4,3,5.1,6.9,5.1,11.8c0,4.6-1.6,8.4-4.7,11.7
		c-3.1,3.2-7,4.8-11.6,4.8c-3.9,0-7.6-1.5-11.1-4.6c-3.5-3.1-5.2-7-5.2-11.9c0-4.4,1.6-8.2,4.7-11.5
		C818.2,442.8,822,441.2,826.6,441.2z"/>
	<path d="M896.9,484c11,0,20.3,3.9,28,11.6c7.7,7.7,11.6,17.1,11.6,28c0,10.9-3.9,20.1-11.6,27.8c-7.7,7.7-17.1,11.6-28,11.6
		c-10.9,0-20.1-3.9-27.8-11.6c-7.7-7.7-11.6-17-11.6-27.8c0-11,3.9-20.3,11.6-28C876.8,487.9,886.1,484,896.9,484z M889.1,488.2
		c-0.7,0-1.2,0-1.6,0c-3.9,1.1-6,5.4-6.3,13c-0.3,7.6,0.8,16.2,3.5,25.8c2.8,10.1,6.2,18.1,10.2,24.2c4,6.1,7.9,8.6,11.8,7.5
		c3.9-1.1,6-5.4,6.3-12.9c0.3-7.5-0.8-16.1-3.5-25.7c-2.5-9.4-5.7-17.1-9.3-23.1C896.4,491,892.7,488.1,889.1,488.2z"/>
	<path d="M979.8,483.8c0.3,0,0.5,0.1,0.8,0.2c0.4,0.3,0.6,0.7,0.6,1.4v7.4c4.8-5.8,11.5-8.6,19.9-8.6c19.6,0,30.8,9.4,33.8,28.1
		l3.2,28.3c0.8,5.9,2.1,10.2,4,13c1.9,2.7,4.8,4.5,8.6,5.1c1.2,0.1,1.8,0.6,1.8,1.4c0,1.1-0.5,1.6-1.6,1.6h-48.6
		c-1.2,0-1.8-0.5-1.8-1.6c0-0.8,0.6-1.3,1.8-1.4c3.9-0.7,6.3-2.3,7.3-4.9s1.2-7,0.5-13.2l-3.2-31.2c-0.8-6-2.4-11-4.8-15
		c-2.4-4-5.9-5.6-10.5-4.9c-2.3,0.3-4.1,1.1-5.5,2.4c-1.4,1.3-2.4,3.3-3.1,5.9c-0.7,2.6-1.1,5.4-1.4,8.4c-0.3,3-0.4,6.9-0.4,11.6
		v22.7c0,6,0.8,10.4,2.4,13.2c1.6,2.7,4.3,4.4,8,4.9c1.1,0.1,1.6,0.6,1.6,1.4c0,1.1-0.5,1.6-1.4,1.6h-49c-1.1,0-1.6-0.5-1.6-1.6
		c0-0.8,0.5-1.3,1.6-1.4c4.2-0.5,6.9-2.1,8.3-4.8c1.4-2.7,2.1-7.1,2.1-13.3v-19.3c0-6.7-0.6-11.6-1.8-14.6s-3.9-5.1-8-6.1
		c-1.1-0.3-1.6-0.8-1.6-1.6c0-0.9,0.5-1.5,1.6-1.6c5.8-0.1,11.6-1.3,17.5-3.6c5.9-2.3,10-4.2,12.3-5.6c2.3-1.5,4.2-2.8,5.6-4
		C979,483.9,979.4,483.8,979.8,483.8z"/>
	<path d="M1174.1,440.2c3.8,0,7.5,0.4,11.3,1.1c3.8,0.7,6.7,1.4,8.7,2c2.1,0.6,4,0.9,5.6,0.8c1.7-0.1,2.8-0.7,3.5-1.9
		c0.4-0.8,1-1.1,1.8-1c0.8,0.1,1.2,0.7,1.2,1.6v25.9c0,0.9-0.5,1.5-1.4,1.6c-0.8,0-1.3-0.4-1.6-1.2c-1.3-5.1-3.1-9.4-5.3-12.9
		c-2.2-3.5-4.7-6.1-7.4-7.8c-2.7-1.7-5.4-3-7.9-3.8c-2.5-0.8-5.4-1.3-8.4-1.4c-6,0-10.9,2-14.5,5.9c-3.6,4-5.4,8.9-5.4,14.8
		c0,3.9,1.2,7.3,3.5,10.4c2.3,3,5.4,5.5,9.1,7.5c3.8,2,7.9,4,12.5,5.8c4.6,1.9,9.1,4,13.7,6.2c4.6,2.3,8.7,4.8,12.6,7.6
		c3.8,2.8,6.9,6.4,9.2,10.9c2.3,4.4,3.5,9.5,3.5,15.3c0,9.9-4.6,18.3-13.9,25.2c-9.2,6.9-21.8,10.4-37.6,10.4
		c-15.1,0-27.1-2.9-35.8-8.7c-8.7-5.8-13.1-14.2-13.1-25.2c0-5.9,1.6-11,4.7-15.2c3.1-4.2,7.7-6.3,13.6-6.3c5.2,0,9.4,1.4,12.5,4.2
		c3.1,2.8,4.6,6.3,4.6,10.5c0,2.4-0.6,4.6-1.7,6.5c-1.1,1.9-2.4,3.5-3.7,4.5c-1.3,1.1-2.5,2.5-3.6,4.4c-1.1,1.9-1.6,4.1-1.6,6.6
		c0.1,4,2.2,7.6,6.1,10.9c4,3.2,9.9,4.8,17.8,4.8c8,0,14.7-2.4,19.9-7.1c5.2-4.8,7.8-9.7,7.8-14.8c0-2.9-0.7-5.7-2.2-8.1
		c-1.5-2.5-3.4-4.6-5.8-6.4c-2.4-1.8-5.2-3.5-8.3-5.1c-3.1-1.6-6.5-3.2-9.9-4.8c-3.5-1.6-7-3.2-10.5-4.9c-3.5-1.7-6.8-3.6-9.9-5.8
		c-3.2-2.2-5.9-4.7-8.3-7.3c-2.4-2.7-4.4-5.9-5.8-9.7c-1.5-3.8-2.2-8-2.2-12.6c0-4,0.7-7.9,2.1-11.6c1.4-3.7,3.6-7.2,6.7-10.6
		c3.1-3.3,7.5-6,13.4-8S1166.2,440.2,1174.1,440.2z"/>
	<path d="M1270.2,484c11,0,20.3,3.9,28,11.6c7.7,7.7,11.6,17.1,11.6,28c0,10.9-3.9,20.1-11.6,27.8c-7.7,7.7-17.1,11.6-28,11.6
		c-10.9,0-20.1-3.9-27.8-11.6c-7.7-7.7-11.6-17-11.6-27.8c0-11,3.9-20.3,11.6-28C1250.1,487.9,1259.3,484,1270.2,484z M1262.4,488.2
		c-0.7,0-1.2,0-1.6,0c-3.9,1.1-6,5.4-6.3,13c-0.3,7.6,0.8,16.2,3.5,25.8c2.8,10.1,6.2,18.1,10.2,24.2c4,6.1,7.9,8.6,11.8,7.5
		c3.9-1.1,6-5.4,6.3-12.9c0.3-7.5-0.8-16.1-3.5-25.7c-2.5-9.4-5.7-17.1-9.3-23.1C1269.6,491,1266,488.1,1262.4,488.2z"/>
	<path d="M1365.3,484c5.8,0,10.9,0.9,15.5,2.7c4.6,1.8,8,4.2,10.3,7c2.3,2.9,3.7,6.2,4.2,9.9c0.5,3.8-0.3,7.6-2.4,11.7
		c-1.2,2.3-3,4-5.3,5.1c-2.3,1.1-4.7,1.6-7.1,1.5c-2.4-0.1-4.7-0.9-6.7-2.3c-2.1-1.4-3.5-3.3-4.1-5.7c-0.7-2.3-0.6-4.2,0.2-5.8
		s1.8-2.8,3.1-3.6c1.3-0.8,2.5-1.9,3.7-3.2c1.2-1.3,1.8-2.7,1.8-4.2c-0.1-2.7-1.2-5-3.2-7s-4.7-3-8-3c-5.5,0-9.8,3.5-13.1,10.5
		c-3.2,7-4.1,15.3-2.6,25.1c1.2,8.3,4.4,15.1,9.5,20.4c5.2,5.3,10.9,7.9,17.2,7.7c4.4,0,8.4-1.3,12-3.8c3.5-2.5,6.2-5.7,7.9-9.4
		c0.3-0.9,0.9-1.3,1.9-1.1c1,0.2,1.4,0.8,1.1,1.9c-1.3,5-3.9,9.3-7.7,13.2c-3.8,3.8-8.3,6.7-13.6,8.7c-5.2,2-10.7,3-16.5,3
		c-10.2-0.1-19.3-3.4-27.2-9.7c-8-6.4-12.4-15-13.4-25.8c-1.1-12.3,2-22.7,9.3-31.1C1339.3,488.2,1350.4,484,1365.3,484z"/>
	<path d="M1441.2,484.4c0.4-0.4,0.9-0.5,1.5-0.3c0.6,0.2,0.9,0.7,0.9,1.5v55.1c0,4,0.3,7.3,1,9.7c0.7,2.5,1.8,4.4,3.3,5.7
		c1.5,1.3,3.6,2.2,6.1,2.6c1.1,0.1,1.6,0.6,1.6,1.4c0,1.1-0.5,1.6-1.4,1.6h-49c-1.1,0-1.6-0.5-1.6-1.6c0-0.8,0.5-1.3,1.6-1.4
		c4.2-0.5,6.9-2.1,8.3-4.8c1.4-2.7,2.1-7.1,2.1-13.3v-19.3c0-6.4-0.8-11.3-2.3-14.6c-1.5-3.3-4.1-5.3-7.5-5.9
		c-1.1-0.3-1.6-0.8-1.6-1.6c0-0.9,0.5-1.4,1.6-1.4c5.8-0.3,11.6-1.5,17.5-3.8c5.9-2.3,10-4.2,12.3-5.6
		C1437.9,487,1439.8,485.6,1441.2,484.4z M1427.4,441.2c4,0,7.7,1.5,11.2,4.5c3.4,3,5.1,6.9,5.1,11.8c0,4.6-1.6,8.4-4.7,11.7
		c-3.2,3.2-7,4.8-11.6,4.8c-3.9,0-7.6-1.5-11.1-4.6c-3.5-3.1-5.2-7-5.2-11.9c0-4.4,1.6-8.2,4.7-11.5
		C1419,442.8,1422.8,441.2,1427.4,441.2z"/>
	<path d="M1498.7,484c3.5,0,7,0.4,10.5,1.3c3.5,0.9,6.8,2.2,10,4.1c3.2,1.9,5.9,4.2,8,6.8c1.7,2.3,2.9,4.8,3.6,7.6
		c0.7,2.8,0.7,5.5,0.1,8.1c-0.6,2.6-2.1,4.9-4.4,6.8c-2.3,1.9-5.5,3.1-9.3,3.5l-29.3,3.4c1.3,6.4,4,11.7,8,15.7c4,4,8.3,6.5,13,7.4
		c4.6,0.9,9.2,0.6,13.7-1.1c4.5-1.7,7.9-4.6,10.4-8.7c0.1-0.1,0.2-0.3,0.2-0.4c0.9-1.9,1.9-2.6,2.8-2.2c0.7,0.4,0.9,1,0.8,1.8
		c-4.4,16.5-17,24.7-37.6,24.7c-5.8,0-11.3-1-16.5-3.1c-5.2-2.1-9.9-5.3-14-9.5c-4.1-4.3-6.9-9.3-8.5-15.1c-0.8-2.3-1.3-4.8-1.6-7.6
		c-0.5-6-0.2-11.6,1.1-16.7c1.3-5.1,3.5-9.7,6.5-13.8c3.1-4.1,7.4-7.3,12.9-9.6C1484.5,485.2,1491.1,484,1498.7,484z M1498.5,487
		c-3.5,0-6.4,2.1-8.6,6.3c-2.3,4.2-3.5,9-3.7,14.3c-0.2,5.3,0.2,10.4,1.1,15.4c7.5-0.9,13.3-2.9,17.5-5.8c4.2-2.9,6-7.4,5.4-13.5
		c-0.3-2.7-0.6-5-1.1-6.8c-0.5-1.9-1.1-3.6-2-5.2c-0.9-1.6-2-2.8-3.4-3.5C1502.2,487.4,1500.5,487,1498.5,487z"/>
	<path d="M1573.9,456.9c0.3-0.8,0.8-1.1,1.6-1c0.8,0.1,1.2,0.7,1.2,1.6v30.8h13.9c1.1,0,1.6,0.5,1.6,1.5s-0.5,1.5-1.6,1.5h-13.9
		v43.6c0,10.5,2.1,15.6,6.4,15.5c1.6,0,3.2-0.7,4.8-2.2c1.6-1.5,2.8-3.1,3.6-5c0.3-0.7,0.7-1,1.4-1c0.5,0,0.9,0.2,1.2,0.7
		c0.3,0.5,0.3,1,0,1.5c-2.3,5.2-5.6,9.6-10,13.3c-4.4,3.6-9.3,5.4-14.7,5.4c-7,0-12.2-2.2-15.7-6.5c-3.5-4.4-5.2-11.6-5.2-21.6
		l0.2-31c0-2.4,0-4.2,0-5.4s-0.2-2.4-0.5-3.6c-0.3-1.2-0.6-2-0.8-2.3c-0.2-0.3-0.8-0.7-1.8-1c-1-0.3-1.9-0.5-2.7-0.5
		c-0.8,0-2.1,0-4,0c-1.2-0.3-1.8-0.8-1.8-1.6c0-0.8,0.5-1.3,1.6-1.4c5.6-1.2,12.4-5.1,20.4-11.8
		C1567.1,469.6,1572,463.2,1573.9,456.9z"/>
	<path d="M1596.8,484h44.2c1.6,0,2.4,0.5,2.4,1.4c0,0.8-0.6,1.3-1.8,1.6c-1.7,0.5-3,1.4-3.7,2.6c-0.7,1.2-0.9,2.8-0.6,4.7
		c0.3,1.9,0.7,3.6,1.1,5c0.4,1.4,1.1,3.2,2,5.5l15.1,34.4l13.9-36c4.2-10.9,3.1-16.3-3.2-16.3c-1.1-0.1-1.6-0.7-1.6-1.6
		c0.1-0.9,0.7-1.4,1.6-1.4h24.9c1.1,0,1.6,0.5,1.6,1.4c0,0.9-0.5,1.5-1.6,1.6c-4.6,0.1-8.2,1.5-11.1,4.1c-2.8,2.6-5.5,7.3-8,14
		l-29.3,76c-2.8,7-6,11.8-9.5,14.5c-3.6,2.7-7.7,4.2-12.6,4.4c-5.6,0.1-10.8-2-15.4-6.3c-4.6-4.4-6.6-10.1-5.9-17.2
		c0.4-3.9,1.9-6.9,4.6-9c2.7-2.1,5.8-3.2,9.2-3.2c3.3-0.1,6.1,0.7,8.3,2.4c2.2,1.7,3.3,4.2,3.3,7.4c0,1.3-0.4,3-1.3,4.9
		c-0.9,1.9-1.5,3.4-1.8,4.5c-0.3,1.1,0,2.6,0.9,4.6c2.3,2.7,5.3,3,9,1.1c3.8-1.9,6.5-5.1,8.2-9.3l1.6-3.8l-32-71.4
		c-1.5-3.1-2.4-5-2.7-5.6c-0.3-0.7-0.9-1.7-1.7-3.2c-0.8-1.5-1.5-2.6-2.1-3.4c-0.6-0.8-1.3-1.7-2-2.6c-0.7-0.9-1.5-1.6-2.2-2.1
		c-0.7-0.5-1.4-0.7-1.9-0.7c-1.2-0.1-1.8-0.7-1.8-1.6C1595,484.5,1595.6,484,1596.8,484z"/>
</g>
<g>
	<path d="M917.6,211.5c0,0.5,0,0.8-0.1,1.2c-0.1,0.3-0.1,0.6-0.3,0.8c-0.1,0.2-0.3,0.4-0.4,0.4c-0.2,0.1-0.4,0.1-0.6,0.1H902v40.1
		c0,0.2-0.1,0.4-0.2,0.5c-0.1,0.1-0.3,0.3-0.5,0.3c-0.3,0.1-0.6,0.2-1,0.2c-0.4,0.1-1,0.1-1.6,0.1c-0.6,0-1.2,0-1.6-0.1
		c-0.4-0.1-0.8-0.1-1.1-0.2c-0.3-0.1-0.4-0.2-0.5-0.3s-0.2-0.3-0.2-0.5v-40.1h-14.2c-0.2,0-0.4,0-0.6-0.1c-0.2-0.1-0.3-0.2-0.4-0.4
		c-0.1-0.2-0.2-0.5-0.3-0.8c-0.1-0.3-0.1-0.7-0.1-1.2c0-0.5,0-0.9,0.1-1.2c0.1-0.3,0.1-0.6,0.3-0.8s0.2-0.4,0.4-0.5
		c0.2-0.1,0.4-0.1,0.6-0.1h35.2c0.2,0,0.4,0,0.6,0.1c0.2,0.1,0.3,0.3,0.4,0.5s0.2,0.5,0.3,0.8C917.6,210.6,917.6,211,917.6,211.5z"
		/>
	<path d="M964.5,254.2c0,0.2-0.1,0.4-0.2,0.5c-0.1,0.1-0.3,0.3-0.5,0.3c-0.3,0.1-0.6,0.2-1,0.2c-0.4,0.1-1,0.1-1.6,0.1
		c-0.7,0-1.2,0-1.6-0.1c-0.4-0.1-0.8-0.1-1-0.2c-0.3-0.1-0.4-0.2-0.5-0.3s-0.2-0.3-0.2-0.5v-20.5h-23v20.5c0,0.2-0.1,0.4-0.2,0.5
		c-0.1,0.1-0.3,0.3-0.5,0.3c-0.3,0.1-0.6,0.2-1,0.2c-0.4,0.1-1,0.1-1.6,0.1c-0.6,0-1.2,0-1.6-0.1c-0.4-0.1-0.8-0.1-1.1-0.2
		c-0.3-0.1-0.4-0.2-0.5-0.3c-0.1-0.1-0.2-0.3-0.2-0.5v-44.4c0-0.2,0.1-0.4,0.2-0.5c0.1-0.1,0.3-0.3,0.5-0.3s0.6-0.2,1.1-0.2
		c0.4-0.1,1-0.1,1.6-0.1c0.7,0,1.2,0,1.6,0.1s0.8,0.1,1,0.2c0.3,0.1,0.4,0.2,0.5,0.3c0.1,0.1,0.2,0.3,0.2,0.5v18.5h23v-18.5
		c0-0.2,0.1-0.4,0.2-0.5s0.3-0.3,0.5-0.3c0.3-0.1,0.6-0.2,1-0.2s1-0.1,1.6-0.1c0.6,0,1.2,0,1.6,0.1s0.8,0.1,1,0.2
		c0.3,0.1,0.4,0.2,0.5,0.3c0.1,0.1,0.2,0.3,0.2,0.5V254.2z"/>
	<path d="M1009.3,252.5c0,0.4,0,0.8-0.1,1.1c-0.1,0.3-0.1,0.6-0.3,0.8c-0.1,0.2-0.3,0.4-0.5,0.5c-0.2,0.1-0.4,0.1-0.6,0.1h-24.3
		c-0.6,0-1.2-0.2-1.7-0.6c-0.5-0.4-0.8-1-0.8-1.9v-41.2c0-0.9,0.3-1.6,0.8-1.9c0.5-0.4,1.1-0.6,1.7-0.6h24c0.2,0,0.4,0,0.6,0.1
		c0.2,0.1,0.3,0.3,0.4,0.5s0.2,0.5,0.3,0.8c0.1,0.3,0.1,0.7,0.1,1.2c0,0.4,0,0.8-0.1,1.1c-0.1,0.3-0.2,0.6-0.3,0.8
		c-0.1,0.2-0.2,0.4-0.4,0.4c-0.2,0.1-0.4,0.1-0.6,0.1h-19.8v14.5h17c0.2,0,0.4,0.1,0.6,0.2c0.2,0.1,0.3,0.3,0.4,0.4
		c0.1,0.2,0.2,0.5,0.3,0.8c0.1,0.3,0.1,0.7,0.1,1.2c0,0.4,0,0.8-0.1,1.1c-0.1,0.3-0.1,0.6-0.3,0.8c-0.1,0.2-0.3,0.3-0.4,0.4
		s-0.4,0.1-0.6,0.1h-17V250h20.1c0.2,0,0.4,0,0.6,0.1c0.2,0.1,0.3,0.2,0.5,0.4c0.1,0.2,0.2,0.5,0.3,0.8
		C1009.3,251.7,1009.3,252.1,1009.3,252.5z"/>
</g>
<g>
	<path d="M780.3,691c0,0.1,0,0.3-0.1,0.4c-0.1,0.1-0.2,0.2-0.4,0.3c-0.2,0.1-0.4,0.1-0.7,0.2c-0.3,0-0.6,0.1-1.1,0.1
		c-0.4,0-0.8,0-1-0.1c-0.3,0-0.5-0.1-0.7-0.2c-0.2-0.1-0.3-0.2-0.4-0.3c-0.1-0.1-0.1-0.2-0.1-0.4v-41c0-0.1,0-0.2,0.1-0.4
		c0.1-0.1,0.2-0.2,0.4-0.3s0.4-0.1,0.7-0.2c0.3,0,0.6-0.1,1-0.1c0.4,0,0.8,0,1.1,0.1c0.3,0,0.5,0.1,0.7,0.2c0.2,0.1,0.3,0.2,0.4,0.3
		c0.1,0.1,0.1,0.2,0.1,0.4V691z"/>
	<path d="M800.4,691c0,0.1,0,0.3-0.1,0.4c-0.1,0.1-0.2,0.2-0.4,0.3c-0.2,0.1-0.4,0.1-0.7,0.2c-0.3,0-0.6,0.1-1.1,0.1
		c-0.4,0-0.8,0-1-0.1c-0.3,0-0.5-0.1-0.7-0.2c-0.2-0.1-0.3-0.2-0.4-0.3c-0.1-0.1-0.1-0.2-0.1-0.4v-41c0-0.1,0-0.2,0.1-0.4
		c0.1-0.1,0.2-0.2,0.4-0.3s0.4-0.1,0.7-0.2c0.3,0,0.6-0.1,1-0.1c0.4,0,0.8,0,1.1,0.1c0.3,0,0.5,0.1,0.7,0.2c0.2,0.1,0.3,0.2,0.4,0.3
		c0.1,0.1,0.1,0.2,0.1,0.4V691z"/>
	<path d="M844.2,651.1c0,0.3,0,0.5-0.1,0.8c0,0.2-0.1,0.4-0.2,0.5c-0.1,0.1-0.2,0.3-0.4,0.3c-0.1,0.1-0.3,0.1-0.5,0.1h-13.8V691
		c0,0.1,0,0.3-0.1,0.4s-0.2,0.2-0.4,0.3c-0.2,0.1-0.4,0.1-0.7,0.2c-0.3,0-0.6,0.1-1,0.1c-0.4,0-0.8,0-1-0.1c-0.3,0-0.5-0.1-0.7-0.2
		c-0.2-0.1-0.3-0.2-0.4-0.3c-0.1-0.1-0.1-0.2-0.1-0.4v-38.1h-13.8c-0.2,0-0.4,0-0.5-0.1c-0.1-0.1-0.2-0.2-0.3-0.3
		c-0.1-0.1-0.2-0.3-0.2-0.5c0-0.2-0.1-0.5-0.1-0.8c0-0.3,0-0.6,0.1-0.8c0-0.2,0.1-0.4,0.2-0.6c0.1-0.2,0.2-0.3,0.3-0.3
		c0.1-0.1,0.3-0.1,0.5-0.1h32c0.2,0,0.3,0,0.5,0.1c0.1,0.1,0.3,0.2,0.4,0.3c0.1,0.2,0.2,0.3,0.2,0.6
		C844.2,650.6,844.2,650.8,844.2,651.1z"/>
	<path d="M900.7,690.9c0,0.2,0,0.3-0.1,0.4c0,0.1-0.2,0.2-0.3,0.3s-0.4,0.1-0.7,0.2c-0.3,0-0.7,0.1-1.1,0.1c-0.4,0-0.9,0-1.3-0.1
		c-0.4,0-0.8-0.1-1-0.3c-0.2-0.1-0.4-0.3-0.6-0.5l-18.7-21.7V691c0,0.1,0,0.3-0.1,0.4c-0.1,0.1-0.2,0.2-0.4,0.3
		c-0.2,0.1-0.4,0.1-0.7,0.2c-0.3,0-0.6,0.1-1.1,0.1c-0.4,0-0.8,0-1-0.1c-0.3,0-0.5-0.1-0.7-0.2c-0.2-0.1-0.3-0.2-0.4-0.3
		c-0.1-0.1-0.1-0.2-0.1-0.4v-41c0-0.1,0-0.2,0.1-0.4c0.1-0.1,0.2-0.2,0.4-0.3s0.4-0.1,0.7-0.2c0.3,0,0.6-0.1,1-0.1
		c0.4,0,0.8,0,1.1,0.1c0.3,0,0.5,0.1,0.7,0.2s0.3,0.2,0.4,0.3c0.1,0.1,0.1,0.2,0.1,0.4v19.2l17.9-19.2c0.1-0.2,0.3-0.3,0.5-0.4
		c0.2-0.1,0.4-0.2,0.6-0.3s0.5-0.1,0.8-0.1c0.3,0,0.6,0,1.1,0c0.4,0,0.8,0,1,0.1c0.3,0,0.5,0.1,0.6,0.2s0.3,0.2,0.3,0.3
		c0,0.1,0.1,0.2,0.1,0.3c0,0.2-0.1,0.5-0.2,0.7c-0.1,0.2-0.4,0.5-0.7,0.8L882,669.1l18,20.6c0.3,0.4,0.5,0.7,0.6,0.8
		C900.7,690.7,900.7,690.8,900.7,690.9z"/>
	<path d="M944.5,690.3c0.1,0.3,0.2,0.6,0.2,0.8c0,0.2-0.1,0.4-0.2,0.5c-0.2,0.1-0.4,0.2-0.7,0.2c-0.3,0-0.7,0-1.2,0s-0.9,0-1.2,0
		c-0.3,0-0.5-0.1-0.7-0.1s-0.3-0.2-0.4-0.3c-0.1-0.1-0.2-0.2-0.2-0.4l-4.4-11.3h-20.3l-4.3,11.2c0,0.2-0.1,0.3-0.2,0.4
		c-0.1,0.1-0.2,0.2-0.4,0.3c-0.2,0.1-0.4,0.1-0.7,0.2c-0.3,0-0.7,0.1-1.1,0.1c-0.5,0-0.9,0-1.3-0.1c-0.3,0-0.6-0.1-0.7-0.2
		c-0.2-0.1-0.2-0.3-0.2-0.5c0-0.2,0.1-0.5,0.2-0.8l16.2-40.3c0.1-0.2,0.2-0.3,0.3-0.4c0.1-0.1,0.3-0.2,0.6-0.3
		c0.2-0.1,0.5-0.1,0.8-0.1c0.3,0,0.7,0,1.1,0c0.4,0,0.8,0,1.1,0c0.3,0,0.6,0.1,0.8,0.1s0.4,0.2,0.5,0.3c0.1,0.1,0.2,0.3,0.3,0.4
		L944.5,690.3z M925.3,653.6L925.3,653.6l-8.8,22.8h17.7L925.3,653.6z"/>
	<path d="M988.4,689.7c0,0.4-0.1,0.7-0.2,1s-0.3,0.5-0.5,0.6c-0.2,0.2-0.4,0.3-0.7,0.3c-0.2,0.1-0.5,0.1-0.7,0.1h-0.9
		c-0.5,0-0.9-0.1-1.3-0.2c-0.4-0.1-0.8-0.3-1.1-0.6c-0.4-0.3-0.7-0.6-1.1-1.1c-0.4-0.5-0.8-1-1.2-1.8l-16.3-26.4
		c-0.8-1.3-1.6-2.6-2.5-4c-0.8-1.4-1.6-2.7-2.3-4h0c0,1.6,0,3.2,0,4.9s0,3.3,0,4.9V691c0,0.1,0,0.3-0.1,0.4
		c-0.1,0.1-0.2,0.2-0.4,0.3c-0.2,0.1-0.4,0.1-0.7,0.2c-0.3,0-0.6,0.1-1.1,0.1c-0.4,0-0.8,0-1-0.1c-0.3,0-0.5-0.1-0.7-0.2
		c-0.2-0.1-0.3-0.2-0.4-0.3c-0.1-0.1-0.1-0.2-0.1-0.4v-39.6c0-0.8,0.2-1.3,0.7-1.6c0.5-0.3,0.9-0.4,1.3-0.4h1.8c0.6,0,1,0,1.4,0.1
		c0.4,0.1,0.7,0.2,1,0.4c0.3,0.2,0.6,0.5,0.9,0.9c0.3,0.4,0.6,0.9,1,1.5l12.5,20.2c0.8,1.3,1.5,2.5,2.2,3.6c0.7,1.2,1.4,2.3,2.1,3.4
		c0.7,1.1,1.3,2.2,2,3.3c0.7,1.1,1.3,2.2,1.9,3.3h0c0-1.8,0-3.7,0-5.7c0-2,0-3.9,0-5.7v-24.6c0-0.1,0-0.2,0.1-0.4
		c0.1-0.1,0.2-0.2,0.4-0.3c0.2-0.1,0.4-0.1,0.7-0.2c0.3,0,0.6,0,1.1,0c0.4,0,0.7,0,1,0c0.3,0,0.5,0.1,0.7,0.2
		c0.2,0.1,0.3,0.2,0.4,0.3c0.1,0.1,0.1,0.2,0.1,0.4V689.7z"/>
	<path d="M1030.8,661.4c0,2-0.4,3.8-1.1,5.4c-0.7,1.6-1.8,3-3.1,4.2c-1.4,1.2-3,2.1-5,2.7c-2,0.7-4.3,1-7.1,1h-6V691
		c0,0.1,0,0.3-0.1,0.4c-0.1,0.1-0.2,0.2-0.4,0.3c-0.2,0.1-0.4,0.1-0.7,0.2c-0.3,0-0.6,0.1-1.1,0.1c-0.4,0-0.8,0-1-0.1
		c-0.3,0-0.5-0.1-0.7-0.2c-0.2-0.1-0.3-0.2-0.4-0.3c-0.1-0.1-0.1-0.2-0.1-0.4v-39.6c0-0.8,0.2-1.3,0.7-1.6c0.5-0.3,0.9-0.4,1.3-0.4
		h9.4c0.9,0,1.8,0,2.7,0.1s1.9,0.2,3.1,0.5s2.4,0.7,3.6,1.4s2.3,1.5,3.1,2.5c0.9,1,1.5,2.1,2,3.4
		C1030.5,658.5,1030.8,659.9,1030.8,661.4z M1026.1,661.8c0-1.8-0.4-3.4-1.2-4.7s-1.7-2.2-2.9-2.8s-2.3-1-3.5-1.2
		c-1.2-0.2-2.4-0.2-3.5-0.2h-6.6v18.4h6.3c2,0,3.7-0.2,5.1-0.7s2.5-1.1,3.4-1.9c0.9-0.8,1.6-1.8,2.1-3
		C1025.9,664.4,1026.1,663.2,1026.1,661.8z"/>
	<path d="M1076.7,676c0,2.6-0.4,4.9-1.2,6.9s-1.9,3.7-3.4,5.1c-1.5,1.4-3.3,2.4-5.4,3.1c-2.1,0.7-4.4,1.1-7,1.1
		c-2.4,0-4.5-0.3-6.5-1c-2-0.7-3.7-1.7-5.2-3c-1.4-1.3-2.6-3-3.4-4.9s-1.2-4.2-1.2-6.8V650c0-0.1,0-0.2,0.1-0.4s0.2-0.2,0.4-0.3
		c0.2-0.1,0.4-0.1,0.7-0.2c0.3,0,0.6-0.1,1-0.1c0.4,0,0.8,0,1,0.1c0.3,0,0.5,0.1,0.7,0.2s0.3,0.2,0.4,0.3c0.1,0.1,0.1,0.2,0.1,0.4
		v25.9c0,2.1,0.3,4,0.8,5.6c0.6,1.6,1.4,2.9,2.4,4c1.1,1.1,2.3,1.9,3.9,2.4c1.5,0.5,3.2,0.8,5.1,0.8c1.9,0,3.7-0.3,5.2-0.8
		c1.5-0.5,2.8-1.3,3.8-2.3c1-1,1.9-2.3,2.4-3.9c0.6-1.6,0.8-3.4,0.8-5.5V650c0-0.1,0-0.2,0.1-0.4s0.2-0.2,0.4-0.3s0.4-0.1,0.7-0.2
		c0.3,0,0.6-0.1,1-0.1c0.4,0,0.8,0,1,0.1c0.3,0,0.5,0.1,0.7,0.2s0.3,0.2,0.4,0.3c0.1,0.1,0.1,0.2,0.1,0.4V676z"/>
	<path d="M1121.3,690.9c0,0.2,0,0.3-0.1,0.4c-0.1,0.1-0.2,0.2-0.3,0.3c-0.2,0.1-0.4,0.1-0.7,0.2c-0.3,0-0.7,0.1-1.1,0.1
		c-0.4,0-0.7,0-1,0c-0.3,0-0.5-0.1-0.7-0.2c-0.2-0.1-0.3-0.2-0.5-0.4c-0.1-0.2-0.2-0.4-0.3-0.6l-4.3-10.3c-0.5-1.2-1-2.2-1.6-3.3
		c-0.6-1-1.3-1.9-2.1-2.7c-0.8-0.8-1.8-1.3-2.9-1.8c-1.1-0.4-2.5-0.7-4.1-0.7h-4.8V691c0,0.1,0,0.3-0.1,0.4
		c-0.1,0.1-0.2,0.2-0.4,0.3c-0.2,0.1-0.4,0.1-0.7,0.2c-0.3,0-0.6,0.1-1.1,0.1c-0.4,0-0.8,0-1-0.1c-0.3,0-0.5-0.1-0.7-0.2
		c-0.2-0.1-0.3-0.2-0.4-0.3c-0.1-0.1-0.1-0.2-0.1-0.4v-39.6c0-0.8,0.2-1.3,0.7-1.6c0.5-0.3,0.9-0.4,1.3-0.4h8.7c1.1,0,2.1,0,2.8,0.1
		c0.8,0.1,1.4,0.1,2.1,0.2c1.8,0.3,3.3,0.7,4.6,1.4c1.3,0.6,2.4,1.4,3.3,2.3c0.9,0.9,1.5,2,1.9,3.1c0.4,1.2,0.6,2.4,0.6,3.8
		c0,1.4-0.2,2.6-0.6,3.7c-0.4,1.1-1,2.1-1.8,2.9c-0.8,0.8-1.7,1.6-2.8,2.2c-1.1,0.6-2.3,1.1-3.6,1.5c0.8,0.3,1.5,0.7,2.1,1.2
		c0.6,0.5,1.2,1.1,1.8,1.7c0.5,0.7,1,1.5,1.5,2.3c0.5,0.9,1,1.9,1.4,3l4.3,9.9c0.3,0.8,0.5,1.3,0.6,1.6
		C1121.2,690.6,1121.3,690.8,1121.3,690.9z M1113.6,660.6c0-1.8-0.4-3.3-1.3-4.6c-0.9-1.3-2.4-2.2-4.4-2.7c-0.7-0.2-1.4-0.3-2.3-0.4
		c-0.8-0.1-1.9-0.1-3.2-0.1h-5.7v15.5h6.7c1.8,0,3.3-0.2,4.6-0.6s2.4-1,3.2-1.7c0.8-0.7,1.5-1.5,1.9-2.5S1113.6,661.7,1113.6,660.6z
		"/>
</g>
</svg>
