<?xml version="1.0" encoding="utf-8"?>
<!-- Generator: Adobe Illustrator 24.3.0, SVG Export Plug-In . SVG Version: 6.00 Build 0)  -->
<svg version="1.1" id="Layer_1" xmlns="http://www.w3.org/2000/svg" xmlns:xlink="http://www.w3.org/1999/xlink" x="0px" y="0px"
	 viewBox="0 0 1895.9 812" style="enable-background:new 0 0 1895.9 812;" xml:space="preserve">
<style type="text/css">
	.st0{fill:#F8ABAD;}
</style>
<path class="st0" d="M322.7,296.8c-1.7,1.6-8.2,7.8-9.5,17.6c-1.1,8.6,2.6,11.1,1.3,21c-0.8,6.3-3.2,11.1-6.2,17.2
	c-3.8,7.7-4.9,7.2-7.2,12.5c-3.8,9-3.7,18.1-3.6,23.6c0.1,4.2,0.3,14.3,4.6,24.4c2,4.6,4.9,9.5,6,11.3c2.8,4.7,4.3,7,5.5,8.5
	c1.1,1.4,2.5,2.9,3.8,5.7c0.4,0.8,1.1,2.3,1.5,4.2c0.3,1.5,0.7,4.5-1.8,12.8c-0.3,1-1.1,3.6-3.8,10.2c-2.2,5.6-3.4,8.4-4.2,9.9
	c-3.2,6-7.1,9.1-10.2,11.6c-4.2,3.3-8.2,5.3-11.7,6.5c-0.7,0.2-1.3,0.8-1.7,1.6c-0.3,0.7-0.6,1.4-0.9,2.1c-3.5,9.5-0.3,20,1,23.7
	c0,0.1,0.1,0.2,0.1,0.4c6.2,13.8,10.6,16.5,13.5,16.3c0.8-0.1,1.6-0.4,2.9-0.2c4.8,0.6,7.9,6.4,8.9,8.2
	c6.2,10.8,19.7,22.5,26.3,26.6c8.8,5.6,16.8,5.2,27.2,4.6c10.9-0.6,11.7-3.3,31.3-7.6c12.6-2.8,19.1-4.2,28.4-4.1
	c8.1,0.1,10.9,1.3,24.5,2.4c7.8,0.6,14.3,0.8,18.8,0.8c0.9,0,1.7,0.5,2.2,1.5c2,3.5,4.9,7.5,9.3,10c5,2.9,8.4,1.8,22.4-0.9
	c18.9-3.6,20.4-3,32.2-6.1c3.5-0.9,7.5-4,13.5-4c4.4,0,5.3,1.3,11.5,2.4c5.9,1,10.4,0.7,16.4,0.2c8.6-0.6,8.1-1.6,16.1-2.3
	c9.9-0.8,9.3,0.7,20.3-0.1c8.5-0.6,10.5-1.6,15.3-0.2c4.7,1.4,5.2,3.1,10.2,4c3.1,0.6,6.1,0.4,12.2,0c4.6-0.3,5.1-0.5,7.8-0.6
	c6.7-0.3,11.5,0.7,14.3,1.1c13.4,2.3,15.1-1.3,31.4,0.6c11.9,1.4,14,3.7,23,2.9c4.3-0.4,6.3-1.1,12.5-1.4c8.5-0.5,9.8,0.7,16,0.5
	c12.4-0.4,14.2-5,23.7-4.5c7.7,0.4,12.8,3.6,16.4,5.5c9.2,4.7,23.9,8.1,48.3,2.1c0.7-0.2,1.4-0.8,1.8-1.6c0.3-0.6,0.8-1.3,1.4-1.8
	c0.9-0.7,1.8-0.8,2.2-0.8c8.8-0.6,15.6-3.9,26.5,0.3c3.1,1.2,2.5,1.4,5.6,2.7c3,1.2,11.3,4.3,30.1,0.8c3.4-0.6,16.2-3.2,26.1-2.9
	c2.1,0.1,5.6,0.3,7.5,3.4c1.8,3,1,6.7,2.6,7.7c1.5,0.9,3.5-1.6,5.4-3.2c2.2-1.9,5.2-3.3,16.8-2.1c10.8,1.1,13.5,2.9,20.8,3.9
	c4.8,0.6,11.6,0.9,20.1-0.9c0.7-0.2,1.4-0.7,1.8-1.5l0.6-1.2c0.6-1.1,1.5-1.7,2.5-1.5c4.9,0.6,11.8,1.1,20.2,0.8
	c12.4-0.5,16.9-2.4,25.1-2.1c6.4,0.2,15.7,1.8,27.1,8.4c0.9,0.5,2,0.4,2.8-0.4c0.6-0.6,1.4-1.3,2.3-2c1.6-1.3,4.4-3.5,8.2-4.2
	c1-0.2,8.1-1.3,13.5,4.8c0.5,0.6,0.9,1.2,1.3,1.7c0.6,0.9,1.5,1.4,2.4,1.2c2.6-0.4,6-0.8,10-1c12.8-0.7,20,1.6,29.1,2.9
	c21.9,3.1,20.1-4.1,40-1c0,0,16.9,2.7,27.4-1.9c3.2-1.4,3.3-1.4,3.3-1.4c3.7-1.7,4.1-2,4.8-2.1c3.4-0.7,6.7,4.4,7.7,5.8
	c5.8,7.9,18.7,5.1,34.9,3.5c8-0.8,19.8-1.5,34.6-1.1c10.3-0.5,18.6-0.4,24.5-0.2c11,0.4,16.5,1.2,26.4,0c5.7-0.7,5.5-1.1,13-2.1
	c5.1-0.7,12.7-1.6,22.1-1.4c6.2,0.1,14.3,0.7,23.8,2.8c0.4,0.1,0.7,0.1,1.1-0.1c2.8-0.9,5.8-1.7,8.9-2.4c12.1-2.5,22.9-1.9,31.6-0.2
	c0.1,0,0.2,0,0.2,0c6.8,0.4,13.5,0.9,20.3,1.3c1.2,0.1,2.3-0.8,2.7-2.2c0.2-0.6,0.4-1.3,0.8-2c2.9-5.7,9.6-6,16-6
	c6.8,0,15.6,0.3,26,1.4c0.9,0.1,1.8-0.4,2.3-1.3c0.8-1.3,1.9-2.7,3.3-3.9c4.2-3.4,8.2-2,11.4-2.6c7.4-1.3,11.7-13.1,14.2-18.5
	c4.4-9.7,13.5-22.6,34.3-35.1c0.8-0.5,1.4-1.5,1.6-2.7c0.9-6.7,1.4-14.7,1.2-23.7c-0.1-5.1-0.5-9.7-1-14c-0.1-0.7-0.3-1.4-0.7-1.9
	c-0.9-1.2-1.9-3-2.6-5.3c-1.5-5.2-0.2-9.6,0.9-15.1c0,0,0.9-4.8,1.1-39.9c0-0.4,0-1.3-0.4-2.3c-0.9-2.4-3.2-3-3.8-3.2
	c-4.1-1.6-7-15.4-7.7-25.1c-0.9-12.6,1.3-23.1,3.3-29.9c0.1-0.3,0.2-0.7,0.2-1c0.6-9.9,0.6-18.1,0.5-24.3
	c-0.3-14.7-1.5-18.1-3.3-20.5c-1.2-1.6-3.9-3.3-9.2-6.6c-2.7-1.7-4.1-2.6-5.6-3.1c-4-1.3-5.5,0.2-9.5-0.2c-5.5-0.5-5.5-3.5-10.5-4.2
	c-5.3-0.8-5.7,2.5-12.7,3.2c-6.6,0.7-7.8-1.9-13.6-1c-5.4,0.9-8.1,3.8-11.3,5.6c-9.9,5.6-20.9-2.4-28.9-6.6
	c-7.9-4.2-20.7-5-46.2-6.6c-15.6-1-59-2.2-79.5,2.9c-3.3,0.8-8.7,2.5-15.4,0.3c-5.7-1.8-7.2-4.8-13.5-6.6c-4.3-1.2-7.1-0.8-13.7-0.3
	c-7,0.5-14.1,0.4-21.2,1c-27.3,2.3-36.9-4.2-65.5-0.5c-17.2,2.2-18.4,5.1-27.9,3.5c-13-2.2-24.2-4-30.6-6.1
	c-0.6-0.2-2.1-0.7-4.2-0.5c-4.5,0.5-7.6,4.2-8.2,4.8c-6,6.6-26-0.1-33.9-2.3c-6.4-1.8-32.5-9-57.7,1.4c-8.9,3.7-13.5,7.8-23,7.6
	c-8.9-0.2-12.4-4-23.7-5.2c-9.5-1-10,1.5-20.4,1.6c-15.8,0.2-29.7-5.1-39.9-9c-10.5-4-14.9-7.1-22.8-5.8c-5.7,0.9-5.9,2.9-15,6.1
	c-4,1.4-13.7,4.8-25.4,4.5c-11.3-0.2-12.3-3.5-21.4-2.1c-6.9,1.1-8.1,3.2-15.7,5.2c-6.7,1.7-9.6,1-22.4,0.8
	c-19.4-0.3-20.5,1.2-38.5,0.5c-5.6-0.2-3.4-0.3-16.4-1.1c-25.5-1.6-29.1-1.1-38-2.6c-6-1-14.6-3-25-7.2c-0.8-0.3-1.6-0.2-2.3,0.4
	c-5.2,4.3-9.6,6.4-12.3,7.5c-4.2,1.7-6,1.5-7.2,1c-2.3-1-3-2.9-4.8-2.6c-1.2,0.2-1.4,1.2-4.6,4.5c-1.9,1.9-2.8,2.9-3.7,3.2
	c-3.1,1.1-6.2-1.8-6.7-2.3c-3.9-3.7-3.4-8.4-5.9-9c-1.7-0.4-2.5,1.9-6.5,4.8c0,0-2.1,1.6-6.7,3.5c-12.8,5.5-35.7-0.6-35.7-0.6
	c-8.4-2.3-19.8-6.2-32.8-13.6c-0.6-0.4-1.3-0.4-2-0.1c-1.3,0.6-3.4,1.5-5.8,2.6c-15.4,6.9-19.7,9-26.1,8.7c-2.9-0.1-1.9-0.6-6.4-1.1
	c-6.5-0.8-10.7-0.1-22.9,1.6c-14.1,2-16.2,2.3-19.6,2.4c-6.1,0.2-5.6-0.3-12.5-0.2c-2.1,0-12.5,0.3-26.3,2.9c-6.9,1.3-8,2-12.6,2.9
	c-14.1,2.8-24.5,0.9-32.9,0c-23.9-2.7-22.4,3.5-44.5,1.3C345.5,297.5,334,286.1,322.7,296.8z"/>
<g>
	<path d="M917.6,211.5c0,0.5,0,0.8-0.1,1.2c-0.1,0.3-0.1,0.6-0.3,0.8c-0.1,0.2-0.3,0.4-0.4,0.4c-0.2,0.1-0.4,0.1-0.6,0.1H902v40.1
		c0,0.2-0.1,0.4-0.2,0.5c-0.1,0.1-0.3,0.3-0.5,0.3c-0.3,0.1-0.6,0.2-1,0.2c-0.4,0.1-1,0.1-1.6,0.1c-0.6,0-1.2,0-1.6-0.1
		c-0.4-0.1-0.8-0.1-1.1-0.2c-0.3-0.1-0.4-0.2-0.5-0.3s-0.2-0.3-0.2-0.5v-40.1h-14.2c-0.2,0-0.4,0-0.6-0.1c-0.2-0.1-0.3-0.2-0.4-0.4
		c-0.1-0.2-0.2-0.5-0.3-0.8c-0.1-0.3-0.1-0.7-0.1-1.2c0-0.5,0-0.9,0.1-1.2c0.1-0.3,0.1-0.6,0.3-0.8s0.2-0.4,0.4-0.5
		c0.2-0.1,0.4-0.1,0.6-0.1h35.2c0.2,0,0.4,0,0.6,0.1c0.2,0.1,0.3,0.3,0.4,0.5s0.2,0.5,0.3,0.8C917.6,210.6,917.6,211,917.6,211.5z"
		/>
	<path d="M964.5,254.2c0,0.2-0.1,0.4-0.2,0.5c-0.1,0.1-0.3,0.3-0.5,0.3c-0.3,0.1-0.6,0.2-1,0.2c-0.4,0.1-1,0.1-1.6,0.1
		c-0.7,0-1.2,0-1.6-0.1c-0.4-0.1-0.8-0.1-1-0.2c-0.3-0.1-0.4-0.2-0.5-0.3s-0.2-0.3-0.2-0.5v-20.5h-23v20.5c0,0.2-0.1,0.4-0.2,0.5
		c-0.1,0.1-0.3,0.3-0.5,0.3c-0.3,0.1-0.6,0.2-1,0.2c-0.4,0.1-1,0.1-1.6,0.1c-0.6,0-1.2,0-1.6-0.1c-0.4-0.1-0.8-0.1-1.1-0.2
		c-0.3-0.1-0.4-0.2-0.5-0.3c-0.1-0.1-0.2-0.3-0.2-0.5v-44.4c0-0.2,0.1-0.4,0.2-0.5c0.1-0.1,0.3-0.3,0.5-0.3s0.6-0.2,1.1-0.2
		c0.4-0.1,1-0.1,1.6-0.1c0.7,0,1.2,0,1.6,0.1s0.8,0.1,1,0.2c0.3,0.1,0.4,0.2,0.5,0.3c0.1,0.1,0.2,0.3,0.2,0.5v18.5h23v-18.5
		c0-0.2,0.1-0.4,0.2-0.5s0.3-0.3,0.5-0.3c0.3-0.1,0.6-0.2,1-0.2s1-0.1,1.6-0.1c0.6,0,1.2,0,1.6,0.1s0.8,0.1,1,0.2
		c0.3,0.1,0.4,0.2,0.5,0.3c0.1,0.1,0.2,0.3,0.2,0.5V254.2z"/>
	<path d="M1009.3,252.5c0,0.4,0,0.8-0.1,1.1c-0.1,0.3-0.1,0.6-0.3,0.8c-0.1,0.2-0.3,0.4-0.5,0.5c-0.2,0.1-0.4,0.1-0.6,0.1h-24.3
		c-0.6,0-1.2-0.2-1.7-0.6c-0.5-0.4-0.8-1-0.8-1.9v-41.2c0-0.9,0.3-1.6,0.8-1.9c0.5-0.4,1.1-0.6,1.7-0.6h24c0.2,0,0.4,0,0.6,0.1
		c0.2,0.1,0.3,0.3,0.4,0.5s0.2,0.5,0.3,0.8c0.1,0.3,0.1,0.7,0.1,1.2c0,0.4,0,0.8-0.1,1.1c-0.1,0.3-0.2,0.6-0.3,0.8
		c-0.1,0.2-0.2,0.4-0.4,0.4c-0.2,0.1-0.4,0.1-0.6,0.1h-19.8v14.5h17c0.2,0,0.4,0.1,0.6,0.2c0.2,0.1,0.3,0.3,0.4,0.4
		c0.1,0.2,0.2,0.5,0.3,0.8c0.1,0.3,0.1,0.7,0.1,1.2c0,0.4,0,0.8-0.1,1.1c-0.1,0.3-0.1,0.6-0.3,0.8c-0.1,0.2-0.3,0.3-0.4,0.4
		s-0.4,0.1-0.6,0.1h-17V250h20.1c0.2,0,0.4,0,0.6,0.1c0.2,0.1,0.3,0.2,0.5,0.4c0.1,0.2,0.2,0.5,0.3,0.8
		C1009.3,251.7,1009.3,252.1,1009.3,252.5z"/>
</g>
<g>
	<path d="M780.3,671c0,0.1,0,0.3-0.1,0.4c-0.1,0.1-0.2,0.2-0.4,0.3c-0.2,0.1-0.4,0.1-0.7,0.2c-0.3,0-0.6,0.1-1.1,0.1
		c-0.4,0-0.8,0-1-0.1c-0.3,0-0.5-0.1-0.7-0.2c-0.2-0.1-0.3-0.2-0.4-0.3c-0.1-0.1-0.1-0.2-0.1-0.4v-41c0-0.1,0-0.2,0.1-0.4
		c0.1-0.1,0.2-0.2,0.4-0.3s0.4-0.1,0.7-0.2c0.3,0,0.6-0.1,1-0.1c0.4,0,0.8,0,1.1,0.1c0.3,0,0.5,0.1,0.7,0.2c0.2,0.1,0.3,0.2,0.4,0.3
		c0.1,0.1,0.1,0.2,0.1,0.4V671z"/>
	<path d="M800.4,671c0,0.1,0,0.3-0.1,0.4c-0.1,0.1-0.2,0.2-0.4,0.3c-0.2,0.1-0.4,0.1-0.7,0.2c-0.3,0-0.6,0.1-1.1,0.1
		c-0.4,0-0.8,0-1-0.1c-0.3,0-0.5-0.1-0.7-0.2c-0.2-0.1-0.3-0.2-0.4-0.3c-0.1-0.1-0.1-0.2-0.1-0.4v-41c0-0.1,0-0.2,0.1-0.4
		c0.1-0.1,0.2-0.2,0.4-0.3s0.4-0.1,0.7-0.2c0.3,0,0.6-0.1,1-0.1c0.4,0,0.8,0,1.1,0.1c0.3,0,0.5,0.1,0.7,0.2c0.2,0.1,0.3,0.2,0.4,0.3
		c0.1,0.1,0.1,0.2,0.1,0.4V671z"/>
	<path d="M844.2,631.1c0,0.3,0,0.5-0.1,0.8c0,0.2-0.1,0.4-0.2,0.5c-0.1,0.1-0.2,0.3-0.4,0.3c-0.1,0.1-0.3,0.1-0.5,0.1h-13.8V671
		c0,0.1,0,0.3-0.1,0.4s-0.2,0.2-0.4,0.3c-0.2,0.1-0.4,0.1-0.7,0.2c-0.3,0-0.6,0.1-1,0.1c-0.4,0-0.8,0-1-0.1c-0.3,0-0.5-0.1-0.7-0.2
		c-0.2-0.1-0.3-0.2-0.4-0.3c-0.1-0.1-0.1-0.2-0.1-0.4v-38.1h-13.8c-0.2,0-0.4,0-0.5-0.1c-0.1-0.1-0.2-0.2-0.3-0.3
		c-0.1-0.1-0.2-0.3-0.2-0.5c0-0.2-0.1-0.5-0.1-0.8c0-0.3,0-0.6,0.1-0.8c0-0.2,0.1-0.4,0.2-0.6c0.1-0.2,0.2-0.3,0.3-0.3
		c0.1-0.1,0.3-0.1,0.5-0.1h32c0.2,0,0.3,0,0.5,0.1c0.1,0.1,0.3,0.2,0.4,0.3c0.1,0.2,0.2,0.3,0.2,0.6
		C844.2,630.6,844.2,630.8,844.2,631.1z"/>
	<path d="M900.7,670.9c0,0.2,0,0.3-0.1,0.4c0,0.1-0.2,0.2-0.3,0.3s-0.4,0.1-0.7,0.2c-0.3,0-0.7,0.1-1.1,0.1c-0.4,0-0.9,0-1.3-0.1
		c-0.4,0-0.8-0.1-1-0.3c-0.2-0.1-0.4-0.3-0.6-0.5l-18.7-21.7V671c0,0.1,0,0.3-0.1,0.4c-0.1,0.1-0.2,0.2-0.4,0.3
		c-0.2,0.1-0.4,0.1-0.7,0.2c-0.3,0-0.6,0.1-1.1,0.1c-0.4,0-0.8,0-1-0.1c-0.3,0-0.5-0.1-0.7-0.2c-0.2-0.1-0.3-0.2-0.4-0.3
		c-0.1-0.1-0.1-0.2-0.1-0.4v-41c0-0.1,0-0.2,0.1-0.4c0.1-0.1,0.2-0.2,0.4-0.3s0.4-0.1,0.7-0.2c0.3,0,0.6-0.1,1-0.1
		c0.4,0,0.8,0,1.1,0.1c0.3,0,0.5,0.1,0.7,0.2s0.3,0.2,0.4,0.3c0.1,0.1,0.1,0.2,0.1,0.4v19.2l17.9-19.2c0.1-0.2,0.3-0.3,0.5-0.4
		c0.2-0.1,0.4-0.2,0.6-0.3s0.5-0.1,0.8-0.1c0.3,0,0.6,0,1.1,0c0.4,0,0.8,0,1,0.1c0.3,0,0.5,0.1,0.6,0.2s0.3,0.2,0.3,0.3
		c0,0.1,0.1,0.2,0.1,0.3c0,0.2-0.1,0.5-0.2,0.7c-0.1,0.2-0.4,0.5-0.7,0.8L882,649.1l18,20.6c0.3,0.4,0.5,0.7,0.6,0.8
		C900.7,670.7,900.7,670.8,900.7,670.9z"/>
	<path d="M944.5,670.3c0.1,0.3,0.2,0.6,0.2,0.8c0,0.2-0.1,0.4-0.2,0.5c-0.2,0.1-0.4,0.2-0.7,0.2c-0.3,0-0.7,0-1.2,0s-0.9,0-1.2,0
		c-0.3,0-0.5-0.1-0.7-0.1s-0.3-0.2-0.4-0.3c-0.1-0.1-0.2-0.2-0.2-0.4l-4.4-11.3h-20.3l-4.3,11.2c0,0.2-0.1,0.3-0.2,0.4
		c-0.1,0.1-0.2,0.2-0.4,0.3c-0.2,0.1-0.4,0.1-0.7,0.2c-0.3,0-0.7,0.1-1.1,0.1c-0.5,0-0.9,0-1.3-0.1c-0.3,0-0.6-0.1-0.7-0.2
		c-0.2-0.1-0.2-0.3-0.2-0.5c0-0.2,0.1-0.5,0.2-0.8l16.2-40.3c0.1-0.2,0.2-0.3,0.3-0.4c0.1-0.1,0.3-0.2,0.6-0.3
		c0.2-0.1,0.5-0.1,0.8-0.1c0.3,0,0.7,0,1.1,0c0.4,0,0.8,0,1.1,0c0.3,0,0.6,0.1,0.8,0.1s0.4,0.2,0.5,0.3c0.1,0.1,0.2,0.3,0.3,0.4
		L944.5,670.3z M925.3,633.6L925.3,633.6l-8.8,22.8h17.7L925.3,633.6z"/>
	<path d="M988.4,669.7c0,0.4-0.1,0.7-0.2,1s-0.3,0.5-0.5,0.6c-0.2,0.2-0.4,0.3-0.7,0.3c-0.2,0.1-0.5,0.1-0.7,0.1h-0.9
		c-0.5,0-0.9-0.1-1.3-0.2c-0.4-0.1-0.8-0.3-1.1-0.6c-0.4-0.3-0.7-0.6-1.1-1.1c-0.4-0.5-0.8-1-1.2-1.8l-16.3-26.4
		c-0.8-1.3-1.6-2.6-2.5-4c-0.8-1.4-1.6-2.7-2.3-4h0c0,1.6,0,3.2,0,4.9s0,3.3,0,4.9V671c0,0.1,0,0.3-0.1,0.4
		c-0.1,0.1-0.2,0.2-0.4,0.3c-0.2,0.1-0.4,0.1-0.7,0.2c-0.3,0-0.6,0.1-1.1,0.1c-0.4,0-0.8,0-1-0.1c-0.3,0-0.5-0.1-0.7-0.2
		c-0.2-0.1-0.3-0.2-0.4-0.3c-0.1-0.1-0.1-0.2-0.1-0.4v-39.6c0-0.8,0.2-1.3,0.7-1.6c0.5-0.3,0.9-0.4,1.3-0.4h1.8c0.6,0,1,0,1.4,0.1
		c0.4,0.1,0.7,0.2,1,0.4c0.3,0.2,0.6,0.5,0.9,0.9c0.3,0.4,0.6,0.9,1,1.5l12.5,20.2c0.8,1.3,1.5,2.5,2.2,3.6c0.7,1.2,1.4,2.3,2.1,3.4
		c0.7,1.1,1.3,2.2,2,3.3c0.7,1.1,1.3,2.2,1.9,3.3h0c0-1.8,0-3.7,0-5.7c0-2,0-3.9,0-5.7v-24.6c0-0.1,0-0.2,0.1-0.4
		c0.1-0.1,0.2-0.2,0.4-0.3c0.2-0.1,0.4-0.1,0.7-0.2c0.3,0,0.6,0,1.1,0c0.4,0,0.7,0,1,0c0.3,0,0.5,0.1,0.7,0.2
		c0.2,0.1,0.3,0.2,0.4,0.3c0.1,0.1,0.1,0.2,0.1,0.4V669.7z"/>
	<path d="M1030.8,641.4c0,2-0.4,3.8-1.1,5.4c-0.7,1.6-1.8,3-3.1,4.2c-1.4,1.2-3,2.1-5,2.7c-2,0.7-4.3,1-7.1,1h-6V671
		c0,0.1,0,0.3-0.1,0.4c-0.1,0.1-0.2,0.2-0.4,0.3c-0.2,0.1-0.4,0.1-0.7,0.2c-0.3,0-0.6,0.1-1.1,0.1c-0.4,0-0.8,0-1-0.1
		c-0.3,0-0.5-0.1-0.7-0.2c-0.2-0.1-0.3-0.2-0.4-0.3c-0.1-0.1-0.1-0.2-0.1-0.4v-39.6c0-0.8,0.2-1.3,0.7-1.6c0.5-0.3,0.9-0.4,1.3-0.4
		h9.4c0.9,0,1.8,0,2.7,0.1s1.9,0.2,3.1,0.5s2.4,0.7,3.6,1.4s2.3,1.5,3.1,2.5c0.9,1,1.5,2.1,2,3.4
		C1030.5,638.5,1030.8,639.9,1030.8,641.4z M1026.1,641.8c0-1.8-0.4-3.4-1.2-4.7s-1.7-2.2-2.9-2.8s-2.3-1-3.5-1.2
		c-1.2-0.2-2.4-0.2-3.5-0.2h-6.6v18.4h6.3c2,0,3.7-0.2,5.1-0.7s2.5-1.1,3.4-1.9c0.9-0.8,1.6-1.8,2.1-3
		C1025.9,644.4,1026.1,643.2,1026.1,641.8z"/>
	<path d="M1076.7,656c0,2.6-0.4,4.9-1.2,6.9s-1.9,3.7-3.4,5.1c-1.5,1.4-3.3,2.4-5.4,3.1c-2.1,0.7-4.4,1.1-7,1.1
		c-2.4,0-4.5-0.3-6.5-1c-2-0.7-3.7-1.7-5.2-3c-1.4-1.3-2.6-3-3.4-4.9s-1.2-4.2-1.2-6.8V630c0-0.1,0-0.2,0.1-0.4s0.2-0.2,0.4-0.3
		c0.2-0.1,0.4-0.1,0.7-0.2c0.3,0,0.6-0.1,1-0.1c0.4,0,0.8,0,1,0.1c0.3,0,0.5,0.1,0.7,0.2s0.3,0.2,0.4,0.3c0.1,0.1,0.1,0.2,0.1,0.4
		v25.9c0,2.1,0.3,4,0.8,5.6c0.6,1.6,1.4,2.9,2.4,4c1.1,1.1,2.3,1.9,3.9,2.4c1.5,0.5,3.2,0.8,5.1,0.8c1.9,0,3.7-0.3,5.2-0.8
		c1.5-0.5,2.8-1.3,3.8-2.3c1-1,1.9-2.3,2.4-3.9c0.6-1.6,0.8-3.4,0.8-5.5V630c0-0.1,0-0.2,0.1-0.4s0.2-0.2,0.4-0.3s0.4-0.1,0.7-0.2
		c0.3,0,0.6-0.1,1-0.1c0.4,0,0.8,0,1,0.1c0.3,0,0.5,0.1,0.7,0.2s0.3,0.2,0.4,0.3c0.1,0.1,0.1,0.2,0.1,0.4V656z"/>
	<path d="M1121.3,670.9c0,0.2,0,0.3-0.1,0.4c-0.1,0.1-0.2,0.2-0.3,0.3c-0.2,0.1-0.4,0.1-0.7,0.2c-0.3,0-0.7,0.1-1.1,0.1
		c-0.4,0-0.7,0-1,0c-0.3,0-0.5-0.1-0.7-0.2c-0.2-0.1-0.3-0.2-0.5-0.4c-0.1-0.2-0.2-0.4-0.3-0.6l-4.3-10.3c-0.5-1.2-1-2.2-1.6-3.3
		c-0.6-1-1.3-1.9-2.1-2.7c-0.8-0.8-1.8-1.3-2.9-1.8c-1.1-0.4-2.5-0.7-4.1-0.7h-4.8V671c0,0.1,0,0.3-0.1,0.4
		c-0.1,0.1-0.2,0.2-0.4,0.3c-0.2,0.1-0.4,0.1-0.7,0.2c-0.3,0-0.6,0.1-1.1,0.1c-0.4,0-0.8,0-1-0.1c-0.3,0-0.5-0.1-0.7-0.2
		c-0.2-0.1-0.3-0.2-0.4-0.3c-0.1-0.1-0.1-0.2-0.1-0.4v-39.6c0-0.8,0.2-1.3,0.7-1.6c0.5-0.3,0.9-0.4,1.3-0.4h8.7c1.1,0,2.1,0,2.8,0.1
		c0.8,0.1,1.4,0.1,2.1,0.2c1.8,0.3,3.3,0.7,4.6,1.4c1.3,0.6,2.4,1.4,3.3,2.3c0.9,0.9,1.5,2,1.9,3.1c0.4,1.2,0.6,2.4,0.6,3.8
		c0,1.4-0.2,2.6-0.6,3.7c-0.4,1.1-1,2.1-1.8,2.9c-0.8,0.8-1.7,1.6-2.8,2.2c-1.1,0.6-2.3,1.1-3.6,1.5c0.8,0.3,1.5,0.7,2.1,1.2
		c0.6,0.5,1.2,1.1,1.8,1.7c0.5,0.7,1,1.5,1.5,2.3c0.5,0.9,1,1.9,1.4,3l4.3,9.9c0.3,0.8,0.5,1.3,0.6,1.6
		C1121.2,670.6,1121.3,670.8,1121.3,670.9z M1113.6,640.6c0-1.8-0.4-3.3-1.3-4.6c-0.9-1.3-2.4-2.2-4.4-2.7c-0.7-0.2-1.4-0.3-2.3-0.4
		c-0.8-0.1-1.9-0.1-3.2-0.1h-5.7v15.5h6.7c1.8,0,3.3-0.2,4.6-0.6s2.4-1,3.2-1.7c0.8-0.7,1.5-1.5,1.9-2.5S1113.6,641.7,1113.6,640.6z
		"/>
</g>
<g>
	<path d="M514.5,263.2H577c7.1,0,14.2,1.3,21.3,4c7.1,2.7,13.8,6.5,20,11.5c6.2,5,11.2,11.6,15,19.7c3.8,8.1,5.7,17.1,5.7,27
		c0,10-1.7,19.5-5.2,28.3c-3.5,8.8-8.1,16.3-13.8,22.4c-5.7,6.1-12.4,10.9-19.9,14.5c-7.5,3.5-15.3,5.3-23.2,5.3h-62.6
		c-1.2,0-1.8-0.6-1.8-1.8c0-0.9,0.6-1.4,1.8-1.5c4.6-0.6,7.6-2.4,9.2-5.3c1.5-2.9,2.3-7.8,2.3-14.6v-86.2c0-6.8-0.8-11.6-2.3-14.6
		c-1.5-2.9-4.6-4.7-9.2-5.3c-1.2-0.1-1.8-0.7-1.8-1.5C512.7,263.8,513.3,263.2,514.5,263.2z M556.7,266.5v126h5.5
		c12.7,0,23.5-6,32.5-17.9c9-11.9,13.5-28.4,13.5-49.3c0-8.4-1-16-3.1-22.9c-2.1-6.9-4.7-12.5-7.8-16.8c-3.2-4.3-6.7-8-10.7-10.9
		c-4-2.9-7.9-5-11.7-6.3c-3.8-1.3-7.6-1.9-11.3-1.9H556.7z"/>
	<path d="M705.5,310.3c3.8,0,7.7,0.5,11.5,1.4c3.8,1,7.5,2.5,11.1,4.5c3.5,2.1,6.5,4.6,8.8,7.5c1.9,2.5,3.2,5.3,4,8.4
		c0.7,3.1,0.8,6.1,0.1,9c-0.7,2.9-2.3,5.4-4.9,7.5c-2.6,2.1-6,3.4-10.3,3.9l-32.3,3.8c1.5,7.1,4.4,12.8,8.8,17.2
		c4.4,4.4,9.2,7.2,14.3,8.2c5.1,1,10.1,0.6,15-1.2c4.9-1.8,8.7-5,11.4-9.6c0.1-0.1,0.2-0.3,0.2-0.4c1-2.1,2.1-2.9,3.1-2.4
		c0.7,0.4,1,1.1,0.9,2c-4.9,18.1-18.7,27.2-41.3,27.2c-6.3,0-12.4-1.1-18.1-3.4c-5.7-2.3-10.9-5.8-15.4-10.5
		c-4.5-4.7-7.6-10.2-9.4-16.6c-0.9-2.5-1.5-5.3-1.8-8.4c-0.6-6.6-0.2-12.7,1.2-18.4c1.4-5.6,3.8-10.6,7.2-15.1
		c3.4-4.5,8.1-8,14.2-10.6C689.9,311.6,697.1,310.3,705.5,310.3z M705.3,313.6c-3.8,0-7,2.3-9.5,7c-2.5,4.6-3.9,9.9-4.1,15.7
		c-0.2,5.8,0.2,11.5,1.2,16.9c8.3-1,14.7-3.2,19.2-6.4c4.6-3.2,6.6-8.2,6-14.8c-0.3-2.9-0.7-5.5-1.2-7.5c-0.5-2.1-1.3-4-2.2-5.7
		c-1-1.8-2.2-3.1-3.8-3.9C709.4,314,707.5,313.6,705.3,313.6z"/>
	<path d="M796.6,263.7c0.6-0.6,1.3-0.7,2-0.2c0.6,0.3,0.9,0.8,0.9,1.5v53.3c6.5-4.9,13.4-7.4,20.8-7.7c7.4-0.3,14,1.3,19.9,4.8
		c5.9,3.5,10.9,8.4,14.9,14.9c4.1,6.5,6.2,13.6,6.3,21.2c0.3,12.2-3.1,22.8-10.1,31.6c-7,8.8-15.9,13.6-26.6,14.4
		c-11.4,0.7-21.2-3.4-29.6-12.4l-24.1,10.6c-1.6,0.6-2.4,0.1-2.4-1.5v-89.8c0-7.1-0.8-12.4-2.4-16c-1.6-3.6-4.4-5.8-8.4-6.5
		c-1.2,0-1.8-0.6-1.8-1.8c0-1,0.6-1.5,1.8-1.5c4.9-0.1,9.7-0.9,14.6-2.3c4.9-1.4,9.1-3.1,12.6-5c3.5-1.9,6.1-3.4,7.7-4.5
		C794.2,265.5,795.6,264.6,796.6,263.7z M808.5,317.4c-2.7,0-4.8,1.3-6.4,4c-4.1,6.6-3.8,19.3,1.1,38c3.1,11.1,6.8,19.8,11.2,26.3
		c4.3,6.5,8.7,9.1,12.9,8c4.1-1,6.4-5.9,6.7-14.5c0.4-8.6-0.8-17.7-3.6-27.1c-1.8-6.8-3.8-12.7-6.2-17.9c-2.4-5.2-4.9-9.2-7.6-12.3
		C813.9,318.9,811.2,317.4,808.5,317.4z"/>
	<path d="M918.9,310.3c26.7-1.3,41.8,9.1,45.3,31.2l3.3,28.5c1.9,11.6,5.5,17.9,10.6,18.8c0.1,0.1,0.7,0.2,1.7,0.1
		c1-0.1,1.6-0.1,1.9-0.1c0.9,0,1.4,0.4,1.5,1.2c0.1,0.8-0.1,1.4-0.9,1.9c-6.2,3.7-13.2,5.5-21,5.5c-11.1,0-18.4-3.7-22.1-11.1
		c-1.3,1.5-2.8,2.8-4.3,3.9c-1.5,1.1-3.4,2.2-5.4,3.2c-2.1,1-4.7,1.9-7.8,2.7c-3.2,0.7-6.6,1.1-10.3,1.1c-5.3,0-10.1-0.7-14.5-2
		c-4.3-1.3-8-3.7-11.1-7.1c-3-3.4-4.5-7.7-4.5-13c0-5.2,1.1-9.4,3.3-12.8c2.2-3.4,5.2-5.8,8.8-7.3c3.7-1.5,7.4-2.6,11.2-3.3
		c3.8-0.7,7.8-1.4,12.2-2.1c4.3-0.7,7.6-1.5,9.8-2.5c2.7-1.2,4.4-2.7,5.2-4.6c0.8-1.9,1-4.6,0.6-8c-0.3-3.1-0.9-6-1.9-8.8
		c-1-2.8-2.7-5.5-5.2-8.1c-2.5-2.6-5.5-3.9-8.8-3.9c-3.2,0-5.6,0.8-7.2,2.3c-1.5,1.5-2.3,3.4-2.3,5.6c0,1.5,0.5,2.8,1.4,4
		c1,1.2,2,2.1,3.2,2.9c1.2,0.7,2.2,1.9,3,3.5c0.8,1.6,1,3.5,0.7,5.5c-0.4,2.1-1.4,3.9-3.1,5.4c-1.7,1.5-3.6,2.5-5.7,3
		c-2.1,0.4-4.4,0.5-6.6,0.2c-2.3-0.3-4.3-1.3-6.2-2.9c-1.8-1.6-3.1-3.7-3.6-6.2c-1.9-6.8-0.3-12.8,4.9-18
		C899.9,313.8,908,310.9,918.9,310.3z M933.7,345.7c-1.5,2.1-3.4,3.7-5.7,4.9c-0.4,0.3-1.7,1-3.6,2.2c-2,1.2-3.4,2-4.1,2.5
		c-0.7,0.5-1.9,1.4-3.5,2.8c-1.6,1.3-2.8,2.5-3.4,3.6c-0.7,1.1-1.3,2.6-1.9,4.4c-0.6,1.8-0.9,3.8-0.9,5.9c0,8.3,3.4,13.7,10.2,16.4
		c5.5,2.1,10,1.5,13.7-1.8c2.5-2.1,3.5-4.8,3.1-8.2L933.7,345.7z"/>
	<path d="M1025.7,280.5c0.3-0.9,0.9-1.3,1.8-1.1c0.9,0.1,1.3,0.7,1.3,1.8V315h15.3c1.2,0,1.8,0.6,1.8,1.7c0,1.1-0.6,1.7-1.8,1.7
		h-15.3v48c0,11.5,2.4,17.2,7.1,17c1.8,0,3.5-0.8,5.3-2.4c1.8-1.6,3.1-3.5,4-5.5c0.3-0.7,0.8-1.1,1.5-1.1c0.6,0,1,0.3,1.3,0.8
		c0.3,0.5,0.3,1.1,0,1.7c-2.5,5.7-6.2,10.6-11.1,14.6c-4.9,4-10.2,6-16.1,6c-7.7,0-13.4-2.4-17.2-7.2c-3.8-4.8-5.7-12.7-5.7-23.8
		l0.2-34.1c0-2.7,0-4.6,0-6c0-1.3-0.2-2.7-0.6-4c-0.4-1.3-0.7-2.2-0.9-2.5c-0.2-0.4-0.9-0.7-2-1.1c-1.1-0.4-2.1-0.6-3-0.6
		c-0.9,0-2.4,0-4.4,0c-1.3-0.3-2-0.9-2-1.8c0-0.9,0.6-1.4,1.8-1.5c6.2-1.3,13.7-5.6,22.4-12.9
		C1018.2,294.5,1023.6,287.4,1025.7,280.5z"/>
	<path d="M1100.6,310.8c0.4-0.4,1-0.6,1.7-0.3c0.7,0.2,1,0.8,1,1.7v60.6c0,4.4,0.4,8,1.1,10.7c0.7,2.7,2,4.8,3.6,6.3
		c1.7,1.5,3.9,2.4,6.7,2.9c1.2,0.1,1.8,0.7,1.8,1.5c0,1.2-0.5,1.8-1.5,1.8h-54c-1.2,0-1.8-0.6-1.8-1.8c0-0.9,0.6-1.4,1.8-1.5
		c4.6-0.6,7.6-2.4,9.2-5.3c1.5-2.9,2.3-7.8,2.3-14.6v-21.2c0-7.1-0.9-12.4-2.5-16c-1.7-3.6-4.5-5.8-8.3-6.5
		c-1.2-0.3-1.8-0.9-1.8-1.8c0-1,0.6-1.5,1.8-1.5c6.3-0.3,12.7-1.7,19.2-4.2c6.5-2.5,11-4.6,13.5-6.2
		C1096.9,313.6,1099,312.1,1100.6,310.8z M1085.4,263.2c4.4,0,8.5,1.7,12.3,5c3.8,3.3,5.6,7.6,5.6,12.9c0,5-1.7,9.3-5.2,12.8
		c-3.5,3.5-7.7,5.3-12.7,5.3c-4.3,0-8.3-1.7-12.2-5.1c-3.8-3.4-5.7-7.7-5.7-13c0-4.9,1.7-9.1,5.2-12.6
		C1076.1,265,1080.4,263.2,1085.4,263.2z"/>
	<path d="M1178.9,310.1c0.3,0,0.6,0.1,0.9,0.2c0.4,0.3,0.7,0.8,0.7,1.5v8.2c5.3-6.3,12.6-9.5,21.9-9.5c21.5,0,33.9,10.3,37.1,31
		l3.5,31.2c0.9,6.5,2.4,11.2,4.4,14.3c2.1,3,5.2,4.9,9.5,5.6c1.3,0.1,2,0.7,2,1.5c0,1.2-0.6,1.8-1.8,1.8h-53.5c-1.3,0-2-0.6-2-1.8
		c0-0.9,0.7-1.4,2-1.5c4.3-0.7,7-2.5,8.1-5.4c1.1-2.9,1.3-7.7,0.6-14.5l-3.5-34.3c-0.9-6.6-2.7-12.1-5.3-16.5
		c-2.7-4.3-6.5-6.2-11.5-5.4c-2.5,0.3-4.5,1.2-6.1,2.7c-1.5,1.5-2.7,3.6-3.4,6.5c-0.7,2.9-1.3,6-1.5,9.3c-0.3,3.3-0.4,7.6-0.4,12.7
		v25c0,6.6,0.9,11.5,2.7,14.5c1.8,3,4.7,4.8,8.8,5.4c1.2,0.1,1.8,0.7,1.8,1.5c0,1.2-0.5,1.8-1.5,1.8h-54c-1.2,0-1.8-0.6-1.8-1.8
		c0-0.9,0.6-1.4,1.8-1.5c4.6-0.6,7.6-2.4,9.2-5.3c1.5-2.9,2.3-7.8,2.3-14.6v-21.2c0-7.4-0.7-12.7-2-16c-1.3-3.3-4.3-5.6-8.8-6.7
		c-1.2-0.3-1.8-0.9-1.8-1.8c0-1,0.6-1.6,1.8-1.8c6.3-0.1,12.7-1.5,19.2-4c6.5-2.5,11-4.6,13.5-6.2c2.5-1.6,4.6-3.1,6.2-4.4
		C1178.1,310.3,1178.5,310.1,1178.9,310.1z"/>
	<path d="M1338.6,292.6c5.2-4.9,10.9-7.3,17.2-7.3c3.4,0,6.4,0.9,9,2.5c2.6,1.7,4.3,4,5.2,7c1,3.2,1.1,6.2,0.3,8.7
		c-0.8,2.6-2.3,4.8-4.4,6.5c-2.1,1.8-4.5,2.7-7,2.9c-4.1,0.1-6.6-1.1-7.5-3.8c-0.3-1.2-0.3-2.7-0.1-4.6c0.2-1.9,0-3.3-0.8-4.2
		c-3-4-6.9-3.9-11.7,0.2c-3.1,2.5-5,5.5-5.7,9.1c8.3,2.4,15,6.6,20.1,12.8c5.2,6.2,7.7,13.2,7.7,21c0,9.7-3.9,18.1-11.6,25
		c-7.7,6.9-17.1,10.4-28.2,10.4c-7.8,0-14.9-1.8-21.2-5.3c-4.6,1.2-6.5,3.2-5.8,6.2c0.6,2.4,3,4.4,7.2,6.1c4.2,1.7,9.7,2.5,16.5,2.5
		c8.7,0,15.8,0.3,21.4,0.8c5.6,0.5,10.8,1.5,15.6,3.1c4.8,1.5,8.3,3.8,10.5,6.9c2.2,3,3.3,6.9,3.3,11.6c0,7.4-2.5,13.7-7.4,18.9
		c-4.9,5.2-11.2,9-18.7,11.4c-7.5,2.4-15.8,3.5-25,3.5c-3.2,0-6.4-0.1-9.6-0.3c-3.2-0.2-6.7-0.8-10.7-1.7c-4-0.9-7.4-2-10.2-3.4
		c-2.8-1.4-5.2-3.4-7.3-6.1c-2.1-2.7-3.1-5.7-3.1-9.3c0-6.6,4.3-11.2,13-13.7c-3.8-1-6.8-3.3-8.8-6.7c-2.1-3.5-3-7.2-2.9-11.3
		c0.1-4.1,1.8-8.1,5-12.1c3.2-4,7.6-6.9,13.4-8.6c-10-7.1-15-16.4-15-27.9c0-9.7,3.9-18.1,11.6-25c7.7-6.9,17.1-10.4,28.2-10.4
		c2.8,0,5.7,0.3,8.6,0.9c1-3.4,2.1-6,3.1-8C1334.3,297.8,1336.2,295,1338.6,292.6z M1301.6,412.9c-3.5,3.1-5.5,6.9-5.8,11.3
		c-0.3,4.4,1.5,8.4,5.3,11.8c3.8,3.5,9.4,5.2,16.6,5.2c10,0,18.1-3.2,24.3-9.5c4.9-5,5.9-9.3,3.1-12.8c-1.9-2.5-5.5-3.9-10.8-4.2
		C1322.3,414.2,1311.4,413.7,1301.6,412.9z M1314.9,312.3c-2.7,0-4.6,1.9-6,5.7c-2.2,5.9-1.5,15.3,2,28.1c2.5,9,5.5,16.1,9,21.4
		c3.5,5.3,6.9,7.5,10.3,6.6c3.4-1,5.3-4.8,5.6-11.3c0.4-6.5-0.6-14-3-22.6c-3.5-12.7-7.7-21.2-12.4-25.6
		C1318.5,313.1,1316.7,312.3,1314.9,312.3z"/>
	<path d="M665,430.6c4.1,0,8.3,0.4,12.4,1.2c4.1,0.8,7.3,1.5,9.6,2.2c2.3,0.7,4.3,1,6.2,0.9c1.8-0.1,3.1-0.8,3.9-2.1
		c0.4-0.9,1.1-1.3,2-1.1c0.9,0.1,1.3,0.7,1.3,1.8V462c0,1-0.5,1.6-1.5,1.8c-0.9,0-1.5-0.4-1.8-1.3c-1.5-5.6-3.4-10.3-5.9-14.2
		c-2.4-3.8-5.2-6.7-8.2-8.6c-3-1.9-5.9-3.3-8.7-4.2c-2.8-0.9-5.9-1.4-9.3-1.5c-6.6,0-11.9,2.2-15.9,6.5c-4,4.4-6,9.8-6,16.3
		c0,4.3,1.3,8.1,3.9,11.4c2.6,3.3,5.9,6.1,10.1,8.3c4.1,2.2,8.7,4.3,13.7,6.4c5,2.1,10,4.3,15,6.9c5,2.5,9.6,5.3,13.8,8.4
		c4.2,3.1,7.6,7.1,10.2,11.9c2.6,4.9,3.9,10.5,3.9,16.8c0,10.9-5.1,20.2-15.3,27.8c-10.2,7.6-24,11.4-41.3,11.4
		c-16.7,0-29.8-3.2-39.4-9.6c-9.6-6.4-14.4-15.7-14.4-27.7c0-6.5,1.7-12.1,5.2-16.7c3.5-4.6,8.4-7,14.9-7c5.7,0,10.3,1.5,13.7,4.6
		c3.4,3.1,5.1,6.9,5.1,11.5c0,2.7-0.6,5.1-1.9,7.2c-1.3,2.1-2.6,3.8-4.1,5c-1.5,1.2-2.8,2.8-4,4.9c-1.2,2.1-1.8,4.5-1.8,7.3
		c0.1,4.4,2.4,8.4,6.7,11.9c4.3,3.5,10.9,5.3,19.6,5.3c8.8,0,16.1-2.6,21.9-7.8c5.7-5.2,8.6-10.6,8.6-16.3c0-3.2-0.8-6.2-2.4-9
		c-1.6-2.7-3.8-5.1-6.4-7.1c-2.7-2-5.7-3.9-9.2-5.6c-3.5-1.8-7.1-3.5-10.9-5.3c-3.8-1.8-7.7-3.6-11.5-5.4c-3.8-1.8-7.5-4-10.9-6.4
		c-3.5-2.4-6.5-5.1-9.2-8.1c-2.7-2.9-4.8-6.5-6.4-10.7c-1.6-4.2-2.4-8.8-2.4-13.8c0-4.4,0.8-8.7,2.3-12.7c1.5-4.1,4-7.9,7.4-11.6
		c3.4-3.7,8.3-6.6,14.7-8.8C648.8,431.7,656.3,430.6,665,430.6z"/>
	<path d="M778.9,478.8c12.1,0,22.4,4.2,30.8,12.7c8.5,8.5,12.7,18.8,12.7,30.8c0,11.9-4.2,22.1-12.7,30.6
		c-8.5,8.5-18.8,12.7-30.8,12.7c-11.9,0-22.1-4.2-30.6-12.7c-8.5-8.5-12.7-18.7-12.7-30.6c0-12.1,4.2-22.4,12.7-30.8
		C756.8,483,767,478.8,778.9,478.8z M770.3,483.4c-0.7,0-1.3,0-1.8,0c-4.3,1.2-6.6,5.9-7,14.3c-0.4,8.3,0.9,17.8,3.9,28.4
		c3.1,11.1,6.8,19.9,11.2,26.6c4.3,6.7,8.7,9.5,12.9,8.3c4.3-1.2,6.6-5.9,7-14.2c0.4-8.3-0.9-17.7-3.9-28.3
		c-2.8-10.3-6.2-18.8-10.3-25.4C778.3,486.5,774.3,483.3,770.3,483.4z"/>
	<path d="M891.7,478.8c6.3,0,12,1,17,3c5,2,8.8,4.6,11.3,7.7c2.5,3.2,4.1,6.8,4.6,10.9c0.6,4.1-0.3,8.4-2.7,12.8
		c-1.3,2.5-3.3,4.4-5.9,5.6c-2.6,1.3-5.2,1.8-7.8,1.7c-2.7-0.1-5.1-1-7.4-2.5c-2.3-1.5-3.8-3.6-4.5-6.3c-0.7-2.5-0.7-4.6,0.2-6.4
		c0.9-1.8,2-3.1,3.4-4c1.4-0.9,2.8-2.1,4.1-3.5c1.3-1.5,2-3,2-4.6c-0.1-2.9-1.3-5.5-3.5-7.7c-2.2-2.2-5.2-3.3-8.8-3.3
		c-6,0-10.8,3.8-14.4,11.5c-3.5,7.7-4.5,16.9-2.9,27.6c1.3,9.1,4.8,16.6,10.5,22.4c5.7,5.8,12,8.7,18.9,8.5c4.9,0,9.2-1.4,13.2-4.2
		c3.9-2.8,6.8-6.3,8.7-10.4c0.3-1,1-1.4,2.1-1.2c1.1,0.2,1.5,0.9,1.2,2.1c-1.5,5.5-4.3,10.3-8.5,14.5c-4.2,4.2-9.2,7.4-14.9,9.6
		c-5.7,2.2-11.8,3.3-18.1,3.3c-11.2-0.1-21.2-3.7-30-10.7c-8.8-7-13.7-16.5-14.7-28.4c-1.2-13.6,2.2-24.9,10.3-34.2
		C863.1,483.4,875.3,478.8,891.7,478.8z"/>
	<path d="M983.4,479.2c0.4-0.4,1-0.6,1.7-0.3c0.7,0.2,1,0.8,1,1.7v60.6c0,4.4,0.4,8,1.1,10.7c0.7,2.7,2,4.8,3.6,6.3
		c1.7,1.5,3.9,2.4,6.7,2.9c1.2,0.1,1.8,0.7,1.8,1.5c0,1.2-0.5,1.8-1.5,1.8h-54c-1.2,0-1.8-0.6-1.8-1.8c0-0.9,0.6-1.4,1.8-1.5
		c4.6-0.6,7.6-2.4,9.2-5.3c1.5-2.9,2.3-7.8,2.3-14.6v-21.2c0-7.1-0.9-12.4-2.5-16c-1.7-3.6-4.5-5.8-8.3-6.5
		c-1.2-0.3-1.8-0.9-1.8-1.8c0-1,0.6-1.5,1.8-1.5c6.3-0.3,12.7-1.7,19.2-4.2c6.5-2.5,11-4.6,13.5-6.2
		C979.8,482,981.8,480.6,983.4,479.2z M968.2,431.7c4.4,0,8.5,1.7,12.3,5c3.8,3.3,5.6,7.6,5.6,12.9c0,5-1.7,9.3-5.2,12.8
		c-3.5,3.5-7.7,5.3-12.7,5.3c-4.3,0-8.3-1.7-12.2-5.1c-3.8-3.4-5.7-7.7-5.7-13c0-4.9,1.7-9.1,5.2-12.6
		C958.9,433.5,963.2,431.7,968.2,431.7z"/>
	<path d="M1054.9,478.8c3.8,0,7.7,0.5,11.5,1.4c3.8,1,7.5,2.5,11.1,4.5c3.5,2.1,6.5,4.6,8.8,7.5c1.9,2.5,3.2,5.3,4,8.4
		c0.7,3.1,0.8,6.1,0.1,9c-0.7,2.9-2.3,5.4-4.9,7.5c-2.6,2.1-6,3.4-10.3,3.9l-32.3,3.8c1.5,7.1,4.4,12.8,8.8,17.2
		c4.4,4.4,9.2,7.2,14.3,8.2c5.1,1,10.1,0.6,15-1.2c4.9-1.8,8.7-5,11.4-9.6c0.1-0.1,0.2-0.3,0.2-0.4c1-2.1,2.1-2.9,3.1-2.4
		c0.7,0.4,1,1.1,0.9,2c-4.9,18.1-18.7,27.2-41.3,27.2c-6.3,0-12.4-1.1-18.1-3.4c-5.8-2.3-10.9-5.8-15.4-10.5
		c-4.5-4.7-7.6-10.2-9.4-16.6c-0.9-2.5-1.5-5.3-1.8-8.4c-0.6-6.6-0.2-12.7,1.2-18.4c1.4-5.6,3.8-10.6,7.2-15.1
		c3.4-4.5,8.1-8,14.2-10.6C1039.2,480.1,1046.5,478.8,1054.9,478.8z M1054.6,482.1c-3.8,0-7,2.3-9.5,7c-2.5,4.6-3.9,9.9-4.1,15.7
		c-0.2,5.8,0.2,11.5,1.2,16.9c8.3-1,14.7-3.2,19.2-6.4c4.6-3.2,6.6-8.2,6-14.8c-0.3-2.9-0.7-5.5-1.2-7.5c-0.5-2.1-1.3-4-2.2-5.7
		c-1-1.8-2.2-3.1-3.8-3.9C1058.7,482.5,1056.9,482.1,1054.6,482.1z"/>
	<path d="M1145.7,448.9c0.3-0.9,0.9-1.3,1.8-1.1c0.9,0.1,1.3,0.7,1.3,1.8v33.8h15.3c1.2,0,1.8,0.6,1.8,1.7s-0.6,1.7-1.8,1.7h-15.3
		v48c0,11.5,2.4,17.2,7.1,17c1.8,0,3.5-0.8,5.3-2.4c1.8-1.6,3.1-3.5,4-5.5c0.3-0.7,0.8-1.1,1.5-1.1c0.6,0,1,0.3,1.3,0.8
		c0.3,0.5,0.3,1.1,0,1.7c-2.5,5.7-6.2,10.6-11.1,14.6c-4.9,4-10.2,6-16.1,6c-7.7,0-13.4-2.4-17.2-7.2c-3.8-4.8-5.7-12.7-5.7-23.8
		l0.2-34.1c0-2.7,0-4.6,0-6c0-1.3-0.2-2.7-0.6-4c-0.4-1.3-0.7-2.2-0.9-2.5c-0.2-0.4-0.9-0.7-2-1.1c-1.1-0.4-2.1-0.6-3-0.6
		c-0.9,0-2.4,0-4.4,0c-1.3-0.3-2-0.9-2-1.8c0-0.9,0.6-1.4,1.8-1.5c6.2-1.3,13.7-5.6,22.4-12.9C1138.3,463,1143.7,455.9,1145.7,448.9
		z"/>
	<path d="M1179.1,478.8h48.6c1.8,0,2.7,0.5,2.7,1.5c0,0.9-0.7,1.5-2,1.8c-1.9,0.6-3.3,1.5-4.1,2.9c-0.8,1.3-1,3.1-0.7,5.2
		c0.4,2.1,0.8,4,1.2,5.5c0.4,1.5,1.2,3.6,2.2,6.1l16.6,37.8l15.3-39.6c4.6-11.9,3.4-17.9-3.5-17.9c-1.2-0.1-1.8-0.7-1.8-1.8
		c0.1-1,0.7-1.5,1.8-1.5h27.4c1.2,0,1.8,0.5,1.8,1.5c0,1-0.6,1.6-1.8,1.8c-5,0.1-9.1,1.7-12.2,4.5c-3.1,2.9-6,8-8.8,15.4l-32.3,83.6
		c-3.1,7.7-6.6,13-10.5,15.9c-3.9,2.9-8.5,4.6-13.8,4.9c-6.2,0.1-11.8-2.2-16.9-7c-5.1-4.8-7.3-11.1-6.5-18.9
		c0.4-4.3,2.1-7.6,5.1-10c2.9-2.4,6.3-3.5,10.2-3.5c3.7-0.1,6.7,0.7,9.2,2.7c2.4,1.9,3.6,4.6,3.6,8.2c0,1.5-0.5,3.3-1.4,5.4
		c-1,2.1-1.6,3.8-2,5c-0.4,1.2,0,2.9,1,5.1c2.5,2.9,5.8,3.4,10,1.2c4.1-2.1,7.1-5.6,9.1-10.3l1.8-4.2l-35.2-78.5
		c-1.6-3.4-2.6-5.5-3-6.2c-0.4-0.7-1-1.9-1.9-3.5c-0.9-1.6-1.7-2.9-2.3-3.8c-0.7-0.9-1.4-1.8-2.2-2.9c-0.8-1-1.6-1.8-2.4-2.3
		c-0.8-0.5-1.5-0.8-2.1-0.8c-1.3-0.1-2-0.7-2-1.8C1177.1,479.3,1177.8,478.8,1179.1,478.8z"/>
</g>
</svg>
