<?xml version="1.0" encoding="utf-8"?>
<!-- Generator: Adobe Illustrator 24.3.0, SVG Export Plug-In . SVG Version: 6.00 Build 0)  -->
<svg version="1.1" id="Layer_1" xmlns="http://www.w3.org/2000/svg" xmlns:xlink="http://www.w3.org/1999/xlink" x="0px" y="0px"
	 viewBox="0 0 1895.9 812" style="enable-background:new 0 0 1895.9 812;" xml:space="preserve">
<style type="text/css">
	.st0{fill:#F397BB;}
</style>
<path class="st0" d="M96.8,310.3c-2.3,1.4-11.2,6.7-12.9,15.1c-1.5,7.4,3.6,9.5,1.8,18c-1.1,5.4-4.4,9.5-8.5,14.7
	c-5.2,6.6-6.7,6.1-9.8,10.7c-5.2,7.7-5,15.5-4.9,20.2c0.1,3.6,0.4,12.3,6.4,20.9c2.7,3.9,6.7,8.1,8.2,9.7c3.9,4,5.8,6,7.5,7.3
	c1.5,1.2,3.5,2.5,5.2,4.9c0.5,0.7,1.5,2,2,3.6c0.4,1.3,1,3.9-2.5,11c-0.4,0.9-1.5,3.1-5.1,8.7c-3.1,4.8-4.6,7.2-5.7,8.5
	c-4.4,5.1-9.8,7.8-13.9,9.9c-5.7,2.9-11.2,4.6-16,5.6c-0.9,0.2-1.7,0.7-2.3,1.3c-0.5,0.6-0.9,1.2-1.2,1.8
	c-4.8,8.1-0.4,17.2,1.4,20.3c0.1,0.1,0.1,0.2,0.2,0.3c8.5,11.8,14.4,14.1,18.4,13.9c1.1-0.1,2.2-0.3,4-0.2c6.5,0.5,10.8,5.5,12.1,7
	c8.5,9.3,27,19.3,35.9,22.8c12,4.8,23,4.4,37.2,4c14.9-0.5,16-2.8,42.8-6.5c17.2-2.4,26.1-3.6,38.8-3.5c11.1,0.1,14.9,1.1,33.5,2
	c10.6,0.5,19.5,0.7,25.7,0.7c1.2,0,2.3,0.5,3,1.3c2.7,3,6.7,6.5,12.6,8.6c6.8,2.5,11.5,1.5,30.6-0.7c25.8-3.1,27.8-2.6,44-5.2
	c4.8-0.8,10.3-3.4,18.5-3.4c6,0,7.2,1.1,15.7,2c8.1,0.8,14.2,0.6,22.4,0.2c11.7-0.5,11.1-1.3,22-1.9c13.5-0.7,12.6,0.6,27.7,0
	c11.7-0.5,14.3-1.4,20.9-0.2c6.5,1.2,7,2.6,13.9,3.4c4.2,0.5,8.4,0.3,16.7,0c6.3-0.2,7-0.4,10.7-0.6c9.1-0.3,15.7,0.6,19.6,1
	c18.3,1.9,20.7-1.2,43,0.6c16.2,1.2,19.1,3.2,31.4,2.5c5.8-0.3,8.6-1,17.1-1.2c11.6-0.4,13.4,0.6,21.9,0.4c17-0.3,19.4-4.3,32.4-3.9
	c10.5,0.3,17.5,3.1,22.4,4.7c12.5,4,32.7,7,66,1.8c1-0.2,1.9-0.7,2.5-1.4c0.5-0.6,1.1-1.1,1.9-1.5c1.3-0.6,2.5-0.7,3-0.7
	c12-0.5,21.3-3.4,36.3,0.3c4.2,1,3.4,1.2,7.7,2.3c4,1,15.5,3.7,41.1,0.7c4.7-0.5,22.2-2.7,35.6-2.5c2.8,0,7.6,0.2,10.2,2.9
	c2.5,2.6,1.3,5.8,3.5,6.6c2.1,0.8,4.8-1.4,7.4-2.8c3-1.6,7.1-2.8,22.9-1.8c14.8,1,18.5,2.5,28.4,3.3c6.5,0.5,15.8,0.8,27.5-0.7
	c1-0.1,1.9-0.6,2.5-1.3l0.8-1c0.8-0.9,2.1-1.4,3.4-1.3c6.6,0.5,16.2,0.9,27.6,0.7c16.9-0.4,23.1-2,34.3-1.8c8.8,0.2,21.5,1.6,37,7.2
	c1.3,0.5,2.7,0.3,3.8-0.4c0.9-0.6,1.9-1.2,3.1-1.8c2.2-1.1,6-3,11.2-3.6c1.4-0.2,11.1-1.2,18.4,4.1c0.7,0.5,1.3,1,1.8,1.5
	c0.8,0.8,2,1.2,3.2,1.1c3.5-0.3,8.2-0.7,13.7-0.9c17.5-0.6,27.4,1.4,39.8,2.5c29.9,2.7,27.4-3.5,54.7-0.8c0,0,23.1,2.3,37.4-1.7
	c4.4-1.2,4.5-1.2,4.5-1.2c5-1.4,5.6-1.7,6.5-1.8c4.7-0.6,9.1,3.8,10.5,5c7.9,6.8,25.6,4.4,47.6,3c11-0.7,27-1.3,47.3-1
	c14-0.4,25.5-0.3,33.4-0.1c15,0.3,22.6,1,36.1,0c7.8-0.6,7.5-1,17.7-1.8c7-0.6,17.4-1.4,30.3-1.2c8.5,0.1,19.5,0.6,32.5,2.4
	c0.5,0.1,1,0.1,1.5-0.1c3.8-0.8,7.9-1.5,12.1-2.1c16.5-2.2,31.3-1.6,43.1-0.2c0.1,0,0.2,0,0.3,0c9.2,0.4,18.5,0.7,27.7,1.1
	c1.6,0.1,3.1-0.7,3.7-1.9c0.2-0.5,0.6-1.1,1-1.7c3.9-4.9,13.1-5.1,21.9-5.1c9.3,0,21.3,0.3,35.5,1.2c1.2,0.1,2.4-0.3,3.2-1.1
	c1.1-1.1,2.6-2.3,4.6-3.3c5.7-2.9,11.1-1.7,15.5-2.2c10.2-1.1,16.1-11.2,19.4-15.9c6-8.3,18.4-19.3,46.8-30.1c1.1-0.4,2-1.3,2.2-2.3
	c1.2-5.8,2-12.6,1.7-20.3c-0.2-4.3-0.7-8.3-1.3-12c-0.1-0.6-0.5-1.2-1-1.7c-1.2-1.1-2.6-2.6-3.5-4.6c-2-4.4-0.3-8.3,1.2-13
	c0,0,1.3-4.1,1.5-34.2c0-0.3,0-1.1-0.5-1.9c-1.2-2-4.4-2.6-5.2-2.8c-5.6-1.4-9.5-13.2-10.5-21.5c-1.3-10.8,1.7-19.8,4.5-25.7
	c0.1-0.3,0.2-0.6,0.2-0.9c0.8-8.5,0.8-15.5,0.6-20.8c-0.4-12.6-2-15.5-4.5-17.5c-1.7-1.4-5.3-2.8-12.5-5.7c-3.7-1.5-5.6-2.2-7.7-2.6
	c-5.5-1.1-7.6,0.2-13-0.1c-7.5-0.4-7.5-3-14.4-3.6c-7.2-0.7-7.7,2.1-17.4,2.8c-9,0.6-10.6-1.7-18.6-0.8c-7.4,0.8-11,3.3-15.4,4.8
	c-13.6,4.8-28.6-2.1-39.5-5.7c-10.8-3.6-28.3-4.3-63.2-5.7c-21.4-0.8-80.6-1.9-108.7,2.5c-4.5,0.7-11.9,2.1-21.1,0.3
	c-7.8-1.6-9.8-4.1-18.4-5.7c-5.9-1.1-9.7-0.7-18.7-0.3c-9.6,0.5-19.3,0.3-28.9,0.8c-37.2,1.9-50.4-3.6-89.4-0.4
	c-23.5,1.9-25.2,4.4-38.1,3c-17.7-1.9-33-3.5-41.8-5.2c-0.8-0.2-2.9-0.6-5.7-0.4c-6.1,0.4-10.3,3.6-11.2,4.1
	c-8.3,5.6-35.6-0.1-46.3-1.9c-8.8-1.5-44.4-7.7-78.9,1.2c-12.2,3.1-18.4,6.7-31.4,6.5c-12.2-0.2-17-3.4-32.4-4.4
	c-13-0.8-13.7,1.2-27.9,1.4c-21.6,0.2-40.6-4.4-54.5-7.7c-14.3-3.5-20.3-6-31.1-5c-7.8,0.8-8.1,2.5-20.6,5.2
	c-5.4,1.2-18.7,4.1-34.8,3.9c-15.4-0.2-16.8-3-29.3-1.8c-9.4,0.9-11.1,2.8-21.4,4.4c-9.2,1.5-13.1,0.9-30.6,0.7
	c-26.6-0.3-28.1,1.1-52.7,0.4c-7.7-0.2-4.7-0.3-22.4-1c-34.8-1.4-39.7-0.9-52-2.2c-8.1-0.9-19.9-2.5-34.1-6.2
	c-1.1-0.3-2.2-0.1-3.1,0.3c-7.2,3.7-13.1,5.5-16.7,6.4c-5.8,1.5-8.1,1.3-9.9,0.8c-3.2-0.8-4.1-2.5-6.5-2.2c-1.7,0.2-2,1-6.4,3.9
	c-2.6,1.7-3.8,2.5-5,2.8c-4.2,1-8.5-1.5-9.2-1.9c-5.4-3.1-4.7-7.2-8-7.7c-2.4-0.4-3.5,1.6-8.9,4.1c0,0-2.9,1.3-9.2,3
	c-17.6,4.7-48.8-0.6-48.8-0.6c-11.5-1.9-27.1-5.3-44.8-11.7c-0.9-0.3-1.8-0.3-2.7-0.1c-1.8,0.5-4.6,1.3-8,2.2
	c-21,5.9-27,7.7-35.6,7.5c-3.9-0.1-2.6-0.5-8.7-1c-8.9-0.7-14.6-0.1-31.3,1.4c-19.2,1.7-22.1,2-26.7,2.1c-8.3,0.2-7.7-0.2-17.1-0.1
	c-2.9,0-17,0.2-35.9,2.5c-9.5,1.1-10.9,1.7-17.2,2.5c-19.2,2.4-33.4,0.8-45,0c-32.7-2.3-30.6,3-60.8,1.1
	C128,310.9,112.2,301.2,96.8,310.3z"/>
<g>
	<path d="M485.4,287.2h56.9c6.4,0,12.9,1.2,19.4,3.6c6.5,2.4,12.6,5.9,18.2,10.5c5.6,4.6,10.2,10.5,13.7,17.9
		c3.5,7.4,5.2,15.5,5.2,24.5c0,9.1-1.6,17.7-4.7,25.7c-3.1,8-7.3,14.8-12.6,20.4c-5.2,5.6-11.3,9.9-18.1,13.2
		c-6.8,3.2-13.9,4.8-21.1,4.8h-56.9c-1.1,0-1.6-0.5-1.6-1.6c0-0.8,0.5-1.3,1.6-1.4c4.2-0.5,6.9-2.1,8.3-4.8
		c1.4-2.7,2.1-7.1,2.1-13.3v-78.4c0-6.2-0.7-10.6-2.1-13.3c-1.4-2.7-4.2-4.3-8.3-4.8c-1.1-0.1-1.6-0.6-1.6-1.4
		C483.8,287.7,484.3,287.2,485.4,287.2z M523.8,290.2v114.6h5c11.5,0,21.4-5.4,29.5-16.3c8.2-10.9,12.3-25.8,12.3-44.8
		c0-7.6-0.9-14.6-2.8-20.8c-1.9-6.2-4.3-11.3-7.1-15.3c-2.9-4-6.1-7.3-9.7-9.9c-3.6-2.7-7.2-4.6-10.7-5.7c-3.5-1.1-6.9-1.7-10.3-1.7
		H523.8z"/>
	<path d="M651.6,330c3.5,0,7,0.4,10.5,1.3c3.5,0.9,6.8,2.2,10,4.1c3.2,1.9,5.9,4.2,8,6.8c1.7,2.3,2.9,4.8,3.6,7.6
		c0.7,2.8,0.7,5.5,0.1,8.1c-0.6,2.6-2.1,4.9-4.4,6.8c-2.3,1.9-5.5,3.1-9.3,3.5l-29.3,3.4c1.3,6.4,4,11.7,8,15.7c4,4,8.3,6.5,13,7.4
		c4.6,0.9,9.2,0.6,13.7-1.1c4.5-1.7,7.9-4.6,10.4-8.7c0.1-0.1,0.2-0.3,0.2-0.4c0.9-1.9,1.9-2.6,2.8-2.2c0.7,0.4,0.9,1,0.8,1.8
		c-4.4,16.5-17,24.7-37.6,24.7c-5.8,0-11.3-1-16.5-3.1c-5.2-2.1-9.9-5.3-14-9.5c-4.1-4.3-6.9-9.3-8.5-15.1c-0.8-2.3-1.3-4.8-1.6-7.6
		c-0.5-6-0.2-11.6,1.1-16.7c1.3-5.1,3.5-9.7,6.5-13.8c3.1-4.1,7.4-7.3,12.9-9.6C637.4,331.2,644,330,651.6,330z M651.4,333
		c-3.5,0-6.4,2.1-8.6,6.3c-2.3,4.2-3.5,9-3.7,14.3c-0.2,5.3,0.2,10.4,1.1,15.4c7.5-0.9,13.3-2.9,17.5-5.8c4.2-2.9,6-7.4,5.4-13.5
		c-0.3-2.7-0.6-5-1.1-6.8c-0.5-1.9-1.1-3.6-2-5.2c-0.9-1.6-2-2.8-3.4-3.5C655.1,333.4,653.4,333,651.4,333z"/>
	<path d="M732.4,330c3.2,0,6.4,0.2,9.5,0.6c3.1,0.4,5.2,0.7,6,0.9c0.9,0.2,1.9,0.2,3.1-0.1c1.3-0.9,2.1-1.4,2.4-1.4
		c0.9,0,1.5,0.5,1.6,1.4l2,22.1c0,1.1-0.5,1.6-1.4,1.6c-0.8,0.1-1.3-0.3-1.6-1.4c-2-8.7-5.4-14.6-10-17.7c-3.1-2-7-3-11.7-3
		c-4.3,0-7.2,1.6-8.8,4.8c-1.6,3.2-1.5,6.5,0.4,9.8c1.1,2,3.3,4,6.7,5.9c3.4,1.9,7.1,3.8,11.2,5.4c4,1.7,8,3.5,11.9,5.5
		c3.9,2,7.1,4.5,9.7,7.5c2.6,3,3.9,6.5,3.9,10.4c0,7.9-3.4,14.3-10.3,19.2c-6.8,4.9-16.1,7.3-27.7,7.3c-10,0-17.8-2.5-23.2-7.4
		c-5.4-5-7.3-10.5-5.7-16.7c0.8-2.7,2.2-4.8,4.1-6.2c1.9-1.5,4.2-2.2,6.7-2.2c3.6,0,6.6,1.1,8.9,3.4c2.3,2.3,3.3,4.9,2.9,7.8
		c-0.4,2.1-1.7,4.1-3.9,5.9s-3.3,3.5-3.3,5.1c0.1,1.9,1.3,3.6,3.6,5c2.3,1.5,5,2.2,8.2,2.2c5.2,0,9.1-1.3,11.6-3.9
		c2.5-2.6,3.7-5.6,3.7-8.9c0-2.8-1-5.3-2.9-7.4c-1.9-2.1-4.4-3.9-7.3-5.2c-2.9-1.3-6.2-2.8-9.7-4.5c-3.6-1.7-6.9-3.3-9.9-5
		c-3.1-1.7-5.7-4-7.9-6.9c-2.2-2.9-3.5-6.4-3.9-10.3c-0.7-7,1.5-12.7,6.6-17.1C713,332.2,721.2,330,732.4,330z"/>
	<path d="M809,330.4c0.4-0.4,0.9-0.5,1.5-0.3c0.6,0.2,0.9,0.7,0.9,1.5v55.1c0,4,0.3,7.3,1,9.7c0.7,2.5,1.8,4.4,3.3,5.7
		c1.5,1.3,3.6,2.2,6.1,2.6c1.1,0.1,1.6,0.6,1.6,1.4c0,1.1-0.5,1.6-1.4,1.6h-49c-1.1,0-1.6-0.5-1.6-1.6c0-0.8,0.5-1.3,1.6-1.4
		c4.2-0.5,6.9-2.1,8.3-4.8c1.4-2.7,2.1-7.1,2.1-13.3v-19.3c0-6.4-0.8-11.3-2.3-14.6c-1.5-3.3-4.1-5.3-7.5-5.9
		c-1.1-0.3-1.6-0.8-1.6-1.6c0-0.9,0.5-1.4,1.6-1.4c5.8-0.3,11.6-1.5,17.5-3.8c5.9-2.3,10-4.2,12.3-5.6
		C805.7,333,807.5,331.6,809,330.4z M795.1,287.2c4,0,7.7,1.5,11.2,4.5c3.4,3,5.1,6.9,5.1,11.8c0,4.6-1.6,8.4-4.7,11.7
		c-3.2,3.2-7,4.8-11.6,4.8c-3.9,0-7.6-1.5-11.1-4.6c-3.5-3.1-5.2-7-5.2-11.9c0-4.4,1.6-8.2,4.7-11.5
		C786.7,288.8,790.6,287.2,795.1,287.2z"/>
	<path d="M888.4,313.9c4.7-4.4,9.9-6.6,15.7-6.6c3.1,0,5.8,0.8,8.1,2.3c2.3,1.5,3.9,3.7,4.7,6.3c0.9,2.9,1,5.6,0.3,7.9
		c-0.7,2.3-2.1,4.3-4,5.9c-1.9,1.6-4.1,2.5-6.3,2.6c-3.8,0.1-6-1-6.8-3.4c-0.3-1.1-0.3-2.5-0.1-4.2c0.2-1.7,0-3-0.7-3.8
		c-2.7-3.6-6.2-3.5-10.7,0.2c-2.8,2.3-4.6,5-5.2,8.2c7.5,2.1,13.6,6,18.3,11.7c4.7,5.6,7,12,7,19.1c0,8.8-3.5,16.4-10.6,22.7
		c-7,6.3-15.6,9.4-25.6,9.4c-7.1,0-13.5-1.6-19.3-4.8c-4.2,1.1-5.9,2.9-5.2,5.6c0.5,2.1,2.7,4,6.5,5.5c3.8,1.5,8.8,2.3,15,2.3
		c7.9,0,14.4,0.2,19.5,0.7c5.1,0.5,9.8,1.4,14.2,2.8c4.4,1.4,7.5,3.5,9.5,6.2c2,2.7,3,6.3,3,10.6c0,6.7-2.2,12.4-6.7,17.2
		c-4.5,4.8-10.2,8.2-17,10.4c-6.8,2.1-14.4,3.2-22.7,3.2c-2.9,0-5.9-0.1-8.7-0.3c-2.9-0.2-6.1-0.7-9.7-1.5s-6.7-1.8-9.2-3.1
		c-2.5-1.3-4.8-3.1-6.6-5.5c-1.9-2.4-2.8-5.2-2.8-8.4c0-6,4-10.2,11.9-12.5c-3.5-0.9-6.2-3-8-6.1c-1.9-3.2-2.7-6.6-2.6-10.3
		c0.1-3.7,1.6-7.3,4.5-11c2.9-3.6,6.9-6.2,12.2-7.8c-9.1-6.4-13.7-14.9-13.7-25.3c0-8.8,3.5-16.4,10.6-22.7c7-6.3,15.6-9.4,25.6-9.4
		c2.5,0,5.2,0.3,7.8,0.8c0.9-3.1,1.9-5.5,2.8-7.2C884.5,318.6,886.3,316.1,888.4,313.9z M854.8,423.3c-3.2,2.8-5,6.2-5.2,10.3
		c-0.3,4,1.3,7.6,4.8,10.8c3.5,3.1,8.5,4.7,15.1,4.7c9.1,0,16.5-2.9,22.1-8.6c4.4-4.6,5.4-8.4,2.8-11.7c-1.7-2.3-5-3.6-9.8-3.8
		C873.6,424.5,863.7,423.9,854.8,423.3z M866.9,331.8c-2.4,0-4.2,1.7-5.4,5.2c-2,5.4-1.4,13.9,1.8,25.5c2.3,8.2,5,14.7,8.1,19.5
		c3.1,4.8,6.3,6.8,9.3,6c3.1-0.9,4.8-4.4,5.1-10.3c0.3-5.9-0.6-12.7-2.7-20.5c-3.2-11.5-7-19.3-11.3-23.3
		C870.2,332.6,868.5,331.8,866.9,331.8z"/>
	<path d="M958.8,329.8c0.3,0,0.5,0.1,0.8,0.2c0.4,0.3,0.6,0.7,0.6,1.4v7.4c4.8-5.8,11.5-8.6,19.9-8.6c19.6,0,30.8,9.4,33.8,28.1
		l3.2,28.3c0.8,5.9,2.1,10.2,4,13c1.9,2.7,4.8,4.5,8.6,5.1c1.2,0.1,1.8,0.6,1.8,1.4c0,1.1-0.5,1.6-1.6,1.6h-48.6
		c-1.2,0-1.8-0.5-1.8-1.6c0-0.8,0.6-1.3,1.8-1.4c3.9-0.7,6.3-2.3,7.3-4.9c1-2.6,1.2-7,0.5-13.2l-3.2-31.2c-0.8-6-2.4-11-4.8-15
		c-2.4-4-5.9-5.6-10.5-4.9c-2.3,0.3-4.1,1.1-5.5,2.4c-1.4,1.3-2.4,3.3-3.1,5.9c-0.7,2.6-1.1,5.4-1.4,8.4c-0.3,3-0.4,6.9-0.4,11.6
		v22.7c0,6,0.8,10.4,2.4,13.2c1.6,2.7,4.3,4.4,8,4.9c1.1,0.1,1.6,0.6,1.6,1.4c0,1.1-0.5,1.6-1.4,1.6h-49c-1.1,0-1.6-0.5-1.6-1.6
		c0-0.8,0.5-1.3,1.6-1.4c4.2-0.5,6.9-2.1,8.3-4.8c1.4-2.7,2.1-7.1,2.1-13.3v-19.3c0-6.7-0.6-11.6-1.8-14.6c-1.2-3-3.9-5.1-8-6.1
		c-1.1-0.3-1.6-0.8-1.6-1.6c0-0.9,0.5-1.5,1.6-1.6c5.8-0.1,11.6-1.3,17.5-3.6c5.9-2.3,10-4.2,12.3-5.6c2.3-1.5,4.2-2.8,5.6-4
		C958,329.9,958.3,329.8,958.8,329.8z"/>
	<path d="M1125.2,330c24.3-1.2,38,8.2,41.2,28.3l3,25.9c1.7,10.6,5,16.3,9.6,17.1c0.1,0.1,0.6,0.2,1.5,0.1c0.9-0.1,1.4-0.1,1.7-0.1
		c0.8,0,1.3,0.4,1.4,1.1c0.1,0.7-0.1,1.3-0.8,1.7c-5.6,3.4-12,5-19.1,5c-10,0-16.8-3.3-20.1-10.1c-1.2,1.3-2.5,2.5-3.9,3.5
		s-3,2-4.9,2.9c-1.9,0.9-4.3,1.7-7.1,2.4c-2.9,0.7-6,1-9.3,1c-4.8,0-9.2-0.6-13.2-1.8c-4-1.2-7.3-3.3-10-6.4
		c-2.7-3.1-4.1-7-4.1-11.9c0-4.7,1-8.6,3-11.7c2-3.1,4.7-5.3,8-6.6c3.3-1.3,6.7-2.3,10.2-3c3.4-0.7,7.1-1.3,11.1-1.9
		c4-0.6,6.9-1.4,8.9-2.3c2.4-1.1,4-2.5,4.7-4.2c0.7-1.7,0.9-4.2,0.5-7.2c-0.3-2.8-0.8-5.5-1.7-8c-0.9-2.5-2.4-5-4.7-7.3
		c-2.3-2.3-5-3.5-8-3.5c-2.9,0-5.1,0.7-6.5,2.1c-1.4,1.4-2.1,3.1-2.1,5.1c0,1.3,0.4,2.5,1.3,3.6c0.9,1.1,1.8,1.9,2.9,2.6
		c1.1,0.7,2,1.7,2.7,3.2c0.7,1.5,0.9,3.1,0.6,5c-0.3,1.9-1.3,3.5-2.8,4.9c-1.5,1.4-3.3,2.3-5.2,2.7c-1.9,0.4-4,0.5-6,0.2
		c-2.1-0.3-4-1.1-5.6-2.6c-1.7-1.5-2.8-3.3-3.3-5.6c-1.7-6.2-0.3-11.6,4.4-16.4C1108,333.2,1115.3,330.5,1125.2,330z M1138.6,362.2
		c-1.3,1.9-3.1,3.4-5.2,4.4c-0.4,0.3-1.5,0.9-3.3,2c-1.8,1.1-3,1.8-3.7,2.3c-0.7,0.5-1.7,1.3-3.2,2.5c-1.5,1.2-2.5,2.3-3.1,3.3
		c-0.6,1-1.2,2.3-1.7,4c-0.5,1.7-0.8,3.5-0.8,5.3c0,7.5,3.1,12.5,9.2,14.9c5,1.9,9.1,1.3,12.5-1.6c2.3-1.9,3.2-4.4,2.8-7.4
		L1138.6,362.2z"/>
	<path d="M1230.7,329.8c0.3,0,0.5,0.1,0.8,0.2c0.4,0.3,0.6,0.7,0.6,1.4v7.4c4.8-5.8,11.5-8.6,19.9-8.6c19.6,0,30.8,9.4,33.8,28.1
		l3.2,28.3c0.8,5.9,2.1,10.2,4,13c1.9,2.7,4.8,4.5,8.6,5.1c1.2,0.1,1.8,0.6,1.8,1.4c0,1.1-0.5,1.6-1.6,1.6h-48.6
		c-1.2,0-1.8-0.5-1.8-1.6c0-0.8,0.6-1.3,1.8-1.4c3.9-0.7,6.3-2.3,7.3-4.9c1-2.6,1.2-7,0.5-13.2l-3.2-31.2c-0.8-6-2.4-11-4.8-15
		c-2.4-4-5.9-5.6-10.5-4.9c-2.3,0.3-4.1,1.1-5.5,2.4c-1.4,1.3-2.4,3.3-3.1,5.9c-0.7,2.6-1.1,5.4-1.4,8.4c-0.3,3-0.4,6.9-0.4,11.6
		v22.7c0,6,0.8,10.4,2.4,13.2c1.6,2.7,4.3,4.4,8,4.9c1.1,0.1,1.6,0.6,1.6,1.4c0,1.1-0.5,1.6-1.4,1.6h-49c-1.1,0-1.6-0.5-1.6-1.6
		c0-0.8,0.5-1.3,1.6-1.4c4.2-0.5,6.9-2.1,8.3-4.8c1.4-2.7,2.1-7.1,2.1-13.3v-19.3c0-6.7-0.6-11.6-1.8-14.6c-1.2-3-3.9-5.1-8-6.1
		c-1.1-0.3-1.6-0.8-1.6-1.6c0-0.9,0.5-1.5,1.6-1.6c5.8-0.1,11.6-1.3,17.5-3.6c5.9-2.3,10-4.2,12.3-5.6c2.3-1.5,4.2-2.8,5.6-4
		C1230,329.9,1230.3,329.8,1230.7,329.8z"/>
	<path d="M1384.1,287.6c0.5-0.4,1.1-0.5,1.6-0.2c0.5,0.3,0.8,0.7,0.8,1.4v94.1c0,5,0.5,9,1.4,12.1c0.9,3.8,2.8,5.9,5.6,6.4
		c0.1,0.1,0.6,0.2,1.5,0.1c0.9-0.1,1.4-0.1,1.7-0.1c0.7,0,1.1,0.4,1.3,1.1c0.2,0.7,0,1.3-0.7,1.7c-5.8,3.2-11.5,4.8-17.3,4.8
		c-9.4,0.5-15.9-2.3-19.5-8.4c-6,5.4-12.8,8.2-20.3,8.6h-1.8h-1.8c-6-0.3-11.6-2.1-16.8-5.5c-5.2-3.4-9.3-7.9-12.4-13.5
		c-3.1-5.6-4.8-11.7-5.2-18.4c-0.7-11,2.2-20.5,8.6-28.6c6.4-8.1,14.6-12.4,24.5-13c8.6-0.5,16.3,2,23.1,7.6v-13.3
		c0-6.4-0.8-11.3-2.3-14.6c-1.5-3.3-4.1-5.3-7.7-5.9c-0.9-0.1-1.4-0.7-1.4-1.6c0-0.9,0.5-1.4,1.4-1.4c5.9-0.3,11.8-1.5,17.7-3.7
		c5.9-2.2,10-4.1,12.3-5.6C1380.7,290.2,1382.6,288.8,1384.1,287.6z M1334.6,332.8c-0.4,0-0.9,0.1-1.4,0.2c-3.9,1.1-6,5.3-6.4,12.8
		c-0.4,7.4,0.7,15.9,3.4,25.4c2.5,9.5,5.7,17.2,9.3,23.1c3.7,5.9,7.3,8.8,11,8.8c0.4,0,0.9-0.1,1.4-0.4c3.9-1.1,6-5.3,6.4-12.7
		c0.4-7.4-0.7-15.8-3.4-25.3c-2.5-9.5-5.7-17.3-9.3-23.2C1341.9,335.6,1338.2,332.7,1334.6,332.8z"/>
	<path d="M347.5,441.2h2.6h0.2h1.8l41.6,99.5v0.2c5.9,11.9,10.3,17.9,13.3,17.9c1.1,0.1,1.6,0.6,1.6,1.4c0,1.1-0.6,1.6-1.8,1.6
		h-44.2c-1.5,0-2.2-0.5-2.2-1.6c0-0.8,0.6-1.3,1.8-1.4c5.5-1.7,6.3-7.7,2.4-17.9l-2.4-5.8h-46.8l-2.8,7.4
		c-4.2,10.9-3.1,16.3,3.2,16.3c1.1,0.1,1.6,0.6,1.6,1.4c-0.1,1.1-0.7,1.6-1.6,1.6h-24.9c-1.1,0-1.6-0.5-1.6-1.6
		c0-0.8,0.5-1.3,1.6-1.4c4.6-0.1,8.3-1.5,11.2-4.1c2.9-2.6,5.6-7.3,8.1-14L347.5,441.2z M337.7,476L316.6,532H361L337.7,476z"/>
	<path d="M457.9,483.8c0.3,0,0.5,0.1,0.8,0.2c0.4,0.3,0.6,0.7,0.6,1.4v7.4c4.8-5.8,11.5-8.6,19.9-8.6c19.6,0,30.8,9.4,33.8,28.1
		l3.2,28.3c0.8,5.9,2.1,10.2,4,13c1.9,2.7,4.8,4.5,8.6,5.1c1.2,0.1,1.8,0.6,1.8,1.4c0,1.1-0.5,1.6-1.6,1.6h-48.6
		c-1.2,0-1.8-0.5-1.8-1.6c0-0.8,0.6-1.3,1.8-1.4c3.9-0.7,6.3-2.3,7.3-4.9s1.2-7,0.5-13.2l-3.2-31.2c-0.8-6-2.4-11-4.8-15
		c-2.4-4-5.9-5.6-10.5-4.9c-2.3,0.3-4.1,1.1-5.5,2.4c-1.4,1.3-2.4,3.3-3.1,5.9c-0.7,2.6-1.1,5.4-1.4,8.4c-0.3,3-0.4,6.9-0.4,11.6
		v22.7c0,6,0.8,10.4,2.4,13.2c1.6,2.7,4.3,4.4,8,4.9c1.1,0.1,1.6,0.6,1.6,1.4c0,1.1-0.5,1.6-1.4,1.6h-49c-1.1,0-1.6-0.5-1.6-1.6
		c0-0.8,0.5-1.3,1.6-1.4c4.2-0.5,6.9-2.1,8.3-4.8c1.4-2.7,2.1-7.1,2.1-13.3v-19.3c0-6.7-0.6-11.6-1.8-14.6s-3.9-5.1-8-6.1
		c-1.1-0.3-1.6-0.8-1.6-1.6c0-0.9,0.5-1.5,1.6-1.6c5.8-0.1,11.6-1.3,17.5-3.6c5.9-2.3,10-4.2,12.3-5.6c2.3-1.5,4.2-2.8,5.6-4
		C457.1,483.9,457.5,483.8,457.9,483.8z"/>
	<path d="M578.9,484.4c0.4-0.4,0.9-0.5,1.5-0.3s0.9,0.7,0.9,1.5v55.1c0,4,0.3,7.3,1,9.7c0.7,2.5,1.8,4.4,3.3,5.7
		c1.5,1.3,3.6,2.2,6.1,2.6c1.1,0.1,1.6,0.6,1.6,1.4c0,1.1-0.5,1.6-1.4,1.6h-49c-1.1,0-1.6-0.5-1.6-1.6c0-0.8,0.5-1.3,1.6-1.4
		c4.2-0.5,6.9-2.1,8.3-4.8c1.4-2.7,2.1-7.1,2.1-13.3v-19.3c0-6.4-0.8-11.3-2.3-14.6c-1.5-3.3-4.1-5.3-7.5-5.9
		c-1.1-0.3-1.6-0.8-1.6-1.6c0-0.9,0.5-1.4,1.6-1.4c5.8-0.3,11.6-1.5,17.5-3.8c5.9-2.3,10-4.2,12.3-5.6
		C575.5,487,577.4,485.6,578.9,484.4z M565,441.2c4,0,7.7,1.5,11.2,4.5c3.4,3,5.1,6.9,5.1,11.8c0,4.6-1.6,8.4-4.7,11.7
		c-3.1,3.2-7,4.8-11.6,4.8c-3.9,0-7.6-1.5-11.1-4.6c-3.5-3.1-5.2-7-5.2-11.9c0-4.4,1.6-8.2,4.7-11.5
		C556.6,442.8,560.4,441.2,565,441.2z"/>
	<path d="M642.6,483.8c0.3,0,0.5,0.1,0.8,0.2c0.4,0.3,0.6,0.7,0.6,1.4v7.4c4.8-5.8,11.5-8.6,19.9-8.6c15.3,0,25.5,5.6,30.6,16.9
		c4.8-10.6,13.5-16.2,25.9-16.9c19.4,0,30.6,9.4,33.6,28.1l3.4,28.3c0.7,5.9,1.9,10.2,3.8,13c1.9,2.7,4.8,4.5,8.6,5.1
		c1.2,0.1,1.8,0.6,1.8,1.4c0.1,1.1-0.4,1.6-1.6,1.6h-48.6c-1.2,0-1.8-0.5-1.8-1.6c0-0.8,0.6-1.3,1.8-1.4c3.9-0.7,6.4-2.3,7.4-4.9
		c1.1-2.6,1.2-7,0.4-13.2l-3.2-31.2c-0.7-5.5-2.5-10.1-5.4-13.8c-2.9-3.7-6.8-5.3-11.5-4.7c-8.7,1.2-12.5,9.3-11.3,24.3l3,25.3
		c0.8,5.9,2.1,10.2,4,13c1.9,2.7,4.8,4.5,8.6,5.1c1.2,0.1,1.8,0.6,1.8,1.4c0,1.1-0.5,1.6-1.6,1.6h-48.6c-1.2,0-1.8-0.5-1.8-1.6
		c0-0.8,0.6-1.3,1.8-1.4c3.9-0.7,6.3-2.3,7.3-4.9s1.2-7,0.5-13.2l-3.2-31.2c-0.8-6-2.4-11-4.8-15c-2.4-4-5.9-5.6-10.5-4.9
		c-4.3,0.5-7.1,3-8.4,7.3c-1.3,4.4-2,11.4-2,21v22.7c0,6,0.8,10.4,2.4,13.2c1.6,2.7,4.3,4.4,8,4.9c1.1,0.1,1.6,0.6,1.6,1.4
		c0,1.1-0.5,1.6-1.4,1.6h-49c-1.1,0-1.6-0.5-1.6-1.6c0-0.8,0.5-1.3,1.6-1.4c4.2-0.5,6.9-2.1,8.3-4.8c1.4-2.7,2.1-7.1,2.1-13.3v-19.3
		c0-4.6-0.2-8-0.6-10.5c-0.4-2.4-1.3-4.6-2.8-6.4c-1.5-1.9-3.6-3.1-6.4-3.8c-1.1-0.3-1.6-0.8-1.6-1.6c0-0.9,0.5-1.5,1.6-1.6
		c5.8-0.1,11.6-1.3,17.5-3.6c5.9-2.3,10-4.2,12.3-5.6c2.3-1.5,4.2-2.8,5.6-4C641.8,483.9,642.2,483.8,642.6,483.8z"/>
	<path d="M810.2,484c24.3-1.2,38,8.2,41.2,28.3l3,25.9c1.7,10.6,5,16.3,9.6,17.1c0.1,0.1,0.6,0.2,1.5,0.1c0.9-0.1,1.4-0.1,1.7-0.1
		c0.8,0,1.3,0.4,1.4,1.1c0.1,0.7-0.1,1.3-0.8,1.7c-5.6,3.4-12,5-19.1,5c-10,0-16.8-3.3-20.1-10c-1.2,1.3-2.5,2.5-3.9,3.5
		c-1.4,1-3,2-4.9,2.9c-1.9,0.9-4.3,1.7-7.1,2.4c-2.9,0.7-6,1-9.3,1c-4.8,0-9.2-0.6-13.2-1.8c-4-1.2-7.3-3.3-10.1-6.4
		c-2.7-3.1-4.1-7-4.1-11.9c0-4.7,1-8.6,3-11.7c2-3.1,4.7-5.3,8-6.6c3.3-1.3,6.7-2.3,10.2-3c3.4-0.7,7.1-1.3,11.1-1.9
		c4-0.6,6.9-1.4,8.9-2.3c2.4-1.1,4-2.5,4.7-4.2c0.7-1.7,0.9-4.2,0.5-7.2c-0.3-2.8-0.8-5.5-1.7-8c-0.9-2.5-2.4-5-4.7-7.3
		c-2.3-2.3-5-3.5-8-3.5c-2.9,0-5.1,0.7-6.5,2.1c-1.4,1.4-2.1,3.1-2.1,5.1c0,1.3,0.4,2.5,1.3,3.6c0.9,1.1,1.8,1.9,2.9,2.6
		c1.1,0.7,2,1.7,2.7,3.2c0.7,1.5,0.9,3.2,0.6,5c-0.3,1.9-1.3,3.5-2.8,4.9c-1.5,1.4-3.3,2.3-5.2,2.7c-1.9,0.4-4,0.5-6,0.2
		c-2.1-0.3-4-1.1-5.6-2.6c-1.7-1.5-2.8-3.3-3.3-5.6c-1.7-6.2-0.3-11.6,4.4-16.4C793,487.2,800.3,484.5,810.2,484z M823.7,516.2
		c-1.3,1.9-3.1,3.4-5.2,4.4c-0.4,0.3-1.5,0.9-3.3,2c-1.8,1.1-3,1.8-3.7,2.3c-0.7,0.5-1.7,1.3-3.2,2.5c-1.5,1.2-2.5,2.3-3.1,3.3
		c-0.6,1-1.2,2.3-1.7,4c-0.5,1.7-0.8,3.5-0.8,5.3c0,7.5,3.1,12.5,9.2,14.9c5,1.9,9.1,1.3,12.5-1.6c2.3-1.9,3.2-4.4,2.8-7.4
		L823.7,516.2z"/>
	<path d="M899.9,456.9c0.3-0.8,0.8-1.1,1.6-1c0.8,0.1,1.2,0.7,1.2,1.6v30.8h13.9c1.1,0,1.6,0.5,1.6,1.5s-0.5,1.5-1.6,1.5h-13.9v43.6
		c0,10.5,2.1,15.6,6.4,15.5c1.6,0,3.2-0.7,4.8-2.2c1.6-1.5,2.8-3.1,3.6-5c0.3-0.7,0.7-1,1.4-1c0.5,0,0.9,0.2,1.2,0.7
		c0.3,0.5,0.3,1,0,1.5c-2.3,5.2-5.6,9.6-10,13.3s-9.3,5.4-14.7,5.4c-7,0-12.2-2.2-15.7-6.5c-3.5-4.4-5.2-11.6-5.2-21.6l0.2-31
		c0-2.4,0-4.2,0-5.4s-0.2-2.4-0.5-3.6c-0.3-1.2-0.6-2-0.8-2.3c-0.2-0.3-0.8-0.7-1.8-1c-1-0.3-1.9-0.5-2.7-0.5s-2.1,0-4,0
		c-1.2-0.3-1.8-0.8-1.8-1.6c0-0.8,0.5-1.3,1.6-1.4c5.6-1.2,12.4-5.1,20.4-11.8C893.1,469.6,898,463.2,899.9,456.9z"/>
	<path d="M960.6,484.4c0.4-0.4,0.9-0.5,1.5-0.3s0.9,0.7,0.9,1.5v55.1c0,4,0.3,7.3,1,9.7c0.7,2.5,1.8,4.4,3.3,5.7
		c1.5,1.3,3.6,2.2,6.1,2.6c1.1,0.1,1.6,0.6,1.6,1.4c0,1.1-0.5,1.6-1.4,1.6h-49c-1.1,0-1.6-0.5-1.6-1.6c0-0.8,0.5-1.3,1.6-1.4
		c4.2-0.5,6.9-2.1,8.3-4.8c1.4-2.7,2.1-7.1,2.1-13.3v-19.3c0-6.4-0.8-11.3-2.3-14.6c-1.5-3.3-4.1-5.3-7.5-5.9
		c-1.1-0.3-1.6-0.8-1.6-1.6c0-0.9,0.5-1.4,1.6-1.4c5.8-0.3,11.6-1.5,17.5-3.8c5.9-2.3,10-4.2,12.3-5.6
		C957.2,487,959.1,485.6,960.6,484.4z M946.7,441.2c4,0,7.7,1.5,11.2,4.5c3.4,3,5.1,6.9,5.1,11.8c0,4.6-1.6,8.4-4.7,11.7
		c-3.1,3.2-7,4.8-11.6,4.8c-3.9,0-7.6-1.5-11.1-4.6c-3.5-3.1-5.2-7-5.2-11.9c0-4.4,1.6-8.2,4.7-11.5
		C938.3,442.8,942.1,441.2,946.7,441.2z"/>
	<path d="M1017,484c11,0,20.3,3.9,28,11.6c7.7,7.7,11.6,17.1,11.6,28c0,10.9-3.9,20.1-11.6,27.8c-7.7,7.7-17.1,11.6-28,11.6
		c-10.9,0-20.1-3.9-27.8-11.6c-7.7-7.7-11.6-17-11.6-27.8c0-11,3.9-20.3,11.6-28C996.9,487.9,1006.2,484,1017,484z M1009.2,488.2
		c-0.7,0-1.2,0-1.6,0c-3.9,1.1-6,5.4-6.3,13c-0.3,7.6,0.8,16.2,3.5,25.8c2.8,10.1,6.2,18.1,10.2,24.2c4,6.1,7.9,8.6,11.8,7.5
		c3.9-1.1,6-5.4,6.3-12.9c0.3-7.5-0.8-16.1-3.5-25.7c-2.5-9.4-5.7-17.1-9.3-23.1C1016.5,491,1012.8,488.1,1009.2,488.2z"/>
	<path d="M1099.9,483.8c0.3,0,0.5,0.1,0.8,0.2c0.4,0.3,0.6,0.7,0.6,1.4v7.4c4.8-5.8,11.5-8.6,19.9-8.6c19.6,0,30.8,9.4,33.8,28.1
		l3.2,28.3c0.8,5.9,2.1,10.2,4,13c1.9,2.7,4.8,4.5,8.6,5.1c1.2,0.1,1.8,0.6,1.8,1.4c0,1.1-0.5,1.6-1.6,1.6h-48.6
		c-1.2,0-1.8-0.5-1.8-1.6c0-0.8,0.6-1.3,1.8-1.4c3.9-0.7,6.3-2.3,7.3-4.9s1.2-7,0.5-13.2l-3.2-31.2c-0.8-6-2.4-11-4.8-15
		c-2.4-4-5.9-5.6-10.5-4.9c-2.3,0.3-4.1,1.1-5.5,2.4c-1.4,1.3-2.4,3.3-3.1,5.9c-0.7,2.6-1.1,5.4-1.4,8.4c-0.3,3-0.4,6.9-0.4,11.6
		v22.7c0,6,0.8,10.4,2.4,13.2c1.6,2.7,4.3,4.4,8,4.9c1.1,0.1,1.6,0.6,1.6,1.4c0,1.1-0.5,1.6-1.4,1.6h-49c-1.1,0-1.6-0.5-1.6-1.6
		c0-0.8,0.5-1.3,1.6-1.4c4.2-0.5,6.9-2.1,8.3-4.8c1.4-2.7,2.1-7.1,2.1-13.3v-19.3c0-6.7-0.6-11.6-1.8-14.6s-3.9-5.1-8-6.1
		c-1.1-0.3-1.6-0.8-1.6-1.6c0-0.9,0.5-1.5,1.6-1.6c5.8-0.1,11.6-1.3,17.5-3.6c5.9-2.3,10-4.2,12.3-5.6c2.3-1.5,4.2-2.8,5.6-4
		C1099.1,483.9,1099.5,483.8,1099.9,483.8z"/>
	<path d="M1281.2,442.4c7.9-2.1,16.7-2.9,26.5-2.2c3.9,0.3,7.6,0.7,11.2,1.3c3.5,0.6,6.2,1.1,8,1.6c1.8,0.5,3.5,0.8,5,1.1
		c1.5,0.3,2.7,0.3,3.4,0c0.7-0.3,1.4-0.9,1.9-2c0.3-0.8,0.8-1.1,1.6-1c0.8,0.1,1.2,0.7,1.2,1.6v25.9c0,0.9-0.5,1.5-1.4,1.6
		c-0.8,0-1.3-0.4-1.6-1.2c-1.5-5.4-3.4-9.8-5.7-13.5c-2.3-3.6-5-6.3-7.9-8c-2.9-1.7-5.8-2.9-8.4-3.6c-2.7-0.7-5.7-1-9-1
		c-4.8,0-9.5,1.2-14.1,3.6c-4.6,2.4-8.8,5.9-12.7,10.6c-3.9,4.6-7,10.8-9.3,18.5c-2.3,7.7-3.5,16.4-3.5,25.9
		c0,9.6,1.1,18.2,3.3,25.9c2.2,7.7,5.2,13.8,8.9,18.4c3.8,4.6,7.9,8,12.4,10.4c4.5,2.3,9.1,3.5,13.8,3.5c7.5-0.1,14.2-2.8,20.2-7.9
		c6-5.2,10-12,12.2-20.4c0.3-0.8,0.8-1.2,1.7-1.1c0.9,0.1,1.3,0.6,1.3,1.5v28.3c0,0.9-0.3,1.5-1,1.6c-0.7,0.1-1.3-0.2-1.8-1
		c-0.9-1.3-2.6-2-4.9-2.1c-2.3-0.1-5,0.2-7.8,0.9c-2.9,0.7-6.7,1.4-11.6,2.2c-4.8,0.8-9.4,1.2-13.9,1.2c-5.9-0.1-11.3-0.7-16.3-1.8
		c-13.3-3.2-24-10.4-32.3-21.4c-8.2-11.1-12.4-23.8-12.4-38.3c0-14.1,4-26.5,11.9-37.4C1257.9,453.3,1268.3,446,1281.2,442.4z"/>
	<path d="M1388.3,441.6c0.5-0.5,1.1-0.6,1.8-0.2c0.4,0.3,0.6,0.7,0.6,1.4v97.9c0,6,0.8,10.4,2.4,13.2c1.6,2.7,4.3,4.4,8,4.9
		c1.1,0.1,1.6,0.6,1.6,1.4c0,1.1-0.5,1.6-1.4,1.6h-49c-1.1,0-1.6-0.5-1.6-1.6c0-0.8,0.5-1.3,1.6-1.4c4.2-0.5,6.9-2.1,8.3-4.8
		c1.4-2.7,2.1-7.1,2.1-13.3v-62.1c0-6.4-0.8-11.3-2.3-14.6c-1.5-3.3-4.1-5.3-7.5-5.9c-1.2-0.3-1.8-0.8-1.8-1.6
		c0-0.9,0.6-1.4,1.8-1.4c5.8-0.3,11.6-1.5,17.5-3.7c5.9-2.2,10-4.1,12.3-5.6C1384.9,444.2,1386.8,442.8,1388.3,441.6z"/>
	<path d="M1439.3,484c1.1,0,1.6,0.5,1.6,1.6v49c0,7.1,1,12.9,3,17.5c2,4.6,5.3,6.8,9.8,6.8c4.3-0.1,7.7-2.9,10.3-8.4
		c2.5-5.5,3.8-11.5,3.8-18.1v-11.1c0-4.3-0.3-7.8-0.9-10.7c-0.6-2.8-1.6-5.1-3.1-6.7c-1.5-1.7-3.4-2.7-5.6-3.1
		c-1.2-0.3-1.8-0.8-1.8-1.6c0-0.9,0.5-1.4,1.6-1.4c4.6-0.1,9-0.8,13.4-2.1c4.4-1.3,8.1-2.8,11.4-4.5c3.2-1.7,5.6-3.1,7-4.1
		c1.5-1,2.7-1.9,3.6-2.7c0.3-0.3,0.6-0.4,1-0.4c1.1,0,1.6,0.5,1.6,1.6v51.3c0,5,0.4,9,1.2,12.1c1.1,3.8,2.9,5.9,5.6,6.4
		c0.3,0.1,0.8,0.2,1.7,0.1c0.9-0.1,1.4-0.1,1.5-0.1c0.8,0,1.3,0.4,1.5,1.1c0.2,0.7,0,1.3-0.7,1.7c-5.9,3.2-11.7,4.8-17.5,4.8
		c-9.6,0-16.2-3-19.7-9c-4.6,6.2-12.7,9.2-24.5,9c-9.5,0-17.3-2.5-23.3-7.4c-6-5-9-11.9-9-20.9v-13.3c0-6.4-0.7-11.3-2.2-14.6
		c-1.5-3.3-4-5.3-7.4-5.9c-1.2-0.3-1.8-0.8-1.8-1.6c0-0.9,0.5-1.4,1.6-1.4c5.9-0.3,11.8-1.5,17.7-3.8c5.9-2.3,9.9-4.2,12.2-5.6
		c2.2-1.5,4.1-2.8,5.5-4C1438.6,484.1,1438.9,484,1439.3,484z"/>
	<path d="M1543.1,441.6c0.5-0.5,1.1-0.6,1.8-0.2c0.5,0.3,0.8,0.7,0.8,1.4v48.4c5.9-4.4,12.2-6.8,18.9-7c6.7-0.3,12.7,1.2,18.1,4.3
		c5.4,3.2,9.9,7.7,13.6,13.6c3.7,5.9,5.6,12.3,5.7,19.3c0.3,11.1-2.8,20.7-9.1,28.7c-6.4,8-14.4,12.4-24.2,13.1
		c-10.3,0.7-19.3-3.1-26.9-11.3l-21.9,9.6c-1.5,0.5-2.2,0.1-2.2-1.4v-81.6c0-6.4-0.7-11.3-2.2-14.6c-1.5-3.3-4-5.3-7.6-5.9
		c-1.1,0-1.6-0.5-1.6-1.6c0-0.9,0.5-1.4,1.6-1.4c4.4-0.1,8.8-0.8,13.3-2.1c4.4-1.3,8.2-2.8,11.5-4.5c3.2-1.7,5.6-3.1,7-4.1
		C1540.9,443.3,1542.1,442.4,1543.1,441.6z M1553.9,490.4c-2.4,0-4.4,1.2-5.8,3.6c-3.8,6-3.4,17.6,1,34.6c2.8,10,6.2,18,10.2,23.9
		c4,5.9,7.9,8.3,11.8,7.2c3.8-0.9,5.8-5.3,6.1-13.2c0.3-7.8-0.8-16-3.3-24.6c-1.6-6.2-3.5-11.6-5.6-16.3c-2.1-4.7-4.5-8.4-6.9-11.2
		C1558.8,491.8,1556.3,490.4,1553.9,490.4z"/>
</g>
<g>
	<path d="M917.6,211.5c0,0.5,0,0.8-0.1,1.2c-0.1,0.3-0.1,0.6-0.3,0.8c-0.1,0.2-0.3,0.4-0.4,0.4c-0.2,0.1-0.4,0.1-0.6,0.1H902v40.1
		c0,0.2-0.1,0.4-0.2,0.5c-0.1,0.1-0.3,0.3-0.5,0.3c-0.3,0.1-0.6,0.2-1,0.2c-0.4,0.1-1,0.1-1.6,0.1c-0.6,0-1.2,0-1.6-0.1
		c-0.4-0.1-0.8-0.1-1.1-0.2c-0.3-0.1-0.4-0.2-0.5-0.3s-0.2-0.3-0.2-0.5v-40.1h-14.2c-0.2,0-0.4,0-0.6-0.1c-0.2-0.1-0.3-0.2-0.4-0.4
		c-0.1-0.2-0.2-0.5-0.3-0.8c-0.1-0.3-0.1-0.7-0.1-1.2c0-0.5,0-0.9,0.1-1.2c0.1-0.3,0.1-0.6,0.3-0.8s0.2-0.4,0.4-0.5
		c0.2-0.1,0.4-0.1,0.6-0.1h35.2c0.2,0,0.4,0,0.6,0.1c0.2,0.1,0.3,0.3,0.4,0.5s0.2,0.5,0.3,0.8C917.6,210.6,917.6,211,917.6,211.5z"
		/>
	<path d="M964.5,254.2c0,0.2-0.1,0.4-0.2,0.5c-0.1,0.1-0.3,0.3-0.5,0.3c-0.3,0.1-0.6,0.2-1,0.2c-0.4,0.1-1,0.1-1.6,0.1
		c-0.7,0-1.2,0-1.6-0.1c-0.4-0.1-0.8-0.1-1-0.2c-0.3-0.1-0.4-0.2-0.5-0.3s-0.2-0.3-0.2-0.5v-20.5h-23v20.5c0,0.2-0.1,0.4-0.2,0.5
		c-0.1,0.1-0.3,0.3-0.5,0.3c-0.3,0.1-0.6,0.2-1,0.2c-0.4,0.1-1,0.1-1.6,0.1c-0.6,0-1.2,0-1.6-0.1c-0.4-0.1-0.8-0.1-1.1-0.2
		c-0.3-0.1-0.4-0.2-0.5-0.3c-0.1-0.1-0.2-0.3-0.2-0.5v-44.4c0-0.2,0.1-0.4,0.2-0.5c0.1-0.1,0.3-0.3,0.5-0.3s0.6-0.2,1.1-0.2
		c0.4-0.1,1-0.1,1.6-0.1c0.7,0,1.2,0,1.6,0.1s0.8,0.1,1,0.2c0.3,0.1,0.4,0.2,0.5,0.3c0.1,0.1,0.2,0.3,0.2,0.5v18.5h23v-18.5
		c0-0.2,0.1-0.4,0.2-0.5s0.3-0.3,0.5-0.3c0.3-0.1,0.6-0.2,1-0.2s1-0.1,1.6-0.1c0.6,0,1.2,0,1.6,0.1s0.8,0.1,1,0.2
		c0.3,0.1,0.4,0.2,0.5,0.3c0.1,0.1,0.2,0.3,0.2,0.5V254.2z"/>
	<path d="M1009.3,252.5c0,0.4,0,0.8-0.1,1.1c-0.1,0.3-0.1,0.6-0.3,0.8c-0.1,0.2-0.3,0.4-0.5,0.5c-0.2,0.1-0.4,0.1-0.6,0.1h-24.3
		c-0.6,0-1.2-0.2-1.7-0.6c-0.5-0.4-0.8-1-0.8-1.9v-41.2c0-0.9,0.3-1.6,0.8-1.9c0.5-0.4,1.1-0.6,1.7-0.6h24c0.2,0,0.4,0,0.6,0.1
		c0.2,0.1,0.3,0.3,0.4,0.5s0.2,0.5,0.3,0.8c0.1,0.3,0.1,0.7,0.1,1.2c0,0.4,0,0.8-0.1,1.1c-0.1,0.3-0.2,0.6-0.3,0.8
		c-0.1,0.2-0.2,0.4-0.4,0.4c-0.2,0.1-0.4,0.1-0.6,0.1h-19.8v14.5h17c0.2,0,0.4,0.1,0.6,0.2c0.2,0.1,0.3,0.3,0.4,0.4
		c0.1,0.2,0.2,0.5,0.3,0.8c0.1,0.3,0.1,0.7,0.1,1.2c0,0.4,0,0.8-0.1,1.1c-0.1,0.3-0.1,0.6-0.3,0.8c-0.1,0.2-0.3,0.3-0.4,0.4
		s-0.4,0.1-0.6,0.1h-17V250h20.1c0.2,0,0.4,0,0.6,0.1c0.2,0.1,0.3,0.2,0.5,0.4c0.1,0.2,0.2,0.5,0.3,0.8
		C1009.3,251.7,1009.3,252.1,1009.3,252.5z"/>
</g>
<g>
	<path d="M780.3,691c0,0.1,0,0.3-0.1,0.4c-0.1,0.1-0.2,0.2-0.4,0.3c-0.2,0.1-0.4,0.1-0.7,0.2c-0.3,0-0.6,0.1-1.1,0.1
		c-0.4,0-0.8,0-1-0.1c-0.3,0-0.5-0.1-0.7-0.2c-0.2-0.1-0.3-0.2-0.4-0.3c-0.1-0.1-0.1-0.2-0.1-0.4v-41c0-0.1,0-0.2,0.1-0.4
		c0.1-0.1,0.2-0.2,0.4-0.3s0.4-0.1,0.7-0.2c0.3,0,0.6-0.1,1-0.1c0.4,0,0.8,0,1.1,0.1c0.3,0,0.5,0.1,0.7,0.2c0.2,0.1,0.3,0.2,0.4,0.3
		c0.1,0.1,0.1,0.2,0.1,0.4V691z"/>
	<path d="M800.4,691c0,0.1,0,0.3-0.1,0.4c-0.1,0.1-0.2,0.2-0.4,0.3c-0.2,0.1-0.4,0.1-0.7,0.2c-0.3,0-0.6,0.1-1.1,0.1
		c-0.4,0-0.8,0-1-0.1c-0.3,0-0.5-0.1-0.7-0.2c-0.2-0.1-0.3-0.2-0.4-0.3c-0.1-0.1-0.1-0.2-0.1-0.4v-41c0-0.1,0-0.2,0.1-0.4
		c0.1-0.1,0.2-0.2,0.4-0.3s0.4-0.1,0.7-0.2c0.3,0,0.6-0.1,1-0.1c0.4,0,0.8,0,1.1,0.1c0.3,0,0.5,0.1,0.7,0.2c0.2,0.1,0.3,0.2,0.4,0.3
		c0.1,0.1,0.1,0.2,0.1,0.4V691z"/>
	<path d="M844.2,651.1c0,0.3,0,0.5-0.1,0.8c0,0.2-0.1,0.4-0.2,0.5c-0.1,0.1-0.2,0.3-0.4,0.3c-0.1,0.1-0.3,0.1-0.5,0.1h-13.8V691
		c0,0.1,0,0.3-0.1,0.4s-0.2,0.2-0.4,0.3c-0.2,0.1-0.4,0.1-0.7,0.2c-0.3,0-0.6,0.1-1,0.1c-0.4,0-0.8,0-1-0.1c-0.3,0-0.5-0.1-0.7-0.2
		c-0.2-0.1-0.3-0.2-0.4-0.3c-0.1-0.1-0.1-0.2-0.1-0.4v-38.1h-13.8c-0.2,0-0.4,0-0.5-0.1c-0.1-0.1-0.2-0.2-0.3-0.3
		c-0.1-0.1-0.2-0.3-0.2-0.5c0-0.2-0.1-0.5-0.1-0.8c0-0.3,0-0.6,0.1-0.8c0-0.2,0.1-0.4,0.2-0.6c0.1-0.2,0.2-0.3,0.3-0.3
		c0.1-0.1,0.3-0.1,0.5-0.1h32c0.2,0,0.3,0,0.5,0.1c0.1,0.1,0.3,0.2,0.4,0.3c0.1,0.2,0.2,0.3,0.2,0.6
		C844.2,650.6,844.2,650.8,844.2,651.1z"/>
	<path d="M900.7,690.9c0,0.2,0,0.3-0.1,0.4c0,0.1-0.2,0.2-0.3,0.3s-0.4,0.1-0.7,0.2c-0.3,0-0.7,0.1-1.1,0.1c-0.4,0-0.9,0-1.3-0.1
		c-0.4,0-0.8-0.1-1-0.3c-0.2-0.1-0.4-0.3-0.6-0.5l-18.7-21.7V691c0,0.1,0,0.3-0.1,0.4c-0.1,0.1-0.2,0.2-0.4,0.3
		c-0.2,0.1-0.4,0.1-0.7,0.2c-0.3,0-0.6,0.1-1.1,0.1c-0.4,0-0.8,0-1-0.1c-0.3,0-0.5-0.1-0.7-0.2c-0.2-0.1-0.3-0.2-0.4-0.3
		c-0.1-0.1-0.1-0.2-0.1-0.4v-41c0-0.1,0-0.2,0.1-0.4c0.1-0.1,0.2-0.2,0.4-0.3s0.4-0.1,0.7-0.2c0.3,0,0.6-0.1,1-0.1
		c0.4,0,0.8,0,1.1,0.1c0.3,0,0.5,0.1,0.7,0.2s0.3,0.2,0.4,0.3c0.1,0.1,0.1,0.2,0.1,0.4v19.2l17.9-19.2c0.1-0.2,0.3-0.3,0.5-0.4
		c0.2-0.1,0.4-0.2,0.6-0.3s0.5-0.1,0.8-0.1c0.3,0,0.6,0,1.1,0c0.4,0,0.8,0,1,0.1c0.3,0,0.5,0.1,0.6,0.2s0.3,0.2,0.3,0.3
		c0,0.1,0.1,0.2,0.1,0.3c0,0.2-0.1,0.5-0.2,0.7c-0.1,0.2-0.4,0.5-0.7,0.8L882,669.1l18,20.6c0.3,0.4,0.5,0.7,0.6,0.8
		C900.7,690.7,900.7,690.8,900.7,690.9z"/>
	<path d="M944.5,690.3c0.1,0.3,0.2,0.6,0.2,0.8c0,0.2-0.1,0.4-0.2,0.5c-0.2,0.1-0.4,0.2-0.7,0.2c-0.3,0-0.7,0-1.2,0s-0.9,0-1.2,0
		c-0.3,0-0.5-0.1-0.7-0.1s-0.3-0.2-0.4-0.3c-0.1-0.1-0.2-0.2-0.2-0.4l-4.4-11.3h-20.3l-4.3,11.2c0,0.2-0.1,0.3-0.2,0.4
		c-0.1,0.1-0.2,0.2-0.4,0.3c-0.2,0.1-0.4,0.1-0.7,0.2c-0.3,0-0.7,0.1-1.1,0.1c-0.5,0-0.9,0-1.3-0.1c-0.3,0-0.6-0.1-0.7-0.2
		c-0.2-0.1-0.2-0.3-0.2-0.5c0-0.2,0.1-0.5,0.2-0.8l16.2-40.3c0.1-0.2,0.2-0.3,0.3-0.4c0.1-0.1,0.3-0.2,0.6-0.3
		c0.2-0.1,0.5-0.1,0.8-0.1c0.3,0,0.7,0,1.1,0c0.4,0,0.8,0,1.1,0c0.3,0,0.6,0.1,0.8,0.1s0.4,0.2,0.5,0.3c0.1,0.1,0.2,0.3,0.3,0.4
		L944.5,690.3z M925.3,653.6L925.3,653.6l-8.8,22.8h17.7L925.3,653.6z"/>
	<path d="M988.4,689.7c0,0.4-0.1,0.7-0.2,1s-0.3,0.5-0.5,0.6c-0.2,0.2-0.4,0.3-0.7,0.3c-0.2,0.1-0.5,0.1-0.7,0.1h-0.9
		c-0.5,0-0.9-0.1-1.3-0.2c-0.4-0.1-0.8-0.3-1.1-0.6c-0.4-0.3-0.7-0.6-1.1-1.1c-0.4-0.5-0.8-1-1.2-1.8l-16.3-26.4
		c-0.8-1.3-1.6-2.6-2.5-4c-0.8-1.4-1.6-2.7-2.3-4h0c0,1.6,0,3.2,0,4.9s0,3.3,0,4.9V691c0,0.1,0,0.3-0.1,0.4
		c-0.1,0.1-0.2,0.2-0.4,0.3c-0.2,0.1-0.4,0.1-0.7,0.2c-0.3,0-0.6,0.1-1.1,0.1c-0.4,0-0.8,0-1-0.1c-0.3,0-0.5-0.1-0.7-0.2
		c-0.2-0.1-0.3-0.2-0.4-0.3c-0.1-0.1-0.1-0.2-0.1-0.4v-39.6c0-0.8,0.2-1.3,0.7-1.6c0.5-0.3,0.9-0.4,1.3-0.4h1.8c0.6,0,1,0,1.4,0.1
		c0.4,0.1,0.7,0.2,1,0.4c0.3,0.2,0.6,0.5,0.9,0.9c0.3,0.4,0.6,0.9,1,1.5l12.5,20.2c0.8,1.3,1.5,2.5,2.2,3.6c0.7,1.2,1.4,2.3,2.1,3.4
		c0.7,1.1,1.3,2.2,2,3.3c0.7,1.1,1.3,2.2,1.9,3.3h0c0-1.8,0-3.7,0-5.7c0-2,0-3.9,0-5.7v-24.6c0-0.1,0-0.2,0.1-0.4
		c0.1-0.1,0.2-0.2,0.4-0.3c0.2-0.1,0.4-0.1,0.7-0.2c0.3,0,0.6,0,1.1,0c0.4,0,0.7,0,1,0c0.3,0,0.5,0.1,0.7,0.2
		c0.2,0.1,0.3,0.2,0.4,0.3c0.1,0.1,0.1,0.2,0.1,0.4V689.7z"/>
	<path d="M1030.8,661.4c0,2-0.4,3.8-1.1,5.4c-0.7,1.6-1.8,3-3.1,4.2c-1.4,1.2-3,2.1-5,2.7c-2,0.7-4.3,1-7.1,1h-6V691
		c0,0.1,0,0.3-0.1,0.4c-0.1,0.1-0.2,0.2-0.4,0.3c-0.2,0.1-0.4,0.1-0.7,0.2c-0.3,0-0.6,0.1-1.1,0.1c-0.4,0-0.8,0-1-0.1
		c-0.3,0-0.5-0.1-0.7-0.2c-0.2-0.1-0.3-0.2-0.4-0.3c-0.1-0.1-0.1-0.2-0.1-0.4v-39.6c0-0.8,0.2-1.3,0.7-1.6c0.5-0.3,0.9-0.4,1.3-0.4
		h9.4c0.9,0,1.8,0,2.7,0.1s1.9,0.2,3.1,0.5s2.4,0.7,3.6,1.4s2.3,1.5,3.1,2.5c0.9,1,1.5,2.1,2,3.4
		C1030.5,658.5,1030.8,659.9,1030.8,661.4z M1026.1,661.8c0-1.8-0.4-3.4-1.2-4.7s-1.7-2.2-2.9-2.8s-2.3-1-3.5-1.2
		c-1.2-0.2-2.4-0.2-3.5-0.2h-6.6v18.4h6.3c2,0,3.7-0.2,5.1-0.7s2.5-1.1,3.4-1.9c0.9-0.8,1.6-1.8,2.1-3
		C1025.9,664.4,1026.1,663.2,1026.1,661.8z"/>
	<path d="M1076.7,676c0,2.6-0.4,4.9-1.2,6.9s-1.9,3.7-3.4,5.1c-1.5,1.4-3.3,2.4-5.4,3.1c-2.1,0.7-4.4,1.1-7,1.1
		c-2.4,0-4.5-0.3-6.5-1c-2-0.7-3.7-1.7-5.2-3c-1.4-1.3-2.6-3-3.4-4.9s-1.2-4.2-1.2-6.8V650c0-0.1,0-0.2,0.1-0.4s0.2-0.2,0.4-0.3
		c0.2-0.1,0.4-0.1,0.7-0.2c0.3,0,0.6-0.1,1-0.1c0.4,0,0.8,0,1,0.1c0.3,0,0.5,0.1,0.7,0.2s0.3,0.2,0.4,0.3c0.1,0.1,0.1,0.2,0.1,0.4
		v25.9c0,2.1,0.3,4,0.8,5.6c0.6,1.6,1.4,2.9,2.4,4c1.1,1.1,2.3,1.9,3.9,2.4c1.5,0.5,3.2,0.8,5.1,0.8c1.9,0,3.7-0.3,5.2-0.8
		c1.5-0.5,2.8-1.3,3.8-2.3c1-1,1.9-2.3,2.4-3.9c0.6-1.6,0.8-3.4,0.8-5.5V650c0-0.1,0-0.2,0.1-0.4s0.2-0.2,0.4-0.3s0.4-0.1,0.7-0.2
		c0.3,0,0.6-0.1,1-0.1c0.4,0,0.8,0,1,0.1c0.3,0,0.5,0.1,0.7,0.2s0.3,0.2,0.4,0.3c0.1,0.1,0.1,0.2,0.1,0.4V676z"/>
	<path d="M1121.3,690.9c0,0.2,0,0.3-0.1,0.4c-0.1,0.1-0.2,0.2-0.3,0.3c-0.2,0.1-0.4,0.1-0.7,0.2c-0.3,0-0.7,0.1-1.1,0.1
		c-0.4,0-0.7,0-1,0c-0.3,0-0.5-0.1-0.7-0.2c-0.2-0.1-0.3-0.2-0.5-0.4c-0.1-0.2-0.2-0.4-0.3-0.6l-4.3-10.3c-0.5-1.2-1-2.2-1.6-3.3
		c-0.6-1-1.3-1.9-2.1-2.7c-0.8-0.8-1.8-1.3-2.9-1.8c-1.1-0.4-2.5-0.7-4.1-0.7h-4.8V691c0,0.1,0,0.3-0.1,0.4
		c-0.1,0.1-0.2,0.2-0.4,0.3c-0.2,0.1-0.4,0.1-0.7,0.2c-0.3,0-0.6,0.1-1.1,0.1c-0.4,0-0.8,0-1-0.1c-0.3,0-0.5-0.1-0.7-0.2
		c-0.2-0.1-0.3-0.2-0.4-0.3c-0.1-0.1-0.1-0.2-0.1-0.4v-39.6c0-0.8,0.2-1.3,0.7-1.6c0.5-0.3,0.9-0.4,1.3-0.4h8.7c1.1,0,2.1,0,2.8,0.1
		c0.8,0.1,1.4,0.1,2.1,0.2c1.8,0.3,3.3,0.7,4.6,1.4c1.3,0.6,2.4,1.4,3.3,2.3c0.9,0.9,1.5,2,1.9,3.1c0.4,1.2,0.6,2.4,0.6,3.8
		c0,1.4-0.2,2.6-0.6,3.7c-0.4,1.1-1,2.1-1.8,2.9c-0.8,0.8-1.7,1.6-2.8,2.2c-1.1,0.6-2.3,1.1-3.6,1.5c0.8,0.3,1.5,0.7,2.1,1.2
		c0.6,0.5,1.2,1.1,1.8,1.7c0.5,0.7,1,1.5,1.5,2.3c0.5,0.9,1,1.9,1.4,3l4.3,9.9c0.3,0.8,0.5,1.3,0.6,1.6
		C1121.2,690.6,1121.3,690.8,1121.3,690.9z M1113.6,660.6c0-1.8-0.4-3.3-1.3-4.6c-0.9-1.3-2.4-2.2-4.4-2.7c-0.7-0.2-1.4-0.3-2.3-0.4
		c-0.8-0.1-1.9-0.1-3.2-0.1h-5.7v15.5h6.7c1.8,0,3.3-0.2,4.6-0.6s2.4-1,3.2-1.7c0.8-0.7,1.5-1.5,1.9-2.5S1113.6,661.7,1113.6,660.6z
		"/>
</g>
</svg>
