<?xml version="1.0" encoding="utf-8"?>
<!-- Generator: Adobe Illustrator 24.3.0, SVG Export Plug-In . SVG Version: 6.00 Build 0)  -->
<svg version="1.1" id="Layer_1" xmlns="http://www.w3.org/2000/svg" xmlns:xlink="http://www.w3.org/1999/xlink" x="0px" y="0px"
	 viewBox="0 0 1895.9 812" style="enable-background:new 0 0 1895.9 812;" xml:space="preserve">
<style type="text/css">
	.st0{fill:#AC7FB8;}
</style>
<path class="st0" d="M308.9,310.3c-1.7,1.4-8.4,6.7-9.7,15.1c-1.1,7.4,2.7,9.5,1.3,18c-0.9,5.4-3.3,9.5-6.3,14.7
	c-3.9,6.6-5,6.1-7.3,10.7c-3.9,7.7-3.8,15.5-3.7,20.2c0.1,3.6,0.3,12.3,4.8,20.9c2,3.9,5,8.1,6.2,9.7c2.9,4,4.4,6,5.6,7.3
	c1.1,1.2,2.6,2.5,3.9,4.9c0.4,0.7,1.1,2,1.5,3.6c0.3,1.3,0.7,3.9-1.8,11c-0.3,0.9-1.1,3.1-3.8,8.7c-2.3,4.8-3.4,7.2-4.3,8.5
	c-3.3,5.1-7.3,7.8-10.4,9.9c-4.3,2.9-8.4,4.6-12,5.6c-0.7,0.2-1.3,0.7-1.7,1.3c-0.4,0.6-0.7,1.2-0.9,1.8c-3.6,8.1-0.3,17.2,1,20.3
	c0,0.1,0.1,0.2,0.1,0.3c6.4,11.8,10.8,14.1,13.8,13.9c0.8-0.1,1.6-0.3,3-0.2c4.9,0.5,8.1,5.5,9.1,7c6.3,9.3,20.2,19.3,26.8,22.8
	c9,4.8,17.2,4.4,27.9,4c11.2-0.5,12-2.8,32-6.5c12.9-2.4,19.5-3.6,29-3.5c8.3,0.1,11.1,1.1,25.1,2c7.9,0.5,14.6,0.7,19.3,0.7
	c0.9,0,1.7,0.5,2.2,1.3c2,3,5,6.5,9.5,8.6c5.1,2.5,8.6,1.5,22.9-0.7c19.3-3.1,20.8-2.6,32.9-5.2c3.6-0.8,7.7-3.4,13.8-3.4
	c4.5,0,5.4,1.1,11.8,2c6.1,0.8,10.6,0.6,16.8,0.2c8.8-0.5,8.3-1.3,16.5-1.9c10.1-0.7,9.5,0.6,20.7,0c8.7-0.5,10.7-1.4,15.6-0.2
	c4.8,1.2,5.3,2.6,10.4,3.4c3.2,0.5,6.3,0.3,12.5,0c4.7-0.2,5.2-0.4,8-0.6c6.8-0.3,11.8,0.6,14.6,1c13.7,1.9,15.5-1.2,32.1,0.6
	c12.1,1.2,14.3,3.2,23.5,2.5c4.4-0.3,6.5-1,12.8-1.2c8.7-0.4,10,0.6,16.4,0.4c12.7-0.3,14.5-4.3,24.3-3.9c7.8,0.3,13.1,3.1,16.8,4.7
	c9.4,4,24.4,7,49.4,1.8c0.8-0.2,1.4-0.7,1.8-1.4c0.3-0.6,0.8-1.1,1.5-1.5c1-0.6,1.9-0.7,2.3-0.7c9-0.5,15.9-3.4,27.1,0.3
	c3.1,1,2.5,1.2,5.8,2.3c3,1,11.6,3.7,30.8,0.7c3.5-0.5,16.6-2.7,26.6-2.5c2.1,0,5.7,0.2,7.6,2.9c1.9,2.6,1,5.8,2.6,6.6
	c1.5,0.8,3.6-1.4,5.5-2.8c2.2-1.6,5.3-2.8,17.1-1.8c11.1,1,13.8,2.5,21.3,3.3c4.9,0.5,11.9,0.8,20.6-0.7c0.8-0.1,1.4-0.6,1.9-1.3
	l0.6-1c0.6-0.9,1.5-1.4,2.6-1.3c5,0.5,12.1,0.9,20.6,0.7c12.6-0.4,17.3-2,25.6-1.8c6.6,0.2,16.1,1.6,27.7,7.2c0.9,0.5,2,0.3,2.9-0.4
	c0.7-0.6,1.4-1.2,2.3-1.8c1.7-1.1,4.5-3,8.4-3.6c1-0.2,8.3-1.2,13.8,4.1c0.5,0.5,1,1,1.3,1.5c0.6,0.8,1.5,1.2,2.4,1.1
	c2.6-0.3,6.1-0.7,10.2-0.9c13.1-0.6,20.5,1.4,29.8,2.5c22.4,2.7,20.5-3.5,40.9-0.8c0,0,17.3,2.3,28-1.7c3.3-1.2,3.4-1.2,3.4-1.2
	c3.8-1.4,4.2-1.7,4.9-1.8c3.5-0.6,6.8,3.8,7.9,5c5.9,6.8,19.1,4.4,35.6,3c8.2-0.7,20.2-1.3,35.4-1c10.5-0.4,19.1-0.3,25-0.1
	c11.2,0.3,16.9,1,27,0c5.8-0.6,5.6-1,13.3-1.8c5.2-0.6,13-1.4,22.6-1.2c6.3,0.1,14.6,0.6,24.3,2.4c0.4,0.1,0.8,0.1,1.1-0.1
	c2.8-0.8,5.9-1.5,9.1-2.1c12.4-2.2,23.4-1.6,32.3-0.2c0.1,0,0.2,0,0.2,0c6.9,0.4,13.8,0.7,20.7,1.1c1.2,0.1,2.3-0.7,2.7-1.9
	c0.2-0.5,0.4-1.1,0.8-1.7c2.9-4.9,9.8-5.1,16.4-5.1c7,0,15.9,0.3,26.6,1.2c0.9,0.1,1.8-0.3,2.4-1.1c0.8-1.1,1.9-2.3,3.4-3.3
	c4.3-2.9,8.3-1.7,11.6-2.2c7.6-1.1,12-11.2,14.5-15.9c4.5-8.3,13.8-19.3,35-30.1c0.8-0.4,1.5-1.3,1.6-2.3c0.9-5.8,1.5-12.6,1.2-20.3
	c-0.1-4.3-0.5-8.3-1-12c-0.1-0.6-0.3-1.2-0.7-1.7c-0.9-1.1-2-2.6-2.6-4.6c-1.5-4.4-0.2-8.3,0.9-13c0,0,1-4.1,1.1-34.2
	c0-0.3,0-1.1-0.4-1.9c-0.9-2-3.3-2.6-3.9-2.8c-4.2-1.4-7.1-13.2-7.9-21.5c-1-10.8,1.3-19.8,3.4-25.7c0.1-0.3,0.2-0.6,0.2-0.9
	c0.6-8.5,0.6-15.5,0.5-20.8c-0.3-12.6-1.5-15.5-3.4-17.5c-1.3-1.4-4-2.8-9.4-5.7c-2.8-1.5-4.2-2.2-5.8-2.6c-4.1-1.1-5.7,0.2-9.8-0.1
	c-5.6-0.4-5.6-3-10.8-3.6c-5.4-0.7-5.8,2.1-13,2.8c-6.7,0.6-8-1.7-13.9-0.8c-5.6,0.8-8.2,3.3-11.5,4.8c-10.1,4.8-21.4-2.1-29.5-5.7
	c-8.1-3.6-21.1-4.3-47.3-5.7c-16-0.8-60.3-1.9-81.3,2.5c-3.4,0.7-8.9,2.1-15.8,0.3c-5.8-1.6-7.3-4.1-13.8-5.7
	c-4.4-1.1-7.3-0.7-14-0.3c-7.2,0.5-14.4,0.3-21.6,0.8c-27.9,1.9-37.7-3.6-66.9-0.4c-17.6,1.9-18.8,4.4-28.5,3
	c-13.3-1.9-24.7-3.5-31.3-5.2c-0.6-0.2-2.2-0.6-4.3-0.4c-4.6,0.4-7.7,3.6-8.4,4.1c-6.2,5.6-26.6-0.1-34.6-1.9
	c-6.6-1.5-33.2-7.7-59,1.2c-9.1,3.1-13.8,6.7-23.5,6.5c-9.1-0.2-12.7-3.4-24.3-4.4c-9.7-0.8-10.3,1.2-20.9,1.4
	c-16.2,0.2-30.3-4.4-40.8-7.7c-10.7-3.5-15.2-6-23.3-5c-5.8,0.8-6,2.5-15.4,5.2c-4,1.2-14,4.1-26,3.9c-11.5-0.2-12.6-3-21.9-1.8
	c-7,0.9-8.3,2.8-16,4.4c-6.9,1.5-9.8,0.9-22.9,0.7c-19.9-0.3-21,1.1-39.4,0.4c-5.7-0.2-3.5-0.3-16.8-1c-26.1-1.4-29.7-0.9-38.9-2.2
	c-6.1-0.9-14.9-2.5-25.5-6.2c-0.8-0.3-1.6-0.1-2.4,0.3c-5.4,3.7-9.8,5.5-12.5,6.4c-4.3,1.5-6.1,1.3-7.4,0.8c-2.4-0.8-3-2.5-4.9-2.2
	c-1.3,0.2-1.5,1-4.8,3.9c-1.9,1.7-2.9,2.5-3.8,2.8c-3.1,1-6.3-1.5-6.9-1.9c-4-3.1-3.5-7.2-6-7.7c-1.8-0.4-2.6,1.6-6.6,4.1
	c0,0-2.2,1.3-6.9,3c-13.1,4.7-36.5-0.6-36.5-0.6c-8.6-1.9-20.2-5.3-33.5-11.7c-0.6-0.3-1.4-0.3-2-0.1c-1.3,0.5-3.4,1.3-6,2.2
	c-15.7,5.9-20.2,7.7-26.6,7.5c-2.9-0.1-1.9-0.5-6.5-1c-6.7-0.7-11-0.1-23.4,1.4c-14.4,1.7-16.6,2-20,2.1c-6.2,0.2-5.8-0.2-12.8-0.1
	c-2.2,0-12.7,0.2-26.9,2.5c-7.1,1.1-8.2,1.7-12.9,2.5c-14.4,2.4-25,0.8-33.6,0c-24.5-2.3-22.9,3-45.5,1.1
	C332.2,310.9,320.4,301.2,308.9,310.3z"/>
<g>
	<path d="M507.2,281.2H567c6.8,0,13.5,1.3,20.4,3.8c6.8,2.5,13.2,6.2,19.1,11c5.9,4.8,10.7,11,14.3,18.8c3.7,7.7,5.5,16.3,5.5,25.7
		c0,9.6-1.7,18.6-5,27c-3.3,8.4-7.7,15.6-13.2,21.4c-5.5,5.8-11.8,10.4-19,13.8c-7.2,3.4-14.6,5.1-22.2,5.1h-59.7
		c-1.1,0-1.7-0.6-1.7-1.7c0-0.8,0.6-1.3,1.7-1.5c4.4-0.6,7.3-2.2,8.8-5.1c1.5-2.8,2.2-7.5,2.2-13.9v-82.3c0-6.5-0.7-11.1-2.2-13.9
		c-1.5-2.8-4.4-4.5-8.8-5.1c-1.1-0.1-1.7-0.6-1.7-1.5C505.6,281.8,506.1,281.2,507.2,281.2z M547.5,284.4v120.3h5.3
		c12.1,0,22.4-5.7,31-17.1c8.6-11.4,12.9-27.1,12.9-47.1c0-8-1-15.3-3-21.8c-2-6.5-4.5-11.9-7.5-16c-3-4.1-6.4-7.6-10.2-10.4
		c-3.8-2.8-7.5-4.8-11.2-6c-3.7-1.2-7.2-1.8-10.8-1.8H547.5z"/>
	<path d="M700.1,325.1c7.5,0,12.9,2.8,16.4,8.4c3.4,5.6,3.3,11.7-0.5,18.1c-1.7,2.7-4,4.5-7.1,5.6c-3,1.1-6,1.2-9,0.3
		c-4.9-1.4-7.4-4.3-7.4-8.7c0-2.2,1.2-4.2,3.7-5.9c2.5-1.7,3.7-3.4,3.7-5.1c0-2.5-0.8-4.6-2.5-6.1c-1.7-1.5-3.9-2.1-6.5-1.7
		c-4.6,1.4-7.7,4.5-9.3,9.2c-1.5,4.7-2.3,11.9-2.3,21.6v24.7c0,6.3,0.8,10.9,2.4,13.8c1.6,2.9,4.5,4.6,8.5,5.2
		c1.1,0.1,1.7,0.6,1.7,1.5c0,1.1-0.6,1.7-1.7,1.7h-51.3c-1.1,0-1.7-0.6-1.7-1.7c0-0.8,0.6-1.3,1.7-1.5c4.2-0.6,7.1-2.2,8.7-5.1
		c1.5-2.8,2.3-7.5,2.3-13.9v-20.3c0-6.8-0.8-11.8-2.4-15.3c-1.6-3.4-4.3-5.5-7.9-6.2c-1.3-0.3-1.9-0.8-1.9-1.7c0-1,0.6-1.5,1.9-1.5
		c6-0.3,12.2-1.6,18.4-4c6.2-2.4,10.4-4.4,12.8-5.9c2.3-1.5,4.3-3,5.8-4.2c0.6-0.4,1.2-0.5,1.8-0.3c0.6,0.2,0.9,0.7,0.9,1.6v6.3
		c4.2-4.1,8.6-6.8,13.1-8C695.1,325.4,697.7,325.1,700.1,325.1z"/>
	<path d="M761.5,326.1c25.5-1.3,39.9,8.7,43.3,29.8l3.2,27.2c1.8,11.1,5.2,17.1,10.1,17.9c0.1,0.1,0.7,0.2,1.6,0.1
		c0.9-0.1,1.5-0.1,1.8-0.1c0.8,0,1.3,0.4,1.5,1.2c0.1,0.8-0.1,1.4-0.8,1.8c-5.9,3.5-12.6,5.3-20,5.3c-10.5,0-17.6-3.5-21.1-10.5
		c-1.3,1.4-2.6,2.6-4.1,3.7c-1.5,1.1-3.2,2.1-5.2,3.1c-2,1-4.5,1.8-7.5,2.5c-3,0.7-6.3,1.1-9.8,1.1c-5.1,0-9.7-0.6-13.8-1.9
		c-4.2-1.3-7.7-3.5-10.5-6.8c-2.9-3.2-4.3-7.4-4.3-12.4c0-4.9,1.1-9,3.2-12.2c2.1-3.2,4.9-5.6,8.4-7c3.5-1.4,7.1-2.5,10.7-3.2
		c3.6-0.7,7.5-1.4,11.6-2c4.1-0.6,7.3-1.4,9.4-2.4c2.5-1.1,4.2-2.6,5-4.4c0.8-1.8,0.9-4.4,0.5-7.6c-0.3-3-0.9-5.8-1.8-8.4
		c-0.9-2.7-2.6-5.2-5-7.7c-2.4-2.5-5.2-3.7-8.4-3.7c-3.1,0-5.4,0.7-6.9,2.2c-1.5,1.5-2.2,3.3-2.2,5.4c0,1.4,0.5,2.7,1.4,3.8
		c0.9,1.1,1.9,2,3.1,2.7c1.1,0.7,2.1,1.8,2.8,3.4c0.8,1.5,1,3.3,0.6,5.3c-0.4,2-1.3,3.7-3,5.2c-1.6,1.5-3.4,2.4-5.5,2.8
		c-2,0.4-4.2,0.5-6.3,0.2c-2.2-0.3-4.2-1.2-5.9-2.7c-1.8-1.5-2.9-3.5-3.5-5.9c-1.8-6.5-0.3-12.2,4.6-17.2
		C743.4,329.5,751.1,326.7,761.5,326.1z M775.6,359.9c-1.4,2-3.2,3.5-5.5,4.6c-0.4,0.3-1.6,1-3.5,2.1c-1.9,1.1-3.2,1.9-3.9,2.4
		c-0.7,0.5-1.8,1.4-3.4,2.6c-1.5,1.3-2.6,2.4-3.3,3.5c-0.6,1.1-1.2,2.5-1.8,4.2c-0.6,1.8-0.8,3.6-0.8,5.6c0,7.9,3.2,13.1,9.7,15.6
		c5.2,2,9.6,1.4,13.1-1.7c2.4-2,3.4-4.6,3-7.8L775.6,359.9z"/>
	<path d="M872.3,325.9c0.3,0,0.6,0.1,0.8,0.2c0.4,0.3,0.6,0.8,0.6,1.5v7.8c5.1-6,12-9.1,20.9-9.1c16,0,26.7,5.9,32.1,17.7
		c5.1-11.1,14.1-17,27.2-17.7c20.4,0,32.1,9.8,35.2,29.5l3.6,29.8c0.7,6.2,2,10.7,4,13.6c2,2.9,5,4.7,9.1,5.4
		c1.3,0.1,1.9,0.6,1.9,1.5c0.1,1.1-0.4,1.7-1.7,1.7H955c-1.3,0-1.9-0.6-1.9-1.7c0-0.8,0.6-1.3,1.9-1.5c4.1-0.7,6.7-2.4,7.8-5.2
		c1.1-2.7,1.3-7.3,0.4-13.8l-3.4-32.7c-0.7-5.8-2.6-10.6-5.7-14.5c-3.1-3.9-7.1-5.5-12-5c-9.1,1.3-13.1,9.8-11.8,25.5l3.2,26.6
		c0.8,6.2,2.2,10.7,4.2,13.6c2,2.9,5,4.7,9.1,5.4c1.3,0.1,1.9,0.6,1.9,1.5c0,1.1-0.6,1.7-1.7,1.7h-51.1c-1.3,0-1.9-0.6-1.9-1.7
		c0-0.8,0.6-1.3,1.9-1.5c4.1-0.7,6.6-2.4,7.7-5.2c1.1-2.7,1.2-7.3,0.5-13.8l-3.4-32.7c-0.8-6.3-2.5-11.6-5.1-15.7
		c-2.5-4.1-6.2-5.9-11-5.2c-4.5,0.6-7.5,3.1-8.9,7.7c-1.4,4.6-2.1,11.9-2.1,22v23.8c0,6.3,0.8,10.9,2.5,13.8
		c1.7,2.9,4.5,4.6,8.4,5.2c1.1,0.1,1.7,0.6,1.7,1.5c0,1.1-0.5,1.7-1.5,1.7h-51.5c-1.1,0-1.7-0.6-1.7-1.7c0-0.8,0.6-1.3,1.7-1.5
		c4.4-0.6,7.3-2.2,8.8-5.1c1.5-2.8,2.2-7.5,2.2-13.9v-20.3c0-4.8-0.2-8.4-0.6-11c-0.4-2.5-1.4-4.8-3-6.8c-1.5-2-3.8-3.3-6.8-4
		c-1.1-0.3-1.7-0.8-1.7-1.7c0-1,0.6-1.5,1.7-1.7c6-0.1,12.2-1.4,18.4-3.8c6.2-2.4,10.5-4.4,12.9-5.9c2.4-1.5,4.4-3,5.9-4.2
		C871.5,326.1,871.8,325.9,872.3,325.9z"/>
	<path d="M1048.2,326.1c25.5-1.3,39.9,8.7,43.3,29.8l3.2,27.2c1.8,11.1,5.2,17.1,10.1,17.9c0.1,0.1,0.7,0.2,1.6,0.1
		c0.9-0.1,1.5-0.1,1.8-0.1c0.8,0,1.3,0.4,1.5,1.2c0.1,0.8-0.1,1.4-0.8,1.8c-5.9,3.5-12.6,5.3-20,5.3c-10.5,0-17.6-3.5-21.1-10.5
		c-1.3,1.4-2.6,2.6-4.1,3.7c-1.5,1.1-3.2,2.1-5.2,3.1c-2,1-4.5,1.8-7.5,2.5c-3,0.7-6.3,1.1-9.8,1.1c-5.1,0-9.7-0.6-13.8-1.9
		c-4.2-1.3-7.7-3.5-10.5-6.8c-2.9-3.2-4.3-7.4-4.3-12.4c0-4.9,1.1-9,3.2-12.2c2.1-3.2,4.9-5.6,8.4-7c3.5-1.4,7.1-2.5,10.7-3.2
		c3.6-0.7,7.5-1.4,11.6-2c4.1-0.6,7.3-1.4,9.4-2.4c2.5-1.1,4.2-2.6,5-4.4c0.8-1.8,1-4.4,0.5-7.6c-0.3-3-0.9-5.8-1.8-8.4
		c-0.9-2.7-2.6-5.2-5-7.7c-2.4-2.5-5.2-3.7-8.4-3.7c-3.1,0-5.4,0.7-6.9,2.2c-1.5,1.5-2.2,3.3-2.2,5.4c0,1.4,0.5,2.7,1.4,3.8
		c0.9,1.1,1.9,2,3.1,2.7c1.1,0.7,2.1,1.8,2.8,3.4c0.8,1.5,1,3.3,0.6,5.3c-0.4,2-1.3,3.7-3,5.2c-1.6,1.5-3.4,2.4-5.5,2.8
		c-2,0.4-4.2,0.5-6.3,0.2c-2.2-0.3-4.2-1.2-5.9-2.7c-1.8-1.5-2.9-3.5-3.5-5.9c-1.8-6.5-0.3-12.2,4.6-17.2
		C1030.2,329.5,1037.8,326.7,1048.2,326.1z M1062.4,359.9c-1.4,2-3.2,3.5-5.5,4.6c-0.4,0.3-1.6,1-3.5,2.1c-1.9,1.1-3.2,1.9-3.9,2.4
		c-0.7,0.5-1.8,1.4-3.4,2.6c-1.5,1.3-2.6,2.4-3.3,3.5c-0.6,1.1-1.2,2.5-1.8,4.2c-0.6,1.8-0.8,3.6-0.8,5.6c0,7.9,3.2,13.1,9.7,15.6
		c5.2,2,9.6,1.4,13.1-1.7c2.4-2,3.4-4.6,3-7.8L1062.4,359.9z"/>
	<path d="M1142.4,297.6c0.3-0.8,0.8-1.2,1.7-1.1c0.8,0.1,1.3,0.7,1.3,1.7v32.3h14.6c1.1,0,1.7,0.5,1.7,1.6s-0.6,1.6-1.7,1.6h-14.6
		v45.8c0,11,2.2,16.4,6.8,16.2c1.7,0,3.4-0.8,5.1-2.3c1.7-1.5,3-3.3,3.8-5.3c0.3-0.7,0.8-1.1,1.5-1.1c0.6,0,1,0.2,1.3,0.7
		c0.3,0.5,0.3,1,0,1.6c-2.4,5.5-5.9,10.1-10.5,13.9c-4.6,3.8-9.8,5.7-15.4,5.7c-7.3,0-12.8-2.3-16.5-6.9c-3.7-4.6-5.5-12.1-5.5-22.7
		l0.2-32.5c0-2.5,0-4.4,0-5.7c0-1.3-0.2-2.5-0.5-3.8c-0.4-1.3-0.6-2.1-0.8-2.4c-0.2-0.3-0.8-0.7-1.9-1.1c-1.1-0.3-2-0.5-2.8-0.5
		s-2.2,0-4.2,0c-1.3-0.3-1.9-0.8-1.9-1.7c0-0.8,0.6-1.3,1.7-1.5c5.9-1.3,13-5.4,21.4-12.3C1135.2,311,1140.4,304.3,1142.4,297.6z"/>
	<path d="M1206.1,326.6c0.4-0.4,1-0.5,1.6-0.3c0.6,0.2,0.9,0.7,0.9,1.6v57.8c0,4.2,0.3,7.6,1.1,10.2c0.7,2.6,1.9,4.6,3.5,6
		c1.6,1.4,3.8,2.3,6.4,2.7c1.1,0.1,1.7,0.6,1.7,1.5c0,1.1-0.5,1.7-1.5,1.7h-51.5c-1.1,0-1.7-0.6-1.7-1.7c0-0.8,0.6-1.3,1.7-1.5
		c4.4-0.6,7.3-2.2,8.8-5.1c1.5-2.8,2.2-7.5,2.2-13.9v-20.3c0-6.8-0.8-11.8-2.4-15.3c-1.6-3.4-4.3-5.5-7.9-6.2
		c-1.1-0.3-1.7-0.8-1.7-1.7c0-1,0.6-1.5,1.7-1.5c6-0.3,12.2-1.6,18.4-4c6.2-2.4,10.5-4.4,12.9-5.9
		C1202.6,329.2,1204.5,327.8,1206.1,326.6z M1191.5,281.2c4.2,0,8.1,1.6,11.7,4.7s5.4,7.3,5.4,12.3c0,4.8-1.7,8.9-5,12.2
		c-3.3,3.4-7.4,5.1-12.1,5.1c-4.1,0-7.9-1.6-11.6-4.9c-3.7-3.2-5.5-7.4-5.5-12.4c0-4.6,1.7-8.7,5-12
		C1182.7,282.9,1186.7,281.2,1191.5,281.2z"/>
	<path d="M1268.9,326.1c6,0,11.5,0.9,16.2,2.8c4.8,1.9,8.4,4.4,10.8,7.4c2.4,3,3.9,6.5,4.4,10.4c0.6,3.9-0.3,8-2.5,12.2
		c-1.3,2.4-3.1,4.2-5.6,5.4c-2.5,1.2-5,1.7-7.5,1.6c-2.5-0.1-4.9-0.9-7.1-2.4c-2.2-1.5-3.6-3.5-4.3-6c-0.7-2.4-0.6-4.4,0.2-6.1
		s1.9-3,3.3-3.8c1.3-0.8,2.6-2,3.9-3.4c1.3-1.4,1.9-2.9,1.9-4.4c-0.1-2.8-1.3-5.3-3.4-7.4c-2.1-2.1-4.9-3.2-8.4-3.2
		c-5.8,0-10.3,3.7-13.7,11c-3.4,7.3-4.3,16.1-2.7,26.4c1.3,8.7,4.6,15.9,10,21.4c5.4,5.6,11.4,8.3,18,8.1c4.6,0,8.8-1.3,12.6-4
		c3.7-2.7,6.5-6,8.3-9.9c0.3-1,0.9-1.4,2-1.2c1.1,0.2,1.4,0.9,1.2,2c-1.4,5.2-4.1,9.8-8.1,13.8c-4,4-8.8,7.1-14.2,9.2
		c-5.5,2.1-11.3,3.2-17.3,3.2c-10.7-0.1-20.2-3.6-28.6-10.2c-8.4-6.7-13-15.7-14-27.1c-1.1-12.9,2.1-23.8,9.8-32.6
		C1241.7,330.5,1253.3,326.1,1268.9,326.1z"/>
	<path d="M1349.5,326.1c3.4,0,6.7,0.2,10,0.6c3.3,0.4,5.4,0.7,6.3,0.9c0.9,0.2,2,0.2,3.3-0.1c1.4-1,2.2-1.5,2.5-1.5
		c1,0,1.5,0.5,1.7,1.5l2.1,23.2c0,1.1-0.5,1.7-1.5,1.7c-0.8,0.1-1.4-0.3-1.7-1.5c-2.1-9.1-5.6-15.3-10.5-18.6
		c-3.2-2.1-7.3-3.2-12.2-3.2c-4.5,0-7.6,1.7-9.3,5.1c-1.7,3.4-1.5,6.8,0.4,10.3c1.1,2.1,3.5,4.2,7.1,6.2c3.6,2,7.5,3.9,11.7,5.7
		c4.2,1.8,8.4,3.7,12.4,5.8c4.1,2.1,7.5,4.7,10.2,7.9s4.1,6.8,4.1,10.9c0,8.3-3.6,15-10.8,20.2c-7.2,5.1-16.9,7.7-29.1,7.7
		c-10.5,0-18.7-2.6-24.4-7.8c-5.7-5.2-7.7-11-6-17.5c0.8-2.8,2.3-5,4.3-6.5c2-1.5,4.4-2.3,7.1-2.3c3.8,0,6.9,1.2,9.4,3.6
		c2.5,2.4,3.5,5.1,3.1,8.2c-0.4,2.3-1.8,4.3-4.1,6.2s-3.5,3.7-3.5,5.4c0.1,2,1.4,3.7,3.8,5.3c2.4,1.5,5.3,2.3,8.7,2.3
		c5.5,0,9.5-1.4,12.1-4.1c2.6-2.7,3.9-5.9,3.9-9.4c0-3-1-5.6-3.1-7.8c-2-2.2-4.6-4.1-7.7-5.5c-3.1-1.4-6.5-3-10.2-4.7
		c-3.7-1.8-7.2-3.5-10.4-5.3c-3.2-1.8-6-4.2-8.3-7.3c-2.3-3.1-3.7-6.7-4.1-10.8c-0.7-7.3,1.6-13.3,7-17.9
		C1329.1,328.5,1337.7,326.1,1349.5,326.1z"/>
	<path d="M799.8,454.5c8.3-2.2,17.6-3,27.9-2.3c4.1,0.3,8,0.7,11.7,1.4c3.7,0.6,6.5,1.2,8.4,1.7c1.9,0.5,3.7,0.9,5.3,1.2
		c1.6,0.3,2.8,0.3,3.6,0c0.8-0.3,1.4-1,2-2.1c0.3-0.8,0.8-1.2,1.7-1.1c0.8,0.1,1.3,0.7,1.3,1.7v27.2c0,1-0.5,1.5-1.5,1.7
		c-0.8,0-1.4-0.4-1.7-1.3c-1.5-5.6-3.6-10.3-6-14.1c-2.5-3.8-5.2-6.6-8.3-8.4c-3.1-1.8-6-3.1-8.9-3.8c-2.8-0.7-6-1.1-9.5-1.1
		c-5.1,0-10,1.3-14.8,3.8c-4.8,2.5-9.2,6.2-13.3,11.1c-4.1,4.9-7.4,11.3-9.8,19.4c-2.5,8.1-3.7,17.2-3.7,27.2
		c0,10.1,1.2,19.1,3.5,27.2c2.3,8.1,5.4,14.5,9.4,19.3c3.9,4.8,8.3,8.4,13,10.9c4.7,2.5,9.5,3.7,14.5,3.7c7.9-0.1,14.9-2.9,21.2-8.3
		c6.3-5.4,10.5-12.6,12.8-21.4c0.3-0.8,0.9-1.2,1.8-1.2c0.9,0.1,1.4,0.6,1.4,1.6v29.8c0,1-0.4,1.5-1.1,1.7c-0.7,0.1-1.3-0.2-1.9-1.1
		c-1-1.4-2.7-2.1-5.2-2.2c-2.5-0.1-5.2,0.2-8.2,0.9c-3,0.7-7.1,1.5-12.1,2.3c-5.1,0.8-9.9,1.3-14.6,1.3c-6.2-0.1-11.9-0.8-17.1-1.9
		c-13.9-3.4-25.2-10.9-33.9-22.5c-8.7-11.6-13-25-13-40.2c0-14.8,4.1-27.9,12.4-39.2C775.4,465.9,786.3,458.3,799.8,454.5z"/>
	<path d="M912.3,453.6c0.6-0.6,1.2-0.6,1.9-0.2c0.4,0.3,0.6,0.8,0.6,1.5v102.8c0,6.3,0.8,10.9,2.5,13.8c1.7,2.9,4.5,4.6,8.4,5.2
		c1.1,0.1,1.7,0.6,1.7,1.5c0,1.1-0.5,1.7-1.5,1.7h-51.5c-1.1,0-1.7-0.6-1.7-1.7c0-0.8,0.6-1.3,1.7-1.5c4.4-0.6,7.3-2.2,8.8-5.1
		c1.5-2.8,2.2-7.5,2.2-13.9v-65.2c0-6.8-0.8-11.8-2.4-15.3c-1.6-3.4-4.3-5.5-7.9-6.2c-1.3-0.3-1.9-0.8-1.9-1.7c0-1,0.6-1.5,1.9-1.5
		c6-0.3,12.2-1.6,18.4-3.9c6.2-2.3,10.5-4.3,12.9-5.9C908.7,456.3,910.7,454.9,912.3,453.6z"/>
	<path d="M965.8,498.1c1.1,0,1.7,0.6,1.7,1.7v51.5c0,7.5,1.1,13.6,3.2,18.4c2.1,4.8,5.6,7.2,10.3,7.2c4.5-0.1,8.1-3.1,10.8-8.9
		c2.7-5.8,4-12.1,4-19v-11.6c0-4.5-0.3-8.2-1-11.2c-0.6-3-1.7-5.3-3.3-7.1c-1.5-1.8-3.5-2.8-5.9-3.3c-1.3-0.3-1.9-0.8-1.9-1.7
		c0-1,0.6-1.5,1.7-1.5c4.8-0.1,9.5-0.9,14-2.2c4.6-1.3,8.5-2.9,11.9-4.7c3.4-1.8,5.8-3.3,7.4-4.3c1.5-1.1,2.8-2,3.8-2.8
		c0.3-0.3,0.6-0.4,1.1-0.4c1.1,0,1.7,0.6,1.7,1.7v53.8c0,5.2,0.4,9.4,1.3,12.7c1.1,3.9,3.1,6.2,5.9,6.8c0.3,0.1,0.9,0.2,1.8,0.1
		c0.9-0.1,1.4-0.1,1.6-0.1c0.8,0,1.4,0.4,1.6,1.2c0.2,0.8,0,1.4-0.7,1.8c-6.2,3.4-12.3,5.1-18.4,5.1c-10.1,0-17-3.2-20.7-9.5
		c-4.8,6.5-13.4,9.6-25.7,9.5c-10,0-18.1-2.6-24.5-7.8c-6.3-5.2-9.5-12.5-9.5-21.9v-13.9c0-6.8-0.8-11.8-2.3-15.3
		c-1.5-3.4-4.2-5.5-7.8-6.2c-1.3-0.3-1.9-0.8-1.9-1.7c0-1,0.6-1.5,1.7-1.5c6.2-0.3,12.4-1.6,18.6-4c6.2-2.4,10.4-4.4,12.8-5.9
		c2.3-1.5,4.3-3,5.8-4.2C965.1,498.3,965.4,498.1,965.8,498.1z"/>
	<path d="M1074.7,453.6c0.6-0.6,1.2-0.6,1.9-0.2c0.6,0.3,0.8,0.8,0.8,1.5v50.9c6.2-4.6,12.8-7.1,19.8-7.4c7-0.3,13.4,1.2,19,4.5
		c5.6,3.3,10.4,8.1,14.2,14.2c3.9,6.2,5.9,12.9,6,20.3c0.3,11.7-2.9,21.7-9.6,30.2c-6.7,8.4-15.2,13-25.4,13.7
		c-10.8,0.7-20.3-3.2-28.3-11.8l-23,10.1c-1.5,0.6-2.3,0.1-2.3-1.5v-85.7c0-6.8-0.8-11.8-2.3-15.3c-1.5-3.4-4.2-5.5-8-6.2
		c-1.1,0-1.7-0.6-1.7-1.7c0-1,0.6-1.5,1.7-1.5c4.6-0.1,9.3-0.9,13.9-2.2c4.6-1.3,8.7-2.9,12-4.7c3.4-1.8,5.8-3.3,7.4-4.3
		C1072.5,455.4,1073.7,454.5,1074.7,453.6z M1086.1,504.9c-2.5,0-4.6,1.3-6.1,3.8c-3.9,6.3-3.6,18.4,1.1,36.3
		c3,10.6,6.5,18.9,10.7,25.1c4.1,6.2,8.3,8.7,12.3,7.6c3.9-1,6.1-5.6,6.4-13.8c0.3-8.2-0.8-16.8-3.5-25.8
		c-1.7-6.5-3.7-12.2-5.9-17.1c-2.3-4.9-4.7-8.8-7.3-11.7C1091.2,506.3,1088.6,504.9,1086.1,504.9z"/>
</g>
<g>
	<path d="M917.6,211.5c0,0.5,0,0.8-0.1,1.2c-0.1,0.3-0.1,0.6-0.3,0.8c-0.1,0.2-0.3,0.4-0.4,0.4c-0.2,0.1-0.4,0.1-0.6,0.1H902v40.1
		c0,0.2-0.1,0.4-0.2,0.5c-0.1,0.1-0.3,0.3-0.5,0.3c-0.3,0.1-0.6,0.2-1,0.2c-0.4,0.1-1,0.1-1.6,0.1c-0.6,0-1.2,0-1.6-0.1
		c-0.4-0.1-0.8-0.1-1.1-0.2c-0.3-0.1-0.4-0.2-0.5-0.3s-0.2-0.3-0.2-0.5v-40.1h-14.2c-0.2,0-0.4,0-0.6-0.1c-0.2-0.1-0.3-0.2-0.4-0.4
		c-0.1-0.2-0.2-0.5-0.3-0.8c-0.1-0.3-0.1-0.7-0.1-1.2c0-0.5,0-0.9,0.1-1.2c0.1-0.3,0.1-0.6,0.3-0.8s0.2-0.4,0.4-0.5
		c0.2-0.1,0.4-0.1,0.6-0.1h35.2c0.2,0,0.4,0,0.6,0.1c0.2,0.1,0.3,0.3,0.4,0.5s0.2,0.5,0.3,0.8C917.6,210.6,917.6,211,917.6,211.5z"
		/>
	<path d="M964.5,254.2c0,0.2-0.1,0.4-0.2,0.5c-0.1,0.1-0.3,0.3-0.5,0.3c-0.3,0.1-0.6,0.2-1,0.2c-0.4,0.1-1,0.1-1.6,0.1
		c-0.7,0-1.2,0-1.6-0.1c-0.4-0.1-0.8-0.1-1-0.2c-0.3-0.1-0.4-0.2-0.5-0.3s-0.2-0.3-0.2-0.5v-20.5h-23v20.5c0,0.2-0.1,0.4-0.2,0.5
		c-0.1,0.1-0.3,0.3-0.5,0.3c-0.3,0.1-0.6,0.2-1,0.2c-0.4,0.1-1,0.1-1.6,0.1c-0.6,0-1.2,0-1.6-0.1c-0.4-0.1-0.8-0.1-1.1-0.2
		c-0.3-0.1-0.4-0.2-0.5-0.3c-0.1-0.1-0.2-0.3-0.2-0.5v-44.4c0-0.2,0.1-0.4,0.2-0.5c0.1-0.1,0.3-0.3,0.5-0.3s0.6-0.2,1.1-0.2
		c0.4-0.1,1-0.1,1.6-0.1c0.7,0,1.2,0,1.6,0.1s0.8,0.1,1,0.2c0.3,0.1,0.4,0.2,0.5,0.3c0.1,0.1,0.2,0.3,0.2,0.5v18.5h23v-18.5
		c0-0.2,0.1-0.4,0.2-0.5s0.3-0.3,0.5-0.3c0.3-0.1,0.6-0.2,1-0.2s1-0.1,1.6-0.1c0.6,0,1.2,0,1.6,0.1s0.8,0.1,1,0.2
		c0.3,0.1,0.4,0.2,0.5,0.3c0.1,0.1,0.2,0.3,0.2,0.5V254.2z"/>
	<path d="M1009.3,252.5c0,0.4,0,0.8-0.1,1.1c-0.1,0.3-0.1,0.6-0.3,0.8c-0.1,0.2-0.3,0.4-0.5,0.5c-0.2,0.1-0.4,0.1-0.6,0.1h-24.3
		c-0.6,0-1.2-0.2-1.7-0.6c-0.5-0.4-0.8-1-0.8-1.9v-41.2c0-0.9,0.3-1.6,0.8-1.9c0.5-0.4,1.1-0.6,1.7-0.6h24c0.2,0,0.4,0,0.6,0.1
		c0.2,0.1,0.3,0.3,0.4,0.5s0.2,0.5,0.3,0.8c0.1,0.3,0.1,0.7,0.1,1.2c0,0.4,0,0.8-0.1,1.1c-0.1,0.3-0.2,0.6-0.3,0.8
		c-0.1,0.2-0.2,0.4-0.4,0.4c-0.2,0.1-0.4,0.1-0.6,0.1h-19.8v14.5h17c0.2,0,0.4,0.1,0.6,0.2c0.2,0.1,0.3,0.3,0.4,0.4
		c0.1,0.2,0.2,0.5,0.3,0.8c0.1,0.3,0.1,0.7,0.1,1.2c0,0.4,0,0.8-0.1,1.1c-0.1,0.3-0.1,0.6-0.3,0.8c-0.1,0.2-0.3,0.3-0.4,0.4
		s-0.4,0.1-0.6,0.1h-17V250h20.1c0.2,0,0.4,0,0.6,0.1c0.2,0.1,0.3,0.2,0.5,0.4c0.1,0.2,0.2,0.5,0.3,0.8
		C1009.3,251.7,1009.3,252.1,1009.3,252.5z"/>
</g>
<g>
	<path d="M780.3,691c0,0.1,0,0.3-0.1,0.4c-0.1,0.1-0.2,0.2-0.4,0.3c-0.2,0.1-0.4,0.1-0.7,0.2c-0.3,0-0.6,0.1-1.1,0.1
		c-0.4,0-0.8,0-1-0.1c-0.3,0-0.5-0.1-0.7-0.2c-0.2-0.1-0.3-0.2-0.4-0.3c-0.1-0.1-0.1-0.2-0.1-0.4v-41c0-0.1,0-0.2,0.1-0.4
		c0.1-0.1,0.2-0.2,0.4-0.3s0.4-0.1,0.7-0.2c0.3,0,0.6-0.1,1-0.1c0.4,0,0.8,0,1.1,0.1c0.3,0,0.5,0.1,0.7,0.2c0.2,0.1,0.3,0.2,0.4,0.3
		c0.1,0.1,0.1,0.2,0.1,0.4V691z"/>
	<path d="M800.4,691c0,0.1,0,0.3-0.1,0.4c-0.1,0.1-0.2,0.2-0.4,0.3c-0.2,0.1-0.4,0.1-0.7,0.2c-0.3,0-0.6,0.1-1.1,0.1
		c-0.4,0-0.8,0-1-0.1c-0.3,0-0.5-0.1-0.7-0.2c-0.2-0.1-0.3-0.2-0.4-0.3c-0.1-0.1-0.1-0.2-0.1-0.4v-41c0-0.1,0-0.2,0.1-0.4
		c0.1-0.1,0.2-0.2,0.4-0.3s0.4-0.1,0.7-0.2c0.3,0,0.6-0.1,1-0.1c0.4,0,0.8,0,1.1,0.1c0.3,0,0.5,0.1,0.7,0.2c0.2,0.1,0.3,0.2,0.4,0.3
		c0.1,0.1,0.1,0.2,0.1,0.4V691z"/>
	<path d="M844.2,651.1c0,0.3,0,0.5-0.1,0.8c0,0.2-0.1,0.4-0.2,0.5c-0.1,0.1-0.2,0.3-0.4,0.3c-0.1,0.1-0.3,0.1-0.5,0.1h-13.8V691
		c0,0.1,0,0.3-0.1,0.4s-0.2,0.2-0.4,0.3c-0.2,0.1-0.4,0.1-0.7,0.2c-0.3,0-0.6,0.1-1,0.1c-0.4,0-0.8,0-1-0.1c-0.3,0-0.5-0.1-0.7-0.2
		c-0.2-0.1-0.3-0.2-0.4-0.3c-0.1-0.1-0.1-0.2-0.1-0.4v-38.1h-13.8c-0.2,0-0.4,0-0.5-0.1c-0.1-0.1-0.2-0.2-0.3-0.3
		c-0.1-0.1-0.2-0.3-0.2-0.5c0-0.2-0.1-0.5-0.1-0.8c0-0.3,0-0.6,0.1-0.8c0-0.2,0.1-0.4,0.2-0.6c0.1-0.2,0.2-0.3,0.3-0.3
		c0.1-0.1,0.3-0.1,0.5-0.1h32c0.2,0,0.3,0,0.5,0.1c0.1,0.1,0.3,0.2,0.4,0.3c0.1,0.2,0.2,0.3,0.2,0.6
		C844.2,650.6,844.2,650.8,844.2,651.1z"/>
	<path d="M900.7,690.9c0,0.2,0,0.3-0.1,0.4c0,0.1-0.2,0.2-0.3,0.3s-0.4,0.1-0.7,0.2c-0.3,0-0.7,0.1-1.1,0.1c-0.4,0-0.9,0-1.3-0.1
		c-0.4,0-0.8-0.1-1-0.3c-0.2-0.1-0.4-0.3-0.6-0.5l-18.7-21.7V691c0,0.1,0,0.3-0.1,0.4c-0.1,0.1-0.2,0.2-0.4,0.3
		c-0.2,0.1-0.4,0.1-0.7,0.2c-0.3,0-0.6,0.1-1.1,0.1c-0.4,0-0.8,0-1-0.1c-0.3,0-0.5-0.1-0.7-0.2c-0.2-0.1-0.3-0.2-0.4-0.3
		c-0.1-0.1-0.1-0.2-0.1-0.4v-41c0-0.1,0-0.2,0.1-0.4c0.1-0.1,0.2-0.2,0.4-0.3s0.4-0.1,0.7-0.2c0.3,0,0.6-0.1,1-0.1
		c0.4,0,0.8,0,1.1,0.1c0.3,0,0.5,0.1,0.7,0.2s0.3,0.2,0.4,0.3c0.1,0.1,0.1,0.2,0.1,0.4v19.2l17.9-19.2c0.1-0.2,0.3-0.3,0.5-0.4
		c0.2-0.1,0.4-0.2,0.6-0.3s0.5-0.1,0.8-0.1c0.3,0,0.6,0,1.1,0c0.4,0,0.8,0,1,0.1c0.3,0,0.5,0.1,0.6,0.2s0.3,0.2,0.3,0.3
		c0,0.1,0.1,0.2,0.1,0.3c0,0.2-0.1,0.5-0.2,0.7c-0.1,0.2-0.4,0.5-0.7,0.8L882,669.1l18,20.6c0.3,0.4,0.5,0.7,0.6,0.8
		C900.7,690.7,900.7,690.8,900.7,690.9z"/>
	<path d="M944.5,690.3c0.1,0.3,0.2,0.6,0.2,0.8c0,0.2-0.1,0.4-0.2,0.5c-0.2,0.1-0.4,0.2-0.7,0.2c-0.3,0-0.7,0-1.2,0s-0.9,0-1.2,0
		c-0.3,0-0.5-0.1-0.7-0.1s-0.3-0.2-0.4-0.3c-0.1-0.1-0.2-0.2-0.2-0.4l-4.4-11.3h-20.3l-4.3,11.2c0,0.2-0.1,0.3-0.2,0.4
		c-0.1,0.1-0.2,0.2-0.4,0.3c-0.2,0.1-0.4,0.1-0.7,0.2c-0.3,0-0.7,0.1-1.1,0.1c-0.5,0-0.9,0-1.3-0.1c-0.3,0-0.6-0.1-0.7-0.2
		c-0.2-0.1-0.2-0.3-0.2-0.5c0-0.2,0.1-0.5,0.2-0.8l16.2-40.3c0.1-0.2,0.2-0.3,0.3-0.4c0.1-0.1,0.3-0.2,0.6-0.3
		c0.2-0.1,0.5-0.1,0.8-0.1c0.3,0,0.7,0,1.1,0c0.4,0,0.8,0,1.1,0c0.3,0,0.6,0.1,0.8,0.1s0.4,0.2,0.5,0.3c0.1,0.1,0.2,0.3,0.3,0.4
		L944.5,690.3z M925.3,653.6L925.3,653.6l-8.8,22.8h17.7L925.3,653.6z"/>
	<path d="M988.4,689.7c0,0.4-0.1,0.7-0.2,1s-0.3,0.5-0.5,0.6c-0.2,0.2-0.4,0.3-0.7,0.3c-0.2,0.1-0.5,0.1-0.7,0.1h-0.9
		c-0.5,0-0.9-0.1-1.3-0.2c-0.4-0.1-0.8-0.3-1.1-0.6c-0.4-0.3-0.7-0.6-1.1-1.1c-0.4-0.5-0.8-1-1.2-1.8l-16.3-26.4
		c-0.8-1.3-1.6-2.6-2.5-4c-0.8-1.4-1.6-2.7-2.3-4h0c0,1.6,0,3.2,0,4.9s0,3.3,0,4.9V691c0,0.1,0,0.3-0.1,0.4
		c-0.1,0.1-0.2,0.2-0.4,0.3c-0.2,0.1-0.4,0.1-0.7,0.2c-0.3,0-0.6,0.1-1.1,0.1c-0.4,0-0.8,0-1-0.1c-0.3,0-0.5-0.1-0.7-0.2
		c-0.2-0.1-0.3-0.2-0.4-0.3c-0.1-0.1-0.1-0.2-0.1-0.4v-39.6c0-0.8,0.2-1.3,0.7-1.6c0.5-0.3,0.9-0.4,1.3-0.4h1.8c0.6,0,1,0,1.4,0.1
		c0.4,0.1,0.7,0.2,1,0.4c0.3,0.2,0.6,0.5,0.9,0.9c0.3,0.4,0.6,0.9,1,1.5l12.5,20.2c0.8,1.3,1.5,2.5,2.2,3.6c0.7,1.2,1.4,2.3,2.1,3.4
		c0.7,1.1,1.3,2.2,2,3.3c0.7,1.1,1.3,2.2,1.9,3.3h0c0-1.8,0-3.7,0-5.7c0-2,0-3.9,0-5.7v-24.6c0-0.1,0-0.2,0.1-0.4
		c0.1-0.1,0.2-0.2,0.4-0.3c0.2-0.1,0.4-0.1,0.7-0.2c0.3,0,0.6,0,1.1,0c0.4,0,0.7,0,1,0c0.3,0,0.5,0.1,0.7,0.2
		c0.2,0.1,0.3,0.2,0.4,0.3c0.1,0.1,0.1,0.2,0.1,0.4V689.7z"/>
	<path d="M1030.8,661.4c0,2-0.4,3.8-1.1,5.4c-0.7,1.6-1.8,3-3.1,4.2c-1.4,1.2-3,2.1-5,2.7c-2,0.7-4.3,1-7.1,1h-6V691
		c0,0.1,0,0.3-0.1,0.4c-0.1,0.1-0.2,0.2-0.4,0.3c-0.2,0.1-0.4,0.1-0.7,0.2c-0.3,0-0.6,0.1-1.1,0.1c-0.4,0-0.8,0-1-0.1
		c-0.3,0-0.5-0.1-0.7-0.2c-0.2-0.1-0.3-0.2-0.4-0.3c-0.1-0.1-0.1-0.2-0.1-0.4v-39.6c0-0.8,0.2-1.3,0.7-1.6c0.5-0.3,0.9-0.4,1.3-0.4
		h9.4c0.9,0,1.8,0,2.7,0.1s1.9,0.2,3.1,0.5s2.4,0.7,3.6,1.4s2.3,1.5,3.1,2.5c0.9,1,1.5,2.1,2,3.4
		C1030.5,658.5,1030.8,659.9,1030.8,661.4z M1026.1,661.8c0-1.8-0.4-3.4-1.2-4.7s-1.7-2.2-2.9-2.8s-2.3-1-3.5-1.2
		c-1.2-0.2-2.4-0.2-3.5-0.2h-6.6v18.4h6.3c2,0,3.7-0.2,5.1-0.7s2.5-1.1,3.4-1.9c0.9-0.8,1.6-1.8,2.1-3
		C1025.9,664.4,1026.1,663.2,1026.1,661.8z"/>
	<path d="M1076.7,676c0,2.6-0.4,4.9-1.2,6.9s-1.9,3.7-3.4,5.1c-1.5,1.4-3.3,2.4-5.4,3.1c-2.1,0.7-4.4,1.1-7,1.1
		c-2.4,0-4.5-0.3-6.5-1c-2-0.7-3.7-1.7-5.2-3c-1.4-1.3-2.6-3-3.4-4.9s-1.2-4.2-1.2-6.8V650c0-0.1,0-0.2,0.1-0.4s0.2-0.2,0.4-0.3
		c0.2-0.1,0.4-0.1,0.7-0.2c0.3,0,0.6-0.1,1-0.1c0.4,0,0.8,0,1,0.1c0.3,0,0.5,0.1,0.7,0.2s0.3,0.2,0.4,0.3c0.1,0.1,0.1,0.2,0.1,0.4
		v25.9c0,2.1,0.3,4,0.8,5.6c0.6,1.6,1.4,2.9,2.4,4c1.1,1.1,2.3,1.9,3.9,2.4c1.5,0.5,3.2,0.8,5.1,0.8c1.9,0,3.7-0.3,5.2-0.8
		c1.5-0.5,2.8-1.3,3.8-2.3c1-1,1.9-2.3,2.4-3.9c0.6-1.6,0.8-3.4,0.8-5.5V650c0-0.1,0-0.2,0.1-0.4s0.2-0.2,0.4-0.3s0.4-0.1,0.7-0.2
		c0.3,0,0.6-0.1,1-0.1c0.4,0,0.8,0,1,0.1c0.3,0,0.5,0.1,0.7,0.2s0.3,0.2,0.4,0.3c0.1,0.1,0.1,0.2,0.1,0.4V676z"/>
	<path d="M1121.3,690.9c0,0.2,0,0.3-0.1,0.4c-0.1,0.1-0.2,0.2-0.3,0.3c-0.2,0.1-0.4,0.1-0.7,0.2c-0.3,0-0.7,0.1-1.1,0.1
		c-0.4,0-0.7,0-1,0c-0.3,0-0.5-0.1-0.7-0.2c-0.2-0.1-0.3-0.2-0.5-0.4c-0.1-0.2-0.2-0.4-0.3-0.6l-4.3-10.3c-0.5-1.2-1-2.2-1.6-3.3
		c-0.6-1-1.3-1.9-2.1-2.7c-0.8-0.8-1.8-1.3-2.9-1.8c-1.1-0.4-2.5-0.7-4.1-0.7h-4.8V691c0,0.1,0,0.3-0.1,0.4
		c-0.1,0.1-0.2,0.2-0.4,0.3c-0.2,0.1-0.4,0.1-0.7,0.2c-0.3,0-0.6,0.1-1.1,0.1c-0.4,0-0.8,0-1-0.1c-0.3,0-0.5-0.1-0.7-0.2
		c-0.2-0.1-0.3-0.2-0.4-0.3c-0.1-0.1-0.1-0.2-0.1-0.4v-39.6c0-0.8,0.2-1.3,0.7-1.6c0.5-0.3,0.9-0.4,1.3-0.4h8.7c1.1,0,2.1,0,2.8,0.1
		c0.8,0.1,1.4,0.1,2.1,0.2c1.8,0.3,3.3,0.7,4.6,1.4c1.3,0.6,2.4,1.4,3.3,2.3c0.9,0.9,1.5,2,1.9,3.1c0.4,1.2,0.6,2.4,0.6,3.8
		c0,1.4-0.2,2.6-0.6,3.7c-0.4,1.1-1,2.1-1.8,2.9c-0.8,0.8-1.7,1.6-2.8,2.2c-1.1,0.6-2.3,1.1-3.6,1.5c0.8,0.3,1.5,0.7,2.1,1.2
		c0.6,0.5,1.2,1.1,1.8,1.7c0.5,0.7,1,1.5,1.5,2.3c0.5,0.9,1,1.9,1.4,3l4.3,9.9c0.3,0.8,0.5,1.3,0.6,1.6
		C1121.2,690.6,1121.3,690.8,1121.3,690.9z M1113.6,660.6c0-1.8-0.4-3.3-1.3-4.6c-0.9-1.3-2.4-2.2-4.4-2.7c-0.7-0.2-1.4-0.3-2.3-0.4
		c-0.8-0.1-1.9-0.1-3.2-0.1h-5.7v15.5h6.7c1.8,0,3.3-0.2,4.6-0.6s2.4-1,3.2-1.7c0.8-0.7,1.5-1.5,1.9-2.5S1113.6,661.7,1113.6,660.6z
		"/>
</g>
</svg>
