<?xml version="1.0" encoding="utf-8"?>
<!-- Generator: Adobe Illustrator 24.3.0, SVG Export Plug-In . SVG Version: 6.00 Build 0)  -->
<svg version="1.1" id="Layer_1" xmlns="http://www.w3.org/2000/svg" xmlns:xlink="http://www.w3.org/1999/xlink" x="0px" y="0px"
	 viewBox="0 0 1895.9 812" style="enable-background:new 0 0 1895.9 812;" xml:space="preserve">
<style type="text/css">
	.st0{fill:#B7D433;}
</style>
<path class="st0" d="M133.9,298.2c-2.2,1.5-10.7,7.3-12.4,16.6c-1.4,8.1,3.4,10.5,1.7,19.9c-1.1,6-4.2,10.5-8.1,16.2
	c-4.9,7.2-6.5,6.8-9.4,11.8c-5,8.5-4.8,17.1-4.7,22.3c0.1,3.9,0.4,13.5,6.1,23c2.6,4.3,6.4,8.9,7.9,10.6c3.7,4.4,5.6,6.6,7.1,8
	c1.5,1.3,3.3,2.7,5,5.4c0.5,0.7,1.4,2.2,1.9,4c0.4,1.4,0.9,4.3-2.3,12.1c-0.4,1-1.5,3.4-4.9,9.6c-2.9,5.3-4.4,7.9-5.4,9.3
	c-4.2,5.7-9.3,8.6-13.3,10.9c-5.4,3.2-10.8,5-15.3,6.2c-0.9,0.2-1.7,0.7-2.2,1.5c-0.5,0.7-0.8,1.3-1.2,2c-4.6,9-0.4,18.9,1.3,22.3
	c0.1,0.1,0.1,0.2,0.2,0.3c8.1,13,13.8,15.6,17.6,15.3c1.1-0.1,2.1-0.4,3.8-0.2c6.2,0.6,10.3,6,11.6,7.7
	c8.1,10.2,25.8,21.2,34.3,25.1c11.5,5.3,22,4.9,35.6,4.4c14.3-0.5,15.3-3.1,40.9-7.2c16.5-2.6,24.9-4,37.1-3.9
	c10.6,0.1,14.2,1.2,32.1,2.2c10.1,0.6,18.6,0.7,24.6,0.8c1.1,0,2.2,0.5,2.8,1.4c2.6,3.3,6.4,7.1,12.1,9.5c6.5,2.7,11,1.7,29.3-0.8
	c24.7-3.4,26.6-2.8,42.1-5.8c4.6-0.9,9.8-3.8,17.7-3.7c5.8,0,6.9,1.3,15,2.2c7.7,0.9,13.6,0.6,21.4,0.2c11.2-0.6,10.6-1.5,21-2.1
	c12.9-0.8,12.1,0.7,26.5-0.1c11.2-0.6,13.7-1.5,20-0.2c6.2,1.3,6.7,2.9,13.3,3.7c4,0.5,8,0.4,16,0c6-0.3,6.7-0.5,10.2-0.6
	c8.7-0.3,15.1,0.6,18.7,1.1c17.5,2.1,19.8-1.3,41.1,0.6c15.5,1.4,18.2,3.5,30,2.7c5.6-0.4,8.3-1.1,16.3-1.4
	c11.1-0.4,12.8,0.6,20.9,0.5c16.3-0.3,18.5-4.7,31-4.3c10,0.4,16.7,3.4,21.4,5.2c12,4.4,31.2,7.7,63.1,2c1-0.2,1.8-0.7,2.4-1.5
	c0.4-0.6,1-1.2,1.9-1.7c1.2-0.7,2.4-0.7,2.9-0.8c11.5-0.6,20.4-3.7,34.7,0.3c4,1.1,3.3,1.4,7.4,2.6c3.9,1.2,14.8,4,39.3,0.8
	c4.5-0.6,21.2-3,34-2.7c2.7,0.1,7.3,0.3,9.7,3.2c2.4,2.8,1.3,6.4,3.4,7.3c2,0.9,4.6-1.6,7-3c2.8-1.8,6.8-3.1,21.9-2
	c14.1,1.1,17.7,2.7,27.2,3.6c6.2,0.6,15.1,0.9,26.3-0.8c1-0.1,1.8-0.7,2.4-1.4l0.8-1.1c0.7-1,2-1.6,3.3-1.5c6.3,0.5,15.5,1,26.4,0.7
	c16.1-0.4,22.1-2.2,32.8-2c8.4,0.2,20.6,1.7,35.4,7.9c1.2,0.5,2.6,0.4,3.7-0.4c0.8-0.6,1.8-1.3,3-1.9c2.1-1.2,5.8-3.3,10.7-4
	c1.3-0.2,10.6-1.3,17.6,4.6c0.7,0.6,1.2,1.1,1.7,1.6c0.8,0.9,1.9,1.3,3.1,1.2c3.3-0.4,7.8-0.8,13.1-1c16.7-0.6,26.2,1.5,38,2.7
	c28.6,3,26.2-3.9,52.3-0.9c0,0,22.1,2.5,35.8-1.8c4.2-1.3,4.3-1.4,4.3-1.4c4.8-1.6,5.3-1.8,6.2-2c4.5-0.6,8.7,4.2,10.1,5.5
	c7.5,7.4,24.4,4.8,45.5,3.3c10.5-0.7,25.8-1.5,45.2-1.1c13.4-0.4,24.3-0.3,32-0.2c14.3,0.4,21.6,1.1,34.5,0c7.4-0.6,7.1-1.1,16.9-2
	c6.7-0.6,16.7-1.5,28.9-1.4c8.1,0.1,18.7,0.7,31.1,2.6c0.5,0.1,1,0.1,1.4-0.1c3.6-0.9,7.5-1.6,11.6-2.3c15.8-2.4,29.9-1.8,41.2-0.2
	c0.1,0,0.2,0,0.3,0c8.8,0.4,17.7,0.8,26.5,1.2c1.5,0.1,3-0.8,3.5-2.1c0.2-0.6,0.6-1.2,1-1.9c3.7-5.4,12.5-5.6,20.9-5.6
	c8.9,0,20.4,0.3,34,1.4c1.2,0.1,2.3-0.4,3.1-1.2c1-1.2,2.5-2.5,4.4-3.6c5.5-3.2,10.7-1.9,14.9-2.4c9.7-1.2,15.3-12.4,18.5-17.5
	c5.7-9.2,17.6-21.3,44.8-33.1c1.1-0.5,1.9-1.4,2.1-2.5c1.1-6.3,1.9-13.9,1.6-22.4c-0.2-4.8-0.6-9.2-1.3-13.2c-0.1-0.7-0.4-1.3-1-1.8
	c-1.2-1.2-2.5-2.8-3.4-5c-1.9-4.9-0.3-9.1,1.1-14.3c0,0,1.2-4.6,1.4-37.7c0-0.4,0-1.2-0.5-2.1c-1.2-2.2-4.2-2.8-5-3
	c-5.4-1.5-9.1-14.5-10.1-23.7c-1.2-11.9,1.6-21.8,4.3-28.3c0.1-0.3,0.2-0.6,0.2-1c0.8-9.3,0.8-17.1,0.6-22.9
	c-0.4-13.9-1.9-17.1-4.3-19.3c-1.6-1.5-5.1-3.1-12-6.2c-3.5-1.6-5.3-2.4-7.4-2.9c-5.3-1.2-7.2,0.2-12.5-0.2c-7.2-0.4-7.2-3.3-13.7-4
	c-6.9-0.7-7.4,2.3-16.6,3c-8.6,0.7-10.2-1.8-17.7-0.9c-7.1,0.9-10.5,3.6-14.7,5.3c-13,5.2-27.4-2.3-37.7-6.2
	c-10.3-3.9-27-4.7-60.4-6.2c-20.4-0.9-77-2.1-103.9,2.7c-4.3,0.8-11.4,2.3-20.1,0.3c-7.4-1.7-9.4-4.5-17.6-6.2
	c-5.7-1.2-9.3-0.8-17.9-0.3c-9.2,0.5-18.4,0.4-27.6,0.9c-35.6,2.1-48.1-3.9-85.5-0.5c-22.5,2.1-24.1,4.8-36.4,3.3
	c-16.9-2-31.6-3.8-40-5.8c-0.7-0.2-2.8-0.7-5.4-0.5c-5.8,0.5-9.9,3.9-10.7,4.6c-7.9,6.2-34-0.1-44.3-2.1c-8.4-1.7-42.5-8.5-75.4,1.4
	c-11.6,3.5-17.6,7.4-30,7.1c-11.7-0.2-16.2-3.8-31-4.9c-12.4-0.9-13.1,1.4-26.7,1.5c-20.7,0.2-38.8-4.8-52.1-8.5
	c-13.7-3.8-19.4-6.7-29.7-5.5c-7.4,0.9-7.7,2.7-19.7,5.8c-5.2,1.3-17.8,4.5-33.2,4.3c-14.7-0.2-16.1-3.3-28-2c-9,1-10.6,3-20.5,4.9
	c-8.8,1.6-12.5,1-29.2,0.8c-25.4-0.3-26.8,1.2-50.3,0.5c-7.3-0.2-4.5-0.3-21.4-1.1c-33.3-1.5-38-1-49.7-2.4
	c-7.8-0.9-19-2.8-32.6-6.8c-1-0.3-2.1-0.2-3,0.4c-6.9,4-12.5,6-16,7.1c-5.5,1.6-7.8,1.4-9.4,0.9c-3-0.9-3.9-2.7-6.2-2.4
	c-1.6,0.2-1.9,1.1-6.1,4.3c-2.4,1.8-3.7,2.7-4.8,3c-4,1.1-8.1-1.7-8.8-2.1c-5.1-3.5-4.5-8-7.7-8.5c-2.3-0.4-3.3,1.8-8.5,4.6
	c0,0-2.8,1.5-8.8,3.3c-16.8,5.2-46.7-0.6-46.7-0.6c-11-2.1-25.9-5.9-42.8-12.8c-0.8-0.3-1.7-0.4-2.6-0.1c-1.7,0.5-4.4,1.4-7.6,2.5
	c-20.1,6.5-25.8,8.5-34,8.2c-3.7-0.1-2.4-0.5-8.3-1.1c-8.6-0.8-14-0.1-29.9,1.5c-18.4,1.9-21.2,2.2-25.6,2.3
	c-8,0.2-7.4-0.3-16.3-0.2c-2.8,0-16.3,0.2-34.4,2.7c-9,1.2-10.4,1.9-16.5,2.7c-18.4,2.7-32,0.9-43,0c-31.3-2.5-29.3,3.3-58.2,1.2
	C163.7,298.9,148.6,288.1,133.9,298.2z"/>
<g>
	<path d="M239.9,281.2H333l3.6,35c0,1.1-0.5,1.8-1.6,1.9c-1.1,0.1-1.6-0.3-1.6-1.5l-1.5-12c-1.8-13.5-8.9-20.3-21.3-20.3h-30.4v63.9
		h15.2c2.7,0,5.1-0.6,7.4-1.8c2.2-1.2,4-2.7,5.3-4.6c1.3-1.9,1.9-4,1.9-6.2v-2.7c0-1,0.5-1.5,1.6-1.5c1.1,0,1.6,0.5,1.6,1.5v33.5
		c0,1.1-0.5,1.7-1.6,1.7c-1.1,0-1.6-0.6-1.6-1.7v-2.7c0-3.2-1.4-6.1-4.3-8.5c-2.9-2.5-6.3-3.7-10.2-3.7h-15.2v53.2h24.9
		c6.6-0.1,12.7-2.5,18.1-7c5.5-4.5,8.7-11.1,9.5-19.8l0.6-5.3c0-1.1,0.5-1.6,1.6-1.5c1.1,0.1,1.6,0.7,1.6,1.7l-3.6,35h-93.1
		c-1.1,0-1.7-0.6-1.7-1.7c0-0.8,0.6-1.3,1.7-1.5c3-0.4,5.2-1.3,6.9-2.7c1.6-1.4,2.7-3.4,3.3-5.9c0.6-2.5,0.8-6,0.8-10.3v-82.3
		c0-6.5-0.7-11.1-2.2-13.9c-1.5-2.8-4.4-4.5-8.8-5.1c-1.1-0.1-1.7-0.6-1.7-1.5C238.2,281.8,238.8,281.2,239.9,281.2z"/>
	<path d="M388,325.9c0.3,0,0.6,0.1,0.8,0.2c0.4,0.3,0.6,0.8,0.6,1.5v7.8c5.1-6,12-9.1,20.9-9.1c20.5,0,32.4,9.8,35.4,29.5l3.4,29.8
		c0.8,6.2,2.2,10.7,4.2,13.6c2,2.9,5,4.7,9.1,5.4c1.3,0.1,1.9,0.6,1.9,1.5c0,1.1-0.6,1.7-1.7,1.7h-51.1c-1.3,0-1.9-0.6-1.9-1.7
		c0-0.8,0.6-1.3,1.9-1.5c4.1-0.7,6.6-2.4,7.7-5.2s1.2-7.3,0.5-13.8l-3.4-32.7c-0.8-6.3-2.5-11.6-5.1-15.7c-2.5-4.1-6.2-5.9-11-5.2
		c-2.4,0.3-4.3,1.1-5.8,2.5c-1.5,1.4-2.6,3.5-3.3,6.2c-0.7,2.7-1.2,5.7-1.5,8.9c-0.3,3.2-0.4,7.2-0.4,12.1v23.8
		c0,6.3,0.8,10.9,2.5,13.8c1.7,2.9,4.5,4.6,8.4,5.2c1.1,0.1,1.7,0.6,1.7,1.5c0,1.1-0.5,1.7-1.5,1.7h-51.5c-1.1,0-1.7-0.6-1.7-1.7
		c0-0.8,0.6-1.3,1.7-1.5c4.4-0.6,7.3-2.2,8.8-5.1c1.5-2.8,2.2-7.5,2.2-13.9v-20.3c0-7-0.6-12.1-1.9-15.3c-1.3-3.2-4.1-5.3-8.4-6.4
		c-1.1-0.3-1.7-0.8-1.7-1.7c0-1,0.6-1.5,1.7-1.7c6-0.1,12.2-1.4,18.4-3.8c6.2-2.4,10.5-4.4,12.9-5.9c2.4-1.5,4.4-3,5.9-4.2
		C387.3,326.1,387.6,325.9,388,325.9z"/>
	<path d="M532.6,309.3c4.9-4.6,10.4-7,16.5-7c3.2,0,6.1,0.8,8.5,2.4c2.5,1.6,4.1,3.8,5,6.6c1,3.1,1.1,5.9,0.3,8.3
		c-0.8,2.5-2.2,4.5-4.2,6.2c-2,1.7-4.3,2.6-6.6,2.7c-3.9,0.1-6.3-1.1-7.2-3.6c-0.3-1.1-0.3-2.6-0.1-4.4c0.2-1.8,0-3.2-0.7-4
		c-2.8-3.8-6.5-3.7-11.2,0.2c-3,2.4-4.8,5.3-5.5,8.7c7.9,2.3,14.3,6.3,19.2,12.2c4.9,5.9,7.4,12.6,7.4,20c0,9.3-3.7,17.2-11.1,23.8
		c-7.4,6.6-16.4,9.9-26.9,9.9c-7.5,0-14.2-1.7-20.3-5.1c-4.4,1.1-6.2,3.1-5.5,5.9c0.6,2.3,2.8,4.2,6.9,5.8c4,1.6,9.2,2.4,15.7,2.4
		c8.3,0,15.1,0.2,20.5,0.7c5.3,0.5,10.3,1.5,14.9,3c4.6,1.5,7.9,3.7,10,6.5c2.1,2.9,3.2,6.6,3.2,11.1c0,7-2.4,13-7.1,18
		c-4.7,5-10.7,8.6-17.8,10.9c-7.2,2.2-15.1,3.4-23.8,3.4c-3.1,0-6.2-0.1-9.2-0.3c-3-0.2-6.4-0.7-10.2-1.6c-3.8-0.8-7-1.9-9.7-3.3
		c-2.7-1.3-5-3.3-7-5.8c-2-2.5-3-5.5-3-8.9c0-6.3,4.1-10.7,12.4-13.1c-3.7-1-6.5-3.1-8.4-6.4c-2-3.3-2.9-6.9-2.7-10.8
		c0.1-3.9,1.7-7.7,4.7-11.5c3-3.8,7.3-6.5,12.8-8.2c-9.6-6.8-14.3-15.6-14.3-26.6c0-9.3,3.7-17.2,11.1-23.8
		c7.4-6.6,16.4-9.9,26.9-9.9c2.7,0,5.4,0.3,8.2,0.8c1-3.2,2-5.8,3-7.6C528.5,314.2,530.3,311.5,532.6,309.3z M497.3,424
		c-3.4,3-5.2,6.5-5.5,10.8c-0.3,4.2,1.4,8,5.1,11.3c3.7,3.3,8.9,5,15.8,5c9.6,0,17.3-3,23.2-9.1c4.6-4.8,5.6-8.9,3-12.2
		c-1.8-2.4-5.3-3.7-10.3-4C517,425.3,506.6,424.7,497.3,424z M510,328c-2.5,0-4.4,1.8-5.7,5.5c-2.1,5.6-1.5,14.6,1.9,26.8
		c2.4,8.6,5.2,15.4,8.5,20.5c3.3,5.1,6.6,7.2,9.8,6.3c3.2-1,5-4.6,5.4-10.8c0.3-6.2-0.6-13.4-2.8-21.5c-3.4-12.1-7.3-20.3-11.8-24.5
		C513.4,328.8,511.7,328,510,328z"/>
	<path d="M603.3,281.6c0.6-0.6,1.2-0.6,1.9-0.2c0.4,0.3,0.6,0.8,0.6,1.5v102.8c0,6.3,0.8,10.9,2.5,13.8c1.7,2.9,4.5,4.6,8.4,5.2
		c1.1,0.1,1.7,0.6,1.7,1.5c0,1.1-0.5,1.7-1.5,1.7h-51.5c-1.1,0-1.7-0.6-1.7-1.7c0-0.8,0.6-1.3,1.7-1.5c4.4-0.6,7.3-2.2,8.8-5.1
		c1.5-2.8,2.2-7.5,2.2-13.9v-65.2c0-6.8-0.8-11.8-2.4-15.3c-1.6-3.4-4.3-5.5-7.9-6.2c-1.3-0.3-1.9-0.8-1.9-1.7c0-1,0.6-1.5,1.9-1.5
		c6-0.3,12.2-1.6,18.4-3.9c6.2-2.3,10.5-4.3,12.9-5.9C599.7,284.3,601.7,282.9,603.3,281.6z"/>
	<path d="M669.1,326.6c0.4-0.4,0.9-0.5,1.6-0.3c0.6,0.2,0.9,0.7,0.9,1.6v57.8c0,4.2,0.3,7.6,1.1,10.2c0.7,2.6,1.9,4.6,3.5,6
		c1.6,1.4,3.8,2.3,6.4,2.7c1.1,0.1,1.7,0.6,1.7,1.5c0,1.1-0.5,1.7-1.5,1.7h-51.5c-1.1,0-1.7-0.6-1.7-1.7c0-0.8,0.6-1.3,1.7-1.5
		c4.4-0.6,7.3-2.2,8.8-5.1c1.5-2.8,2.2-7.5,2.2-13.9v-20.3c0-6.8-0.8-11.8-2.4-15.3c-1.6-3.4-4.3-5.5-7.9-6.2
		c-1.1-0.3-1.7-0.8-1.7-1.7c0-1,0.6-1.5,1.7-1.5c6-0.3,12.2-1.6,18.4-4c6.2-2.4,10.5-4.4,12.9-5.9
		C665.6,329.2,667.5,327.8,669.1,326.6z M654.5,281.2c4.2,0,8.1,1.6,11.7,4.7s5.4,7.3,5.4,12.3c0,4.8-1.7,8.9-5,12.2
		c-3.3,3.4-7.4,5.1-12.1,5.1c-4.1,0-7.9-1.6-11.6-4.9c-3.7-3.2-5.5-7.4-5.5-12.4c0-4.6,1.7-8.7,5-12
		C645.7,282.9,649.7,281.2,654.5,281.2z"/>
	<path d="M723.1,326.1c3.4,0,6.7,0.2,10,0.6c3.3,0.4,5.4,0.7,6.3,0.9c0.9,0.2,2,0.2,3.3-0.1c1.4-1,2.2-1.5,2.5-1.5
		c1,0,1.5,0.5,1.7,1.5l2.1,23.2c0,1.1-0.5,1.7-1.5,1.7c-0.8,0.1-1.4-0.3-1.7-1.5c-2.1-9.1-5.6-15.3-10.5-18.6
		c-3.2-2.1-7.3-3.2-12.2-3.2c-4.5,0-7.6,1.7-9.3,5.1c-1.7,3.4-1.5,6.8,0.4,10.3c1.1,2.1,3.5,4.2,7.1,6.2c3.6,2,7.5,3.9,11.7,5.7
		c4.2,1.8,8.4,3.7,12.4,5.8c4.1,2.1,7.5,4.7,10.2,7.9s4.1,6.8,4.1,10.9c0,8.3-3.6,15-10.8,20.2c-7.2,5.1-16.9,7.7-29.1,7.7
		c-10.5,0-18.7-2.6-24.4-7.8c-5.7-5.2-7.7-11-6-17.5c0.8-2.8,2.3-5,4.3-6.5c2-1.5,4.4-2.3,7.1-2.3c3.8,0,6.9,1.2,9.4,3.6
		c2.5,2.4,3.5,5.1,3.1,8.2c-0.4,2.3-1.8,4.3-4.1,6.2s-3.5,3.7-3.5,5.4c0.1,2,1.4,3.7,3.8,5.3c2.4,1.5,5.3,2.3,8.7,2.3
		c5.5,0,9.5-1.4,12.1-4.1c2.6-2.7,3.9-5.9,3.9-9.4c0-3-1-5.6-3.1-7.8c-2-2.2-4.6-4.1-7.7-5.5c-3.1-1.4-6.5-3-10.2-4.7
		c-3.7-1.8-7.2-3.5-10.4-5.3c-3.2-1.8-6-4.2-8.3-7.3c-2.3-3.1-3.7-6.7-4.1-10.8c-0.7-7.3,1.6-13.3,7-17.9
		C702.7,328.5,711.3,326.1,723.1,326.1z"/>
	<path d="M803.5,281.6c0.4-0.4,0.9-0.5,1.6-0.2c0.6,0.3,0.9,0.8,0.9,1.5v51.3c5.8-4.8,12.4-7.4,19.8-7.8
		c22.2-1.5,34.6,8.3,37.1,29.5l3.8,29.8c0.7,6.2,2.1,10.7,4.1,13.6c2,2.9,5,4.7,9,5.4c1.3,0.1,1.9,0.6,1.9,1.5
		c0.1,1.1-0.4,1.7-1.7,1.7H829c-1.3,0-1.9-0.6-1.9-1.7c0-0.8,0.6-1.3,1.9-1.5c4.1-0.7,6.7-2.4,7.8-5.2c1.1-2.7,1.3-7.3,0.4-13.8
		l-3.2-27.4c-1-9.4-3.2-16.4-6.8-21c-3.5-4.6-7.5-6.3-11.8-5.2c-1.8,0.6-3.4,1.4-4.6,2.6c-1.3,1.2-2.4,3.6-3.4,7.2
		c-1,3.6-1.5,8.3-1.5,14.2v29.5c0,6.2,0.8,10.7,2.5,13.6c1.7,2.9,4.5,4.7,8.4,5.4c1.1,0.1,1.7,0.6,1.7,1.5c0,1.1-0.6,1.7-1.9,1.7
		h-51.1c-1.1,0-1.7-0.6-1.7-1.7c0-0.8,0.6-1.3,1.9-1.5c4.2-0.6,7.1-2.2,8.5-5.1c1.5-2.8,2.2-7.5,2.2-13.9v-65.2
		c0-6.8-0.8-11.8-2.4-15.3c-1.6-3.4-4.3-5.5-8.1-6.2c-1,0-1.5-0.6-1.5-1.7c0-1,0.5-1.5,1.5-1.5c6.2-0.3,12.4-1.6,18.6-3.9
		c6.2-2.3,10.5-4.3,12.9-5.9C800,284.3,801.9,282.9,803.5,281.6z"/>
	<path d="M952.2,281.2h51.5c1,0,1.5,0.6,1.5,1.7c0,0.8-0.6,1.3-1.7,1.5c-2.7,0.4-4.8,1.3-6.4,2.7c-1.6,1.4-2.8,3.4-3.5,6
		c-0.7,2.6-1.1,6-1.1,10.2v101.3h31.9c6.6-0.1,12.7-2.5,18.1-7c5.5-4.5,8.7-11.1,9.5-19.8l0.6-5.3c0-1,0.5-1.5,1.5-1.5h0.2
		c1,0.1,1.4,0.7,1.3,1.7l-3.6,35h-99.8c-1.1,0-1.7-0.6-1.7-1.7c0-0.8,0.6-1.3,1.7-1.5c3-0.4,5.2-1.3,6.9-2.7
		c1.6-1.4,2.7-3.4,3.3-5.9c0.6-2.5,0.8-6,0.8-10.3v-82.3c0-6.5-0.7-11.1-2.2-13.9c-1.5-2.8-4.4-4.5-8.8-5.1
		c-1.1-0.1-1.7-0.6-1.7-1.5C950.6,281.8,951.1,281.2,952.2,281.2z"/>
	<path d="M1106.3,326.6c0.4-0.4,0.9-0.5,1.6-0.3c0.6,0.2,0.9,0.7,0.9,1.6v57.8c0,4.2,0.3,7.6,1.1,10.2c0.7,2.6,1.9,4.6,3.5,6
		c1.6,1.4,3.8,2.3,6.4,2.7c1.1,0.1,1.7,0.6,1.7,1.5c0,1.1-0.5,1.7-1.5,1.7h-51.5c-1.1,0-1.7-0.6-1.7-1.7c0-0.8,0.6-1.3,1.7-1.5
		c4.4-0.6,7.3-2.2,8.8-5.1c1.5-2.8,2.2-7.5,2.2-13.9v-20.3c0-6.8-0.8-11.8-2.4-15.3c-1.6-3.4-4.3-5.5-7.9-6.2
		c-1.1-0.3-1.7-0.8-1.7-1.7c0-1,0.6-1.5,1.7-1.5c6-0.3,12.2-1.6,18.4-4c6.2-2.4,10.5-4.4,12.9-5.9
		C1102.8,329.2,1104.7,327.8,1106.3,326.6z M1091.7,281.2c4.2,0,8.1,1.6,11.7,4.7s5.4,7.3,5.4,12.3c0,4.8-1.7,8.9-5,12.2
		c-3.3,3.4-7.4,5.1-12.1,5.1c-4.1,0-7.9-1.6-11.6-4.9c-3.7-3.2-5.5-7.4-5.5-12.4c0-4.6,1.7-8.7,5-12
		C1082.9,282.9,1086.9,281.2,1091.7,281.2z"/>
	<path d="M1158.6,297.6c0.3-0.8,0.8-1.2,1.7-1.1c0.8,0.1,1.3,0.7,1.3,1.7v32.3h14.6c1.1,0,1.7,0.5,1.7,1.6s-0.6,1.6-1.7,1.6h-14.6
		v45.8c0,11,2.2,16.4,6.8,16.2c1.7,0,3.4-0.8,5.1-2.3c1.7-1.5,3-3.3,3.8-5.3c0.3-0.7,0.8-1.1,1.5-1.1c0.6,0,1,0.2,1.3,0.7
		c0.3,0.5,0.3,1,0,1.6c-2.4,5.5-5.9,10.1-10.5,13.9c-4.6,3.8-9.8,5.7-15.4,5.7c-7.3,0-12.8-2.3-16.5-6.9c-3.7-4.6-5.5-12.1-5.5-22.7
		l0.2-32.5c0-2.5,0-4.4,0-5.7c0-1.3-0.2-2.5-0.5-3.8c-0.4-1.3-0.6-2.1-0.8-2.4c-0.2-0.3-0.8-0.7-1.9-1.1c-1.1-0.3-2-0.5-2.8-0.5
		s-2.2,0-4.2,0c-1.3-0.3-1.9-0.8-1.9-1.7c0-0.8,0.6-1.3,1.7-1.5c5.9-1.3,13-5.4,21.4-12.3C1151.5,311,1156.6,304.3,1158.6,297.6z"/>
	<path d="M1227.4,326.1c3.7,0,7.3,0.5,11,1.4c3.7,0.9,7.2,2.4,10.5,4.3c3.4,2,6.2,4.4,8.4,7.2c1.8,2.4,3.1,5.1,3.8,8
		c0.7,3,0.7,5.8,0.1,8.5c-0.6,2.7-2.2,5.1-4.6,7.2c-2.5,2-5.7,3.3-9.8,3.7L1216,370c1.4,6.8,4.2,12.2,8.4,16.5
		c4.2,4.2,8.8,6.8,13.6,7.8c4.9,1,9.6,0.6,14.3-1.2c4.7-1.8,8.3-4.8,10.9-9.2c0.1-0.1,0.2-0.3,0.2-0.4c1-2,2-2.7,3-2.3
		c0.7,0.4,1,1.1,0.8,1.9c-4.6,17.3-17.8,26-39.5,26c-6,0-11.8-1.1-17.3-3.3s-10.4-5.5-14.7-10c-4.3-4.5-7.3-9.8-9-15.8
		c-0.8-2.4-1.4-5.1-1.7-8c-0.6-6.3-0.2-12.2,1.2-17.5c1.3-5.3,3.6-10.2,6.9-14.5c3.2-4.3,7.7-7.7,13.5-10.1
		C1212.5,327.4,1219.4,326.1,1227.4,326.1z M1227.2,329.3c-3.7,0-6.7,2.2-9.1,6.6c-2.4,4.4-3.7,9.4-3.9,15
		c-0.2,5.6,0.2,10.9,1.2,16.1c7.9-1,14-3,18.4-6.1c4.4-3.1,6.3-7.8,5.7-14.1c-0.3-2.8-0.7-5.2-1.2-7.2c-0.5-2-1.2-3.8-2.1-5.5
		c-0.9-1.7-2.1-2.9-3.6-3.7C1231.1,329.7,1229.3,329.3,1227.2,329.3z"/>
	<path d="M1334.8,325.1c7.5,0,12.9,2.8,16.4,8.4c3.4,5.6,3.3,11.7-0.5,18.1c-1.7,2.7-4,4.5-7.1,5.6c-3,1.1-6,1.2-9,0.3
		c-4.9-1.4-7.4-4.3-7.4-8.7c0-2.2,1.2-4.2,3.7-5.9c2.5-1.7,3.7-3.4,3.7-5.1c0-2.5-0.8-4.6-2.5-6.1c-1.7-1.5-3.9-2.1-6.5-1.7
		c-4.6,1.4-7.7,4.5-9.3,9.2c-1.5,4.7-2.3,11.9-2.3,21.6v24.7c0,6.3,0.8,10.9,2.4,13.8c1.6,2.9,4.5,4.6,8.5,5.2
		c1.1,0.1,1.7,0.6,1.7,1.5c0,1.1-0.6,1.7-1.7,1.7h-51.3c-1.1,0-1.7-0.6-1.7-1.7c0-0.8,0.6-1.3,1.7-1.5c4.2-0.6,7.1-2.2,8.7-5.1
		c1.5-2.8,2.3-7.5,2.3-13.9v-20.3c0-6.8-0.8-11.8-2.4-15.3c-1.6-3.4-4.3-5.5-7.9-6.2c-1.3-0.3-1.9-0.8-1.9-1.7c0-1,0.6-1.5,1.9-1.5
		c6-0.3,12.2-1.6,18.4-4c6.2-2.4,10.4-4.4,12.8-5.9c2.3-1.5,4.3-3,5.8-4.2c0.6-0.4,1.2-0.5,1.8-0.3c0.6,0.2,1,0.7,1,1.6v6.3
		c4.2-4.1,8.6-6.8,13.1-8C1329.8,325.4,1332.4,325.1,1334.8,325.1z"/>
	<path d="M1396.2,326.1c25.5-1.3,39.9,8.7,43.3,29.8l3.2,27.2c1.8,11.1,5.2,17.1,10.1,17.9c0.1,0.1,0.7,0.2,1.6,0.1
		c0.9-0.1,1.5-0.1,1.8-0.1c0.8,0,1.3,0.4,1.5,1.2c0.1,0.8-0.1,1.4-0.8,1.8c-5.9,3.5-12.6,5.3-20,5.3c-10.5,0-17.6-3.5-21.1-10.5
		c-1.3,1.4-2.6,2.6-4.1,3.7c-1.5,1.1-3.2,2.1-5.2,3.1c-2,1-4.5,1.8-7.5,2.5c-3,0.7-6.3,1.1-9.8,1.1c-5.1,0-9.7-0.6-13.8-1.9
		c-4.2-1.3-7.7-3.5-10.6-6.8c-2.9-3.2-4.3-7.4-4.3-12.4c0-4.9,1.1-9,3.2-12.2c2.1-3.2,4.9-5.6,8.4-7c3.5-1.4,7.1-2.5,10.7-3.2
		c3.6-0.7,7.5-1.4,11.6-2c4.1-0.6,7.3-1.4,9.4-2.4c2.5-1.1,4.2-2.6,5-4.4c0.8-1.8,0.9-4.4,0.5-7.6c-0.3-3-0.9-5.8-1.8-8.4
		c-0.9-2.7-2.6-5.2-5-7.7c-2.4-2.5-5.2-3.7-8.4-3.7c-3.1,0-5.4,0.7-6.9,2.2c-1.5,1.5-2.2,3.3-2.2,5.4c0,1.4,0.5,2.7,1.4,3.8
		c0.9,1.1,1.9,2,3.1,2.7c1.1,0.7,2.1,1.8,2.8,3.4c0.8,1.5,1,3.3,0.6,5.3c-0.4,2-1.3,3.7-3,5.2c-1.6,1.5-3.4,2.4-5.5,2.8
		c-2,0.4-4.2,0.5-6.3,0.2c-2.2-0.3-4.2-1.2-5.9-2.7c-1.8-1.5-2.9-3.5-3.5-5.9c-1.8-6.5-0.3-12.2,4.6-17.2
		C1378.1,329.5,1385.8,326.7,1396.2,326.1z M1410.3,359.9c-1.4,2-3.2,3.5-5.5,4.6c-0.4,0.3-1.6,1-3.5,2.1c-1.9,1.1-3.2,1.9-3.9,2.4
		c-0.7,0.5-1.8,1.4-3.4,2.6c-1.5,1.3-2.6,2.4-3.3,3.5c-0.6,1.1-1.2,2.5-1.8,4.2c-0.6,1.8-0.8,3.6-0.8,5.6c0,7.9,3.2,13.1,9.7,15.6
		c5.2,2,9.6,1.4,13.1-1.7c2.4-2,3.4-4.6,3-7.8L1410.3,359.9z"/>
	<path d="M1529.3,325.1c7.5,0,12.9,2.8,16.4,8.4c3.4,5.6,3.3,11.7-0.5,18.1c-1.7,2.7-4,4.5-7.1,5.6c-3,1.1-6,1.2-9,0.3
		c-4.9-1.4-7.4-4.3-7.4-8.7c0-2.2,1.2-4.2,3.7-5.9c2.5-1.7,3.7-3.4,3.7-5.1c0-2.5-0.8-4.6-2.5-6.1c-1.7-1.5-3.9-2.1-6.5-1.7
		c-4.6,1.4-7.7,4.5-9.3,9.2c-1.5,4.7-2.3,11.9-2.3,21.6v24.7c0,6.3,0.8,10.9,2.4,13.8c1.6,2.9,4.5,4.6,8.5,5.2
		c1.1,0.1,1.7,0.6,1.7,1.5c0,1.1-0.6,1.7-1.7,1.7h-51.3c-1.1,0-1.7-0.6-1.7-1.7c0-0.8,0.6-1.3,1.7-1.5c4.2-0.6,7.1-2.2,8.7-5.1
		c1.5-2.8,2.3-7.5,2.3-13.9v-20.3c0-6.8-0.8-11.8-2.4-15.3c-1.6-3.4-4.3-5.5-7.9-6.2c-1.3-0.3-1.9-0.8-1.9-1.7c0-1,0.6-1.5,1.9-1.5
		c6-0.3,12.2-1.6,18.4-4c6.2-2.4,10.4-4.4,12.8-5.9c2.3-1.5,4.3-3,5.8-4.2c0.6-0.4,1.2-0.5,1.8-0.3c0.6,0.2,1,0.7,1,1.6v6.3
		c4.2-4.1,8.6-6.8,13.1-8C1524.3,325.4,1526.9,325.1,1529.3,325.1z"/>
	<path d="M1556.7,326.1h46.4c1.7,0,2.5,0.5,2.5,1.5c0,0.8-0.6,1.4-1.9,1.7c-1.8,0.6-3.1,1.5-3.9,2.7c-0.8,1.3-1,2.9-0.6,5
		c0.3,2,0.7,3.8,1.2,5.3c0.4,1.5,1.1,3.4,2.1,5.8l15.8,36.1l14.6-37.8c4.4-11.4,3.2-17.1-3.4-17.1c-1.1-0.1-1.7-0.7-1.7-1.7
		c0.1-1,0.7-1.5,1.7-1.5h26.2c1.1,0,1.7,0.5,1.7,1.5c0,1-0.6,1.5-1.7,1.7c-4.8,0.1-8.7,1.6-11.6,4.3s-5.8,7.6-8.4,14.7l-30.8,79.8
		c-3,7.3-6.3,12.4-10,15.2c-3.7,2.8-8.1,4.4-13.2,4.6c-5.9,0.1-11.3-2.1-16.1-6.6c-4.9-4.6-6.9-10.6-6.2-18c0.4-4.1,2-7.2,4.9-9.5
		c2.8-2.3,6-3.4,9.7-3.4c3.5-0.1,6.4,0.7,8.8,2.5c2.3,1.8,3.5,4.4,3.5,7.8c0,1.4-0.5,3.1-1.4,5.2c-0.9,2-1.5,3.6-1.9,4.7
		c-0.4,1.1,0,2.7,1,4.9c2.4,2.8,5.6,3.2,9.5,1.2c3.9-2,6.8-5.3,8.7-9.8l1.7-4l-33.5-74.9c-1.5-3.2-2.5-5.2-2.8-5.9
		c-0.4-0.7-1-1.8-1.8-3.4c-0.8-1.5-1.6-2.7-2.2-3.6c-0.6-0.8-1.3-1.8-2.1-2.7c-0.8-1-1.5-1.7-2.3-2.2c-0.8-0.5-1.4-0.7-2-0.7
		c-1.3-0.1-1.9-0.7-1.9-1.7C1554.8,326.6,1555.5,326.1,1556.7,326.1z"/>
	<path d="M705.1,452.1c3.9,0,7.9,0.4,11.8,1.2c3.9,0.8,7,1.5,9.2,2.1c2.2,0.6,4.1,0.9,5.9,0.8c1.8-0.1,3-0.7,3.7-2
		c0.4-0.8,1.1-1.2,1.9-1.1c0.8,0.1,1.3,0.7,1.3,1.7v27.2c0,1-0.5,1.5-1.5,1.7c-0.8,0-1.4-0.4-1.7-1.3c-1.4-5.3-3.3-9.8-5.6-13.5
		c-2.3-3.7-4.9-6.4-7.8-8.2c-2.9-1.8-5.7-3.2-8.3-4c-2.7-0.8-5.6-1.3-8.9-1.5c-6.3,0-11.4,2.1-15.2,6.2c-3.8,4.2-5.7,9.3-5.7,15.5
		c0,4.1,1.2,7.7,3.7,10.9c2.5,3.2,5.7,5.8,9.6,7.9c3.9,2.1,8.3,4.2,13.1,6.1c4.8,2,9.6,4.2,14.3,6.5c4.8,2.4,9.2,5.1,13.2,8
		s7.2,6.8,9.7,11.4c2.5,4.6,3.7,10,3.7,16c0,10.4-4.9,19.2-14.6,26.5c-9.7,7.2-22.9,10.9-39.5,10.9c-15.9,0-28.4-3.1-37.6-9.2
		c-9.1-6.1-13.7-14.9-13.7-26.5c0-6.2,1.7-11.5,5-15.9c3.3-4.4,8.1-6.6,14.2-6.6c5.5,0,9.8,1.5,13.1,4.4c3.2,3,4.9,6.6,4.9,11
		c0,2.5-0.6,4.8-1.8,6.9c-1.2,2-2.5,3.6-3.9,4.7c-1.4,1.1-2.7,2.7-3.8,4.6c-1.1,2-1.7,4.3-1.7,7c0.1,4.2,2.3,8,6.4,11.4
		c4.1,3.4,10.4,5.1,18.7,5.1c8.4,0,15.4-2.5,20.9-7.5c5.5-5,8.2-10.2,8.2-15.5c0-3.1-0.8-5.9-2.3-8.5c-1.5-2.6-3.6-4.9-6.1-6.8
		c-2.5-1.9-5.5-3.7-8.8-5.4c-3.3-1.7-6.8-3.4-10.4-5.1c-3.7-1.7-7.3-3.4-11-5.2c-3.7-1.8-7.1-3.8-10.4-6.1c-3.3-2.3-6.2-4.9-8.8-7.7
		c-2.5-2.8-4.6-6.2-6.1-10.2c-1.5-4-2.3-8.4-2.3-13.2c0-4.2,0.7-8.3,2.2-12.1c1.5-3.9,3.8-7.6,7.1-11.1c3.2-3.5,7.9-6.3,14-8.4
		C689.5,453.2,696.8,452.1,705.1,452.1z"/>
	<path d="M805.9,498.1c11.5,0,21.3,4,29.4,12.1c8.1,8.1,12.1,17.9,12.1,29.4c0,11.4-4,21.1-12.1,29.2c-8.1,8.1-17.9,12.1-29.4,12.1
		c-11.4,0-21.1-4-29.2-12.1c-8.1-8.1-12.1-17.8-12.1-29.2c0-11.5,4-21.3,12.1-29.4C784.8,502.2,794.5,498.1,805.9,498.1z
		 M797.7,502.6c-0.7,0-1.3,0-1.7,0c-4.1,1.1-6.3,5.7-6.6,13.6c-0.4,7.9,0.9,17,3.7,27.1c3,10.5,6.5,19,10.7,25.4
		c4.1,6.4,8.3,9,12.3,7.9c4.1-1.1,6.3-5.6,6.6-13.5c0.3-7.9-0.9-16.9-3.7-27c-2.7-9.8-5.9-17.9-9.8-24.3
		C805.3,505.5,801.5,502.4,797.7,502.6z"/>
	<path d="M905.7,498.1c6,0,11.5,1,16.2,2.8c4.8,1.9,8.4,4.4,10.8,7.4c2.4,3,3.9,6.5,4.4,10.4c0.6,3.9-0.3,8-2.5,12.2
		c-1.3,2.4-3.1,4.2-5.6,5.4c-2.5,1.2-5,1.7-7.5,1.6c-2.5-0.1-4.9-0.9-7.1-2.4c-2.2-1.5-3.6-3.5-4.3-6c-0.7-2.4-0.6-4.4,0.2-6.1
		c0.8-1.7,1.9-3,3.3-3.8c1.3-0.8,2.6-2,3.9-3.4c1.3-1.4,1.9-2.9,1.9-4.4c-0.1-2.8-1.3-5.3-3.4-7.4c-2.1-2.1-4.9-3.2-8.4-3.2
		c-5.8,0-10.3,3.7-13.7,11c-3.4,7.3-4.3,16.1-2.7,26.4c1.3,8.7,4.6,15.9,10,21.4c5.4,5.6,11.4,8.3,18,8.1c4.6,0,8.8-1.3,12.6-4
		c3.7-2.7,6.5-6,8.3-9.9c0.3-1,1-1.4,2-1.2s1.4,0.9,1.2,2c-1.4,5.2-4.1,9.8-8.1,13.8c-4,4-8.8,7.1-14.2,9.2
		c-5.5,2.1-11.3,3.2-17.3,3.2c-10.7-0.1-20.2-3.6-28.6-10.2c-8.4-6.7-13-15.7-14-27.1c-1.1-12.9,2.1-23.8,9.8-32.6
		C878.5,502.5,890.1,498.1,905.7,498.1z"/>
	<path d="M985.5,498.6c0.4-0.4,0.9-0.5,1.6-0.3s0.9,0.7,0.9,1.6v57.8c0,4.2,0.3,7.6,1.1,10.2c0.7,2.6,1.9,4.6,3.5,6
		c1.6,1.4,3.8,2.3,6.4,2.7c1.1,0.1,1.7,0.6,1.7,1.5c0,1.1-0.5,1.7-1.5,1.7h-51.5c-1.1,0-1.7-0.6-1.7-1.7c0-0.8,0.6-1.3,1.7-1.5
		c4.4-0.6,7.3-2.2,8.8-5.1c1.5-2.8,2.2-7.5,2.2-13.9v-20.3c0-6.8-0.8-11.8-2.4-15.3c-1.6-3.4-4.3-5.5-7.9-6.2
		c-1.1-0.3-1.7-0.8-1.7-1.7c0-1,0.6-1.5,1.7-1.5c6-0.3,12.2-1.6,18.4-4c6.2-2.4,10.5-4.4,12.9-5.9
		C982,501.2,983.9,499.8,985.5,498.6z M970.9,453.2c4.2,0,8.1,1.6,11.7,4.7s5.4,7.3,5.4,12.3c0,4.8-1.7,8.9-5,12.2
		c-3.3,3.4-7.4,5.1-12.1,5.1c-4.1,0-7.9-1.6-11.6-4.9c-3.7-3.2-5.5-7.4-5.5-12.4c0-4.6,1.7-8.7,5-12
		C962.1,454.9,966.1,453.2,970.9,453.2z"/>
	<path d="M1045.8,498.1c3.7,0,7.3,0.5,11,1.4c3.7,0.9,7.2,2.4,10.5,4.3c3.4,2,6.2,4.4,8.4,7.2c1.8,2.4,3.1,5.1,3.8,8
		c0.7,3,0.7,5.8,0.1,8.5c-0.6,2.7-2.2,5.1-4.6,7.2c-2.5,2-5.7,3.3-9.8,3.7l-30.8,3.6c1.4,6.8,4.2,12.2,8.4,16.5
		c4.2,4.2,8.8,6.8,13.6,7.8c4.9,1,9.6,0.6,14.3-1.2c4.7-1.8,8.3-4.8,10.9-9.2c0.1-0.1,0.2-0.3,0.2-0.4c1-2,2-2.7,3-2.3
		c0.7,0.4,1,1.1,0.8,1.9c-4.6,17.3-17.8,26-39.5,26c-6,0-11.8-1.1-17.3-3.3c-5.5-2.2-10.4-5.5-14.7-10c-4.3-4.5-7.3-9.8-9-15.8
		c-0.8-2.4-1.4-5.1-1.7-8c-0.6-6.3-0.2-12.2,1.2-17.5c1.3-5.3,3.6-10.2,6.9-14.5c3.2-4.3,7.7-7.7,13.5-10.1
		C1030.9,499.4,1037.8,498.1,1045.8,498.1z M1045.6,501.3c-3.7,0-6.7,2.2-9.1,6.6c-2.4,4.4-3.7,9.4-3.9,15
		c-0.2,5.6,0.2,10.9,1.2,16.1c7.9-1,14-3,18.4-6.1c4.4-3.1,6.3-7.8,5.7-14.1c-0.3-2.8-0.7-5.2-1.2-7.2c-0.5-2-1.2-3.8-2.1-5.5
		c-0.9-1.7-2.1-2.9-3.6-3.7C1049.5,501.7,1047.7,501.3,1045.6,501.3z"/>
	<path d="M1124.7,469.6c0.3-0.8,0.8-1.2,1.7-1.1c0.8,0.1,1.3,0.7,1.3,1.7v32.3h14.6c1.1,0,1.7,0.5,1.7,1.6s-0.6,1.6-1.7,1.6h-14.6
		v45.8c0,11,2.2,16.4,6.8,16.2c1.7,0,3.4-0.8,5.1-2.3c1.7-1.5,3-3.3,3.8-5.3c0.3-0.7,0.8-1.1,1.5-1.1c0.6,0,1,0.2,1.3,0.7
		c0.3,0.5,0.3,1,0,1.6c-2.4,5.5-5.9,10.1-10.5,13.9c-4.6,3.8-9.8,5.7-15.4,5.7c-7.3,0-12.8-2.3-16.5-6.9c-3.7-4.6-5.5-12.1-5.5-22.7
		l0.2-32.5c0-2.5,0-4.4,0-5.7c0-1.3-0.2-2.5-0.5-3.8c-0.4-1.3-0.6-2.1-0.8-2.4c-0.2-0.3-0.8-0.7-1.9-1.1c-1.1-0.3-2-0.5-2.8-0.5
		c-0.8,0-2.2,0-4.2,0c-1.3-0.3-1.9-0.8-1.9-1.7s0.6-1.3,1.7-1.5c5.9-1.3,13-5.4,21.4-12.3C1117.6,483,1122.8,476.3,1124.7,469.6z"/>
	<path d="M1148.8,498.1h46.4c1.7,0,2.5,0.5,2.5,1.5c0,0.8-0.6,1.4-1.9,1.7c-1.8,0.6-3.1,1.5-3.9,2.7c-0.8,1.3-1,2.9-0.6,5
		c0.3,2,0.7,3.8,1.2,5.3c0.4,1.5,1.1,3.4,2.1,5.8l15.8,36.1l14.6-37.8c4.4-11.4,3.2-17.1-3.4-17.1c-1.1-0.1-1.7-0.7-1.7-1.7
		c0.1-1,0.7-1.5,1.7-1.5h26.2c1.1,0,1.7,0.5,1.7,1.5c0,1-0.6,1.5-1.7,1.7c-4.8,0.1-8.7,1.6-11.6,4.3c-3,2.7-5.8,7.6-8.4,14.7
		l-30.8,79.8c-3,7.3-6.3,12.4-10,15.2c-3.7,2.8-8.1,4.4-13.2,4.6c-5.9,0.1-11.3-2.1-16.1-6.6c-4.9-4.6-6.9-10.6-6.2-18
		c0.4-4.1,2-7.2,4.9-9.5c2.8-2.3,6-3.4,9.7-3.4c3.5-0.1,6.4,0.7,8.8,2.5c2.3,1.8,3.5,4.4,3.5,7.8c0,1.4-0.5,3.1-1.4,5.2
		c-0.9,2-1.5,3.6-1.9,4.7c-0.4,1.1,0,2.7,0.9,4.9c2.4,2.8,5.6,3.2,9.5,1.2c3.9-2,6.8-5.3,8.7-9.8l1.7-4l-33.5-74.9
		c-1.5-3.2-2.5-5.2-2.8-5.9c-0.4-0.7-0.9-1.8-1.8-3.4c-0.8-1.5-1.6-2.7-2.2-3.6s-1.3-1.8-2.1-2.7c-0.8-1-1.5-1.7-2.3-2.2
		c-0.8-0.5-1.4-0.7-2-0.7c-1.3-0.1-1.9-0.7-1.9-1.7C1146.9,498.6,1147.5,498.1,1148.8,498.1z"/>
</g>
<g>
	<path d="M917.6,211.5c0,0.5,0,0.8-0.1,1.2c-0.1,0.3-0.1,0.6-0.3,0.8c-0.1,0.2-0.3,0.4-0.4,0.4c-0.2,0.1-0.4,0.1-0.6,0.1H902v40.1
		c0,0.2-0.1,0.4-0.2,0.5c-0.1,0.1-0.3,0.3-0.5,0.3c-0.3,0.1-0.6,0.2-1,0.2c-0.4,0.1-1,0.1-1.6,0.1c-0.6,0-1.2,0-1.6-0.1
		c-0.4-0.1-0.8-0.1-1.1-0.2c-0.3-0.1-0.4-0.2-0.5-0.3s-0.2-0.3-0.2-0.5v-40.1h-14.2c-0.2,0-0.4,0-0.6-0.1c-0.2-0.1-0.3-0.2-0.4-0.4
		c-0.1-0.2-0.2-0.5-0.3-0.8c-0.1-0.3-0.1-0.7-0.1-1.2c0-0.5,0-0.9,0.1-1.2c0.1-0.3,0.1-0.6,0.3-0.8s0.2-0.4,0.4-0.5
		c0.2-0.1,0.4-0.1,0.6-0.1h35.2c0.2,0,0.4,0,0.6,0.1c0.2,0.1,0.3,0.3,0.4,0.5s0.2,0.5,0.3,0.8C917.6,210.6,917.6,211,917.6,211.5z"
		/>
	<path d="M964.5,254.2c0,0.2-0.1,0.4-0.2,0.5c-0.1,0.1-0.3,0.3-0.5,0.3c-0.3,0.1-0.6,0.2-1,0.2c-0.4,0.1-1,0.1-1.6,0.1
		c-0.7,0-1.2,0-1.6-0.1c-0.4-0.1-0.8-0.1-1-0.2c-0.3-0.1-0.4-0.2-0.5-0.3s-0.2-0.3-0.2-0.5v-20.5h-23v20.5c0,0.2-0.1,0.4-0.2,0.5
		c-0.1,0.1-0.3,0.3-0.5,0.3c-0.3,0.1-0.6,0.2-1,0.2c-0.4,0.1-1,0.1-1.6,0.1c-0.6,0-1.2,0-1.6-0.1c-0.4-0.1-0.8-0.1-1.1-0.2
		c-0.3-0.1-0.4-0.2-0.5-0.3c-0.1-0.1-0.2-0.3-0.2-0.5v-44.4c0-0.2,0.1-0.4,0.2-0.5c0.1-0.1,0.3-0.3,0.5-0.3s0.6-0.2,1.1-0.2
		c0.4-0.1,1-0.1,1.6-0.1c0.7,0,1.2,0,1.6,0.1s0.8,0.1,1,0.2c0.3,0.1,0.4,0.2,0.5,0.3c0.1,0.1,0.2,0.3,0.2,0.5v18.5h23v-18.5
		c0-0.2,0.1-0.4,0.2-0.5s0.3-0.3,0.5-0.3c0.3-0.1,0.6-0.2,1-0.2s1-0.1,1.6-0.1c0.6,0,1.2,0,1.6,0.1s0.8,0.1,1,0.2
		c0.3,0.1,0.4,0.2,0.5,0.3c0.1,0.1,0.2,0.3,0.2,0.5V254.2z"/>
	<path d="M1009.3,252.5c0,0.4,0,0.8-0.1,1.1c-0.1,0.3-0.1,0.6-0.3,0.8c-0.1,0.2-0.3,0.4-0.5,0.5c-0.2,0.1-0.4,0.1-0.6,0.1h-24.3
		c-0.6,0-1.2-0.2-1.7-0.6c-0.5-0.4-0.8-1-0.8-1.9v-41.2c0-0.9,0.3-1.6,0.8-1.9c0.5-0.4,1.1-0.6,1.7-0.6h24c0.2,0,0.4,0,0.6,0.1
		c0.2,0.1,0.3,0.3,0.4,0.5s0.2,0.5,0.3,0.8c0.1,0.3,0.1,0.7,0.1,1.2c0,0.4,0,0.8-0.1,1.1c-0.1,0.3-0.2,0.6-0.3,0.8
		c-0.1,0.2-0.2,0.4-0.4,0.4c-0.2,0.1-0.4,0.1-0.6,0.1h-19.8v14.5h17c0.2,0,0.4,0.1,0.6,0.2c0.2,0.1,0.3,0.3,0.4,0.4
		c0.1,0.2,0.2,0.5,0.3,0.8c0.1,0.3,0.1,0.7,0.1,1.2c0,0.4,0,0.8-0.1,1.1c-0.1,0.3-0.1,0.6-0.3,0.8c-0.1,0.2-0.3,0.3-0.4,0.4
		s-0.4,0.1-0.6,0.1h-17V250h20.1c0.2,0,0.4,0,0.6,0.1c0.2,0.1,0.3,0.2,0.5,0.4c0.1,0.2,0.2,0.5,0.3,0.8
		C1009.3,251.7,1009.3,252.1,1009.3,252.5z"/>
</g>
<g>
	<path d="M780.3,691c0,0.1,0,0.3-0.1,0.4c-0.1,0.1-0.2,0.2-0.4,0.3c-0.2,0.1-0.4,0.1-0.7,0.2c-0.3,0-0.6,0.1-1.1,0.1
		c-0.4,0-0.8,0-1-0.1c-0.3,0-0.5-0.1-0.7-0.2c-0.2-0.1-0.3-0.2-0.4-0.3c-0.1-0.1-0.1-0.2-0.1-0.4v-41c0-0.1,0-0.2,0.1-0.4
		c0.1-0.1,0.2-0.2,0.4-0.3s0.4-0.1,0.7-0.2c0.3,0,0.6-0.1,1-0.1c0.4,0,0.8,0,1.1,0.1c0.3,0,0.5,0.1,0.7,0.2c0.2,0.1,0.3,0.2,0.4,0.3
		c0.1,0.1,0.1,0.2,0.1,0.4V691z"/>
	<path d="M800.4,691c0,0.1,0,0.3-0.1,0.4c-0.1,0.1-0.2,0.2-0.4,0.3c-0.2,0.1-0.4,0.1-0.7,0.2c-0.3,0-0.6,0.1-1.1,0.1
		c-0.4,0-0.8,0-1-0.1c-0.3,0-0.5-0.1-0.7-0.2c-0.2-0.1-0.3-0.2-0.4-0.3c-0.1-0.1-0.1-0.2-0.1-0.4v-41c0-0.1,0-0.2,0.1-0.4
		c0.1-0.1,0.2-0.2,0.4-0.3s0.4-0.1,0.7-0.2c0.3,0,0.6-0.1,1-0.1c0.4,0,0.8,0,1.1,0.1c0.3,0,0.5,0.1,0.7,0.2c0.2,0.1,0.3,0.2,0.4,0.3
		c0.1,0.1,0.1,0.2,0.1,0.4V691z"/>
	<path d="M844.2,651.1c0,0.3,0,0.5-0.1,0.8c0,0.2-0.1,0.4-0.2,0.5c-0.1,0.1-0.2,0.3-0.4,0.3c-0.1,0.1-0.3,0.1-0.5,0.1h-13.8V691
		c0,0.1,0,0.3-0.1,0.4s-0.2,0.2-0.4,0.3c-0.2,0.1-0.4,0.1-0.7,0.2c-0.3,0-0.6,0.1-1,0.1c-0.4,0-0.8,0-1-0.1c-0.3,0-0.5-0.1-0.7-0.2
		c-0.2-0.1-0.3-0.2-0.4-0.3c-0.1-0.1-0.1-0.2-0.1-0.4v-38.1h-13.8c-0.2,0-0.4,0-0.5-0.1c-0.1-0.1-0.2-0.2-0.3-0.3
		c-0.1-0.1-0.2-0.3-0.2-0.5c0-0.2-0.1-0.5-0.1-0.8c0-0.3,0-0.6,0.1-0.8c0-0.2,0.1-0.4,0.2-0.6c0.1-0.2,0.2-0.3,0.3-0.3
		c0.1-0.1,0.3-0.1,0.5-0.1h32c0.2,0,0.3,0,0.5,0.1c0.1,0.1,0.3,0.2,0.4,0.3c0.1,0.2,0.2,0.3,0.2,0.6
		C844.2,650.6,844.2,650.8,844.2,651.1z"/>
	<path d="M900.7,690.9c0,0.2,0,0.3-0.1,0.4c0,0.1-0.2,0.2-0.3,0.3s-0.4,0.1-0.7,0.2c-0.3,0-0.7,0.1-1.1,0.1c-0.4,0-0.9,0-1.3-0.1
		c-0.4,0-0.8-0.1-1-0.3c-0.2-0.1-0.4-0.3-0.6-0.5l-18.7-21.7V691c0,0.1,0,0.3-0.1,0.4c-0.1,0.1-0.2,0.2-0.4,0.3
		c-0.2,0.1-0.4,0.1-0.7,0.2c-0.3,0-0.6,0.1-1.1,0.1c-0.4,0-0.8,0-1-0.1c-0.3,0-0.5-0.1-0.7-0.2c-0.2-0.1-0.3-0.2-0.4-0.3
		c-0.1-0.1-0.1-0.2-0.1-0.4v-41c0-0.1,0-0.2,0.1-0.4c0.1-0.1,0.2-0.2,0.4-0.3s0.4-0.1,0.7-0.2c0.3,0,0.6-0.1,1-0.1
		c0.4,0,0.8,0,1.1,0.1c0.3,0,0.5,0.1,0.7,0.2s0.3,0.2,0.4,0.3c0.1,0.1,0.1,0.2,0.1,0.4v19.2l17.9-19.2c0.1-0.2,0.3-0.3,0.5-0.4
		c0.2-0.1,0.4-0.2,0.6-0.3s0.5-0.1,0.8-0.1c0.3,0,0.6,0,1.1,0c0.4,0,0.8,0,1,0.1c0.3,0,0.5,0.1,0.6,0.2s0.3,0.2,0.3,0.3
		c0,0.1,0.1,0.2,0.1,0.3c0,0.2-0.1,0.5-0.2,0.7c-0.1,0.2-0.4,0.5-0.7,0.8L882,669.1l18,20.6c0.3,0.4,0.5,0.7,0.6,0.8
		C900.7,690.7,900.7,690.8,900.7,690.9z"/>
	<path d="M944.5,690.3c0.1,0.3,0.2,0.6,0.2,0.8c0,0.2-0.1,0.4-0.2,0.5c-0.2,0.1-0.4,0.2-0.7,0.2c-0.3,0-0.7,0-1.2,0s-0.9,0-1.2,0
		c-0.3,0-0.5-0.1-0.7-0.1s-0.3-0.2-0.4-0.3c-0.1-0.1-0.2-0.2-0.2-0.4l-4.4-11.3h-20.3l-4.3,11.2c0,0.2-0.1,0.3-0.2,0.4
		c-0.1,0.1-0.2,0.2-0.4,0.3c-0.2,0.1-0.4,0.1-0.7,0.2c-0.3,0-0.7,0.1-1.1,0.1c-0.5,0-0.9,0-1.3-0.1c-0.3,0-0.6-0.1-0.7-0.2
		c-0.2-0.1-0.2-0.3-0.2-0.5c0-0.2,0.1-0.5,0.2-0.8l16.2-40.3c0.1-0.2,0.2-0.3,0.3-0.4c0.1-0.1,0.3-0.2,0.6-0.3
		c0.2-0.1,0.5-0.1,0.8-0.1c0.3,0,0.7,0,1.1,0c0.4,0,0.8,0,1.1,0c0.3,0,0.6,0.1,0.8,0.1s0.4,0.2,0.5,0.3c0.1,0.1,0.2,0.3,0.3,0.4
		L944.5,690.3z M925.3,653.6L925.3,653.6l-8.8,22.8h17.7L925.3,653.6z"/>
	<path d="M988.4,689.7c0,0.4-0.1,0.7-0.2,1s-0.3,0.5-0.5,0.6c-0.2,0.2-0.4,0.3-0.7,0.3c-0.2,0.1-0.5,0.1-0.7,0.1h-0.9
		c-0.5,0-0.9-0.1-1.3-0.2c-0.4-0.1-0.8-0.3-1.1-0.6c-0.4-0.3-0.7-0.6-1.1-1.1c-0.4-0.5-0.8-1-1.2-1.8l-16.3-26.4
		c-0.8-1.3-1.6-2.6-2.5-4c-0.8-1.4-1.6-2.7-2.3-4h0c0,1.6,0,3.2,0,4.9s0,3.3,0,4.9V691c0,0.1,0,0.3-0.1,0.4
		c-0.1,0.1-0.2,0.2-0.4,0.3c-0.2,0.1-0.4,0.1-0.7,0.2c-0.3,0-0.6,0.1-1.1,0.1c-0.4,0-0.8,0-1-0.1c-0.3,0-0.5-0.1-0.7-0.2
		c-0.2-0.1-0.3-0.2-0.4-0.3c-0.1-0.1-0.1-0.2-0.1-0.4v-39.6c0-0.8,0.2-1.3,0.7-1.6c0.5-0.3,0.9-0.4,1.3-0.4h1.8c0.6,0,1,0,1.4,0.1
		c0.4,0.1,0.7,0.2,1,0.4c0.3,0.2,0.6,0.5,0.9,0.9c0.3,0.4,0.6,0.9,1,1.5l12.5,20.2c0.8,1.3,1.5,2.5,2.2,3.6c0.7,1.2,1.4,2.3,2.1,3.4
		c0.7,1.1,1.3,2.2,2,3.3c0.7,1.1,1.3,2.2,1.9,3.3h0c0-1.8,0-3.7,0-5.7c0-2,0-3.9,0-5.7v-24.6c0-0.1,0-0.2,0.1-0.4
		c0.1-0.1,0.2-0.2,0.4-0.3c0.2-0.1,0.4-0.1,0.7-0.2c0.3,0,0.6,0,1.1,0c0.4,0,0.7,0,1,0c0.3,0,0.5,0.1,0.7,0.2
		c0.2,0.1,0.3,0.2,0.4,0.3c0.1,0.1,0.1,0.2,0.1,0.4V689.7z"/>
	<path d="M1030.8,661.4c0,2-0.4,3.8-1.1,5.4c-0.7,1.6-1.8,3-3.1,4.2c-1.4,1.2-3,2.1-5,2.7c-2,0.7-4.3,1-7.1,1h-6V691
		c0,0.1,0,0.3-0.1,0.4c-0.1,0.1-0.2,0.2-0.4,0.3c-0.2,0.1-0.4,0.1-0.7,0.2c-0.3,0-0.6,0.1-1.1,0.1c-0.4,0-0.8,0-1-0.1
		c-0.3,0-0.5-0.1-0.7-0.2c-0.2-0.1-0.3-0.2-0.4-0.3c-0.1-0.1-0.1-0.2-0.1-0.4v-39.6c0-0.8,0.2-1.3,0.7-1.6c0.5-0.3,0.9-0.4,1.3-0.4
		h9.4c0.9,0,1.8,0,2.7,0.1s1.9,0.2,3.1,0.5s2.4,0.7,3.6,1.4s2.3,1.5,3.1,2.5c0.9,1,1.5,2.1,2,3.4
		C1030.5,658.5,1030.8,659.9,1030.8,661.4z M1026.1,661.8c0-1.8-0.4-3.4-1.2-4.7s-1.7-2.2-2.9-2.8s-2.3-1-3.5-1.2
		c-1.2-0.2-2.4-0.2-3.5-0.2h-6.6v18.4h6.3c2,0,3.7-0.2,5.1-0.7s2.5-1.1,3.4-1.9c0.9-0.8,1.6-1.8,2.1-3
		C1025.9,664.4,1026.1,663.2,1026.1,661.8z"/>
	<path d="M1076.7,676c0,2.6-0.4,4.9-1.2,6.9s-1.9,3.7-3.4,5.1c-1.5,1.4-3.3,2.4-5.4,3.1c-2.1,0.7-4.4,1.1-7,1.1
		c-2.4,0-4.5-0.3-6.5-1c-2-0.7-3.7-1.7-5.2-3c-1.4-1.3-2.6-3-3.4-4.9s-1.2-4.2-1.2-6.8V650c0-0.1,0-0.2,0.1-0.4s0.2-0.2,0.4-0.3
		c0.2-0.1,0.4-0.1,0.7-0.2c0.3,0,0.6-0.1,1-0.1c0.4,0,0.8,0,1,0.1c0.3,0,0.5,0.1,0.7,0.2s0.3,0.2,0.4,0.3c0.1,0.1,0.1,0.2,0.1,0.4
		v25.9c0,2.1,0.3,4,0.8,5.6c0.6,1.6,1.4,2.9,2.4,4c1.1,1.1,2.3,1.9,3.9,2.4c1.5,0.5,3.2,0.8,5.1,0.8c1.9,0,3.7-0.3,5.2-0.8
		c1.5-0.5,2.8-1.3,3.8-2.3c1-1,1.9-2.3,2.4-3.9c0.6-1.6,0.8-3.4,0.8-5.5V650c0-0.1,0-0.2,0.1-0.4s0.2-0.2,0.4-0.3s0.4-0.1,0.7-0.2
		c0.3,0,0.6-0.1,1-0.1c0.4,0,0.8,0,1,0.1c0.3,0,0.5,0.1,0.7,0.2s0.3,0.2,0.4,0.3c0.1,0.1,0.1,0.2,0.1,0.4V676z"/>
	<path d="M1121.3,690.9c0,0.2,0,0.3-0.1,0.4c-0.1,0.1-0.2,0.2-0.3,0.3c-0.2,0.1-0.4,0.1-0.7,0.2c-0.3,0-0.7,0.1-1.1,0.1
		c-0.4,0-0.7,0-1,0c-0.3,0-0.5-0.1-0.7-0.2c-0.2-0.1-0.3-0.2-0.5-0.4c-0.1-0.2-0.2-0.4-0.3-0.6l-4.3-10.3c-0.5-1.2-1-2.2-1.6-3.3
		c-0.6-1-1.3-1.9-2.1-2.7c-0.8-0.8-1.8-1.3-2.9-1.8c-1.1-0.4-2.5-0.7-4.1-0.7h-4.8V691c0,0.1,0,0.3-0.1,0.4
		c-0.1,0.1-0.2,0.2-0.4,0.3c-0.2,0.1-0.4,0.1-0.7,0.2c-0.3,0-0.6,0.1-1.1,0.1c-0.4,0-0.8,0-1-0.1c-0.3,0-0.5-0.1-0.7-0.2
		c-0.2-0.1-0.3-0.2-0.4-0.3c-0.1-0.1-0.1-0.2-0.1-0.4v-39.6c0-0.8,0.2-1.3,0.7-1.6c0.5-0.3,0.9-0.4,1.3-0.4h8.7c1.1,0,2.1,0,2.8,0.1
		c0.8,0.1,1.4,0.1,2.1,0.2c1.8,0.3,3.3,0.7,4.6,1.4c1.3,0.6,2.4,1.4,3.3,2.3c0.9,0.9,1.5,2,1.9,3.1c0.4,1.2,0.6,2.4,0.6,3.8
		c0,1.4-0.2,2.6-0.6,3.7c-0.4,1.1-1,2.1-1.8,2.9c-0.8,0.8-1.7,1.6-2.8,2.2c-1.1,0.6-2.3,1.1-3.6,1.5c0.8,0.3,1.5,0.7,2.1,1.2
		c0.6,0.5,1.2,1.1,1.8,1.7c0.5,0.7,1,1.5,1.5,2.3c0.5,0.9,1,1.9,1.4,3l4.3,9.9c0.3,0.8,0.5,1.3,0.6,1.6
		C1121.2,690.6,1121.3,690.8,1121.3,690.9z M1113.6,660.6c0-1.8-0.4-3.3-1.3-4.6c-0.9-1.3-2.4-2.2-4.4-2.7c-0.7-0.2-1.4-0.3-2.3-0.4
		c-0.8-0.1-1.9-0.1-3.2-0.1h-5.7v15.5h6.7c1.8,0,3.3-0.2,4.6-0.6s2.4-1,3.2-1.7c0.8-0.7,1.5-1.5,1.9-2.5S1113.6,661.7,1113.6,660.6z
		"/>
</g>
</svg>
