<?xml version="1.0" encoding="utf-8"?>
<!-- Generator: Adobe Illustrator 24.3.0, SVG Export Plug-In . SVG Version: 6.00 Build 0)  -->
<svg version="1.1" id="Layer_1" xmlns="http://www.w3.org/2000/svg" xmlns:xlink="http://www.w3.org/1999/xlink" x="0px" y="0px"
	 viewBox="0 0 1895.9 812" style="enable-background:new 0 0 1895.9 812;" xml:space="preserve">
<style type="text/css">
	.st0{fill:#FBEF5A;}
</style>
<path class="st0" d="M304.6,296.8c-1.7,1.6-8.4,7.8-9.7,17.6c-1.1,8.6,2.7,11.1,1.3,21c-0.9,6.3-3.3,11.1-6.4,17.2
	c-3.9,7.7-5.1,7.2-7.4,12.5c-3.9,9-3.8,18.1-3.7,23.6c0.1,4.2,0.3,14.3,4.8,24.4c2,4.6,5.1,9.5,6.2,11.3c2.9,4.7,4.4,7,5.6,8.5
	c1.2,1.4,2.6,2.9,3.9,5.7c0.4,0.8,1.1,2.3,1.5,4.2c0.3,1.5,0.7,4.5-1.8,12.8c-0.3,1-1.2,3.6-3.9,10.2c-2.3,5.6-3.5,8.4-4.3,9.9
	c-3.3,6-7.4,9.1-10.5,11.6c-4.3,3.3-8.5,5.3-12.1,6.5c-0.7,0.2-1.3,0.8-1.7,1.6c-0.4,0.7-0.7,1.4-0.9,2.1c-3.6,9.5-0.3,20,1,23.7
	c0,0.1,0.1,0.2,0.1,0.4c6.4,13.8,10.9,16.5,13.9,16.3c0.8-0.1,1.6-0.4,3-0.2c4.9,0.6,8.1,6.4,9.2,8.2c6.4,10.8,20.3,22.5,27,26.6
	c9,5.6,17.3,5.2,28,4.6c11.2-0.6,12-3.3,32.2-7.6c13-2.8,19.6-4.2,29.2-4.1c8.4,0.1,11.2,1.3,25.3,2.4c8,0.6,14.7,0.8,19.4,0.8
	c0.9,0,1.7,0.5,2.2,1.5c2,3.5,5.1,7.5,9.5,10c5.1,2.9,8.7,1.8,23.1-0.9c19.5-3.6,21-3,33.2-6.1c3.6-0.9,7.8-4,13.9-4
	c4.5,0,5.4,1.3,11.8,2.4c6.1,1,10.7,0.7,16.9,0.2c8.8-0.6,8.4-1.6,16.6-2.3c10.1-0.8,9.5,0.7,20.9-0.1c8.8-0.6,10.8-1.6,15.7-0.2
	c4.9,1.4,5.3,3.1,10.5,4c3.2,0.6,6.3,0.4,12.6,0c4.7-0.3,5.3-0.5,8.1-0.6c6.9-0.3,11.9,0.7,14.7,1.1c13.8,2.3,15.6-1.3,32.4,0.6
	c12.2,1.4,14.4,3.7,23.7,2.9c4.4-0.4,6.5-1.1,12.8-1.4c8.7-0.5,10.1,0.7,16.5,0.5c12.8-0.4,14.6-5,24.4-4.5
	c7.9,0.4,13.2,3.6,16.9,5.5c9.4,4.7,24.6,8.1,49.7,2.1c0.8-0.2,1.4-0.8,1.9-1.6c0.3-0.6,0.8-1.3,1.5-1.8c1-0.7,1.9-0.8,2.3-0.8
	c9-0.6,16-3.9,27.3,0.3c3.2,1.2,2.6,1.4,5.8,2.7c3,1.2,11.7,4.3,31,0.8c3.5-0.6,16.7-3.2,26.8-2.9c2.1,0.1,5.7,0.3,7.7,3.4
	c1.9,3,1,6.7,2.6,7.7c1.6,0.9,3.7-1.6,5.5-3.2c2.2-1.9,5.3-3.3,17.3-2.1c11.1,1.1,13.9,2.9,21.4,3.9c4.9,0.6,11.9,0.9,20.7-0.9
	c0.8-0.2,1.4-0.7,1.9-1.5l0.6-1.2c0.6-1.1,1.6-1.7,2.6-1.5c5,0.6,12.2,1.1,20.8,0.8c12.7-0.5,17.4-2.4,25.8-2.1
	c6.6,0.2,16.2,1.8,27.9,8.4c1,0.5,2.1,0.4,2.9-0.4c0.7-0.6,1.5-1.3,2.4-2c1.7-1.3,4.5-3.5,8.4-4.2c1-0.2,8.4-1.3,13.9,4.8
	c0.5,0.6,1,1.2,1.4,1.7c0.6,0.9,1.5,1.4,2.4,1.2c2.6-0.4,6.2-0.8,10.3-1c13.2-0.7,20.6,1.6,30,2.9c22.5,3.1,20.7-4.1,41.2-1
	c0,0,17.4,2.7,28.2-1.9c3.3-1.4,3.4-1.4,3.4-1.4c3.8-1.7,4.2-2,4.9-2.1c3.5-0.7,6.9,4.4,7.9,5.8c5.9,7.9,19.2,5.1,35.9,3.5
	c8.3-0.8,20.4-1.5,35.6-1.1c10.6-0.5,19.2-0.4,25.2-0.2c11.3,0.4,17,1.2,27.2,0c5.9-0.7,5.6-1.1,13.3-2.1c5.3-0.7,13.1-1.6,22.8-1.4
	c6.4,0.1,14.7,0.7,24.5,2.8c0.4,0.1,0.8,0.1,1.1-0.1c2.9-0.9,5.9-1.7,9.1-2.4c12.4-2.5,23.6-1.9,32.5-0.2c0.1,0,0.2,0,0.2,0
	c7,0.4,13.9,0.9,20.9,1.3c1.2,0.1,2.3-0.8,2.8-2.2c0.2-0.6,0.4-1.3,0.8-2c2.9-5.7,9.9-6,16.5-6c7,0,16,0.3,26.8,1.4
	c0.9,0.1,1.8-0.4,2.4-1.3c0.8-1.3,1.9-2.7,3.4-3.9c4.3-3.4,8.4-2,11.7-2.6c7.7-1.3,12.1-13.1,14.6-18.5c4.5-9.7,13.9-22.6,35.3-35.1
	c0.9-0.5,1.5-1.5,1.6-2.7c0.9-6.7,1.5-14.7,1.3-23.7c-0.1-5.1-0.5-9.7-1-14c-0.1-0.7-0.3-1.4-0.7-1.9c-0.9-1.2-2-3-2.7-5.3
	c-1.5-5.2-0.2-9.6,0.9-15.1c0,0,1-4.8,1.1-39.9c0-0.4,0-1.3-0.4-2.3c-0.9-2.4-3.3-3-3.9-3.2c-4.2-1.6-7.2-15.4-7.9-25.1
	c-1-12.6,1.3-23.1,3.4-29.9c0.1-0.3,0.2-0.7,0.2-1c0.6-9.9,0.6-18.1,0.5-24.3c-0.3-14.7-1.5-18.1-3.4-20.5c-1.3-1.6-4-3.3-9.4-6.6
	c-2.8-1.7-4.2-2.6-5.8-3.1c-4.1-1.3-5.7,0.2-9.8-0.2c-5.7-0.5-5.6-3.5-10.8-4.2c-5.4-0.8-5.8,2.5-13.1,3.2c-6.8,0.7-8-1.9-14-1
	c-5.6,0.9-8.3,3.8-11.6,5.6c-10.2,5.6-21.6-2.4-29.7-6.6c-8.1-4.2-21.3-5-47.6-6.6c-16.1-1-60.7-2.2-81.9,2.9
	c-3.4,0.8-9,2.5-15.9,0.3c-5.9-1.8-7.4-4.8-13.9-6.6c-4.5-1.2-7.3-0.8-14.1-0.3c-7.3,0.5-14.5,0.4-21.8,1
	c-28.1,2.3-37.9-4.2-67.4-0.5c-17.7,2.2-19,5.1-28.7,3.5c-13.4-2.2-24.9-4-31.5-6.1c-0.6-0.2-2.2-0.7-4.3-0.5
	c-4.6,0.5-7.8,4.2-8.4,4.8c-6.2,6.6-26.8-0.1-34.9-2.3c-6.6-1.8-33.5-9-59.4,1.4c-9.2,3.7-13.9,7.8-23.7,7.6
	c-9.2-0.2-12.8-4-24.4-5.2c-9.8-1-10.3,1.5-21,1.6c-16.3,0.2-30.5-5.1-41.1-9c-10.8-4-15.3-7.1-23.4-5.8c-5.9,0.9-6.1,2.9-15.5,6.1
	c-4.1,1.4-14.1,4.8-26.2,4.5c-11.6-0.2-12.7-3.5-22-2.1c-7.1,1.1-8.4,3.2-16.1,5.2c-6.9,1.7-9.9,1-23,0.8c-20-0.3-21.1,1.2-39.7,0.5
	c-5.8-0.2-3.5-0.3-16.9-1.1c-26.3-1.6-29.9-1.1-39.2-2.6c-6.1-1-15-3-25.7-7.2c-0.8-0.3-1.7-0.2-2.4,0.4c-5.4,4.3-9.8,6.4-12.6,7.5
	c-4.4,1.7-6.1,1.5-7.4,1c-2.4-1-3.1-2.9-4.9-2.6c-1.3,0.2-1.5,1.2-4.8,4.5c-1.9,1.9-2.9,2.9-3.8,3.2c-3.2,1.1-6.4-1.8-6.9-2.3
	c-4.1-3.7-3.5-8.4-6-9c-1.8-0.4-2.6,1.9-6.7,4.8c0,0-2.2,1.6-6.9,3.5c-13.2,5.5-36.8-0.6-36.8-0.6c-8.7-2.3-20.4-6.2-33.8-13.6
	c-0.6-0.4-1.4-0.4-2-0.1c-1.3,0.6-3.5,1.5-6,2.6c-15.8,6.9-20.3,9-26.8,8.7c-2.9-0.1-1.9-0.6-6.5-1.1c-6.7-0.8-11-0.1-23.5,1.6
	c-14.5,2-16.7,2.3-20.1,2.4c-6.3,0.2-5.8-0.3-12.8-0.2c-2.2,0-12.8,0.3-27.1,2.9c-7.1,1.3-8.2,2-13,2.9c-14.5,2.8-25.2,0.9-33.9,0
	c-24.7-2.7-23.1,3.5-45.8,1.3C328.1,297.5,316.2,286.1,304.6,296.8z"/>
<g>
	<path d="M620.4,273.9l3.8,36.7c0,1.2-0.6,1.8-1.7,2c-1.1,0.1-1.7-0.4-1.7-1.5l-1.5-12.6c-1.9-14.1-9.4-21.2-22.3-21.2h-31.8v67
		h15.9c4.1,0,7.7-1.3,10.7-4c3-2.7,4.5-5.7,4.5-9.3v-2.9c0-1,0.6-1.5,1.7-1.5c1.1,0,1.7,0.5,1.7,1.5v35.2c0,1.2-0.6,1.8-1.7,1.8
		c-1.1,0-1.7-0.6-1.7-1.8v-2.9c0-3.4-1.5-6.4-4.5-9c-3-2.6-6.6-3.9-10.7-3.9h-15.9v35.8c0,6.6,0.9,11.5,2.7,14.5
		c1.8,3,4.7,4.8,8.8,5.4c1.2,0.1,1.8,0.7,1.8,1.5c0,1.2-0.5,1.8-1.5,1.8h-53.9c-1.2,0-1.8-0.6-1.8-1.8c0-0.9,0.6-1.4,1.8-1.5
		c4.6-0.6,7.6-2.4,9.2-5.3c1.5-2.9,2.3-7.8,2.3-14.6v-86.2c0-6.8-0.8-11.6-2.3-14.6c-1.5-2.9-4.6-4.7-9.2-5.3
		c-1.2-0.1-1.8-0.7-1.8-1.5c0-1.2,0.6-1.8,1.8-1.8H620.4z"/>
	<path d="M677,321.4c0.4-0.4,1-0.6,1.7-0.3s1,0.8,1,1.7v60.6c0,4.4,0.4,8,1.1,10.7c0.7,2.7,2,4.8,3.6,6.3c1.7,1.5,3.9,2.4,6.7,2.9
		c1.2,0.1,1.8,0.7,1.8,1.5c0,1.2-0.5,1.8-1.5,1.8h-53.9c-1.2,0-1.8-0.6-1.8-1.8c0-0.9,0.6-1.4,1.8-1.5c4.6-0.6,7.6-2.4,9.2-5.3
		c1.5-2.9,2.3-7.8,2.3-14.6v-21.2c0-7.1-0.9-12.4-2.5-16c-1.7-3.6-4.5-5.8-8.3-6.5c-1.2-0.3-1.8-0.9-1.8-1.8c0-1,0.6-1.5,1.8-1.5
		c6.3-0.3,12.7-1.7,19.2-4.2c6.5-2.5,11-4.6,13.5-6.2C673.3,324.2,675.4,322.8,677,321.4z M661.8,273.9c4.4,0,8.5,1.7,12.3,5
		c3.8,3.3,5.6,7.6,5.6,12.9c0,5-1.7,9.3-5.2,12.8c-3.5,3.5-7.7,5.3-12.7,5.3c-4.3,0-8.3-1.7-12.2-5.1c-3.8-3.4-5.7-7.7-5.7-13
		c0-4.9,1.7-9.1,5.2-12.6C652.5,275.7,656.8,273.9,661.8,273.9z"/>
	<path d="M747.1,320.8c0.3,0,0.6,0.1,0.9,0.2c0.4,0.3,0.7,0.8,0.7,1.5v8.2c5.3-6.3,12.6-9.5,21.9-9.5c21.5,0,33.9,10.3,37.1,31
		l3.5,31.2c0.9,6.5,2.4,11.2,4.4,14.3c2.1,3,5.2,4.9,9.5,5.6c1.3,0.1,2,0.7,2,1.5c0,1.2-0.6,1.8-1.8,1.8h-53.5c-1.3,0-2-0.6-2-1.8
		c0-0.9,0.7-1.4,2-1.5c4.3-0.7,7-2.5,8.1-5.4s1.3-7.7,0.6-14.5l-3.5-34.3c-0.9-6.6-2.7-12.1-5.3-16.5c-2.7-4.3-6.5-6.2-11.5-5.4
		c-2.5,0.3-4.5,1.2-6.1,2.7c-1.5,1.5-2.7,3.6-3.4,6.5c-0.7,2.9-1.3,6-1.5,9.3c-0.3,3.3-0.4,7.6-0.4,12.7v25c0,6.6,0.9,11.5,2.7,14.5
		c1.8,3,4.7,4.8,8.8,5.4c1.2,0.1,1.8,0.7,1.8,1.5c0,1.2-0.5,1.8-1.5,1.8h-53.9c-1.2,0-1.8-0.6-1.8-1.8c0-0.9,0.6-1.4,1.8-1.5
		c4.6-0.6,7.6-2.4,9.2-5.3c1.5-2.9,2.3-7.8,2.3-14.6v-21.2c0-7.4-0.7-12.7-2-16c-1.3-3.3-4.3-5.6-8.8-6.7c-1.2-0.3-1.8-0.9-1.8-1.8
		c0-1,0.6-1.6,1.8-1.8c6.3-0.1,12.7-1.5,19.2-4c6.5-2.5,11-4.6,13.5-6.2c2.5-1.6,4.6-3.1,6.2-4.4
		C746.3,320.9,746.7,320.8,747.1,320.8z"/>
	<path d="M872.2,321c3.8,0,7.7,0.5,11.5,1.4c3.8,1,7.5,2.5,11.1,4.5c3.5,2.1,6.5,4.6,8.8,7.5c1.9,2.5,3.2,5.3,4,8.4
		c0.7,3.1,0.8,6.1,0.1,9c-0.7,2.9-2.3,5.4-4.9,7.5c-2.6,2.1-6,3.4-10.3,3.9l-32.3,3.8c1.5,7.1,4.4,12.8,8.8,17.2
		c4.4,4.4,9.2,7.2,14.3,8.2c5.1,1,10.1,0.6,15-1.2c4.9-1.8,8.7-5,11.4-9.6c0.1-0.1,0.2-0.3,0.2-0.4c1-2.1,2.1-2.9,3.1-2.4
		c0.7,0.4,1,1.1,0.9,2c-4.9,18.1-18.6,27.2-41.3,27.2c-6.3,0-12.4-1.1-18.1-3.4c-5.7-2.3-10.9-5.8-15.4-10.5
		c-4.5-4.7-7.6-10.2-9.4-16.6c-0.9-2.5-1.5-5.3-1.8-8.4c-0.6-6.6-0.2-12.7,1.2-18.4c1.4-5.6,3.8-10.6,7.2-15.1
		c3.4-4.5,8.1-8,14.1-10.6C856.6,322.3,863.8,321,872.2,321z M872,324.3c-3.8,0-7,2.3-9.5,7c-2.5,4.6-3.9,9.9-4.1,15.7
		c-0.2,5.8,0.2,11.5,1.2,16.9c8.3-1,14.7-3.2,19.2-6.4c4.6-3.2,6.6-8.2,6-14.8c-0.3-2.9-0.7-5.5-1.2-7.5c-0.5-2.1-1.3-4-2.2-5.7
		c-1-1.8-2.2-3.1-3.8-3.9C876.1,324.7,874.2,324.3,872,324.3z"/>
	<path d="M1050,273.9h2.9h0.2h2l45.8,109.4v0.2c6.5,13.1,11.3,19.7,14.6,19.7c1.2,0.1,1.8,0.7,1.8,1.5c0,1.2-0.7,1.8-2,1.8h-48.6
		c-1.6,0-2.4-0.6-2.4-1.8c0-0.9,0.7-1.4,2-1.5c6-1.9,6.9-8.5,2.7-19.7l-2.7-6.4h-51.5l-3.1,8.2c-4.6,11.9-3.4,17.9,3.5,17.9
		c1.2,0.1,1.8,0.7,1.8,1.5c-0.1,1.2-0.7,1.8-1.8,1.8h-27.4c-1.2,0-1.8-0.6-1.8-1.8c0-0.9,0.6-1.4,1.8-1.5c5-0.1,9.1-1.7,12.3-4.5
		c3.2-2.9,6.2-8,9-15.4L1050,273.9z M1039.2,312.2l-23.2,61.7h48.9L1039.2,312.2z"/>
	<path d="M1194.8,319.9c7.8,0,13.5,3,17.1,8.8c3.6,5.9,3.4,12.2-0.6,19c-1.8,2.8-4.2,4.8-7.4,5.9c-3.2,1.1-6.3,1.2-9.4,0.3
		c-5.2-1.5-7.7-4.5-7.7-9.1c0-2.4,1.3-4.4,3.9-6.2c2.6-1.8,3.9-3.5,3.9-5.3c0-2.7-0.9-4.8-2.7-6.4c-1.8-1.6-4.1-2.2-6.9-1.8
		c-4.9,1.5-8.1,4.7-9.7,9.6c-1.6,4.9-2.4,12.5-2.4,22.7v25.9c0,6.6,0.8,11.5,2.5,14.5c1.7,3,4.7,4.8,9,5.4c1.2,0.1,1.8,0.7,1.8,1.5
		c0,1.2-0.6,1.8-1.8,1.8h-53.7c-1.2,0-1.8-0.6-1.8-1.8c0-0.9,0.6-1.4,1.8-1.5c4.4-0.6,7.4-2.4,9.1-5.3c1.6-2.9,2.4-7.8,2.4-14.6
		v-21.2c0-7.1-0.8-12.4-2.5-16c-1.7-3.6-4.5-5.8-8.3-6.5c-1.3-0.3-2-0.9-2-1.8c0-1,0.7-1.5,2-1.5c6.3-0.3,12.7-1.7,19.2-4.2
		c6.5-2.5,10.9-4.6,13.4-6.2c2.4-1.6,4.5-3.1,6.1-4.4c0.6-0.4,1.2-0.6,1.9-0.3c0.7,0.2,1,0.8,1,1.7v6.6c4.4-4.3,9-7.1,13.7-8.4
		C1189.6,320.3,1192.3,319.9,1194.8,319.9z"/>
	<path d="M1262,291.1c0.3-0.9,0.9-1.3,1.8-1.1c0.9,0.1,1.3,0.7,1.3,1.8v33.8h15.3c1.2,0,1.8,0.6,1.8,1.7s-0.6,1.7-1.8,1.7h-15.3v48
		c0,11.5,2.4,17.2,7.1,17c1.8,0,3.5-0.8,5.3-2.4c1.8-1.6,3.1-3.5,4-5.5c0.3-0.7,0.8-1.1,1.5-1.1c0.6,0,1,0.3,1.3,0.8
		c0.3,0.5,0.3,1.1,0,1.7c-2.5,5.7-6.2,10.6-11.1,14.6s-10.2,6-16.1,6c-7.7,0-13.4-2.4-17.2-7.2c-3.8-4.8-5.7-12.7-5.7-23.8l0.2-34
		c0-2.7,0-4.6,0-6s-0.2-2.7-0.6-4c-0.4-1.3-0.7-2.2-0.9-2.5c-0.2-0.4-0.9-0.7-2-1.1c-1.1-0.4-2.1-0.6-3-0.6s-2.4,0-4.4,0
		c-1.3-0.3-2-0.9-2-1.8s0.6-1.4,1.8-1.5c6.2-1.3,13.7-5.6,22.4-12.9C1254.5,305.2,1259.9,298.1,1262,291.1z"/>
	<path d="M1331.9,321c3.5,0,7,0.2,10.5,0.7c3.5,0.4,5.7,0.8,6.6,1c1,0.2,2.1,0.2,3.4-0.1c1.5-1,2.4-1.5,2.7-1.5c1,0,1.6,0.5,1.8,1.5
		l2.2,24.3c0,1.2-0.5,1.8-1.5,1.8c-0.9,0.1-1.5-0.4-1.8-1.5c-2.2-9.6-5.9-16.1-11.1-19.5c-3.4-2.2-7.7-3.3-12.8-3.3
		c-4.7,0-8,1.8-9.7,5.3c-1.8,3.5-1.6,7.2,0.4,10.8c1.2,2.2,3.6,4.4,7.4,6.5c3.8,2.1,7.8,4.1,12.3,6c4.4,1.8,8.8,3.9,13,6.1
		c4.3,2.2,7.8,5,10.7,8.3c2.9,3.3,4.3,7.1,4.3,11.4c0,8.7-3.8,15.7-11.3,21.1c-7.5,5.4-17.7,8.1-30.5,8.1c-11.1,0-19.6-2.7-25.5-8.2
		c-6-5.5-8.1-11.6-6.3-18.4c0.9-2.9,2.4-5.2,4.5-6.9c2.1-1.6,4.6-2.4,7.4-2.4c4,0,7.3,1.3,9.8,3.8c2.6,2.5,3.6,5.4,3.2,8.6
		c-0.4,2.4-1.9,4.5-4.3,6.5s-3.6,3.9-3.6,5.6c0.1,2.1,1.5,3.9,4,5.5c2.5,1.6,5.5,2.4,9.1,2.4c5.7,0,10-1.4,12.7-4.3
		c2.7-2.9,4.1-6.2,4.1-9.8c0-3.1-1.1-5.8-3.2-8.2c-2.1-2.4-4.8-4.3-8.1-5.7c-3.2-1.5-6.8-3.1-10.7-5c-3.9-1.8-7.6-3.7-10.9-5.5
		c-3.4-1.8-6.3-4.4-8.7-7.6c-2.4-3.2-3.9-7-4.3-11.3c-0.7-7.7,1.7-13.9,7.3-18.8C1310.5,323.4,1319.5,321,1331.9,321z"/>
	<path d="M792.6,462.2c8.7-2.4,18.4-3.2,29.2-2.4c4.3,0.3,8.4,0.8,12.3,1.4c3.9,0.7,6.9,1.3,8.8,1.8c2,0.5,3.8,0.9,5.5,1.2
		c1.7,0.3,2.9,0.3,3.8,0c0.8-0.3,1.5-1,2.1-2.2c0.3-0.9,0.9-1.3,1.8-1.1c0.9,0.1,1.3,0.7,1.3,1.8v28.5c0,1-0.5,1.6-1.5,1.8
		c-0.9,0-1.5-0.4-1.8-1.3c-1.6-5.9-3.7-10.8-6.3-14.8c-2.6-4-5.5-6.9-8.7-8.8c-3.2-1.9-6.3-3.2-9.3-4c-2.9-0.7-6.3-1.1-9.9-1.1
		c-5.3,0-10.5,1.3-15.5,4c-5,2.7-9.7,6.5-13.9,11.6c-4.3,5.1-7.7,11.9-10.3,20.3c-2.6,8.5-3.9,18-3.9,28.5c0,10.5,1.2,20,3.6,28.5
		c2.4,8.5,5.7,15.2,9.8,20.2c4.1,5,8.7,8.8,13.6,11.4c4.9,2.6,10,3.9,15.1,3.9c8.3-0.1,15.7-3.1,22.2-8.7c6.6-5.7,11-13.2,13.4-22.4
		c0.3-0.9,0.9-1.3,1.9-1.2c1,0.1,1.4,0.6,1.4,1.7v31.2c0,1-0.4,1.6-1.1,1.8c-0.7,0.1-1.4-0.2-2-1.1c-1-1.5-2.8-2.2-5.4-2.3
		c-2.6-0.1-5.5,0.3-8.6,1c-3.2,0.7-7.4,1.5-12.7,2.4c-5.3,0.9-10.4,1.3-15.3,1.3c-6.5-0.1-12.5-0.8-17.9-2
		c-14.6-3.5-26.4-11.4-35.5-23.5c-9.1-12.2-13.6-26.2-13.6-42.1c0-15.5,4.3-29.2,13-41.1C767.1,474.2,778.5,466.2,792.6,462.2z"/>
	<path d="M910.5,461.3c0.6-0.6,1.3-0.7,2-0.2c0.4,0.3,0.7,0.8,0.7,1.5v107.7c0,6.6,0.9,11.5,2.7,14.5c1.8,3,4.7,4.8,8.8,5.4
		c1.2,0.1,1.8,0.7,1.8,1.5c0,1.2-0.5,1.8-1.5,1.8h-53.9c-1.2,0-1.8-0.6-1.8-1.8c0-0.9,0.6-1.4,1.8-1.5c4.6-0.6,7.6-2.4,9.2-5.3
		c1.5-2.9,2.3-7.8,2.3-14.6V502c0-7.1-0.9-12.4-2.5-16c-1.7-3.6-4.5-5.8-8.3-6.5c-1.3-0.3-2-0.9-2-1.8c0-1,0.7-1.5,2-1.5
		c6.3-0.3,12.7-1.7,19.2-4.1c6.5-2.4,11-4.5,13.5-6.2C906.8,464.2,908.9,462.7,910.5,461.3z"/>
	<path d="M966.6,508c1.2,0,1.8,0.6,1.8,1.8v53.9c0,7.8,1.1,14.2,3.3,19.2c2.2,5,5.8,7.5,10.8,7.5c4.7-0.1,8.5-3.2,11.3-9.3
		c2.8-6,4.2-12.7,4.2-19.9v-12.2c0-4.7-0.3-8.6-1-11.7c-0.7-3.1-1.8-5.6-3.4-7.4c-1.6-1.8-3.7-3-6.2-3.4c-1.3-0.3-2-0.9-2-1.8
		c0-1,0.6-1.5,1.8-1.5c5-0.1,9.9-0.9,14.7-2.3c4.8-1.4,9-3.1,12.5-5c3.5-1.9,6.1-3.4,7.7-4.5c1.6-1.1,2.9-2.1,4-3
		c0.3-0.3,0.7-0.4,1.1-0.4c1.2,0,1.8,0.6,1.8,1.8v56.4c0,5.5,0.4,9.9,1.3,13.3c1.2,4.1,3.2,6.5,6.2,7.1c0.3,0.1,0.9,0.2,1.9,0.1
		c1-0.1,1.5-0.1,1.7-0.1c0.9,0,1.4,0.4,1.7,1.2c0.2,0.8,0,1.4-0.8,1.9c-6.5,3.5-12.9,5.3-19.2,5.3c-10.6,0-17.8-3.3-21.7-9.9
		c-5,6.8-14,10.1-27,9.9c-10.5,0-19-2.7-25.6-8.2c-6.6-5.5-9.9-13.1-9.9-23v-14.6c0-7.1-0.8-12.4-2.4-16c-1.6-3.6-4.3-5.8-8.2-6.5
		c-1.3-0.3-2-0.9-2-1.8c0-1,0.6-1.5,1.8-1.5c6.5-0.3,13-1.7,19.5-4.2c6.5-2.5,10.9-4.6,13.4-6.2c2.4-1.6,4.5-3.1,6.1-4.4
		C965.8,508.1,966.2,508,966.6,508z"/>
	<path d="M1080.7,461.3c0.6-0.6,1.3-0.7,2-0.2c0.6,0.3,0.9,0.8,0.9,1.5V516c6.5-4.9,13.4-7.4,20.8-7.7c7.4-0.3,14,1.3,19.9,4.8
		c5.9,3.5,10.9,8.4,14.9,14.9c4.1,6.5,6.2,13.6,6.3,21.2c0.3,12.2-3.1,22.8-10.1,31.6c-7,8.8-15.9,13.6-26.6,14.4
		c-11.4,0.7-21.2-3.4-29.6-12.4l-24.1,10.6c-1.6,0.6-2.4,0.1-2.4-1.5V502c0-7.1-0.8-12.4-2.4-16c-1.6-3.6-4.4-5.8-8.4-6.5
		c-1.2,0-1.8-0.6-1.8-1.8c0-1,0.6-1.5,1.8-1.5c4.9-0.1,9.7-0.9,14.6-2.3c4.9-1.4,9.1-3.1,12.6-5c3.5-1.9,6.1-3.4,7.7-4.5
		C1078.4,463.2,1079.7,462.2,1080.7,461.3z M1092.7,515.1c-2.7,0-4.8,1.3-6.4,4c-4.1,6.6-3.8,19.3,1.1,38
		c3.1,11.1,6.8,19.8,11.2,26.3c4.3,6.5,8.7,9.1,12.9,8c4.1-1,6.4-5.9,6.7-14.5c0.4-8.6-0.8-17.6-3.6-27.1
		c-1.8-6.8-3.8-12.7-6.2-17.9c-2.4-5.2-4.9-9.2-7.6-12.3C1098,516.6,1095.3,515.1,1092.7,515.1z"/>
</g>
<g>
	<path d="M917.6,211.5c0,0.5,0,0.8-0.1,1.2c-0.1,0.3-0.1,0.6-0.3,0.8c-0.1,0.2-0.3,0.4-0.4,0.4c-0.2,0.1-0.4,0.1-0.6,0.1H902v40.1
		c0,0.2-0.1,0.4-0.2,0.5c-0.1,0.1-0.3,0.3-0.5,0.3c-0.3,0.1-0.6,0.2-1,0.2c-0.4,0.1-1,0.1-1.6,0.1c-0.6,0-1.2,0-1.6-0.1
		c-0.4-0.1-0.8-0.1-1.1-0.2c-0.3-0.1-0.4-0.2-0.5-0.3s-0.2-0.3-0.2-0.5v-40.1h-14.2c-0.2,0-0.4,0-0.6-0.1c-0.2-0.1-0.3-0.2-0.4-0.4
		c-0.1-0.2-0.2-0.5-0.3-0.8c-0.1-0.3-0.1-0.7-0.1-1.2c0-0.5,0-0.9,0.1-1.2c0.1-0.3,0.1-0.6,0.3-0.8s0.2-0.4,0.4-0.5
		c0.2-0.1,0.4-0.1,0.6-0.1h35.2c0.2,0,0.4,0,0.6,0.1c0.2,0.1,0.3,0.3,0.4,0.5s0.2,0.5,0.3,0.8C917.6,210.6,917.6,211,917.6,211.5z"
		/>
	<path d="M964.5,254.2c0,0.2-0.1,0.4-0.2,0.5c-0.1,0.1-0.3,0.3-0.5,0.3c-0.3,0.1-0.6,0.2-1,0.2c-0.4,0.1-1,0.1-1.6,0.1
		c-0.7,0-1.2,0-1.6-0.1c-0.4-0.1-0.8-0.1-1-0.2c-0.3-0.1-0.4-0.2-0.5-0.3s-0.2-0.3-0.2-0.5v-20.5h-23v20.5c0,0.2-0.1,0.4-0.2,0.5
		c-0.1,0.1-0.3,0.3-0.5,0.3c-0.3,0.1-0.6,0.2-1,0.2c-0.4,0.1-1,0.1-1.6,0.1c-0.6,0-1.2,0-1.6-0.1c-0.4-0.1-0.8-0.1-1.1-0.2
		c-0.3-0.1-0.4-0.2-0.5-0.3c-0.1-0.1-0.2-0.3-0.2-0.5v-44.4c0-0.2,0.1-0.4,0.2-0.5c0.1-0.1,0.3-0.3,0.5-0.3s0.6-0.2,1.1-0.2
		c0.4-0.1,1-0.1,1.6-0.1c0.7,0,1.2,0,1.6,0.1s0.8,0.1,1,0.2c0.3,0.1,0.4,0.2,0.5,0.3c0.1,0.1,0.2,0.3,0.2,0.5v18.5h23v-18.5
		c0-0.2,0.1-0.4,0.2-0.5s0.3-0.3,0.5-0.3c0.3-0.1,0.6-0.2,1-0.2s1-0.1,1.6-0.1c0.6,0,1.2,0,1.6,0.1s0.8,0.1,1,0.2
		c0.3,0.1,0.4,0.2,0.5,0.3c0.1,0.1,0.2,0.3,0.2,0.5V254.2z"/>
	<path d="M1009.3,252.5c0,0.4,0,0.8-0.1,1.1c-0.1,0.3-0.1,0.6-0.3,0.8c-0.1,0.2-0.3,0.4-0.5,0.5c-0.2,0.1-0.4,0.1-0.6,0.1h-24.3
		c-0.6,0-1.2-0.2-1.7-0.6c-0.5-0.4-0.8-1-0.8-1.9v-41.2c0-0.9,0.3-1.6,0.8-1.9c0.5-0.4,1.1-0.6,1.7-0.6h24c0.2,0,0.4,0,0.6,0.1
		c0.2,0.1,0.3,0.3,0.4,0.5s0.2,0.5,0.3,0.8c0.1,0.3,0.1,0.7,0.1,1.2c0,0.4,0,0.8-0.1,1.1c-0.1,0.3-0.2,0.6-0.3,0.8
		c-0.1,0.2-0.2,0.4-0.4,0.4c-0.2,0.1-0.4,0.1-0.6,0.1h-19.8v14.5h17c0.2,0,0.4,0.1,0.6,0.2c0.2,0.1,0.3,0.3,0.4,0.4
		c0.1,0.2,0.2,0.5,0.3,0.8c0.1,0.3,0.1,0.7,0.1,1.2c0,0.4,0,0.8-0.1,1.1c-0.1,0.3-0.1,0.6-0.3,0.8c-0.1,0.2-0.3,0.3-0.4,0.4
		s-0.4,0.1-0.6,0.1h-17V250h20.1c0.2,0,0.4,0,0.6,0.1c0.2,0.1,0.3,0.2,0.5,0.4c0.1,0.2,0.2,0.5,0.3,0.8
		C1009.3,251.7,1009.3,252.1,1009.3,252.5z"/>
</g>
<g>
	<path d="M780.3,671c0,0.1,0,0.3-0.1,0.4c-0.1,0.1-0.2,0.2-0.4,0.3c-0.2,0.1-0.4,0.1-0.7,0.2c-0.3,0-0.6,0.1-1.1,0.1
		c-0.4,0-0.8,0-1-0.1c-0.3,0-0.5-0.1-0.7-0.2c-0.2-0.1-0.3-0.2-0.4-0.3c-0.1-0.1-0.1-0.2-0.1-0.4v-41c0-0.1,0-0.2,0.1-0.4
		c0.1-0.1,0.2-0.2,0.4-0.3s0.4-0.1,0.7-0.2c0.3,0,0.6-0.1,1-0.1c0.4,0,0.8,0,1.1,0.1c0.3,0,0.5,0.1,0.7,0.2c0.2,0.1,0.3,0.2,0.4,0.3
		c0.1,0.1,0.1,0.2,0.1,0.4V671z"/>
	<path d="M800.4,671c0,0.1,0,0.3-0.1,0.4c-0.1,0.1-0.2,0.2-0.4,0.3c-0.2,0.1-0.4,0.1-0.7,0.2c-0.3,0-0.6,0.1-1.1,0.1
		c-0.4,0-0.8,0-1-0.1c-0.3,0-0.5-0.1-0.7-0.2c-0.2-0.1-0.3-0.2-0.4-0.3c-0.1-0.1-0.1-0.2-0.1-0.4v-41c0-0.1,0-0.2,0.1-0.4
		c0.1-0.1,0.2-0.2,0.4-0.3s0.4-0.1,0.7-0.2c0.3,0,0.6-0.1,1-0.1c0.4,0,0.8,0,1.1,0.1c0.3,0,0.5,0.1,0.7,0.2c0.2,0.1,0.3,0.2,0.4,0.3
		c0.1,0.1,0.1,0.2,0.1,0.4V671z"/>
	<path d="M844.2,631.1c0,0.3,0,0.5-0.1,0.8c0,0.2-0.1,0.4-0.2,0.5c-0.1,0.1-0.2,0.3-0.4,0.3c-0.1,0.1-0.3,0.1-0.5,0.1h-13.8V671
		c0,0.1,0,0.3-0.1,0.4s-0.2,0.2-0.4,0.3c-0.2,0.1-0.4,0.1-0.7,0.2c-0.3,0-0.6,0.1-1,0.1c-0.4,0-0.8,0-1-0.1c-0.3,0-0.5-0.1-0.7-0.2
		c-0.2-0.1-0.3-0.2-0.4-0.3c-0.1-0.1-0.1-0.2-0.1-0.4v-38.1h-13.8c-0.2,0-0.4,0-0.5-0.1c-0.1-0.1-0.2-0.2-0.3-0.3
		c-0.1-0.1-0.2-0.3-0.2-0.5c0-0.2-0.1-0.5-0.1-0.8c0-0.3,0-0.6,0.1-0.8c0-0.2,0.1-0.4,0.2-0.6c0.1-0.2,0.2-0.3,0.3-0.3
		c0.1-0.1,0.3-0.1,0.5-0.1h32c0.2,0,0.3,0,0.5,0.1c0.1,0.1,0.3,0.2,0.4,0.3c0.1,0.2,0.2,0.3,0.2,0.6
		C844.2,630.6,844.2,630.8,844.2,631.1z"/>
	<path d="M900.7,670.9c0,0.2,0,0.3-0.1,0.4c0,0.1-0.2,0.2-0.3,0.3s-0.4,0.1-0.7,0.2c-0.3,0-0.7,0.1-1.1,0.1c-0.4,0-0.9,0-1.3-0.1
		c-0.4,0-0.8-0.1-1-0.3c-0.2-0.1-0.4-0.3-0.6-0.5l-18.7-21.7V671c0,0.1,0,0.3-0.1,0.4c-0.1,0.1-0.2,0.2-0.4,0.3
		c-0.2,0.1-0.4,0.1-0.7,0.2c-0.3,0-0.6,0.1-1.1,0.1c-0.4,0-0.8,0-1-0.1c-0.3,0-0.5-0.1-0.7-0.2c-0.2-0.1-0.3-0.2-0.4-0.3
		c-0.1-0.1-0.1-0.2-0.1-0.4v-41c0-0.1,0-0.2,0.1-0.4c0.1-0.1,0.2-0.2,0.4-0.3s0.4-0.1,0.7-0.2c0.3,0,0.6-0.1,1-0.1
		c0.4,0,0.8,0,1.1,0.1c0.3,0,0.5,0.1,0.7,0.2s0.3,0.2,0.4,0.3c0.1,0.1,0.1,0.2,0.1,0.4v19.2l17.9-19.2c0.1-0.2,0.3-0.3,0.5-0.4
		c0.2-0.1,0.4-0.2,0.6-0.3s0.5-0.1,0.8-0.1c0.3,0,0.6,0,1.1,0c0.4,0,0.8,0,1,0.1c0.3,0,0.5,0.1,0.6,0.2s0.3,0.2,0.3,0.3
		c0,0.1,0.1,0.2,0.1,0.3c0,0.2-0.1,0.5-0.2,0.7c-0.1,0.2-0.4,0.5-0.7,0.8L882,649.1l18,20.6c0.3,0.4,0.5,0.7,0.6,0.8
		C900.7,670.7,900.7,670.8,900.7,670.9z"/>
	<path d="M944.5,670.3c0.1,0.3,0.2,0.6,0.2,0.8c0,0.2-0.1,0.4-0.2,0.5c-0.2,0.1-0.4,0.2-0.7,0.2c-0.3,0-0.7,0-1.2,0s-0.9,0-1.2,0
		c-0.3,0-0.5-0.1-0.7-0.1s-0.3-0.2-0.4-0.3c-0.1-0.1-0.2-0.2-0.2-0.4l-4.4-11.3h-20.3l-4.3,11.2c0,0.2-0.1,0.3-0.2,0.4
		c-0.1,0.1-0.2,0.2-0.4,0.3c-0.2,0.1-0.4,0.1-0.7,0.2c-0.3,0-0.7,0.1-1.1,0.1c-0.5,0-0.9,0-1.3-0.1c-0.3,0-0.6-0.1-0.7-0.2
		c-0.2-0.1-0.2-0.3-0.2-0.5c0-0.2,0.1-0.5,0.2-0.8l16.2-40.3c0.1-0.2,0.2-0.3,0.3-0.4c0.1-0.1,0.3-0.2,0.6-0.3
		c0.2-0.1,0.5-0.1,0.8-0.1c0.3,0,0.7,0,1.1,0c0.4,0,0.8,0,1.1,0c0.3,0,0.6,0.1,0.8,0.1s0.4,0.2,0.5,0.3c0.1,0.1,0.2,0.3,0.3,0.4
		L944.5,670.3z M925.3,633.6L925.3,633.6l-8.8,22.8h17.7L925.3,633.6z"/>
	<path d="M988.4,669.7c0,0.4-0.1,0.7-0.2,1s-0.3,0.5-0.5,0.6c-0.2,0.2-0.4,0.3-0.7,0.3c-0.2,0.1-0.5,0.1-0.7,0.1h-0.9
		c-0.5,0-0.9-0.1-1.3-0.2c-0.4-0.1-0.8-0.3-1.1-0.6c-0.4-0.3-0.7-0.6-1.1-1.1c-0.4-0.5-0.8-1-1.2-1.8l-16.3-26.4
		c-0.8-1.3-1.6-2.6-2.5-4c-0.8-1.4-1.6-2.7-2.3-4h0c0,1.6,0,3.2,0,4.9s0,3.3,0,4.9V671c0,0.1,0,0.3-0.1,0.4
		c-0.1,0.1-0.2,0.2-0.4,0.3c-0.2,0.1-0.4,0.1-0.7,0.2c-0.3,0-0.6,0.1-1.1,0.1c-0.4,0-0.8,0-1-0.1c-0.3,0-0.5-0.1-0.7-0.2
		c-0.2-0.1-0.3-0.2-0.4-0.3c-0.1-0.1-0.1-0.2-0.1-0.4v-39.6c0-0.8,0.2-1.3,0.7-1.6c0.5-0.3,0.9-0.4,1.3-0.4h1.8c0.6,0,1,0,1.4,0.1
		c0.4,0.1,0.7,0.2,1,0.4c0.3,0.2,0.6,0.5,0.9,0.9c0.3,0.4,0.6,0.9,1,1.5l12.5,20.2c0.8,1.3,1.5,2.5,2.2,3.6c0.7,1.2,1.4,2.3,2.1,3.4
		c0.7,1.1,1.3,2.2,2,3.3c0.7,1.1,1.3,2.2,1.9,3.3h0c0-1.8,0-3.7,0-5.7c0-2,0-3.9,0-5.7v-24.6c0-0.1,0-0.2,0.1-0.4
		c0.1-0.1,0.2-0.2,0.4-0.3c0.2-0.1,0.4-0.1,0.7-0.2c0.3,0,0.6,0,1.1,0c0.4,0,0.7,0,1,0c0.3,0,0.5,0.1,0.7,0.2
		c0.2,0.1,0.3,0.2,0.4,0.3c0.1,0.1,0.1,0.2,0.1,0.4V669.7z"/>
	<path d="M1030.8,641.4c0,2-0.4,3.8-1.1,5.4c-0.7,1.6-1.8,3-3.1,4.2c-1.4,1.2-3,2.1-5,2.7c-2,0.7-4.3,1-7.1,1h-6V671
		c0,0.1,0,0.3-0.1,0.4c-0.1,0.1-0.2,0.2-0.4,0.3c-0.2,0.1-0.4,0.1-0.7,0.2c-0.3,0-0.6,0.1-1.1,0.1c-0.4,0-0.8,0-1-0.1
		c-0.3,0-0.5-0.1-0.7-0.2c-0.2-0.1-0.3-0.2-0.4-0.3c-0.1-0.1-0.1-0.2-0.1-0.4v-39.6c0-0.8,0.2-1.3,0.7-1.6c0.5-0.3,0.9-0.4,1.3-0.4
		h9.4c0.9,0,1.8,0,2.7,0.1s1.9,0.2,3.1,0.5s2.4,0.7,3.6,1.4s2.3,1.5,3.1,2.5c0.9,1,1.5,2.1,2,3.4
		C1030.5,638.5,1030.8,639.9,1030.8,641.4z M1026.1,641.8c0-1.8-0.4-3.4-1.2-4.7s-1.7-2.2-2.9-2.8s-2.3-1-3.5-1.2
		c-1.2-0.2-2.4-0.2-3.5-0.2h-6.6v18.4h6.3c2,0,3.7-0.2,5.1-0.7s2.5-1.1,3.4-1.9c0.9-0.8,1.6-1.8,2.1-3
		C1025.9,644.4,1026.1,643.2,1026.1,641.8z"/>
	<path d="M1076.7,656c0,2.6-0.4,4.9-1.2,6.9s-1.9,3.7-3.4,5.1c-1.5,1.4-3.3,2.4-5.4,3.1c-2.1,0.7-4.4,1.1-7,1.1
		c-2.4,0-4.5-0.3-6.5-1c-2-0.7-3.7-1.7-5.2-3c-1.4-1.3-2.6-3-3.4-4.9s-1.2-4.2-1.2-6.8V630c0-0.1,0-0.2,0.1-0.4s0.2-0.2,0.4-0.3
		c0.2-0.1,0.4-0.1,0.7-0.2c0.3,0,0.6-0.1,1-0.1c0.4,0,0.8,0,1,0.1c0.3,0,0.5,0.1,0.7,0.2s0.3,0.2,0.4,0.3c0.1,0.1,0.1,0.2,0.1,0.4
		v25.9c0,2.1,0.3,4,0.8,5.6c0.6,1.6,1.4,2.9,2.4,4c1.1,1.1,2.3,1.9,3.9,2.4c1.5,0.5,3.2,0.8,5.1,0.8c1.9,0,3.7-0.3,5.2-0.8
		c1.5-0.5,2.8-1.3,3.8-2.3c1-1,1.9-2.3,2.4-3.9c0.6-1.6,0.8-3.4,0.8-5.5V630c0-0.1,0-0.2,0.1-0.4s0.2-0.2,0.4-0.3s0.4-0.1,0.7-0.2
		c0.3,0,0.6-0.1,1-0.1c0.4,0,0.8,0,1,0.1c0.3,0,0.5,0.1,0.7,0.2s0.3,0.2,0.4,0.3c0.1,0.1,0.1,0.2,0.1,0.4V656z"/>
	<path d="M1121.3,670.9c0,0.2,0,0.3-0.1,0.4c-0.1,0.1-0.2,0.2-0.3,0.3c-0.2,0.1-0.4,0.1-0.7,0.2c-0.3,0-0.7,0.1-1.1,0.1
		c-0.4,0-0.7,0-1,0c-0.3,0-0.5-0.1-0.7-0.2c-0.2-0.1-0.3-0.2-0.5-0.4c-0.1-0.2-0.2-0.4-0.3-0.6l-4.3-10.3c-0.5-1.2-1-2.2-1.6-3.3
		c-0.6-1-1.3-1.9-2.1-2.7c-0.8-0.8-1.8-1.3-2.9-1.8c-1.1-0.4-2.5-0.7-4.1-0.7h-4.8V671c0,0.1,0,0.3-0.1,0.4
		c-0.1,0.1-0.2,0.2-0.4,0.3c-0.2,0.1-0.4,0.1-0.7,0.2c-0.3,0-0.6,0.1-1.1,0.1c-0.4,0-0.8,0-1-0.1c-0.3,0-0.5-0.1-0.7-0.2
		c-0.2-0.1-0.3-0.2-0.4-0.3c-0.1-0.1-0.1-0.2-0.1-0.4v-39.6c0-0.8,0.2-1.3,0.7-1.6c0.5-0.3,0.9-0.4,1.3-0.4h8.7c1.1,0,2.1,0,2.8,0.1
		c0.8,0.1,1.4,0.1,2.1,0.2c1.8,0.3,3.3,0.7,4.6,1.4c1.3,0.6,2.4,1.4,3.3,2.3c0.9,0.9,1.5,2,1.9,3.1c0.4,1.2,0.6,2.4,0.6,3.8
		c0,1.4-0.2,2.6-0.6,3.7c-0.4,1.1-1,2.1-1.8,2.9c-0.8,0.8-1.7,1.6-2.8,2.2c-1.1,0.6-2.3,1.1-3.6,1.5c0.8,0.3,1.5,0.7,2.1,1.2
		c0.6,0.5,1.2,1.1,1.8,1.7c0.5,0.7,1,1.5,1.5,2.3c0.5,0.9,1,1.9,1.4,3l4.3,9.9c0.3,0.8,0.5,1.3,0.6,1.6
		C1121.2,670.6,1121.3,670.8,1121.3,670.9z M1113.6,640.6c0-1.8-0.4-3.3-1.3-4.6c-0.9-1.3-2.4-2.2-4.4-2.7c-0.7-0.2-1.4-0.3-2.3-0.4
		c-0.8-0.1-1.9-0.1-3.2-0.1h-5.7v15.5h6.7c1.8,0,3.3-0.2,4.6-0.6s2.4-1,3.2-1.7c0.8-0.7,1.5-1.5,1.9-2.5S1113.6,641.7,1113.6,640.6z
		"/>
</g>
</svg>
