<?xml version="1.0" encoding="utf-8"?>
<!-- Generator: Adobe Illustrator 24.3.0, SVG Export Plug-In . SVG Version: 6.00 Build 0)  -->
<svg version="1.1" id="Layer_1" xmlns="http://www.w3.org/2000/svg" xmlns:xlink="http://www.w3.org/1999/xlink" x="0px" y="0px"
	 viewBox="0 0 1895.9 812" style="enable-background:new 0 0 1895.9 812;" xml:space="preserve">
<style type="text/css">
	.st0{fill:#FFCC46;}
</style>
<path class="st0" d="M312.3,298.2c-1.7,1.5-8.3,7.3-9.6,16.6c-1.1,8.1,2.7,10.5,1.3,19.9c-0.9,6-3.2,10.5-6.3,16.2
	c-3.9,7.2-5,6.8-7.3,11.8c-3.9,8.5-3.7,17.1-3.6,22.3c0.1,3.9,0.3,13.5,4.7,23c2,4.3,5,8.9,6.1,10.6c2.9,4.4,4.3,6.6,5.6,8
	c1.1,1.3,2.6,2.7,3.9,5.4c0.4,0.7,1.1,2.2,1.5,4c0.3,1.4,0.7,4.3-1.8,12.1c-0.3,1-1.1,3.4-3.8,9.6c-2.3,5.3-3.4,7.9-4.2,9.3
	c-3.3,5.7-7.3,8.6-10.4,10.9c-4.2,3.2-8.4,5-11.9,6.2c-0.7,0.2-1.3,0.7-1.7,1.5c-0.4,0.7-0.7,1.3-0.9,2c-3.6,9-0.3,18.9,1,22.3
	c0,0.1,0.1,0.2,0.1,0.3c6.3,13,10.8,15.6,13.7,15.3c0.8-0.1,1.6-0.4,3-0.2c4.8,0.6,8,6,9,7.7c6.3,10.2,20.1,21.2,26.7,25.1
	c8.9,5.3,17.1,4.9,27.7,4.4c11.1-0.5,11.9-3.1,31.8-7.2c12.8-2.6,19.4-4,28.9-3.9c8.3,0.1,11.1,1.2,25,2.2
	c7.9,0.6,14.5,0.7,19.2,0.8c0.9,0,1.7,0.5,2.2,1.4c2,3.3,5,7.1,9.4,9.5c5.1,2.7,8.6,1.7,22.8-0.8c19.2-3.4,20.7-2.8,32.8-5.8
	c3.6-0.9,7.7-3.8,13.8-3.7c4.5,0,5.3,1.3,11.7,2.2c6,0.9,10.5,0.6,16.7,0.2c8.7-0.6,8.3-1.5,16.4-2.1c10-0.8,9.4,0.7,20.6-0.1
	c8.7-0.6,10.6-1.5,15.5-0.2c4.8,1.3,5.2,2.9,10.4,3.7c3.1,0.5,6.2,0.4,12.4,0c4.7-0.3,5.2-0.5,8-0.6c6.8-0.3,11.7,0.6,14.6,1.1
	c13.6,2.1,15.4-1.3,32,0.6c12.1,1.4,14.2,3.5,23.4,2.7c4.3-0.4,6.4-1.1,12.7-1.4c8.6-0.4,10,0.6,16.3,0.5
	c12.7-0.3,14.4-4.7,24.1-4.3c7.8,0.4,13,3.4,16.7,5.2c9.3,4.4,24.3,7.7,49.1,2c0.8-0.2,1.4-0.7,1.8-1.5c0.3-0.6,0.8-1.2,1.4-1.7
	c0.9-0.7,1.9-0.7,2.2-0.8c8.9-0.6,15.8-3.7,27,0.3c3.1,1.1,2.5,1.4,5.7,2.6c3,1.2,11.5,4,30.6,0.8c3.5-0.6,16.5-3,26.5-2.7
	c2.1,0.1,5.7,0.3,7.6,3.2c1.8,2.8,1,6.4,2.6,7.3c1.5,0.9,3.6-1.6,5.5-3c2.2-1.8,5.3-3.1,17-2c11,1.1,13.8,2.7,21.1,3.6
	c4.8,0.6,11.8,0.9,20.5-0.8c0.8-0.1,1.4-0.7,1.9-1.4l0.6-1.1c0.6-1,1.5-1.6,2.5-1.5c4.9,0.5,12,1,20.5,0.7c12.6-0.4,17.2-2.2,25.5-2
	c6.6,0.2,16,1.7,27.5,7.9c0.9,0.5,2,0.4,2.8-0.4c0.7-0.6,1.4-1.3,2.3-1.9c1.7-1.2,4.5-3.3,8.3-4c1-0.2,8.3-1.3,13.7,4.6
	c0.5,0.6,1,1.1,1.3,1.6c0.6,0.9,1.5,1.3,2.4,1.2c2.6-0.4,6.1-0.8,10.2-1c13-0.6,20.4,1.5,29.6,2.7c22.2,3,20.4-3.9,40.7-0.9
	c0,0,17.2,2.5,27.9-1.8c3.3-1.3,3.4-1.4,3.4-1.4c3.8-1.6,4.2-1.8,4.9-2c3.5-0.6,6.8,4.2,7.8,5.5c5.9,7.4,19,4.8,35.5,3.3
	c8.2-0.7,20.1-1.5,35.2-1.1c10.4-0.4,18.9-0.3,24.9-0.2c11.2,0.4,16.8,1.1,26.9,0c5.8-0.6,5.5-1.1,13.2-2c5.2-0.6,13-1.5,22.5-1.4
	c6.3,0.1,14.5,0.7,24.2,2.6c0.4,0.1,0.8,0.1,1.1-0.1c2.8-0.9,5.8-1.6,9-2.3c12.3-2.4,23.3-1.8,32.1-0.2c0.1,0,0.2,0,0.2,0
	c6.9,0.4,13.8,0.8,20.6,1.2c1.2,0.1,2.3-0.8,2.7-2.1c0.2-0.6,0.4-1.2,0.8-1.9c2.9-5.4,9.7-5.6,16.3-5.6c6.9,0,15.8,0.3,26.4,1.4
	c0.9,0.1,1.8-0.4,2.4-1.2c0.8-1.2,1.9-2.5,3.4-3.6c4.3-3.2,8.3-1.9,11.6-2.4c7.6-1.2,11.9-12.4,14.4-17.5
	c4.5-9.2,13.7-21.3,34.8-33.1c0.8-0.5,1.5-1.4,1.6-2.5c0.9-6.3,1.5-13.9,1.2-22.4c-0.1-4.8-0.5-9.2-1-13.2c-0.1-0.7-0.3-1.3-0.7-1.8
	c-0.9-1.2-1.9-2.8-2.6-5c-1.5-4.9-0.2-9.1,0.9-14.3c0,0,1-4.6,1.1-37.7c0-0.4,0-1.2-0.4-2.1c-0.9-2.2-3.3-2.8-3.9-3
	c-4.2-1.5-7.1-14.5-7.8-23.7c-1-11.9,1.3-21.8,3.3-28.3c0.1-0.3,0.2-0.6,0.2-1c0.6-9.3,0.6-17.1,0.5-22.9
	c-0.3-13.9-1.5-17.1-3.4-19.3c-1.3-1.5-4-3.1-9.3-6.2c-2.7-1.6-4.1-2.4-5.7-2.9c-4.1-1.2-5.6,0.2-9.7-0.2c-5.6-0.4-5.6-3.3-10.7-4
	c-5.4-0.7-5.8,2.3-12.9,3c-6.7,0.7-7.9-1.8-13.8-0.9c-5.5,0.9-8.2,3.6-11.4,5.3c-10.1,5.2-21.3-2.3-29.4-6.2c-8-3.9-21-4.7-47-6.2
	c-15.9-0.9-60-2.1-80.9,2.7c-3.4,0.8-8.9,2.3-15.7,0.3c-5.8-1.7-7.3-4.5-13.7-6.2c-4.4-1.2-7.2-0.8-13.9-0.3
	c-7.2,0.5-14.4,0.4-21.5,0.9c-27.7,2.1-37.5-3.9-66.6-0.5c-17.5,2.1-18.7,4.8-28.4,3.3c-13.2-2-24.6-3.8-31.1-5.8
	c-0.6-0.2-2.2-0.7-4.2-0.5c-4.6,0.5-7.7,3.9-8.3,4.6c-6.1,6.2-26.5-0.1-34.5-2.1c-6.5-1.7-33-8.5-58.7,1.4c-9,3.5-13.7,7.4-23.4,7.1
	c-9.1-0.2-12.6-3.8-24.1-4.9c-9.7-0.9-10.2,1.4-20.8,1.5c-16.1,0.2-30.2-4.8-40.6-8.5c-10.7-3.8-15.1-6.7-23.1-5.5
	c-5.8,0.9-6,2.7-15.3,5.8c-4,1.3-13.9,4.5-25.9,4.3c-11.5-0.2-12.5-3.3-21.8-2c-7,1-8.3,3-15.9,4.9c-6.9,1.6-9.8,1-22.8,0.8
	c-19.8-0.3-20.9,1.2-39.2,0.5c-5.7-0.2-3.5-0.3-16.7-1.1c-25.9-1.5-29.5-1-38.7-2.4c-6.1-0.9-14.8-2.8-25.4-6.8
	c-0.8-0.3-1.6-0.2-2.3,0.4c-5.3,4-9.7,6-12.5,7.1c-4.3,1.6-6.1,1.4-7.3,0.9c-2.4-0.9-3-2.7-4.9-2.4c-1.3,0.2-1.5,1.1-4.7,4.3
	c-1.9,1.8-2.9,2.7-3.7,3c-3.1,1.1-6.3-1.7-6.8-2.1c-4-3.5-3.5-8-6-8.5c-1.8-0.4-2.6,1.8-6.6,4.6c0,0-2.2,1.5-6.8,3.3
	c-13.1,5.2-36.3-0.6-36.3-0.6c-8.5-2.1-20.1-5.9-33.3-12.8c-0.6-0.3-1.4-0.4-2-0.1c-1.3,0.5-3.4,1.4-5.9,2.5
	c-15.6,6.5-20.1,8.5-26.5,8.2c-2.9-0.1-1.9-0.5-6.5-1.1c-6.7-0.8-10.9-0.1-23.3,1.5c-14.3,1.9-16.5,2.2-19.9,2.3
	c-6.2,0.2-5.7-0.3-12.7-0.2c-2.2,0-12.7,0.2-26.7,2.7c-7,1.2-8.1,1.9-12.8,2.7c-14.3,2.7-24.9,0.9-33.5,0
	c-24.4-2.5-22.8,3.3-45.3,1.2C335.6,298.9,323.8,288.1,312.3,298.2z"/>
<g>
	<path d="M823.1,273.9l3.8,36.7c0,1.2-0.6,1.8-1.7,2c-1.1,0.1-1.7-0.4-1.7-1.5l-1.5-12.6c-1.9-14.1-9.4-21.2-22.3-21.2h-31.8v67
		h15.9c4.1,0,7.7-1.3,10.7-4c3-2.7,4.5-5.7,4.5-9.3v-2.9c0-1,0.6-1.5,1.7-1.5c1.1,0,1.7,0.5,1.7,1.5v35.2c0,1.2-0.6,1.8-1.7,1.8
		c-1.1,0-1.7-0.6-1.7-1.8v-2.9c0-3.4-1.5-6.4-4.5-9c-3-2.6-6.6-3.9-10.7-3.9h-15.9v35.8c0,6.6,0.9,11.5,2.7,14.5
		c1.8,3,4.7,4.8,8.8,5.4c1.2,0.1,1.8,0.7,1.8,1.5c0,1.2-0.5,1.8-1.5,1.8h-53.9c-1.2,0-1.8-0.6-1.8-1.8c0-0.9,0.6-1.4,1.8-1.5
		c4.6-0.6,7.6-2.4,9.2-5.3c1.5-2.9,2.3-7.8,2.3-14.6v-86.2c0-6.8-0.8-11.6-2.3-14.6c-1.5-2.9-4.6-4.7-9.2-5.3
		c-1.2-0.1-1.8-0.7-1.8-1.5c0-1.2,0.6-1.8,1.8-1.8H823.1z"/>
	<path d="M879.7,321.4c0.4-0.4,1-0.6,1.7-0.3s1,0.8,1,1.7v60.6c0,4.4,0.4,8,1.1,10.7c0.7,2.7,2,4.8,3.6,6.3c1.7,1.5,3.9,2.4,6.7,2.9
		c1.2,0.1,1.8,0.7,1.8,1.5c0,1.2-0.5,1.8-1.5,1.8h-53.9c-1.2,0-1.8-0.6-1.8-1.8c0-0.9,0.6-1.4,1.8-1.5c4.6-0.6,7.6-2.4,9.2-5.3
		c1.5-2.9,2.3-7.8,2.3-14.6v-21.2c0-7.1-0.9-12.4-2.5-16c-1.7-3.6-4.5-5.8-8.3-6.5c-1.2-0.3-1.8-0.9-1.8-1.8c0-1,0.6-1.5,1.8-1.5
		c6.3-0.3,12.7-1.7,19.2-4.2c6.5-2.5,11-4.6,13.5-6.2C876,324.2,878.1,322.8,879.7,321.4z M864.4,273.9c4.4,0,8.5,1.7,12.3,5
		c3.8,3.3,5.6,7.6,5.6,12.9c0,5-1.7,9.3-5.2,12.8c-3.5,3.5-7.7,5.3-12.7,5.3c-4.3,0-8.3-1.7-12.2-5.1c-3.8-3.4-5.7-7.7-5.7-13
		c0-4.9,1.7-9.1,5.2-12.6C855.2,275.7,859.4,273.9,864.4,273.9z"/>
	<path d="M948.7,274.3c0.6-0.6,1.3-0.7,2-0.2c0.4,0.3,0.7,0.8,0.7,1.5v107.7c0,6.6,0.9,11.5,2.7,14.5c1.8,3,4.7,4.8,8.8,5.4
		c1.2,0.1,1.8,0.7,1.8,1.5c0,1.2-0.5,1.8-1.5,1.8h-53.9c-1.2,0-1.8-0.6-1.8-1.8c0-0.9,0.6-1.4,1.8-1.5c4.6-0.6,7.6-2.4,9.2-5.3
		c1.5-2.9,2.3-7.8,2.3-14.6V315c0-7.1-0.9-12.4-2.5-16c-1.7-3.6-4.5-5.8-8.3-6.5c-1.3-0.3-2-0.9-2-1.8c0-1,0.7-1.5,2-1.5
		c6.3-0.3,12.7-1.7,19.2-4.1c6.5-2.4,11-4.5,13.5-6.2C945,277.2,947.1,275.7,948.7,274.3z"/>
	<path d="M1018.8,320.8c0.3,0,0.6,0.1,0.9,0.2c0.4,0.3,0.7,0.8,0.7,1.5v8.2c5.3-6.3,12.6-9.5,21.9-9.5c16.8,0,28,6.2,33.6,18.6
		c5.3-11.6,14.8-17.8,28.5-18.6c21.4,0,33.7,10.3,36.9,31l3.8,31.2c0.7,6.5,2.1,11.2,4.2,14.3c2.1,3,5.2,4.9,9.5,5.6
		c1.3,0.1,2,0.7,2,1.5c0.1,1.2-0.4,1.8-1.8,1.8h-53.5c-1.3,0-2-0.6-2-1.8c0-0.9,0.7-1.4,2-1.5c4.3-0.7,7-2.5,8.2-5.4
		c1.2-2.9,1.3-7.7,0.4-14.5l-3.5-34.3c-0.7-6-2.7-11.1-6-15.1c-3.2-4.1-7.4-5.8-12.6-5.2c-9.6,1.3-13.7,10.2-12.4,26.8l3.3,27.9
		c0.9,6.5,2.4,11.2,4.4,14.3c2.1,3,5.2,4.9,9.5,5.6c1.3,0.1,2,0.7,2,1.5c0,1.2-0.6,1.8-1.8,1.8h-53.5c-1.3,0-2-0.6-2-1.8
		c0-0.9,0.7-1.4,2-1.5c4.3-0.7,7-2.5,8.1-5.4s1.3-7.7,0.6-14.5l-3.5-34.3c-0.9-6.6-2.7-12.1-5.3-16.5c-2.7-4.3-6.5-6.2-11.5-5.4
		c-4.7,0.6-7.8,3.3-9.3,8.1c-1.5,4.8-2.2,12.5-2.2,23.1v25c0,6.6,0.9,11.5,2.7,14.5c1.8,3,4.7,4.8,8.8,5.4c1.2,0.1,1.8,0.7,1.8,1.5
		c0,1.2-0.5,1.8-1.5,1.8h-53.9c-1.2,0-1.8-0.6-1.8-1.8c0-0.9,0.6-1.4,1.8-1.5c4.6-0.6,7.6-2.4,9.2-5.3c1.5-2.9,2.3-7.8,2.3-14.6
		v-21.2c0-5-0.2-8.8-0.7-11.5c-0.4-2.7-1.5-5-3.1-7.1c-1.6-2.1-4-3.5-7.1-4.2c-1.2-0.3-1.8-0.9-1.8-1.8c0-1,0.6-1.6,1.8-1.8
		c6.3-0.1,12.7-1.5,19.2-4c6.5-2.5,11-4.6,13.5-6.2c2.5-1.6,4.6-3.1,6.2-4.4C1017.9,320.9,1018.3,320.8,1018.8,320.8z"/>
	<path d="M792.7,455.5c8.7-2.4,18.4-3.2,29.2-2.4c4.3,0.3,8.4,0.8,12.3,1.4c3.9,0.7,6.9,1.3,8.8,1.8c2,0.5,3.8,0.9,5.5,1.2
		c1.7,0.3,2.9,0.3,3.8,0c0.8-0.3,1.5-1,2.1-2.2c0.3-0.9,0.9-1.3,1.8-1.1c0.9,0.1,1.3,0.7,1.3,1.8v28.5c0,1-0.5,1.6-1.5,1.8
		c-0.9,0-1.5-0.4-1.8-1.3c-1.6-5.9-3.7-10.8-6.3-14.8c-2.6-4-5.5-6.9-8.7-8.8c-3.2-1.9-6.3-3.2-9.3-4c-2.9-0.7-6.3-1.1-9.9-1.1
		c-5.3,0-10.5,1.3-15.5,4c-5,2.7-9.7,6.5-13.9,11.6c-4.3,5.1-7.7,11.9-10.3,20.3c-2.6,8.5-3.9,18-3.9,28.5c0,10.5,1.2,20,3.6,28.5
		c2.4,8.5,5.7,15.2,9.8,20.2c4.1,5,8.7,8.8,13.6,11.4c4.9,2.6,10,3.9,15.1,3.9c8.3-0.1,15.7-3.1,22.2-8.7c6.6-5.7,11-13.2,13.4-22.4
		c0.3-0.9,0.9-1.3,1.9-1.2c1,0.1,1.4,0.6,1.4,1.7V585c0,1-0.4,1.6-1.1,1.8c-0.7,0.1-1.4-0.2-2-1.1c-1-1.5-2.8-2.2-5.4-2.3
		c-2.6-0.1-5.5,0.3-8.6,1c-3.2,0.7-7.4,1.5-12.7,2.4c-5.3,0.9-10.4,1.3-15.3,1.3c-6.5-0.1-12.5-0.8-17.9-2
		c-14.6-3.5-26.4-11.4-35.5-23.5c-9.1-12.2-13.6-26.2-13.6-42.1c0-15.5,4.3-29.2,13-41.1C767.1,467.4,778.6,459.4,792.7,455.5z"/>
	<path d="M910.5,454.6c0.6-0.6,1.3-0.7,2-0.2c0.4,0.3,0.7,0.8,0.7,1.5v107.7c0,6.6,0.9,11.5,2.7,14.5c1.8,3,4.7,4.8,8.8,5.4
		c1.2,0.1,1.8,0.7,1.8,1.5c0,1.2-0.5,1.8-1.5,1.8H871c-1.2,0-1.8-0.6-1.8-1.8c0-0.9,0.6-1.4,1.8-1.5c4.6-0.6,7.6-2.4,9.2-5.3
		c1.5-2.9,2.3-7.8,2.3-14.6v-68.3c0-7.1-0.9-12.4-2.5-16c-1.7-3.6-4.5-5.8-8.3-6.5c-1.3-0.3-2-0.9-2-1.8c0-1,0.7-1.5,2-1.5
		c6.3-0.3,12.7-1.7,19.2-4.1c6.5-2.4,11-4.5,13.5-6.2C906.9,457.4,908.9,455.9,910.5,454.6z"/>
	<path d="M966.7,501.2c1.2,0,1.8,0.6,1.8,1.8v53.9c0,7.8,1.1,14.2,3.3,19.2c2.2,5,5.8,7.5,10.8,7.5c4.7-0.1,8.5-3.2,11.3-9.3
		c2.8-6,4.2-12.7,4.2-19.9v-12.2c0-4.7-0.3-8.6-1-11.7c-0.7-3.1-1.8-5.6-3.4-7.4c-1.6-1.8-3.7-3-6.2-3.4c-1.3-0.3-2-0.9-2-1.8
		c0-1,0.6-1.5,1.8-1.5c5-0.1,9.9-0.9,14.7-2.3c4.8-1.4,9-3.1,12.5-5c3.5-1.9,6.1-3.4,7.7-4.5c1.6-1.1,2.9-2.1,4-3
		c0.3-0.3,0.7-0.4,1.1-0.4c1.2,0,1.8,0.6,1.8,1.8v56.4c0,5.5,0.4,9.9,1.3,13.3c1.2,4.1,3.2,6.5,6.2,7.1c0.3,0.1,0.9,0.2,1.9,0.1
		c1-0.1,1.5-0.1,1.7-0.1c0.9,0,1.4,0.4,1.7,1.2c0.2,0.8,0,1.4-0.8,1.9c-6.5,3.5-12.9,5.3-19.2,5.3c-10.6,0-17.8-3.3-21.7-9.9
		c-5,6.8-14,10.1-27,9.9c-10.5,0-19-2.7-25.6-8.2c-6.6-5.5-9.9-13.1-9.9-23v-14.6c0-7.1-0.8-12.4-2.4-16c-1.6-3.6-4.3-5.8-8.2-6.5
		c-1.3-0.3-2-0.9-2-1.8c0-1,0.6-1.5,1.8-1.5c6.5-0.3,13-1.7,19.5-4.2c6.5-2.5,10.9-4.6,13.4-6.2c2.4-1.6,4.5-3.1,6.1-4.4
		C965.9,501.4,966.3,501.2,966.7,501.2z"/>
	<path d="M1080.8,454.6c0.6-0.6,1.3-0.7,2-0.2c0.6,0.3,0.9,0.8,0.9,1.5v53.3c6.5-4.9,13.4-7.4,20.8-7.7c7.4-0.3,14,1.3,19.9,4.8
		c5.9,3.5,10.9,8.4,14.9,14.9c4.1,6.5,6.2,13.6,6.3,21.2c0.3,12.2-3.1,22.8-10.1,31.6c-7,8.8-15.9,13.6-26.6,14.4
		c-11.4,0.7-21.2-3.4-29.6-12.4l-24.1,10.6c-1.6,0.6-2.4,0.1-2.4-1.5v-89.8c0-7.1-0.8-12.4-2.4-16c-1.6-3.6-4.4-5.8-8.4-6.5
		c-1.2,0-1.8-0.6-1.8-1.8c0-1,0.6-1.5,1.8-1.5c4.9-0.1,9.7-0.9,14.6-2.3c4.9-1.4,9.1-3.1,12.6-5c3.5-1.9,6.1-3.4,7.7-4.5
		C1078.4,456.4,1079.7,455.5,1080.8,454.6z M1092.7,508.3c-2.7,0-4.8,1.3-6.4,4c-4.1,6.6-3.8,19.3,1.1,38
		c3.1,11.1,6.8,19.8,11.2,26.3c4.3,6.5,8.7,9.1,12.9,8c4.1-1,6.4-5.9,6.7-14.5c0.4-8.6-0.9-17.6-3.6-27.1
		c-1.8-6.8-3.8-12.7-6.2-17.9c-2.4-5.2-4.9-9.2-7.6-12.3C1098.1,509.8,1095.4,508.3,1092.7,508.3z"/>
</g>
<g>
	<path d="M917.6,211.5c0,0.5,0,0.8-0.1,1.2c-0.1,0.3-0.1,0.6-0.3,0.8c-0.1,0.2-0.3,0.4-0.4,0.4c-0.2,0.1-0.4,0.1-0.6,0.1H902v40.1
		c0,0.2-0.1,0.4-0.2,0.5c-0.1,0.1-0.3,0.3-0.5,0.3c-0.3,0.1-0.6,0.2-1,0.2c-0.4,0.1-1,0.1-1.6,0.1c-0.6,0-1.2,0-1.6-0.1
		c-0.4-0.1-0.8-0.1-1.1-0.2c-0.3-0.1-0.4-0.2-0.5-0.3s-0.2-0.3-0.2-0.5v-40.1h-14.2c-0.2,0-0.4,0-0.6-0.1c-0.2-0.1-0.3-0.2-0.4-0.4
		c-0.1-0.2-0.2-0.5-0.3-0.8c-0.1-0.3-0.1-0.7-0.1-1.2c0-0.5,0-0.9,0.1-1.2c0.1-0.3,0.1-0.6,0.3-0.8s0.2-0.4,0.4-0.5
		c0.2-0.1,0.4-0.1,0.6-0.1h35.2c0.2,0,0.4,0,0.6,0.1c0.2,0.1,0.3,0.3,0.4,0.5s0.2,0.5,0.3,0.8C917.6,210.6,917.6,211,917.6,211.5z"
		/>
	<path d="M964.5,254.2c0,0.2-0.1,0.4-0.2,0.5c-0.1,0.1-0.3,0.3-0.5,0.3c-0.3,0.1-0.6,0.2-1,0.2c-0.4,0.1-1,0.1-1.6,0.1
		c-0.7,0-1.2,0-1.6-0.1c-0.4-0.1-0.8-0.1-1-0.2c-0.3-0.1-0.4-0.2-0.5-0.3s-0.2-0.3-0.2-0.5v-20.5h-23v20.5c0,0.2-0.1,0.4-0.2,0.5
		c-0.1,0.1-0.3,0.3-0.5,0.3c-0.3,0.1-0.6,0.2-1,0.2c-0.4,0.1-1,0.1-1.6,0.1c-0.6,0-1.2,0-1.6-0.1c-0.4-0.1-0.8-0.1-1.1-0.2
		c-0.3-0.1-0.4-0.2-0.5-0.3c-0.1-0.1-0.2-0.3-0.2-0.5v-44.4c0-0.2,0.1-0.4,0.2-0.5c0.1-0.1,0.3-0.3,0.5-0.3s0.6-0.2,1.1-0.2
		c0.4-0.1,1-0.1,1.6-0.1c0.7,0,1.2,0,1.6,0.1s0.8,0.1,1,0.2c0.3,0.1,0.4,0.2,0.5,0.3c0.1,0.1,0.2,0.3,0.2,0.5v18.5h23v-18.5
		c0-0.2,0.1-0.4,0.2-0.5s0.3-0.3,0.5-0.3c0.3-0.1,0.6-0.2,1-0.2s1-0.1,1.6-0.1c0.6,0,1.2,0,1.6,0.1s0.8,0.1,1,0.2
		c0.3,0.1,0.4,0.2,0.5,0.3c0.1,0.1,0.2,0.3,0.2,0.5V254.2z"/>
	<path d="M1009.3,252.5c0,0.4,0,0.8-0.1,1.1c-0.1,0.3-0.1,0.6-0.3,0.8c-0.1,0.2-0.3,0.4-0.5,0.5c-0.2,0.1-0.4,0.1-0.6,0.1h-24.3
		c-0.6,0-1.2-0.2-1.7-0.6c-0.5-0.4-0.8-1-0.8-1.9v-41.2c0-0.9,0.3-1.6,0.8-1.9c0.5-0.4,1.1-0.6,1.7-0.6h24c0.2,0,0.4,0,0.6,0.1
		c0.2,0.1,0.3,0.3,0.4,0.5s0.2,0.5,0.3,0.8c0.1,0.3,0.1,0.7,0.1,1.2c0,0.4,0,0.8-0.1,1.1c-0.1,0.3-0.2,0.6-0.3,0.8
		c-0.1,0.2-0.2,0.4-0.4,0.4c-0.2,0.1-0.4,0.1-0.6,0.1h-19.8v14.5h17c0.2,0,0.4,0.1,0.6,0.2c0.2,0.1,0.3,0.3,0.4,0.4
		c0.1,0.2,0.2,0.5,0.3,0.8c0.1,0.3,0.1,0.7,0.1,1.2c0,0.4,0,0.8-0.1,1.1c-0.1,0.3-0.1,0.6-0.3,0.8c-0.1,0.2-0.3,0.3-0.4,0.4
		s-0.4,0.1-0.6,0.1h-17V250h20.1c0.2,0,0.4,0,0.6,0.1c0.2,0.1,0.3,0.2,0.5,0.4c0.1,0.2,0.2,0.5,0.3,0.8
		C1009.3,251.7,1009.3,252.1,1009.3,252.5z"/>
</g>
<g>
	<path d="M780.3,691c0,0.1,0,0.3-0.1,0.4c-0.1,0.1-0.2,0.2-0.4,0.3c-0.2,0.1-0.4,0.1-0.7,0.2c-0.3,0-0.6,0.1-1.1,0.1
		c-0.4,0-0.8,0-1-0.1c-0.3,0-0.5-0.1-0.7-0.2c-0.2-0.1-0.3-0.2-0.4-0.3c-0.1-0.1-0.1-0.2-0.1-0.4v-41c0-0.1,0-0.2,0.1-0.4
		c0.1-0.1,0.2-0.2,0.4-0.3s0.4-0.1,0.7-0.2c0.3,0,0.6-0.1,1-0.1c0.4,0,0.8,0,1.1,0.1c0.3,0,0.5,0.1,0.7,0.2c0.2,0.1,0.3,0.2,0.4,0.3
		c0.1,0.1,0.1,0.2,0.1,0.4V691z"/>
	<path d="M800.4,691c0,0.1,0,0.3-0.1,0.4c-0.1,0.1-0.2,0.2-0.4,0.3c-0.2,0.1-0.4,0.1-0.7,0.2c-0.3,0-0.6,0.1-1.1,0.1
		c-0.4,0-0.8,0-1-0.1c-0.3,0-0.5-0.1-0.7-0.2c-0.2-0.1-0.3-0.2-0.4-0.3c-0.1-0.1-0.1-0.2-0.1-0.4v-41c0-0.1,0-0.2,0.1-0.4
		c0.1-0.1,0.2-0.2,0.4-0.3s0.4-0.1,0.7-0.2c0.3,0,0.6-0.1,1-0.1c0.4,0,0.8,0,1.1,0.1c0.3,0,0.5,0.1,0.7,0.2c0.2,0.1,0.3,0.2,0.4,0.3
		c0.1,0.1,0.1,0.2,0.1,0.4V691z"/>
	<path d="M844.2,651.1c0,0.3,0,0.5-0.1,0.8c0,0.2-0.1,0.4-0.2,0.5c-0.1,0.1-0.2,0.3-0.4,0.3c-0.1,0.1-0.3,0.1-0.5,0.1h-13.8V691
		c0,0.1,0,0.3-0.1,0.4s-0.2,0.2-0.4,0.3c-0.2,0.1-0.4,0.1-0.7,0.2c-0.3,0-0.6,0.1-1,0.1c-0.4,0-0.8,0-1-0.1c-0.3,0-0.5-0.1-0.7-0.2
		c-0.2-0.1-0.3-0.2-0.4-0.3c-0.1-0.1-0.1-0.2-0.1-0.4v-38.1h-13.8c-0.2,0-0.4,0-0.5-0.1c-0.1-0.1-0.2-0.2-0.3-0.3
		c-0.1-0.1-0.2-0.3-0.2-0.5c0-0.2-0.1-0.5-0.1-0.8c0-0.3,0-0.6,0.1-0.8c0-0.2,0.1-0.4,0.2-0.6c0.1-0.2,0.2-0.3,0.3-0.3
		c0.1-0.1,0.3-0.1,0.5-0.1h32c0.2,0,0.3,0,0.5,0.1c0.1,0.1,0.3,0.2,0.4,0.3c0.1,0.2,0.2,0.3,0.2,0.6
		C844.2,650.6,844.2,650.8,844.2,651.1z"/>
	<path d="M900.7,690.9c0,0.2,0,0.3-0.1,0.4c0,0.1-0.2,0.2-0.3,0.3s-0.4,0.1-0.7,0.2c-0.3,0-0.7,0.1-1.1,0.1c-0.4,0-0.9,0-1.3-0.1
		c-0.4,0-0.8-0.1-1-0.3c-0.2-0.1-0.4-0.3-0.6-0.5l-18.7-21.7V691c0,0.1,0,0.3-0.1,0.4c-0.1,0.1-0.2,0.2-0.4,0.3
		c-0.2,0.1-0.4,0.1-0.7,0.2c-0.3,0-0.6,0.1-1.1,0.1c-0.4,0-0.8,0-1-0.1c-0.3,0-0.5-0.1-0.7-0.2c-0.2-0.1-0.3-0.2-0.4-0.3
		c-0.1-0.1-0.1-0.2-0.1-0.4v-41c0-0.1,0-0.2,0.1-0.4c0.1-0.1,0.2-0.2,0.4-0.3s0.4-0.1,0.7-0.2c0.3,0,0.6-0.1,1-0.1
		c0.4,0,0.8,0,1.1,0.1c0.3,0,0.5,0.1,0.7,0.2s0.3,0.2,0.4,0.3c0.1,0.1,0.1,0.2,0.1,0.4v19.2l17.9-19.2c0.1-0.2,0.3-0.3,0.5-0.4
		c0.2-0.1,0.4-0.2,0.6-0.3s0.5-0.1,0.8-0.1c0.3,0,0.6,0,1.1,0c0.4,0,0.8,0,1,0.1c0.3,0,0.5,0.1,0.6,0.2s0.3,0.2,0.3,0.3
		c0,0.1,0.1,0.2,0.1,0.3c0,0.2-0.1,0.5-0.2,0.7c-0.1,0.2-0.4,0.5-0.7,0.8L882,669.1l18,20.6c0.3,0.4,0.5,0.7,0.6,0.8
		C900.7,690.7,900.7,690.8,900.7,690.9z"/>
	<path d="M944.5,690.3c0.1,0.3,0.2,0.6,0.2,0.8c0,0.2-0.1,0.4-0.2,0.5c-0.2,0.1-0.4,0.2-0.7,0.2c-0.3,0-0.7,0-1.2,0s-0.9,0-1.2,0
		c-0.3,0-0.5-0.1-0.7-0.1s-0.3-0.2-0.4-0.3c-0.1-0.1-0.2-0.2-0.2-0.4l-4.4-11.3h-20.3l-4.3,11.2c0,0.2-0.1,0.3-0.2,0.4
		c-0.1,0.1-0.2,0.2-0.4,0.3c-0.2,0.1-0.4,0.1-0.7,0.2c-0.3,0-0.7,0.1-1.1,0.1c-0.5,0-0.9,0-1.3-0.1c-0.3,0-0.6-0.1-0.7-0.2
		c-0.2-0.1-0.2-0.3-0.2-0.5c0-0.2,0.1-0.5,0.2-0.8l16.2-40.3c0.1-0.2,0.2-0.3,0.3-0.4c0.1-0.1,0.3-0.2,0.6-0.3
		c0.2-0.1,0.5-0.1,0.8-0.1c0.3,0,0.7,0,1.1,0c0.4,0,0.8,0,1.1,0c0.3,0,0.6,0.1,0.8,0.1s0.4,0.2,0.5,0.3c0.1,0.1,0.2,0.3,0.3,0.4
		L944.5,690.3z M925.3,653.6L925.3,653.6l-8.8,22.8h17.7L925.3,653.6z"/>
	<path d="M988.4,689.7c0,0.4-0.1,0.7-0.2,1s-0.3,0.5-0.5,0.6c-0.2,0.2-0.4,0.3-0.7,0.3c-0.2,0.1-0.5,0.1-0.7,0.1h-0.9
		c-0.5,0-0.9-0.1-1.3-0.2c-0.4-0.1-0.8-0.3-1.1-0.6c-0.4-0.3-0.7-0.6-1.1-1.1c-0.4-0.5-0.8-1-1.2-1.8l-16.3-26.4
		c-0.8-1.3-1.6-2.6-2.5-4c-0.8-1.4-1.6-2.7-2.3-4h0c0,1.6,0,3.2,0,4.9s0,3.3,0,4.9V691c0,0.1,0,0.3-0.1,0.4
		c-0.1,0.1-0.2,0.2-0.4,0.3c-0.2,0.1-0.4,0.1-0.7,0.2c-0.3,0-0.6,0.1-1.1,0.1c-0.4,0-0.8,0-1-0.1c-0.3,0-0.5-0.1-0.7-0.2
		c-0.2-0.1-0.3-0.2-0.4-0.3c-0.1-0.1-0.1-0.2-0.1-0.4v-39.6c0-0.8,0.2-1.3,0.7-1.6c0.5-0.3,0.9-0.4,1.3-0.4h1.8c0.6,0,1,0,1.4,0.1
		c0.4,0.1,0.7,0.2,1,0.4c0.3,0.2,0.6,0.5,0.9,0.9c0.3,0.4,0.6,0.9,1,1.5l12.5,20.2c0.8,1.3,1.5,2.5,2.2,3.6c0.7,1.2,1.4,2.3,2.1,3.4
		c0.7,1.1,1.3,2.2,2,3.3c0.7,1.1,1.3,2.2,1.9,3.3h0c0-1.8,0-3.7,0-5.7c0-2,0-3.9,0-5.7v-24.6c0-0.1,0-0.2,0.1-0.4
		c0.1-0.1,0.2-0.2,0.4-0.3c0.2-0.1,0.4-0.1,0.7-0.2c0.3,0,0.6,0,1.1,0c0.4,0,0.7,0,1,0c0.3,0,0.5,0.1,0.7,0.2
		c0.2,0.1,0.3,0.2,0.4,0.3c0.1,0.1,0.1,0.2,0.1,0.4V689.7z"/>
	<path d="M1030.8,661.4c0,2-0.4,3.8-1.1,5.4c-0.7,1.6-1.8,3-3.1,4.2c-1.4,1.2-3,2.1-5,2.7c-2,0.7-4.3,1-7.1,1h-6V691
		c0,0.1,0,0.3-0.1,0.4c-0.1,0.1-0.2,0.2-0.4,0.3c-0.2,0.1-0.4,0.1-0.7,0.2c-0.3,0-0.6,0.1-1.1,0.1c-0.4,0-0.8,0-1-0.1
		c-0.3,0-0.5-0.1-0.7-0.2c-0.2-0.1-0.3-0.2-0.4-0.3c-0.1-0.1-0.1-0.2-0.1-0.4v-39.6c0-0.8,0.2-1.3,0.7-1.6c0.5-0.3,0.9-0.4,1.3-0.4
		h9.4c0.9,0,1.8,0,2.7,0.1s1.9,0.2,3.1,0.5s2.4,0.7,3.6,1.4s2.3,1.5,3.1,2.5c0.9,1,1.5,2.1,2,3.4
		C1030.5,658.5,1030.8,659.9,1030.8,661.4z M1026.1,661.8c0-1.8-0.4-3.4-1.2-4.7s-1.7-2.2-2.9-2.8s-2.3-1-3.5-1.2
		c-1.2-0.2-2.4-0.2-3.5-0.2h-6.6v18.4h6.3c2,0,3.7-0.2,5.1-0.7s2.5-1.1,3.4-1.9c0.9-0.8,1.6-1.8,2.1-3
		C1025.9,664.4,1026.1,663.2,1026.1,661.8z"/>
	<path d="M1076.7,676c0,2.6-0.4,4.9-1.2,6.9s-1.9,3.7-3.4,5.1c-1.5,1.4-3.3,2.4-5.4,3.1c-2.1,0.7-4.4,1.1-7,1.1
		c-2.4,0-4.5-0.3-6.5-1c-2-0.7-3.7-1.7-5.2-3c-1.4-1.3-2.6-3-3.4-4.9s-1.2-4.2-1.2-6.8V650c0-0.1,0-0.2,0.1-0.4s0.2-0.2,0.4-0.3
		c0.2-0.1,0.4-0.1,0.7-0.2c0.3,0,0.6-0.1,1-0.1c0.4,0,0.8,0,1,0.1c0.3,0,0.5,0.1,0.7,0.2s0.3,0.2,0.4,0.3c0.1,0.1,0.1,0.2,0.1,0.4
		v25.9c0,2.1,0.3,4,0.8,5.6c0.6,1.6,1.4,2.9,2.4,4c1.1,1.1,2.3,1.9,3.9,2.4c1.5,0.5,3.2,0.8,5.1,0.8c1.9,0,3.7-0.3,5.2-0.8
		c1.5-0.5,2.8-1.3,3.8-2.3c1-1,1.9-2.3,2.4-3.9c0.6-1.6,0.8-3.4,0.8-5.5V650c0-0.1,0-0.2,0.1-0.4s0.2-0.2,0.4-0.3s0.4-0.1,0.7-0.2
		c0.3,0,0.6-0.1,1-0.1c0.4,0,0.8,0,1,0.1c0.3,0,0.5,0.1,0.7,0.2s0.3,0.2,0.4,0.3c0.1,0.1,0.1,0.2,0.1,0.4V676z"/>
	<path d="M1121.3,690.9c0,0.2,0,0.3-0.1,0.4c-0.1,0.1-0.2,0.2-0.3,0.3c-0.2,0.1-0.4,0.1-0.7,0.2c-0.3,0-0.7,0.1-1.1,0.1
		c-0.4,0-0.7,0-1,0c-0.3,0-0.5-0.1-0.7-0.2c-0.2-0.1-0.3-0.2-0.5-0.4c-0.1-0.2-0.2-0.4-0.3-0.6l-4.3-10.3c-0.5-1.2-1-2.2-1.6-3.3
		c-0.6-1-1.3-1.9-2.1-2.7c-0.8-0.8-1.8-1.3-2.9-1.8c-1.1-0.4-2.5-0.7-4.1-0.7h-4.8V691c0,0.1,0,0.3-0.1,0.4
		c-0.1,0.1-0.2,0.2-0.4,0.3c-0.2,0.1-0.4,0.1-0.7,0.2c-0.3,0-0.6,0.1-1.1,0.1c-0.4,0-0.8,0-1-0.1c-0.3,0-0.5-0.1-0.7-0.2
		c-0.2-0.1-0.3-0.2-0.4-0.3c-0.1-0.1-0.1-0.2-0.1-0.4v-39.6c0-0.8,0.2-1.3,0.7-1.6c0.5-0.3,0.9-0.4,1.3-0.4h8.7c1.1,0,2.1,0,2.8,0.1
		c0.8,0.1,1.4,0.1,2.1,0.2c1.8,0.3,3.3,0.7,4.6,1.4c1.3,0.6,2.4,1.4,3.3,2.3c0.9,0.9,1.5,2,1.9,3.1c0.4,1.2,0.6,2.4,0.6,3.8
		c0,1.4-0.2,2.6-0.6,3.7c-0.4,1.1-1,2.1-1.8,2.9c-0.8,0.8-1.7,1.6-2.8,2.2c-1.1,0.6-2.3,1.1-3.6,1.5c0.8,0.3,1.5,0.7,2.1,1.2
		c0.6,0.5,1.2,1.1,1.8,1.7c0.5,0.7,1,1.5,1.5,2.3c0.5,0.9,1,1.9,1.4,3l4.3,9.9c0.3,0.8,0.5,1.3,0.6,1.6
		C1121.2,690.6,1121.3,690.8,1121.3,690.9z M1113.6,660.6c0-1.8-0.4-3.3-1.3-4.6c-0.9-1.3-2.4-2.2-4.4-2.7c-0.7-0.2-1.4-0.3-2.3-0.4
		c-0.8-0.1-1.9-0.1-3.2-0.1h-5.7v15.5h6.7c1.8,0,3.3-0.2,4.6-0.6s2.4-1,3.2-1.7c0.8-0.7,1.5-1.5,1.9-2.5S1113.6,661.7,1113.6,660.6z
		"/>
</g>
</svg>
