<?xml version="1.0" encoding="utf-8"?>
<!-- Generator: Adobe Illustrator 24.3.0, SVG Export Plug-In . SVG Version: 6.00 Build 0)  -->
<svg version="1.1" id="Layer_1" xmlns="http://www.w3.org/2000/svg" xmlns:xlink="http://www.w3.org/1999/xlink" x="0px" y="0px"
	 viewBox="0 0 1895.9 812" style="enable-background:new 0 0 1895.9 812;" xml:space="preserve">
<style type="text/css">
	.st0{fill:#FBEF5C;}
</style>
<path class="st0" d="M246.4,296.3c-1.9,1.5-9.2,7.6-10.6,17.1c-1.2,8.4,3,10.8,1.5,20.5c-0.9,6.2-3.6,10.8-7,16.7
	c-4.3,7.5-5.6,7-8.1,12.1c-4.3,8.8-4.1,17.6-4,23c0.1,4,0.4,13.9,5.2,23.7c2.2,4.5,5.5,9.2,6.8,11c3.2,4.6,4.8,6.8,6.1,8.3
	c1.3,1.3,2.8,2.8,4.3,5.5c0.4,0.8,1.2,2.3,1.6,4.1c0.4,1.5,0.8,4.4-2,12.4c-0.4,1-1.3,3.5-4.2,9.9c-2.5,5.5-3.8,8.2-4.7,9.6
	c-3.6,5.8-8,8.9-11.5,11.3c-4.7,3.3-9.3,5.2-13.2,6.4c-0.8,0.2-1.4,0.8-1.9,1.5c-0.4,0.7-0.7,1.4-1,2c-3.9,9.2-0.3,19.5,1.1,23
	c0,0.1,0.1,0.2,0.2,0.3c7,13.4,11.9,16.1,15.1,15.8c0.9-0.1,1.8-0.4,3.3-0.2c5.4,0.6,8.9,6.2,10,7.9c7,10.6,22.2,21.9,29.5,25.9
	c9.9,5.4,18.9,5,30.6,4.5c12.3-0.5,13.1-3.2,35.2-7.4c14.2-2.7,21.4-4.1,31.9-4c9.1,0.1,12.2,1.3,27.6,2.3c8.7,0.6,16,0.8,21.2,0.8
	c1,0,1.9,0.5,2.4,1.4c2.2,3.4,5.5,7.3,10.4,9.8c5.6,2.8,9.5,1.7,25.2-0.8c21.3-3.5,22.9-2.9,36.2-6c4-0.9,8.5-3.9,15.2-3.9
	c5,0,5.9,1.3,12.9,2.3c6.7,0.9,11.7,0.6,18.4,0.2c9.6-0.6,9.2-1.5,18.1-2.2c11.1-0.8,10.4,0.7,22.8-0.1c9.6-0.6,11.8-1.6,17.2-0.2
	c5.3,1.4,5.8,3,11.5,3.9c3.5,0.5,6.9,0.4,13.7,0c5.1-0.3,5.8-0.5,8.8-0.6c7.5-0.3,13,0.6,16.1,1.1c15,2.2,17-1.3,35.3,0.6
	c13.3,1.4,15.7,3.6,25.8,2.8c4.8-0.4,7.1-1.1,14-1.4c9.5-0.4,11,0.6,18,0.5c14-0.3,15.9-4.8,26.7-4.4c8.6,0.4,14.4,3.5,18.4,5.3
	c10.3,4.6,26.9,7.9,54.3,2c0.8-0.2,1.6-0.8,2-1.6c0.4-0.6,0.9-1.3,1.6-1.7c1-0.7,2.1-0.8,2.5-0.8c9.9-0.6,17.5-3.8,29.8,0.3
	c3.4,1.2,2.8,1.4,6.3,2.7c3.3,1.2,12.7,4.2,33.8,0.8c3.8-0.6,18.2-3.1,29.3-2.8c2.3,0.1,6.3,0.3,8.4,3.3c2,2.9,1.1,6.6,2.9,7.5
	c1.7,0.9,4-1.6,6-3.1c2.4-1.8,5.8-3.2,18.8-2c12.2,1.1,15.2,2.8,23.4,3.8c5.3,0.6,13,0.9,22.6-0.8c0.8-0.2,1.6-0.7,2.1-1.5l0.7-1.1
	c0.6-1,1.7-1.6,2.8-1.5c5.5,0.5,13.3,1.1,22.7,0.8c13.9-0.5,19-2.3,28.2-2c7.2,0.2,17.7,1.8,30.4,8.2c1,0.5,2.2,0.4,3.1-0.4
	c0.7-0.6,1.6-1.3,2.6-2c1.8-1.3,5-3.4,9.2-4.1c1.1-0.2,9.1-1.3,15.1,4.7c0.6,0.6,1.1,1.2,1.5,1.7c0.7,0.9,1.7,1.3,2.7,1.2
	c2.9-0.4,6.7-0.8,11.3-1c14.4-0.6,22.5,1.5,32.7,2.8c24.6,3.1,22.5-4,45-0.9c0,0,19,2.6,30.8-1.9c3.6-1.4,3.7-1.4,3.7-1.4
	c4.1-1.6,4.6-1.9,5.4-2c3.9-0.7,7.5,4.3,8.7,5.6c6.5,7.7,21,5,39.2,3.4c9-0.8,22.2-1.5,38.9-1.1c11.5-0.5,20.9-0.3,27.5-0.2
	c12.3,0.4,18.6,1.1,29.7,0c6.4-0.7,6.1-1.1,14.6-2c5.8-0.6,14.3-1.6,24.9-1.4c7,0.1,16.1,0.7,26.7,2.7c0.4,0.1,0.8,0.1,1.2-0.1
	c3.1-0.9,6.5-1.7,10-2.3c13.6-2.5,25.7-1.8,35.5-0.2c0.1,0,0.2,0,0.3,0c7.6,0.4,15.2,0.8,22.8,1.3c1.3,0.1,2.5-0.8,3-2.2
	c0.2-0.6,0.5-1.3,0.9-1.9c3.2-5.6,10.8-5.8,18-5.8c7.6,0,17.5,0.3,29.2,1.4c1,0.1,2-0.4,2.6-1.3c0.9-1.2,2.1-2.6,3.8-3.8
	c4.7-3.3,9.2-2,12.8-2.5c8.4-1.3,13.2-12.8,15.9-18c4.9-9.5,15.1-22,38.5-34.2c0.9-0.5,1.6-1.5,1.8-2.6c1-6.5,1.6-14.3,1.4-23.1
	c-0.1-4.9-0.5-9.5-1.1-13.6c-0.1-0.7-0.4-1.4-0.8-1.9c-1-1.2-2.2-2.9-2.9-5.2c-1.7-5.1-0.2-9.4,1-14.7c0,0,1.1-4.7,1.2-38.9
	c0-0.4,0-1.3-0.4-2.2c-1-2.3-3.6-2.9-4.3-3.1c-4.6-1.5-7.8-14.9-8.7-24.5c-1.1-12.2,1.4-22.5,3.7-29.1c0.1-0.3,0.2-0.7,0.2-1
	c0.6-9.6,0.7-17.7,0.5-23.6c-0.4-14.3-1.7-17.6-3.7-19.9c-1.4-1.5-4.4-3.2-10.3-6.4c-3-1.7-4.6-2.5-6.3-3c-4.5-1.2-6.2,0.2-10.7-0.2
	c-6.2-0.5-6.2-3.4-11.8-4.1c-5.9-0.7-6.4,2.4-14.3,3.1c-7.4,0.7-8.7-1.9-15.3-0.9c-6.1,0.9-9.1,3.7-12.6,5.5
	c-11.1,5.4-23.5-2.3-32.4-6.4c-8.9-4.1-23.2-4.9-52-6.4c-17.6-1-66.3-2.2-89.4,2.8c-3.7,0.8-9.8,2.4-17.3,0.3
	c-6.4-1.8-8.1-4.7-15.1-6.4c-4.9-1.2-8-0.8-15.4-0.3c-7.9,0.5-15.9,0.4-23.8,0.9c-30.6,2.2-41.4-4-73.6-0.5
	c-19.3,2.1-20.7,5-31.3,3.4c-14.6-2.1-27.2-3.9-34.4-6c-0.6-0.2-2.4-0.7-4.7-0.5c-5,0.5-8.5,4-9.2,4.7c-6.8,6.4-29.3-0.1-38.1-2.2
	c-7.2-1.7-36.5-8.7-64.9,1.4c-10,3.6-15.2,7.6-25.8,7.4c-10-0.2-14-3.9-26.7-5c-10.7-0.9-11.3,1.4-23,1.6c-17.8,0.2-33.4-5-44.8-8.8
	c-11.8-3.9-16.7-6.9-25.6-5.6c-6.4,0.9-6.6,2.8-16.9,6c-4.4,1.4-15.3,4.6-28.6,4.4c-12.7-0.2-13.8-3.4-24.1-2c-7.7,1-9.2,3.1-17.6,5
	c-7.6,1.7-10.8,1-25.2,0.8c-21.8-0.3-23.1,1.2-43.3,0.5c-6.3-0.2-3.9-0.3-18.4-1.1c-28.7-1.6-32.7-1-42.8-2.5c-6.7-1-16.4-2.9-28-7
	c-0.9-0.3-1.8-0.2-2.6,0.4c-5.9,4.1-10.7,6.2-13.8,7.3c-4.8,1.7-6.7,1.5-8.1,0.9c-2.6-0.9-3.3-2.8-5.4-2.5c-1.4,0.2-1.6,1.2-5.2,4.4
	c-2.1,1.9-3.2,2.8-4.1,3.1c-3.5,1.1-7-1.7-7.6-2.2c-4.4-3.6-3.9-8.2-6.6-8.8c-2-0.4-2.9,1.9-7.3,4.7c0,0-2.4,1.5-7.6,3.4
	c-14.4,5.4-40.1-0.6-40.1-0.6c-9.4-2.2-22.3-6.1-36.8-13.3c-0.7-0.3-1.5-0.4-2.2-0.1c-1.4,0.6-3.8,1.5-6.6,2.5
	c-17.3,6.7-22.2,8.8-29.3,8.5c-3.2-0.1-2.1-0.6-7.1-1.1c-7.4-0.8-12-0.1-25.7,1.6c-15.8,2-18.2,2.2-22,2.4c-6.8,0.2-6.3-0.3-14-0.2
	c-2.4,0-14,0.2-29.6,2.8c-7.8,1.3-9,1.9-14.2,2.8c-15.8,2.8-27.5,0.9-37,0c-26.9-2.6-25.2,3.4-50,1.3
	C272.1,297,259.1,285.9,246.4,296.3z"/>
<g>
	<path d="M266.8,353.9h53.9c1,0,1.5,0.6,1.5,1.8c0,0.9-0.6,1.4-1.8,1.5c-4.1,0.6-7.1,2.4-8.8,5.4c-1.8,3-2.7,7.8-2.7,14.5v56.4h44.9
		v-56.4c0-6.8-0.8-11.6-2.3-14.6c-1.5-2.9-4.5-4.7-9-5.3c-1.3-0.1-2-0.7-2-1.5c0-1.2,0.7-1.8,2-1.8h53.7c1,0,1.5,0.6,1.5,1.8
		c0,0.9-0.5,1.4-1.5,1.5c-4.3,0.6-7.3,2.4-9.1,5.4c-1.8,3-2.7,7.8-2.7,14.5v86.2c0,6.6,0.9,11.5,2.7,14.5c1.8,3,4.8,4.8,9.1,5.4
		c1,0.1,1.5,0.7,1.5,1.5c0,1.2-0.5,1.8-1.5,1.8h-53.7c-1.3,0-2-0.6-2-1.8c0-0.9,0.7-1.4,2-1.5c2.9-0.4,5.3-1.4,7-2.9
		c1.7-1.5,2.8-3.5,3.4-6.2c0.6-2.7,0.9-6.3,0.9-10.8v-26.5H309v26.5c0,6.6,0.9,11.5,2.7,14.5c1.8,3,4.7,4.8,8.8,5.4
		c1.2,0.1,1.8,0.7,1.8,1.5c0,1.2-0.5,1.8-1.5,1.8h-53.9c-1.2,0-1.8-0.6-1.8-1.8c0-0.9,0.6-1.4,1.8-1.5c4.6-0.6,7.6-2.4,9.2-5.3
		c1.5-2.9,2.3-7.8,2.3-14.6v-86.2c0-6.8-0.8-11.6-2.3-14.6c-1.5-2.9-4.6-4.7-9.2-5.3c-1.2-0.1-1.8-0.7-1.8-1.5
		C265,354.5,265.6,353.9,266.8,353.9z"/>
	<path d="M447,401c1.2,0,1.8,0.6,1.8,1.8v53.9c0,7.8,1.1,14.2,3.3,19.2c2.2,5,5.8,7.5,10.8,7.5c4.7-0.1,8.5-3.2,11.3-9.3
		c2.8-6,4.2-12.7,4.2-19.9v-12.2c0-4.7-0.3-8.6-1-11.7c-0.7-3.1-1.8-5.6-3.4-7.4c-1.6-1.8-3.7-3-6.2-3.4c-1.3-0.3-2-0.9-2-1.8
		c0-1,0.6-1.5,1.8-1.5c5-0.1,9.9-0.9,14.7-2.3c4.8-1.4,9-3.1,12.5-5c3.5-1.9,6.1-3.4,7.7-4.5c1.6-1.1,2.9-2.1,4-3
		c0.3-0.3,0.7-0.4,1.1-0.4c1.2,0,1.8,0.6,1.8,1.8v56.4c0,5.5,0.4,9.9,1.3,13.3c1.2,4.1,3.2,6.5,6.2,7.1c0.3,0.1,0.9,0.2,1.9,0.1
		c1-0.1,1.5-0.1,1.7-0.1c0.9,0,1.4,0.4,1.7,1.2c0.2,0.8,0,1.4-0.8,1.9c-6.5,3.5-12.9,5.3-19.2,5.3c-10.6,0-17.8-3.3-21.7-9.9
		c-5,6.8-14,10.1-27,9.9c-10.5,0-19-2.7-25.6-8.2c-6.6-5.5-9.9-13.1-9.9-23v-14.6c0-7.1-0.8-12.4-2.4-16c-1.6-3.6-4.3-5.8-8.2-6.5
		c-1.3-0.3-2-0.9-2-1.8c0-1,0.6-1.5,1.8-1.5c6.5-0.3,13-1.7,19.5-4.2c6.5-2.5,10.9-4.6,13.4-6.2c2.4-1.6,4.5-3.1,6.1-4.4
		C446.2,401.1,446.5,401,447,401z"/>
	<path d="M576.1,400.8c0.3,0,0.6,0.1,0.9,0.2c0.4,0.3,0.7,0.8,0.7,1.5v8.2c5.3-6.3,12.6-9.5,21.9-9.5c16.8,0,28,6.2,33.6,18.6
		c5.3-11.6,14.8-17.8,28.5-18.6c21.4,0,33.7,10.3,36.9,31l3.8,31.2c0.7,6.5,2.1,11.2,4.2,14.3c2.1,3,5.2,4.9,9.5,5.6
		c1.3,0.1,2,0.7,2,1.5c0.1,1.2-0.4,1.8-1.8,1.8h-53.5c-1.3,0-2-0.6-2-1.8c0-0.9,0.7-1.4,2-1.5c4.3-0.7,7-2.5,8.2-5.4
		c1.2-2.9,1.3-7.7,0.4-14.5l-3.5-34.3c-0.7-6-2.7-11.1-6-15.1c-3.2-4.1-7.4-5.8-12.6-5.2c-9.6,1.3-13.7,10.2-12.4,26.8l3.3,27.9
		c0.9,6.5,2.4,11.2,4.4,14.3c2.1,3,5.2,4.9,9.5,5.6c1.3,0.1,2,0.7,2,1.5c0,1.2-0.6,1.8-1.8,1.8h-53.5c-1.3,0-2-0.6-2-1.8
		c0-0.9,0.7-1.4,2-1.5c4.3-0.7,7-2.5,8.1-5.4s1.3-7.7,0.6-14.5l-3.5-34.3c-0.9-6.6-2.7-12.1-5.3-16.5c-2.7-4.3-6.5-6.2-11.5-5.4
		c-4.7,0.6-7.8,3.3-9.3,8.1c-1.5,4.8-2.2,12.5-2.2,23.1v25c0,6.6,0.9,11.5,2.7,14.5c1.8,3,4.7,4.8,8.8,5.4c1.2,0.1,1.8,0.7,1.8,1.5
		c0,1.2-0.5,1.8-1.5,1.8h-53.9c-1.2,0-1.8-0.6-1.8-1.8c0-0.9,0.6-1.4,1.8-1.5c4.6-0.6,7.6-2.4,9.2-5.3c1.5-2.9,2.3-7.8,2.3-14.6
		v-21.2c0-5-0.2-8.8-0.7-11.5c-0.4-2.7-1.5-5-3.1-7.1c-1.6-2.1-4-3.5-7.1-4.2c-1.2-0.3-1.8-0.9-1.8-1.8c0-1,0.6-1.6,1.8-1.8
		c6.3-0.1,12.7-1.5,19.2-4c6.5-2.5,11-4.6,13.5-6.2c2.5-1.6,4.6-3.1,6.2-4.4C575.3,400.9,575.7,400.8,576.1,400.8z"/>
	<path d="M759.6,401c12.1,0,22.4,4.2,30.8,12.7c8.5,8.5,12.7,18.8,12.7,30.8c0,11.9-4.2,22.1-12.7,30.6
		c-8.5,8.5-18.8,12.7-30.8,12.7c-11.9,0-22.1-4.2-30.6-12.7c-8.5-8.5-12.7-18.7-12.7-30.6c0-12.1,4.2-22.4,12.7-30.8
		C737.5,405.2,747.7,401,759.6,401z M751,405.6c-0.7,0-1.3,0-1.8,0c-4.3,1.2-6.6,5.9-7,14.3c-0.4,8.3,0.9,17.8,3.9,28.4
		c3.1,11.1,6.8,19.9,11.2,26.6c4.3,6.7,8.7,9.5,12.9,8.3c4.3-1.2,6.6-5.9,7-14.1c0.4-8.3-0.9-17.7-3.9-28.3
		c-2.8-10.3-6.2-18.8-10.3-25.4C759,408.7,755,405.5,751,405.6z"/>
	<path d="M850,401c1.2,0,1.8,0.6,1.8,1.8v53.9c0,7.8,1.1,14.2,3.3,19.2c2.2,5,5.8,7.5,10.8,7.5c4.7-0.1,8.5-3.2,11.3-9.3
		c2.8-6,4.2-12.7,4.2-19.9v-12.2c0-4.7-0.3-8.6-1-11.7c-0.7-3.1-1.8-5.6-3.4-7.4c-1.6-1.8-3.7-3-6.2-3.4c-1.3-0.3-2-0.9-2-1.8
		c0-1,0.6-1.5,1.8-1.5c5-0.1,9.9-0.9,14.7-2.3c4.8-1.4,9-3.1,12.5-5c3.5-1.9,6.1-3.4,7.7-4.5c1.6-1.1,2.9-2.1,4-3
		c0.3-0.3,0.7-0.4,1.1-0.4c1.2,0,1.8,0.6,1.8,1.8v56.4c0,5.5,0.4,9.9,1.3,13.3c1.2,4.1,3.2,6.5,6.2,7.1c0.3,0.1,0.9,0.2,1.9,0.1
		c1-0.1,1.5-0.1,1.7-0.1c0.9,0,1.4,0.4,1.7,1.2c0.2,0.8,0,1.4-0.8,1.9c-6.5,3.5-12.9,5.3-19.2,5.3c-10.6,0-17.8-3.3-21.7-9.9
		c-5,6.8-14,10.1-27,9.9c-10.5,0-19-2.7-25.6-8.2c-6.6-5.5-9.9-13.1-9.9-23v-14.6c0-7.1-0.8-12.4-2.4-16c-1.6-3.6-4.3-5.8-8.2-6.5
		c-1.3-0.3-2-0.9-2-1.8c0-1,0.6-1.5,1.8-1.5c6.5-0.3,13-1.7,19.5-4.2c6.5-2.5,10.9-4.6,13.4-6.2c2.4-1.6,4.5-3.1,6.1-4.4
		C849.2,401.1,849.6,401,850,401z"/>
	<path d="M1002.6,399.9c7.8,0,13.5,3,17.1,8.8c3.6,5.9,3.4,12.2-0.6,19c-1.8,2.8-4.2,4.8-7.4,5.9c-3.2,1.1-6.3,1.2-9.4,0.3
		c-5.2-1.5-7.7-4.5-7.7-9.1c0-2.4,1.3-4.4,3.9-6.2c2.6-1.8,3.9-3.5,3.9-5.3c0-2.7-0.9-4.8-2.7-6.4c-1.8-1.6-4.1-2.2-6.9-1.8
		c-4.9,1.5-8.1,4.7-9.7,9.6c-1.6,4.9-2.4,12.5-2.4,22.7v25.9c0,6.6,0.8,11.5,2.5,14.5c1.7,3,4.7,4.8,9,5.4c1.2,0.1,1.8,0.7,1.8,1.5
		c0,1.2-0.6,1.8-1.8,1.8h-53.7c-1.2,0-1.8-0.6-1.8-1.8c0-0.9,0.6-1.4,1.8-1.5c4.4-0.6,7.4-2.4,9.1-5.3c1.6-2.9,2.4-7.8,2.4-14.6
		v-21.2c0-7.1-0.8-12.4-2.5-16c-1.7-3.6-4.5-5.8-8.3-6.5c-1.3-0.3-2-0.9-2-1.8c0-1,0.7-1.5,2-1.5c6.3-0.3,12.7-1.7,19.2-4.2
		c6.5-2.5,10.9-4.6,13.4-6.2c2.4-1.6,4.5-3.1,6.1-4.4c0.6-0.4,1.2-0.6,1.9-0.3c0.7,0.2,1,0.8,1,1.7v6.6c4.4-4.3,9-7.1,13.7-8.4
		C997.3,400.3,1000.1,399.9,1002.6,399.9z"/>
	<path d="M1098.1,353.9h53.9c1,0,1.5,0.6,1.5,1.8c0,0.9-0.6,1.4-1.8,1.5c-4.1,0.6-7.1,2.4-8.8,5.4c-1.8,3-2.7,7.8-2.7,14.5v56.4
		h44.9v-56.4c0-6.8-0.8-11.6-2.3-14.6c-1.5-2.9-4.5-4.7-9-5.3c-1.3-0.1-2-0.7-2-1.5c0-1.2,0.7-1.8,2-1.8h53.7c1,0,1.5,0.6,1.5,1.8
		c0,0.9-0.5,1.4-1.5,1.5c-4.3,0.6-7.3,2.4-9.1,5.4c-1.8,3-2.7,7.8-2.7,14.5v86.2c0,6.6,0.9,11.5,2.7,14.5c1.8,3,4.8,4.8,9.1,5.4
		c1,0.1,1.5,0.7,1.5,1.5c0,1.2-0.5,1.8-1.5,1.8h-53.7c-1.3,0-2-0.6-2-1.8c0-0.9,0.7-1.4,2-1.5c2.9-0.4,5.3-1.4,7-2.9
		c1.7-1.5,2.8-3.5,3.4-6.2c0.6-2.7,0.9-6.3,0.9-10.8v-26.5h-44.9v26.5c0,6.6,0.9,11.5,2.7,14.5c1.8,3,4.7,4.8,8.8,5.4
		c1.2,0.1,1.8,0.7,1.8,1.5c0,1.2-0.5,1.8-1.5,1.8h-53.9c-1.2,0-1.8-0.6-1.8-1.8c0-0.9,0.6-1.4,1.8-1.5c4.6-0.6,7.6-2.4,9.2-5.3
		c1.5-2.9,2.3-7.8,2.3-14.6v-86.2c0-6.8-0.8-11.6-2.3-14.6c-1.5-2.9-4.6-4.7-9.2-5.3c-1.2-0.1-1.8-0.7-1.8-1.5
		C1096.3,354.5,1096.9,353.9,1098.1,353.9z"/>
	<path d="M1277.6,401c12.1,0,22.4,4.2,30.8,12.7c8.5,8.5,12.7,18.8,12.7,30.8c0,11.9-4.2,22.1-12.7,30.6
		c-8.5,8.5-18.8,12.7-30.8,12.7c-11.9,0-22.1-4.2-30.6-12.7c-8.5-8.5-12.7-18.7-12.7-30.6c0-12.1,4.2-22.4,12.7-30.8
		C1255.4,405.2,1265.7,401,1277.6,401z M1269,405.6c-0.7,0-1.3,0-1.8,0c-4.3,1.2-6.6,5.9-7,14.3c-0.4,8.3,0.9,17.8,3.9,28.4
		c3.1,11.1,6.8,19.9,11.2,26.6c4.3,6.7,8.7,9.5,12.9,8.3c4.3-1.2,6.6-5.9,7-14.1c0.4-8.3-0.9-17.7-3.9-28.3
		c-2.8-10.3-6.2-18.8-10.3-25.4C1277,408.7,1272.9,405.5,1269,405.6z"/>
	<path d="M1368,401c1.2,0,1.8,0.6,1.8,1.8v53.9c0,7.8,1.1,14.2,3.3,19.2c2.2,5,5.8,7.5,10.8,7.5c4.7-0.1,8.5-3.2,11.3-9.3
		c2.8-6,4.2-12.7,4.2-19.9v-12.2c0-4.7-0.3-8.6-1-11.7c-0.7-3.1-1.8-5.6-3.4-7.4c-1.6-1.8-3.7-3-6.2-3.4c-1.3-0.3-2-0.9-2-1.8
		c0-1,0.6-1.5,1.8-1.5c5-0.1,9.9-0.9,14.7-2.3c4.8-1.4,9-3.1,12.5-5c3.5-1.9,6.1-3.4,7.7-4.5c1.6-1.1,2.9-2.1,4-3
		c0.3-0.3,0.7-0.4,1.1-0.4c1.2,0,1.8,0.6,1.8,1.8v56.4c0,5.5,0.4,9.9,1.3,13.3c1.2,4.1,3.2,6.5,6.2,7.1c0.3,0.1,0.9,0.2,1.9,0.1
		c1-0.1,1.5-0.1,1.7-0.1c0.9,0,1.4,0.4,1.7,1.2c0.2,0.8,0,1.4-0.8,1.9c-6.5,3.5-12.9,5.3-19.2,5.3c-10.6,0-17.8-3.3-21.7-9.9
		c-5,6.8-14,10.1-27,9.9c-10.5,0-19-2.7-25.6-8.2c-6.6-5.5-9.9-13.1-9.9-23v-14.6c0-7.1-0.8-12.4-2.4-16c-1.6-3.6-4.3-5.8-8.2-6.5
		c-1.3-0.3-2-0.9-2-1.8c0-1,0.6-1.5,1.8-1.5c6.5-0.3,13-1.7,19.5-4.2c6.5-2.5,10.9-4.6,13.4-6.2c2.4-1.6,4.5-3.1,6.1-4.4
		C1367.2,401.1,1367.6,401,1368,401z"/>
	<path d="M1483.6,401c3.5,0,7,0.2,10.5,0.7c3.5,0.4,5.7,0.8,6.6,1c1,0.2,2.1,0.2,3.4-0.1c1.5-1,2.4-1.5,2.7-1.5c1,0,1.6,0.5,1.8,1.5
		l2.2,24.3c0,1.2-0.5,1.8-1.5,1.8c-0.9,0.1-1.5-0.4-1.8-1.5c-2.2-9.6-5.9-16.1-11.1-19.5c-3.4-2.2-7.7-3.3-12.8-3.3
		c-4.7,0-8,1.8-9.7,5.3c-1.8,3.5-1.6,7.2,0.4,10.8c1.2,2.2,3.6,4.4,7.4,6.5c3.8,2.1,7.8,4.1,12.3,6c4.4,1.8,8.8,3.9,13,6.1
		c4.3,2.2,7.8,5,10.7,8.3s4.3,7.1,4.3,11.4c0,8.7-3.8,15.7-11.3,21.1c-7.5,5.4-17.7,8.1-30.5,8.1c-11.1,0-19.6-2.7-25.5-8.2
		c-6-5.5-8.1-11.6-6.3-18.3c0.9-2.9,2.4-5.2,4.5-6.9c2.1-1.6,4.6-2.4,7.4-2.4c4,0,7.3,1.3,9.8,3.8c2.6,2.5,3.6,5.4,3.2,8.6
		c-0.4,2.4-1.9,4.5-4.3,6.5s-3.6,3.9-3.6,5.6c0.1,2.1,1.5,3.9,4,5.5c2.5,1.6,5.5,2.4,9.1,2.4c5.7,0,10-1.4,12.7-4.3
		c2.7-2.9,4.1-6.2,4.1-9.8c0-3.1-1.1-5.8-3.2-8.2c-2.1-2.4-4.8-4.3-8.1-5.7c-3.2-1.5-6.8-3.1-10.7-5c-3.9-1.8-7.6-3.7-10.9-5.5
		c-3.4-1.8-6.3-4.4-8.7-7.6c-2.4-3.2-3.9-7-4.3-11.3c-0.7-7.7,1.7-13.9,7.3-18.8C1462.3,403.4,1471.3,401,1483.6,401z"/>
	<path d="M1577.6,401c3.8,0,7.7,0.5,11.5,1.4c3.8,1,7.5,2.5,11.1,4.5c3.5,2.1,6.5,4.6,8.8,7.5c1.9,2.5,3.2,5.3,4,8.4
		c0.7,3.1,0.8,6.1,0.1,9c-0.7,2.9-2.3,5.4-4.9,7.5c-2.6,2.1-6,3.4-10.3,3.9l-32.3,3.8c1.5,7.1,4.4,12.8,8.8,17.2s9.2,7.2,14.3,8.2
		c5.1,1,10.1,0.6,15-1.2c4.9-1.8,8.7-5,11.4-9.6c0.1-0.1,0.2-0.3,0.2-0.4c1-2.1,2.1-2.9,3.1-2.4c0.7,0.4,1,1.1,0.9,2
		c-4.9,18.1-18.6,27.2-41.3,27.2c-6.3,0-12.4-1.1-18.1-3.4s-10.9-5.8-15.4-10.5c-4.5-4.7-7.6-10.2-9.4-16.6
		c-0.9-2.5-1.5-5.3-1.8-8.4c-0.6-6.6-0.2-12.7,1.2-18.3c1.4-5.6,3.8-10.6,7.2-15.1c3.4-4.5,8.1-8,14.2-10.6
		C1562,402.3,1569.2,401,1577.6,401z M1577.4,404.3c-3.8,0-7,2.3-9.5,7c-2.5,4.6-3.9,9.9-4.1,15.7c-0.2,5.8,0.2,11.5,1.2,16.9
		c8.3-1,14.7-3.2,19.2-6.4c4.6-3.2,6.6-8.2,6-14.8c-0.3-2.9-0.7-5.5-1.2-7.5c-0.5-2.1-1.3-4-2.2-5.7c-1-1.8-2.2-3.1-3.8-3.9
		C1581.5,404.7,1579.6,404.3,1577.4,404.3z"/>
</g>
<g>
	<path d="M917.6,211.5c0,0.5,0,0.8-0.1,1.2c-0.1,0.3-0.1,0.6-0.3,0.8c-0.1,0.2-0.3,0.4-0.4,0.4c-0.2,0.1-0.4,0.1-0.6,0.1H902v40.1
		c0,0.2-0.1,0.4-0.2,0.5c-0.1,0.1-0.3,0.3-0.5,0.3c-0.3,0.1-0.6,0.2-1,0.2c-0.4,0.1-1,0.1-1.6,0.1c-0.6,0-1.2,0-1.6-0.1
		c-0.4-0.1-0.8-0.1-1.1-0.2c-0.3-0.1-0.4-0.2-0.5-0.3s-0.2-0.3-0.2-0.5v-40.1h-14.2c-0.2,0-0.4,0-0.6-0.1c-0.2-0.1-0.3-0.2-0.4-0.4
		c-0.1-0.2-0.2-0.5-0.3-0.8c-0.1-0.3-0.1-0.7-0.1-1.2c0-0.5,0-0.9,0.1-1.2c0.1-0.3,0.1-0.6,0.3-0.8s0.2-0.4,0.4-0.5
		c0.2-0.1,0.4-0.1,0.6-0.1h35.2c0.2,0,0.4,0,0.6,0.1c0.2,0.1,0.3,0.3,0.4,0.5s0.2,0.5,0.3,0.8C917.6,210.6,917.6,211,917.6,211.5z"
		/>
	<path d="M964.5,254.2c0,0.2-0.1,0.4-0.2,0.5c-0.1,0.1-0.3,0.3-0.5,0.3c-0.3,0.1-0.6,0.2-1,0.2c-0.4,0.1-1,0.1-1.6,0.1
		c-0.7,0-1.2,0-1.6-0.1c-0.4-0.1-0.8-0.1-1-0.2c-0.3-0.1-0.4-0.2-0.5-0.3s-0.2-0.3-0.2-0.5v-20.5h-23v20.5c0,0.2-0.1,0.4-0.2,0.5
		c-0.1,0.1-0.3,0.3-0.5,0.3c-0.3,0.1-0.6,0.2-1,0.2c-0.4,0.1-1,0.1-1.6,0.1c-0.6,0-1.2,0-1.6-0.1c-0.4-0.1-0.8-0.1-1.1-0.2
		c-0.3-0.1-0.4-0.2-0.5-0.3c-0.1-0.1-0.2-0.3-0.2-0.5v-44.4c0-0.2,0.1-0.4,0.2-0.5c0.1-0.1,0.3-0.3,0.5-0.3s0.6-0.2,1.1-0.2
		c0.4-0.1,1-0.1,1.6-0.1c0.7,0,1.2,0,1.6,0.1s0.8,0.1,1,0.2c0.3,0.1,0.4,0.2,0.5,0.3c0.1,0.1,0.2,0.3,0.2,0.5v18.5h23v-18.5
		c0-0.2,0.1-0.4,0.2-0.5s0.3-0.3,0.5-0.3c0.3-0.1,0.6-0.2,1-0.2s1-0.1,1.6-0.1c0.6,0,1.2,0,1.6,0.1s0.8,0.1,1,0.2
		c0.3,0.1,0.4,0.2,0.5,0.3c0.1,0.1,0.2,0.3,0.2,0.5V254.2z"/>
	<path d="M1009.3,252.5c0,0.4,0,0.8-0.1,1.1c-0.1,0.3-0.1,0.6-0.3,0.8c-0.1,0.2-0.3,0.4-0.5,0.5c-0.2,0.1-0.4,0.1-0.6,0.1h-24.3
		c-0.6,0-1.2-0.2-1.7-0.6c-0.5-0.4-0.8-1-0.8-1.9v-41.2c0-0.9,0.3-1.6,0.8-1.9c0.5-0.4,1.1-0.6,1.7-0.6h24c0.2,0,0.4,0,0.6,0.1
		c0.2,0.1,0.3,0.3,0.4,0.5s0.2,0.5,0.3,0.8c0.1,0.3,0.1,0.7,0.1,1.2c0,0.4,0,0.8-0.1,1.1c-0.1,0.3-0.2,0.6-0.3,0.8
		c-0.1,0.2-0.2,0.4-0.4,0.4c-0.2,0.1-0.4,0.1-0.6,0.1h-19.8v14.5h17c0.2,0,0.4,0.1,0.6,0.2c0.2,0.1,0.3,0.3,0.4,0.4
		c0.1,0.2,0.2,0.5,0.3,0.8c0.1,0.3,0.1,0.7,0.1,1.2c0,0.4,0,0.8-0.1,1.1c-0.1,0.3-0.1,0.6-0.3,0.8c-0.1,0.2-0.3,0.3-0.4,0.4
		s-0.4,0.1-0.6,0.1h-17V250h20.1c0.2,0,0.4,0,0.6,0.1c0.2,0.1,0.3,0.2,0.5,0.4c0.1,0.2,0.2,0.5,0.3,0.8
		C1009.3,251.7,1009.3,252.1,1009.3,252.5z"/>
</g>
<g>
	<path d="M780.3,671c0,0.1,0,0.3-0.1,0.4c-0.1,0.1-0.2,0.2-0.4,0.3c-0.2,0.1-0.4,0.1-0.7,0.2c-0.3,0-0.6,0.1-1.1,0.1
		c-0.4,0-0.8,0-1-0.1c-0.3,0-0.5-0.1-0.7-0.2c-0.2-0.1-0.3-0.2-0.4-0.3c-0.1-0.1-0.1-0.2-0.1-0.4v-41c0-0.1,0-0.2,0.1-0.4
		c0.1-0.1,0.2-0.2,0.4-0.3s0.4-0.1,0.7-0.2c0.3,0,0.6-0.1,1-0.1c0.4,0,0.8,0,1.1,0.1c0.3,0,0.5,0.1,0.7,0.2c0.2,0.1,0.3,0.2,0.4,0.3
		c0.1,0.1,0.1,0.2,0.1,0.4V671z"/>
	<path d="M800.4,671c0,0.1,0,0.3-0.1,0.4c-0.1,0.1-0.2,0.2-0.4,0.3c-0.2,0.1-0.4,0.1-0.7,0.2c-0.3,0-0.6,0.1-1.1,0.1
		c-0.4,0-0.8,0-1-0.1c-0.3,0-0.5-0.1-0.7-0.2c-0.2-0.1-0.3-0.2-0.4-0.3c-0.1-0.1-0.1-0.2-0.1-0.4v-41c0-0.1,0-0.2,0.1-0.4
		c0.1-0.1,0.2-0.2,0.4-0.3s0.4-0.1,0.7-0.2c0.3,0,0.6-0.1,1-0.1c0.4,0,0.8,0,1.1,0.1c0.3,0,0.5,0.1,0.7,0.2c0.2,0.1,0.3,0.2,0.4,0.3
		c0.1,0.1,0.1,0.2,0.1,0.4V671z"/>
	<path d="M844.2,631.1c0,0.3,0,0.5-0.1,0.8c0,0.2-0.1,0.4-0.2,0.5c-0.1,0.1-0.2,0.3-0.4,0.3c-0.1,0.1-0.3,0.1-0.5,0.1h-13.8V671
		c0,0.1,0,0.3-0.1,0.4s-0.2,0.2-0.4,0.3c-0.2,0.1-0.4,0.1-0.7,0.2c-0.3,0-0.6,0.1-1,0.1c-0.4,0-0.8,0-1-0.1c-0.3,0-0.5-0.1-0.7-0.2
		c-0.2-0.1-0.3-0.2-0.4-0.3c-0.1-0.1-0.1-0.2-0.1-0.4v-38.1h-13.8c-0.2,0-0.4,0-0.5-0.1c-0.1-0.1-0.2-0.2-0.3-0.3
		c-0.1-0.1-0.2-0.3-0.2-0.5c0-0.2-0.1-0.5-0.1-0.8c0-0.3,0-0.6,0.1-0.8c0-0.2,0.1-0.4,0.2-0.6c0.1-0.2,0.2-0.3,0.3-0.3
		c0.1-0.1,0.3-0.1,0.5-0.1h32c0.2,0,0.3,0,0.5,0.1c0.1,0.1,0.3,0.2,0.4,0.3c0.1,0.2,0.2,0.3,0.2,0.6
		C844.2,630.6,844.2,630.8,844.2,631.1z"/>
	<path d="M900.7,670.9c0,0.2,0,0.3-0.1,0.4c0,0.1-0.2,0.2-0.3,0.3s-0.4,0.1-0.7,0.2c-0.3,0-0.7,0.1-1.1,0.1c-0.4,0-0.9,0-1.3-0.1
		c-0.4,0-0.8-0.1-1-0.3c-0.2-0.1-0.4-0.3-0.6-0.5l-18.7-21.7V671c0,0.1,0,0.3-0.1,0.4c-0.1,0.1-0.2,0.2-0.4,0.3
		c-0.2,0.1-0.4,0.1-0.7,0.2c-0.3,0-0.6,0.1-1.1,0.1c-0.4,0-0.8,0-1-0.1c-0.3,0-0.5-0.1-0.7-0.2c-0.2-0.1-0.3-0.2-0.4-0.3
		c-0.1-0.1-0.1-0.2-0.1-0.4v-41c0-0.1,0-0.2,0.1-0.4c0.1-0.1,0.2-0.2,0.4-0.3s0.4-0.1,0.7-0.2c0.3,0,0.6-0.1,1-0.1
		c0.4,0,0.8,0,1.1,0.1c0.3,0,0.5,0.1,0.7,0.2s0.3,0.2,0.4,0.3c0.1,0.1,0.1,0.2,0.1,0.4v19.2l17.9-19.2c0.1-0.2,0.3-0.3,0.5-0.4
		c0.2-0.1,0.4-0.2,0.6-0.3s0.5-0.1,0.8-0.1c0.3,0,0.6,0,1.1,0c0.4,0,0.8,0,1,0.1c0.3,0,0.5,0.1,0.6,0.2s0.3,0.2,0.3,0.3
		c0,0.1,0.1,0.2,0.1,0.3c0,0.2-0.1,0.5-0.2,0.7c-0.1,0.2-0.4,0.5-0.7,0.8L882,649.1l18,20.6c0.3,0.4,0.5,0.7,0.6,0.8
		C900.7,670.7,900.7,670.8,900.7,670.9z"/>
	<path d="M944.5,670.3c0.1,0.3,0.2,0.6,0.2,0.8c0,0.2-0.1,0.4-0.2,0.5c-0.2,0.1-0.4,0.2-0.7,0.2c-0.3,0-0.7,0-1.2,0s-0.9,0-1.2,0
		c-0.3,0-0.5-0.1-0.7-0.1s-0.3-0.2-0.4-0.3c-0.1-0.1-0.2-0.2-0.2-0.4l-4.4-11.3h-20.3l-4.3,11.2c0,0.2-0.1,0.3-0.2,0.4
		c-0.1,0.1-0.2,0.2-0.4,0.3c-0.2,0.1-0.4,0.1-0.7,0.2c-0.3,0-0.7,0.1-1.1,0.1c-0.5,0-0.9,0-1.3-0.1c-0.3,0-0.6-0.1-0.7-0.2
		c-0.2-0.1-0.2-0.3-0.2-0.5c0-0.2,0.1-0.5,0.2-0.8l16.2-40.3c0.1-0.2,0.2-0.3,0.3-0.4c0.1-0.1,0.3-0.2,0.6-0.3
		c0.2-0.1,0.5-0.1,0.8-0.1c0.3,0,0.7,0,1.1,0c0.4,0,0.8,0,1.1,0c0.3,0,0.6,0.1,0.8,0.1s0.4,0.2,0.5,0.3c0.1,0.1,0.2,0.3,0.3,0.4
		L944.5,670.3z M925.3,633.6L925.3,633.6l-8.8,22.8h17.7L925.3,633.6z"/>
	<path d="M988.4,669.7c0,0.4-0.1,0.7-0.2,1s-0.3,0.5-0.5,0.6c-0.2,0.2-0.4,0.3-0.7,0.3c-0.2,0.1-0.5,0.1-0.7,0.1h-0.9
		c-0.5,0-0.9-0.1-1.3-0.2c-0.4-0.1-0.8-0.3-1.1-0.6c-0.4-0.3-0.7-0.6-1.1-1.1c-0.4-0.5-0.8-1-1.2-1.8l-16.3-26.4
		c-0.8-1.3-1.6-2.6-2.5-4c-0.8-1.4-1.6-2.7-2.3-4h0c0,1.6,0,3.2,0,4.9s0,3.3,0,4.9V671c0,0.1,0,0.3-0.1,0.4
		c-0.1,0.1-0.2,0.2-0.4,0.3c-0.2,0.1-0.4,0.1-0.7,0.2c-0.3,0-0.6,0.1-1.1,0.1c-0.4,0-0.8,0-1-0.1c-0.3,0-0.5-0.1-0.7-0.2
		c-0.2-0.1-0.3-0.2-0.4-0.3c-0.1-0.1-0.1-0.2-0.1-0.4v-39.6c0-0.8,0.2-1.3,0.7-1.6c0.5-0.3,0.9-0.4,1.3-0.4h1.8c0.6,0,1,0,1.4,0.1
		c0.4,0.1,0.7,0.2,1,0.4c0.3,0.2,0.6,0.5,0.9,0.9c0.3,0.4,0.6,0.9,1,1.5l12.5,20.2c0.8,1.3,1.5,2.5,2.2,3.6c0.7,1.2,1.4,2.3,2.1,3.4
		c0.7,1.1,1.3,2.2,2,3.3c0.7,1.1,1.3,2.2,1.9,3.3h0c0-1.8,0-3.7,0-5.7c0-2,0-3.9,0-5.7v-24.6c0-0.1,0-0.2,0.1-0.4
		c0.1-0.1,0.2-0.2,0.4-0.3c0.2-0.1,0.4-0.1,0.7-0.2c0.3,0,0.6,0,1.1,0c0.4,0,0.7,0,1,0c0.3,0,0.5,0.1,0.7,0.2
		c0.2,0.1,0.3,0.2,0.4,0.3c0.1,0.1,0.1,0.2,0.1,0.4V669.7z"/>
	<path d="M1030.8,641.4c0,2-0.4,3.8-1.1,5.4c-0.7,1.6-1.8,3-3.1,4.2c-1.4,1.2-3,2.1-5,2.7c-2,0.7-4.3,1-7.1,1h-6V671
		c0,0.1,0,0.3-0.1,0.4c-0.1,0.1-0.2,0.2-0.4,0.3c-0.2,0.1-0.4,0.1-0.7,0.2c-0.3,0-0.6,0.1-1.1,0.1c-0.4,0-0.8,0-1-0.1
		c-0.3,0-0.5-0.1-0.7-0.2c-0.2-0.1-0.3-0.2-0.4-0.3c-0.1-0.1-0.1-0.2-0.1-0.4v-39.6c0-0.8,0.2-1.3,0.7-1.6c0.5-0.3,0.9-0.4,1.3-0.4
		h9.4c0.9,0,1.8,0,2.7,0.1s1.9,0.2,3.1,0.5s2.4,0.7,3.6,1.4s2.3,1.5,3.1,2.5c0.9,1,1.5,2.1,2,3.4
		C1030.5,638.5,1030.8,639.9,1030.8,641.4z M1026.1,641.8c0-1.8-0.4-3.4-1.2-4.7s-1.7-2.2-2.9-2.8s-2.3-1-3.5-1.2
		c-1.2-0.2-2.4-0.2-3.5-0.2h-6.6v18.4h6.3c2,0,3.7-0.2,5.1-0.7s2.5-1.1,3.4-1.9c0.9-0.8,1.6-1.8,2.1-3
		C1025.9,644.4,1026.1,643.2,1026.1,641.8z"/>
	<path d="M1076.7,656c0,2.6-0.4,4.9-1.2,6.9s-1.9,3.7-3.4,5.1c-1.5,1.4-3.3,2.4-5.4,3.1c-2.1,0.7-4.4,1.1-7,1.1
		c-2.4,0-4.5-0.3-6.5-1c-2-0.7-3.7-1.7-5.2-3c-1.4-1.3-2.6-3-3.4-4.9s-1.2-4.2-1.2-6.8V630c0-0.1,0-0.2,0.1-0.4s0.2-0.2,0.4-0.3
		c0.2-0.1,0.4-0.1,0.7-0.2c0.3,0,0.6-0.1,1-0.1c0.4,0,0.8,0,1,0.1c0.3,0,0.5,0.1,0.7,0.2s0.3,0.2,0.4,0.3c0.1,0.1,0.1,0.2,0.1,0.4
		v25.9c0,2.1,0.3,4,0.8,5.6c0.6,1.6,1.4,2.9,2.4,4c1.1,1.1,2.3,1.9,3.9,2.4c1.5,0.5,3.2,0.8,5.1,0.8c1.9,0,3.7-0.3,5.2-0.8
		c1.5-0.5,2.8-1.3,3.8-2.3c1-1,1.9-2.3,2.4-3.9c0.6-1.6,0.8-3.4,0.8-5.5V630c0-0.1,0-0.2,0.1-0.4s0.2-0.2,0.4-0.3s0.4-0.1,0.7-0.2
		c0.3,0,0.6-0.1,1-0.1c0.4,0,0.8,0,1,0.1c0.3,0,0.5,0.1,0.7,0.2s0.3,0.2,0.4,0.3c0.1,0.1,0.1,0.2,0.1,0.4V656z"/>
	<path d="M1121.3,670.9c0,0.2,0,0.3-0.1,0.4c-0.1,0.1-0.2,0.2-0.3,0.3c-0.2,0.1-0.4,0.1-0.7,0.2c-0.3,0-0.7,0.1-1.1,0.1
		c-0.4,0-0.7,0-1,0c-0.3,0-0.5-0.1-0.7-0.2c-0.2-0.1-0.3-0.2-0.5-0.4c-0.1-0.2-0.2-0.4-0.3-0.6l-4.3-10.3c-0.5-1.2-1-2.2-1.6-3.3
		c-0.6-1-1.3-1.9-2.1-2.7c-0.8-0.8-1.8-1.3-2.9-1.8c-1.1-0.4-2.5-0.7-4.1-0.7h-4.8V671c0,0.1,0,0.3-0.1,0.4
		c-0.1,0.1-0.2,0.2-0.4,0.3c-0.2,0.1-0.4,0.1-0.7,0.2c-0.3,0-0.6,0.1-1.1,0.1c-0.4,0-0.8,0-1-0.1c-0.3,0-0.5-0.1-0.7-0.2
		c-0.2-0.1-0.3-0.2-0.4-0.3c-0.1-0.1-0.1-0.2-0.1-0.4v-39.6c0-0.8,0.2-1.3,0.7-1.6c0.5-0.3,0.9-0.4,1.3-0.4h8.7c1.1,0,2.1,0,2.8,0.1
		c0.8,0.1,1.4,0.1,2.1,0.2c1.8,0.3,3.3,0.7,4.6,1.4c1.3,0.6,2.4,1.4,3.3,2.3c0.9,0.9,1.5,2,1.9,3.1c0.4,1.2,0.6,2.4,0.6,3.8
		c0,1.4-0.2,2.6-0.6,3.7c-0.4,1.1-1,2.1-1.8,2.9c-0.8,0.8-1.7,1.6-2.8,2.2c-1.1,0.6-2.3,1.1-3.6,1.5c0.8,0.3,1.5,0.7,2.1,1.2
		c0.6,0.5,1.2,1.1,1.8,1.7c0.5,0.7,1,1.5,1.5,2.3c0.5,0.9,1,1.9,1.4,3l4.3,9.9c0.3,0.8,0.5,1.3,0.6,1.6
		C1121.2,670.6,1121.3,670.8,1121.3,670.9z M1113.6,640.6c0-1.8-0.4-3.3-1.3-4.6c-0.9-1.3-2.4-2.2-4.4-2.7c-0.7-0.2-1.4-0.3-2.3-0.4
		c-0.8-0.1-1.9-0.1-3.2-0.1h-5.7v15.5h6.7c1.8,0,3.3-0.2,4.6-0.6s2.4-1,3.2-1.7c0.8-0.7,1.5-1.5,1.9-2.5S1113.6,641.7,1113.6,640.6z
		"/>
</g>
</svg>
