<?xml version="1.0" encoding="utf-8"?>
<!-- Generator: Adobe Illustrator 24.3.0, SVG Export Plug-In . SVG Version: 6.00 Build 0)  -->
<svg version="1.1" id="Layer_1" xmlns="http://www.w3.org/2000/svg" xmlns:xlink="http://www.w3.org/1999/xlink" x="0px" y="0px"
	 viewBox="0 0 1895.9 812" style="enable-background:new 0 0 1895.9 812;" xml:space="preserve">
<style type="text/css">
	.st0{fill:#AAD480;}
</style>
<path class="st0" d="M155.9,296.1c-2.1,1.5-10.4,7.5-12,16.9c-1.4,8.3,3.3,10.6,1.7,20.2c-1.1,6.1-4.1,10.6-7.9,16.5
	c-4.8,7.3-6.3,6.9-9.1,11.9c-4.9,8.7-4.7,17.4-4.6,22.7c0.1,4,0.4,13.7,5.9,23.4c2.5,4.4,6.3,9.1,7.7,10.8c3.6,4.5,5.4,6.7,6.9,8.1
	c1.4,1.3,3.2,2.8,4.9,5.5c0.5,0.8,1.4,2.2,1.9,4c0.4,1.4,0.9,4.3-2.3,12.3c-0.4,1-1.4,3.5-4.8,9.8c-2.9,5.4-4.3,8.1-5.3,9.5
	c-4.1,5.8-9.1,8.8-13,11.1c-5.3,3.2-10.5,5.1-14.9,6.3c-0.9,0.2-1.6,0.7-2.1,1.5c-0.4,0.7-0.8,1.4-1.1,2c-4.5,9.1-0.4,19.2,1.3,22.7
	c0.1,0.1,0.1,0.2,0.2,0.3c7.9,13.2,13.4,15.8,17.1,15.6c1-0.1,2-0.4,3.7-0.2c6.1,0.6,10,6.1,11.3,7.8c7.9,10.4,25.1,21.6,33.4,25.5
	c11.2,5.3,21.4,4.9,34.6,4.4c13.9-0.5,14.9-3.2,39.8-7.3c16-2.7,24.2-4,36.1-3.9c10.3,0.1,13.8,1.2,31.2,2.3
	c9.9,0.6,18.1,0.8,23.9,0.8c1.1,0,2.1,0.5,2.8,1.4c2.5,3.3,6.3,7.2,11.8,9.6c6.3,2.8,10.7,1.7,28.5-0.8c24-3.4,25.9-2.9,40.9-5.9
	c4.5-0.9,9.6-3.8,17.2-3.8c5.6,0,6.7,1.3,14.6,2.3c7.5,0.9,13.2,0.6,20.8,0.2c10.9-0.6,10.4-1.5,20.5-2.2
	c12.5-0.8,11.8,0.7,25.8-0.1c10.9-0.6,13.3-1.6,19.4-0.2c6,1.3,6.6,2.9,13,3.8c3.9,0.5,7.8,0.4,15.5,0c5.8-0.3,6.5-0.5,9.9-0.6
	c8.5-0.3,14.6,0.6,18.2,1.1c17,2.2,19.2-1.3,39.9,0.6c15.1,1.4,17.7,3.6,29.2,2.8c5.4-0.4,8-1.1,15.9-1.4
	c10.8-0.4,12.4,0.6,20.4,0.5c15.8-0.3,18-4.8,30.2-4.3c9.7,0.4,16.3,3.5,20.8,5.3c11.6,4.5,30.4,7.8,61.3,2c0.9-0.2,1.8-0.8,2.3-1.5
	c0.4-0.6,1-1.2,1.8-1.7c1.2-0.7,2.3-0.7,2.8-0.8c11.2-0.6,19.8-3.8,33.7,0.3c3.9,1.1,3.2,1.4,7.2,2.6c3.7,1.2,14.4,4.1,38.2,0.8
	c4.3-0.6,20.6-3,33.1-2.8c2.6,0.1,7.1,0.3,9.5,3.2c2.3,2.9,1.2,6.5,3.3,7.4c1.9,0.9,4.5-1.6,6.8-3.1c2.8-1.8,6.6-3.2,21.3-2
	c13.7,1.1,17.2,2.8,26.4,3.7c6,0.6,14.7,0.9,25.6-0.8c0.9-0.1,1.8-0.7,2.3-1.5l0.8-1.1c0.7-1,1.9-1.6,3.2-1.5c6.2,0.5,15,1,25.7,0.7
	c15.7-0.5,21.4-2.3,31.9-2c8.2,0.2,20,1.7,34.4,8.1c1.2,0.5,2.5,0.4,3.6-0.4c0.8-0.6,1.8-1.3,2.9-2c2.1-1.2,5.6-3.4,10.4-4
	c1.3-0.2,10.3-1.3,17.1,4.6c0.7,0.6,1.2,1.1,1.7,1.7c0.8,0.9,1.9,1.3,3,1.2c3.2-0.4,7.6-0.8,12.7-1c16.3-0.6,25.5,1.5,37,2.8
	c27.8,3,25.5-3.9,50.8-0.9c0,0,21.5,2.6,34.8-1.9c4.1-1.4,4.2-1.4,4.2-1.4c4.7-1.6,5.2-1.9,6.1-2c4.4-0.7,8.5,4.2,9.8,5.6
	c7.3,7.6,23.8,4.9,44.3,3.4c10.2-0.7,25.1-1.5,44-1.1c13-0.5,23.7-0.3,31.1-0.2c13.9,0.4,21,1.1,33.6,0c7.2-0.6,6.9-1.1,16.5-2
	c6.5-0.6,16.2-1.6,28.1-1.4c7.9,0.1,18.2,0.7,30.2,2.7c0.5,0.1,0.9,0.1,1.4-0.1c3.5-0.9,7.3-1.7,11.3-2.3
	c15.4-2.4,29.1-1.8,40.1-0.2c0.1,0,0.2,0,0.3,0c8.6,0.4,17.2,0.8,25.8,1.2c1.5,0.1,2.9-0.8,3.4-2.2c0.2-0.6,0.5-1.2,1-1.9
	c3.6-5.5,12.2-5.7,20.4-5.7c8.6,0,19.8,0.3,33,1.4c1.1,0.1,2.3-0.4,3-1.2c1-1.2,2.4-2.6,4.2-3.7c5.3-3.2,10.4-1.9,14.5-2.5
	c9.4-1.3,14.9-12.6,18-17.8c5.6-9.3,17.1-21.6,43.5-33.7c1.1-0.5,1.8-1.4,2-2.6c1.1-6.4,1.8-14.1,1.5-22.8
	c-0.2-4.9-0.6-9.3-1.2-13.4c-0.1-0.7-0.4-1.3-0.9-1.9c-1.1-1.2-2.4-2.9-3.3-5.1c-1.9-5-0.3-9.2,1.1-14.5c0,0,1.2-4.6,1.4-38.3
	c0-0.4,0-1.2-0.5-2.2c-1.1-2.3-4.1-2.9-4.8-3.1c-5.2-1.5-8.9-14.7-9.8-24.1c-1.2-12.1,1.6-22.2,4.2-28.7c0.1-0.3,0.2-0.7,0.2-1
	c0.7-9.5,0.7-17.4,0.6-23.3c-0.4-14.1-1.9-17.4-4.2-19.6c-1.6-1.5-4.9-3.1-11.7-6.3c-3.4-1.6-5.2-2.5-7.2-2.9
	c-5.1-1.2-7,0.2-12.1-0.2c-7-0.4-7-3.3-13.4-4c-6.7-0.7-7.2,2.4-16.2,3.1c-8.4,0.7-9.9-1.9-17.3-0.9c-6.9,0.9-10.2,3.7-14.3,5.4
	c-12.6,5.3-26.6-2.3-36.7-6.3c-10-4-26.3-4.8-58.8-6.3c-19.9-0.9-74.9-2.1-101,2.8c-4.2,0.8-11.1,2.4-19.6,0.3
	c-7.2-1.8-9.1-4.6-17.1-6.3c-5.5-1.2-9-0.8-17.4-0.3c-9,0.5-17.9,0.4-26.9,0.9c-34.6,2.2-46.8-4-83.2-0.5
	c-21.8,2.1-23.4,4.9-35.4,3.4c-16.5-2.1-30.7-3.9-38.9-5.9c-0.7-0.2-2.7-0.7-5.3-0.5c-5.7,0.5-9.6,4-10.4,4.6
	c-7.7,6.3-33.1-0.1-43.1-2.2c-8.1-1.7-41.3-8.6-73.4,1.4c-11.3,3.5-17.1,7.5-29.2,7.3c-11.3-0.2-15.8-3.9-30.2-4.9
	c-12.1-0.9-12.8,1.4-26,1.5c-20.1,0.2-37.7-4.9-50.7-8.7c-13.3-3.9-18.9-6.8-28.9-5.6c-7.2,0.9-7.5,2.8-19.1,5.9
	c-5,1.3-17.4,4.6-32.3,4.3c-14.3-0.2-15.6-3.4-27.2-2c-8.7,1-10.3,3.1-19.9,4.9c-8.6,1.7-12.2,1-28.4,0.8c-24.7-0.3-26.1,1.2-49,0.5
	c-7.1-0.2-4.4-0.3-20.8-1.1c-32.4-1.6-36.9-1-48.3-2.5c-7.6-1-18.5-2.8-31.7-6.9c-1-0.3-2-0.2-2.9,0.4c-6.7,4.1-12.2,6.1-15.6,7.2
	c-5.4,1.7-7.6,1.4-9.2,0.9c-3-0.9-3.8-2.8-6.1-2.5c-1.6,0.2-1.8,1.2-5.9,4.3c-2.4,1.9-3.6,2.8-4.7,3.1c-3.9,1.1-7.9-1.7-8.5-2.2
	c-5-3.5-4.4-8.1-7.5-8.7c-2.2-0.4-3.2,1.8-8.2,4.6c0,0-2.7,1.5-8.5,3.4c-16.3,5.3-45.4-0.6-45.4-0.6c-10.7-2.2-25.2-6-41.7-13.1
	c-0.8-0.3-1.7-0.4-2.5-0.1c-1.6,0.5-4.3,1.4-7.4,2.5c-19.5,6.6-25.1,8.7-33.1,8.3c-3.6-0.1-2.4-0.6-8.1-1.1
	c-8.3-0.8-13.6-0.1-29.1,1.5c-17.9,2-20.6,2.2-24.9,2.3c-7.7,0.2-7.2-0.3-15.9-0.2c-2.7,0-15.8,0.2-33.4,2.8
	c-8.8,1.3-10.2,1.9-16,2.8c-17.9,2.7-31.1,0.9-41.8,0c-30.4-2.6-28.5,3.4-56.6,1.2C184.9,296.7,170.2,285.8,155.9,296.1z"/>
<g>
	<path d="M309.6,273.9h53.9c1,0,1.5,0.6,1.5,1.8c0,0.9-0.6,1.4-1.8,1.5c-4.1,0.6-7.1,2.4-8.8,5.4c-1.8,3-2.7,7.8-2.7,14.5v56.4h44.9
		v-56.4c0-6.8-0.8-11.6-2.3-14.6c-1.5-2.9-4.5-4.7-9-5.3c-1.3-0.1-2-0.7-2-1.5c0-1.2,0.7-1.8,2-1.8h53.7c1,0,1.5,0.6,1.5,1.8
		c0,0.9-0.5,1.4-1.5,1.5c-4.3,0.6-7.3,2.4-9.1,5.4c-1.8,3-2.7,7.8-2.7,14.5v86.2c0,6.6,0.9,11.5,2.7,14.5c1.8,3,4.8,4.8,9.1,5.4
		c1,0.1,1.5,0.7,1.5,1.5c0,1.2-0.5,1.8-1.5,1.8h-53.7c-1.3,0-2-0.6-2-1.8c0-0.9,0.7-1.4,2-1.5c2.9-0.4,5.3-1.4,7-2.9
		c1.7-1.5,2.8-3.5,3.4-6.2c0.6-2.7,0.9-6.3,0.9-10.8v-26.5h-44.9v26.5c0,6.6,0.9,11.5,2.7,14.5c1.8,3,4.7,4.8,8.8,5.4
		c1.2,0.1,1.8,0.7,1.8,1.5c0,1.2-0.5,1.8-1.5,1.8h-53.9c-1.2,0-1.8-0.6-1.8-1.8c0-0.9,0.6-1.4,1.8-1.5c4.6-0.6,7.6-2.4,9.2-5.3
		c1.5-2.9,2.3-7.8,2.3-14.6v-86.2c0-6.8-0.8-11.6-2.3-14.6c-1.5-2.9-4.6-4.7-9.2-5.3c-1.2-0.1-1.8-0.7-1.8-1.5
		C307.9,274.5,308.5,273.9,309.6,273.9z"/>
	<path d="M493.8,321.4c0.4-0.4,1-0.6,1.7-0.3s1,0.8,1,1.7v60.6c0,4.4,0.4,8,1.1,10.7c0.7,2.7,2,4.8,3.6,6.3c1.7,1.5,3.9,2.4,6.7,2.9
		c1.2,0.1,1.8,0.7,1.8,1.5c0,1.2-0.5,1.8-1.5,1.8h-53.9c-1.2,0-1.8-0.6-1.8-1.8c0-0.9,0.6-1.4,1.8-1.5c4.6-0.6,7.6-2.4,9.2-5.3
		c1.5-2.9,2.3-7.8,2.3-14.6v-21.2c0-7.1-0.9-12.4-2.5-16c-1.7-3.6-4.5-5.8-8.3-6.5c-1.2-0.3-1.8-0.9-1.8-1.8c0-1,0.6-1.5,1.8-1.5
		c6.3-0.3,12.7-1.7,19.2-4.2c6.5-2.5,11-4.6,13.5-6.2C490.1,324.2,492.2,322.8,493.8,321.4z M478.5,273.9c4.4,0,8.5,1.7,12.3,5
		c3.8,3.3,5.6,7.6,5.6,12.9c0,5-1.7,9.3-5.2,12.8c-3.5,3.5-7.7,5.3-12.7,5.3c-4.3,0-8.3-1.7-12.2-5.1c-3.8-3.4-5.7-7.7-5.7-13
		c0-4.9,1.7-9.1,5.2-12.6C469.3,275.7,473.5,273.9,478.5,273.9z"/>
	<path d="M563.9,320.8c0.3,0,0.6,0.1,0.9,0.2c0.4,0.3,0.7,0.8,0.7,1.5v8.2c5.3-6.3,12.6-9.5,21.9-9.5c21.5,0,33.9,10.3,37.1,31
		l3.5,31.2c0.9,6.5,2.4,11.2,4.4,14.3c2.1,3,5.2,4.9,9.5,5.6c1.3,0.1,2,0.7,2,1.5c0,1.2-0.6,1.8-1.8,1.8h-53.5c-1.3,0-2-0.6-2-1.8
		c0-0.9,0.7-1.4,2-1.5c4.3-0.7,7-2.5,8.1-5.4s1.3-7.7,0.6-14.5l-3.5-34.3c-0.9-6.6-2.7-12.1-5.3-16.5c-2.7-4.3-6.5-6.2-11.5-5.4
		c-2.5,0.3-4.5,1.2-6.1,2.7c-1.5,1.5-2.7,3.6-3.4,6.5c-0.7,2.9-1.3,6-1.5,9.3c-0.3,3.3-0.4,7.6-0.4,12.7v25c0,6.6,0.9,11.5,2.7,14.5
		c1.8,3,4.7,4.8,8.8,5.4c1.2,0.1,1.8,0.7,1.8,1.5c0,1.2-0.5,1.8-1.5,1.8h-53.9c-1.2,0-1.8-0.6-1.8-1.8c0-0.9,0.6-1.4,1.8-1.5
		c4.6-0.6,7.6-2.4,9.2-5.3c1.5-2.9,2.3-7.8,2.3-14.6v-21.2c0-7.4-0.7-12.7-2-16c-1.3-3.3-4.3-5.6-8.8-6.7c-1.2-0.3-1.8-0.9-1.8-1.8
		c0-1,0.6-1.6,1.8-1.8c6.3-0.1,12.7-1.5,19.2-4c6.5-2.5,11-4.6,13.5-6.2c2.5-1.6,4.6-3.1,6.2-4.4
		C563.1,320.9,563.4,320.8,563.9,320.8z"/>
	<path d="M732.6,274.3c0.6-0.4,1.2-0.5,1.8-0.2c0.6,0.3,0.9,0.8,0.9,1.5v103.5c0,5.5,0.5,9.9,1.5,13.3c1,4.1,3.1,6.5,6.2,7.1
		c0.1,0.1,0.7,0.2,1.7,0.1c1-0.1,1.6-0.1,1.9-0.1c0.7,0,1.2,0.4,1.4,1.2c0.2,0.8,0,1.4-0.8,1.9c-6.3,3.5-12.7,5.3-19,5.3
		c-10.3,0.6-17.5-2.5-21.4-9.3c-6.6,5.9-14.1,9.1-22.3,9.5h-2h-2c-6.6-0.3-12.8-2.3-18.5-6.1c-5.7-3.8-10.2-8.7-13.6-14.8
		c-3.4-6.1-5.3-12.9-5.7-20.2c-0.7-12.1,2.4-22.6,9.5-31.5c7.1-8.9,16.1-13.7,27-14.3c9.4-0.6,17.9,2.2,25.4,8.4V315
		c0-7.1-0.8-12.4-2.5-16c-1.7-3.6-4.5-5.8-8.5-6.5c-1-0.1-1.5-0.7-1.5-1.8c0-1,0.5-1.5,1.5-1.5c6.5-0.3,13-1.7,19.5-4.1
		c6.5-2.4,11-4.5,13.5-6.2C728.9,277.2,730.9,275.7,732.6,274.3z M678.2,324.1c-0.4,0-1,0.1-1.5,0.2c-4.3,1.2-6.6,5.9-7.1,14
		c-0.4,8.2,0.8,17.5,3.8,28c2.8,10.5,6.2,18.9,10.3,25.4c4.1,6.5,8.1,9.7,12,9.7c0.4,0,1-0.1,1.5-0.4c4.3-1.2,6.6-5.8,7.1-13.9
		c0.4-8.1-0.8-17.4-3.8-27.9c-2.8-10.5-6.2-19-10.3-25.5C686.2,327.2,682.2,323.9,678.2,324.1z"/>
	<path d="M800.2,321.4c0.4-0.4,1-0.6,1.7-0.3s1,0.8,1,1.7v60.6c0,4.4,0.4,8,1.1,10.7c0.7,2.7,2,4.8,3.6,6.3c1.7,1.5,3.9,2.4,6.7,2.9
		c1.2,0.1,1.8,0.7,1.8,1.5c0,1.2-0.5,1.8-1.5,1.8h-53.9c-1.2,0-1.8-0.6-1.8-1.8c0-0.9,0.6-1.4,1.8-1.5c4.6-0.6,7.6-2.4,9.2-5.3
		c1.5-2.9,2.3-7.8,2.3-14.6v-21.2c0-7.1-0.9-12.4-2.5-16c-1.7-3.6-4.5-5.8-8.3-6.5c-1.2-0.3-1.8-0.9-1.8-1.8c0-1,0.6-1.5,1.8-1.5
		c6.3-0.3,12.7-1.7,19.2-4.2c6.5-2.5,11-4.6,13.5-6.2C796.5,324.2,798.6,322.8,800.2,321.4z M785,273.9c4.4,0,8.5,1.7,12.3,5
		c3.8,3.3,5.6,7.6,5.6,12.9c0,5-1.7,9.3-5.2,12.8c-3.5,3.5-7.7,5.3-12.7,5.3c-4.3,0-8.3-1.7-12.2-5.1c-3.8-3.4-5.7-7.7-5.7-13
		c0-4.9,1.7-9.1,5.2-12.6C775.7,275.7,780,273.9,785,273.9z"/>
	<path d="M949.9,272.8c4.1,0,8.3,0.4,12.4,1.2c4.1,0.8,7.3,1.5,9.6,2.2c2.3,0.7,4.3,1,6.2,0.9c1.8-0.1,3.1-0.8,3.9-2.1
		c0.4-0.9,1.1-1.3,2-1.1c0.9,0.1,1.3,0.7,1.3,1.8v28.5c0,1-0.5,1.6-1.5,1.8c-0.9,0-1.5-0.4-1.8-1.3c-1.5-5.6-3.4-10.3-5.9-14.1
		c-2.4-3.8-5.2-6.7-8.2-8.6c-3-1.9-5.9-3.3-8.7-4.2c-2.8-0.9-5.9-1.4-9.3-1.5c-6.6,0-11.9,2.2-15.9,6.5c-4,4.3-6,9.8-6,16.2
		c0,4.3,1.3,8.1,3.9,11.4c2.6,3.3,5.9,6.1,10.1,8.3c4.1,2.2,8.7,4.3,13.7,6.4c5,2.1,10,4.3,15,6.9c5,2.5,9.6,5.3,13.8,8.4
		c4.2,3.1,7.6,7.1,10.2,11.9c2.6,4.9,3.9,10.5,3.9,16.8c0,10.9-5.1,20.2-15.3,27.7c-10.2,7.6-24,11.4-41.3,11.4
		c-16.7,0-29.8-3.2-39.4-9.6c-9.6-6.4-14.4-15.7-14.4-27.7c0-6.5,1.7-12,5.2-16.7c3.5-4.6,8.4-7,14.9-7c5.7,0,10.3,1.5,13.7,4.6
		c3.4,3.1,5.1,6.9,5.1,11.5c0,2.7-0.6,5.1-1.9,7.2c-1.3,2.1-2.6,3.8-4.1,5c-1.5,1.2-2.8,2.8-4,4.9c-1.2,2.1-1.8,4.5-1.8,7.3
		c0.1,4.4,2.4,8.4,6.7,11.9c4.3,3.5,10.9,5.3,19.6,5.3c8.8,0,16.1-2.6,21.9-7.8c5.7-5.2,8.6-10.6,8.6-16.2c0-3.2-0.8-6.2-2.4-9
		c-1.6-2.7-3.8-5.1-6.4-7.1s-5.7-3.9-9.2-5.6c-3.5-1.8-7.1-3.5-10.9-5.3c-3.8-1.8-7.7-3.6-11.5-5.4c-3.8-1.8-7.5-4-10.9-6.4
		c-3.5-2.4-6.5-5.1-9.2-8.1c-2.7-2.9-4.8-6.5-6.4-10.7c-1.6-4.2-2.4-8.8-2.4-13.8c0-4.4,0.8-8.7,2.3-12.7c1.5-4.1,4-7.9,7.4-11.6
		c3.4-3.7,8.3-6.6,14.7-8.8S941.2,272.8,949.9,272.8z"/>
	<path d="M1047.6,321c26.7-1.3,41.8,9.1,45.3,31.2l3.3,28.5c1.9,11.6,5.5,17.9,10.6,18.8c0.1,0.1,0.7,0.2,1.7,0.1
		c1-0.1,1.6-0.1,1.9-0.1c0.9,0,1.4,0.4,1.5,1.2c0.1,0.8-0.1,1.4-0.9,1.9c-6.2,3.7-13.2,5.5-21,5.5c-11.1,0-18.4-3.7-22.1-11.1
		c-1.3,1.5-2.8,2.8-4.3,3.9s-3.4,2.2-5.4,3.2c-2.1,1-4.7,1.9-7.8,2.7c-3.2,0.7-6.6,1.1-10.3,1.1c-5.3,0-10.1-0.7-14.5-2
		c-4.3-1.3-8-3.7-11.1-7.1c-3-3.4-4.5-7.7-4.5-13c0-5.2,1.1-9.4,3.3-12.8c2.2-3.4,5.2-5.8,8.8-7.3c3.7-1.5,7.4-2.6,11.2-3.3
		c3.8-0.7,7.8-1.4,12.2-2.1c4.3-0.7,7.6-1.5,9.8-2.5c2.7-1.2,4.4-2.7,5.2-4.6c0.8-1.9,1-4.6,0.6-8c-0.3-3.1-0.9-6-1.9-8.8
		c-1-2.8-2.7-5.5-5.2-8.1c-2.5-2.6-5.5-3.9-8.8-3.9c-3.2,0-5.6,0.8-7.2,2.3c-1.5,1.5-2.3,3.4-2.3,5.6c0,1.5,0.5,2.8,1.4,4
		c1,1.2,2,2.1,3.2,2.9c1.2,0.7,2.2,1.9,3,3.5c0.8,1.6,1,3.5,0.7,5.5c-0.4,2.1-1.4,3.9-3.1,5.4c-1.7,1.5-3.6,2.5-5.7,3
		c-2.1,0.4-4.3,0.5-6.6,0.2c-2.3-0.3-4.3-1.3-6.2-2.9c-1.8-1.6-3.1-3.7-3.6-6.2c-1.9-6.8-0.3-12.8,4.9-18
		C1028.7,324.5,1036.7,321.6,1047.6,321z M1062.4,356.4c-1.5,2.1-3.4,3.7-5.7,4.9c-0.4,0.3-1.7,1-3.6,2.2c-2,1.2-3.4,2-4.1,2.5
		c-0.7,0.5-1.9,1.4-3.5,2.8c-1.6,1.3-2.8,2.5-3.4,3.6s-1.3,2.6-1.9,4.4c-0.6,1.8-0.9,3.8-0.9,5.9c0,8.3,3.4,13.7,10.2,16.4
		c5.5,2.1,10,1.5,13.7-1.8c2.5-2.1,3.5-4.8,3.1-8.2L1062.4,356.4z"/>
	<path d="M1162.6,274.3c0.4-0.4,1-0.5,1.7-0.2c0.7,0.3,1,0.8,1,1.5v53.7c6-5,13-7.7,20.8-8.2c23.3-1.6,36.3,8.7,38.9,31l4,31.2
		c0.7,6.5,2.2,11.2,4.3,14.3c2.1,3,5.3,4.9,9.4,5.6c1.3,0.1,2,0.7,2,1.5c0.1,1.2-0.4,1.8-1.8,1.8h-53.5c-1.3,0-2-0.6-2-1.8
		c0-0.9,0.7-1.4,2-1.5c4.3-0.7,7-2.5,8.2-5.4c1.2-2.9,1.3-7.7,0.4-14.5l-3.3-28.7c-1-9.9-3.4-17.2-7.1-22c-3.7-4.8-7.8-6.6-12.4-5.4
		c-1.9,0.6-3.5,1.5-4.9,2.8c-1.3,1.3-2.5,3.8-3.5,7.5c-1,3.8-1.5,8.7-1.5,14.9v31c0,6.5,0.9,11.2,2.7,14.3c1.8,3,4.7,4.9,8.8,5.6
		c1.2,0.1,1.8,0.7,1.8,1.5c0,1.2-0.7,1.8-2,1.8H1123c-1.2,0-1.8-0.6-1.8-1.8c0-0.9,0.7-1.4,2-1.5c4.4-0.6,7.4-2.4,9-5.3
		c1.5-2.9,2.3-7.8,2.3-14.6V315c0-7.1-0.8-12.4-2.5-16c-1.7-3.6-4.5-5.8-8.5-6.5c-1,0-1.5-0.6-1.5-1.8c0-1,0.5-1.5,1.5-1.5
		c6.5-0.3,13-1.7,19.5-4.1c6.5-2.4,11-4.5,13.5-6.2C1158.9,277.2,1161,275.7,1162.6,274.3z"/>
	<path d="M1297.7,321.4c0.4-0.4,1-0.6,1.7-0.3s1,0.8,1,1.7v60.6c0,4.4,0.4,8,1.1,10.7c0.7,2.7,2,4.8,3.6,6.3
		c1.7,1.5,3.9,2.4,6.7,2.9c1.2,0.1,1.8,0.7,1.8,1.5c0,1.2-0.5,1.8-1.5,1.8h-53.9c-1.2,0-1.8-0.6-1.8-1.8c0-0.9,0.6-1.4,1.8-1.5
		c4.6-0.6,7.6-2.4,9.2-5.3c1.5-2.9,2.3-7.8,2.3-14.6v-21.2c0-7.1-0.8-12.4-2.5-16c-1.7-3.6-4.5-5.8-8.3-6.5
		c-1.2-0.3-1.8-0.9-1.8-1.8c0-1,0.6-1.5,1.8-1.5c6.3-0.3,12.7-1.7,19.2-4.2c6.5-2.5,11-4.6,13.5-6.2
		C1294,324.2,1296,322.8,1297.7,321.4z M1282.4,273.9c4.4,0,8.5,1.7,12.3,5c3.8,3.3,5.6,7.6,5.6,12.9c0,5-1.7,9.3-5.2,12.8
		c-3.5,3.5-7.7,5.3-12.7,5.3c-4.3,0-8.3-1.7-12.2-5.1c-3.8-3.4-5.7-7.7-5.7-13c0-4.9,1.7-9.1,5.2-12.6
		C1273.2,275.7,1277.4,273.9,1282.4,273.9z"/>
	<path d="M1352.5,291.1c0.3-0.9,0.9-1.3,1.8-1.1c0.9,0.1,1.3,0.7,1.3,1.8v33.8h15.3c1.2,0,1.8,0.6,1.8,1.7s-0.6,1.7-1.8,1.7h-15.3
		v48c0,11.5,2.4,17.2,7.1,17c1.8,0,3.5-0.8,5.3-2.4c1.8-1.6,3.1-3.5,4-5.5c0.3-0.7,0.8-1.1,1.5-1.1c0.6,0,1,0.3,1.3,0.8
		c0.3,0.5,0.3,1.1,0,1.7c-2.5,5.7-6.2,10.6-11.1,14.6c-4.9,4-10.2,6-16.1,6c-7.7,0-13.4-2.4-17.2-7.2c-3.8-4.8-5.7-12.7-5.7-23.8
		l0.2-34c0-2.7,0-4.6,0-6s-0.2-2.7-0.6-4c-0.4-1.3-0.7-2.2-0.9-2.5c-0.2-0.4-0.9-0.7-2-1.1c-1.1-0.4-2.1-0.6-3-0.6
		c-0.9,0-2.4,0-4.4,0c-1.3-0.3-2-0.9-2-1.8s0.6-1.4,1.8-1.5c6.2-1.3,13.7-5.6,22.4-12.9C1345,305.2,1350.4,298.1,1352.5,291.1z"/>
	<path d="M1377.7,321h48.6c1.8,0,2.7,0.5,2.7,1.5c0,0.9-0.7,1.5-2,1.8c-1.9,0.6-3.3,1.5-4.1,2.9c-0.8,1.3-1,3.1-0.7,5.2
		c0.4,2.1,0.8,4,1.2,5.5c0.4,1.5,1.2,3.6,2.2,6.1l16.6,37.8l15.3-39.6c4.6-11.9,3.4-17.9-3.5-17.9c-1.2-0.1-1.8-0.7-1.8-1.8
		c0.1-1,0.7-1.5,1.8-1.5h27.4c1.2,0,1.8,0.5,1.8,1.5c0,1-0.6,1.6-1.8,1.8c-5,0.1-9.1,1.7-12.2,4.5c-3.1,2.9-6,8-8.8,15.4l-32.3,83.6
		c-3.1,7.7-6.6,13-10.5,15.9c-3.9,2.9-8.5,4.6-13.8,4.9c-6.2,0.1-11.8-2.2-16.9-7c-5.1-4.8-7.3-11.1-6.5-18.9
		c0.4-4.3,2.1-7.6,5.1-9.9c2.9-2.4,6.3-3.5,10.2-3.5c3.7-0.1,6.7,0.7,9.2,2.7c2.4,1.9,3.6,4.6,3.6,8.2c0,1.5-0.5,3.3-1.4,5.4
		c-1,2.1-1.6,3.8-2,5c-0.4,1.2,0,2.9,1,5.1c2.5,2.9,5.8,3.3,9.9,1.2c4.1-2.1,7.1-5.6,9.1-10.3l1.8-4.2l-35.2-78.5
		c-1.6-3.4-2.6-5.5-3-6.2c-0.4-0.7-1-1.9-1.9-3.5c-0.9-1.6-1.7-2.9-2.3-3.8c-0.7-0.9-1.4-1.8-2.2-2.9c-0.8-1-1.6-1.8-2.4-2.3
		c-0.8-0.5-1.5-0.8-2.1-0.8c-1.3-0.1-2-0.7-2-1.8C1375.7,321.5,1376.4,321,1377.7,321z"/>
	<path d="M1514.5,321c26.7-1.3,41.8,9.1,45.3,31.2l3.3,28.5c1.9,11.6,5.5,17.9,10.6,18.8c0.1,0.1,0.7,0.2,1.7,0.1
		c1-0.1,1.6-0.1,1.9-0.1c0.9,0,1.4,0.4,1.5,1.2c0.1,0.8-0.1,1.4-0.9,1.9c-6.2,3.7-13.2,5.5-21,5.5c-11.1,0-18.4-3.7-22.1-11.1
		c-1.3,1.5-2.8,2.8-4.3,3.9s-3.4,2.2-5.4,3.2c-2.1,1-4.7,1.9-7.8,2.7c-3.2,0.7-6.6,1.1-10.3,1.1c-5.3,0-10.1-0.7-14.5-2
		c-4.3-1.3-8-3.7-11.1-7.1c-3-3.4-4.5-7.7-4.5-13c0-5.2,1.1-9.4,3.3-12.8c2.2-3.4,5.2-5.8,8.8-7.3c3.7-1.5,7.4-2.6,11.2-3.3
		c3.8-0.7,7.8-1.4,12.2-2.1c4.3-0.7,7.6-1.5,9.8-2.5c2.7-1.2,4.4-2.7,5.2-4.6c0.8-1.9,1-4.6,0.6-8c-0.3-3.1-0.9-6-1.9-8.8
		c-1-2.8-2.7-5.5-5.2-8.1c-2.5-2.6-5.5-3.9-8.8-3.9c-3.2,0-5.6,0.8-7.2,2.3c-1.5,1.5-2.3,3.4-2.3,5.6c0,1.5,0.5,2.8,1.4,4
		c1,1.2,2,2.1,3.2,2.9c1.2,0.7,2.2,1.9,3,3.5c0.8,1.6,1,3.5,0.7,5.5c-0.4,2.1-1.4,3.9-3.1,5.4c-1.7,1.5-3.6,2.5-5.7,3
		c-2.1,0.4-4.3,0.5-6.6,0.2c-2.3-0.3-4.3-1.3-6.2-2.9c-1.8-1.6-3.1-3.7-3.6-6.2c-1.9-6.8-0.3-12.8,4.9-18
		C1495.6,324.5,1503.6,321.6,1514.5,321z M1529.3,356.4c-1.5,2.1-3.4,3.7-5.7,4.9c-0.4,0.3-1.7,1-3.6,2.2c-2,1.2-3.4,2-4.1,2.5
		c-0.7,0.5-1.9,1.4-3.5,2.8c-1.6,1.3-2.8,2.5-3.4,3.6s-1.3,2.6-1.9,4.4c-0.6,1.8-0.9,3.8-0.9,5.9c0,8.3,3.4,13.7,10.2,16.4
		c5.5,2.1,10,1.5,13.7-1.8c2.5-2.1,3.5-4.8,3.1-8.2L1529.3,356.4z"/>
	<path d="M724.7,453c4.1,0,8.3,0.4,12.4,1.2c4.1,0.8,7.3,1.5,9.6,2.2c2.3,0.7,4.3,1,6.2,0.9c1.8-0.1,3.1-0.8,3.9-2.1
		c0.4-0.9,1.1-1.3,2-1.1c0.9,0.1,1.3,0.7,1.3,1.8v28.5c0,1-0.5,1.6-1.5,1.8c-0.9,0-1.5-0.4-1.8-1.3c-1.5-5.6-3.4-10.3-5.9-14.1
		c-2.4-3.8-5.2-6.7-8.2-8.6c-3-1.9-5.9-3.3-8.7-4.2c-2.8-0.9-5.9-1.4-9.3-1.5c-6.6,0-11.9,2.2-15.9,6.5c-4,4.3-6,9.8-6,16.2
		c0,4.3,1.3,8.1,3.9,11.4c2.6,3.3,5.9,6.1,10.1,8.3c4.1,2.2,8.7,4.3,13.7,6.4c5,2.1,10,4.3,15,6.9c5,2.5,9.6,5.3,13.8,8.4
		c4.2,3.1,7.6,7.1,10.2,11.9c2.6,4.9,3.9,10.5,3.9,16.8c0,10.9-5.1,20.2-15.3,27.7c-10.2,7.6-24,11.4-41.3,11.4
		c-16.7,0-29.8-3.2-39.4-9.6C667.8,572.3,663,563,663,551c0-6.5,1.7-12,5.2-16.7c3.5-4.6,8.4-7,14.9-7c5.7,0,10.3,1.5,13.7,4.6
		c3.4,3.1,5.1,6.9,5.1,11.5c0,2.7-0.6,5.1-1.9,7.2c-1.3,2.1-2.6,3.8-4.1,5c-1.5,1.2-2.8,2.8-4,4.9c-1.2,2.1-1.8,4.5-1.8,7.3
		c0.1,4.4,2.4,8.4,6.7,11.9c4.3,3.5,10.9,5.3,19.6,5.3c8.8,0,16.1-2.6,21.9-7.8c5.7-5.2,8.6-10.6,8.6-16.2c0-3.2-0.8-6.2-2.4-9
		c-1.6-2.7-3.8-5.1-6.4-7.1c-2.7-2-5.7-3.9-9.2-5.6c-3.5-1.8-7.1-3.5-10.9-5.3c-3.8-1.8-7.7-3.6-11.5-5.4c-3.8-1.8-7.5-4-10.9-6.4
		c-3.5-2.4-6.5-5.1-9.2-8.1c-2.7-2.9-4.8-6.5-6.4-10.7c-1.6-4.2-2.4-8.8-2.4-13.8c0-4.4,0.8-8.7,2.3-12.7c1.5-4.1,4-7.9,7.4-11.6
		c3.4-3.7,8.3-6.6,14.7-8.8C708.5,454.1,716,453,724.7,453z"/>
	<path d="M822.4,501.2c26.7-1.3,41.8,9.1,45.3,31.2l3.3,28.5c1.9,11.6,5.5,17.9,10.6,18.8c0.1,0.1,0.7,0.2,1.7,0.1
		c1-0.1,1.6-0.1,1.9-0.1c0.9,0,1.4,0.4,1.5,1.2c0.1,0.8-0.1,1.4-0.9,1.9c-6.2,3.7-13.2,5.5-21,5.5c-11.1,0-18.4-3.7-22.1-11.1
		c-1.3,1.5-2.8,2.8-4.3,3.9s-3.4,2.2-5.4,3.2c-2.1,1-4.7,1.9-7.8,2.7c-3.2,0.7-6.6,1.1-10.3,1.1c-5.3,0-10.1-0.7-14.5-2
		c-4.3-1.3-8-3.7-11.1-7.1c-3-3.4-4.5-7.7-4.5-13c0-5.2,1.1-9.4,3.3-12.8c2.2-3.4,5.2-5.8,8.8-7.3c3.7-1.5,7.4-2.6,11.2-3.3
		c3.8-0.7,7.8-1.4,12.2-2.1c4.3-0.7,7.6-1.5,9.8-2.5c2.7-1.2,4.4-2.7,5.2-4.6c0.8-1.9,1-4.6,0.6-8c-0.3-3.1-0.9-6-1.9-8.8
		c-1-2.8-2.7-5.5-5.2-8.1c-2.5-2.6-5.5-3.9-8.8-3.9c-3.2,0-5.6,0.8-7.2,2.3c-1.5,1.5-2.3,3.4-2.3,5.6c0,1.5,0.5,2.8,1.4,4
		c1,1.2,2,2.1,3.2,2.9c1.2,0.7,2.2,1.9,3,3.5c0.8,1.6,1,3.5,0.7,5.5c-0.4,2.1-1.4,3.9-3.1,5.4c-1.7,1.5-3.6,2.5-5.7,3
		c-2.1,0.4-4.3,0.5-6.6,0.2c-2.3-0.3-4.3-1.2-6.2-2.9c-1.8-1.6-3.1-3.7-3.6-6.2c-1.9-6.8-0.3-12.8,4.9-18
		C803.5,504.7,811.5,501.8,822.4,501.2z M837.3,536.6c-1.5,2.1-3.4,3.7-5.7,4.9c-0.4,0.3-1.7,1-3.6,2.2c-2,1.2-3.4,2-4.1,2.5
		c-0.7,0.5-1.9,1.4-3.5,2.8c-1.6,1.3-2.8,2.5-3.4,3.6c-0.7,1.1-1.3,2.6-1.9,4.4c-0.6,1.8-0.9,3.8-0.9,5.9c0,8.3,3.4,13.7,10.2,16.4
		c5.5,2.1,10,1.5,13.7-1.8c2.5-2.1,3.5-4.8,3.1-8.2L837.3,536.6z"/>
	<path d="M925.7,454.6c0.6-0.6,1.3-0.7,2-0.2c0.6,0.3,0.9,0.8,0.9,1.5v53.3c6.5-4.9,13.4-7.4,20.8-7.7c7.4-0.3,14,1.3,19.9,4.8
		c5.9,3.5,10.9,8.4,14.9,14.9c4.1,6.5,6.2,13.6,6.3,21.2c0.3,12.2-3.1,22.8-10.1,31.6c-7,8.8-15.9,13.6-26.6,14.4
		c-11.4,0.7-21.2-3.4-29.6-12.4L900,586.6c-1.6,0.6-2.4,0.1-2.4-1.5v-89.8c0-7.1-0.8-12.4-2.4-16c-1.6-3.6-4.4-5.8-8.4-6.5
		c-1.2,0-1.8-0.6-1.8-1.8c0-1,0.6-1.5,1.8-1.5c4.9-0.1,9.7-0.9,14.6-2.3c4.9-1.4,9.1-3.1,12.6-5c3.5-1.9,6.1-3.4,7.7-4.5
		C923.3,456.4,924.7,455.5,925.7,454.6z M937.6,508.3c-2.7,0-4.8,1.3-6.4,4c-4.1,6.6-3.8,19.3,1.1,38c3.1,11.1,6.8,19.8,11.2,26.3
		c4.3,6.5,8.7,9.1,12.9,8c4.1-1,6.4-5.9,6.7-14.5c0.4-8.6-0.8-17.6-3.6-27.1c-1.8-6.8-3.8-12.7-6.2-17.9c-2.4-5.2-4.9-9.2-7.6-12.3
		C943,509.8,940.3,508.3,937.6,508.3z"/>
	<path d="M1034.7,454.6c0.4-0.4,1-0.5,1.7-0.2c0.7,0.3,1,0.8,1,1.5v53.7c6-5,13-7.7,20.8-8.2c23.3-1.6,36.3,8.7,38.9,31l4,31.2
		c0.7,6.5,2.2,11.2,4.3,14.3c2.1,3,5.3,4.9,9.4,5.6c1.3,0.1,2,0.7,2,1.5c0.1,1.2-0.4,1.8-1.8,1.8h-53.5c-1.3,0-2-0.6-2-1.8
		c0-0.9,0.7-1.4,2-1.5c4.3-0.7,7-2.5,8.2-5.4c1.2-2.9,1.3-7.7,0.4-14.5l-3.3-28.7c-1-9.9-3.4-17.2-7.1-22c-3.7-4.8-7.8-6.6-12.4-5.4
		c-1.9,0.6-3.5,1.5-4.9,2.8c-1.3,1.3-2.5,3.8-3.5,7.5c-1,3.8-1.5,8.7-1.5,14.9v31c0,6.5,0.9,11.2,2.7,14.3c1.8,3,4.7,4.9,8.8,5.6
		c1.2,0.1,1.8,0.7,1.8,1.5c0,1.2-0.7,1.8-2,1.8h-53.5c-1.2,0-1.8-0.6-1.8-1.8c0-0.9,0.7-1.4,2-1.5c4.4-0.6,7.4-2.4,9-5.3
		c1.5-2.9,2.3-7.8,2.3-14.6v-68.3c0-7.1-0.8-12.4-2.5-16c-1.7-3.6-4.5-5.8-8.5-6.5c-1,0-1.5-0.6-1.5-1.8c0-1,0.5-1.5,1.5-1.5
		c6.5-0.3,13-1.7,19.5-4.1c6.5-2.4,11-4.5,13.5-6.2C1031,457.4,1033.1,455.9,1034.7,454.6z"/>
	<path d="M1159.4,501.2c26.7-1.3,41.8,9.1,45.3,31.2l3.3,28.5c1.9,11.6,5.5,17.9,10.6,18.8c0.1,0.1,0.7,0.2,1.7,0.1
		c1-0.1,1.6-0.1,1.9-0.1c0.9,0,1.4,0.4,1.5,1.2c0.1,0.8-0.1,1.4-0.9,1.9c-6.2,3.7-13.2,5.5-21,5.5c-11.1,0-18.4-3.7-22.1-11.1
		c-1.3,1.5-2.8,2.8-4.3,3.9s-3.4,2.2-5.4,3.2c-2.1,1-4.7,1.9-7.8,2.7c-3.2,0.7-6.6,1.1-10.3,1.1c-5.3,0-10.1-0.7-14.5-2
		c-4.3-1.3-8-3.7-11.1-7.1c-3-3.4-4.5-7.7-4.5-13c0-5.2,1.1-9.4,3.3-12.8c2.2-3.4,5.2-5.8,8.8-7.3c3.7-1.5,7.4-2.6,11.2-3.3
		c3.8-0.7,7.8-1.4,12.2-2.1c4.3-0.7,7.6-1.5,9.8-2.5c2.7-1.2,4.4-2.7,5.2-4.6c0.8-1.9,1-4.6,0.6-8c-0.3-3.1-0.9-6-1.9-8.8
		c-1-2.8-2.7-5.5-5.2-8.1c-2.5-2.6-5.5-3.9-8.8-3.9c-3.2,0-5.6,0.8-7.2,2.3c-1.5,1.5-2.3,3.4-2.3,5.6c0,1.5,0.5,2.8,1.4,4
		c1,1.2,2,2.1,3.2,2.9c1.2,0.7,2.2,1.9,3,3.5c0.8,1.6,1,3.5,0.7,5.5c-0.4,2.1-1.4,3.9-3.1,5.4c-1.7,1.5-3.6,2.5-5.7,3
		c-2.1,0.4-4.3,0.5-6.6,0.2c-2.3-0.3-4.3-1.2-6.2-2.9c-1.8-1.6-3.1-3.7-3.6-6.2c-1.9-6.8-0.3-12.8,4.9-18
		C1140.4,504.7,1148.5,501.8,1159.4,501.2z M1174.2,536.6c-1.5,2.1-3.4,3.7-5.7,4.9c-0.4,0.3-1.7,1-3.6,2.2c-2,1.2-3.4,2-4.1,2.5
		c-0.7,0.5-1.9,1.4-3.5,2.8c-1.6,1.3-2.8,2.5-3.4,3.6s-1.3,2.6-1.9,4.4c-0.6,1.8-0.9,3.8-0.9,5.9c0,8.3,3.4,13.7,10.2,16.4
		c5.5,2.1,10,1.5,13.7-1.8c2.5-2.1,3.5-4.8,3.1-8.2L1174.2,536.6z"/>
</g>
<g>
	<path d="M917.6,211.5c0,0.5,0,0.8-0.1,1.2c-0.1,0.3-0.1,0.6-0.3,0.8c-0.1,0.2-0.3,0.4-0.4,0.4c-0.2,0.1-0.4,0.1-0.6,0.1H902v40.1
		c0,0.2-0.1,0.4-0.2,0.5c-0.1,0.1-0.3,0.3-0.5,0.3c-0.3,0.1-0.6,0.2-1,0.2c-0.4,0.1-1,0.1-1.6,0.1c-0.6,0-1.2,0-1.6-0.1
		c-0.4-0.1-0.8-0.1-1.1-0.2c-0.3-0.1-0.4-0.2-0.5-0.3s-0.2-0.3-0.2-0.5v-40.1h-14.2c-0.2,0-0.4,0-0.6-0.1c-0.2-0.1-0.3-0.2-0.4-0.4
		c-0.1-0.2-0.2-0.5-0.3-0.8c-0.1-0.3-0.1-0.7-0.1-1.2c0-0.5,0-0.9,0.1-1.2c0.1-0.3,0.1-0.6,0.3-0.8s0.2-0.4,0.4-0.5
		c0.2-0.1,0.4-0.1,0.6-0.1h35.2c0.2,0,0.4,0,0.6,0.1c0.2,0.1,0.3,0.3,0.4,0.5s0.2,0.5,0.3,0.8C917.6,210.6,917.6,211,917.6,211.5z"
		/>
	<path d="M964.5,254.2c0,0.2-0.1,0.4-0.2,0.5c-0.1,0.1-0.3,0.3-0.5,0.3c-0.3,0.1-0.6,0.2-1,0.2c-0.4,0.1-1,0.1-1.6,0.1
		c-0.7,0-1.2,0-1.6-0.1c-0.4-0.1-0.8-0.1-1-0.2c-0.3-0.1-0.4-0.2-0.5-0.3s-0.2-0.3-0.2-0.5v-20.5h-23v20.5c0,0.2-0.1,0.4-0.2,0.5
		c-0.1,0.1-0.3,0.3-0.5,0.3c-0.3,0.1-0.6,0.2-1,0.2c-0.4,0.1-1,0.1-1.6,0.1c-0.6,0-1.2,0-1.6-0.1c-0.4-0.1-0.8-0.1-1.1-0.2
		c-0.3-0.1-0.4-0.2-0.5-0.3c-0.1-0.1-0.2-0.3-0.2-0.5v-44.4c0-0.2,0.1-0.4,0.2-0.5c0.1-0.1,0.3-0.3,0.5-0.3s0.6-0.2,1.1-0.2
		c0.4-0.1,1-0.1,1.6-0.1c0.7,0,1.2,0,1.6,0.1s0.8,0.1,1,0.2c0.3,0.1,0.4,0.2,0.5,0.3c0.1,0.1,0.2,0.3,0.2,0.5v18.5h23v-18.5
		c0-0.2,0.1-0.4,0.2-0.5s0.3-0.3,0.5-0.3c0.3-0.1,0.6-0.2,1-0.2s1-0.1,1.6-0.1c0.6,0,1.2,0,1.6,0.1s0.8,0.1,1,0.2
		c0.3,0.1,0.4,0.2,0.5,0.3c0.1,0.1,0.2,0.3,0.2,0.5V254.2z"/>
	<path d="M1009.3,252.5c0,0.4,0,0.8-0.1,1.1c-0.1,0.3-0.1,0.6-0.3,0.8c-0.1,0.2-0.3,0.4-0.5,0.5c-0.2,0.1-0.4,0.1-0.6,0.1h-24.3
		c-0.6,0-1.2-0.2-1.7-0.6c-0.5-0.4-0.8-1-0.8-1.9v-41.2c0-0.9,0.3-1.6,0.8-1.9c0.5-0.4,1.1-0.6,1.7-0.6h24c0.2,0,0.4,0,0.6,0.1
		c0.2,0.1,0.3,0.3,0.4,0.5s0.2,0.5,0.3,0.8c0.1,0.3,0.1,0.7,0.1,1.2c0,0.4,0,0.8-0.1,1.1c-0.1,0.3-0.2,0.6-0.3,0.8
		c-0.1,0.2-0.2,0.4-0.4,0.4c-0.2,0.1-0.4,0.1-0.6,0.1h-19.8v14.5h17c0.2,0,0.4,0.1,0.6,0.2c0.2,0.1,0.3,0.3,0.4,0.4
		c0.1,0.2,0.2,0.5,0.3,0.8c0.1,0.3,0.1,0.7,0.1,1.2c0,0.4,0,0.8-0.1,1.1c-0.1,0.3-0.1,0.6-0.3,0.8c-0.1,0.2-0.3,0.3-0.4,0.4
		s-0.4,0.1-0.6,0.1h-17V250h20.1c0.2,0,0.4,0,0.6,0.1c0.2,0.1,0.3,0.2,0.5,0.4c0.1,0.2,0.2,0.5,0.3,0.8
		C1009.3,251.7,1009.3,252.1,1009.3,252.5z"/>
</g>
<g>
	<path d="M780.3,691c0,0.1,0,0.3-0.1,0.4c-0.1,0.1-0.2,0.2-0.4,0.3c-0.2,0.1-0.4,0.1-0.7,0.2c-0.3,0-0.6,0.1-1.1,0.1
		c-0.4,0-0.8,0-1-0.1c-0.3,0-0.5-0.1-0.7-0.2c-0.2-0.1-0.3-0.2-0.4-0.3c-0.1-0.1-0.1-0.2-0.1-0.4v-41c0-0.1,0-0.2,0.1-0.4
		c0.1-0.1,0.2-0.2,0.4-0.3s0.4-0.1,0.7-0.2c0.3,0,0.6-0.1,1-0.1c0.4,0,0.8,0,1.1,0.1c0.3,0,0.5,0.1,0.7,0.2c0.2,0.1,0.3,0.2,0.4,0.3
		c0.1,0.1,0.1,0.2,0.1,0.4V691z"/>
	<path d="M800.4,691c0,0.1,0,0.3-0.1,0.4c-0.1,0.1-0.2,0.2-0.4,0.3c-0.2,0.1-0.4,0.1-0.7,0.2c-0.3,0-0.6,0.1-1.1,0.1
		c-0.4,0-0.8,0-1-0.1c-0.3,0-0.5-0.1-0.7-0.2c-0.2-0.1-0.3-0.2-0.4-0.3c-0.1-0.1-0.1-0.2-0.1-0.4v-41c0-0.1,0-0.2,0.1-0.4
		c0.1-0.1,0.2-0.2,0.4-0.3s0.4-0.1,0.7-0.2c0.3,0,0.6-0.1,1-0.1c0.4,0,0.8,0,1.1,0.1c0.3,0,0.5,0.1,0.7,0.2c0.2,0.1,0.3,0.2,0.4,0.3
		c0.1,0.1,0.1,0.2,0.1,0.4V691z"/>
	<path d="M844.2,651.1c0,0.3,0,0.5-0.1,0.8c0,0.2-0.1,0.4-0.2,0.5c-0.1,0.1-0.2,0.3-0.4,0.3c-0.1,0.1-0.3,0.1-0.5,0.1h-13.8V691
		c0,0.1,0,0.3-0.1,0.4s-0.2,0.2-0.4,0.3c-0.2,0.1-0.4,0.1-0.7,0.2c-0.3,0-0.6,0.1-1,0.1c-0.4,0-0.8,0-1-0.1c-0.3,0-0.5-0.1-0.7-0.2
		c-0.2-0.1-0.3-0.2-0.4-0.3c-0.1-0.1-0.1-0.2-0.1-0.4v-38.1h-13.8c-0.2,0-0.4,0-0.5-0.1c-0.1-0.1-0.2-0.2-0.3-0.3
		c-0.1-0.1-0.2-0.3-0.2-0.5c0-0.2-0.1-0.5-0.1-0.8c0-0.3,0-0.6,0.1-0.8c0-0.2,0.1-0.4,0.2-0.6c0.1-0.2,0.2-0.3,0.3-0.3
		c0.1-0.1,0.3-0.1,0.5-0.1h32c0.2,0,0.3,0,0.5,0.1c0.1,0.1,0.3,0.2,0.4,0.3c0.1,0.2,0.2,0.3,0.2,0.6
		C844.2,650.6,844.2,650.8,844.2,651.1z"/>
	<path d="M900.7,690.9c0,0.2,0,0.3-0.1,0.4c0,0.1-0.2,0.2-0.3,0.3s-0.4,0.1-0.7,0.2c-0.3,0-0.7,0.1-1.1,0.1c-0.4,0-0.9,0-1.3-0.1
		c-0.4,0-0.8-0.1-1-0.3c-0.2-0.1-0.4-0.3-0.6-0.5l-18.7-21.7V691c0,0.1,0,0.3-0.1,0.4c-0.1,0.1-0.2,0.2-0.4,0.3
		c-0.2,0.1-0.4,0.1-0.7,0.2c-0.3,0-0.6,0.1-1.1,0.1c-0.4,0-0.8,0-1-0.1c-0.3,0-0.5-0.1-0.7-0.2c-0.2-0.1-0.3-0.2-0.4-0.3
		c-0.1-0.1-0.1-0.2-0.1-0.4v-41c0-0.1,0-0.2,0.1-0.4c0.1-0.1,0.2-0.2,0.4-0.3s0.4-0.1,0.7-0.2c0.3,0,0.6-0.1,1-0.1
		c0.4,0,0.8,0,1.1,0.1c0.3,0,0.5,0.1,0.7,0.2s0.3,0.2,0.4,0.3c0.1,0.1,0.1,0.2,0.1,0.4v19.2l17.9-19.2c0.1-0.2,0.3-0.3,0.5-0.4
		c0.2-0.1,0.4-0.2,0.6-0.3s0.5-0.1,0.8-0.1c0.3,0,0.6,0,1.1,0c0.4,0,0.8,0,1,0.1c0.3,0,0.5,0.1,0.6,0.2s0.3,0.2,0.3,0.3
		c0,0.1,0.1,0.2,0.1,0.3c0,0.2-0.1,0.5-0.2,0.7c-0.1,0.2-0.4,0.5-0.7,0.8L882,669.1l18,20.6c0.3,0.4,0.5,0.7,0.6,0.8
		C900.7,690.7,900.7,690.8,900.7,690.9z"/>
	<path d="M944.5,690.3c0.1,0.3,0.2,0.6,0.2,0.8c0,0.2-0.1,0.4-0.2,0.5c-0.2,0.1-0.4,0.2-0.7,0.2c-0.3,0-0.7,0-1.2,0s-0.9,0-1.2,0
		c-0.3,0-0.5-0.1-0.7-0.1s-0.3-0.2-0.4-0.3c-0.1-0.1-0.2-0.2-0.2-0.4l-4.4-11.3h-20.3l-4.3,11.2c0,0.2-0.1,0.3-0.2,0.4
		c-0.1,0.1-0.2,0.2-0.4,0.3c-0.2,0.1-0.4,0.1-0.7,0.2c-0.3,0-0.7,0.1-1.1,0.1c-0.5,0-0.9,0-1.3-0.1c-0.3,0-0.6-0.1-0.7-0.2
		c-0.2-0.1-0.2-0.3-0.2-0.5c0-0.2,0.1-0.5,0.2-0.8l16.2-40.3c0.1-0.2,0.2-0.3,0.3-0.4c0.1-0.1,0.3-0.2,0.6-0.3
		c0.2-0.1,0.5-0.1,0.8-0.1c0.3,0,0.7,0,1.1,0c0.4,0,0.8,0,1.1,0c0.3,0,0.6,0.1,0.8,0.1s0.4,0.2,0.5,0.3c0.1,0.1,0.2,0.3,0.3,0.4
		L944.5,690.3z M925.3,653.6L925.3,653.6l-8.8,22.8h17.7L925.3,653.6z"/>
	<path d="M988.4,689.7c0,0.4-0.1,0.7-0.2,1s-0.3,0.5-0.5,0.6c-0.2,0.2-0.4,0.3-0.7,0.3c-0.2,0.1-0.5,0.1-0.7,0.1h-0.9
		c-0.5,0-0.9-0.1-1.3-0.2c-0.4-0.1-0.8-0.3-1.1-0.6c-0.4-0.3-0.7-0.6-1.1-1.1c-0.4-0.5-0.8-1-1.2-1.8l-16.3-26.4
		c-0.8-1.3-1.6-2.6-2.5-4c-0.8-1.4-1.6-2.7-2.3-4h0c0,1.6,0,3.2,0,4.9s0,3.3,0,4.9V691c0,0.1,0,0.3-0.1,0.4
		c-0.1,0.1-0.2,0.2-0.4,0.3c-0.2,0.1-0.4,0.1-0.7,0.2c-0.3,0-0.6,0.1-1.1,0.1c-0.4,0-0.8,0-1-0.1c-0.3,0-0.5-0.1-0.7-0.2
		c-0.2-0.1-0.3-0.2-0.4-0.3c-0.1-0.1-0.1-0.2-0.1-0.4v-39.6c0-0.8,0.2-1.3,0.7-1.6c0.5-0.3,0.9-0.4,1.3-0.4h1.8c0.6,0,1,0,1.4,0.1
		c0.4,0.1,0.7,0.2,1,0.4c0.3,0.2,0.6,0.5,0.9,0.9c0.3,0.4,0.6,0.9,1,1.5l12.5,20.2c0.8,1.3,1.5,2.5,2.2,3.6c0.7,1.2,1.4,2.3,2.1,3.4
		c0.7,1.1,1.3,2.2,2,3.3c0.7,1.1,1.3,2.2,1.9,3.3h0c0-1.8,0-3.7,0-5.7c0-2,0-3.9,0-5.7v-24.6c0-0.1,0-0.2,0.1-0.4
		c0.1-0.1,0.2-0.2,0.4-0.3c0.2-0.1,0.4-0.1,0.7-0.2c0.3,0,0.6,0,1.1,0c0.4,0,0.7,0,1,0c0.3,0,0.5,0.1,0.7,0.2
		c0.2,0.1,0.3,0.2,0.4,0.3c0.1,0.1,0.1,0.2,0.1,0.4V689.7z"/>
	<path d="M1030.8,661.4c0,2-0.4,3.8-1.1,5.4c-0.7,1.6-1.8,3-3.1,4.2c-1.4,1.2-3,2.1-5,2.7c-2,0.7-4.3,1-7.1,1h-6V691
		c0,0.1,0,0.3-0.1,0.4c-0.1,0.1-0.2,0.2-0.4,0.3c-0.2,0.1-0.4,0.1-0.7,0.2c-0.3,0-0.6,0.1-1.1,0.1c-0.4,0-0.8,0-1-0.1
		c-0.3,0-0.5-0.1-0.7-0.2c-0.2-0.1-0.3-0.2-0.4-0.3c-0.1-0.1-0.1-0.2-0.1-0.4v-39.6c0-0.8,0.2-1.3,0.7-1.6c0.5-0.3,0.9-0.4,1.3-0.4
		h9.4c0.9,0,1.8,0,2.7,0.1s1.9,0.2,3.1,0.5s2.4,0.7,3.6,1.4s2.3,1.5,3.1,2.5c0.9,1,1.5,2.1,2,3.4
		C1030.5,658.5,1030.8,659.9,1030.8,661.4z M1026.1,661.8c0-1.8-0.4-3.4-1.2-4.7s-1.7-2.2-2.9-2.8s-2.3-1-3.5-1.2
		c-1.2-0.2-2.4-0.2-3.5-0.2h-6.6v18.4h6.3c2,0,3.7-0.2,5.1-0.7s2.5-1.1,3.4-1.9c0.9-0.8,1.6-1.8,2.1-3
		C1025.9,664.4,1026.1,663.2,1026.1,661.8z"/>
	<path d="M1076.7,676c0,2.6-0.4,4.9-1.2,6.9s-1.9,3.7-3.4,5.1c-1.5,1.4-3.3,2.4-5.4,3.1c-2.1,0.7-4.4,1.1-7,1.1
		c-2.4,0-4.5-0.3-6.5-1c-2-0.7-3.7-1.7-5.2-3c-1.4-1.3-2.6-3-3.4-4.9s-1.2-4.2-1.2-6.8V650c0-0.1,0-0.2,0.1-0.4s0.2-0.2,0.4-0.3
		c0.2-0.1,0.4-0.1,0.7-0.2c0.3,0,0.6-0.1,1-0.1c0.4,0,0.8,0,1,0.1c0.3,0,0.5,0.1,0.7,0.2s0.3,0.2,0.4,0.3c0.1,0.1,0.1,0.2,0.1,0.4
		v25.9c0,2.1,0.3,4,0.8,5.6c0.6,1.6,1.4,2.9,2.4,4c1.1,1.1,2.3,1.9,3.9,2.4c1.5,0.5,3.2,0.8,5.1,0.8c1.9,0,3.7-0.3,5.2-0.8
		c1.5-0.5,2.8-1.3,3.8-2.3c1-1,1.9-2.3,2.4-3.9c0.6-1.6,0.8-3.4,0.8-5.5V650c0-0.1,0-0.2,0.1-0.4s0.2-0.2,0.4-0.3s0.4-0.1,0.7-0.2
		c0.3,0,0.6-0.1,1-0.1c0.4,0,0.8,0,1,0.1c0.3,0,0.5,0.1,0.7,0.2s0.3,0.2,0.4,0.3c0.1,0.1,0.1,0.2,0.1,0.4V676z"/>
	<path d="M1121.3,690.9c0,0.2,0,0.3-0.1,0.4c-0.1,0.1-0.2,0.2-0.3,0.3c-0.2,0.1-0.4,0.1-0.7,0.2c-0.3,0-0.7,0.1-1.1,0.1
		c-0.4,0-0.7,0-1,0c-0.3,0-0.5-0.1-0.7-0.2c-0.2-0.1-0.3-0.2-0.5-0.4c-0.1-0.2-0.2-0.4-0.3-0.6l-4.3-10.3c-0.5-1.2-1-2.2-1.6-3.3
		c-0.6-1-1.3-1.9-2.1-2.7c-0.8-0.8-1.8-1.3-2.9-1.8c-1.1-0.4-2.5-0.7-4.1-0.7h-4.8V691c0,0.1,0,0.3-0.1,0.4
		c-0.1,0.1-0.2,0.2-0.4,0.3c-0.2,0.1-0.4,0.1-0.7,0.2c-0.3,0-0.6,0.1-1.1,0.1c-0.4,0-0.8,0-1-0.1c-0.3,0-0.5-0.1-0.7-0.2
		c-0.2-0.1-0.3-0.2-0.4-0.3c-0.1-0.1-0.1-0.2-0.1-0.4v-39.6c0-0.8,0.2-1.3,0.7-1.6c0.5-0.3,0.9-0.4,1.3-0.4h8.7c1.1,0,2.1,0,2.8,0.1
		c0.8,0.1,1.4,0.1,2.1,0.2c1.8,0.3,3.3,0.7,4.6,1.4c1.3,0.6,2.4,1.4,3.3,2.3c0.9,0.9,1.5,2,1.9,3.1c0.4,1.2,0.6,2.4,0.6,3.8
		c0,1.4-0.2,2.6-0.6,3.7c-0.4,1.1-1,2.1-1.8,2.9c-0.8,0.8-1.7,1.6-2.8,2.2c-1.1,0.6-2.3,1.1-3.6,1.5c0.8,0.3,1.5,0.7,2.1,1.2
		c0.6,0.5,1.2,1.1,1.8,1.7c0.5,0.7,1,1.5,1.5,2.3c0.5,0.9,1,1.9,1.4,3l4.3,9.9c0.3,0.8,0.5,1.3,0.6,1.6
		C1121.2,690.6,1121.3,690.8,1121.3,690.9z M1113.6,660.6c0-1.8-0.4-3.3-1.3-4.6c-0.9-1.3-2.4-2.2-4.4-2.7c-0.7-0.2-1.4-0.3-2.3-0.4
		c-0.8-0.1-1.9-0.1-3.2-0.1h-5.7v15.5h6.7c1.8,0,3.3-0.2,4.6-0.6s2.4-1,3.2-1.7c0.8-0.7,1.5-1.5,1.9-2.5S1113.6,661.7,1113.6,660.6z
		"/>
</g>
</svg>
