<?xml version="1.0" encoding="utf-8"?>
<!-- Generator: Adobe Illustrator 24.3.0, SVG Export Plug-In . SVG Version: 6.00 Build 0)  -->
<svg version="1.1" id="Layer_1" xmlns="http://www.w3.org/2000/svg" xmlns:xlink="http://www.w3.org/1999/xlink" x="0px" y="0px"
	 viewBox="0 0 1895.9 812" style="enable-background:new 0 0 1895.9 812;" xml:space="preserve">
<style type="text/css">
	.st0{fill:#A6D6CB;}
</style>
<path class="st0" d="M216.7,297.1c-2,1.6-9.6,7.9-11.1,17.9c-1.3,8.8,3.1,11.3,1.5,21.4c-1,6.5-3.7,11.3-7.3,17.5
	c-4.4,7.8-5.8,7.3-8.4,12.7c-4.5,9.2-4.3,18.4-4.2,24c0.1,4.2,0.4,14.6,5.4,24.8c2.3,4.7,5.8,9.6,7.1,11.5c3.3,4.8,5,7.1,6.4,8.6
	c1.3,1.4,3,2.9,4.5,5.8c0.4,0.8,1.3,2.4,1.7,4.3c0.4,1.5,0.8,4.6-2.1,13c-0.4,1.1-1.3,3.7-4.4,10.4c-2.6,5.7-4,8.6-4.9,10.1
	c-3.8,6.1-8.4,9.3-11.9,11.8c-4.9,3.4-9.6,5.4-13.7,6.7c-0.8,0.2-1.5,0.8-1.9,1.6c-0.4,0.7-0.8,1.4-1.1,2.1
	c-4.1,9.7-0.3,20.4,1.2,24.1c0.1,0.1,0.1,0.2,0.2,0.4c7.3,14,12.4,16.8,15.8,16.5c1-0.1,1.9-0.4,3.4-0.2c5.6,0.7,9.2,6.5,10.4,8.3
	c7.3,11,23.1,22.9,30.8,27.1c10.3,5.7,19.7,5.2,31.9,4.7c12.8-0.6,13.7-3.4,36.7-7.8c14.8-2.8,22.4-4.3,33.3-4.2
	c9.5,0.1,12.7,1.3,28.8,2.4c9.1,0.6,16.7,0.8,22.1,0.9c1,0,1.9,0.6,2.5,1.5c2.3,3.5,5.8,7.7,10.8,10.2c5.8,2.9,9.9,1.8,26.3-0.9
	c22.2-3.6,23.9-3.1,37.8-6.2c4.2-0.9,8.8-4.1,15.9-4c5.2,0,6.2,1.4,13.5,2.4c6.9,1,12.2,0.7,19.2,0.2c10-0.6,9.6-1.6,18.9-2.3
	c11.5-0.9,10.8,0.7,23.8-0.1c10-0.6,12.3-1.7,17.9-0.2c5.6,1.4,6,3.1,11.9,4c3.6,0.6,7.2,0.4,14.3,0c5.4-0.3,6-0.5,9.2-0.7
	c7.8-0.3,13.5,0.7,16.8,1.1c15.7,2.3,17.7-1.4,36.8,0.7c13.9,1.5,16.4,3.8,27,2.9c5-0.4,7.4-1.1,14.6-1.5c9.9-0.5,11.5,0.7,18.8,0.5
	c14.6-0.4,16.6-5.1,27.8-4.6c9,0.4,15,3.7,19.2,5.6c10.7,4.8,28,8.3,56.6,2.1c0.9-0.2,1.6-0.8,2.1-1.6c0.4-0.7,0.9-1.3,1.7-1.8
	c1.1-0.7,2.2-0.8,2.6-0.8c10.3-0.6,18.3-4,31.1,0.3c3.6,1.2,2.9,1.5,6.6,2.8c3.5,1.2,13.3,4.4,35.3,0.8c4-0.6,19-3.2,30.5-2.9
	c2.4,0.1,6.5,0.3,8.7,3.4c2.1,3,1.1,6.9,3,7.9c1.8,1,4.2-1.7,6.3-3.3c2.6-1.9,6.1-3.3,19.6-2.1c12.7,1.1,15.9,3,24.4,3.9
	c5.6,0.6,13.6,0.9,23.6-0.9c0.9-0.2,1.6-0.7,2.1-1.6l0.7-1.2c0.7-1.1,1.8-1.7,2.9-1.6c5.7,0.6,13.9,1.1,23.7,0.8
	c14.5-0.5,19.8-2.4,29.4-2.1c7.6,0.2,18.4,1.9,31.7,8.6c1.1,0.5,2.3,0.4,3.3-0.4c0.8-0.7,1.7-1.4,2.7-2.1c1.9-1.3,5.2-3.6,9.6-4.3
	c1.2-0.2,9.5-1.4,15.8,4.9c0.6,0.6,1.1,1.2,1.5,1.8c0.7,0.9,1.7,1.4,2.8,1.3c3-0.4,7-0.9,11.7-1.1c15-0.7,23.5,1.6,34.1,2.9
	c25.6,3.2,23.5-4.2,46.9-1c0,0,19.8,2.7,32.1-2c3.8-1.4,3.9-1.5,3.9-1.5c4.3-1.7,4.8-2,5.6-2.1c4-0.7,7.8,4.5,9,5.9
	c6.8,8,21.9,5.2,40.9,3.6c9.4-0.8,23.2-1.6,40.6-1.1c12-0.5,21.8-0.4,28.7-0.2c12.9,0.4,19.4,1.2,31,0c6.7-0.7,6.4-1.1,15.2-2.1
	c6-0.7,14.9-1.7,26-1.5c7.3,0.1,16.8,0.8,27.9,2.8c0.4,0.1,0.9,0.1,1.3-0.1c3.3-0.9,6.7-1.8,10.4-2.4c14.2-2.6,26.8-1.9,37-0.2
	c0.1,0,0.2,0,0.3,0c7.9,0.4,15.9,0.9,23.8,1.3c1.4,0.1,2.7-0.8,3.1-2.3c0.2-0.6,0.5-1.3,0.9-2c3.4-5.8,11.2-6.1,18.8-6.1
	c8,0,18.3,0.3,30.5,1.5c1,0.1,2.1-0.4,2.7-1.3c0.9-1.3,2.2-2.7,3.9-3.9c4.9-3.4,9.6-2,13.3-2.6c8.7-1.3,13.8-13.3,16.6-18.8
	c5.2-9.9,15.8-23,40.2-35.7c1-0.5,1.7-1.5,1.9-2.7c1-6.8,1.7-15,1.4-24.1c-0.1-5.2-0.6-9.9-1.1-14.2c-0.1-0.7-0.4-1.4-0.9-2
	c-1-1.3-2.2-3.1-3-5.4c-1.7-5.3-0.3-9.8,1-15.4c0,0,1.1-4.9,1.3-40.6c0-0.4,0-1.3-0.4-2.3c-1.1-2.4-3.8-3.1-4.4-3.3
	c-4.8-1.6-8.2-15.6-9-25.6c-1.1-12.8,1.5-23.5,3.8-30.5c0.1-0.3,0.2-0.7,0.2-1.1c0.7-10,0.7-18.5,0.5-24.7
	c-0.4-15-1.7-18.4-3.9-20.8c-1.5-1.6-4.6-3.3-10.8-6.7c-3.2-1.7-4.8-2.6-6.6-3.1c-4.7-1.3-6.5,0.2-11.2-0.2
	c-6.4-0.5-6.4-3.5-12.3-4.3c-6.2-0.8-6.6,2.5-14.9,3.3c-7.7,0.7-9.1-2-15.9-1c-6.4,0.9-9.4,3.9-13.2,5.7
	c-11.6,5.7-24.5-2.5-33.8-6.7c-9.3-4.3-24.2-5.1-54.2-6.7c-18.3-1-69.1-2.2-93.2,2.9c-3.9,0.8-10.2,2.5-18.1,0.3
	c-6.7-1.9-8.4-4.9-15.8-6.7c-5.1-1.3-8.3-0.8-16.1-0.3c-8.3,0.6-16.5,0.4-24.8,1c-31.9,2.3-43.2-4.2-76.7-0.5
	c-20.1,2.2-21.6,5.2-32.7,3.6c-15.2-2.2-28.3-4.1-35.8-6.2c-0.7-0.2-2.5-0.7-4.9-0.5c-5.2,0.5-8.9,4.2-9.6,4.9
	c-7.1,6.7-30.5-0.1-39.7-2.3c-7.5-1.8-38.1-9.1-67.7,1.5c-10.4,3.7-15.8,7.9-27,7.7c-10.5-0.2-14.6-4.1-27.8-5.2
	c-11.2-1-11.8,1.5-23.9,1.6c-18.5,0.2-34.8-5.2-46.7-9.2c-12.3-4.1-17.4-7.2-26.7-5.9c-6.7,0.9-6.9,2.9-17.6,6.2
	c-4.6,1.4-16,4.8-29.8,4.6c-13.2-0.2-14.4-3.6-25.1-2.1c-8.1,1.1-9.5,3.3-18.4,5.2c-7.9,1.8-11.3,1-26.2,0.8
	c-22.8-0.3-24.1,1.3-45.2,0.5c-6.6-0.2-4-0.3-19.2-1.1c-29.9-1.7-34.1-1.1-44.6-2.6c-7-1-17.1-3-29.3-7.3c-0.9-0.3-1.9-0.2-2.7,0.4
	c-6.1,4.3-11.2,6.5-14.4,7.6c-5,1.8-7,1.5-8.5,1c-2.7-1-3.5-2.9-5.6-2.6c-1.4,0.2-1.7,1.2-5.4,4.6c-2.2,2-3.3,3-4.3,3.3
	c-3.6,1.2-7.3-1.8-7.9-2.3c-4.6-3.7-4-8.6-6.9-9.2c-2-0.4-3,1.9-7.6,4.9c0,0-2.5,1.6-7.9,3.6c-15.1,5.6-41.9-0.7-41.9-0.7
	c-9.9-2.3-23.2-6.3-38.4-13.9c-0.7-0.4-1.6-0.4-2.3-0.1c-1.5,0.6-3.9,1.5-6.9,2.7c-18,7-23.1,9.2-30.5,8.8c-3.3-0.2-2.2-0.6-7.5-1.1
	c-7.7-0.8-12.6-0.2-26.8,1.6c-16.5,2.1-19,2.3-22.9,2.5c-7.1,0.3-6.6-0.3-14.6-0.2c-2.5,0-14.6,0.3-30.8,2.9
	c-8.1,1.3-9.4,2-14.8,2.9c-16.5,2.9-28.7,1-38.6,0c-28.1-2.7-26.3,3.6-52.2,1.3C243.4,297.8,229.9,286.3,216.7,297.1z"/>
<g>
	<path d="M396.4,273.9H456c14,0,25.4,3.6,34.2,10.9c8.8,7.3,13.2,17.9,13.2,31.7c0,14.1-4.7,25.3-14.1,33.4
		c-9.4,8.1-21.7,12.2-36.9,12.2h-13.7v21.2c0,6.6,0.9,11.5,2.7,14.5c1.8,3,4.7,4.8,8.8,5.4c1.2,0.1,1.8,0.7,1.8,1.5
		c0,1.2-0.5,1.8-1.5,1.8h-53.9c-1.2,0-1.8-0.6-1.8-1.8c0-0.9,0.6-1.4,1.8-1.5c3.1-0.4,5.5-1.4,7.2-2.9c1.7-1.5,2.8-3.5,3.4-6.2
		c0.6-2.7,0.9-6.3,0.9-10.8v-86.2c0-6.8-0.8-11.6-2.3-14.6c-1.5-2.9-4.6-4.7-9.2-5.3c-1.2-0.1-1.8-0.7-1.8-1.5
		C394.6,274.5,395.2,273.9,396.4,273.9z M438.6,277.2v81.6c9.9,0,18-4.2,24.4-12.5c6.4-8.3,9.6-18.2,9.6-29.7s-3.1-20.9-9.2-28.3
		C457.3,280.9,449,277.2,438.6,277.2z"/>
	<path d="M551.8,274.3c0.4-0.4,1-0.5,1.7-0.2c0.7,0.3,1,0.8,1,1.5v53.7c6-5,13-7.7,20.8-8.2c23.3-1.6,36.3,8.7,38.9,31l4,31.2
		c0.7,6.5,2.2,11.2,4.3,14.3c2.1,3,5.3,4.9,9.4,5.6c1.3,0.1,2,0.7,2,1.5c0.1,1.2-0.4,1.8-1.8,1.8h-53.5c-1.3,0-2-0.6-2-1.8
		c0-0.9,0.7-1.4,2-1.5c4.3-0.7,7-2.5,8.2-5.4c1.2-2.9,1.3-7.7,0.4-14.5l-3.3-28.7c-1-9.9-3.4-17.2-7.1-22c-3.7-4.8-7.8-6.6-12.4-5.4
		c-1.9,0.6-3.5,1.5-4.9,2.8c-1.3,1.3-2.5,3.8-3.5,7.5c-1,3.8-1.5,8.7-1.5,14.9v31c0,6.5,0.9,11.2,2.7,14.3c1.8,3,4.7,4.9,8.8,5.6
		c1.2,0.1,1.8,0.7,1.8,1.5c0,1.2-0.7,1.8-2,1.8h-53.5c-1.2,0-1.8-0.6-1.8-1.8c0-0.9,0.7-1.4,2-1.5c4.4-0.6,7.4-2.4,9-5.3
		c1.5-2.9,2.3-7.8,2.3-14.6V315c0-7.1-0.9-12.4-2.5-16c-1.7-3.6-4.5-5.8-8.5-6.5c-1,0-1.5-0.6-1.5-1.8c0-1,0.5-1.5,1.5-1.5
		c6.5-0.3,13-1.7,19.5-4.1c6.5-2.4,11-4.5,13.5-6.2C548.1,277.2,550.2,275.7,551.8,274.3z"/>
	<path d="M677.8,321c12.1,0,22.4,4.2,30.8,12.7c8.5,8.5,12.7,18.8,12.7,30.8c0,11.9-4.2,22.1-12.7,30.6
		c-8.5,8.5-18.8,12.7-30.8,12.7c-11.9,0-22.1-4.2-30.6-12.7c-8.5-8.5-12.7-18.7-12.7-30.6c0-12.1,4.2-22.4,12.7-30.8
		C655.7,325.2,665.9,321,677.8,321z M669.2,325.6c-0.7,0-1.3,0-1.8,0c-4.3,1.2-6.6,5.9-7,14.3c-0.4,8.3,0.9,17.8,3.9,28.4
		c3.1,11.1,6.8,19.9,11.2,26.6c4.3,6.7,8.7,9.5,12.9,8.3c4.3-1.2,6.6-5.9,7-14.1c0.4-8.3-0.9-17.7-3.9-28.3
		c-2.8-10.3-6.2-18.8-10.3-25.4C677.2,328.7,673.2,325.5,669.2,325.6z"/>
	<path d="M764.7,291.1c0.3-0.9,0.9-1.3,1.8-1.1c0.9,0.1,1.3,0.7,1.3,1.8v33.8H783c1.2,0,1.8,0.6,1.8,1.7s-0.6,1.7-1.8,1.7h-15.3v48
		c0,11.5,2.4,17.2,7.1,17c1.8,0,3.5-0.8,5.3-2.4c1.8-1.6,3.1-3.5,4-5.5c0.3-0.7,0.8-1.1,1.5-1.1c0.6,0,1,0.3,1.3,0.8
		c0.3,0.5,0.3,1.1,0,1.7c-2.5,5.7-6.2,10.6-11.1,14.6s-10.2,6-16.1,6c-7.7,0-13.4-2.4-17.2-7.2c-3.8-4.8-5.7-12.7-5.7-23.8l0.2-34
		c0-2.7,0-4.6,0-6s-0.2-2.7-0.6-4c-0.4-1.3-0.7-2.2-0.9-2.5c-0.2-0.4-0.9-0.7-2-1.1c-1.1-0.4-2.1-0.6-3-0.6c-0.9,0-2.4,0-4.4,0
		c-1.3-0.3-2-0.9-2-1.8s0.6-1.4,1.8-1.5c6.2-1.3,13.7-5.6,22.4-12.9C757.2,305.2,762.6,298.1,764.7,291.1z"/>
	<path d="M835.6,321c12.1,0,22.4,4.2,30.8,12.7c8.5,8.5,12.7,18.8,12.7,30.8c0,11.9-4.2,22.1-12.7,30.6
		c-8.5,8.5-18.8,12.7-30.8,12.7c-11.9,0-22.1-4.2-30.6-12.7c-8.5-8.5-12.7-18.7-12.7-30.6c0-12.1,4.2-22.4,12.7-30.8
		C813.5,325.2,823.7,321,835.6,321z M827,325.6c-0.7,0-1.3,0-1.8,0c-4.3,1.2-6.6,5.9-7,14.3c-0.4,8.3,0.9,17.8,3.9,28.4
		c3.1,11.1,6.8,19.9,11.2,26.6c4.3,6.7,8.7,9.5,12.9,8.3c4.3-1.2,6.6-5.9,7-14.1c0.4-8.3-0.9-17.7-3.9-28.3
		c-2.8-10.3-6.2-18.8-10.3-25.4C835,328.7,831,325.5,827,325.6z"/>
	<path d="M950.6,303.3c5.2-4.9,10.9-7.3,17.2-7.3c3.4,0,6.4,0.9,9,2.5c2.6,1.7,4.3,4,5.2,7c1,3.2,1.1,6.2,0.3,8.7
		c-0.8,2.6-2.3,4.8-4.4,6.5c-2.1,1.8-4.5,2.7-7,2.9c-4.1,0.1-6.6-1.1-7.5-3.8c-0.3-1.2-0.3-2.7-0.1-4.6c0.2-1.9,0-3.3-0.8-4.2
		c-2.9-4-6.9-3.9-11.7,0.2c-3.1,2.5-5,5.5-5.7,9.1c8.3,2.4,15,6.6,20.1,12.8c5.2,6.2,7.7,13.2,7.7,21c0,9.7-3.9,18.1-11.6,25
		c-7.7,6.9-17.1,10.4-28.2,10.4c-7.8,0-14.9-1.8-21.2-5.3c-4.6,1.2-6.5,3.2-5.7,6.2c0.6,2.4,3,4.4,7.2,6.1c4.2,1.7,9.7,2.5,16.5,2.5
		c8.7,0,15.8,0.3,21.4,0.8c5.6,0.5,10.8,1.5,15.6,3.1c4.8,1.5,8.3,3.8,10.5,6.9c2.2,3,3.3,6.9,3.3,11.6c0,7.4-2.5,13.7-7.4,18.9
		c-4.9,5.2-11.2,9-18.7,11.4c-7.5,2.4-15.8,3.5-25,3.5c-3.2,0-6.4-0.1-9.6-0.3c-3.2-0.2-6.7-0.8-10.7-1.7c-4-0.9-7.4-2-10.2-3.4
		c-2.8-1.4-5.2-3.4-7.3-6.1c-2.1-2.7-3.1-5.7-3.1-9.3c0-6.6,4.3-11.2,13-13.7c-3.8-1-6.8-3.3-8.8-6.7c-2.1-3.5-3-7.2-2.9-11.3
		c0.1-4.1,1.8-8.1,5-12c3.2-4,7.6-6.9,13.4-8.6c-10-7.1-15-16.4-15-27.9c0-9.7,3.9-18.1,11.6-25c7.7-6.9,17.1-10.4,28.2-10.4
		c2.8,0,5.7,0.3,8.6,0.9c1-3.4,2.1-6,3.1-8C946.3,308.5,948.2,305.7,950.6,303.3z M913.7,423.6c-3.5,3.1-5.5,6.9-5.7,11.3
		c-0.3,4.4,1.5,8.4,5.3,11.8c3.8,3.5,9.4,5.2,16.6,5.2c10,0,18.1-3.2,24.3-9.5c4.9-5,5.9-9.3,3.1-12.8c-1.9-2.5-5.5-3.9-10.8-4.2
		C934.3,424.9,923.4,424.3,913.7,423.6z M927,323c-2.7,0-4.6,1.9-6,5.7c-2.2,5.9-1.5,15.3,2,28.1c2.5,9,5.5,16.1,9,21.4
		c3.5,5.3,6.9,7.5,10.3,6.6c3.4-1,5.3-4.8,5.6-11.3c0.4-6.5-0.6-14-3-22.6c-3.5-12.7-7.7-21.2-12.4-25.6
		C930.6,323.8,928.7,323,927,323z"/>
	<path d="M1049.2,319.9c7.8,0,13.5,3,17.1,8.8c3.6,5.9,3.4,12.2-0.6,19c-1.8,2.8-4.2,4.8-7.4,5.9c-3.2,1.1-6.3,1.2-9.4,0.3
		c-5.2-1.5-7.7-4.5-7.7-9.1c0-2.4,1.3-4.4,3.9-6.2c2.6-1.8,3.9-3.5,3.9-5.3c0-2.7-0.9-4.8-2.7-6.4c-1.8-1.6-4.1-2.2-6.9-1.8
		c-4.9,1.5-8.1,4.7-9.7,9.6c-1.6,4.9-2.4,12.5-2.4,22.7v25.9c0,6.6,0.8,11.5,2.5,14.5c1.7,3,4.7,4.8,9,5.4c1.2,0.1,1.8,0.7,1.8,1.5
		c0,1.2-0.6,1.8-1.8,1.8h-53.7c-1.2,0-1.8-0.6-1.8-1.8c0-0.9,0.6-1.4,1.8-1.5c4.4-0.6,7.4-2.4,9.1-5.3c1.6-2.9,2.4-7.8,2.4-14.6
		v-21.2c0-7.1-0.8-12.4-2.5-16c-1.7-3.6-4.5-5.8-8.3-6.5c-1.3-0.3-2-0.9-2-1.8c0-1,0.7-1.5,2-1.5c6.3-0.3,12.7-1.7,19.2-4.2
		c6.5-2.5,10.9-4.6,13.4-6.2c2.4-1.6,4.5-3.1,6.1-4.4c0.6-0.4,1.2-0.6,1.9-0.3c0.7,0.2,1,0.8,1,1.7v6.6c4.4-4.3,9-7.1,13.7-8.4
		C1044,320.3,1046.7,319.9,1049.2,319.9z"/>
	<path d="M1113.5,321c26.7-1.3,41.8,9.1,45.3,31.2l3.3,28.5c1.9,11.6,5.5,17.9,10.6,18.8c0.1,0.1,0.7,0.2,1.7,0.1
		c1-0.1,1.6-0.1,1.9-0.1c0.9,0,1.4,0.4,1.5,1.2c0.1,0.8-0.1,1.4-0.9,1.9c-6.2,3.7-13.2,5.5-21,5.5c-11.1,0-18.4-3.7-22.1-11.1
		c-1.3,1.5-2.8,2.8-4.3,3.9c-1.5,1.1-3.4,2.2-5.4,3.2c-2.1,1-4.7,1.9-7.8,2.7c-3.2,0.7-6.6,1.1-10.3,1.1c-5.3,0-10.1-0.7-14.5-2
		c-4.3-1.3-8-3.7-11.1-7.1c-3-3.4-4.5-7.7-4.5-13c0-5.2,1.1-9.4,3.3-12.8c2.2-3.4,5.2-5.8,8.8-7.3c3.7-1.5,7.4-2.6,11.2-3.3
		c3.8-0.7,7.8-1.4,12.2-2.1c4.3-0.7,7.6-1.5,9.8-2.5c2.7-1.2,4.4-2.7,5.2-4.6c0.8-1.9,1-4.6,0.6-8c-0.3-3.1-0.9-6-1.9-8.8
		c-1-2.8-2.7-5.5-5.2-8.1c-2.5-2.6-5.5-3.9-8.8-3.9c-3.2,0-5.6,0.8-7.2,2.3c-1.5,1.5-2.3,3.4-2.3,5.6c0,1.5,0.5,2.8,1.4,4
		c1,1.2,2,2.1,3.2,2.9c1.2,0.7,2.2,1.9,3,3.5c0.8,1.6,1,3.5,0.7,5.5c-0.4,2.1-1.4,3.9-3.1,5.4c-1.7,1.5-3.6,2.5-5.7,3
		c-2.1,0.4-4.3,0.5-6.6,0.2c-2.3-0.3-4.3-1.3-6.2-2.9c-1.8-1.6-3.1-3.7-3.6-6.2c-1.9-6.8-0.3-12.8,4.9-18
		C1094.6,324.5,1102.6,321.6,1113.5,321z M1128.4,356.4c-1.5,2.1-3.4,3.7-5.7,4.9c-0.4,0.3-1.7,1-3.6,2.2c-2,1.2-3.4,2-4.1,2.5
		c-0.7,0.5-1.9,1.4-3.5,2.8c-1.6,1.3-2.8,2.5-3.4,3.6c-0.7,1.1-1.3,2.6-1.9,4.4c-0.6,1.8-0.9,3.8-0.9,5.9c0,8.3,3.4,13.7,10.2,16.4
		c5.5,2.1,10,1.5,13.7-1.8c2.5-2.1,3.5-4.8,3.1-8.2L1128.4,356.4z"/>
	<path d="M1217.5,321.4c0.6-0.6,1.2-0.7,2-0.2c0.6,0.3,0.9,0.8,0.9,1.5v6.2c5.9-4.7,12.6-7.3,20.1-7.7h2c0.1-0.1,0.4-0.2,0.7-0.2
		c0.1,0,0.3,0,0.4,0l0.7,0.2c10.2,0.4,18.9,4.6,26.1,12.5c7.2,7.9,11.2,17.4,11.9,28.4c0.7,12.1-2.5,22.6-9.6,31.5
		c-7.2,8.9-16.1,13.7-26.9,14.5c-9.6,0.4-18.1-2.4-25.4-8.4v-0.2v31c0,6.6,0.8,11.5,2.5,14.5c1.7,3,4.7,4.8,9,5.4
		c1,0.1,1.5,0.7,1.5,1.5c0,1.2-0.5,1.8-1.5,1.8h-53.7c-1.3,0-2-0.6-2-1.8c0-0.9,0.7-1.4,2-1.5c4.4-0.6,7.4-2.4,9-5.3
		c1.5-2.9,2.3-7.8,2.3-14.6v-68.3c0-7.1-0.8-12.4-2.4-16c-1.6-3.6-4.4-5.8-8.4-6.5c-1.2-0.3-1.8-0.9-1.8-1.8c0-1,0.6-1.5,1.8-1.5
		c6.5-0.3,13-1.7,19.5-4.2c6.5-2.5,10.9-4.6,13.4-6.2C1213.8,324.2,1215.8,322.8,1217.5,321.4z M1233.2,329.2
		c-1.9-1-3.8-1.3-5.6-0.9c-1.8,0.4-3.4,1.7-4.5,3.8c-1.9,3-2.8,7.2-2.7,12.8c0,7.4,1.3,15.8,4,25.2c2.9,11.1,6.6,19.8,10.9,26.3
		c4.3,6.5,8.6,9.1,12.7,8c4.4-1,6.8-5.6,7.2-13.6c0.4-8-0.9-17.4-3.9-28c-2.4-8.7-5.1-16.1-8.3-22.1
		C1239.8,334.6,1236.5,330.8,1233.2,329.2z"/>
	<path d="M1328.4,274.3c0.4-0.4,1-0.5,1.7-0.2c0.7,0.3,1,0.8,1,1.5v53.7c6-5,13-7.7,20.8-8.2c23.3-1.6,36.3,8.7,38.9,31l4,31.2
		c0.7,6.5,2.2,11.2,4.3,14.3c2.1,3,5.3,4.9,9.4,5.6c1.3,0.1,2,0.7,2,1.5c0.1,1.2-0.4,1.8-1.8,1.8h-53.5c-1.3,0-2-0.6-2-1.8
		c0-0.9,0.7-1.4,2-1.5c4.3-0.7,7-2.5,8.2-5.4c1.2-2.9,1.3-7.7,0.4-14.5l-3.3-28.7c-1-9.9-3.4-17.2-7.1-22c-3.7-4.8-7.8-6.6-12.4-5.4
		c-1.9,0.6-3.5,1.5-4.9,2.8c-1.3,1.3-2.5,3.8-3.5,7.5c-1,3.8-1.5,8.7-1.5,14.9v31c0,6.5,0.9,11.2,2.7,14.3c1.8,3,4.7,4.9,8.8,5.6
		c1.2,0.1,1.8,0.7,1.8,1.5c0,1.2-0.7,1.8-2,1.8h-53.5c-1.2,0-1.8-0.6-1.8-1.8c0-0.9,0.7-1.4,2-1.5c4.4-0.6,7.4-2.4,9-5.3
		c1.5-2.9,2.3-7.8,2.3-14.6V315c0-7.1-0.8-12.4-2.5-16c-1.7-3.6-4.5-5.8-8.5-6.5c-1,0-1.5-0.6-1.5-1.8c0-1,0.5-1.5,1.5-1.5
		c6.5-0.3,13-1.7,19.5-4.1c6.5-2.4,11-4.5,13.5-6.2C1324.8,277.2,1326.8,275.7,1328.4,274.3z"/>
	<path d="M1395.4,321h48.6c1.8,0,2.7,0.5,2.7,1.5c0,0.9-0.7,1.5-2,1.8c-1.9,0.6-3.3,1.5-4.1,2.9c-0.8,1.3-1,3.1-0.7,5.2
		c0.4,2.1,0.8,4,1.2,5.5c0.4,1.5,1.2,3.6,2.2,6.1l16.6,37.8l15.3-39.6c4.6-11.9,3.4-17.9-3.5-17.9c-1.2-0.1-1.8-0.7-1.8-1.8
		c0.1-1,0.7-1.5,1.8-1.5h27.4c1.2,0,1.8,0.5,1.8,1.5c0,1-0.6,1.6-1.8,1.8c-5,0.1-9.1,1.7-12.2,4.5c-3.1,2.9-6,8-8.8,15.4l-32.3,83.6
		c-3.1,7.7-6.6,13-10.5,15.9c-3.9,2.9-8.5,4.6-13.8,4.9c-6.2,0.1-11.8-2.2-16.9-7c-5.1-4.8-7.3-11.1-6.5-18.9
		c0.4-4.3,2.1-7.6,5.1-9.9c2.9-2.4,6.3-3.5,10.2-3.5c3.7-0.1,6.7,0.7,9.2,2.7c2.4,1.9,3.6,4.6,3.6,8.2c0,1.5-0.5,3.3-1.4,5.4
		c-1,2.1-1.6,3.8-2,5c-0.4,1.2,0,2.9,1,5.1c2.5,2.9,5.8,3.3,9.9,1.2c4.1-2.1,7.1-5.6,9.1-10.3l1.8-4.2l-35.2-78.5
		c-1.6-3.4-2.6-5.5-3-6.2c-0.4-0.7-1-1.9-1.9-3.5c-0.9-1.6-1.7-2.9-2.3-3.8c-0.7-0.9-1.4-1.8-2.2-2.9c-0.8-1-1.6-1.8-2.4-2.3
		c-0.8-0.5-1.5-0.8-2.1-0.8c-1.3-0.1-2-0.7-2-1.8C1393.4,321.5,1394.1,321,1395.4,321z"/>
	<path d="M792.6,476.2c8.7-2.4,18.4-3.2,29.2-2.4c4.3,0.3,8.4,0.8,12.3,1.4c3.9,0.7,6.9,1.3,8.8,1.8c2,0.5,3.8,0.9,5.5,1.2
		c1.7,0.3,2.9,0.3,3.8,0c0.8-0.3,1.5-1,2.1-2.2c0.3-0.9,0.9-1.3,1.8-1.1c0.9,0.1,1.3,0.7,1.3,1.8v28.5c0,1-0.5,1.6-1.5,1.8
		c-0.9,0-1.5-0.4-1.8-1.3c-1.6-5.9-3.7-10.8-6.3-14.8c-2.6-4-5.5-6.9-8.7-8.8c-3.2-1.9-6.3-3.2-9.3-4c-2.9-0.7-6.3-1.1-9.9-1.1
		c-5.3,0-10.5,1.3-15.5,4c-5,2.7-9.7,6.5-13.9,11.6c-4.3,5.1-7.7,11.9-10.3,20.3c-2.6,8.5-3.9,18-3.9,28.5c0,10.5,1.2,20,3.6,28.5
		c2.4,8.5,5.7,15.2,9.8,20.2c4.1,5,8.7,8.8,13.6,11.4c4.9,2.6,10,3.9,15.1,3.9c8.3-0.1,15.7-3.1,22.2-8.7c6.6-5.7,11-13.2,13.4-22.4
		c0.3-0.9,0.9-1.3,1.9-1.2c1,0.1,1.4,0.6,1.4,1.7v31.2c0,1-0.4,1.6-1.1,1.8c-0.7,0.1-1.4-0.2-2-1.1c-1-1.5-2.8-2.2-5.4-2.3
		c-2.6-0.1-5.5,0.3-8.6,1c-3.2,0.7-7.4,1.5-12.7,2.4c-5.3,0.9-10.4,1.3-15.3,1.3c-6.5-0.1-12.5-0.8-17.9-2
		c-14.6-3.5-26.4-11.4-35.5-23.5c-9.1-12.2-13.6-26.2-13.6-42.1c0-15.5,4.3-29.2,13-41.1C767.1,488.2,778.5,480.2,792.6,476.2z"/>
	<path d="M910.5,475.3c0.6-0.6,1.3-0.7,2-0.2c0.4,0.3,0.7,0.8,0.7,1.5v107.7c0,6.6,0.9,11.5,2.7,14.5c1.8,3,4.7,4.8,8.8,5.4
		c1.2,0.1,1.8,0.7,1.8,1.5c0,1.2-0.5,1.8-1.5,1.8h-53.9c-1.2,0-1.8-0.6-1.8-1.8c0-0.9,0.6-1.4,1.8-1.5c4.6-0.6,7.6-2.4,9.2-5.3
		c1.5-2.9,2.3-7.8,2.3-14.6V516c0-7.1-0.9-12.4-2.5-16c-1.7-3.6-4.5-5.8-8.3-6.5c-1.3-0.3-2-0.9-2-1.8c0-1,0.7-1.5,2-1.5
		c6.3-0.3,12.7-1.7,19.2-4.1c6.5-2.4,11-4.5,13.5-6.2C906.8,478.2,908.9,476.7,910.5,475.3z"/>
	<path d="M966.6,522c1.2,0,1.8,0.6,1.8,1.8v53.9c0,7.8,1.1,14.2,3.3,19.2c2.2,5,5.8,7.5,10.8,7.5c4.7-0.1,8.5-3.2,11.3-9.3
		c2.8-6,4.2-12.7,4.2-19.9v-12.2c0-4.7-0.3-8.6-1-11.7c-0.7-3.1-1.8-5.6-3.4-7.4c-1.6-1.8-3.7-3-6.2-3.4c-1.3-0.3-2-0.9-2-1.8
		c0-1,0.6-1.5,1.8-1.5c5-0.1,9.9-0.9,14.7-2.3c4.8-1.4,9-3.1,12.5-5c3.5-1.9,6.1-3.4,7.7-4.5c1.6-1.1,2.9-2.1,4-3
		c0.3-0.3,0.7-0.4,1.1-0.4c1.2,0,1.8,0.6,1.8,1.8v56.4c0,5.5,0.4,9.9,1.3,13.3c1.2,4.1,3.2,6.5,6.2,7.1c0.3,0.1,0.9,0.2,1.9,0.1
		c1-0.1,1.5-0.1,1.7-0.1c0.9,0,1.4,0.4,1.7,1.2c0.2,0.8,0,1.4-0.8,1.9c-6.5,3.5-12.9,5.3-19.2,5.3c-10.6,0-17.8-3.3-21.7-9.9
		c-5,6.8-14,10.1-27,9.9c-10.5,0-19-2.7-25.6-8.2c-6.6-5.5-9.9-13.1-9.9-23v-14.6c0-7.1-0.8-12.4-2.4-16c-1.6-3.6-4.3-5.8-8.2-6.5
		c-1.3-0.3-2-0.9-2-1.8c0-1,0.6-1.5,1.8-1.5c6.5-0.3,13-1.7,19.5-4.2c6.5-2.5,10.9-4.6,13.4-6.2c2.4-1.6,4.5-3.1,6.1-4.4
		C965.8,522.1,966.2,522,966.6,522z"/>
	<path d="M1080.7,475.3c0.6-0.6,1.3-0.7,2-0.2c0.6,0.3,0.9,0.8,0.9,1.5V530c6.5-4.9,13.4-7.4,20.8-7.7c7.4-0.3,14,1.3,19.9,4.8
		c5.9,3.5,10.9,8.4,14.9,14.9c4.1,6.5,6.2,13.6,6.3,21.2c0.3,12.2-3.1,22.8-10.1,31.6c-7,8.8-15.9,13.6-26.6,14.4
		c-11.4,0.7-21.2-3.4-29.6-12.4l-24.1,10.6c-1.6,0.6-2.4,0.1-2.4-1.5V516c0-7.1-0.8-12.4-2.4-16c-1.6-3.6-4.4-5.8-8.4-6.5
		c-1.2,0-1.8-0.6-1.8-1.8c0-1,0.6-1.5,1.8-1.5c4.9-0.1,9.7-0.9,14.6-2.3c4.9-1.4,9.1-3.1,12.6-5c3.5-1.9,6.1-3.4,7.7-4.5
		C1078.4,477.2,1079.7,476.2,1080.7,475.3z M1092.7,529.1c-2.7,0-4.8,1.3-6.4,4c-4.1,6.6-3.8,19.3,1.1,38
		c3.1,11.1,6.8,19.8,11.2,26.3c4.3,6.5,8.7,9.1,12.9,8c4.1-1,6.4-5.9,6.7-14.5c0.4-8.6-0.8-17.6-3.6-27.1
		c-1.8-6.8-3.8-12.7-6.2-17.9c-2.4-5.2-4.9-9.2-7.6-12.3C1098,530.6,1095.3,529.1,1092.7,529.1z"/>
</g>
<g>
	<path d="M917.6,211.5c0,0.5,0,0.8-0.1,1.2c-0.1,0.3-0.1,0.6-0.3,0.8c-0.1,0.2-0.3,0.4-0.4,0.4c-0.2,0.1-0.4,0.1-0.6,0.1H902v40.1
		c0,0.2-0.1,0.4-0.2,0.5c-0.1,0.1-0.3,0.3-0.5,0.3c-0.3,0.1-0.6,0.2-1,0.2c-0.4,0.1-1,0.1-1.6,0.1c-0.6,0-1.2,0-1.6-0.1
		c-0.4-0.1-0.8-0.1-1.1-0.2c-0.3-0.1-0.4-0.2-0.5-0.3s-0.2-0.3-0.2-0.5v-40.1h-14.2c-0.2,0-0.4,0-0.6-0.1c-0.2-0.1-0.3-0.2-0.4-0.4
		c-0.1-0.2-0.2-0.5-0.3-0.8c-0.1-0.3-0.1-0.7-0.1-1.2c0-0.5,0-0.9,0.1-1.2c0.1-0.3,0.1-0.6,0.3-0.8s0.2-0.4,0.4-0.5
		c0.2-0.1,0.4-0.1,0.6-0.1h35.2c0.2,0,0.4,0,0.6,0.1c0.2,0.1,0.3,0.3,0.4,0.5s0.2,0.5,0.3,0.8C917.6,210.6,917.6,211,917.6,211.5z"
		/>
	<path d="M964.5,254.2c0,0.2-0.1,0.4-0.2,0.5c-0.1,0.1-0.3,0.3-0.5,0.3c-0.3,0.1-0.6,0.2-1,0.2c-0.4,0.1-1,0.1-1.6,0.1
		c-0.7,0-1.2,0-1.6-0.1c-0.4-0.1-0.8-0.1-1-0.2c-0.3-0.1-0.4-0.2-0.5-0.3s-0.2-0.3-0.2-0.5v-20.5h-23v20.5c0,0.2-0.1,0.4-0.2,0.5
		c-0.1,0.1-0.3,0.3-0.5,0.3c-0.3,0.1-0.6,0.2-1,0.2c-0.4,0.1-1,0.1-1.6,0.1c-0.6,0-1.2,0-1.6-0.1c-0.4-0.1-0.8-0.1-1.1-0.2
		c-0.3-0.1-0.4-0.2-0.5-0.3c-0.1-0.1-0.2-0.3-0.2-0.5v-44.4c0-0.2,0.1-0.4,0.2-0.5c0.1-0.1,0.3-0.3,0.5-0.3s0.6-0.2,1.1-0.2
		c0.4-0.1,1-0.1,1.6-0.1c0.7,0,1.2,0,1.6,0.1s0.8,0.1,1,0.2c0.3,0.1,0.4,0.2,0.5,0.3c0.1,0.1,0.2,0.3,0.2,0.5v18.5h23v-18.5
		c0-0.2,0.1-0.4,0.2-0.5s0.3-0.3,0.5-0.3c0.3-0.1,0.6-0.2,1-0.2s1-0.1,1.6-0.1c0.6,0,1.2,0,1.6,0.1s0.8,0.1,1,0.2
		c0.3,0.1,0.4,0.2,0.5,0.3c0.1,0.1,0.2,0.3,0.2,0.5V254.2z"/>
	<path d="M1009.3,252.5c0,0.4,0,0.8-0.1,1.1c-0.1,0.3-0.1,0.6-0.3,0.8c-0.1,0.2-0.3,0.4-0.5,0.5c-0.2,0.1-0.4,0.1-0.6,0.1h-24.3
		c-0.6,0-1.2-0.2-1.7-0.6c-0.5-0.4-0.8-1-0.8-1.9v-41.2c0-0.9,0.3-1.6,0.8-1.9c0.5-0.4,1.1-0.6,1.7-0.6h24c0.2,0,0.4,0,0.6,0.1
		c0.2,0.1,0.3,0.3,0.4,0.5s0.2,0.5,0.3,0.8c0.1,0.3,0.1,0.7,0.1,1.2c0,0.4,0,0.8-0.1,1.1c-0.1,0.3-0.2,0.6-0.3,0.8
		c-0.1,0.2-0.2,0.4-0.4,0.4c-0.2,0.1-0.4,0.1-0.6,0.1h-19.8v14.5h17c0.2,0,0.4,0.1,0.6,0.2c0.2,0.1,0.3,0.3,0.4,0.4
		c0.1,0.2,0.2,0.5,0.3,0.8c0.1,0.3,0.1,0.7,0.1,1.2c0,0.4,0,0.8-0.1,1.1c-0.1,0.3-0.1,0.6-0.3,0.8c-0.1,0.2-0.3,0.3-0.4,0.4
		s-0.4,0.1-0.6,0.1h-17V250h20.1c0.2,0,0.4,0,0.6,0.1c0.2,0.1,0.3,0.2,0.5,0.4c0.1,0.2,0.2,0.5,0.3,0.8
		C1009.3,251.7,1009.3,252.1,1009.3,252.5z"/>
</g>
<g>
	<path d="M780.3,691c0,0.1,0,0.3-0.1,0.4c-0.1,0.1-0.2,0.2-0.4,0.3c-0.2,0.1-0.4,0.1-0.7,0.2c-0.3,0-0.6,0.1-1.1,0.1
		c-0.4,0-0.8,0-1-0.1c-0.3,0-0.5-0.1-0.7-0.2c-0.2-0.1-0.3-0.2-0.4-0.3c-0.1-0.1-0.1-0.2-0.1-0.4v-41c0-0.1,0-0.2,0.1-0.4
		c0.1-0.1,0.2-0.2,0.4-0.3s0.4-0.1,0.7-0.2c0.3,0,0.6-0.1,1-0.1c0.4,0,0.8,0,1.1,0.1c0.3,0,0.5,0.1,0.7,0.2c0.2,0.1,0.3,0.2,0.4,0.3
		c0.1,0.1,0.1,0.2,0.1,0.4V691z"/>
	<path d="M800.4,691c0,0.1,0,0.3-0.1,0.4c-0.1,0.1-0.2,0.2-0.4,0.3c-0.2,0.1-0.4,0.1-0.7,0.2c-0.3,0-0.6,0.1-1.1,0.1
		c-0.4,0-0.8,0-1-0.1c-0.3,0-0.5-0.1-0.7-0.2c-0.2-0.1-0.3-0.2-0.4-0.3c-0.1-0.1-0.1-0.2-0.1-0.4v-41c0-0.1,0-0.2,0.1-0.4
		c0.1-0.1,0.2-0.2,0.4-0.3s0.4-0.1,0.7-0.2c0.3,0,0.6-0.1,1-0.1c0.4,0,0.8,0,1.1,0.1c0.3,0,0.5,0.1,0.7,0.2c0.2,0.1,0.3,0.2,0.4,0.3
		c0.1,0.1,0.1,0.2,0.1,0.4V691z"/>
	<path d="M844.2,651.1c0,0.3,0,0.5-0.1,0.8c0,0.2-0.1,0.4-0.2,0.5c-0.1,0.1-0.2,0.3-0.4,0.3c-0.1,0.1-0.3,0.1-0.5,0.1h-13.8V691
		c0,0.1,0,0.3-0.1,0.4s-0.2,0.2-0.4,0.3c-0.2,0.1-0.4,0.1-0.7,0.2c-0.3,0-0.6,0.1-1,0.1c-0.4,0-0.8,0-1-0.1c-0.3,0-0.5-0.1-0.7-0.2
		c-0.2-0.1-0.3-0.2-0.4-0.3c-0.1-0.1-0.1-0.2-0.1-0.4v-38.1h-13.8c-0.2,0-0.4,0-0.5-0.1c-0.1-0.1-0.2-0.2-0.3-0.3
		c-0.1-0.1-0.2-0.3-0.2-0.5c0-0.2-0.1-0.5-0.1-0.8c0-0.3,0-0.6,0.1-0.8c0-0.2,0.1-0.4,0.2-0.6c0.1-0.2,0.2-0.3,0.3-0.3
		c0.1-0.1,0.3-0.1,0.5-0.1h32c0.2,0,0.3,0,0.5,0.1c0.1,0.1,0.3,0.2,0.4,0.3c0.1,0.2,0.2,0.3,0.2,0.6
		C844.2,650.6,844.2,650.8,844.2,651.1z"/>
	<path d="M900.7,690.9c0,0.2,0,0.3-0.1,0.4c0,0.1-0.2,0.2-0.3,0.3s-0.4,0.1-0.7,0.2c-0.3,0-0.7,0.1-1.1,0.1c-0.4,0-0.9,0-1.3-0.1
		c-0.4,0-0.8-0.1-1-0.3c-0.2-0.1-0.4-0.3-0.6-0.5l-18.7-21.7V691c0,0.1,0,0.3-0.1,0.4c-0.1,0.1-0.2,0.2-0.4,0.3
		c-0.2,0.1-0.4,0.1-0.7,0.2c-0.3,0-0.6,0.1-1.1,0.1c-0.4,0-0.8,0-1-0.1c-0.3,0-0.5-0.1-0.7-0.2c-0.2-0.1-0.3-0.2-0.4-0.3
		c-0.1-0.1-0.1-0.2-0.1-0.4v-41c0-0.1,0-0.2,0.1-0.4c0.1-0.1,0.2-0.2,0.4-0.3s0.4-0.1,0.7-0.2c0.3,0,0.6-0.1,1-0.1
		c0.4,0,0.8,0,1.1,0.1c0.3,0,0.5,0.1,0.7,0.2s0.3,0.2,0.4,0.3c0.1,0.1,0.1,0.2,0.1,0.4v19.2l17.9-19.2c0.1-0.2,0.3-0.3,0.5-0.4
		c0.2-0.1,0.4-0.2,0.6-0.3s0.5-0.1,0.8-0.1c0.3,0,0.6,0,1.1,0c0.4,0,0.8,0,1,0.1c0.3,0,0.5,0.1,0.6,0.2s0.3,0.2,0.3,0.3
		c0,0.1,0.1,0.2,0.1,0.3c0,0.2-0.1,0.5-0.2,0.7c-0.1,0.2-0.4,0.5-0.7,0.8L882,669.1l18,20.6c0.3,0.4,0.5,0.7,0.6,0.8
		C900.7,690.7,900.7,690.8,900.7,690.9z"/>
	<path d="M944.5,690.3c0.1,0.3,0.2,0.6,0.2,0.8c0,0.2-0.1,0.4-0.2,0.5c-0.2,0.1-0.4,0.2-0.7,0.2c-0.3,0-0.7,0-1.2,0s-0.9,0-1.2,0
		c-0.3,0-0.5-0.1-0.7-0.1s-0.3-0.2-0.4-0.3c-0.1-0.1-0.2-0.2-0.2-0.4l-4.4-11.3h-20.3l-4.3,11.2c0,0.2-0.1,0.3-0.2,0.4
		c-0.1,0.1-0.2,0.2-0.4,0.3c-0.2,0.1-0.4,0.1-0.7,0.2c-0.3,0-0.7,0.1-1.1,0.1c-0.5,0-0.9,0-1.3-0.1c-0.3,0-0.6-0.1-0.7-0.2
		c-0.2-0.1-0.2-0.3-0.2-0.5c0-0.2,0.1-0.5,0.2-0.8l16.2-40.3c0.1-0.2,0.2-0.3,0.3-0.4c0.1-0.1,0.3-0.2,0.6-0.3
		c0.2-0.1,0.5-0.1,0.8-0.1c0.3,0,0.7,0,1.1,0c0.4,0,0.8,0,1.1,0c0.3,0,0.6,0.1,0.8,0.1s0.4,0.2,0.5,0.3c0.1,0.1,0.2,0.3,0.3,0.4
		L944.5,690.3z M925.3,653.6L925.3,653.6l-8.8,22.8h17.7L925.3,653.6z"/>
	<path d="M988.4,689.7c0,0.4-0.1,0.7-0.2,1s-0.3,0.5-0.5,0.6c-0.2,0.2-0.4,0.3-0.7,0.3c-0.2,0.1-0.5,0.1-0.7,0.1h-0.9
		c-0.5,0-0.9-0.1-1.3-0.2c-0.4-0.1-0.8-0.3-1.1-0.6c-0.4-0.3-0.7-0.6-1.1-1.1c-0.4-0.5-0.8-1-1.2-1.8l-16.3-26.4
		c-0.8-1.3-1.6-2.6-2.5-4c-0.8-1.4-1.6-2.7-2.3-4h0c0,1.6,0,3.2,0,4.9s0,3.3,0,4.9V691c0,0.1,0,0.3-0.1,0.4
		c-0.1,0.1-0.2,0.2-0.4,0.3c-0.2,0.1-0.4,0.1-0.7,0.2c-0.3,0-0.6,0.1-1.1,0.1c-0.4,0-0.8,0-1-0.1c-0.3,0-0.5-0.1-0.7-0.2
		c-0.2-0.1-0.3-0.2-0.4-0.3c-0.1-0.1-0.1-0.2-0.1-0.4v-39.6c0-0.8,0.2-1.3,0.7-1.6c0.5-0.3,0.9-0.4,1.3-0.4h1.8c0.6,0,1,0,1.4,0.1
		c0.4,0.1,0.7,0.2,1,0.4c0.3,0.2,0.6,0.5,0.9,0.9c0.3,0.4,0.6,0.9,1,1.5l12.5,20.2c0.8,1.3,1.5,2.5,2.2,3.6c0.7,1.2,1.4,2.3,2.1,3.4
		c0.7,1.1,1.3,2.2,2,3.3c0.7,1.1,1.3,2.2,1.9,3.3h0c0-1.8,0-3.7,0-5.7c0-2,0-3.9,0-5.7v-24.6c0-0.1,0-0.2,0.1-0.4
		c0.1-0.1,0.2-0.2,0.4-0.3c0.2-0.1,0.4-0.1,0.7-0.2c0.3,0,0.6,0,1.1,0c0.4,0,0.7,0,1,0c0.3,0,0.5,0.1,0.7,0.2
		c0.2,0.1,0.3,0.2,0.4,0.3c0.1,0.1,0.1,0.2,0.1,0.4V689.7z"/>
	<path d="M1030.8,661.4c0,2-0.4,3.8-1.1,5.4c-0.7,1.6-1.8,3-3.1,4.2c-1.4,1.2-3,2.1-5,2.7c-2,0.7-4.3,1-7.1,1h-6V691
		c0,0.1,0,0.3-0.1,0.4c-0.1,0.1-0.2,0.2-0.4,0.3c-0.2,0.1-0.4,0.1-0.7,0.2c-0.3,0-0.6,0.1-1.1,0.1c-0.4,0-0.8,0-1-0.1
		c-0.3,0-0.5-0.1-0.7-0.2c-0.2-0.1-0.3-0.2-0.4-0.3c-0.1-0.1-0.1-0.2-0.1-0.4v-39.6c0-0.8,0.2-1.3,0.7-1.6c0.5-0.3,0.9-0.4,1.3-0.4
		h9.4c0.9,0,1.8,0,2.7,0.1s1.9,0.2,3.1,0.5s2.4,0.7,3.6,1.4s2.3,1.5,3.1,2.5c0.9,1,1.5,2.1,2,3.4
		C1030.5,658.5,1030.8,659.9,1030.8,661.4z M1026.1,661.8c0-1.8-0.4-3.4-1.2-4.7s-1.7-2.2-2.9-2.8s-2.3-1-3.5-1.2
		c-1.2-0.2-2.4-0.2-3.5-0.2h-6.6v18.4h6.3c2,0,3.7-0.2,5.1-0.7s2.5-1.1,3.4-1.9c0.9-0.8,1.6-1.8,2.1-3
		C1025.9,664.4,1026.1,663.2,1026.1,661.8z"/>
	<path d="M1076.7,676c0,2.6-0.4,4.9-1.2,6.9s-1.9,3.7-3.4,5.1c-1.5,1.4-3.3,2.4-5.4,3.1c-2.1,0.7-4.4,1.1-7,1.1
		c-2.4,0-4.5-0.3-6.5-1c-2-0.7-3.7-1.7-5.2-3c-1.4-1.3-2.6-3-3.4-4.9s-1.2-4.2-1.2-6.8V650c0-0.1,0-0.2,0.1-0.4s0.2-0.2,0.4-0.3
		c0.2-0.1,0.4-0.1,0.7-0.2c0.3,0,0.6-0.1,1-0.1c0.4,0,0.8,0,1,0.1c0.3,0,0.5,0.1,0.7,0.2s0.3,0.2,0.4,0.3c0.1,0.1,0.1,0.2,0.1,0.4
		v25.9c0,2.1,0.3,4,0.8,5.6c0.6,1.6,1.4,2.9,2.4,4c1.1,1.1,2.3,1.9,3.9,2.4c1.5,0.5,3.2,0.8,5.1,0.8c1.9,0,3.7-0.3,5.2-0.8
		c1.5-0.5,2.8-1.3,3.8-2.3c1-1,1.9-2.3,2.4-3.9c0.6-1.6,0.8-3.4,0.8-5.5V650c0-0.1,0-0.2,0.1-0.4s0.2-0.2,0.4-0.3s0.4-0.1,0.7-0.2
		c0.3,0,0.6-0.1,1-0.1c0.4,0,0.8,0,1,0.1c0.3,0,0.5,0.1,0.7,0.2s0.3,0.2,0.4,0.3c0.1,0.1,0.1,0.2,0.1,0.4V676z"/>
	<path d="M1121.3,690.9c0,0.2,0,0.3-0.1,0.4c-0.1,0.1-0.2,0.2-0.3,0.3c-0.2,0.1-0.4,0.1-0.7,0.2c-0.3,0-0.7,0.1-1.1,0.1
		c-0.4,0-0.7,0-1,0c-0.3,0-0.5-0.1-0.7-0.2c-0.2-0.1-0.3-0.2-0.5-0.4c-0.1-0.2-0.2-0.4-0.3-0.6l-4.3-10.3c-0.5-1.2-1-2.2-1.6-3.3
		c-0.6-1-1.3-1.9-2.1-2.7c-0.8-0.8-1.8-1.3-2.9-1.8c-1.1-0.4-2.5-0.7-4.1-0.7h-4.8V691c0,0.1,0,0.3-0.1,0.4
		c-0.1,0.1-0.2,0.2-0.4,0.3c-0.2,0.1-0.4,0.1-0.7,0.2c-0.3,0-0.6,0.1-1.1,0.1c-0.4,0-0.8,0-1-0.1c-0.3,0-0.5-0.1-0.7-0.2
		c-0.2-0.1-0.3-0.2-0.4-0.3c-0.1-0.1-0.1-0.2-0.1-0.4v-39.6c0-0.8,0.2-1.3,0.7-1.6c0.5-0.3,0.9-0.4,1.3-0.4h8.7c1.1,0,2.1,0,2.8,0.1
		c0.8,0.1,1.4,0.1,2.1,0.2c1.8,0.3,3.3,0.7,4.6,1.4c1.3,0.6,2.4,1.4,3.3,2.3c0.9,0.9,1.5,2,1.9,3.1c0.4,1.2,0.6,2.4,0.6,3.8
		c0,1.4-0.2,2.6-0.6,3.7c-0.4,1.1-1,2.1-1.8,2.9c-0.8,0.8-1.7,1.6-2.8,2.2c-1.1,0.6-2.3,1.1-3.6,1.5c0.8,0.3,1.5,0.7,2.1,1.2
		c0.6,0.5,1.2,1.1,1.8,1.7c0.5,0.7,1,1.5,1.5,2.3c0.5,0.9,1,1.9,1.4,3l4.3,9.9c0.3,0.8,0.5,1.3,0.6,1.6
		C1121.2,690.6,1121.3,690.8,1121.3,690.9z M1113.6,660.6c0-1.8-0.4-3.3-1.3-4.6c-0.9-1.3-2.4-2.2-4.4-2.7c-0.7-0.2-1.4-0.3-2.3-0.4
		c-0.8-0.1-1.9-0.1-3.2-0.1h-5.7v15.5h6.7c1.8,0,3.3-0.2,4.6-0.6s2.4-1,3.2-1.7c0.8-0.7,1.5-1.5,1.9-2.5S1113.6,661.7,1113.6,660.6z
		"/>
</g>
</svg>
