<?xml version="1.0" encoding="utf-8"?>
<!-- Generator: Adobe Illustrator 24.3.0, SVG Export Plug-In . SVG Version: 6.00 Build 0)  -->
<svg version="1.1" id="Layer_1" xmlns="http://www.w3.org/2000/svg" xmlns:xlink="http://www.w3.org/1999/xlink" x="0px" y="0px"
	 viewBox="0 0 1895.9 812" style="enable-background:new 0 0 1895.9 812;" xml:space="preserve">
<style type="text/css">
	.st0{fill:#87BEE7;}
</style>
<path class="st0" d="M304.6,296.1c-1.7,1.5-8.4,7.5-9.7,16.9c-1.1,8.3,2.7,10.6,1.3,20.2c-0.9,6.1-3.3,10.6-6.4,16.5
	c-3.9,7.3-5.1,6.9-7.4,11.9c-3.9,8.7-3.8,17.4-3.7,22.7c0.1,4,0.3,13.7,4.8,23.4c2,4.4,5.1,9.1,6.2,10.8c2.9,4.5,4.4,6.7,5.6,8.1
	c1.2,1.3,2.6,2.8,3.9,5.5c0.4,0.8,1.1,2.2,1.5,4c0.3,1.4,0.7,4.3-1.8,12.3c-0.3,1-1.2,3.5-3.9,9.8c-2.3,5.4-3.5,8.1-4.3,9.5
	c-3.3,5.8-7.4,8.8-10.5,11.1c-4.3,3.2-8.5,5.1-12.1,6.3c-0.7,0.2-1.3,0.7-1.7,1.5c-0.4,0.7-0.7,1.4-0.9,2c-3.6,9.1-0.3,19.2,1,22.7
	c0,0.1,0.1,0.2,0.1,0.3c6.4,13.2,10.9,15.8,13.9,15.6c0.8-0.1,1.6-0.4,3-0.2c4.9,0.6,8.1,6.1,9.2,7.8c6.4,10.4,20.3,21.6,27,25.5
	c9,5.3,17.3,4.9,28,4.4c11.2-0.5,12-3.2,32.2-7.3c13-2.7,19.6-4,29.2-3.9c8.4,0.1,11.2,1.2,25.3,2.3c8,0.6,14.7,0.8,19.4,0.8
	c0.9,0,1.7,0.5,2.2,1.4c2,3.3,5.1,7.2,9.5,9.6c5.1,2.8,8.7,1.7,23.1-0.8c19.5-3.4,21-2.9,33.2-5.9c3.6-0.9,7.8-3.8,13.9-3.8
	c4.5,0,5.4,1.3,11.8,2.3c6.1,0.9,10.7,0.6,16.9,0.2c8.8-0.6,8.4-1.5,16.6-2.2c10.1-0.8,9.5,0.7,20.9-0.1c8.8-0.6,10.8-1.6,15.7-0.2
	c4.9,1.3,5.3,2.9,10.5,3.8c3.2,0.5,6.3,0.4,12.6,0c4.7-0.3,5.3-0.5,8.1-0.6c6.9-0.3,11.9,0.6,14.7,1.1c13.8,2.2,15.6-1.3,32.4,0.6
	c12.2,1.4,14.4,3.6,23.7,2.8c4.4-0.4,6.5-1.1,12.8-1.4c8.7-0.4,10.1,0.6,16.5,0.5c12.8-0.3,14.6-4.8,24.4-4.3
	c7.9,0.4,13.2,3.5,16.9,5.3c9.4,4.5,24.6,7.8,49.7,2c0.8-0.2,1.4-0.8,1.9-1.5c0.3-0.6,0.8-1.2,1.5-1.7c1-0.7,1.9-0.7,2.3-0.8
	c9-0.6,16-3.8,27.3,0.3c3.2,1.1,2.6,1.4,5.8,2.6c3,1.2,11.7,4.1,31,0.8c3.5-0.6,16.7-3,26.8-2.8c2.1,0.1,5.7,0.3,7.7,3.2
	c1.9,2.9,1,6.5,2.6,7.4c1.6,0.9,3.7-1.6,5.5-3.1c2.2-1.8,5.3-3.2,17.3-2c11.1,1.1,13.9,2.8,21.4,3.7c4.9,0.6,11.9,0.9,20.7-0.8
	c0.8-0.1,1.4-0.7,1.9-1.5l0.6-1.1c0.6-1,1.6-1.6,2.6-1.5c5,0.5,12.2,1,20.8,0.7c12.7-0.5,17.4-2.3,25.8-2c6.6,0.2,16.2,1.7,27.9,8.1
	c1,0.5,2.1,0.4,2.9-0.4c0.7-0.6,1.5-1.3,2.4-2c1.7-1.2,4.5-3.4,8.4-4c1-0.2,8.4-1.3,13.9,4.6c0.5,0.6,1,1.1,1.4,1.7
	c0.6,0.9,1.5,1.3,2.4,1.2c2.6-0.4,6.2-0.8,10.3-1c13.2-0.6,20.6,1.5,30,2.8c22.5,3,20.7-3.9,41.2-0.9c0,0,17.4,2.6,28.2-1.9
	c3.3-1.4,3.4-1.4,3.4-1.4c3.8-1.6,4.2-1.9,4.9-2c3.5-0.7,6.9,4.2,7.9,5.6c5.9,7.6,19.2,4.9,35.9,3.4c8.3-0.7,20.4-1.5,35.6-1.1
	c10.6-0.5,19.2-0.3,25.2-0.2c11.3,0.4,17,1.1,27.2,0c5.9-0.6,5.6-1.1,13.3-2c5.3-0.6,13.1-1.6,22.8-1.4c6.4,0.1,14.7,0.7,24.5,2.7
	c0.4,0.1,0.8,0.1,1.1-0.1c2.9-0.9,5.9-1.7,9.1-2.3c12.4-2.4,23.6-1.8,32.5-0.2c0.1,0,0.2,0,0.2,0c7,0.4,13.9,0.8,20.9,1.2
	c1.2,0.1,2.3-0.8,2.8-2.2c0.2-0.6,0.4-1.2,0.8-1.9c2.9-5.5,9.9-5.7,16.5-5.7c7,0,16,0.3,26.8,1.4c0.9,0.1,1.8-0.4,2.4-1.2
	c0.8-1.2,1.9-2.6,3.4-3.7c4.3-3.2,8.4-1.9,11.7-2.5c7.7-1.3,12.1-12.6,14.6-17.8c4.5-9.3,13.9-21.6,35.3-33.7
	c0.9-0.5,1.5-1.4,1.6-2.6c0.9-6.4,1.5-14.1,1.3-22.8c-0.1-4.9-0.5-9.3-1-13.4c-0.1-0.7-0.3-1.3-0.7-1.9c-0.9-1.2-2-2.9-2.7-5.1
	c-1.5-5-0.2-9.2,0.9-14.5c0,0,1-4.6,1.1-38.3c0-0.4,0-1.2-0.4-2.2c-0.9-2.3-3.3-2.9-3.9-3.1c-4.2-1.5-7.2-14.7-7.9-24.1
	c-1-12.1,1.3-22.2,3.4-28.7c0.1-0.3,0.2-0.7,0.2-1c0.6-9.5,0.6-17.4,0.5-23.3c-0.3-14.1-1.5-17.4-3.4-19.6c-1.3-1.5-4-3.1-9.4-6.3
	c-2.8-1.6-4.2-2.5-5.8-2.9c-4.1-1.2-5.7,0.2-9.8-0.2c-5.7-0.4-5.6-3.3-10.8-4c-5.4-0.7-5.8,2.4-13.1,3.1c-6.8,0.7-8-1.9-14-0.9
	c-5.6,0.9-8.3,3.7-11.6,5.4c-10.2,5.3-21.6-2.3-29.7-6.3c-8.1-4-21.3-4.8-47.6-6.3c-16.1-0.9-60.7-2.1-81.9,2.8
	c-3.4,0.8-9,2.4-15.9,0.3c-5.9-1.8-7.4-4.6-13.9-6.3c-4.5-1.2-7.3-0.8-14.1-0.3c-7.3,0.5-14.5,0.4-21.8,0.9
	c-28.1,2.2-37.9-4-67.4-0.5c-17.7,2.1-19,4.9-28.7,3.4c-13.4-2.1-24.9-3.9-31.5-5.9c-0.6-0.2-2.2-0.7-4.3-0.5
	c-4.6,0.5-7.8,4-8.4,4.6c-6.2,6.3-26.8-0.1-34.9-2.2c-6.6-1.7-33.5-8.6-59.4,1.4c-9.2,3.5-13.9,7.5-23.7,7.3
	c-9.2-0.2-12.8-3.9-24.4-4.9c-9.8-0.9-10.3,1.4-21,1.5c-16.3,0.2-30.5-4.9-41.1-8.7c-10.8-3.9-15.3-6.8-23.4-5.6
	c-5.9,0.9-6.1,2.8-15.5,5.9c-4.1,1.3-14.1,4.6-26.2,4.3c-11.6-0.2-12.7-3.4-22-2c-7.1,1-8.4,3.1-16.1,4.9c-6.9,1.7-9.9,1-23,0.8
	c-20-0.3-21.1,1.2-39.7,0.5c-5.8-0.2-3.5-0.3-16.9-1.1c-26.3-1.6-29.9-1-39.2-2.5c-6.1-1-15-2.8-25.7-6.9c-0.8-0.3-1.7-0.2-2.4,0.4
	c-5.4,4.1-9.8,6.1-12.6,7.2c-4.4,1.7-6.1,1.4-7.4,0.9c-2.4-0.9-3.1-2.8-4.9-2.5c-1.3,0.2-1.5,1.2-4.8,4.3c-1.9,1.9-2.9,2.8-3.8,3.1
	c-3.2,1.1-6.4-1.7-6.9-2.2c-4.1-3.5-3.5-8.1-6-8.7c-1.8-0.4-2.6,1.8-6.7,4.6c0,0-2.2,1.5-6.9,3.4c-13.2,5.3-36.8-0.6-36.8-0.6
	c-8.7-2.2-20.4-6-33.8-13.1c-0.6-0.3-1.4-0.4-2-0.1c-1.3,0.5-3.5,1.4-6,2.5c-15.8,6.6-20.3,8.7-26.8,8.3c-2.9-0.1-1.9-0.6-6.5-1.1
	c-6.7-0.8-11-0.1-23.5,1.5c-14.5,2-16.7,2.2-20.1,2.3c-6.3,0.2-5.8-0.3-12.8-0.2c-2.2,0-12.8,0.2-27.1,2.8c-7.1,1.3-8.2,1.9-13,2.8
	c-14.5,2.7-25.2,0.9-33.9,0c-24.7-2.6-23.1,3.4-45.8,1.2C328.1,296.7,316.2,285.8,304.6,296.1z"/>
<g>
	<path d="M798.4,272.8c18.6,0,34,6.6,46.4,19.7c12.4,13.1,18.6,29,18.6,47.8c0,9.3-1.6,18.1-4.9,26.3c-3.2,8.3-7.7,15.4-13.4,21.4
		c-5.7,6-12.6,10.9-20.7,14.5c-8.1,3.6-16.8,5.4-26.1,5.4c0.4,0.1,1.1,0.4,2,0.9c4.3,2.1,7.9,3.7,10.8,5c2.9,1.2,6.8,2.7,11.6,4.2
		c4.8,1.5,8.8,2.1,11.9,1.7c3.2-0.4,5.3-1.8,6.5-4.2c0-0.3,0.1-0.6,0.2-0.9c0.3-0.6,0.8-1,1.5-1.1c0.6,0,1,0.3,1.3,0.8
		c0.3,0.5,0.4,1.1,0.2,1.7c-1.6,5.8-4.3,10.5-8.1,14.4c-3.8,3.8-8.5,5.8-14.3,6c-4.1,0.1-8.7-1-13.7-3.4c-5-2.4-10.4-4.9-16.2-7.3
		c-5.8-2.4-11.6-3.6-17.4-3.6c-10.3,0-16.8,1.9-19.5,5.7c-0.4,0.9-1.1,1.2-2,0.9c-0.9-0.3-1.3-0.9-1.1-1.8c0.7-3.5,2.1-7,4-10.4
		c1.9-3.4,4.6-6.3,8.1-8.7c3.5-2.4,7.3-3.6,11.4-3.6c-12.8-4.7-23.1-12.9-30.8-24.4c-7.7-11.6-11.6-24.7-11.6-39.2
		c0-18.7,6.2-34.6,18.6-47.8C764.3,279.4,779.8,272.8,798.4,272.8z M798.4,276.1c-9.3,0-17.3,5.6-24,16.8
		c-6.7,11.2-10.1,27-10.1,47.4c0,20.4,3.4,36.2,10.1,47.4c6.7,11.2,14.7,16.8,24,16.8c9.4,0,17.5-5.6,24.2-16.7
		c6.7-11.1,10.1-27,10.1-47.6c0-20.6-3.4-36.5-10.1-47.5C815.9,281.6,807.8,276.1,798.4,276.1z"/>
	<path d="M914.7,321c1.2,0,1.8,0.6,1.8,1.8v53.9c0,7.8,1.1,14.2,3.3,19.2c2.2,5,5.8,7.5,10.8,7.5c4.7-0.1,8.5-3.2,11.3-9.3
		c2.8-6,4.2-12.7,4.2-19.9v-12.2c0-4.7-0.3-8.6-1-11.7c-0.7-3.1-1.8-5.6-3.4-7.4c-1.6-1.8-3.7-3-6.2-3.4c-1.3-0.3-2-0.9-2-1.8
		c0-1,0.6-1.5,1.8-1.5c5-0.1,9.9-0.9,14.7-2.3c4.8-1.4,9-3.1,12.5-5c3.5-1.9,6.1-3.4,7.7-4.5c1.6-1.1,2.9-2.1,4-3
		c0.3-0.3,0.7-0.4,1.1-0.4c1.2,0,1.8,0.6,1.8,1.8v56.4c0,5.5,0.4,9.9,1.3,13.3c1.2,4.1,3.2,6.5,6.2,7.1c0.3,0.1,0.9,0.2,1.9,0.1
		c1-0.1,1.5-0.1,1.7-0.1c0.9,0,1.4,0.4,1.7,1.2c0.2,0.8,0,1.4-0.8,1.9c-6.5,3.5-12.9,5.3-19.2,5.3c-10.6,0-17.8-3.3-21.7-9.9
		c-5,6.8-14,10.1-27,9.9c-10.5,0-19-2.7-25.6-8.2c-6.6-5.5-9.9-13.1-9.9-23v-14.6c0-7.1-0.8-12.4-2.4-16c-1.6-3.6-4.3-5.8-8.2-6.5
		c-1.3-0.3-2-0.9-2-1.8c0-1,0.6-1.5,1.8-1.5c6.5-0.3,13-1.7,19.5-4.2c6.5-2.5,10.9-4.6,13.4-6.2c2.4-1.6,4.5-3.1,6.1-4.4
		C913.9,321.1,914.2,321,914.7,321z"/>
	<path d="M1042.7,321.4c0.4-0.4,1-0.6,1.7-0.3c0.7,0.2,1,0.8,1,1.7v60.6c0,4.4,0.4,8,1.1,10.7c0.7,2.7,2,4.8,3.6,6.3
		c1.7,1.5,3.9,2.4,6.7,2.9c1.2,0.1,1.8,0.7,1.8,1.5c0,1.2-0.5,1.8-1.5,1.8h-53.9c-1.2,0-1.8-0.6-1.8-1.8c0-0.9,0.6-1.4,1.8-1.5
		c4.6-0.6,7.6-2.4,9.2-5.3c1.5-2.9,2.3-7.8,2.3-14.6v-21.2c0-7.1-0.8-12.4-2.5-16c-1.7-3.6-4.5-5.8-8.3-6.5
		c-1.2-0.3-1.8-0.9-1.8-1.8c0-1,0.6-1.5,1.8-1.5c6.3-0.3,12.7-1.7,19.2-4.2c6.5-2.5,11-4.6,13.5-6.2
		C1039,324.2,1041.1,322.8,1042.7,321.4z M1027.4,273.9c4.4,0,8.5,1.7,12.3,5s5.6,7.6,5.6,12.9c0,5-1.7,9.3-5.2,12.8
		c-3.5,3.5-7.7,5.3-12.7,5.3c-4.3,0-8.3-1.7-12.2-5.1c-3.8-3.4-5.7-7.7-5.7-13c0-4.9,1.7-9.1,5.2-12.6
		C1018.2,275.7,1022.4,273.9,1027.4,273.9z"/>
	<path d="M1081.2,321h70.1c0.6,0,1,0.3,1.3,0.8c0.3,0.5,0.3,1.1,0,1.7l-46,79.8h28.5c4.3,0,7.4-1.3,9.4-4c2-2.7,3.8-6.8,5.4-12.4
		c0.1-1,0.7-1.5,1.5-1.5c0.6,0,1,0.2,1.3,0.6c0.3,0.4,0.4,0.8,0.4,1.2l-1.8,19.5h-79.4h-0.2c-0.6,0-1-0.3-1.3-0.9
		c-0.3-0.6-0.3-1.1,0-1.5l46-79.8h-18.1c-8.3,0-13.6,5.5-15.9,16.6c0,1-0.6,1.5-1.7,1.4c-1.1-0.1-1.6-0.7-1.4-1.9L1081.2,321z"/>
	<path d="M792.6,455.5c8.7-2.4,18.4-3.2,29.2-2.4c4.3,0.3,8.4,0.8,12.3,1.4c3.9,0.7,6.9,1.3,8.8,1.8c2,0.5,3.8,0.9,5.5,1.2
		c1.7,0.3,2.9,0.3,3.8,0c0.8-0.3,1.5-1,2.1-2.2c0.3-0.9,0.9-1.3,1.8-1.1c0.9,0.1,1.3,0.7,1.3,1.8v28.5c0,1-0.5,1.6-1.5,1.8
		c-0.9,0-1.5-0.4-1.8-1.3c-1.6-5.9-3.7-10.8-6.3-14.8c-2.6-4-5.5-6.9-8.7-8.8c-3.2-1.9-6.3-3.2-9.3-4c-2.9-0.7-6.3-1.1-9.9-1.1
		c-5.3,0-10.5,1.3-15.5,4c-5,2.7-9.7,6.5-13.9,11.6c-4.3,5.1-7.7,11.9-10.3,20.3c-2.6,8.5-3.9,18-3.9,28.5c0,10.5,1.2,20,3.6,28.5
		c2.4,8.5,5.7,15.2,9.8,20.2c4.1,5,8.7,8.8,13.6,11.4c4.9,2.6,10,3.9,15.1,3.9c8.3-0.1,15.7-3.1,22.2-8.7c6.6-5.7,11-13.2,13.4-22.4
		c0.3-0.9,0.9-1.3,1.9-1.2c1,0.1,1.4,0.6,1.4,1.7V585c0,1-0.4,1.6-1.1,1.8c-0.7,0.1-1.4-0.2-2-1.1c-1-1.5-2.8-2.2-5.4-2.3
		c-2.6-0.1-5.5,0.3-8.6,1c-3.2,0.7-7.4,1.5-12.7,2.4c-5.3,0.9-10.4,1.3-15.3,1.3c-6.5-0.1-12.5-0.8-17.9-2
		c-14.6-3.5-26.4-11.4-35.5-23.5c-9.1-12.2-13.6-26.2-13.6-42.1c0-15.5,4.3-29.2,13-41.1C767.1,467.4,778.5,459.4,792.6,455.5z"/>
	<path d="M910.5,454.6c0.6-0.6,1.3-0.7,2-0.2c0.4,0.3,0.7,0.8,0.7,1.5v107.7c0,6.6,0.9,11.5,2.7,14.5c1.8,3,4.7,4.8,8.8,5.4
		c1.2,0.1,1.8,0.7,1.8,1.5c0,1.2-0.5,1.8-1.5,1.8h-53.9c-1.2,0-1.8-0.6-1.8-1.8c0-0.9,0.6-1.4,1.8-1.5c4.6-0.6,7.6-2.4,9.2-5.3
		c1.5-2.9,2.3-7.8,2.3-14.6v-68.3c0-7.1-0.9-12.4-2.5-16c-1.7-3.6-4.5-5.8-8.3-6.5c-1.3-0.3-2-0.9-2-1.8c0-1,0.7-1.5,2-1.5
		c6.3-0.3,12.7-1.7,19.2-4.1c6.5-2.4,11-4.5,13.5-6.2C906.8,457.4,908.9,455.9,910.5,454.6z"/>
	<path d="M966.6,501.2c1.2,0,1.8,0.6,1.8,1.8v53.9c0,7.8,1.1,14.2,3.3,19.2c2.2,5,5.8,7.5,10.8,7.5c4.7-0.1,8.5-3.2,11.3-9.3
		c2.8-6,4.2-12.7,4.2-19.9v-12.2c0-4.7-0.3-8.6-1-11.7c-0.7-3.1-1.8-5.6-3.4-7.4c-1.6-1.8-3.7-3-6.2-3.4c-1.3-0.3-2-0.9-2-1.8
		c0-1,0.6-1.5,1.8-1.5c5-0.1,9.9-0.9,14.7-2.3c4.8-1.4,9-3.1,12.5-5c3.5-1.9,6.1-3.4,7.7-4.5c1.6-1.1,2.9-2.1,4-3
		c0.3-0.3,0.7-0.4,1.1-0.4c1.2,0,1.8,0.6,1.8,1.8v56.4c0,5.5,0.4,9.9,1.3,13.3c1.2,4.1,3.2,6.5,6.2,7.1c0.3,0.1,0.9,0.2,1.9,0.1
		c1-0.1,1.5-0.1,1.7-0.1c0.9,0,1.4,0.4,1.7,1.2c0.2,0.8,0,1.4-0.8,1.9c-6.5,3.5-12.9,5.3-19.2,5.3c-10.6,0-17.8-3.3-21.7-9.9
		c-5,6.8-14,10.1-27,9.9c-10.5,0-19-2.7-25.6-8.2c-6.6-5.5-9.9-13.1-9.9-23v-14.6c0-7.1-0.8-12.4-2.4-16c-1.6-3.6-4.3-5.8-8.2-6.5
		c-1.3-0.3-2-0.9-2-1.8c0-1,0.6-1.5,1.8-1.5c6.5-0.3,13-1.7,19.5-4.2c6.5-2.5,10.9-4.6,13.4-6.2c2.4-1.6,4.5-3.1,6.1-4.4
		C965.8,501.4,966.2,501.2,966.6,501.2z"/>
	<path d="M1080.7,454.6c0.6-0.6,1.3-0.7,2-0.2c0.6,0.3,0.9,0.8,0.9,1.5v53.3c6.5-4.9,13.4-7.4,20.8-7.7c7.4-0.3,14,1.3,19.9,4.8
		c5.9,3.5,10.9,8.4,14.9,14.9c4.1,6.5,6.2,13.6,6.3,21.2c0.3,12.2-3.1,22.8-10.1,31.6c-7,8.8-15.9,13.6-26.6,14.4
		c-11.4,0.7-21.2-3.4-29.6-12.4l-24.1,10.6c-1.6,0.6-2.4,0.1-2.4-1.5v-89.8c0-7.1-0.8-12.4-2.4-16c-1.6-3.6-4.4-5.8-8.4-6.5
		c-1.2,0-1.8-0.6-1.8-1.8c0-1,0.6-1.5,1.8-1.5c4.9-0.1,9.7-0.9,14.6-2.3c4.9-1.4,9.1-3.1,12.6-5c3.5-1.9,6.1-3.4,7.7-4.5
		C1078.4,456.4,1079.7,455.5,1080.7,454.6z M1092.7,508.3c-2.7,0-4.8,1.3-6.4,4c-4.1,6.6-3.8,19.3,1.1,38
		c3.1,11.1,6.8,19.8,11.2,26.3c4.3,6.5,8.7,9.1,12.9,8c4.1-1,6.4-5.9,6.7-14.5c0.4-8.6-0.8-17.6-3.6-27.1
		c-1.8-6.8-3.8-12.7-6.2-17.9c-2.4-5.2-4.9-9.2-7.6-12.3C1098,509.8,1095.3,508.3,1092.7,508.3z"/>
</g>
<g>
	<path d="M917.6,211.5c0,0.5,0,0.8-0.1,1.2c-0.1,0.3-0.1,0.6-0.3,0.8c-0.1,0.2-0.3,0.4-0.4,0.4c-0.2,0.1-0.4,0.1-0.6,0.1H902v40.1
		c0,0.2-0.1,0.4-0.2,0.5c-0.1,0.1-0.3,0.3-0.5,0.3c-0.3,0.1-0.6,0.2-1,0.2c-0.4,0.1-1,0.1-1.6,0.1c-0.6,0-1.2,0-1.6-0.1
		c-0.4-0.1-0.8-0.1-1.1-0.2c-0.3-0.1-0.4-0.2-0.5-0.3s-0.2-0.3-0.2-0.5v-40.1h-14.2c-0.2,0-0.4,0-0.6-0.1c-0.2-0.1-0.3-0.2-0.4-0.4
		c-0.1-0.2-0.2-0.5-0.3-0.8c-0.1-0.3-0.1-0.7-0.1-1.2c0-0.5,0-0.9,0.1-1.2c0.1-0.3,0.1-0.6,0.3-0.8s0.2-0.4,0.4-0.5
		c0.2-0.1,0.4-0.1,0.6-0.1h35.2c0.2,0,0.4,0,0.6,0.1c0.2,0.1,0.3,0.3,0.4,0.5s0.2,0.5,0.3,0.8C917.6,210.6,917.6,211,917.6,211.5z"
		/>
	<path d="M964.5,254.2c0,0.2-0.1,0.4-0.2,0.5c-0.1,0.1-0.3,0.3-0.5,0.3c-0.3,0.1-0.6,0.2-1,0.2c-0.4,0.1-1,0.1-1.6,0.1
		c-0.7,0-1.2,0-1.6-0.1c-0.4-0.1-0.8-0.1-1-0.2c-0.3-0.1-0.4-0.2-0.5-0.3s-0.2-0.3-0.2-0.5v-20.5h-23v20.5c0,0.2-0.1,0.4-0.2,0.5
		c-0.1,0.1-0.3,0.3-0.5,0.3c-0.3,0.1-0.6,0.2-1,0.2c-0.4,0.1-1,0.1-1.6,0.1c-0.6,0-1.2,0-1.6-0.1c-0.4-0.1-0.8-0.1-1.1-0.2
		c-0.3-0.1-0.4-0.2-0.5-0.3c-0.1-0.1-0.2-0.3-0.2-0.5v-44.4c0-0.2,0.1-0.4,0.2-0.5c0.1-0.1,0.3-0.3,0.5-0.3s0.6-0.2,1.1-0.2
		c0.4-0.1,1-0.1,1.6-0.1c0.7,0,1.2,0,1.6,0.1s0.8,0.1,1,0.2c0.3,0.1,0.4,0.2,0.5,0.3c0.1,0.1,0.2,0.3,0.2,0.5v18.5h23v-18.5
		c0-0.2,0.1-0.4,0.2-0.5s0.3-0.3,0.5-0.3c0.3-0.1,0.6-0.2,1-0.2s1-0.1,1.6-0.1c0.6,0,1.2,0,1.6,0.1s0.8,0.1,1,0.2
		c0.3,0.1,0.4,0.2,0.5,0.3c0.1,0.1,0.2,0.3,0.2,0.5V254.2z"/>
	<path d="M1009.3,252.5c0,0.4,0,0.8-0.1,1.1c-0.1,0.3-0.1,0.6-0.3,0.8c-0.1,0.2-0.3,0.4-0.5,0.5c-0.2,0.1-0.4,0.1-0.6,0.1h-24.3
		c-0.6,0-1.2-0.2-1.7-0.6c-0.5-0.4-0.8-1-0.8-1.9v-41.2c0-0.9,0.3-1.6,0.8-1.9c0.5-0.4,1.1-0.6,1.7-0.6h24c0.2,0,0.4,0,0.6,0.1
		c0.2,0.1,0.3,0.3,0.4,0.5s0.2,0.5,0.3,0.8c0.1,0.3,0.1,0.7,0.1,1.2c0,0.4,0,0.8-0.1,1.1c-0.1,0.3-0.2,0.6-0.3,0.8
		c-0.1,0.2-0.2,0.4-0.4,0.4c-0.2,0.1-0.4,0.1-0.6,0.1h-19.8v14.5h17c0.2,0,0.4,0.1,0.6,0.2c0.2,0.1,0.3,0.3,0.4,0.4
		c0.1,0.2,0.2,0.5,0.3,0.8c0.1,0.3,0.1,0.7,0.1,1.2c0,0.4,0,0.8-0.1,1.1c-0.1,0.3-0.1,0.6-0.3,0.8c-0.1,0.2-0.3,0.3-0.4,0.4
		s-0.4,0.1-0.6,0.1h-17V250h20.1c0.2,0,0.4,0,0.6,0.1c0.2,0.1,0.3,0.2,0.5,0.4c0.1,0.2,0.2,0.5,0.3,0.8
		C1009.3,251.7,1009.3,252.1,1009.3,252.5z"/>
</g>
<g>
	<path d="M780.3,691c0,0.1,0,0.3-0.1,0.4c-0.1,0.1-0.2,0.2-0.4,0.3c-0.2,0.1-0.4,0.1-0.7,0.2c-0.3,0-0.6,0.1-1.1,0.1
		c-0.4,0-0.8,0-1-0.1c-0.3,0-0.5-0.1-0.7-0.2c-0.2-0.1-0.3-0.2-0.4-0.3c-0.1-0.1-0.1-0.2-0.1-0.4v-41c0-0.1,0-0.2,0.1-0.4
		c0.1-0.1,0.2-0.2,0.4-0.3s0.4-0.1,0.7-0.2c0.3,0,0.6-0.1,1-0.1c0.4,0,0.8,0,1.1,0.1c0.3,0,0.5,0.1,0.7,0.2c0.2,0.1,0.3,0.2,0.4,0.3
		c0.1,0.1,0.1,0.2,0.1,0.4V691z"/>
	<path d="M800.4,691c0,0.1,0,0.3-0.1,0.4c-0.1,0.1-0.2,0.2-0.4,0.3c-0.2,0.1-0.4,0.1-0.7,0.2c-0.3,0-0.6,0.1-1.1,0.1
		c-0.4,0-0.8,0-1-0.1c-0.3,0-0.5-0.1-0.7-0.2c-0.2-0.1-0.3-0.2-0.4-0.3c-0.1-0.1-0.1-0.2-0.1-0.4v-41c0-0.1,0-0.2,0.1-0.4
		c0.1-0.1,0.2-0.2,0.4-0.3s0.4-0.1,0.7-0.2c0.3,0,0.6-0.1,1-0.1c0.4,0,0.8,0,1.1,0.1c0.3,0,0.5,0.1,0.7,0.2c0.2,0.1,0.3,0.2,0.4,0.3
		c0.1,0.1,0.1,0.2,0.1,0.4V691z"/>
	<path d="M844.2,651.1c0,0.3,0,0.5-0.1,0.8c0,0.2-0.1,0.4-0.2,0.5c-0.1,0.1-0.2,0.3-0.4,0.3c-0.1,0.1-0.3,0.1-0.5,0.1h-13.8V691
		c0,0.1,0,0.3-0.1,0.4s-0.2,0.2-0.4,0.3c-0.2,0.1-0.4,0.1-0.7,0.2c-0.3,0-0.6,0.1-1,0.1c-0.4,0-0.8,0-1-0.1c-0.3,0-0.5-0.1-0.7-0.2
		c-0.2-0.1-0.3-0.2-0.4-0.3c-0.1-0.1-0.1-0.2-0.1-0.4v-38.1h-13.8c-0.2,0-0.4,0-0.5-0.1c-0.1-0.1-0.2-0.2-0.3-0.3
		c-0.1-0.1-0.2-0.3-0.2-0.5c0-0.2-0.1-0.5-0.1-0.8c0-0.3,0-0.6,0.1-0.8c0-0.2,0.1-0.4,0.2-0.6c0.1-0.2,0.2-0.3,0.3-0.3
		c0.1-0.1,0.3-0.1,0.5-0.1h32c0.2,0,0.3,0,0.5,0.1c0.1,0.1,0.3,0.2,0.4,0.3c0.1,0.2,0.2,0.3,0.2,0.6
		C844.2,650.6,844.2,650.8,844.2,651.1z"/>
	<path d="M900.7,690.9c0,0.2,0,0.3-0.1,0.4c0,0.1-0.2,0.2-0.3,0.3s-0.4,0.1-0.7,0.2c-0.3,0-0.7,0.1-1.1,0.1c-0.4,0-0.9,0-1.3-0.1
		c-0.4,0-0.8-0.1-1-0.3c-0.2-0.1-0.4-0.3-0.6-0.5l-18.7-21.7V691c0,0.1,0,0.3-0.1,0.4c-0.1,0.1-0.2,0.2-0.4,0.3
		c-0.2,0.1-0.4,0.1-0.7,0.2c-0.3,0-0.6,0.1-1.1,0.1c-0.4,0-0.8,0-1-0.1c-0.3,0-0.5-0.1-0.7-0.2c-0.2-0.1-0.3-0.2-0.4-0.3
		c-0.1-0.1-0.1-0.2-0.1-0.4v-41c0-0.1,0-0.2,0.1-0.4c0.1-0.1,0.2-0.2,0.4-0.3s0.4-0.1,0.7-0.2c0.3,0,0.6-0.1,1-0.1
		c0.4,0,0.8,0,1.1,0.1c0.3,0,0.5,0.1,0.7,0.2s0.3,0.2,0.4,0.3c0.1,0.1,0.1,0.2,0.1,0.4v19.2l17.9-19.2c0.1-0.2,0.3-0.3,0.5-0.4
		c0.2-0.1,0.4-0.2,0.6-0.3s0.5-0.1,0.8-0.1c0.3,0,0.6,0,1.1,0c0.4,0,0.8,0,1,0.1c0.3,0,0.5,0.1,0.6,0.2s0.3,0.2,0.3,0.3
		c0,0.1,0.1,0.2,0.1,0.3c0,0.2-0.1,0.5-0.2,0.7c-0.1,0.2-0.4,0.5-0.7,0.8L882,669.1l18,20.6c0.3,0.4,0.5,0.7,0.6,0.8
		C900.7,690.7,900.7,690.8,900.7,690.9z"/>
	<path d="M944.5,690.3c0.1,0.3,0.2,0.6,0.2,0.8c0,0.2-0.1,0.4-0.2,0.5c-0.2,0.1-0.4,0.2-0.7,0.2c-0.3,0-0.7,0-1.2,0s-0.9,0-1.2,0
		c-0.3,0-0.5-0.1-0.7-0.1s-0.3-0.2-0.4-0.3c-0.1-0.1-0.2-0.2-0.2-0.4l-4.4-11.3h-20.3l-4.3,11.2c0,0.2-0.1,0.3-0.2,0.4
		c-0.1,0.1-0.2,0.2-0.4,0.3c-0.2,0.1-0.4,0.1-0.7,0.2c-0.3,0-0.7,0.1-1.1,0.1c-0.5,0-0.9,0-1.3-0.1c-0.3,0-0.6-0.1-0.7-0.2
		c-0.2-0.1-0.2-0.3-0.2-0.5c0-0.2,0.1-0.5,0.2-0.8l16.2-40.3c0.1-0.2,0.2-0.3,0.3-0.4c0.1-0.1,0.3-0.2,0.6-0.3
		c0.2-0.1,0.5-0.1,0.8-0.1c0.3,0,0.7,0,1.1,0c0.4,0,0.8,0,1.1,0c0.3,0,0.6,0.1,0.8,0.1s0.4,0.2,0.5,0.3c0.1,0.1,0.2,0.3,0.3,0.4
		L944.5,690.3z M925.3,653.6L925.3,653.6l-8.8,22.8h17.7L925.3,653.6z"/>
	<path d="M988.4,689.7c0,0.4-0.1,0.7-0.2,1s-0.3,0.5-0.5,0.6c-0.2,0.2-0.4,0.3-0.7,0.3c-0.2,0.1-0.5,0.1-0.7,0.1h-0.9
		c-0.5,0-0.9-0.1-1.3-0.2c-0.4-0.1-0.8-0.3-1.1-0.6c-0.4-0.3-0.7-0.6-1.1-1.1c-0.4-0.5-0.8-1-1.2-1.8l-16.3-26.4
		c-0.8-1.3-1.6-2.6-2.5-4c-0.8-1.4-1.6-2.7-2.3-4h0c0,1.6,0,3.2,0,4.9s0,3.3,0,4.9V691c0,0.1,0,0.3-0.1,0.4
		c-0.1,0.1-0.2,0.2-0.4,0.3c-0.2,0.1-0.4,0.1-0.7,0.2c-0.3,0-0.6,0.1-1.1,0.1c-0.4,0-0.8,0-1-0.1c-0.3,0-0.5-0.1-0.7-0.2
		c-0.2-0.1-0.3-0.2-0.4-0.3c-0.1-0.1-0.1-0.2-0.1-0.4v-39.6c0-0.8,0.2-1.3,0.7-1.6c0.5-0.3,0.9-0.4,1.3-0.4h1.8c0.6,0,1,0,1.4,0.1
		c0.4,0.1,0.7,0.2,1,0.4c0.3,0.2,0.6,0.5,0.9,0.9c0.3,0.4,0.6,0.9,1,1.5l12.5,20.2c0.8,1.3,1.5,2.5,2.2,3.6c0.7,1.2,1.4,2.3,2.1,3.4
		c0.7,1.1,1.3,2.2,2,3.3c0.7,1.1,1.3,2.2,1.9,3.3h0c0-1.8,0-3.7,0-5.7c0-2,0-3.9,0-5.7v-24.6c0-0.1,0-0.2,0.1-0.4
		c0.1-0.1,0.2-0.2,0.4-0.3c0.2-0.1,0.4-0.1,0.7-0.2c0.3,0,0.6,0,1.1,0c0.4,0,0.7,0,1,0c0.3,0,0.5,0.1,0.7,0.2
		c0.2,0.1,0.3,0.2,0.4,0.3c0.1,0.1,0.1,0.2,0.1,0.4V689.7z"/>
	<path d="M1030.8,661.4c0,2-0.4,3.8-1.1,5.4c-0.7,1.6-1.8,3-3.1,4.2c-1.4,1.2-3,2.1-5,2.7c-2,0.7-4.3,1-7.1,1h-6V691
		c0,0.1,0,0.3-0.1,0.4c-0.1,0.1-0.2,0.2-0.4,0.3c-0.2,0.1-0.4,0.1-0.7,0.2c-0.3,0-0.6,0.1-1.1,0.1c-0.4,0-0.8,0-1-0.1
		c-0.3,0-0.5-0.1-0.7-0.2c-0.2-0.1-0.3-0.2-0.4-0.3c-0.1-0.1-0.1-0.2-0.1-0.4v-39.6c0-0.8,0.2-1.3,0.7-1.6c0.5-0.3,0.9-0.4,1.3-0.4
		h9.4c0.9,0,1.8,0,2.7,0.1s1.9,0.2,3.1,0.5s2.4,0.7,3.6,1.4s2.3,1.5,3.1,2.5c0.9,1,1.5,2.1,2,3.4
		C1030.5,658.5,1030.8,659.9,1030.8,661.4z M1026.1,661.8c0-1.8-0.4-3.4-1.2-4.7s-1.7-2.2-2.9-2.8s-2.3-1-3.5-1.2
		c-1.2-0.2-2.4-0.2-3.5-0.2h-6.6v18.4h6.3c2,0,3.7-0.2,5.1-0.7s2.5-1.1,3.4-1.9c0.9-0.8,1.6-1.8,2.1-3
		C1025.9,664.4,1026.1,663.2,1026.1,661.8z"/>
	<path d="M1076.7,676c0,2.6-0.4,4.9-1.2,6.9s-1.9,3.7-3.4,5.1c-1.5,1.4-3.3,2.4-5.4,3.1c-2.1,0.7-4.4,1.1-7,1.1
		c-2.4,0-4.5-0.3-6.5-1c-2-0.7-3.7-1.7-5.2-3c-1.4-1.3-2.6-3-3.4-4.9s-1.2-4.2-1.2-6.8V650c0-0.1,0-0.2,0.1-0.4s0.2-0.2,0.4-0.3
		c0.2-0.1,0.4-0.1,0.7-0.2c0.3,0,0.6-0.1,1-0.1c0.4,0,0.8,0,1,0.1c0.3,0,0.5,0.1,0.7,0.2s0.3,0.2,0.4,0.3c0.1,0.1,0.1,0.2,0.1,0.4
		v25.9c0,2.1,0.3,4,0.8,5.6c0.6,1.6,1.4,2.9,2.4,4c1.1,1.1,2.3,1.9,3.9,2.4c1.5,0.5,3.2,0.8,5.1,0.8c1.9,0,3.7-0.3,5.2-0.8
		c1.5-0.5,2.8-1.3,3.8-2.3c1-1,1.9-2.3,2.4-3.9c0.6-1.6,0.8-3.4,0.8-5.5V650c0-0.1,0-0.2,0.1-0.4s0.2-0.2,0.4-0.3s0.4-0.1,0.7-0.2
		c0.3,0,0.6-0.1,1-0.1c0.4,0,0.8,0,1,0.1c0.3,0,0.5,0.1,0.7,0.2s0.3,0.2,0.4,0.3c0.1,0.1,0.1,0.2,0.1,0.4V676z"/>
	<path d="M1121.3,690.9c0,0.2,0,0.3-0.1,0.4c-0.1,0.1-0.2,0.2-0.3,0.3c-0.2,0.1-0.4,0.1-0.7,0.2c-0.3,0-0.7,0.1-1.1,0.1
		c-0.4,0-0.7,0-1,0c-0.3,0-0.5-0.1-0.7-0.2c-0.2-0.1-0.3-0.2-0.5-0.4c-0.1-0.2-0.2-0.4-0.3-0.6l-4.3-10.3c-0.5-1.2-1-2.2-1.6-3.3
		c-0.6-1-1.3-1.9-2.1-2.7c-0.8-0.8-1.8-1.3-2.9-1.8c-1.1-0.4-2.5-0.7-4.1-0.7h-4.8V691c0,0.1,0,0.3-0.1,0.4
		c-0.1,0.1-0.2,0.2-0.4,0.3c-0.2,0.1-0.4,0.1-0.7,0.2c-0.3,0-0.6,0.1-1.1,0.1c-0.4,0-0.8,0-1-0.1c-0.3,0-0.5-0.1-0.7-0.2
		c-0.2-0.1-0.3-0.2-0.4-0.3c-0.1-0.1-0.1-0.2-0.1-0.4v-39.6c0-0.8,0.2-1.3,0.7-1.6c0.5-0.3,0.9-0.4,1.3-0.4h8.7c1.1,0,2.1,0,2.8,0.1
		c0.8,0.1,1.4,0.1,2.1,0.2c1.8,0.3,3.3,0.7,4.6,1.4c1.3,0.6,2.4,1.4,3.3,2.3c0.9,0.9,1.5,2,1.9,3.1c0.4,1.2,0.6,2.4,0.6,3.8
		c0,1.4-0.2,2.6-0.6,3.7c-0.4,1.1-1,2.1-1.8,2.9c-0.8,0.8-1.7,1.6-2.8,2.2c-1.1,0.6-2.3,1.1-3.6,1.5c0.8,0.3,1.5,0.7,2.1,1.2
		c0.6,0.5,1.2,1.1,1.8,1.7c0.5,0.7,1,1.5,1.5,2.3c0.5,0.9,1,1.9,1.4,3l4.3,9.9c0.3,0.8,0.5,1.3,0.6,1.6
		C1121.2,690.6,1121.3,690.8,1121.3,690.9z M1113.6,660.6c0-1.8-0.4-3.3-1.3-4.6c-0.9-1.3-2.4-2.2-4.4-2.7c-0.7-0.2-1.4-0.3-2.3-0.4
		c-0.8-0.1-1.9-0.1-3.2-0.1h-5.7v15.5h6.7c1.8,0,3.3-0.2,4.6-0.6s2.4-1,3.2-1.7c0.8-0.7,1.5-1.5,1.9-2.5S1113.6,661.7,1113.6,660.6z
		"/>
</g>
</svg>
