<?xml version="1.0" encoding="utf-8"?>
<!-- Generator: Adobe Illustrator 24.3.0, SVG Export Plug-In . SVG Version: 6.00 Build 0)  -->
<svg version="1.1" id="Layer_1" xmlns="http://www.w3.org/2000/svg" xmlns:xlink="http://www.w3.org/1999/xlink" x="0px" y="0px"
	 viewBox="0 0 1895.9 812" style="enable-background:new 0 0 1895.9 812;" xml:space="preserve">
<style type="text/css">
	.st0{fill:#BBB0D7;}
</style>
<path class="st0" d="M184.3,296.1c-2.1,1.5-10,7.5-11.6,16.9c-1.4,8.3,3.2,10.6,1.6,20.2c-1,6.1-3.9,10.6-7.6,16.5
	c-4.6,7.3-6,6.9-8.8,11.9c-4.7,8.7-4.5,17.4-4.4,22.7c0.1,4,0.4,13.7,5.7,23.4c2.4,4.4,6,9.1,7.4,10.8c3.5,4.5,5.2,6.7,6.7,8.1
	c1.4,1.3,3.1,2.8,4.7,5.5c0.4,0.8,1.3,2.2,1.8,4c0.4,1.4,0.9,4.3-2.2,12.3c-0.4,1-1.4,3.5-4.6,9.8c-2.8,5.4-4.1,8.1-5.1,9.5
	c-4,5.8-8.7,8.8-12.5,11.1c-5.1,3.2-10.1,5.1-14.4,6.3c-0.8,0.2-1.6,0.7-2,1.5c-0.4,0.7-0.8,1.4-1.1,2c-4.3,9.1-0.3,19.2,1.2,22.7
	c0.1,0.1,0.1,0.2,0.2,0.3c7.6,13.2,12.9,15.8,16.5,15.6c1-0.1,1.9-0.4,3.6-0.2c5.8,0.6,9.6,6.1,10.9,7.8
	c7.6,10.4,24.2,21.6,32.2,25.5c10.7,5.3,20.6,4.9,33.4,4.4c13.4-0.5,14.3-3.2,38.3-7.3c15.5-2.7,23.4-4,34.8-3.9
	c10,0.1,13.3,1.2,30.1,2.3c9.5,0.6,17.5,0.8,23.1,0.8c1.1,0,2,0.5,2.7,1.4c2.4,3.3,6,7.2,11.3,9.6c6.1,2.8,10.3,1.7,27.5-0.8
	c23.2-3.4,24.9-2.9,39.4-5.9c4.3-0.9,9.2-3.8,16.6-3.8c5.4,0,6.4,1.3,14.1,2.3c7.3,0.9,12.7,0.6,20.1,0.2c10.5-0.6,10-1.5,19.7-2.2
	c12.1-0.8,11.3,0.7,24.8-0.1c10.5-0.6,12.8-1.6,18.7-0.2c5.8,1.3,6.3,2.9,12.5,3.8c3.8,0.5,7.5,0.4,15,0c5.6-0.3,6.3-0.5,9.6-0.6
	c8.2-0.3,14.1,0.6,17.5,1.1c16.4,2.2,18.5-1.3,38.5,0.6c14.5,1.4,17.1,3.6,28.2,2.8c5.2-0.4,7.7-1.1,15.3-1.4
	c10.4-0.4,12,0.6,19.6,0.5c15.2-0.3,17.4-4.8,29.1-4.3c9.4,0.4,15.7,3.5,20.1,5.3c11.2,4.5,29.3,7.8,59.1,2c0.9-0.2,1.7-0.8,2.2-1.5
	c0.4-0.6,1-1.2,1.7-1.7c1.1-0.7,2.3-0.7,2.7-0.8c10.8-0.6,19.1-3.8,32.5,0.3c3.8,1.1,3,1.4,6.9,2.6c3.6,1.2,13.9,4.1,36.9,0.8
	c4.2-0.6,19.9-3,31.9-2.8c2.5,0.1,6.8,0.3,9.1,3.2c2.2,2.9,1.2,6.5,3.1,7.4c1.9,0.9,4.3-1.6,6.6-3.1c2.7-1.8,6.4-3.2,20.5-2
	c13.2,1.1,16.6,2.8,25.5,3.7c5.8,0.6,14.2,0.9,24.6-0.8c0.9-0.1,1.7-0.7,2.2-1.5l0.8-1.1c0.7-1,1.8-1.6,3.1-1.5
	c6,0.5,14.5,1,24.7,0.7c15.1-0.5,20.7-2.3,30.7-2c7.9,0.2,19.3,1.7,33.2,8.1c1.1,0.5,2.4,0.4,3.4-0.4c0.8-0.6,1.7-1.3,2.8-2
	c2-1.2,5.4-3.4,10-4c1.2-0.2,10-1.3,16.5,4.6c0.6,0.6,1.2,1.1,1.6,1.7c0.7,0.9,1.8,1.3,2.9,1.2c3.1-0.4,7.3-0.8,12.3-1
	c15.7-0.6,24.5,1.5,35.7,2.8c26.8,3,24.6-3.9,49-0.9c0,0,20.7,2.6,33.6-1.9c4-1.4,4-1.4,4-1.4c4.5-1.6,5-1.9,5.8-2
	c4.2-0.7,8.2,4.2,9.4,5.6c7.1,7.6,22.9,4.9,42.7,3.4c9.8-0.7,24.2-1.5,42.4-1.1c12.6-0.5,22.8-0.3,30-0.2c13.4,0.4,20.2,1.1,32.4,0
	c7-0.6,6.7-1.1,15.9-2c6.3-0.6,15.6-1.6,27.1-1.4c7.6,0.1,17.5,0.7,29.1,2.7c0.4,0.1,0.9,0.1,1.3-0.1c3.4-0.9,7-1.7,10.9-2.3
	c14.8-2.4,28-1.8,38.7-0.2c0.1,0,0.2,0,0.3,0c8.3,0.4,16.6,0.8,24.8,1.2c1.4,0.1,2.8-0.8,3.3-2.2c0.2-0.6,0.5-1.2,0.9-1.9
	c3.5-5.5,11.7-5.7,19.6-5.7c8.3,0,19.1,0.3,31.8,1.4c1.1,0.1,2.2-0.4,2.9-1.2c1-1.2,2.3-2.6,4.1-3.7c5.2-3.2,10-1.9,13.9-2.5
	c9.1-1.3,14.4-12.6,17.4-17.8c5.4-9.3,16.5-21.6,42-33.7c1-0.5,1.8-1.4,1.9-2.6c1-6.4,1.8-14.1,1.5-22.8c-0.2-4.9-0.6-9.3-1.2-13.4
	c-0.1-0.7-0.4-1.3-0.9-1.9c-1.1-1.2-2.3-2.9-3.2-5.1c-1.8-5-0.3-9.2,1-14.5c0,0,1.2-4.6,1.3-38.3c0-0.4,0-1.2-0.4-2.2
	c-1.1-2.3-3.9-2.9-4.6-3.1c-5-1.5-8.5-14.7-9.4-24.1c-1.2-12.1,1.5-22.2,4-28.7c0.1-0.3,0.2-0.7,0.2-1c0.7-9.5,0.7-17.4,0.6-23.3
	c-0.4-14.1-1.8-17.4-4-19.6c-1.5-1.5-4.8-3.1-11.2-6.3c-3.3-1.6-5-2.5-6.9-2.9c-4.9-1.2-6.8,0.2-11.7-0.2c-6.7-0.4-6.7-3.3-12.9-4
	c-6.5-0.7-6.9,2.4-15.6,3.1c-8.1,0.7-9.5-1.9-16.6-0.9c-6.7,0.9-9.9,3.7-13.8,5.4c-12.1,5.3-25.6-2.3-35.4-6.3
	c-9.7-4-25.3-4.8-56.6-6.3c-19.2-0.9-72.2-2.1-97.4,2.8c-4,0.8-10.7,2.4-18.9,0.3c-7-1.8-8.8-4.6-16.5-6.3
	c-5.3-1.2-8.7-0.8-16.8-0.3c-8.6,0.5-17.3,0.4-25.9,0.9c-33.4,2.2-45.1-4-80.1-0.5c-21.1,2.1-22.5,4.9-34.2,3.4
	c-15.9-2.1-29.6-3.9-37.4-5.9c-0.7-0.2-2.6-0.7-5.1-0.5c-5.5,0.5-9.3,4-10,4.6c-7.4,6.3-31.9-0.1-41.5-2.2
	c-7.8-1.7-39.8-8.6-70.7,1.4c-10.9,3.5-16.5,7.5-28.2,7.3c-10.9-0.2-15.2-3.9-29.1-4.9c-11.7-0.9-12.3,1.4-25,1.5
	c-19.4,0.2-36.3-4.9-48.8-8.7c-12.8-3.9-18.2-6.8-27.9-5.6c-7,0.9-7.2,2.8-18.4,5.9c-4.8,1.3-16.7,4.6-31.2,4.3
	c-13.8-0.2-15.1-3.4-26.2-2c-8.4,1-10,3.1-19.2,4.9c-8.3,1.7-11.8,1-27.4,0.8c-23.8-0.3-25.1,1.2-47.2,0.5
	c-6.9-0.2-4.2-0.3-20.1-1.1c-31.2-1.6-35.6-1-46.6-2.5c-7.3-1-17.9-2.8-30.6-6.9c-0.9-0.3-2-0.2-2.8,0.4c-6.4,4.1-11.7,6.1-15,7.2
	c-5.2,1.7-7.3,1.4-8.8,0.9c-2.9-0.9-3.6-2.8-5.8-2.5c-1.5,0.2-1.8,1.2-5.7,4.3c-2.3,1.9-3.4,2.8-4.5,3.1c-3.8,1.1-7.6-1.7-8.2-2.2
	c-4.8-3.5-4.2-8.1-7.2-8.7c-2.1-0.4-3.1,1.8-7.9,4.6c0,0-2.6,1.5-8.2,3.4c-15.7,5.3-43.7-0.6-43.7-0.6c-10.3-2.2-24.2-6-40.1-13.1
	c-0.8-0.3-1.6-0.4-2.4-0.1c-1.6,0.5-4.1,1.4-7.2,2.5c-18.8,6.6-24.2,8.7-31.9,8.3c-3.5-0.1-2.3-0.6-7.8-1.1c-8-0.8-13.1-0.1-28,1.5
	c-17.2,2-19.8,2.2-24,2.3c-7.5,0.2-6.9-0.3-15.3-0.2c-2.6,0-15.3,0.2-32.2,2.8c-8.5,1.3-9.8,1.9-15.4,2.8c-17.2,2.7-30,0.9-40.3,0
	c-29.3-2.6-27.4,3.4-54.5,1.2C212.3,296.7,198.1,285.8,184.3,296.1z"/>
<g>
	<path d="M619.5,272.8c4.1,0,8.3,0.4,12.4,1.2c4.1,0.8,7.3,1.5,9.6,2.2c2.3,0.7,4.3,1,6.2,0.9c1.8-0.1,3.1-0.8,3.9-2.1
		c0.4-0.9,1.1-1.3,2-1.1c0.9,0.1,1.3,0.7,1.3,1.8v28.5c0,1-0.5,1.6-1.5,1.8c-0.9,0-1.5-0.4-1.8-1.3c-1.5-5.6-3.4-10.3-5.9-14.1
		c-2.4-3.8-5.2-6.7-8.2-8.6c-3-1.9-5.9-3.3-8.7-4.2c-2.8-0.9-5.9-1.4-9.3-1.5c-6.6,0-11.9,2.2-15.9,6.5c-4,4.3-6,9.8-6,16.2
		c0,4.3,1.3,8.1,3.9,11.4c2.6,3.3,5.9,6.1,10.1,8.3c4.1,2.2,8.7,4.3,13.7,6.4c5,2.1,10,4.3,15,6.9c5,2.5,9.6,5.3,13.8,8.4
		s7.6,7.1,10.2,11.9c2.6,4.9,3.9,10.5,3.9,16.8c0,10.9-5.1,20.2-15.3,27.7c-10.2,7.6-24,11.4-41.3,11.4c-16.7,0-29.8-3.2-39.4-9.6
		c-9.6-6.4-14.4-15.7-14.4-27.7c0-6.5,1.7-12,5.2-16.7c3.5-4.6,8.4-7,14.9-7c5.7,0,10.3,1.5,13.7,4.6c3.4,3.1,5.1,6.9,5.1,11.5
		c0,2.7-0.6,5.1-1.9,7.2c-1.3,2.1-2.6,3.8-4.1,5c-1.5,1.2-2.8,2.8-4,4.9c-1.2,2.1-1.8,4.5-1.8,7.3c0.1,4.4,2.4,8.4,6.7,11.9
		c4.3,3.5,10.9,5.3,19.6,5.3c8.8,0,16.1-2.6,21.9-7.8c5.7-5.2,8.6-10.6,8.6-16.2c0-3.2-0.8-6.2-2.4-9c-1.6-2.7-3.8-5.1-6.4-7.1
		c-2.7-2-5.7-3.9-9.2-5.6c-3.5-1.8-7.1-3.5-10.9-5.3c-3.8-1.8-7.7-3.6-11.5-5.4c-3.8-1.8-7.5-4-10.9-6.4c-3.5-2.4-6.5-5.1-9.2-8.1
		c-2.7-2.9-4.8-6.5-6.4-10.7c-1.6-4.2-2.4-8.8-2.4-13.8c0-4.4,0.8-8.7,2.3-12.7c1.5-4.1,4-7.9,7.4-11.6c3.4-3.7,8.3-6.6,14.7-8.8
		S610.8,272.8,619.5,272.8z"/>
	<path d="M711.2,291.1c0.3-0.9,0.9-1.3,1.8-1.1c0.9,0.1,1.3,0.7,1.3,1.8v33.8h15.3c1.2,0,1.8,0.6,1.8,1.7s-0.6,1.7-1.8,1.7h-15.3v48
		c0,11.5,2.4,17.2,7.1,17c1.8,0,3.5-0.8,5.3-2.4c1.8-1.6,3.1-3.5,4-5.5c0.3-0.7,0.8-1.1,1.5-1.1c0.6,0,1,0.3,1.3,0.8
		c0.3,0.5,0.3,1.1,0,1.7c-2.5,5.7-6.2,10.6-11.1,14.6s-10.2,6-16.1,6c-7.7,0-13.4-2.4-17.2-7.2c-3.8-4.8-5.7-12.7-5.7-23.8l0.2-34
		c0-2.7,0-4.6,0-6s-0.2-2.7-0.6-4c-0.4-1.3-0.7-2.2-0.9-2.5c-0.2-0.4-0.9-0.7-2-1.1c-1.1-0.4-2.1-0.6-3-0.6c-0.9,0-2.4,0-4.4,0
		c-1.3-0.3-2-0.9-2-1.8s0.6-1.4,1.8-1.5c6.2-1.3,13.7-5.6,22.4-12.9C703.8,305.2,709.2,298.1,711.2,291.1z"/>
	<path d="M776.2,321c1.2,0,1.8,0.6,1.8,1.8v53.9c0,7.8,1.1,14.2,3.3,19.2c2.2,5,5.8,7.5,10.8,7.5c4.7-0.1,8.5-3.2,11.3-9.3
		c2.8-6,4.2-12.7,4.2-19.9v-12.2c0-4.7-0.3-8.6-1-11.7c-0.7-3.1-1.8-5.6-3.4-7.4c-1.6-1.8-3.7-3-6.2-3.4c-1.3-0.3-2-0.9-2-1.8
		c0-1,0.6-1.5,1.8-1.5c5-0.1,9.9-0.9,14.7-2.3c4.8-1.4,9-3.1,12.5-5c3.5-1.9,6.1-3.4,7.7-4.5c1.6-1.1,2.9-2.1,4-3
		c0.3-0.3,0.7-0.4,1.1-0.4c1.2,0,1.8,0.6,1.8,1.8v56.4c0,5.5,0.4,9.9,1.3,13.3c1.2,4.1,3.2,6.5,6.2,7.1c0.3,0.1,0.9,0.2,1.9,0.1
		c1-0.1,1.5-0.1,1.7-0.1c0.9,0,1.4,0.4,1.7,1.2c0.2,0.8,0,1.4-0.8,1.9c-6.5,3.5-12.9,5.3-19.2,5.3c-10.6,0-17.8-3.3-21.7-9.9
		c-5,6.8-14,10.1-27,9.9c-10.5,0-19-2.7-25.6-8.2c-6.6-5.5-9.9-13.1-9.9-23v-14.6c0-7.1-0.8-12.4-2.4-16c-1.6-3.6-4.3-5.8-8.2-6.5
		c-1.3-0.3-2-0.9-2-1.8c0-1,0.6-1.5,1.8-1.5c6.5-0.3,13-1.7,19.5-4.2c6.5-2.5,10.9-4.6,13.4-6.2c2.4-1.6,4.5-3.1,6.1-4.4
		C775.4,321.1,775.8,321,776.2,321z"/>
	<path d="M946.5,274.3c0.6-0.4,1.2-0.5,1.8-0.2c0.6,0.3,0.9,0.8,0.9,1.5v103.5c0,5.5,0.5,9.9,1.5,13.3c1,4.1,3.1,6.5,6.2,7.1
		c0.1,0.1,0.7,0.2,1.7,0.1c1-0.1,1.6-0.1,1.9-0.1c0.7,0,1.2,0.4,1.4,1.2c0.2,0.8,0,1.4-0.8,1.9c-6.3,3.5-12.7,5.3-19,5.3
		c-10.3,0.6-17.5-2.5-21.4-9.3c-6.6,5.9-14.1,9.1-22.3,9.5h-2h-2c-6.6-0.3-12.8-2.3-18.5-6.1c-5.7-3.8-10.2-8.7-13.6-14.8
		c-3.4-6.1-5.3-12.9-5.7-20.2c-0.7-12.1,2.4-22.6,9.5-31.5c7.1-8.9,16.1-13.7,27-14.3c9.4-0.6,17.9,2.2,25.4,8.4V315
		c0-7.1-0.8-12.4-2.5-16c-1.7-3.6-4.5-5.8-8.5-6.5c-1-0.1-1.5-0.7-1.5-1.8c0-1,0.5-1.5,1.5-1.5c6.5-0.3,13-1.7,19.5-4.1
		c6.5-2.4,11-4.5,13.5-6.2C942.8,277.2,944.8,275.7,946.5,274.3z M892.1,324.1c-0.4,0-1,0.1-1.5,0.2c-4.3,1.2-6.6,5.9-7.1,14
		c-0.4,8.2,0.8,17.5,3.8,28c2.8,10.5,6.2,18.9,10.3,25.4c4.1,6.5,8.1,9.7,12,9.7c0.4,0,1-0.1,1.5-0.4c4.3-1.2,6.6-5.8,7.1-13.9
		c0.4-8.1-0.8-17.4-3.8-27.9c-2.8-10.5-6.2-19-10.3-25.5C900.1,327.2,896.1,323.9,892.1,324.1z"/>
	<path d="M1010.6,321c3.8,0,7.7,0.5,11.5,1.4c3.8,1,7.5,2.5,11.1,4.5c3.5,2.1,6.5,4.6,8.8,7.5c1.9,2.5,3.2,5.3,4,8.4
		c0.7,3.1,0.8,6.1,0.1,9c-0.7,2.9-2.3,5.4-4.9,7.5c-2.6,2.1-6,3.4-10.3,3.9l-32.3,3.8c1.5,7.1,4.4,12.8,8.8,17.2
		c4.4,4.4,9.2,7.2,14.3,8.2c5.1,1,10.1,0.6,15-1.2c4.9-1.8,8.7-5,11.4-9.6c0.1-0.1,0.2-0.3,0.2-0.4c1-2.1,2.1-2.9,3.1-2.4
		c0.7,0.4,1,1.1,0.9,2c-4.9,18.1-18.6,27.2-41.3,27.2c-6.3,0-12.4-1.1-18.1-3.4c-5.7-2.3-10.9-5.8-15.4-10.5
		c-4.5-4.7-7.6-10.2-9.4-16.6c-0.9-2.5-1.5-5.3-1.8-8.4c-0.6-6.6-0.2-12.7,1.2-18.4c1.4-5.6,3.8-10.6,7.2-15.1
		c3.4-4.5,8.1-8,14.1-10.6C995,322.3,1002.2,321,1010.6,321z M1010.4,324.3c-3.8,0-7,2.3-9.5,7c-2.5,4.6-3.9,9.9-4.1,15.7
		c-0.2,5.8,0.2,11.5,1.2,16.9c8.3-1,14.7-3.2,19.2-6.4c4.6-3.2,6.6-8.2,6-14.8c-0.3-2.9-0.7-5.5-1.2-7.5c-0.5-2.1-1.3-4-2.2-5.7
		c-1-1.8-2.2-3.1-3.8-3.9C1014.5,324.7,1012.6,324.3,1010.4,324.3z"/>
	<path d="M1099.7,320.8c0.3,0,0.6,0.1,0.9,0.2c0.4,0.3,0.7,0.8,0.7,1.5v8.2c5.3-6.3,12.6-9.5,21.9-9.5c21.5,0,33.9,10.3,37.1,31
		l3.5,31.2c0.9,6.5,2.4,11.2,4.4,14.3c2.1,3,5.2,4.9,9.5,5.6c1.3,0.1,2,0.7,2,1.5c0,1.2-0.6,1.8-1.8,1.8h-53.5c-1.3,0-2-0.6-2-1.8
		c0-0.9,0.7-1.4,2-1.5c4.3-0.7,7-2.5,8.1-5.4s1.3-7.7,0.6-14.5l-3.5-34.3c-0.9-6.6-2.7-12.1-5.3-16.5c-2.7-4.3-6.5-6.2-11.5-5.4
		c-2.5,0.3-4.5,1.2-6.1,2.7c-1.5,1.5-2.7,3.6-3.4,6.5c-0.7,2.9-1.3,6-1.5,9.3c-0.3,3.3-0.4,7.6-0.4,12.7v25c0,6.6,0.9,11.5,2.7,14.5
		c1.8,3,4.7,4.8,8.8,5.4c1.2,0.1,1.8,0.7,1.8,1.5c0,1.2-0.5,1.8-1.5,1.8H1059c-1.2,0-1.8-0.6-1.8-1.8c0-0.9,0.6-1.4,1.8-1.5
		c4.6-0.6,7.6-2.4,9.2-5.3c1.5-2.9,2.3-7.8,2.3-14.6v-21.2c0-7.4-0.7-12.7-2-16c-1.3-3.3-4.3-5.6-8.8-6.7c-1.2-0.3-1.8-0.9-1.8-1.8
		c0-1,0.6-1.6,1.8-1.8c6.3-0.1,12.7-1.5,19.2-4c6.5-2.5,11-4.6,13.5-6.2c2.5-1.6,4.6-3.1,6.2-4.4
		C1098.9,320.9,1099.2,320.8,1099.7,320.8z"/>
	<path d="M1214.2,291.1c0.3-0.9,0.9-1.3,1.8-1.1c0.9,0.1,1.3,0.7,1.3,1.8v33.8h15.3c1.2,0,1.8,0.6,1.8,1.7s-0.6,1.7-1.8,1.7h-15.3
		v48c0,11.5,2.4,17.2,7.1,17c1.8,0,3.5-0.8,5.3-2.4c1.8-1.6,3.1-3.5,4-5.5c0.3-0.7,0.8-1.1,1.5-1.1c0.6,0,1,0.3,1.3,0.8
		c0.3,0.5,0.3,1.1,0,1.7c-2.5,5.7-6.2,10.6-11.1,14.6c-4.9,4-10.2,6-16.1,6c-7.7,0-13.4-2.4-17.2-7.2c-3.8-4.8-5.7-12.7-5.7-23.8
		l0.2-34c0-2.7,0-4.6,0-6s-0.2-2.7-0.6-4c-0.4-1.3-0.7-2.2-0.9-2.5c-0.2-0.4-0.9-0.7-2-1.1c-1.1-0.4-2.1-0.6-3-0.6
		c-0.9,0-2.4,0-4.4,0c-1.3-0.3-2-0.9-2-1.8s0.6-1.4,1.8-1.5c6.2-1.3,13.7-5.6,22.4-12.9C1206.7,305.2,1212.1,298.1,1214.2,291.1z"/>
	<path d="M1246.1,267.3c2-1.2,4.2-1.8,6.6-1.8c2.4,0,4.7,0.6,6.7,1.8c2.1,1.2,3.7,2.8,4.9,4.8c1.2,2,1.8,4.2,1.8,6.7
		c0,1.6-0.1,3.2-0.3,4.8c-0.2,1.5-0.6,3.4-1.2,5.4c-0.6,2.1-1,3.7-1.3,4.9c-0.3,1.2-1,3.1-2.1,5.6c-1.1,2.6-1.8,4.2-2.1,4.9
		c-0.3,0.7-1.2,2.6-2.7,5.7c-1.5,3.2-2.3,4.9-2.4,5.2c-0.3,0.7-0.8,1.1-1.4,1.1s-1.1-0.4-1.2-1.1c-0.4-0.7-1.5-3-3.3-6.9
		c-1.8-3.8-2.9-6.4-3.4-7.8c-0.5-1.4-1.3-3.6-2.3-6.5c-1-2.9-1.7-5.6-2.1-8c-0.4-2.4-0.6-4.8-0.6-7.3c0-2.5,0.6-4.8,1.8-6.7
		C1242.6,270,1244.2,268.5,1246.1,267.3z"/>
	<path d="M476.7,454.1l3.8,36.7c0,1.2-0.6,1.8-1.7,2c-1.1,0.1-1.7-0.4-1.7-1.5l-1.5-12.6c-1.9-14.1-9.4-21.2-22.3-21.2h-31.8v67
		h15.9c4.1,0,7.7-1.3,10.7-4c3-2.7,4.5-5.7,4.5-9.3v-2.9c0-1,0.6-1.5,1.7-1.5c1.1,0,1.7,0.5,1.7,1.5v35.2c0,1.2-0.6,1.8-1.7,1.8
		c-1.1,0-1.7-0.6-1.7-1.8v-2.9c0-3.4-1.5-6.4-4.5-9c-3-2.6-6.6-3.9-10.7-3.9h-15.9v35.8c0,6.6,0.9,11.5,2.7,14.5
		c1.8,3,4.7,4.8,8.8,5.4c1.2,0.1,1.8,0.7,1.8,1.5c0,1.2-0.5,1.8-1.5,1.8h-53.9c-1.2,0-1.8-0.6-1.8-1.8c0-0.9,0.6-1.4,1.8-1.5
		c4.6-0.6,7.6-2.4,9.2-5.3c1.5-2.9,2.3-7.8,2.3-14.6v-86.2c0-6.8-0.8-11.6-2.3-14.6c-1.5-2.9-4.6-4.7-9.2-5.3
		c-1.2-0.1-1.8-0.7-1.8-1.5c0-1.2,0.6-1.8,1.8-1.8H476.7z"/>
	<path d="M533.3,501.7c0.4-0.4,1-0.6,1.7-0.3s1,0.8,1,1.7v60.6c0,4.4,0.4,8,1.1,10.7c0.7,2.7,2,4.8,3.6,6.3c1.7,1.5,3.9,2.4,6.7,2.9
		c1.2,0.1,1.8,0.7,1.8,1.5c0,1.2-0.5,1.8-1.5,1.8h-53.9c-1.2,0-1.8-0.6-1.8-1.8c0-0.9,0.6-1.4,1.8-1.5c4.6-0.6,7.6-2.4,9.2-5.3
		c1.5-2.9,2.3-7.8,2.3-14.6v-21.2c0-7.1-0.9-12.4-2.5-16c-1.7-3.6-4.5-5.8-8.3-6.5c-1.2-0.3-1.8-0.9-1.8-1.8c0-1,0.6-1.5,1.8-1.5
		c6.3-0.3,12.7-1.7,19.2-4.2c6.5-2.5,11-4.6,13.5-6.2C529.6,504.5,531.6,503,533.3,501.7z M518,454.1c4.4,0,8.5,1.7,12.3,5
		c3.8,3.3,5.6,7.6,5.6,12.9c0,5-1.7,9.3-5.2,12.8c-3.5,3.5-7.7,5.3-12.7,5.3c-4.3,0-8.3-1.7-12.2-5.1c-3.8-3.4-5.7-7.7-5.7-13
		c0-4.9,1.7-9.1,5.2-12.6C508.8,455.9,513,454.1,518,454.1z"/>
	<path d="M602.2,454.6c0.6-0.6,1.3-0.7,2-0.2c0.4,0.3,0.7,0.8,0.7,1.5v107.7c0,6.6,0.9,11.5,2.7,14.5c1.8,3,4.7,4.8,8.8,5.4
		c1.2,0.1,1.8,0.7,1.8,1.5c0,1.2-0.5,1.8-1.5,1.8h-53.9c-1.2,0-1.8-0.6-1.8-1.8c0-0.9,0.6-1.4,1.8-1.5c4.6-0.6,7.6-2.4,9.2-5.3
		c1.5-2.9,2.3-7.8,2.3-14.6v-68.3c0-7.1-0.9-12.4-2.5-16c-1.7-3.6-4.5-5.8-8.3-6.5c-1.3-0.3-2-0.9-2-1.8c0-1,0.7-1.5,2-1.5
		c6.3-0.3,12.7-1.7,19.2-4.1c6.5-2.4,11-4.5,13.5-6.2C598.6,457.4,600.6,455.9,602.2,454.6z"/>
	<path d="M672.3,501c0.3,0,0.6,0.1,0.9,0.2c0.4,0.3,0.7,0.8,0.7,1.5v8.2c5.3-6.3,12.6-9.5,21.9-9.5c16.8,0,28,6.2,33.6,18.6
		c5.3-11.6,14.8-17.8,28.5-18.6c21.4,0,33.7,10.3,36.9,31l3.8,31.2c0.7,6.5,2.1,11.2,4.2,14.3c2.1,3,5.2,4.9,9.5,5.6
		c1.3,0.1,2,0.7,2,1.5c0.1,1.2-0.4,1.8-1.8,1.8H759c-1.3,0-2-0.6-2-1.8c0-0.9,0.7-1.4,2-1.5c4.3-0.7,7-2.5,8.2-5.4
		c1.2-2.9,1.3-7.7,0.4-14.5l-3.5-34.3c-0.7-6-2.7-11.1-6-15.1c-3.2-4.1-7.4-5.8-12.6-5.2c-9.6,1.3-13.7,10.2-12.4,26.8l3.3,27.9
		c0.9,6.5,2.4,11.2,4.4,14.3c2.1,3,5.2,4.9,9.5,5.6c1.3,0.1,2,0.7,2,1.5c0,1.2-0.6,1.8-1.8,1.8h-53.5c-1.3,0-2-0.6-2-1.8
		c0-0.9,0.7-1.4,2-1.5c4.3-0.7,7-2.5,8.1-5.4c1.1-2.9,1.3-7.7,0.6-14.5l-3.5-34.3c-0.9-6.6-2.7-12.1-5.3-16.5
		c-2.7-4.3-6.5-6.2-11.5-5.4c-4.7,0.6-7.8,3.3-9.3,8.1c-1.5,4.8-2.2,12.5-2.2,23.1v25c0,6.6,0.9,11.5,2.7,14.5
		c1.8,3,4.7,4.8,8.8,5.4c1.2,0.1,1.8,0.7,1.8,1.5c0,1.2-0.5,1.8-1.5,1.8h-53.9c-1.2,0-1.8-0.6-1.8-1.8c0-0.9,0.6-1.4,1.8-1.5
		c4.6-0.6,7.6-2.4,9.2-5.3c1.5-2.9,2.3-7.8,2.3-14.6v-21.2c0-5-0.2-8.8-0.7-11.5c-0.4-2.7-1.5-5-3.1-7.1c-1.6-2.1-4-3.5-7.1-4.2
		c-1.2-0.3-1.8-0.9-1.8-1.8c0-1,0.6-1.6,1.8-1.8c6.3-0.1,12.7-1.5,19.2-4c6.5-2.5,11-4.6,13.5-6.2c2.5-1.6,4.6-3.1,6.2-4.4
		C671.5,501.1,671.9,501,672.3,501z"/>
	<path d="M947.8,453c4.1,0,8.3,0.4,12.4,1.2c4.1,0.8,7.3,1.5,9.6,2.2c2.3,0.7,4.3,1,6.2,0.9c1.8-0.1,3.1-0.8,3.9-2.1
		c0.4-0.9,1.1-1.3,2-1.1c0.9,0.1,1.3,0.7,1.3,1.8v28.5c0,1-0.5,1.6-1.5,1.8c-0.9,0-1.5-0.4-1.8-1.3c-1.5-5.6-3.4-10.3-5.9-14.1
		c-2.4-3.8-5.2-6.7-8.2-8.6c-3-1.9-5.9-3.3-8.7-4.2c-2.8-0.9-5.9-1.4-9.3-1.5c-6.6,0-11.9,2.2-15.9,6.5c-4,4.3-6,9.8-6,16.2
		c0,4.3,1.3,8.1,3.9,11.4c2.6,3.3,5.9,6.1,10.1,8.3c4.1,2.2,8.7,4.3,13.7,6.4c5,2.1,10,4.3,15,6.9c5,2.5,9.6,5.3,13.8,8.4
		c4.2,3.1,7.6,7.1,10.2,11.9c2.6,4.9,3.9,10.5,3.9,16.8c0,10.9-5.1,20.2-15.3,27.7c-10.2,7.6-24,11.4-41.3,11.4
		c-16.7,0-29.8-3.2-39.4-9.6c-9.6-6.4-14.4-15.7-14.4-27.7c0-6.5,1.7-12,5.2-16.7c3.5-4.6,8.4-7,14.9-7c5.7,0,10.3,1.5,13.7,4.6
		c3.4,3.1,5.1,6.9,5.1,11.5c0,2.7-0.6,5.1-1.9,7.2c-1.3,2.1-2.6,3.8-4.1,5c-1.5,1.2-2.8,2.8-4,4.9c-1.2,2.1-1.8,4.5-1.8,7.3
		c0.1,4.4,2.4,8.4,6.7,11.9c4.3,3.5,10.9,5.3,19.6,5.3c8.8,0,16.1-2.6,21.9-7.8c5.7-5.2,8.6-10.6,8.6-16.2c0-3.2-0.8-6.2-2.4-9
		c-1.6-2.7-3.8-5.1-6.4-7.1c-2.7-2-5.7-3.9-9.2-5.6c-3.5-1.8-7.1-3.5-10.9-5.3c-3.8-1.8-7.7-3.6-11.5-5.4c-3.8-1.8-7.5-4-10.9-6.4
		c-3.5-2.4-6.5-5.1-9.2-8.1c-2.7-2.9-4.8-6.5-6.4-10.7c-1.6-4.2-2.4-8.8-2.4-13.8c0-4.4,0.8-8.7,2.3-12.7c1.5-4.1,4-7.9,7.4-11.6
		c3.4-3.7,8.3-6.6,14.7-8.8C931.5,454.1,939.1,453,947.8,453z"/>
	<path d="M1053.5,501.2c12.1,0,22.4,4.2,30.8,12.7c8.5,8.5,12.7,18.8,12.7,30.8c0,11.9-4.2,22.1-12.7,30.6
		c-8.5,8.5-18.8,12.7-30.8,12.7c-11.9,0-22.1-4.2-30.6-12.7c-8.5-8.5-12.7-18.7-12.7-30.6c0-12.1,4.2-22.4,12.7-30.8
		C1031.3,505.5,1041.5,501.2,1053.5,501.2z M1044.9,505.9c-0.7,0-1.3,0-1.8,0c-4.3,1.2-6.6,5.9-7,14.3c-0.4,8.3,0.9,17.8,3.9,28.4
		c3.1,11.1,6.8,19.9,11.2,26.6c4.3,6.7,8.7,9.5,12.9,8.3c4.3-1.2,6.6-5.9,7-14.1c0.4-8.3-0.9-17.7-3.9-28.3
		c-2.8-10.3-6.2-18.8-10.3-25.4C1052.8,509,1048.8,505.7,1044.9,505.9z"/>
	<path d="M1158,501.2c6.3,0,12,1,17,3c5,2,8.8,4.6,11.3,7.7c2.5,3.2,4.1,6.8,4.6,10.9c0.6,4.1-0.3,8.4-2.7,12.8
		c-1.3,2.5-3.3,4.4-5.9,5.6c-2.6,1.3-5.2,1.8-7.8,1.7c-2.7-0.1-5.1-1-7.4-2.5c-2.3-1.5-3.8-3.6-4.5-6.3c-0.7-2.5-0.7-4.6,0.2-6.4
		c0.9-1.8,2-3.1,3.4-4c1.4-0.9,2.8-2.1,4.1-3.5c1.3-1.5,2-3,2-4.6c-0.1-2.9-1.3-5.5-3.5-7.7c-2.2-2.2-5.2-3.3-8.8-3.3
		c-6,0-10.8,3.8-14.4,11.5c-3.5,7.7-4.5,16.9-2.9,27.6c1.3,9.1,4.8,16.6,10.5,22.4c5.7,5.8,12,8.7,18.9,8.5c4.9,0,9.2-1.4,13.2-4.2
		c3.9-2.8,6.8-6.3,8.7-10.4c0.3-1,1-1.4,2.1-1.2c1.1,0.2,1.5,0.9,1.2,2.1c-1.5,5.5-4.3,10.3-8.5,14.5c-4.2,4.2-9.2,7.4-14.9,9.6
		c-5.7,2.2-11.8,3.3-18.1,3.3c-11.2-0.1-21.2-3.7-30-10.7c-8.8-7-13.7-16.5-14.7-28.4c-1.2-13.6,2.2-24.9,10.3-34.2
		C1129.5,505.8,1141.7,501.2,1158,501.2z"/>
	<path d="M1241.6,501.7c0.4-0.4,1-0.6,1.7-0.3s1,0.8,1,1.7v60.6c0,4.4,0.4,8,1.1,10.7c0.7,2.7,2,4.8,3.6,6.3
		c1.7,1.5,3.9,2.4,6.7,2.9c1.2,0.1,1.8,0.7,1.8,1.5c0,1.2-0.5,1.8-1.5,1.8H1202c-1.2,0-1.8-0.6-1.8-1.8c0-0.9,0.6-1.4,1.8-1.5
		c4.6-0.6,7.6-2.4,9.2-5.3c1.5-2.9,2.3-7.8,2.3-14.6v-21.2c0-7.1-0.8-12.4-2.5-16c-1.7-3.6-4.5-5.8-8.3-6.5
		c-1.2-0.3-1.8-0.9-1.8-1.8c0-1,0.6-1.5,1.8-1.5c6.3-0.3,12.7-1.7,19.2-4.2c6.5-2.5,11-4.6,13.5-6.2
		C1237.9,504.5,1240,503,1241.6,501.7z M1226.4,454.1c4.4,0,8.5,1.7,12.3,5c3.8,3.3,5.6,7.6,5.6,12.9c0,5-1.7,9.3-5.2,12.8
		c-3.5,3.5-7.7,5.3-12.7,5.3c-4.3,0-8.3-1.7-12.2-5.1c-3.8-3.4-5.7-7.7-5.7-13c0-4.9,1.7-9.1,5.2-12.6
		C1217.1,455.9,1221.3,454.1,1226.4,454.1z"/>
	<path d="M1304.8,501.2c3.8,0,7.7,0.5,11.5,1.4c3.8,1,7.5,2.5,11.1,4.5c3.5,2.1,6.5,4.6,8.8,7.5c1.9,2.5,3.2,5.3,4,8.4
		c0.7,3.1,0.8,6.1,0.1,9c-0.7,2.9-2.3,5.4-4.9,7.5c-2.6,2.1-6,3.4-10.3,3.9l-32.3,3.8c1.5,7.1,4.4,12.8,8.8,17.2
		c4.4,4.4,9.2,7.2,14.3,8.2c5.1,1,10.1,0.6,15-1.2c4.9-1.8,8.7-5,11.4-9.6c0.1-0.1,0.2-0.3,0.2-0.4c1-2.1,2.1-2.9,3.1-2.4
		c0.7,0.4,1,1.1,0.9,2c-4.9,18.1-18.6,27.2-41.3,27.2c-6.3,0-12.4-1.1-18.1-3.4c-5.7-2.3-10.9-5.8-15.4-10.5
		c-4.5-4.7-7.6-10.2-9.4-16.6c-0.9-2.5-1.5-5.3-1.8-8.4c-0.6-6.6-0.2-12.7,1.2-18.4c1.4-5.6,3.8-10.6,7.2-15.1
		c3.4-4.5,8.1-8,14.1-10.6C1289.2,502.5,1296.4,501.2,1304.8,501.2z M1304.6,504.5c-3.8,0-7,2.3-9.5,7c-2.5,4.6-3.9,9.9-4.1,15.7
		c-0.2,5.8,0.2,11.5,1.2,16.9c8.3-1,14.7-3.2,19.2-6.4c4.6-3.2,6.6-8.2,6-14.8c-0.3-2.9-0.7-5.5-1.2-7.5c-0.5-2.1-1.3-4-2.2-5.7
		c-1-1.8-2.2-3.1-3.8-3.9C1308.7,504.9,1306.8,504.5,1304.6,504.5z"/>
	<path d="M1387.5,471.4c0.3-0.9,0.9-1.2,1.8-1.1c0.9,0.1,1.3,0.7,1.3,1.8v33.8h15.3c1.2,0,1.8,0.6,1.8,1.7s-0.6,1.7-1.8,1.7h-15.3
		v48c0,11.5,2.4,17.2,7.1,17c1.8,0,3.5-0.8,5.3-2.4c1.8-1.6,3.1-3.5,4-5.5c0.3-0.7,0.8-1.1,1.5-1.1c0.6,0,1,0.3,1.3,0.8
		c0.3,0.5,0.3,1.1,0,1.7c-2.5,5.7-6.2,10.6-11.1,14.6c-4.9,4-10.2,6-16.1,6c-7.7,0-13.4-2.4-17.2-7.2c-3.8-4.8-5.7-12.7-5.7-23.8
		l0.2-34c0-2.7,0-4.6,0-6s-0.2-2.7-0.6-4c-0.4-1.3-0.7-2.2-0.9-2.5c-0.2-0.4-0.9-0.7-2-1.1c-1.1-0.4-2.1-0.6-3-0.6
		c-0.9,0-2.4,0-4.4,0c-1.3-0.3-2-0.9-2-1.8c0-0.9,0.6-1.4,1.8-1.5c6.2-1.3,13.7-5.6,22.4-12.9C1380,485.4,1385.5,478.3,1387.5,471.4
		z"/>
	<path d="M1412.7,501.2h48.6c1.8,0,2.7,0.5,2.7,1.5c0,0.9-0.7,1.5-2,1.8c-1.9,0.6-3.3,1.5-4.1,2.9c-0.8,1.3-1,3.1-0.7,5.2
		c0.4,2.1,0.8,4,1.2,5.5c0.4,1.5,1.2,3.6,2.2,6.1l16.6,37.8l15.3-39.6c4.6-11.9,3.4-17.9-3.5-17.9c-1.2-0.1-1.8-0.7-1.8-1.8
		c0.1-1,0.7-1.5,1.8-1.5h27.4c1.2,0,1.8,0.5,1.8,1.5c0,1-0.6,1.6-1.8,1.8c-5,0.1-9.1,1.7-12.2,4.5c-3.1,2.9-6,8-8.8,15.4l-32.3,83.6
		c-3.1,7.7-6.6,13-10.5,15.9c-3.9,2.9-8.5,4.6-13.8,4.9c-6.2,0.1-11.8-2.2-16.9-7c-5.1-4.8-7.3-11.1-6.5-18.9
		c0.4-4.3,2.1-7.6,5.1-9.9c2.9-2.4,6.3-3.5,10.2-3.5c3.7-0.1,6.7,0.7,9.2,2.7c2.4,1.9,3.6,4.6,3.6,8.2c0,1.5-0.5,3.3-1.4,5.4
		c-1,2.1-1.6,3.8-2,5c-0.4,1.2,0,2.9,1,5.1c2.5,2.9,5.8,3.4,9.9,1.2c4.1-2.1,7.1-5.6,9.1-10.3l1.8-4.2l-35.2-78.5
		c-1.6-3.4-2.6-5.5-3-6.2c-0.4-0.7-1-1.9-1.9-3.5c-0.9-1.6-1.7-2.9-2.3-3.8c-0.7-0.9-1.4-1.8-2.2-2.9c-0.8-1-1.6-1.8-2.4-2.3
		c-0.8-0.5-1.5-0.8-2.1-0.8c-1.3-0.1-2-0.7-2-1.8C1410.7,501.7,1411.4,501.2,1412.7,501.2z"/>
</g>
<g>
	<path d="M917.6,211.5c0,0.5,0,0.8-0.1,1.2c-0.1,0.3-0.1,0.6-0.3,0.8c-0.1,0.2-0.3,0.4-0.4,0.4c-0.2,0.1-0.4,0.1-0.6,0.1H902v40.1
		c0,0.2-0.1,0.4-0.2,0.5c-0.1,0.1-0.3,0.3-0.5,0.3c-0.3,0.1-0.6,0.2-1,0.2c-0.4,0.1-1,0.1-1.6,0.1c-0.6,0-1.2,0-1.6-0.1
		c-0.4-0.1-0.8-0.1-1.1-0.2c-0.3-0.1-0.4-0.2-0.5-0.3s-0.2-0.3-0.2-0.5v-40.1h-14.2c-0.2,0-0.4,0-0.6-0.1c-0.2-0.1-0.3-0.2-0.4-0.4
		c-0.1-0.2-0.2-0.5-0.3-0.8c-0.1-0.3-0.1-0.7-0.1-1.2c0-0.5,0-0.9,0.1-1.2c0.1-0.3,0.1-0.6,0.3-0.8s0.2-0.4,0.4-0.5
		c0.2-0.1,0.4-0.1,0.6-0.1h35.2c0.2,0,0.4,0,0.6,0.1c0.2,0.1,0.3,0.3,0.4,0.5s0.2,0.5,0.3,0.8C917.6,210.6,917.6,211,917.6,211.5z"
		/>
	<path d="M964.5,254.2c0,0.2-0.1,0.4-0.2,0.5c-0.1,0.1-0.3,0.3-0.5,0.3c-0.3,0.1-0.6,0.2-1,0.2c-0.4,0.1-1,0.1-1.6,0.1
		c-0.7,0-1.2,0-1.6-0.1c-0.4-0.1-0.8-0.1-1-0.2c-0.3-0.1-0.4-0.2-0.5-0.3s-0.2-0.3-0.2-0.5v-20.5h-23v20.5c0,0.2-0.1,0.4-0.2,0.5
		c-0.1,0.1-0.3,0.3-0.5,0.3c-0.3,0.1-0.6,0.2-1,0.2c-0.4,0.1-1,0.1-1.6,0.1c-0.6,0-1.2,0-1.6-0.1c-0.4-0.1-0.8-0.1-1.1-0.2
		c-0.3-0.1-0.4-0.2-0.5-0.3c-0.1-0.1-0.2-0.3-0.2-0.5v-44.4c0-0.2,0.1-0.4,0.2-0.5c0.1-0.1,0.3-0.3,0.5-0.3s0.6-0.2,1.1-0.2
		c0.4-0.1,1-0.1,1.6-0.1c0.7,0,1.2,0,1.6,0.1s0.8,0.1,1,0.2c0.3,0.1,0.4,0.2,0.5,0.3c0.1,0.1,0.2,0.3,0.2,0.5v18.5h23v-18.5
		c0-0.2,0.1-0.4,0.2-0.5s0.3-0.3,0.5-0.3c0.3-0.1,0.6-0.2,1-0.2s1-0.1,1.6-0.1c0.6,0,1.2,0,1.6,0.1s0.8,0.1,1,0.2
		c0.3,0.1,0.4,0.2,0.5,0.3c0.1,0.1,0.2,0.3,0.2,0.5V254.2z"/>
	<path d="M1009.3,252.5c0,0.4,0,0.8-0.1,1.1c-0.1,0.3-0.1,0.6-0.3,0.8c-0.1,0.2-0.3,0.4-0.5,0.5c-0.2,0.1-0.4,0.1-0.6,0.1h-24.3
		c-0.6,0-1.2-0.2-1.7-0.6c-0.5-0.4-0.8-1-0.8-1.9v-41.2c0-0.9,0.3-1.6,0.8-1.9c0.5-0.4,1.1-0.6,1.7-0.6h24c0.2,0,0.4,0,0.6,0.1
		c0.2,0.1,0.3,0.3,0.4,0.5s0.2,0.5,0.3,0.8c0.1,0.3,0.1,0.7,0.1,1.2c0,0.4,0,0.8-0.1,1.1c-0.1,0.3-0.2,0.6-0.3,0.8
		c-0.1,0.2-0.2,0.4-0.4,0.4c-0.2,0.1-0.4,0.1-0.6,0.1h-19.8v14.5h17c0.2,0,0.4,0.1,0.6,0.2c0.2,0.1,0.3,0.3,0.4,0.4
		c0.1,0.2,0.2,0.5,0.3,0.8c0.1,0.3,0.1,0.7,0.1,1.2c0,0.4,0,0.8-0.1,1.1c-0.1,0.3-0.1,0.6-0.3,0.8c-0.1,0.2-0.3,0.3-0.4,0.4
		s-0.4,0.1-0.6,0.1h-17V250h20.1c0.2,0,0.4,0,0.6,0.1c0.2,0.1,0.3,0.2,0.5,0.4c0.1,0.2,0.2,0.5,0.3,0.8
		C1009.3,251.7,1009.3,252.1,1009.3,252.5z"/>
</g>
<g>
	<path d="M780.3,691c0,0.1,0,0.3-0.1,0.4c-0.1,0.1-0.2,0.2-0.4,0.3c-0.2,0.1-0.4,0.1-0.7,0.2c-0.3,0-0.6,0.1-1.1,0.1
		c-0.4,0-0.8,0-1-0.1c-0.3,0-0.5-0.1-0.7-0.2c-0.2-0.1-0.3-0.2-0.4-0.3c-0.1-0.1-0.1-0.2-0.1-0.4v-41c0-0.1,0-0.2,0.1-0.4
		c0.1-0.1,0.2-0.2,0.4-0.3s0.4-0.1,0.7-0.2c0.3,0,0.6-0.1,1-0.1c0.4,0,0.8,0,1.1,0.1c0.3,0,0.5,0.1,0.7,0.2c0.2,0.1,0.3,0.2,0.4,0.3
		c0.1,0.1,0.1,0.2,0.1,0.4V691z"/>
	<path d="M800.4,691c0,0.1,0,0.3-0.1,0.4c-0.1,0.1-0.2,0.2-0.4,0.3c-0.2,0.1-0.4,0.1-0.7,0.2c-0.3,0-0.6,0.1-1.1,0.1
		c-0.4,0-0.8,0-1-0.1c-0.3,0-0.5-0.1-0.7-0.2c-0.2-0.1-0.3-0.2-0.4-0.3c-0.1-0.1-0.1-0.2-0.1-0.4v-41c0-0.1,0-0.2,0.1-0.4
		c0.1-0.1,0.2-0.2,0.4-0.3s0.4-0.1,0.7-0.2c0.3,0,0.6-0.1,1-0.1c0.4,0,0.8,0,1.1,0.1c0.3,0,0.5,0.1,0.7,0.2c0.2,0.1,0.3,0.2,0.4,0.3
		c0.1,0.1,0.1,0.2,0.1,0.4V691z"/>
	<path d="M844.2,651.1c0,0.3,0,0.5-0.1,0.8c0,0.2-0.1,0.4-0.2,0.5c-0.1,0.1-0.2,0.3-0.4,0.3c-0.1,0.1-0.3,0.1-0.5,0.1h-13.8V691
		c0,0.1,0,0.3-0.1,0.4s-0.2,0.2-0.4,0.3c-0.2,0.1-0.4,0.1-0.7,0.2c-0.3,0-0.6,0.1-1,0.1c-0.4,0-0.8,0-1-0.1c-0.3,0-0.5-0.1-0.7-0.2
		c-0.2-0.1-0.3-0.2-0.4-0.3c-0.1-0.1-0.1-0.2-0.1-0.4v-38.1h-13.8c-0.2,0-0.4,0-0.5-0.1c-0.1-0.1-0.2-0.2-0.3-0.3
		c-0.1-0.1-0.2-0.3-0.2-0.5c0-0.2-0.1-0.5-0.1-0.8c0-0.3,0-0.6,0.1-0.8c0-0.2,0.1-0.4,0.2-0.6c0.1-0.2,0.2-0.3,0.3-0.3
		c0.1-0.1,0.3-0.1,0.5-0.1h32c0.2,0,0.3,0,0.5,0.1c0.1,0.1,0.3,0.2,0.4,0.3c0.1,0.2,0.2,0.3,0.2,0.6
		C844.2,650.6,844.2,650.8,844.2,651.1z"/>
	<path d="M900.7,690.9c0,0.2,0,0.3-0.1,0.4c0,0.1-0.2,0.2-0.3,0.3s-0.4,0.1-0.7,0.2c-0.3,0-0.7,0.1-1.1,0.1c-0.4,0-0.9,0-1.3-0.1
		c-0.4,0-0.8-0.1-1-0.3c-0.2-0.1-0.4-0.3-0.6-0.5l-18.7-21.7V691c0,0.1,0,0.3-0.1,0.4c-0.1,0.1-0.2,0.2-0.4,0.3
		c-0.2,0.1-0.4,0.1-0.7,0.2c-0.3,0-0.6,0.1-1.1,0.1c-0.4,0-0.8,0-1-0.1c-0.3,0-0.5-0.1-0.7-0.2c-0.2-0.1-0.3-0.2-0.4-0.3
		c-0.1-0.1-0.1-0.2-0.1-0.4v-41c0-0.1,0-0.2,0.1-0.4c0.1-0.1,0.2-0.2,0.4-0.3s0.4-0.1,0.7-0.2c0.3,0,0.6-0.1,1-0.1
		c0.4,0,0.8,0,1.1,0.1c0.3,0,0.5,0.1,0.7,0.2s0.3,0.2,0.4,0.3c0.1,0.1,0.1,0.2,0.1,0.4v19.2l17.9-19.2c0.1-0.2,0.3-0.3,0.5-0.4
		c0.2-0.1,0.4-0.2,0.6-0.3s0.5-0.1,0.8-0.1c0.3,0,0.6,0,1.1,0c0.4,0,0.8,0,1,0.1c0.3,0,0.5,0.1,0.6,0.2s0.3,0.2,0.3,0.3
		c0,0.1,0.1,0.2,0.1,0.3c0,0.2-0.1,0.5-0.2,0.7c-0.1,0.2-0.4,0.5-0.7,0.8L882,669.1l18,20.6c0.3,0.4,0.5,0.7,0.6,0.8
		C900.7,690.7,900.7,690.8,900.7,690.9z"/>
	<path d="M944.5,690.3c0.1,0.3,0.2,0.6,0.2,0.8c0,0.2-0.1,0.4-0.2,0.5c-0.2,0.1-0.4,0.2-0.7,0.2c-0.3,0-0.7,0-1.2,0s-0.9,0-1.2,0
		c-0.3,0-0.5-0.1-0.7-0.1s-0.3-0.2-0.4-0.3c-0.1-0.1-0.2-0.2-0.2-0.4l-4.4-11.3h-20.3l-4.3,11.2c0,0.2-0.1,0.3-0.2,0.4
		c-0.1,0.1-0.2,0.2-0.4,0.3c-0.2,0.1-0.4,0.1-0.7,0.2c-0.3,0-0.7,0.1-1.1,0.1c-0.5,0-0.9,0-1.3-0.1c-0.3,0-0.6-0.1-0.7-0.2
		c-0.2-0.1-0.2-0.3-0.2-0.5c0-0.2,0.1-0.5,0.2-0.8l16.2-40.3c0.1-0.2,0.2-0.3,0.3-0.4c0.1-0.1,0.3-0.2,0.6-0.3
		c0.2-0.1,0.5-0.1,0.8-0.1c0.3,0,0.7,0,1.1,0c0.4,0,0.8,0,1.1,0c0.3,0,0.6,0.1,0.8,0.1s0.4,0.2,0.5,0.3c0.1,0.1,0.2,0.3,0.3,0.4
		L944.5,690.3z M925.3,653.6L925.3,653.6l-8.8,22.8h17.7L925.3,653.6z"/>
	<path d="M988.4,689.7c0,0.4-0.1,0.7-0.2,1s-0.3,0.5-0.5,0.6c-0.2,0.2-0.4,0.3-0.7,0.3c-0.2,0.1-0.5,0.1-0.7,0.1h-0.9
		c-0.5,0-0.9-0.1-1.3-0.2c-0.4-0.1-0.8-0.3-1.1-0.6c-0.4-0.3-0.7-0.6-1.1-1.1c-0.4-0.5-0.8-1-1.2-1.8l-16.3-26.4
		c-0.8-1.3-1.6-2.6-2.5-4c-0.8-1.4-1.6-2.7-2.3-4h0c0,1.6,0,3.2,0,4.9s0,3.3,0,4.9V691c0,0.1,0,0.3-0.1,0.4
		c-0.1,0.1-0.2,0.2-0.4,0.3c-0.2,0.1-0.4,0.1-0.7,0.2c-0.3,0-0.6,0.1-1.1,0.1c-0.4,0-0.8,0-1-0.1c-0.3,0-0.5-0.1-0.7-0.2
		c-0.2-0.1-0.3-0.2-0.4-0.3c-0.1-0.1-0.1-0.2-0.1-0.4v-39.6c0-0.8,0.2-1.3,0.7-1.6c0.5-0.3,0.9-0.4,1.3-0.4h1.8c0.6,0,1,0,1.4,0.1
		c0.4,0.1,0.7,0.2,1,0.4c0.3,0.2,0.6,0.5,0.9,0.9c0.3,0.4,0.6,0.9,1,1.5l12.5,20.2c0.8,1.3,1.5,2.5,2.2,3.6c0.7,1.2,1.4,2.3,2.1,3.4
		c0.7,1.1,1.3,2.2,2,3.3c0.7,1.1,1.3,2.2,1.9,3.3h0c0-1.8,0-3.7,0-5.7c0-2,0-3.9,0-5.7v-24.6c0-0.1,0-0.2,0.1-0.4
		c0.1-0.1,0.2-0.2,0.4-0.3c0.2-0.1,0.4-0.1,0.7-0.2c0.3,0,0.6,0,1.1,0c0.4,0,0.7,0,1,0c0.3,0,0.5,0.1,0.7,0.2
		c0.2,0.1,0.3,0.2,0.4,0.3c0.1,0.1,0.1,0.2,0.1,0.4V689.7z"/>
	<path d="M1030.8,661.4c0,2-0.4,3.8-1.1,5.4c-0.7,1.6-1.8,3-3.1,4.2c-1.4,1.2-3,2.1-5,2.7c-2,0.7-4.3,1-7.1,1h-6V691
		c0,0.1,0,0.3-0.1,0.4c-0.1,0.1-0.2,0.2-0.4,0.3c-0.2,0.1-0.4,0.1-0.7,0.2c-0.3,0-0.6,0.1-1.1,0.1c-0.4,0-0.8,0-1-0.1
		c-0.3,0-0.5-0.1-0.7-0.2c-0.2-0.1-0.3-0.2-0.4-0.3c-0.1-0.1-0.1-0.2-0.1-0.4v-39.6c0-0.8,0.2-1.3,0.7-1.6c0.5-0.3,0.9-0.4,1.3-0.4
		h9.4c0.9,0,1.8,0,2.7,0.1s1.9,0.2,3.1,0.5s2.4,0.7,3.6,1.4s2.3,1.5,3.1,2.5c0.9,1,1.5,2.1,2,3.4
		C1030.5,658.5,1030.8,659.9,1030.8,661.4z M1026.1,661.8c0-1.8-0.4-3.4-1.2-4.7s-1.7-2.2-2.9-2.8s-2.3-1-3.5-1.2
		c-1.2-0.2-2.4-0.2-3.5-0.2h-6.6v18.4h6.3c2,0,3.7-0.2,5.1-0.7s2.5-1.1,3.4-1.9c0.9-0.8,1.6-1.8,2.1-3
		C1025.9,664.4,1026.1,663.2,1026.1,661.8z"/>
	<path d="M1076.7,676c0,2.6-0.4,4.9-1.2,6.9s-1.9,3.7-3.4,5.1c-1.5,1.4-3.3,2.4-5.4,3.1c-2.1,0.7-4.4,1.1-7,1.1
		c-2.4,0-4.5-0.3-6.5-1c-2-0.7-3.7-1.7-5.2-3c-1.4-1.3-2.6-3-3.4-4.9s-1.2-4.2-1.2-6.8V650c0-0.1,0-0.2,0.1-0.4s0.2-0.2,0.4-0.3
		c0.2-0.1,0.4-0.1,0.7-0.2c0.3,0,0.6-0.1,1-0.1c0.4,0,0.8,0,1,0.1c0.3,0,0.5,0.1,0.7,0.2s0.3,0.2,0.4,0.3c0.1,0.1,0.1,0.2,0.1,0.4
		v25.9c0,2.1,0.3,4,0.8,5.6c0.6,1.6,1.4,2.9,2.4,4c1.1,1.1,2.3,1.9,3.9,2.4c1.5,0.5,3.2,0.8,5.1,0.8c1.9,0,3.7-0.3,5.2-0.8
		c1.5-0.5,2.8-1.3,3.8-2.3c1-1,1.9-2.3,2.4-3.9c0.6-1.6,0.8-3.4,0.8-5.5V650c0-0.1,0-0.2,0.1-0.4s0.2-0.2,0.4-0.3s0.4-0.1,0.7-0.2
		c0.3,0,0.6-0.1,1-0.1c0.4,0,0.8,0,1,0.1c0.3,0,0.5,0.1,0.7,0.2s0.3,0.2,0.4,0.3c0.1,0.1,0.1,0.2,0.1,0.4V676z"/>
	<path d="M1121.3,690.9c0,0.2,0,0.3-0.1,0.4c-0.1,0.1-0.2,0.2-0.3,0.3c-0.2,0.1-0.4,0.1-0.7,0.2c-0.3,0-0.7,0.1-1.1,0.1
		c-0.4,0-0.7,0-1,0c-0.3,0-0.5-0.1-0.7-0.2c-0.2-0.1-0.3-0.2-0.5-0.4c-0.1-0.2-0.2-0.4-0.3-0.6l-4.3-10.3c-0.5-1.2-1-2.2-1.6-3.3
		c-0.6-1-1.3-1.9-2.1-2.7c-0.8-0.8-1.8-1.3-2.9-1.8c-1.1-0.4-2.5-0.7-4.1-0.7h-4.8V691c0,0.1,0,0.3-0.1,0.4
		c-0.1,0.1-0.2,0.2-0.4,0.3c-0.2,0.1-0.4,0.1-0.7,0.2c-0.3,0-0.6,0.1-1.1,0.1c-0.4,0-0.8,0-1-0.1c-0.3,0-0.5-0.1-0.7-0.2
		c-0.2-0.1-0.3-0.2-0.4-0.3c-0.1-0.1-0.1-0.2-0.1-0.4v-39.6c0-0.8,0.2-1.3,0.7-1.6c0.5-0.3,0.9-0.4,1.3-0.4h8.7c1.1,0,2.1,0,2.8,0.1
		c0.8,0.1,1.4,0.1,2.1,0.2c1.8,0.3,3.3,0.7,4.6,1.4c1.3,0.6,2.4,1.4,3.3,2.3c0.9,0.9,1.5,2,1.9,3.1c0.4,1.2,0.6,2.4,0.6,3.8
		c0,1.4-0.2,2.6-0.6,3.7c-0.4,1.1-1,2.1-1.8,2.9c-0.8,0.8-1.7,1.6-2.8,2.2c-1.1,0.6-2.3,1.1-3.6,1.5c0.8,0.3,1.5,0.7,2.1,1.2
		c0.6,0.5,1.2,1.1,1.8,1.7c0.5,0.7,1,1.5,1.5,2.3c0.5,0.9,1,1.9,1.4,3l4.3,9.9c0.3,0.8,0.5,1.3,0.6,1.6
		C1121.2,690.6,1121.3,690.8,1121.3,690.9z M1113.6,660.6c0-1.8-0.4-3.3-1.3-4.6c-0.9-1.3-2.4-2.2-4.4-2.7c-0.7-0.2-1.4-0.3-2.3-0.4
		c-0.8-0.1-1.9-0.1-3.2-0.1h-5.7v15.5h6.7c1.8,0,3.3-0.2,4.6-0.6s2.4-1,3.2-1.7c0.8-0.7,1.5-1.5,1.9-2.5S1113.6,661.7,1113.6,660.6z
		"/>
</g>
</svg>
