<?xml version="1.0" encoding="utf-8"?>
<!-- Generator: Adobe Illustrator 24.3.0, SVG Export Plug-In . SVG Version: 6.00 Build 0)  -->
<svg version="1.1" id="Layer_1" xmlns="http://www.w3.org/2000/svg" xmlns:xlink="http://www.w3.org/1999/xlink" x="0px" y="0px"
	 viewBox="0 0 1444 812" style="enable-background:new 0 0 1444 812;" xml:space="preserve">
<style type="text/css">
	.st0{fill:#FBF070;}
</style>
<path class="st0" d="M135.5,330.7c-1.6,1.1-7.7,5.5-8.9,12.5c-1,6.1,2.5,7.9,1.2,15c-0.8,4.5-3,7.9-5.8,12.2
	c-3.5,5.5-4.6,5.1-6.7,8.9c-3.6,6.4-3.4,12.9-3.4,16.8c0.1,3,0.3,10.2,4.4,17.4c1.8,3.3,4.6,6.7,5.7,8c2.7,3.3,4,5,5.1,6
	c1.1,1,2.4,2.1,3.6,4.1c0.3,0.6,1,1.7,1.4,3c0.3,1.1,0.7,3.2-1.7,9.1c-0.3,0.7-1.1,2.6-3.5,7.3c-2.1,4-3.2,6-3.9,7
	c-3,4.3-6.7,6.5-9.6,8.3c-3.9,2.4-7.7,3.8-11,4.7c-0.6,0.2-1.2,0.6-1.5,1.1c-0.3,0.5-0.6,1-0.8,1.5c-3.3,6.8-0.3,14.3,0.9,16.8
	c0,0.1,0.1,0.2,0.1,0.3c5.8,9.8,9.9,11.7,12.6,11.6c0.8-0.1,1.5-0.3,2.8-0.2c4.5,0.5,7.4,4.5,8.3,5.8c5.8,7.7,18.5,16,24.6,19
	c8.2,4,15.8,3.7,25.5,3.3c10.2-0.4,11-2.3,29.4-5.4c11.8-2,17.9-3,26.6-2.9c7.6,0.1,10.2,0.9,23,1.7c7.3,0.4,13.4,0.6,17.7,0.6
	c0.8,0,1.6,0.4,2,1c1.8,2.5,4.6,5.4,8.7,7.1c4.7,2.1,7.9,1.3,21-0.6c17.7-2.5,19.1-2.1,30.2-4.4c3.3-0.7,7.1-2.9,12.7-2.8
	c4.1,0,4.9,0.9,10.8,1.7c5.6,0.7,9.7,0.5,15.4,0.2c8-0.4,7.6-1.1,15.1-1.6c9.2-0.6,8.7,0.5,19,0c8-0.4,9.8-1.2,14.3-0.2
	c4.4,1,4.8,2.2,9.6,2.8c2.9,0.4,5.8,0.3,11.5,0c4.3-0.2,4.8-0.4,7.3-0.5c6.2-0.2,10.8,0.5,13.4,0.8c12.5,1.6,14.2-1,29.5,0.5
	c11.1,1,13.1,2.6,21.6,2.1c4-0.3,5.9-0.8,11.7-1c7.9-0.3,9.2,0.5,15,0.3c11.7-0.3,13.3-3.5,22.2-3.2c7.2,0.3,12,2.6,15.4,3.9
	c8.6,3.3,22.4,5.8,45.2,1.5c0.7-0.1,1.3-0.6,1.7-1.1c0.3-0.5,0.7-0.9,1.3-1.3c0.9-0.5,1.7-0.6,2.1-0.6c8.2-0.4,14.6-2.8,24.9,0.2
	c2.9,0.8,2.3,1,5.3,1.9c2.8,0.9,10.6,3,28.2,0.6c3.2-0.5,15.2-2.2,24.4-2.1c1.9,0,5.2,0.2,7,2.4c1.7,2.1,0.9,4.8,2.4,5.5
	c1.4,0.7,3.3-1.2,5-2.3c2-1.3,4.9-2.3,15.7-1.5c10.1,0.8,12.7,2.1,19.5,2.8c4.5,0.4,10.9,0.7,18.9-0.6c0.7-0.1,1.3-0.5,1.7-1.1
	l0.6-0.8c0.5-0.8,1.4-1.2,2.3-1.1c4.6,0.4,11.1,0.8,18.9,0.6c11.6-0.3,15.8-1.7,23.5-1.5c6,0.2,14.7,1.3,25.4,6
	c0.9,0.4,1.9,0.3,2.6-0.3c0.6-0.5,1.3-1,2.2-1.5c1.5-0.9,4.1-2.5,7.7-3c0.9-0.1,7.6-1,12.6,3.4c0.5,0.4,0.9,0.8,1.2,1.2
	c0.6,0.6,1.4,1,2.2,0.9c2.4-0.3,5.6-0.6,9.4-0.7c12-0.5,18.8,1.1,27.3,2.1c20.5,2.2,18.8-2.9,37.5-0.7c0,0,15.9,1.9,25.7-1.4
	c3-1,3.1-1,3.1-1c3.5-1.2,3.8-1.4,4.5-1.5c3.2-0.5,6.3,3.1,7.2,4.1c5.4,5.6,17.5,3.6,32.7,2.5c7.5-0.6,18.5-1.1,32.4-0.8
	c9.6-0.3,17.5-0.3,22.9-0.1c10.3,0.3,15.5,0.8,24.8,0c5.3-0.5,5.1-0.8,12.2-1.5c4.8-0.5,11.9-1.2,20.8-1c5.8,0.1,13.4,0.5,22.3,2
	c0.3,0.1,0.7,0,1,0c2.6-0.7,5.4-1.2,8.3-1.7c11.3-1.8,21.4-1.3,29.6-0.1c0.1,0,0.2,0,0.2,0c6.3,0.3,12.7,0.6,19,0.9
	c1.1,0.1,2.1-0.6,2.5-1.6c0.2-0.5,0.4-0.9,0.7-1.4c2.7-4.1,9-4.3,15-4.2c6.4,0,14.6,0.2,24.4,1c0.8,0.1,1.7-0.3,2.2-0.9
	c0.7-0.9,1.8-1.9,3.1-2.7c3.9-2.4,7.6-1.4,10.7-1.8c7-0.9,11-9.3,13.3-13.2c4.1-6.9,12.6-16.1,32.1-25c0.8-0.4,1.3-1.1,1.5-1.9
	c0.8-4.8,1.3-10.5,1.1-16.9c-0.1-3.6-0.5-6.9-0.9-9.9c-0.1-0.5-0.3-1-0.7-1.4c-0.8-0.9-1.8-2.1-2.4-3.8c-1.4-3.7-0.2-6.9,0.8-10.8
	c0,0,0.9-3.4,1-28.4c0-0.3,0-0.9-0.3-1.6c-0.8-1.7-3-2.1-3.6-2.3c-3.9-1.1-6.5-10.9-7.2-17.9c-0.9-8.9,1.2-16.5,3.1-21.3
	c0.1-0.2,0.1-0.5,0.2-0.7c0.5-7,0.6-12.9,0.4-17.3c-0.3-10.5-1.4-12.9-3.1-14.6c-1.2-1.1-3.6-2.3-8.6-4.7c-2.5-1.2-3.8-1.8-5.3-2.2
	c-3.8-0.9-5.2,0.1-8.9-0.1c-5.2-0.3-5.1-2.5-9.9-3c-4.9-0.5-5.3,1.8-11.9,2.3c-6.2,0.5-7.3-1.4-12.7-0.7c-5.1,0.6-7.6,2.7-10.5,4
	c-9.3,4-19.6-1.7-27.1-4.7c-7.4-3-19.4-3.6-43.3-4.7c-14.7-0.7-55.3-1.6-74.5,2.1c-3.1,0.6-8.2,1.8-14.4,0.2
	c-5.3-1.3-6.7-3.4-12.6-4.7c-4.1-0.9-6.7-0.6-12.8-0.2c-6.6,0.4-13.2,0.3-19.8,0.7c-25.5,1.6-34.5-3-61.3-0.3
	c-16.1,1.6-17.3,3.6-26.1,2.5c-12.2-1.5-22.7-2.9-28.7-4.4c-0.5-0.1-2-0.5-3.9-0.3c-4.2,0.3-7.1,3-7.7,3.4
	c-5.7,4.7-24.4-0.1-31.8-1.6c-6-1.3-30.5-6.4-54.1,1c-8.3,2.6-12.6,5.5-21.6,5.4c-8.4-0.1-11.6-2.9-22.2-3.7
	c-8.9-0.7-9.4,1-19.1,1.1c-14.8,0.2-27.8-3.6-37.4-6.4c-9.8-2.9-13.9-5-21.3-4.1c-5.3,0.6-5.5,2.1-14.1,4.4
	c-3.7,1-12.8,3.4-23.8,3.2c-10.6-0.2-11.5-2.5-20.1-1.5c-6.4,0.8-7.6,2.3-14.7,3.7c-6.3,1.2-9,0.7-21,0.6
	c-18.2-0.2-19.2,0.9-36.1,0.3c-5.3-0.2-3.2-0.2-15.4-0.8c-23.9-1.2-27.2-0.8-35.7-1.8c-5.6-0.7-13.7-2.1-23.4-5.1
	c-0.7-0.2-1.5-0.1-2.2,0.3c-4.9,3-9,4.5-11.5,5.3c-4,1.2-5.6,1.1-6.8,0.7c-2.2-0.7-2.8-2-4.5-1.8c-1.2,0.1-1.4,0.9-4.4,3.2
	c-1.8,1.4-2.6,2.1-3.4,2.3c-2.9,0.8-5.8-1.2-6.3-1.6c-3.7-2.6-3.2-6-5.5-6.4c-1.6-0.3-2.4,1.4-6.1,3.4c0,0-2,1.1-6.3,2.5
	c-12,3.9-33.5-0.5-33.5-0.5c-7.9-1.6-18.6-4.4-30.7-9.7c-0.6-0.3-1.2-0.3-1.9-0.1c-1.2,0.4-3.1,1.1-5.5,1.9
	c-14.4,4.9-18.5,6.4-24.4,6.2c-2.7-0.1-1.8-0.4-6-0.8c-6.1-0.6-10-0.1-21.4,1.1c-13.2,1.5-15.2,1.6-18.3,1.7
	c-5.7,0.2-5.3-0.2-11.7-0.1c-2,0-11.7,0.2-24.6,2.1c-6.5,0.9-7.5,1.4-11.8,2.1c-13.2,2-22.9,0.7-30.8,0c-22.4-1.9-21,2.5-41.7,0.9
	C156.9,331.2,146,323.1,135.5,330.7z"/>
<g>
	<path d="M455.7,285.6c8.1-2.2,17.1-2.9,27.2-2.3c4,0.3,7.8,0.7,11.4,1.3c3.6,0.6,6.4,1.2,8.2,1.6c1.9,0.5,3.6,0.9,5.1,1.1
		c1.6,0.3,2.7,0.3,3.5,0c0.8-0.3,1.4-1,2-2.1c0.3-0.8,0.8-1.2,1.6-1c0.8,0.1,1.2,0.7,1.2,1.6v26.5c0,1-0.5,1.5-1.4,1.6
		c-0.8,0-1.4-0.4-1.6-1.2c-1.5-5.5-3.5-10.1-5.9-13.8c-2.4-3.7-5.1-6.4-8.1-8.2c-3-1.8-5.9-3-8.6-3.7c-2.7-0.7-5.8-1-9.3-1
		c-4.9,0-9.7,1.2-14.4,3.7c-4.7,2.5-9,6.1-13,10.8c-4,4.7-7.2,11-9.6,18.9c-2.4,7.9-3.6,16.7-3.6,26.5c0,9.8,1.1,18.7,3.4,26.5
		c2.3,7.9,5.3,14.2,9.2,18.8c3.8,4.7,8.1,8.2,12.7,10.6c4.6,2.4,9.3,3.6,14.1,3.6c7.7-0.1,14.6-2.8,20.7-8.1
		c6.1-5.3,10.2-12.2,12.4-20.9c0.3-0.8,0.9-1.2,1.7-1.1c0.9,0.1,1.3,0.6,1.3,1.5v29c0,1-0.3,1.5-1,1.6c-0.7,0.1-1.3-0.2-1.9-1
		c-1-1.4-2.6-2.1-5-2.2c-2.4-0.1-5.1,0.2-8,0.9c-3,0.7-6.9,1.4-11.8,2.3c-4.9,0.8-9.7,1.2-14.2,1.2c-6-0.1-11.6-0.8-16.7-1.9
		c-13.6-3.3-24.6-10.6-33-21.9s-12.7-24.4-12.7-39.2c0-14.4,4-27.2,12.1-38.3C431.9,296.7,442.6,289.3,455.7,285.6z"/>
	<path d="M569.5,284.8c0.5-0.5,1.2-0.6,1.9-0.2c0.4,0.3,0.6,0.8,0.6,1.4v100.2c0,6.2,0.8,10.7,2.5,13.5c1.6,2.8,4.4,4.5,8.2,5
		c1.1,0.1,1.6,0.6,1.6,1.4c0,1.1-0.5,1.6-1.4,1.6h-50.2c-1.1,0-1.6-0.5-1.6-1.6c0-0.8,0.5-1.3,1.6-1.4c4.2-0.5,7.1-2.2,8.5-4.9
		c1.4-2.7,2.2-7.3,2.2-13.6v-63.6c0-6.6-0.8-11.6-2.4-14.9c-1.6-3.4-4.1-5.4-7.7-6.1c-1.2-0.3-1.9-0.8-1.9-1.6c0-1,0.6-1.4,1.9-1.4
		c5.9-0.3,11.9-1.5,17.9-3.8c6-2.3,10.2-4.2,12.5-5.8C566,287.4,568,286,569.5,284.8z"/>
	<path d="M625.8,328.2c1.1,0,1.6,0.5,1.6,1.6V380c0,7.3,1,13.2,3.1,17.9c2.1,4.7,5.4,7,10.1,7c4.4-0.1,7.9-3,10.5-8.6
		c2.6-5.6,3.9-11.8,3.9-18.5v-11.3c0-4.4-0.3-8-0.9-10.9s-1.7-5.2-3.2-6.9c-1.5-1.7-3.4-2.8-5.8-3.2c-1.2-0.3-1.9-0.8-1.9-1.6
		c0-1,0.5-1.4,1.6-1.4c4.7-0.1,9.2-0.9,13.7-2.2c4.5-1.3,8.3-2.8,11.6-4.6c3.3-1.8,5.7-3.2,7.2-4.2c1.5-1,2.7-2,3.7-2.8
		c0.3-0.3,0.6-0.4,1-0.4c1.1,0,1.6,0.5,1.6,1.6v52.5c0,5.1,0.4,9.2,1.2,12.3c1.1,3.8,3,6,5.8,6.6c0.3,0.1,0.9,0.2,1.7,0.1
		c0.9-0.1,1.4-0.1,1.5-0.1c0.8,0,1.3,0.4,1.5,1.1c0.2,0.8,0,1.3-0.7,1.7c-6,3.3-12,4.9-17.9,4.9c-9.9,0-16.6-3.1-20.2-9.3
		c-4.7,6.3-13,9.4-25.1,9.3c-9.7,0-17.7-2.5-23.9-7.6c-6.2-5.1-9.3-12.2-9.3-21.4v-13.6c0-6.6-0.8-11.6-2.3-14.9
		c-1.5-3.4-4-5.4-7.6-6.1c-1.2-0.3-1.9-0.8-1.9-1.6c0-1,0.5-1.4,1.6-1.4c6-0.3,12.1-1.6,18.1-3.9c6-2.3,10.2-4.2,12.4-5.8
		c2.3-1.5,4.1-2.9,5.7-4.1C625.1,328.3,625.4,328.2,625.8,328.2z"/>
	<path d="M736.1,284.8c0.5-0.5,1.2-0.6,1.9-0.2c0.5,0.3,0.8,0.8,0.8,1.4v49.6c6-4.5,12.5-6.9,19.3-7.2c6.9-0.3,13,1.2,18.5,4.4
		c5.5,3.2,10.1,7.9,13.9,13.9c3.8,6,5.7,12.6,5.9,19.7c0.3,11.4-2.8,21.2-9.4,29.4c-6.5,8.2-14.8,12.7-24.8,13.4
		c-10.6,0.7-19.7-3.2-27.6-11.5l-22.4,9.9c-1.5,0.5-2.3,0.1-2.3-1.4v-83.5c0-6.6-0.8-11.6-2.3-14.9c-1.5-3.4-4.1-5.4-7.8-6.1
		c-1.1,0-1.6-0.5-1.6-1.6c0-1,0.5-1.4,1.6-1.4c4.5-0.1,9.1-0.9,13.6-2.2c4.5-1.3,8.4-2.8,11.7-4.6c3.3-1.8,5.7-3.2,7.2-4.2
		C733.9,286.5,735.1,285.6,736.1,284.8z M747.2,334.8c-2.5,0-4.5,1.2-6,3.7c-3.8,6.2-3.5,18,1,35.4c2.9,10.3,6.3,18.4,10.4,24.5
		c4,6,8.1,8.5,12,7.4c3.8-1,5.9-5.5,6.3-13.5c0.3-8-0.8-16.4-3.4-25.2c-1.6-6.3-3.6-11.9-5.8-16.7c-2.2-4.8-4.6-8.6-7.1-11.4
		C752.2,336.2,749.7,334.8,747.2,334.8z"/>
	<path d="M842.4,328.2c3.3,0,6.5,0.2,9.8,0.6c3.2,0.4,5.3,0.7,6.2,0.9c0.9,0.2,2,0.2,3.2-0.1c1.4-1,2.2-1.4,2.5-1.4
		c1,0,1.5,0.5,1.6,1.4l2.1,22.6c0,1.1-0.5,1.6-1.4,1.6c-0.8,0.1-1.4-0.3-1.6-1.4c-2.1-8.9-5.5-14.9-10.3-18.1
		c-3.2-2.1-7.1-3.1-11.9-3.1c-4.4,0-7.4,1.6-9.1,4.9c-1.6,3.3-1.5,6.7,0.4,10.1c1.1,2.1,3.4,4.1,6.9,6.1c3.5,2,7.3,3.8,11.4,5.6
		c4.1,1.7,8.2,3.6,12.1,5.7c4,2.1,7.3,4.6,10,7.7c2.7,3.1,4,6.6,4,10.6c0,8.1-3.5,14.6-10.5,19.6c-7,5-16.5,7.5-28.4,7.5
		c-10.3,0-18.2-2.5-23.8-7.6c-5.6-5.1-7.5-10.8-5.9-17.1c0.8-2.7,2.2-4.9,4.2-6.4c2-1.5,4.3-2.3,6.9-2.3c3.7,0,6.8,1.2,9.2,3.5
		c2.4,2.3,3.4,5,3,8c-0.4,2.2-1.7,4.2-4,6.1c-2.3,1.9-3.4,3.6-3.4,5.2c0.1,1.9,1.4,3.6,3.7,5.1c2.3,1.5,5.1,2.3,8.4,2.3
		c5.3,0,9.3-1.3,11.8-4c2.5-2.7,3.8-5.7,3.8-9.2c0-2.9-1-5.4-3-7.6c-2-2.2-4.5-4-7.5-5.3c-3-1.4-6.3-2.9-10-4.6
		c-3.6-1.7-7-3.4-10.2-5.1c-3.2-1.7-5.9-4.1-8.1-7.1c-2.3-3-3.6-6.5-4-10.5c-0.7-7.1,1.6-13,6.8-17.5
		C822.6,330.4,830.9,328.2,842.4,328.2z"/>
	<path d="M956.6,284.2c10,0,18.1,2.3,24.2,6.8c6.1,4.5,9.2,10.2,9.2,16.9c0,7.8-2.3,14-6.9,18.6c-4.6,4.6-10.5,7.9-17.8,9.8
		l34.1,41.3c0.4-0.7,0.7-1.7,0.9-3c0.2-1.3,0.1-3.1-0.3-5.2c-0.4-2.2-1.2-4.4-2.3-6.6c-1-1.6-2.6-3.7-5-6.1
		c-2.4-2.4-4.4-4.9-5.9-7.6c-1.5-2.7-2.3-5.9-2.3-9.6c0-4.7,1.6-8.6,4.8-11.9c3.2-3.3,7.2-4.9,11.8-4.9c3.3,0,6.2,0.8,8.7,2.3
		c2.5,1.5,4.5,3.4,5.8,5.8c1.3,2.3,2,4.9,2.2,7.6c1.6,14-3.9,27.8-16.7,41.6l10.9,13.2c1.9,2.3,3.7,4.3,5.3,5.8
		c1.6,1.5,3.2,2.7,4.6,3.5c1.4,0.8,2.7,1.4,3.8,1.6c1.1,0.3,2.4,0.5,3.9,0.8c1.1,0.1,1.6,0.6,1.6,1.4c0,1.1-0.5,1.6-1.6,1.6h-24.3
		c-9.9,0-17.6-2.3-23.2-6.8c-8.6,5.3-18.9,8-30.9,8c-5.6,0-10.9-0.6-15.9-1.9c-5-1.2-9.8-3.2-14.3-5.9c-4.5-2.7-8.1-6.5-10.8-11.5
		c-2.7-5-4-10.9-4-17.6c0-7.5,2.6-14,7.9-19.3c5.3-5.3,12-8.4,20.1-9.1l-1.4-2.1c-2.3-2.5-4.1-4.5-5.2-6c-1.2-1.5-2.5-3.5-4.1-6.1
		c-1.6-2.5-2.7-5.2-3.4-8c-0.7-2.8-1-5.9-1-9.4c0-8.5,3.3-15.3,9.9-20.5C935.6,286.7,944.8,284.2,956.6,284.2z M938.5,348.8
		c-2.3,2.3-4.3,5.5-5.9,9.5c-1.6,4-1.7,8.2-0.5,12.5c1.5,5.9,3.9,10.9,7.2,14.9c3.3,4,7,6.9,11.1,8.5s8.5,2.7,13.3,3.1
		c4.7,0.4,9.2-0.2,13.5-1.9c-0.1-0.1-0.3-0.3-0.4-0.4c-0.1-0.1-0.3-0.3-0.5-0.5c-0.2-0.2-0.3-0.4-0.3-0.5L938.5,348.8z M956.6,286.8
		c-3.2,0-5.7,1.8-7.5,5.3c-1.9,3.6-2.8,7.7-2.8,12.3c0,5.6,2.9,12,8.6,19.1l6,7.2c4.2-4.1,6.4-12.8,6.4-26.1
		C967.3,292.8,963.7,286.8,956.6,286.8z"/>
	<path d="M469.1,434.3c3.8,0,7.7,0.4,11.5,1.1c3.8,0.8,6.8,1.4,8.9,2.1c2.1,0.6,4,0.9,5.8,0.8c1.7-0.1,2.9-0.7,3.6-2
		c0.4-0.8,1-1.2,1.9-1c0.8,0.1,1.2,0.7,1.2,1.6v26.5c0,1-0.5,1.5-1.4,1.6c-0.8,0-1.4-0.4-1.6-1.2c-1.4-5.2-3.2-9.6-5.5-13.2
		c-2.3-3.6-4.8-6.2-7.6-8c-2.8-1.8-5.5-3.1-8.1-3.9c-2.6-0.8-5.5-1.3-8.6-1.4c-6.2,0-11.1,2-14.8,6.1c-3.7,4-5.6,9.1-5.6,15.1
		c0,4,1.2,7.5,3.6,10.6c2.4,3.1,5.5,5.7,9.4,7.7c3.8,2.1,8.1,4,12.8,6c4.7,1.9,9.3,4,14,6.4c4.7,2.3,8.9,4.9,12.9,7.8
		c3.9,2.9,7.1,6.6,9.5,11.1c2.4,4.5,3.6,9.7,3.6,15.6c0,10.2-4.7,18.8-14.2,25.8c-9.5,7.1-22.3,10.6-38.5,10.6
		c-15.5,0-27.7-3-36.6-8.9c-8.9-6-13.4-14.6-13.4-25.8c0-6,1.6-11.2,4.8-15.5c3.2-4.3,7.8-6.5,13.9-6.5c5.3,0,9.6,1.4,12.8,4.3
		c3.2,2.9,4.7,6.4,4.7,10.7c0,2.5-0.6,4.7-1.7,6.7c-1.2,2-2.4,3.5-3.8,4.6c-1.4,1.1-2.6,2.6-3.7,4.5c-1.1,1.9-1.6,4.2-1.6,6.8
		c0.1,4.1,2.2,7.8,6.3,11.1c4,3.3,10.1,4.9,18.2,4.9c8.2,0,15-2.4,20.4-7.3c5.3-4.9,8-9.9,8-15.1c0-3-0.8-5.8-2.3-8.3
		c-1.5-2.5-3.5-4.7-6-6.6c-2.5-1.9-5.3-3.6-8.5-5.2c-3.2-1.6-6.6-3.3-10.2-4.9c-3.6-1.6-7.1-3.3-10.7-5c-3.6-1.7-7-3.7-10.2-6
		c-3.2-2.3-6.1-4.8-8.5-7.5c-2.5-2.7-4.5-6.1-6-10c-1.5-3.9-2.3-8.2-2.3-12.9c0-4.1,0.7-8.1,2.2-11.8c1.4-3.8,3.7-7.4,6.9-10.8
		c3.2-3.4,7.7-6.2,13.7-8.2C454,435.4,461,434.3,469.1,434.3z"/>
	<path d="M571.5,479.2c11.2,0,20.8,3.9,28.7,11.8c7.9,7.9,11.8,17.5,11.8,28.7c0,11.1-3.9,20.6-11.8,28.5
		c-7.9,7.9-17.5,11.8-28.7,11.8c-11.1,0-20.6-3.9-28.5-11.8c-7.9-7.9-11.8-17.4-11.8-28.5c0-11.2,3.9-20.8,11.8-28.7
		C550.9,483.1,560.4,479.2,571.5,479.2z M563.5,483.5c-0.7,0-1.2,0-1.6,0c-4,1.1-6.1,5.5-6.5,13.3c-0.3,7.7,0.9,16.6,3.6,26.4
		c2.9,10.3,6.3,18.5,10.4,24.8c4,6.2,8.1,8.8,12,7.7c4-1.1,6.1-5.5,6.5-13.2c0.3-7.7-0.9-16.5-3.6-26.3c-2.6-9.6-5.8-17.5-9.6-23.7
		C570.9,486.4,567.2,483.4,563.5,483.5z"/>
	<path d="M672.9,479.2c5.9,0,11.2,0.9,15.8,2.8c4.7,1.9,8.2,4.3,10.5,7.2c2.3,3,3.8,6.3,4.3,10.2c0.5,3.8-0.3,7.8-2.5,11.9
		c-1.2,2.3-3.1,4.1-5.5,5.2c-2.4,1.2-4.8,1.7-7.3,1.5c-2.5-0.1-4.8-0.9-6.9-2.4c-2.1-1.4-3.5-3.4-4.2-5.9c-0.7-2.3-0.6-4.3,0.2-6
		s1.9-2.9,3.2-3.7c1.3-0.8,2.6-1.9,3.8-3.3c1.2-1.4,1.9-2.8,1.9-4.3c-0.1-2.7-1.2-5.1-3.3-7.2c-2.1-2.1-4.8-3.1-8.2-3.1
		c-5.6,0-10.1,3.6-13.4,10.7c-3.3,7.1-4.2,15.7-2.7,25.7c1.2,8.5,4.5,15.5,9.8,20.9c5.3,5.4,11.1,8.1,17.6,7.9
		c4.5,0,8.6-1.3,12.2-3.9c3.6-2.6,6.3-5.8,8.1-9.7c0.3-1,0.9-1.3,2-1.1c1,0.2,1.4,0.9,1.1,2c-1.4,5.1-4,9.6-7.9,13.5
		s-8.5,6.9-13.9,8.9c-5.3,2.1-11,3.1-16.9,3.1c-10.4-0.1-19.7-3.5-27.9-10c-8.2-6.5-12.7-15.3-13.7-26.4
		c-1.1-12.6,2.1-23.2,9.6-31.8C646.4,483.5,657.7,479.2,672.9,479.2z"/>
	<path d="M754.8,479.6c0.4-0.4,0.9-0.5,1.5-0.3s0.9,0.7,0.9,1.5v56.4c0,4.1,0.3,7.4,1,10c0.7,2.5,1.8,4.5,3.4,5.9
		c1.6,1.4,3.7,2.3,6.3,2.7c1.1,0.1,1.6,0.6,1.6,1.4c0,1.1-0.5,1.6-1.4,1.6H718c-1.1,0-1.6-0.5-1.6-1.6c0-0.8,0.5-1.3,1.6-1.4
		c4.2-0.5,7.1-2.2,8.5-4.9c1.4-2.7,2.2-7.3,2.2-13.6v-19.7c0-6.6-0.8-11.6-2.4-14.9c-1.6-3.4-4.1-5.4-7.7-6.1
		c-1.1-0.3-1.6-0.8-1.6-1.6c0-1,0.5-1.4,1.6-1.4c5.9-0.3,11.9-1.6,17.9-3.9c6-2.3,10.2-4.2,12.5-5.8
		C751.4,482.2,753.3,480.8,754.8,479.6z M740.6,435.4c4.1,0,7.9,1.5,11.4,4.6s5.2,7.1,5.2,12c0,4.7-1.6,8.6-4.8,11.9
		c-3.2,3.3-7.2,4.9-11.8,4.9c-4,0-7.7-1.6-11.3-4.7c-3.6-3.2-5.3-7.2-5.3-12.1c0-4.5,1.6-8.4,4.8-11.7
		C732,437,736,435.4,740.6,435.4z"/>
	<path d="M809.9,451.4c0.3-0.8,0.8-1.2,1.6-1c0.8,0.1,1.2,0.7,1.2,1.6v31.5H827c1.1,0,1.6,0.5,1.6,1.5s-0.5,1.5-1.6,1.5h-14.2v44.6
		c0,10.7,2.2,16,6.6,15.8c1.6,0,3.3-0.8,4.9-2.3c1.6-1.5,2.9-3.2,3.7-5.1c0.3-0.7,0.8-1,1.4-1c0.5,0,1,0.2,1.2,0.7
		c0.3,0.5,0.3,1,0,1.5c-2.3,5.3-5.8,9.9-10.3,13.6c-4.5,3.7-9.5,5.6-15,5.6c-7.1,0-12.5-2.2-16-6.7c-3.6-4.5-5.3-11.8-5.3-22.1
		l0.2-31.7c0-2.5,0-4.3,0-5.6s-0.2-2.5-0.5-3.7c-0.3-1.2-0.6-2-0.8-2.4c-0.2-0.3-0.8-0.7-1.9-1c-1-0.3-2-0.5-2.8-0.5
		c-0.8,0-2.2,0-4.1,0c-1.2-0.3-1.9-0.8-1.9-1.6s0.5-1.3,1.6-1.4c5.8-1.2,12.7-5.2,20.9-12C803,464.5,808,457.9,809.9,451.4z"/>
	<path d="M876.2,479.6c0.4-0.4,0.9-0.5,1.5-0.3s0.9,0.7,0.9,1.5v56.4c0,4.1,0.3,7.4,1,10c0.7,2.5,1.8,4.5,3.4,5.9
		c1.6,1.4,3.7,2.3,6.3,2.7c1.1,0.1,1.6,0.6,1.6,1.4c0,1.1-0.5,1.6-1.4,1.6h-50.2c-1.1,0-1.6-0.5-1.6-1.6c0-0.8,0.5-1.3,1.6-1.4
		c4.2-0.5,7.1-2.2,8.5-4.9c1.4-2.7,2.2-7.3,2.2-13.6v-19.7c0-6.6-0.8-11.6-2.4-14.9c-1.6-3.4-4.1-5.4-7.7-6.1
		c-1.1-0.3-1.6-0.8-1.6-1.6c0-1,0.5-1.4,1.6-1.4c5.9-0.3,11.9-1.6,17.9-3.9c6-2.3,10.2-4.2,12.5-5.8
		C872.8,482.2,874.7,480.8,876.2,479.6z M862,435.4c4.1,0,7.9,1.5,11.4,4.6s5.2,7.1,5.2,12c0,4.7-1.6,8.6-4.8,11.9
		c-3.2,3.3-7.2,4.9-11.8,4.9c-4,0-7.7-1.6-11.3-4.7c-3.6-3.2-5.3-7.2-5.3-12.1c0-4.5,1.6-8.4,4.8-11.7
		C853.4,437,857.3,435.4,862,435.4z"/>
	<path d="M939.1,479.2c3.6,0,7.1,0.4,10.7,1.3c3.6,0.9,7,2.3,10.3,4.2c3.3,1.9,6,4.3,8.2,7c1.8,2.3,3,4.9,3.7,7.8
		c0.7,2.9,0.7,5.7,0.1,8.3c-0.6,2.7-2.1,5-4.5,7c-2.4,2-5.6,3.2-9.6,3.6l-30,3.5c1.4,6.6,4.1,11.9,8.2,16s8.5,6.7,13.3,7.6
		c4.7,1,9.4,0.6,14-1.1c4.6-1.7,8.1-4.7,10.6-8.9c0.1-0.1,0.2-0.3,0.2-0.4c1-1.9,1.9-2.7,2.9-2.3c0.7,0.4,1,1,0.8,1.9
		c-4.5,16.9-17.4,25.3-38.5,25.3c-5.9,0-11.5-1.1-16.9-3.2c-5.3-2.1-10.1-5.4-14.3-9.8c-4.2-4.4-7.1-9.5-8.7-15.4
		c-0.8-2.3-1.4-4.9-1.6-7.8c-0.5-6.2-0.2-11.9,1.1-17.1c1.3-5.2,3.5-9.9,6.7-14.1c3.2-4.2,7.5-7.5,13.2-9.9
		C924.6,480.4,931.3,479.2,939.1,479.2z M938.9,482.3c-3.6,0-6.5,2.2-8.8,6.5c-2.3,4.3-3.6,9.2-3.8,14.6c-0.2,5.4,0.2,10.7,1.1,15.7
		c7.7-1,13.6-2.9,17.9-6c4.2-3,6.1-7.6,5.6-13.8c-0.3-2.7-0.7-5.1-1.1-7c-0.5-1.9-1.2-3.7-2.1-5.3c-0.9-1.6-2.1-2.8-3.5-3.6
		C942.7,482.6,941,482.3,938.9,482.3z"/>
	<path d="M1025.9,479.2c3.3,0,6.5,0.2,9.8,0.6c3.2,0.4,5.3,0.7,6.2,0.9c0.9,0.2,2,0.2,3.2-0.1c1.4-1,2.2-1.4,2.5-1.4
		c1,0,1.5,0.5,1.6,1.4l2.1,22.6c0,1.1-0.5,1.6-1.4,1.6c-0.8,0.1-1.4-0.3-1.6-1.4c-2.1-8.9-5.5-14.9-10.3-18.1
		c-3.2-2.1-7.1-3.1-11.9-3.1c-4.4,0-7.4,1.6-9.1,4.9c-1.6,3.3-1.5,6.7,0.4,10.1c1.1,2.1,3.4,4.1,6.9,6.1c3.5,2,7.3,3.8,11.4,5.6
		c4.1,1.7,8.2,3.6,12.1,5.7c4,2.1,7.3,4.6,10,7.7c2.7,3.1,4,6.6,4,10.6c0,8.1-3.5,14.6-10.5,19.6c-7,5-16.5,7.5-28.4,7.5
		c-10.3,0-18.2-2.5-23.8-7.6c-5.6-5.1-7.5-10.8-5.9-17.1c0.8-2.7,2.2-4.9,4.2-6.4c2-1.5,4.3-2.3,6.9-2.3c3.7,0,6.8,1.2,9.2,3.5
		c2.4,2.3,3.4,5,3,8c-0.4,2.2-1.7,4.2-4,6.1c-2.3,1.9-3.4,3.6-3.4,5.2c0.1,1.9,1.4,3.6,3.7,5.1c2.3,1.5,5.1,2.3,8.4,2.3
		c5.3,0,9.3-1.3,11.8-4c2.5-2.7,3.8-5.7,3.8-9.2c0-2.9-1-5.4-3-7.6c-2-2.2-4.5-4-7.5-5.3c-3-1.4-6.3-2.9-10-4.6
		c-3.6-1.7-7-3.4-10.2-5.1c-3.2-1.7-5.9-4.1-8.1-7.1c-2.3-3-3.6-6.5-4-10.5c-0.7-7.1,1.6-13,6.8-17.5S1014.4,479.2,1025.9,479.2z"/>
</g>
</svg>
