<?xml version="1.0" encoding="utf-8"?>
<!-- Generator: Adobe Illustrator 24.3.0, SVG Export Plug-In . SVG Version: 6.00 Build 0)  -->
<svg version="1.1" id="Layer_1" xmlns="http://www.w3.org/2000/svg" xmlns:xlink="http://www.w3.org/1999/xlink" x="0px" y="0px"
	 viewBox="0 0 1895.9 812" style="enable-background:new 0 0 1895.9 812;" xml:space="preserve">
<style type="text/css">
	.st0{fill:#FAF070;}
	.st1{display:none;}
	.st2{display:inline;}
</style>
<path class="st0" d="M304.6,296.8c-1.7,1.6-8.4,7.8-9.7,17.6c-1.1,8.6,2.7,11.1,1.3,21c-0.9,6.3-3.3,11.1-6.4,17.2
	c-3.9,7.7-5.1,7.2-7.4,12.5c-3.9,9-3.8,18.1-3.7,23.6c0.1,4.2,0.3,14.3,4.8,24.4c2,4.6,5.1,9.5,6.2,11.3c2.9,4.7,4.4,7,5.6,8.5
	c1.2,1.4,2.6,2.9,3.9,5.7c0.4,0.8,1.1,2.3,1.5,4.2c0.3,1.5,0.7,4.5-1.8,12.8c-0.3,1-1.2,3.6-3.9,10.2c-2.3,5.6-3.5,8.4-4.3,9.9
	c-3.3,6-7.4,9.1-10.5,11.6c-4.3,3.3-8.5,5.3-12.1,6.5c-0.7,0.2-1.3,0.8-1.7,1.6c-0.4,0.7-0.7,1.4-0.9,2.1c-3.6,9.5-0.3,20,1,23.7
	c0,0.1,0.1,0.2,0.1,0.4c6.4,13.8,10.9,16.5,13.9,16.3c0.8-0.1,1.6-0.4,3-0.2c4.9,0.6,8.1,6.4,9.2,8.2c6.4,10.8,20.3,22.5,27,26.6
	c9,5.6,17.3,5.2,28,4.6c11.2-0.6,12-3.3,32.2-7.6c13-2.8,19.6-4.2,29.2-4.1c8.4,0.1,11.2,1.3,25.3,2.4c8,0.6,14.7,0.8,19.4,0.8
	c0.9,0,1.7,0.5,2.2,1.5c2,3.5,5.1,7.5,9.5,10c5.1,2.9,8.7,1.8,23.1-0.9c19.5-3.6,21-3,33.2-6.1c3.6-0.9,7.8-4,13.9-4
	c4.5,0,5.4,1.3,11.8,2.4c6.1,1,10.7,0.7,16.9,0.2c8.8-0.6,8.4-1.6,16.6-2.3c10.1-0.8,9.5,0.7,20.9-0.1c8.8-0.6,10.8-1.6,15.7-0.2
	c4.9,1.4,5.3,3.1,10.5,4c3.2,0.6,6.3,0.4,12.6,0c4.7-0.3,5.3-0.5,8.1-0.6c6.9-0.3,11.9,0.7,14.7,1.1c13.8,2.3,15.6-1.3,32.4,0.6
	c12.2,1.4,14.4,3.7,23.7,2.9c4.4-0.4,6.5-1.1,12.8-1.4c8.7-0.5,10.1,0.7,16.5,0.5c12.8-0.4,14.6-5,24.4-4.5
	c7.9,0.4,13.2,3.6,16.9,5.5c9.4,4.7,24.6,8.1,49.7,2.1c0.8-0.2,1.4-0.8,1.9-1.6c0.3-0.6,0.8-1.3,1.5-1.8c1-0.7,1.9-0.8,2.3-0.8
	c9-0.6,16-3.9,27.3,0.3c3.2,1.2,2.6,1.4,5.8,2.7c3,1.2,11.7,4.3,31,0.8c3.5-0.6,16.7-3.2,26.8-2.9c2.1,0.1,5.7,0.3,7.7,3.4
	c1.9,3,1,6.7,2.6,7.7c1.6,0.9,3.7-1.6,5.5-3.2c2.2-1.9,5.3-3.3,17.3-2.1c11.1,1.1,13.9,2.9,21.4,3.9c4.9,0.6,11.9,0.9,20.7-0.9
	c0.8-0.2,1.4-0.7,1.9-1.5l0.6-1.2c0.6-1.1,1.6-1.7,2.6-1.5c5,0.6,12.2,1.1,20.8,0.8c12.7-0.5,17.4-2.4,25.8-2.1
	c6.6,0.2,16.2,1.8,27.9,8.4c1,0.5,2.1,0.4,2.9-0.4c0.7-0.6,1.5-1.3,2.4-2c1.7-1.3,4.5-3.5,8.4-4.2c1-0.2,8.4-1.3,13.9,4.8
	c0.5,0.6,1,1.2,1.4,1.7c0.6,0.9,1.5,1.4,2.4,1.2c2.6-0.4,6.2-0.8,10.3-1c13.2-0.7,20.6,1.6,30,2.9c22.5,3.1,20.7-4.1,41.2-1
	c0,0,17.4,2.7,28.2-1.9c3.3-1.4,3.4-1.4,3.4-1.4c3.8-1.7,4.2-2,4.9-2.1c3.5-0.7,6.9,4.4,7.9,5.8c5.9,7.9,19.2,5.1,35.9,3.5
	c8.3-0.8,20.4-1.5,35.6-1.1c10.6-0.5,19.2-0.4,25.2-0.2c11.3,0.4,17,1.2,27.2,0c5.9-0.7,5.6-1.1,13.3-2.1c5.3-0.7,13.1-1.6,22.8-1.4
	c6.4,0.1,14.7,0.7,24.5,2.8c0.4,0.1,0.8,0.1,1.1-0.1c2.9-0.9,5.9-1.7,9.1-2.4c12.4-2.5,23.6-1.9,32.5-0.2c0.1,0,0.2,0,0.2,0
	c7,0.4,13.9,0.9,20.9,1.3c1.2,0.1,2.3-0.8,2.8-2.2c0.2-0.6,0.4-1.3,0.8-2c2.9-5.7,9.9-6,16.5-6c7,0,16,0.3,26.8,1.4
	c0.9,0.1,1.8-0.4,2.4-1.3c0.8-1.3,1.9-2.7,3.4-3.9c4.3-3.4,8.4-2,11.7-2.6c7.7-1.3,12.1-13.1,14.6-18.5c4.5-9.7,13.9-22.6,35.3-35.1
	c0.9-0.5,1.5-1.5,1.6-2.7c0.9-6.7,1.5-14.7,1.3-23.7c-0.1-5.1-0.5-9.7-1-14c-0.1-0.7-0.3-1.4-0.7-1.9c-0.9-1.2-2-3-2.7-5.3
	c-1.5-5.2-0.2-9.6,0.9-15.1c0,0,1-4.8,1.1-39.9c0-0.4,0-1.3-0.4-2.3c-0.9-2.4-3.3-3-3.9-3.2c-4.2-1.6-7.2-15.4-7.9-25.1
	c-1-12.6,1.3-23.1,3.4-29.9c0.1-0.3,0.2-0.7,0.2-1c0.6-9.9,0.6-18.1,0.5-24.3c-0.3-14.7-1.5-18.1-3.4-20.5c-1.3-1.6-4-3.3-9.4-6.6
	c-2.8-1.7-4.2-2.6-5.8-3.1c-4.1-1.3-5.7,0.2-9.8-0.2c-5.7-0.5-5.6-3.5-10.8-4.2c-5.4-0.8-5.8,2.5-13.1,3.2c-6.8,0.7-8-1.9-14-1
	c-5.6,0.9-8.3,3.8-11.6,5.6c-10.2,5.6-21.6-2.4-29.7-6.6c-8.1-4.2-21.3-5-47.6-6.6c-16.1-1-60.7-2.2-81.9,2.9
	c-3.4,0.8-9,2.5-15.9,0.3c-5.9-1.8-7.4-4.8-13.9-6.6c-4.5-1.2-7.3-0.8-14.1-0.3c-7.3,0.5-14.5,0.4-21.8,1
	c-28.1,2.3-37.9-4.2-67.4-0.5c-17.7,2.2-19,5.1-28.7,3.5c-13.4-2.2-24.9-4-31.5-6.1c-0.6-0.2-2.2-0.7-4.3-0.5
	c-4.6,0.5-7.8,4.2-8.4,4.8c-6.2,6.6-26.8-0.1-34.9-2.3c-6.6-1.8-33.5-9-59.4,1.4c-9.2,3.7-13.9,7.8-23.7,7.6
	c-9.2-0.2-12.8-4-24.4-5.2c-9.8-1-10.3,1.5-21,1.6c-16.3,0.2-30.5-5.1-41.1-9c-10.8-4-15.3-7.1-23.4-5.8c-5.9,0.9-6.1,2.9-15.5,6.1
	c-4.1,1.4-14.1,4.8-26.2,4.5c-11.6-0.2-12.7-3.5-22-2.1c-7.1,1.1-8.4,3.2-16.1,5.2c-6.9,1.7-9.9,1-23,0.8c-20-0.3-21.1,1.2-39.7,0.5
	c-5.8-0.2-3.5-0.3-16.9-1.1c-26.3-1.6-29.9-1.1-39.2-2.6c-6.1-1-15-3-25.7-7.2c-0.8-0.3-1.7-0.2-2.4,0.4c-5.4,4.3-9.8,6.4-12.6,7.5
	c-4.4,1.7-6.1,1.5-7.4,1c-2.4-1-3.1-2.9-4.9-2.6c-1.3,0.2-1.5,1.2-4.8,4.5c-1.9,1.9-2.9,2.9-3.8,3.2c-3.2,1.1-6.4-1.8-6.9-2.3
	c-4.1-3.7-3.5-8.4-6-9c-1.8-0.4-2.6,1.9-6.7,4.8c0,0-2.2,1.6-6.9,3.5c-13.2,5.5-36.8-0.6-36.8-0.6c-8.7-2.3-20.4-6.2-33.8-13.6
	c-0.6-0.4-1.4-0.4-2-0.1c-1.3,0.6-3.5,1.5-6,2.6c-15.8,6.9-20.3,9-26.8,8.7c-2.9-0.1-1.9-0.6-6.5-1.1c-6.7-0.8-11-0.1-23.5,1.6
	c-14.5,2-16.7,2.3-20.1,2.4c-6.3,0.2-5.8-0.3-12.8-0.2c-2.2,0-12.8,0.3-27.1,2.9c-7.1,1.3-8.2,2-13,2.9c-14.5,2.8-25.2,0.9-33.9,0
	c-24.7-2.7-23.1,3.5-45.8,1.3C328.1,297.5,316.2,286.1,304.6,296.8z"/>
<g class="st1">
	<path class="st2" d="M917.6,211.5c0,0.5,0,0.8-0.1,1.2c-0.1,0.3-0.1,0.6-0.3,0.8c-0.1,0.2-0.3,0.4-0.4,0.4
		c-0.2,0.1-0.4,0.1-0.6,0.1H902v40.1c0,0.2-0.1,0.4-0.2,0.5c-0.1,0.1-0.3,0.3-0.5,0.3c-0.3,0.1-0.6,0.2-1,0.2
		c-0.4,0.1-1,0.1-1.6,0.1c-0.6,0-1.2,0-1.6-0.1c-0.4-0.1-0.8-0.1-1.1-0.2c-0.3-0.1-0.4-0.2-0.5-0.3s-0.2-0.3-0.2-0.5v-40.1h-14.2
		c-0.2,0-0.4,0-0.6-0.1c-0.2-0.1-0.3-0.2-0.4-0.4c-0.1-0.2-0.2-0.5-0.3-0.8c-0.1-0.3-0.1-0.7-0.1-1.2c0-0.5,0-0.9,0.1-1.2
		c0.1-0.3,0.1-0.6,0.3-0.8s0.2-0.4,0.4-0.5c0.2-0.1,0.4-0.1,0.6-0.1h35.2c0.2,0,0.4,0,0.6,0.1c0.2,0.1,0.3,0.3,0.4,0.5
		s0.2,0.5,0.3,0.8C917.6,210.6,917.6,211,917.6,211.5z"/>
	<path class="st2" d="M964.5,254.2c0,0.2-0.1,0.4-0.2,0.5c-0.1,0.1-0.3,0.3-0.5,0.3c-0.3,0.1-0.6,0.2-1,0.2c-0.4,0.1-1,0.1-1.6,0.1
		c-0.7,0-1.2,0-1.6-0.1c-0.4-0.1-0.8-0.1-1-0.2c-0.3-0.1-0.4-0.2-0.5-0.3s-0.2-0.3-0.2-0.5v-20.5h-23v20.5c0,0.2-0.1,0.4-0.2,0.5
		c-0.1,0.1-0.3,0.3-0.5,0.3c-0.3,0.1-0.6,0.2-1,0.2c-0.4,0.1-1,0.1-1.6,0.1c-0.6,0-1.2,0-1.6-0.1c-0.4-0.1-0.8-0.1-1.1-0.2
		c-0.3-0.1-0.4-0.2-0.5-0.3c-0.1-0.1-0.2-0.3-0.2-0.5v-44.4c0-0.2,0.1-0.4,0.2-0.5c0.1-0.1,0.3-0.3,0.5-0.3s0.6-0.2,1.1-0.2
		c0.4-0.1,1-0.1,1.6-0.1c0.7,0,1.2,0,1.6,0.1s0.8,0.1,1,0.2c0.3,0.1,0.4,0.2,0.5,0.3c0.1,0.1,0.2,0.3,0.2,0.5v18.5h23v-18.5
		c0-0.2,0.1-0.4,0.2-0.5s0.3-0.3,0.5-0.3c0.3-0.1,0.6-0.2,1-0.2s1-0.1,1.6-0.1c0.6,0,1.2,0,1.6,0.1s0.8,0.1,1,0.2
		c0.3,0.1,0.4,0.2,0.5,0.3c0.1,0.1,0.2,0.3,0.2,0.5V254.2z"/>
	<path class="st2" d="M1009.3,252.5c0,0.4,0,0.8-0.1,1.1c-0.1,0.3-0.1,0.6-0.3,0.8c-0.1,0.2-0.3,0.4-0.5,0.5
		c-0.2,0.1-0.4,0.1-0.6,0.1h-24.3c-0.6,0-1.2-0.2-1.7-0.6c-0.5-0.4-0.8-1-0.8-1.9v-41.2c0-0.9,0.3-1.6,0.8-1.9
		c0.5-0.4,1.1-0.6,1.7-0.6h24c0.2,0,0.4,0,0.6,0.1c0.2,0.1,0.3,0.3,0.4,0.5s0.2,0.5,0.3,0.8c0.1,0.3,0.1,0.7,0.1,1.2
		c0,0.4,0,0.8-0.1,1.1c-0.1,0.3-0.2,0.6-0.3,0.8c-0.1,0.2-0.2,0.4-0.4,0.4c-0.2,0.1-0.4,0.1-0.6,0.1h-19.8v14.5h17
		c0.2,0,0.4,0.1,0.6,0.2c0.2,0.1,0.3,0.3,0.4,0.4c0.1,0.2,0.2,0.5,0.3,0.8c0.1,0.3,0.1,0.7,0.1,1.2c0,0.4,0,0.8-0.1,1.1
		c-0.1,0.3-0.1,0.6-0.3,0.8c-0.1,0.2-0.3,0.3-0.4,0.4s-0.4,0.1-0.6,0.1h-17V250h20.1c0.2,0,0.4,0,0.6,0.1c0.2,0.1,0.3,0.2,0.5,0.4
		c0.1,0.2,0.2,0.5,0.3,0.8C1009.3,251.7,1009.3,252.1,1009.3,252.5z"/>
</g>
<g class="st1">
	<path class="st2" d="M780.3,671c0,0.1,0,0.3-0.1,0.4c-0.1,0.1-0.2,0.2-0.4,0.3c-0.2,0.1-0.4,0.1-0.7,0.2c-0.3,0-0.6,0.1-1.1,0.1
		c-0.4,0-0.8,0-1-0.1c-0.3,0-0.5-0.1-0.7-0.2c-0.2-0.1-0.3-0.2-0.4-0.3c-0.1-0.1-0.1-0.2-0.1-0.4v-41c0-0.1,0-0.2,0.1-0.4
		c0.1-0.1,0.2-0.2,0.4-0.3s0.4-0.1,0.7-0.2c0.3,0,0.6-0.1,1-0.1c0.4,0,0.8,0,1.1,0.1c0.3,0,0.5,0.1,0.7,0.2c0.2,0.1,0.3,0.2,0.4,0.3
		c0.1,0.1,0.1,0.2,0.1,0.4V671z"/>
	<path class="st2" d="M800.4,671c0,0.1,0,0.3-0.1,0.4c-0.1,0.1-0.2,0.2-0.4,0.3c-0.2,0.1-0.4,0.1-0.7,0.2c-0.3,0-0.6,0.1-1.1,0.1
		c-0.4,0-0.8,0-1-0.1c-0.3,0-0.5-0.1-0.7-0.2c-0.2-0.1-0.3-0.2-0.4-0.3c-0.1-0.1-0.1-0.2-0.1-0.4v-41c0-0.1,0-0.2,0.1-0.4
		c0.1-0.1,0.2-0.2,0.4-0.3s0.4-0.1,0.7-0.2c0.3,0,0.6-0.1,1-0.1c0.4,0,0.8,0,1.1,0.1c0.3,0,0.5,0.1,0.7,0.2c0.2,0.1,0.3,0.2,0.4,0.3
		c0.1,0.1,0.1,0.2,0.1,0.4V671z"/>
	<path class="st2" d="M844.2,631.1c0,0.3,0,0.5-0.1,0.8c0,0.2-0.1,0.4-0.2,0.5c-0.1,0.1-0.2,0.3-0.4,0.3c-0.1,0.1-0.3,0.1-0.5,0.1
		h-13.8V671c0,0.1,0,0.3-0.1,0.4s-0.2,0.2-0.4,0.3c-0.2,0.1-0.4,0.1-0.7,0.2c-0.3,0-0.6,0.1-1,0.1c-0.4,0-0.8,0-1-0.1
		c-0.3,0-0.5-0.1-0.7-0.2c-0.2-0.1-0.3-0.2-0.4-0.3c-0.1-0.1-0.1-0.2-0.1-0.4v-38.1h-13.8c-0.2,0-0.4,0-0.5-0.1
		c-0.1-0.1-0.2-0.2-0.3-0.3c-0.1-0.1-0.2-0.3-0.2-0.5c0-0.2-0.1-0.5-0.1-0.8c0-0.3,0-0.6,0.1-0.8c0-0.2,0.1-0.4,0.2-0.6
		c0.1-0.2,0.2-0.3,0.3-0.3c0.1-0.1,0.3-0.1,0.5-0.1h32c0.2,0,0.3,0,0.5,0.1c0.1,0.1,0.3,0.2,0.4,0.3c0.1,0.2,0.2,0.3,0.2,0.6
		C844.2,630.6,844.2,630.8,844.2,631.1z"/>
	<path class="st2" d="M900.7,670.9c0,0.2,0,0.3-0.1,0.4c0,0.1-0.2,0.2-0.3,0.3s-0.4,0.1-0.7,0.2c-0.3,0-0.7,0.1-1.1,0.1
		c-0.4,0-0.9,0-1.3-0.1c-0.4,0-0.8-0.1-1-0.3c-0.2-0.1-0.4-0.3-0.6-0.5l-18.7-21.7V671c0,0.1,0,0.3-0.1,0.4
		c-0.1,0.1-0.2,0.2-0.4,0.3c-0.2,0.1-0.4,0.1-0.7,0.2c-0.3,0-0.6,0.1-1.1,0.1c-0.4,0-0.8,0-1-0.1c-0.3,0-0.5-0.1-0.7-0.2
		c-0.2-0.1-0.3-0.2-0.4-0.3c-0.1-0.1-0.1-0.2-0.1-0.4v-41c0-0.1,0-0.2,0.1-0.4c0.1-0.1,0.2-0.2,0.4-0.3s0.4-0.1,0.7-0.2
		c0.3,0,0.6-0.1,1-0.1c0.4,0,0.8,0,1.1,0.1c0.3,0,0.5,0.1,0.7,0.2s0.3,0.2,0.4,0.3c0.1,0.1,0.1,0.2,0.1,0.4v19.2l17.9-19.2
		c0.1-0.2,0.3-0.3,0.5-0.4c0.2-0.1,0.4-0.2,0.6-0.3s0.5-0.1,0.8-0.1c0.3,0,0.6,0,1.1,0c0.4,0,0.8,0,1,0.1c0.3,0,0.5,0.1,0.6,0.2
		s0.3,0.2,0.3,0.3c0,0.1,0.1,0.2,0.1,0.3c0,0.2-0.1,0.5-0.2,0.7c-0.1,0.2-0.4,0.5-0.7,0.8L882,649.1l18,20.6
		c0.3,0.4,0.5,0.7,0.6,0.8C900.7,670.7,900.7,670.8,900.7,670.9z"/>
	<path class="st2" d="M944.5,670.3c0.1,0.3,0.2,0.6,0.2,0.8c0,0.2-0.1,0.4-0.2,0.5c-0.2,0.1-0.4,0.2-0.7,0.2c-0.3,0-0.7,0-1.2,0
		s-0.9,0-1.2,0c-0.3,0-0.5-0.1-0.7-0.1s-0.3-0.2-0.4-0.3c-0.1-0.1-0.2-0.2-0.2-0.4l-4.4-11.3h-20.3l-4.3,11.2c0,0.2-0.1,0.3-0.2,0.4
		c-0.1,0.1-0.2,0.2-0.4,0.3c-0.2,0.1-0.4,0.1-0.7,0.2c-0.3,0-0.7,0.1-1.1,0.1c-0.5,0-0.9,0-1.3-0.1c-0.3,0-0.6-0.1-0.7-0.2
		c-0.2-0.1-0.2-0.3-0.2-0.5c0-0.2,0.1-0.5,0.2-0.8l16.2-40.3c0.1-0.2,0.2-0.3,0.3-0.4c0.1-0.1,0.3-0.2,0.6-0.3
		c0.2-0.1,0.5-0.1,0.8-0.1c0.3,0,0.7,0,1.1,0c0.4,0,0.8,0,1.1,0c0.3,0,0.6,0.1,0.8,0.1s0.4,0.2,0.5,0.3c0.1,0.1,0.2,0.3,0.3,0.4
		L944.5,670.3z M925.3,633.6L925.3,633.6l-8.8,22.8h17.7L925.3,633.6z"/>
	<path class="st2" d="M988.4,669.7c0,0.4-0.1,0.7-0.2,1s-0.3,0.5-0.5,0.6c-0.2,0.2-0.4,0.3-0.7,0.3c-0.2,0.1-0.5,0.1-0.7,0.1h-0.9
		c-0.5,0-0.9-0.1-1.3-0.2c-0.4-0.1-0.8-0.3-1.1-0.6c-0.4-0.3-0.7-0.6-1.1-1.1c-0.4-0.5-0.8-1-1.2-1.8l-16.3-26.4
		c-0.8-1.3-1.6-2.6-2.5-4c-0.8-1.4-1.6-2.7-2.3-4h0c0,1.6,0,3.2,0,4.9s0,3.3,0,4.9V671c0,0.1,0,0.3-0.1,0.4
		c-0.1,0.1-0.2,0.2-0.4,0.3c-0.2,0.1-0.4,0.1-0.7,0.2c-0.3,0-0.6,0.1-1.1,0.1c-0.4,0-0.8,0-1-0.1c-0.3,0-0.5-0.1-0.7-0.2
		c-0.2-0.1-0.3-0.2-0.4-0.3c-0.1-0.1-0.1-0.2-0.1-0.4v-39.6c0-0.8,0.2-1.3,0.7-1.6c0.5-0.3,0.9-0.4,1.3-0.4h1.8c0.6,0,1,0,1.4,0.1
		c0.4,0.1,0.7,0.2,1,0.4c0.3,0.2,0.6,0.5,0.9,0.9c0.3,0.4,0.6,0.9,1,1.5l12.5,20.2c0.8,1.3,1.5,2.5,2.2,3.6c0.7,1.2,1.4,2.3,2.1,3.4
		c0.7,1.1,1.3,2.2,2,3.3c0.7,1.1,1.3,2.2,1.9,3.3h0c0-1.8,0-3.7,0-5.7c0-2,0-3.9,0-5.7v-24.6c0-0.1,0-0.2,0.1-0.4
		c0.1-0.1,0.2-0.2,0.4-0.3c0.2-0.1,0.4-0.1,0.7-0.2c0.3,0,0.6,0,1.1,0c0.4,0,0.7,0,1,0c0.3,0,0.5,0.1,0.7,0.2
		c0.2,0.1,0.3,0.2,0.4,0.3c0.1,0.1,0.1,0.2,0.1,0.4V669.7z"/>
	<path class="st2" d="M1030.8,641.4c0,2-0.4,3.8-1.1,5.4c-0.7,1.6-1.8,3-3.1,4.2c-1.4,1.2-3,2.1-5,2.7c-2,0.7-4.3,1-7.1,1h-6V671
		c0,0.1,0,0.3-0.1,0.4c-0.1,0.1-0.2,0.2-0.4,0.3c-0.2,0.1-0.4,0.1-0.7,0.2c-0.3,0-0.6,0.1-1.1,0.1c-0.4,0-0.8,0-1-0.1
		c-0.3,0-0.5-0.1-0.7-0.2c-0.2-0.1-0.3-0.2-0.4-0.3c-0.1-0.1-0.1-0.2-0.1-0.4v-39.6c0-0.8,0.2-1.3,0.7-1.6c0.5-0.3,0.9-0.4,1.3-0.4
		h9.4c0.9,0,1.8,0,2.7,0.1s1.9,0.2,3.1,0.5s2.4,0.7,3.6,1.4s2.3,1.5,3.1,2.5c0.9,1,1.5,2.1,2,3.4
		C1030.5,638.5,1030.8,639.9,1030.8,641.4z M1026.1,641.8c0-1.8-0.4-3.4-1.2-4.7s-1.7-2.2-2.9-2.8s-2.3-1-3.5-1.2
		c-1.2-0.2-2.4-0.2-3.5-0.2h-6.6v18.4h6.3c2,0,3.7-0.2,5.1-0.7s2.5-1.1,3.4-1.9c0.9-0.8,1.6-1.8,2.1-3
		C1025.9,644.4,1026.1,643.2,1026.1,641.8z"/>
	<path class="st2" d="M1076.7,656c0,2.6-0.4,4.9-1.2,6.9s-1.9,3.7-3.4,5.1c-1.5,1.4-3.3,2.4-5.4,3.1c-2.1,0.7-4.4,1.1-7,1.1
		c-2.4,0-4.5-0.3-6.5-1c-2-0.7-3.7-1.7-5.2-3c-1.4-1.3-2.6-3-3.4-4.9s-1.2-4.2-1.2-6.8V630c0-0.1,0-0.2,0.1-0.4s0.2-0.2,0.4-0.3
		c0.2-0.1,0.4-0.1,0.7-0.2c0.3,0,0.6-0.1,1-0.1c0.4,0,0.8,0,1,0.1c0.3,0,0.5,0.1,0.7,0.2s0.3,0.2,0.4,0.3c0.1,0.1,0.1,0.2,0.1,0.4
		v25.9c0,2.1,0.3,4,0.8,5.6c0.6,1.6,1.4,2.9,2.4,4c1.1,1.1,2.3,1.9,3.9,2.4c1.5,0.5,3.2,0.8,5.1,0.8c1.9,0,3.7-0.3,5.2-0.8
		c1.5-0.5,2.8-1.3,3.8-2.3c1-1,1.9-2.3,2.4-3.9c0.6-1.6,0.8-3.4,0.8-5.5V630c0-0.1,0-0.2,0.1-0.4s0.2-0.2,0.4-0.3s0.4-0.1,0.7-0.2
		c0.3,0,0.6-0.1,1-0.1c0.4,0,0.8,0,1,0.1c0.3,0,0.5,0.1,0.7,0.2s0.3,0.2,0.4,0.3c0.1,0.1,0.1,0.2,0.1,0.4V656z"/>
	<path class="st2" d="M1121.3,670.9c0,0.2,0,0.3-0.1,0.4c-0.1,0.1-0.2,0.2-0.3,0.3c-0.2,0.1-0.4,0.1-0.7,0.2c-0.3,0-0.7,0.1-1.1,0.1
		c-0.4,0-0.7,0-1,0c-0.3,0-0.5-0.1-0.7-0.2c-0.2-0.1-0.3-0.2-0.5-0.4c-0.1-0.2-0.2-0.4-0.3-0.6l-4.3-10.3c-0.5-1.2-1-2.2-1.6-3.3
		c-0.6-1-1.3-1.9-2.1-2.7c-0.8-0.8-1.8-1.3-2.9-1.8c-1.1-0.4-2.5-0.7-4.1-0.7h-4.8V671c0,0.1,0,0.3-0.1,0.4
		c-0.1,0.1-0.2,0.2-0.4,0.3c-0.2,0.1-0.4,0.1-0.7,0.2c-0.3,0-0.6,0.1-1.1,0.1c-0.4,0-0.8,0-1-0.1c-0.3,0-0.5-0.1-0.7-0.2
		c-0.2-0.1-0.3-0.2-0.4-0.3c-0.1-0.1-0.1-0.2-0.1-0.4v-39.6c0-0.8,0.2-1.3,0.7-1.6c0.5-0.3,0.9-0.4,1.3-0.4h8.7c1.1,0,2.1,0,2.8,0.1
		c0.8,0.1,1.4,0.1,2.1,0.2c1.8,0.3,3.3,0.7,4.6,1.4c1.3,0.6,2.4,1.4,3.3,2.3c0.9,0.9,1.5,2,1.9,3.1c0.4,1.2,0.6,2.4,0.6,3.8
		c0,1.4-0.2,2.6-0.6,3.7c-0.4,1.1-1,2.1-1.8,2.9c-0.8,0.8-1.7,1.6-2.8,2.2c-1.1,0.6-2.3,1.1-3.6,1.5c0.8,0.3,1.5,0.7,2.1,1.2
		c0.6,0.5,1.2,1.1,1.8,1.7c0.5,0.7,1,1.5,1.5,2.3c0.5,0.9,1,1.9,1.4,3l4.3,9.9c0.3,0.8,0.5,1.3,0.6,1.6
		C1121.2,670.6,1121.3,670.8,1121.3,670.9z M1113.6,640.6c0-1.8-0.4-3.3-1.3-4.6c-0.9-1.3-2.4-2.2-4.4-2.7c-0.7-0.2-1.4-0.3-2.3-0.4
		c-0.8-0.1-1.9-0.1-3.2-0.1h-5.7v15.5h6.7c1.8,0,3.3-0.2,4.6-0.6s2.4-1,3.2-1.7c0.8-0.7,1.5-1.5,1.9-2.5S1113.6,641.7,1113.6,640.6z
		"/>
</g>
<g>
	<path d="M635.9,266.1c8.3-2.2,17.5-3,27.7-2.3c4.1,0.3,7.9,0.7,11.7,1.4c3.7,0.6,6.5,1.2,8.4,1.7c1.9,0.5,3.6,0.9,5.2,1.2
		c1.6,0.3,2.8,0.3,3.6,0c0.8-0.3,1.4-1,2-2.1c0.3-0.8,0.8-1.2,1.7-1c0.8,0.1,1.3,0.7,1.3,1.7v27.1c0,1-0.5,1.5-1.5,1.7
		c-0.8,0-1.4-0.4-1.7-1.3c-1.5-5.6-3.5-10.3-6-14.1c-2.5-3.8-5.2-6.6-8.3-8.4c-3.1-1.8-6-3.1-8.8-3.8c-2.8-0.7-6-1-9.5-1
		c-5,0-9.9,1.3-14.7,3.8c-4.8,2.5-9.2,6.2-13.2,11c-4.1,4.8-7.3,11.3-9.8,19.3c-2.5,8.1-3.7,17.1-3.7,27.1c0,10,1.2,19,3.5,27.1
		c2.3,8.1,5.4,14.5,9.3,19.2c3.9,4.8,8.2,8.4,12.9,10.8c4.7,2.5,9.5,3.7,14.4,3.7c7.8-0.1,14.9-2.9,21.1-8.3
		c6.2-5.4,10.5-12.5,12.7-21.3c0.3-0.8,0.9-1.2,1.8-1.2c0.9,0.1,1.4,0.6,1.4,1.6v29.6c0,1-0.4,1.5-1.1,1.7c-0.7,0.1-1.3-0.2-1.9-1
		c-1-1.4-2.7-2.1-5.1-2.2c-2.5-0.1-5.2,0.2-8.2,0.9c-3,0.7-7,1.5-12.1,2.3s-9.9,1.3-14.5,1.3c-6.2-0.1-11.8-0.8-17-1.9
		c-13.9-3.4-25.1-10.8-33.7-22.4c-8.6-11.5-12.9-24.9-12.9-40c0-14.7,4.1-27.7,12.4-39.1C611.6,277.5,622.5,269.9,635.9,266.1z"/>
	<path d="M755.6,265.3c0.6-0.6,1.2-0.6,1.9-0.2c0.4,0.3,0.6,0.8,0.6,1.5v102.3c0,6.3,0.8,10.9,2.5,13.8c1.7,2.9,4.5,4.6,8.4,5.1
		c1.1,0.1,1.7,0.6,1.7,1.5c0,1.1-0.5,1.7-1.5,1.7H718c-1.1,0-1.7-0.6-1.7-1.7c0-0.8,0.6-1.3,1.7-1.5c4.3-0.6,7.2-2.2,8.7-5
		c1.5-2.8,2.2-7.4,2.2-13.9v-64.9c0-6.7-0.8-11.8-2.4-15.2c-1.6-3.4-4.2-5.5-7.9-6.2c-1.3-0.3-1.9-0.8-1.9-1.7c0-1,0.6-1.5,1.9-1.5
		c6-0.3,12.1-1.6,18.3-3.9c6.2-2.3,10.4-4.3,12.8-5.9C752.1,268,754.1,266.5,755.6,265.3z"/>
	<path d="M816.7,309.6c1.1,0,1.7,0.6,1.7,1.7v51.2c0,7.4,1.1,13.5,3.1,18.3c2.1,4.8,5.5,7.1,10.3,7.1c4.5-0.1,8-3.1,10.7-8.8
		c2.7-5.7,4-12,4-18.9v-11.5c0-4.5-0.3-8.2-0.9-11.1c-0.6-2.9-1.7-5.3-3.3-7c-1.5-1.7-3.5-2.8-5.9-3.3c-1.3-0.3-1.9-0.8-1.9-1.7
		c0-1,0.6-1.5,1.7-1.5c4.8-0.1,9.4-0.9,14-2.2c4.5-1.3,8.5-2.9,11.9-4.7c3.4-1.8,5.8-3.3,7.4-4.3c1.5-1,2.8-2,3.8-2.8
		c0.3-0.3,0.6-0.4,1-0.4c1.1,0,1.7,0.6,1.7,1.7v53.5c0,5.2,0.4,9.4,1.3,12.6c1.1,3.9,3.1,6.2,5.9,6.7c0.3,0.1,0.9,0.2,1.8,0.1
		c0.9-0.1,1.4-0.1,1.6-0.1c0.8,0,1.4,0.4,1.6,1.2c0.2,0.8,0,1.4-0.7,1.8c-6.2,3.4-12.3,5-18.3,5c-10.1,0-16.9-3.1-20.6-9.4
		c-4.8,6.4-13.3,9.6-25.6,9.4c-9.9,0-18.1-2.6-24.4-7.8c-6.3-5.2-9.5-12.5-9.5-21.8v-13.9c0-6.7-0.8-11.8-2.3-15.2
		c-1.5-3.4-4.1-5.5-7.8-6.2c-1.3-0.3-1.9-0.8-1.9-1.7c0-1,0.6-1.5,1.7-1.5c6.2-0.3,12.3-1.6,18.5-4c6.2-2.4,10.4-4.3,12.7-5.9
		c2.3-1.5,4.2-2.9,5.8-4.2C815.9,309.7,816.3,309.6,816.7,309.6z"/>
	<path d="M932.8,265.3c0.6-0.6,1.2-0.6,1.9-0.2c0.6,0.3,0.8,0.8,0.8,1.5v50.6c6.2-4.6,12.7-7.1,19.7-7.3c7-0.3,13.3,1.2,18.9,4.5
		c5.6,3.3,10.3,8,14.2,14.2c3.8,6.2,5.8,12.9,6,20.2c0.3,11.6-2.9,21.6-9.6,30c-6.7,8.4-15.1,12.9-25.3,13.7
		c-10.8,0.7-20.2-3.2-28.1-11.8l-22.9,10.1c-1.5,0.6-2.3,0.1-2.3-1.5v-85.3c0-6.7-0.8-11.8-2.3-15.2c-1.5-3.4-4.2-5.5-8-6.2
		c-1.1,0-1.7-0.6-1.7-1.7c0-1,0.6-1.5,1.7-1.5c4.6-0.1,9.2-0.9,13.9-2.2c4.6-1.3,8.6-2.9,12-4.7c3.4-1.8,5.8-3.3,7.4-4.3
		C930.6,267.1,931.9,266.1,932.8,265.3z M944.2,316.3c-2.5,0-4.6,1.3-6.1,3.8c-3.9,6.3-3.6,18.3,1,36.1c2.9,10.5,6.5,18.8,10.6,25
		c4.1,6.2,8.2,8.7,12.3,7.6c3.9-1,6.1-5.6,6.4-13.8c0.3-8.2-0.8-16.8-3.5-25.7c-1.7-6.4-3.6-12.1-5.9-17c-2.2-4.9-4.7-8.8-7.2-11.7
		C949.3,317.7,946.7,316.3,944.2,316.3z"/>
	<path d="M1045,309.6c3.4,0,6.7,0.2,10,0.6c3.3,0.4,5.4,0.7,6.3,0.9c0.9,0.2,2,0.2,3.3-0.1c1.4-1,2.2-1.5,2.5-1.5
		c1,0,1.5,0.5,1.7,1.5l2.1,23.1c0,1.1-0.5,1.7-1.5,1.7c-0.8,0.1-1.4-0.3-1.7-1.5c-2.1-9.1-5.6-15.3-10.5-18.5
		c-3.2-2.1-7.3-3.2-12.2-3.2c-4.5,0-7.6,1.7-9.2,5c-1.7,3.4-1.5,6.8,0.4,10.3c1.1,2.1,3.5,4.2,7,6.2c3.6,2,7.5,3.9,11.7,5.7
		c4.2,1.8,8.3,3.7,12.4,5.8c4.1,2.1,7.5,4.7,10.2,7.9c2.7,3.1,4.1,6.8,4.1,10.8c0,8.3-3.6,14.9-10.7,20.1c-7.1,5.1-16.8,7.7-29,7.7
		c-10.5,0-18.6-2.6-24.3-7.8c-5.7-5.2-7.7-11-6-17.4c0.8-2.8,2.3-5,4.3-6.5c2-1.5,4.4-2.3,7-2.3c3.8,0,6.9,1.2,9.3,3.6
		c2.4,2.4,3.5,5.1,3,8.2c-0.4,2.2-1.8,4.3-4.1,6.2c-2.3,1.9-3.5,3.7-3.5,5.4c0.1,2,1.4,3.7,3.8,5.2c2.4,1.5,5.2,2.3,8.6,2.3
		c5.5,0,9.5-1.4,12.1-4.1c2.6-2.7,3.9-5.8,3.9-9.3c0-2.9-1-5.5-3-7.8c-2-2.2-4.6-4.1-7.7-5.5c-3.1-1.4-6.5-3-10.2-4.7
		c-3.7-1.7-7.2-3.5-10.4-5.2c-3.2-1.7-6-4.2-8.3-7.2c-2.3-3.1-3.7-6.6-4.1-10.7c-0.7-7.3,1.6-13.2,6.9-17.8S1033.2,309.6,1045,309.6
		z"/>
	<path d="M1209.8,264.6c10.2,0,18.4,2.3,24.7,6.9c6.2,4.6,9.3,10.4,9.3,17.2c0,8-2.3,14.3-7,19c-4.7,4.7-10.7,8-18.2,10l34.9,42.2
		c0.4-0.7,0.7-1.7,0.9-3c0.2-1.3,0.1-3.1-0.3-5.4c-0.4-2.2-1.2-4.5-2.3-6.7c-1-1.7-2.7-3.7-5.1-6.2c-2.5-2.4-4.4-5-6-7.8
		c-1.5-2.7-2.3-6-2.3-9.8c0-4.8,1.6-8.8,4.9-12.2c3.3-3.4,7.3-5,12.1-5c3.4,0,6.3,0.8,8.9,2.3c2.6,1.5,4.5,3.5,5.9,5.9
		c1.3,2.4,2.1,5,2.2,7.8c1.7,14.3-4,28.4-17,42.4l11.1,13.4c2,2.4,3.8,4.3,5.5,5.9c1.7,1.5,3.3,2.7,4.7,3.6c1.5,0.8,2.8,1.4,3.9,1.7
		c1.1,0.3,2.4,0.6,4,0.8c1.1,0.1,1.7,0.6,1.7,1.5c0,1.1-0.6,1.7-1.7,1.7h-24.8c-10.1,0-18-2.3-23.7-6.9c-8.8,5.5-19.3,8.2-31.5,8.2
		c-5.7,0-11.2-0.6-16.3-1.9c-5.1-1.3-10-3.3-14.6-6c-4.6-2.7-8.3-6.6-11-11.8c-2.7-5.1-4.1-11.1-4.1-18c0-7.7,2.7-14.3,8.1-19.7
		c5.4-5.5,12.2-8.5,20.5-9.2l-1.5-2.1c-2.4-2.5-4.2-4.5-5.4-6.1c-1.2-1.5-2.6-3.6-4.2-6.2c-1.6-2.6-2.8-5.3-3.5-8.2
		c-0.7-2.9-1.1-6.1-1.1-9.6c0-8.7,3.4-15.6,10.1-20.9S1197.8,264.6,1209.8,264.6z M1191.3,330.6c-2.4,2.4-4.4,5.6-6,9.7
		c-1.6,4.1-1.8,8.3-0.5,12.8c1.5,6,4,11.1,7.3,15.2c3.4,4.1,7.1,7,11.3,8.7c4.2,1.7,8.7,2.7,13.5,3.1s9.4-0.2,13.8-1.9
		c-0.1-0.1-0.3-0.3-0.4-0.4c-0.1-0.1-0.3-0.3-0.5-0.5c-0.2-0.2-0.3-0.4-0.3-0.5L1191.3,330.6z M1209.8,267.4c-3.2,0-5.8,1.8-7.7,5.5
		c-1.9,3.6-2.8,7.8-2.8,12.6c0,5.7,2.9,12.3,8.8,19.5l6.1,7.3c4.3-4.2,6.5-13.1,6.5-26.7C1220.7,273.5,1217.1,267.4,1209.8,267.4z"
		/>
	<path d="M609.1,423.8c3.9,0,7.8,0.4,11.8,1.2c3.9,0.8,7,1.5,9.1,2.1c2.2,0.6,4.1,0.9,5.9,0.8c1.7-0.1,3-0.7,3.7-2
		c0.4-0.8,1-1.2,1.9-1c0.8,0.1,1.3,0.7,1.3,1.7v27.1c0,1-0.5,1.5-1.5,1.7c-0.8,0-1.4-0.4-1.7-1.3c-1.4-5.3-3.3-9.8-5.6-13.4
		c-2.3-3.6-4.9-6.4-7.8-8.2c-2.9-1.8-5.6-3.2-8.3-4c-2.7-0.8-5.6-1.3-8.8-1.5c-6.3,0-11.3,2.1-15.1,6.2c-3.8,4.1-5.7,9.3-5.7,15.4
		c0,4.1,1.2,7.7,3.7,10.8c2.4,3.2,5.6,5.8,9.6,7.9c3.9,2.1,8.3,4.1,13,6.1c4.8,2,9.5,4.1,14.3,6.5c4.8,2.4,9.1,5,13.1,8
		c4,2.9,7.2,6.7,9.7,11.3c2.4,4.6,3.7,9.9,3.7,16c0,10.4-4.8,19.1-14.5,26.4c-9.7,7.2-22.8,10.8-39.3,10.8c-15.8,0-28.3-3-37.4-9.1
		c-9.1-6.1-13.6-14.9-13.6-26.4c0-6.2,1.6-11.4,4.9-15.9c3.3-4.4,8-6.6,14.2-6.6c5.5,0,9.8,1.5,13,4.4c3.2,2.9,4.8,6.6,4.8,10.9
		c0,2.5-0.6,4.8-1.8,6.8c-1.2,2-2.5,3.6-3.9,4.7c-1.4,1.1-2.7,2.7-3.8,4.6c-1.1,2-1.7,4.3-1.7,6.9c0.1,4.2,2.3,8,6.4,11.3
		c4.1,3.4,10.3,5,18.6,5c8.4,0,15.3-2.5,20.8-7.5c5.5-5,8.2-10.1,8.2-15.4c0-3.1-0.8-5.9-2.3-8.5c-1.5-2.6-3.6-4.8-6.1-6.7
		s-5.4-3.7-8.7-5.4c-3.3-1.7-6.8-3.4-10.4-5c-3.6-1.7-7.3-3.4-10.9-5.1c-3.6-1.7-7.1-3.8-10.4-6.1c-3.3-2.3-6.2-4.9-8.7-7.7
		c-2.5-2.8-4.6-6.2-6.1-10.2c-1.5-4-2.3-8.4-2.3-13.1c0-4.2,0.7-8.2,2.2-12.1c1.5-3.8,3.8-7.5,7-11c3.2-3.5,7.9-6.3,14-8.4
		C593.7,424.9,600.9,423.8,609.1,423.8z"/>
	<path d="M717.3,469.6c11.5,0,21.2,4,29.3,12.1c8,8.1,12.1,17.8,12.1,29.3c0,11.3-4,21-12.1,29.1c-8.1,8.1-17.8,12.1-29.3,12.1
		c-11.3,0-21-4-29.1-12.1c-8-8-12.1-17.7-12.1-29.1c0-11.5,4-21.2,12.1-29.3C696.2,473.6,705.9,469.6,717.3,469.6z M709.1,474
		c-0.7,0-1.3,0-1.7,0c-4.1,1.1-6.3,5.6-6.6,13.5c-0.4,7.9,0.9,16.9,3.7,27c2.9,10.5,6.5,18.9,10.6,25.3c4.1,6.4,8.2,9,12.3,7.9
		c4.1-1.1,6.3-5.6,6.6-13.4c0.3-7.8-0.9-16.8-3.7-26.9c-2.7-9.8-5.9-17.9-9.8-24.2C716.7,476.9,712.9,473.9,709.1,474z"/>
	<path d="M824.4,469.6c6,0,11.4,0.9,16.2,2.8c4.8,1.9,8.3,4.3,10.7,7.3c2.4,3,3.8,6.5,4.4,10.4c0.6,3.9-0.3,8-2.5,12.2
		c-1.3,2.4-3.1,4.2-5.6,5.4c-2.5,1.2-4.9,1.7-7.5,1.6c-2.5-0.1-4.9-0.9-7-2.4c-2.2-1.5-3.6-3.5-4.3-6c-0.7-2.4-0.6-4.4,0.2-6.1
		c0.8-1.7,1.9-2.9,3.3-3.8c1.3-0.8,2.6-2,3.9-3.4c1.3-1.4,1.9-2.9,1.9-4.4c-0.1-2.8-1.3-5.2-3.4-7.3c-2.1-2.1-4.9-3.2-8.4-3.2
		c-5.7,0-10.3,3.6-13.6,10.9c-3.4,7.3-4.3,16-2.7,26.2c1.3,8.7,4.6,15.8,10,21.3c5.4,5.5,11.4,8.2,18,8.1c4.6,0,8.8-1.3,12.5-4
		c3.7-2.7,6.5-5.9,8.3-9.9c0.3-1,0.9-1.4,2-1.2c1.1,0.2,1.4,0.9,1.2,2c-1.4,5.2-4.1,9.8-8.1,13.8c-4,4-8.7,7-14.2,9.1
		c-5.5,2.1-11.2,3.1-17.2,3.1c-10.6-0.1-20.1-3.5-28.5-10.2c-8.3-6.6-13-15.6-14-27c-1.1-12.9,2.1-23.7,9.8-32.4
		C797.2,474,808.8,469.6,824.4,469.6z"/>
	<path d="M911.5,470c0.4-0.4,0.9-0.5,1.6-0.3c0.6,0.2,0.9,0.7,0.9,1.6v57.5c0,4.2,0.3,7.6,1,10.2c0.7,2.6,1.9,4.6,3.5,6
		c1.6,1.4,3.7,2.3,6.4,2.7c1.1,0.1,1.7,0.6,1.7,1.5c0,1.1-0.5,1.7-1.5,1.7h-51.2c-1.1,0-1.7-0.6-1.7-1.7c0-0.8,0.6-1.3,1.7-1.5
		c4.3-0.6,7.2-2.2,8.7-5c1.5-2.8,2.2-7.4,2.2-13.9v-20.2c0-6.7-0.8-11.8-2.4-15.2c-1.6-3.4-4.2-5.5-7.9-6.2
		c-1.1-0.3-1.7-0.8-1.7-1.7c0-1,0.6-1.5,1.7-1.5c6-0.3,12.1-1.6,18.3-4c6.2-2.4,10.4-4.3,12.8-5.9C908,472.7,910,471.3,911.5,470z
		 M897,424.9c4.2,0,8.1,1.6,11.7,4.7c3.6,3.1,5.4,7.2,5.4,12.3c0,4.8-1.6,8.8-4.9,12.2c-3.3,3.4-7.3,5-12.1,5
		c-4.1,0-7.9-1.6-11.5-4.8c-3.6-3.2-5.5-7.4-5.5-12.4c0-4.6,1.6-8.6,4.9-12C888.2,426.5,892.3,424.9,897,424.9z"/>
	<path d="M979.4,469.6c3.6,0,7.3,0.5,10.9,1.4c3.6,0.9,7.1,2.3,10.5,4.3c3.4,2,6.2,4.3,8.4,7.1c1.8,2.4,3.1,5,3.8,8
		c0.7,2.9,0.7,5.8,0.1,8.5c-0.6,2.7-2.2,5.1-4.6,7.1c-2.5,2-5.7,3.3-9.8,3.7l-30.7,3.6c1.4,6.7,4.2,12.2,8.4,16.4
		c4.2,4.2,8.7,6.8,13.5,7.8c4.8,1,9.6,0.6,14.3-1.2c4.7-1.7,8.3-4.8,10.8-9.1c0.1-0.1,0.2-0.3,0.2-0.4c1-2,2-2.7,2.9-2.3
		c0.7,0.4,1,1,0.8,1.9c-4.6,17.2-17.7,25.8-39.3,25.8c-6,0-11.8-1.1-17.2-3.3c-5.5-2.2-10.3-5.5-14.6-10c-4.3-4.5-7.2-9.7-8.9-15.8
		c-0.8-2.4-1.4-5-1.7-8c-0.6-6.3-0.2-12.1,1.2-17.4c1.3-5.3,3.6-10.1,6.8-14.4c3.2-4.3,7.7-7.6,13.4-10.1
		C964.5,470.8,971.4,469.6,979.4,469.6z M979.1,472.7c-3.6,0-6.7,2.2-9,6.6c-2.4,4.4-3.7,9.4-3.9,14.9c-0.2,5.5,0.2,10.9,1.2,16.1
		c7.8-1,13.9-3,18.3-6.1c4.3-3.1,6.2-7.8,5.7-14.1c-0.3-2.8-0.7-5.2-1.2-7.1c-0.5-2-1.2-3.8-2.1-5.5c-0.9-1.7-2.1-2.9-3.6-3.7
		C983,473.1,981.2,472.7,979.1,472.7z"/>
	<path d="M1065.7,441.2c0.3-0.8,0.8-1.2,1.7-1c0.8,0.1,1.3,0.7,1.3,1.7V474h14.5c1.1,0,1.7,0.5,1.7,1.6s-0.6,1.6-1.7,1.6h-14.5v45.6
		c0,10.9,2.2,16.3,6.7,16.2c1.7,0,3.4-0.8,5-2.3c1.7-1.5,2.9-3.3,3.8-5.2c0.3-0.7,0.8-1,1.5-1c0.6,0,1,0.2,1.3,0.7
		c0.3,0.5,0.3,1,0,1.6c-2.4,5.5-5.9,10.1-10.5,13.9s-9.7,5.7-15.3,5.7c-7.3,0-12.7-2.3-16.4-6.8c-3.6-4.5-5.5-12.1-5.5-22.6
		l0.2-32.3c0-2.5,0-4.4,0-5.7c0-1.3-0.2-2.5-0.5-3.8c-0.4-1.3-0.6-2.1-0.8-2.4c-0.2-0.3-0.8-0.7-1.9-1c-1-0.3-2-0.5-2.8-0.5
		s-2.2,0-4.2,0c-1.3-0.3-1.9-0.8-1.9-1.7c0-0.8,0.6-1.3,1.7-1.5c5.9-1.3,13-5.4,21.3-12.3C1058.6,454.6,1063.7,447.8,1065.7,441.2z"
		/>
	<path d="M1136.8,470c0.4-0.4,0.9-0.5,1.6-0.3c0.6,0.2,0.9,0.7,0.9,1.6v57.5c0,4.2,0.3,7.6,1.1,10.2c0.7,2.6,1.9,4.6,3.5,6
		c1.6,1.4,3.7,2.3,6.4,2.7c1.1,0.1,1.7,0.6,1.7,1.5c0,1.1-0.5,1.7-1.5,1.7h-51.2c-1.1,0-1.7-0.6-1.7-1.7c0-0.8,0.6-1.3,1.7-1.5
		c4.3-0.6,7.2-2.2,8.7-5c1.5-2.8,2.2-7.4,2.2-13.9v-20.2c0-6.7-0.8-11.8-2.4-15.2c-1.6-3.4-4.2-5.5-7.9-6.2
		c-1.1-0.3-1.7-0.8-1.7-1.7c0-1,0.6-1.5,1.7-1.5c6-0.3,12.1-1.6,18.3-4c6.2-2.4,10.4-4.3,12.8-5.9
		C1133.3,472.7,1135.3,471.3,1136.8,470z M1122.4,424.9c4.2,0,8.1,1.6,11.7,4.7c3.6,3.1,5.4,7.2,5.4,12.3c0,4.8-1.6,8.8-4.9,12.2
		c-3.3,3.4-7.3,5-12.1,5c-4.1,0-7.9-1.6-11.5-4.8c-3.6-3.2-5.5-7.4-5.5-12.4c0-4.6,1.6-8.6,4.9-12
		C1113.6,426.5,1117.6,424.9,1122.4,424.9z"/>
	<path d="M1204.7,469.6c3.6,0,7.3,0.5,10.9,1.4c3.6,0.9,7.1,2.3,10.5,4.3c3.4,2,6.2,4.3,8.4,7.1c1.8,2.4,3.1,5,3.8,8
		c0.7,2.9,0.7,5.8,0.1,8.5c-0.6,2.7-2.2,5.1-4.6,7.1c-2.5,2-5.7,3.3-9.8,3.7l-30.7,3.6c1.4,6.7,4.2,12.2,8.4,16.4
		c4.2,4.2,8.7,6.8,13.5,7.8c4.8,1,9.6,0.6,14.3-1.2c4.7-1.7,8.3-4.8,10.8-9.1c0.1-0.1,0.2-0.3,0.2-0.4c1-2,2-2.7,2.9-2.3
		c0.7,0.4,1,1,0.8,1.9c-4.6,17.2-17.7,25.8-39.3,25.8c-6,0-11.8-1.1-17.2-3.3c-5.5-2.2-10.3-5.5-14.6-10c-4.3-4.5-7.2-9.7-8.9-15.8
		c-0.8-2.4-1.4-5-1.7-8c-0.6-6.3-0.2-12.1,1.2-17.4c1.3-5.3,3.6-10.1,6.8-14.4c3.2-4.3,7.7-7.6,13.4-10.1
		C1189.8,470.8,1196.7,469.6,1204.7,469.6z M1204.5,472.7c-3.6,0-6.7,2.2-9,6.6c-2.4,4.4-3.7,9.4-3.9,14.9
		c-0.2,5.5,0.2,10.9,1.2,16.1c7.8-1,13.9-3,18.3-6.1c4.3-3.1,6.2-7.8,5.7-14.1c-0.3-2.8-0.7-5.2-1.2-7.1c-0.5-2-1.2-3.8-2.1-5.5
		c-0.9-1.7-2.1-2.9-3.6-3.7C1208.4,473.1,1206.6,472.7,1204.5,472.7z"/>
	<path d="M1296.9,469.6c3.4,0,6.7,0.2,10,0.6c3.3,0.4,5.4,0.7,6.3,0.9c0.9,0.2,2,0.2,3.3-0.1c1.4-1,2.2-1.5,2.5-1.5
		c1,0,1.5,0.5,1.7,1.5l2.1,23.1c0,1.1-0.5,1.7-1.5,1.7c-0.8,0.1-1.4-0.3-1.7-1.5c-2.1-9.1-5.6-15.3-10.5-18.5
		c-3.2-2.1-7.3-3.2-12.2-3.2c-4.5,0-7.6,1.7-9.2,5c-1.7,3.4-1.5,6.8,0.4,10.3c1.1,2.1,3.5,4.2,7,6.2c3.6,2,7.5,3.9,11.7,5.7
		c4.2,1.8,8.3,3.7,12.4,5.8c4.1,2.1,7.5,4.7,10.2,7.9c2.7,3.2,4.1,6.8,4.1,10.8c0,8.3-3.6,14.9-10.7,20.1c-7.1,5.1-16.8,7.7-29,7.7
		c-10.5,0-18.6-2.6-24.3-7.8c-5.7-5.2-7.7-11-6-17.4c0.8-2.8,2.3-5,4.3-6.5c2-1.5,4.4-2.3,7-2.3c3.8,0,6.9,1.2,9.3,3.6
		c2.4,2.4,3.5,5.1,3,8.2c-0.4,2.2-1.8,4.3-4.1,6.2c-2.3,1.9-3.5,3.7-3.5,5.4c0.1,2,1.4,3.7,3.8,5.2c2.4,1.5,5.2,2.3,8.6,2.3
		c5.5,0,9.5-1.4,12.1-4.1c2.6-2.7,3.9-5.8,3.9-9.3c0-2.9-1-5.5-3-7.8c-2-2.2-4.6-4.1-7.7-5.5c-3.1-1.4-6.5-3-10.2-4.7
		c-3.7-1.7-7.2-3.5-10.4-5.2c-3.2-1.7-6-4.2-8.3-7.2c-2.3-3.1-3.7-6.6-4.1-10.7c-0.7-7.3,1.6-13.2,6.9-17.8
		S1285.1,469.6,1296.9,469.6z"/>
</g>
</svg>
