<?xml version="1.0" encoding="utf-8"?>
<!-- Generator: Adobe Illustrator 24.3.0, SVG Export Plug-In . SVG Version: 6.00 Build 0)  -->
<svg version="1.1" id="Layer_1" xmlns="http://www.w3.org/2000/svg" xmlns:xlink="http://www.w3.org/1999/xlink" x="0px" y="0px"
	 viewBox="0 0 1895.9 812" style="enable-background:new 0 0 1895.9 812;" xml:space="preserve">
<style type="text/css">
	.st0{fill:#F496BB;}
	.st1{display:none;}
	.st2{display:inline;}
</style>
<path class="st0" d="M160.6,285.6c-2.1,1.5-10.3,7.5-11.9,17c-1.4,8.3,3.3,10.7,1.6,20.3c-1.1,6.1-4,10.7-7.8,16.6
	c-4.8,7.4-6.2,6.9-9.1,12c-4.8,8.7-4.6,17.5-4.5,22.8c0.1,4,0.4,13.8,5.9,23.5c2.5,4.4,6.2,9.1,7.6,10.9c3.6,4.5,5.4,6.8,6.9,8.2
	c1.4,1.3,3.2,2.8,4.8,5.5c0.5,0.8,1.4,2.3,1.9,4c0.4,1.4,0.9,4.4-2.3,12.3c-0.4,1-1.4,3.5-4.7,9.9c-2.8,5.4-4.3,8.1-5.3,9.5
	c-4.1,5.8-9,8.8-12.9,11.2c-5.3,3.2-10.4,5.2-14.8,6.3c-0.9,0.2-1.6,0.8-2.1,1.5c-0.4,0.7-0.8,1.4-1.1,2c-4.4,9.2-0.4,19.3,1.3,22.9
	c0.1,0.1,0.1,0.2,0.2,0.3c7.9,13.3,13.4,15.9,17,15.7c1-0.1,2-0.4,3.7-0.2c6,0.6,9.9,6.2,11.2,7.9c7.8,10.5,24.9,21.7,33.2,25.7
	c11.1,5.4,21.2,5,34.4,4.5c13.8-0.5,14.8-3.2,39.6-7.4c15.9-2.7,24.1-4.1,35.8-3.9c10.3,0.1,13.7,1.3,31,2.3
	c9.8,0.6,18,0.8,23.8,0.8c1.1,0,2.1,0.5,2.7,1.4c2.5,3.3,6.2,7.3,11.7,9.7c6.3,2.8,10.7,1.7,28.3-0.8c23.9-3.4,25.7-2.9,40.7-5.9
	c4.5-0.9,9.5-3.9,17.1-3.8c5.6,0,6.6,1.3,14.5,2.3c7.5,0.9,13.1,0.6,20.7,0.2c10.8-0.6,10.3-1.5,20.3-2.2
	c12.4-0.8,11.7,0.7,25.6-0.1c10.8-0.6,13.2-1.6,19.3-0.2c6,1.3,6.5,3,12.9,3.8c3.9,0.5,7.8,0.4,15.5,0c5.8-0.3,6.5-0.5,9.9-0.6
	c8.4-0.3,14.6,0.6,18.1,1.1c16.9,2.2,19.1-1.3,39.7,0.6c15,1.4,17.6,3.6,29,2.8c5.4-0.4,8-1.1,15.8-1.4c10.7-0.4,12.4,0.6,20.2,0.5
	c15.7-0.3,17.9-4.8,30-4.4c9.7,0.4,16.2,3.5,20.7,5.3c11.6,4.5,30.2,7.9,61,2c0.9-0.2,1.7-0.8,2.3-1.5c0.4-0.6,1-1.3,1.8-1.7
	c1.2-0.7,2.3-0.8,2.8-0.8c11.1-0.6,19.7-3.8,33.5,0.3c3.9,1.2,3.1,1.4,7.1,2.6c3.7,1.2,14.3,4.1,38,0.8c4.3-0.6,20.5-3,32.9-2.8
	c2.6,0.1,7,0.3,9.4,3.3c2.3,2.9,1.2,6.5,3.2,7.5c1.9,0.9,4.5-1.6,6.8-3.1c2.8-1.8,6.6-3.2,21.2-2c13.7,1.1,17.1,2.8,26.3,3.7
	c6,0.6,14.6,0.9,25.4-0.8c0.9-0.2,1.8-0.7,2.3-1.5l0.8-1.1c0.7-1,1.9-1.6,3.2-1.5c6.1,0.5,14.9,1.1,25.5,0.7
	c15.6-0.5,21.3-2.3,31.7-2c8.1,0.2,19.9,1.8,34.2,8.1c1.2,0.5,2.5,0.4,3.5-0.4c0.8-0.6,1.8-1.3,2.9-2c2.1-1.2,5.6-3.4,10.4-4
	c1.3-0.2,10.3-1.3,17,4.7c0.6,0.6,1.2,1.1,1.7,1.7c0.8,0.9,1.9,1.3,3,1.2c3.2-0.4,7.6-0.8,12.6-1c16.2-0.6,25.3,1.5,36.8,2.8
	c27.6,3,25.3-4,50.5-0.9c0,0,21.4,2.6,34.6-1.9c4.1-1.4,4.2-1.4,4.2-1.4c4.7-1.6,5.2-1.9,6-2c4.3-0.7,8.4,4.2,9.7,5.6
	c7.3,7.6,23.6,4.9,44,3.4c10.1-0.8,25-1.5,43.7-1.1c13-0.5,23.5-0.3,30.9-0.2c13.9,0.4,20.9,1.1,33.4,0c7.2-0.6,6.9-1.1,16.4-2
	c6.5-0.6,16.1-1.6,28-1.4c7.8,0.1,18.1,0.7,30,2.7c0.5,0.1,0.9,0.1,1.4-0.1c3.5-0.9,7.3-1.7,11.2-2.3c15.3-2.4,28.9-1.8,39.9-0.2
	c0.1,0,0.2,0,0.3,0c8.5,0.4,17.1,0.8,25.6,1.3c1.5,0.1,2.9-0.8,3.4-2.2c0.2-0.6,0.5-1.3,1-1.9c3.6-5.5,12.1-5.8,20.2-5.8
	c8.6,0,19.7,0.3,32.8,1.4c1.1,0.1,2.2-0.4,3-1.2c1-1.2,2.4-2.6,4.2-3.7c5.3-3.3,10.3-1.9,14.4-2.5c9.4-1.3,14.8-12.7,17.9-17.9
	c5.6-9.4,17-21.8,43.3-33.9c1-0.5,1.8-1.4,2-2.6c1.1-6.5,1.8-14.2,1.5-22.9c-0.2-4.9-0.6-9.4-1.2-13.5c-0.1-0.7-0.4-1.4-0.9-1.9
	c-1.1-1.2-2.4-2.9-3.3-5.2c-1.9-5-0.3-9.3,1.1-14.6c0,0,1.2-4.7,1.4-38.6c0-0.4,0-1.2-0.5-2.2c-1.1-2.3-4.1-2.9-4.8-3.1
	c-5.2-1.5-8.8-14.8-9.7-24.3c-1.2-12.1,1.6-22.3,4.1-28.9c0.1-0.3,0.2-0.7,0.2-1c0.7-9.5,0.7-17.5,0.6-23.4
	c-0.4-14.2-1.9-17.5-4.2-19.8c-1.6-1.5-4.9-3.1-11.6-6.4c-3.4-1.6-5.1-2.5-7.1-3c-5.1-1.2-7,0.2-12.1-0.2c-6.9-0.4-6.9-3.3-13.3-4
	c-6.7-0.7-7.1,2.4-16.1,3.1c-8.3,0.7-9.8-1.9-17.1-0.9c-6.9,0.9-10.2,3.7-14.2,5.4c-12.5,5.4-26.4-2.3-36.5-6.4
	c-10-4-26.1-4.8-58.4-6.4c-19.8-1-74.5-2.1-100.4,2.8c-4.2,0.8-11,2.4-19.5,0.3c-7.2-1.8-9.1-4.6-17-6.4c-5.5-1.2-9-0.8-17.3-0.3
	c-8.9,0.5-17.8,0.4-26.7,0.9c-34.4,2.2-46.5-4-82.7-0.5c-21.7,2.1-23.3,5-35.2,3.4c-16.4-2.1-30.5-3.9-38.6-5.9
	c-0.7-0.2-2.7-0.7-5.3-0.5c-5.7,0.5-9.6,4-10.4,4.7c-7.6,6.3-32.9-0.1-42.8-2.2c-8.1-1.7-41-8.7-72.9,1.4c-11.2,3.5-17,7.5-29,7.3
	c-11.3-0.2-15.7-3.9-30-5c-12-0.9-12.7,1.4-25.8,1.6c-20,0.2-37.5-4.9-50.4-8.7c-13.2-3.9-18.8-6.8-28.7-5.6
	c-7.2,0.9-7.5,2.8-19,5.9c-5,1.4-17.2,4.6-32.1,4.4c-14.3-0.2-15.5-3.4-27-2c-8.7,1-10.3,3.1-19.8,5c-8.5,1.7-12.1,1-28.3,0.8
	c-24.6-0.3-25.9,1.2-48.7,0.5c-7.1-0.2-4.3-0.3-20.7-1.1c-32.2-1.6-36.7-1-48.1-2.5c-7.5-1-18.4-2.9-31.5-7c-1-0.3-2-0.2-2.9,0.4
	c-6.6,4.1-12.1,6.2-15.5,7.2c-5.4,1.7-7.5,1.4-9.1,0.9c-2.9-0.9-3.8-2.8-6-2.5c-1.6,0.2-1.8,1.2-5.9,4.4c-2.4,1.9-3.5,2.8-4.6,3.1
	c-3.9,1.1-7.8-1.7-8.5-2.2c-5-3.5-4.3-8.2-7.4-8.7c-2.2-0.4-3.2,1.8-8.2,4.7c0,0-2.7,1.5-8.5,3.4c-16.2,5.3-45.1-0.6-45.1-0.6
	c-10.6-2.2-25-6-41.4-13.2c-0.8-0.3-1.7-0.4-2.5-0.1c-1.6,0.6-4.2,1.4-7.4,2.5c-19.4,6.7-24.9,8.7-32.9,8.4c-3.6-0.1-2.4-0.6-8-1.1
	c-8.3-0.8-13.5-0.1-28.9,1.6c-17.8,2-20.5,2.2-24.7,2.3c-7.7,0.2-7.1-0.3-15.8-0.2c-2.7,0-15.7,0.2-33.2,2.8
	c-8.7,1.3-10.1,1.9-15.9,2.8c-17.8,2.7-30.9,0.9-41.6,0c-30.2-2.6-28.3,3.4-56.2,1.2C189.5,286.3,174.8,275.3,160.6,285.6z"/>
<g>
	<path d="M397.7,270.7L405,342c0,2.3-1.1,3.6-3.2,3.9c-2.1,0.3-3.2-0.7-3.2-3l-3-24.5c-3.7-27.5-18.2-41.2-43.4-41.2h-61.8v130.1
		h30.9c8,0,15-2.6,20.8-7.7c5.9-5.2,8.8-11.2,8.8-18v-5.6c0-2,1.1-3,3.2-3c2.1,0,3.2,1,3.2,3v68.3c0,2.3-1.1,3.4-3.2,3.4
		c-2.1,0-3.2-1.1-3.2-3.4v-5.6c0-6.6-2.9-12.4-8.8-17.4c-5.9-5-12.8-7.5-20.8-7.5h-30.9v69.6c0,12.9,1.7,22.3,5.2,28.1
		c3.4,5.9,9.2,9.4,17.2,10.5c2.3,0.3,3.4,1.3,3.4,3c0,2.3-1,3.4-3,3.4H208.4c-2.3,0-3.4-1.1-3.4-3.4c0-1.7,1.1-2.7,3.4-3
		c8.9-1.1,14.8-4.6,17.8-10.3c3-5.7,4.5-15.2,4.5-28.3V315.8c0-13.2-1.5-22.6-4.5-28.3c-3-5.7-9-9.2-17.8-10.3
		c-2.3-0.3-3.4-1.3-3.4-3c0-2.3,1.1-3.4,3.4-3.4H397.7z"/>
	<path d="M538.1,360.1c15.2,0,26.3,5.7,33.3,17.2c7,11.5,6.7,23.8-1.1,36.9c-3.4,5.4-8.2,9.2-14.4,11.4c-6.2,2.1-12.2,2.4-18.2,0.6
		c-10-2.9-15-8.7-15-17.6c0-4.6,2.5-8.6,7.5-12c5-3.4,7.5-6.9,7.5-10.3c0-5.2-1.7-9.3-5.2-12.5c-3.4-3.1-7.9-4.3-13.3-3.4
		c-9.4,2.9-15.7,9.1-18.9,18.7c-3.2,9.6-4.7,24.3-4.7,44v50.2c0,12.9,1.6,22.3,4.9,28.1c3.3,5.9,9.1,9.4,17.4,10.5
		c2.3,0.3,3.4,1.3,3.4,3c0,2.3-1.1,3.4-3.4,3.4H413.6c-2.3,0-3.4-1.1-3.4-3.4c0-1.7,1.1-2.7,3.4-3c8.6-1.1,14.5-4.6,17.6-10.3
		c3.1-5.7,4.7-15.2,4.7-28.3v-41.2c0-13.7-1.7-24.1-4.9-31.1c-3.3-7-8.7-11.2-16.1-12.7c-2.6-0.6-3.9-1.7-3.9-3.4c0-2,1.3-3,3.9-3
		c12.3-0.6,24.8-3.3,37.4-8.2c12.6-4.9,21.3-8.9,26-12c4.7-3.1,8.7-6,11.8-8.6c1.1-0.9,2.4-1.1,3.6-0.6c1.3,0.4,1.9,1.5,1.9,3.2
		v12.9c8.6-8.3,17.5-13.7,26.6-16.3C528,360.8,533.3,360.1,538.1,360.1z"/>
	<path d="M676.4,362.2c7.4,0,14.9,0.9,22.3,2.8c7.4,1.9,14.6,4.8,21.5,8.8c6.9,4,12.6,8.9,17.2,14.6c3.7,4.9,6.3,10.3,7.7,16.3
		c1.4,6,1.5,11.8,0.2,17.4c-1.3,5.6-4.4,10.5-9.4,14.6c-5,4.2-11.7,6.7-20,7.5l-62.7,7.3c2.9,13.7,8.6,24.9,17.2,33.5
		c8.6,8.6,17.8,13.9,27.7,15.9c9.9,2,19.6,1.2,29.2-2.4c9.6-3.6,17-9.8,22.1-18.7c0.3-0.3,0.4-0.6,0.4-0.9c2-4,4-5.6,6-4.7
		c1.4,0.9,2,2.1,1.7,3.9c-9.4,35.2-36.2,52.8-80.3,52.8c-12.3,0-24-2.2-35.2-6.7c-11.2-4.4-21.1-11.2-29.8-20.4
		c-8.7-9.2-14.8-19.9-18.2-32.2c-1.7-4.9-2.9-10.3-3.4-16.3c-1.1-12.9-0.4-24.8,2.4-35.6c2.7-10.9,7.4-20.7,14-29.4
		c6.6-8.7,15.7-15.6,27.5-20.6C646,364.7,660.1,362.2,676.4,362.2z M676,368.6c-7.4,0-13.6,4.5-18.5,13.5c-4.9,9-7.5,19.2-7.9,30.5
		c-0.4,11.3,0.4,22.3,2.4,32.8c16-2,28.5-6.2,37.4-12.5c8.9-6.3,12.7-15.9,11.6-28.8c-0.6-5.7-1.4-10.6-2.4-14.6
		c-1-4-2.4-7.7-4.3-11.2c-1.9-3.4-4.3-5.9-7.3-7.5C683.9,369.4,680.2,368.6,676,368.6z"/>
	<path d="M849,362.2c6.9,0,13.7,0.4,20.4,1.3c6.7,0.9,11,1.5,12.9,1.9c1.9,0.4,4.1,0.4,6.7-0.2c2.9-2,4.6-3,5.2-3c2,0,3.1,1,3.4,3
		l4.3,47.2c0,2.3-1,3.4-3,3.4c-1.7,0.3-2.9-0.7-3.4-3c-4.3-18.6-11.5-31.2-21.5-37.8c-6.6-4.3-14.9-6.4-24.9-6.4
		c-9.2,0-15.5,3.4-18.9,10.3s-3.2,13.9,0.9,21c2.3,4.3,7.1,8.5,14.4,12.7c7.3,4.2,15.2,8,23.8,11.6c8.6,3.6,17,7.5,25.3,11.8
		c8.3,4.3,15.2,9.7,20.8,16.1c5.6,6.4,8.4,13.8,8.4,22.1c0,16.9-7.3,30.6-21.9,41c-14.6,10.5-34.4,15.7-59.3,15.7
		c-21.5,0-38-5.3-49.6-15.9c-11.6-10.6-15.7-22.5-12.2-35.6c1.7-5.7,4.7-10.2,8.8-13.3c4.1-3.1,8.9-4.7,14.4-4.7
		c7.7,0,14.1,2.4,19.1,7.3c5,4.9,7.1,10.5,6.2,16.7c-0.9,4.6-3.6,8.8-8.4,12.7s-7.1,7.5-7.1,10.9c0.3,4,2.9,7.6,7.7,10.7
		c4.9,3.2,10.7,4.7,17.6,4.7c11.2,0,19.4-2.8,24.7-8.4c5.3-5.6,7.9-11.9,7.9-19.1c0-6-2.1-11.3-6.2-15.9c-4.2-4.6-9.4-8.3-15.7-11.2
		c-6.3-2.9-13.2-6.1-20.8-9.7c-7.6-3.6-14.7-7.2-21.3-10.7c-6.6-3.6-12.2-8.5-17-14.8c-4.7-6.3-7.5-13.6-8.4-21.9
		c-1.4-14.9,3.3-27.1,14.2-36.5C807.5,366.9,824.9,362.2,849,362.2z"/>
	<path d="M1012.6,271.6c0.9-0.9,1.9-1,3.2-0.4c1.3,0.6,1.9,1.6,1.9,3v104.3c11.7-9.7,25.2-15,40.4-15.9
		c45.2-3.1,70.4,16.9,75.6,60.1l7.7,60.5c1.4,12.6,4.2,21.8,8.4,27.7c4.1,5.9,10.2,9.5,18.2,10.9c2.6,0.3,3.9,1.3,3.9,3
		c0.3,2.3-0.9,3.4-3.4,3.4h-103.9c-2.6,0-3.9-1.1-3.9-3.4c0-1.7,1.3-2.7,3.9-3c8.3-1.4,13.6-4.9,15.9-10.5c2.3-5.6,2.6-15,0.9-28.1
		l-6.4-55.8c-2-19.2-6.6-33.4-13.7-42.7c-7.2-9.3-15.2-12.8-24-10.5c-3.7,1.1-6.9,2.9-9.4,5.4c-2.6,2.4-4.9,7.3-6.9,14.6
		c-2,7.3-3,17-3,29v60.1c0,12.6,1.7,21.8,5.2,27.7c3.4,5.9,9.2,9.5,17.2,10.9c2.3,0.3,3.4,1.3,3.4,3c0,2.3-1.3,3.4-3.9,3.4H935.7
		c-2.3,0-3.4-1.1-3.4-3.4c0-1.7,1.3-2.7,3.9-3c8.6-1.1,14.4-4.6,17.4-10.3c3-5.7,4.5-15.2,4.5-28.3V350.6c0-13.7-1.7-24.1-4.9-31.1
		c-3.3-7-8.8-11.2-16.5-12.7c-2,0-3-1.1-3-3.4c0-2,1-3,3-3c12.6-0.6,25.2-3.2,37.8-7.9c12.6-4.7,21.3-8.7,26.2-12
		C1005.4,277.1,1009.4,274.2,1012.6,271.6z"/>
	<path d="M1259.5,362.2c7.4,0,14.9,0.9,22.3,2.8c7.4,1.9,14.6,4.8,21.5,8.8c6.9,4,12.6,8.9,17.2,14.6c3.7,4.9,6.3,10.3,7.7,16.3
		c1.4,6,1.5,11.8,0.2,17.4s-4.4,10.5-9.4,14.6c-5,4.2-11.7,6.7-20,7.5l-62.7,7.3c2.9,13.7,8.6,24.9,17.2,33.5
		c8.6,8.6,17.8,13.9,27.7,15.9c9.9,2,19.6,1.2,29.2-2.4c9.6-3.6,17-9.8,22.1-18.7c0.3-0.3,0.4-0.6,0.4-0.9c2-4,4-5.6,6-4.7
		c1.4,0.9,2,2.1,1.7,3.9c-9.4,35.2-36.2,52.8-80.3,52.8c-12.3,0-24-2.2-35.2-6.7s-21.1-11.2-29.8-20.4c-8.7-9.2-14.8-19.9-18.2-32.2
		c-1.7-4.9-2.9-10.3-3.4-16.3c-1.1-12.9-0.4-24.8,2.4-35.6c2.7-10.9,7.4-20.7,14-29.4c6.6-8.7,15.7-15.6,27.5-20.6
		C1229.1,364.7,1243.2,362.2,1259.5,362.2z M1259,368.6c-7.4,0-13.6,4.5-18.5,13.5c-4.9,9-7.5,19.2-7.9,30.5
		c-0.4,11.3,0.4,22.3,2.4,32.8c16-2,28.5-6.2,37.4-12.5c8.9-6.3,12.7-15.9,11.6-28.8c-0.6-5.7-1.4-10.6-2.4-14.6
		c-1-4-2.4-7.7-4.3-11.2c-1.9-3.4-4.3-5.9-7.3-7.5C1267,369.4,1263.3,368.6,1259,368.6z"/>
	<path d="M1478,360.1c15.2,0,26.3,5.7,33.3,17.2c7,11.5,6.7,23.8-1.1,36.9c-3.4,5.4-8.2,9.2-14.4,11.4c-6.2,2.1-12.2,2.4-18.2,0.6
		c-10-2.9-15-8.7-15-17.6c0-4.6,2.5-8.6,7.5-12c5-3.4,7.5-6.9,7.5-10.3c0-5.2-1.7-9.3-5.2-12.5c-3.4-3.1-7.9-4.3-13.3-3.4
		c-9.4,2.9-15.7,9.1-18.9,18.7c-3.2,9.6-4.7,24.3-4.7,44v50.2c0,12.9,1.6,22.3,4.9,28.1c3.3,5.9,9.1,9.4,17.4,10.5
		c2.3,0.3,3.4,1.3,3.4,3c0,2.3-1.1,3.4-3.4,3.4h-104.3c-2.3,0-3.4-1.1-3.4-3.4c0-1.7,1.1-2.7,3.4-3c8.6-1.1,14.5-4.6,17.6-10.3
		c3.1-5.7,4.7-15.2,4.7-28.3v-41.2c0-13.7-1.7-24.1-4.9-31.1c-3.3-7-8.7-11.2-16.1-12.7c-2.6-0.6-3.9-1.7-3.9-3.4c0-2,1.3-3,3.9-3
		c12.3-0.6,24.8-3.3,37.4-8.2c12.6-4.9,21.3-8.9,26-12c4.7-3.1,8.7-6,11.8-8.6c1.1-0.9,2.4-1.1,3.7-0.6c1.3,0.4,1.9,1.5,1.9,3.2
		v12.9c8.6-8.3,17.5-13.7,26.6-16.3C1467.9,360.8,1473.2,360.1,1478,360.1z"/>
	<path d="M1607.7,362.2c6.9,0,13.7,0.4,20.4,1.3c6.7,0.9,11,1.5,12.9,1.9c1.9,0.4,4.1,0.4,6.7-0.2c2.9-2,4.6-3,5.2-3
		c2,0,3.1,1,3.4,3l4.3,47.2c0,2.3-1,3.4-3,3.4c-1.7,0.3-2.9-0.7-3.4-3c-4.3-18.6-11.5-31.2-21.5-37.8c-6.6-4.3-14.9-6.4-24.9-6.4
		c-9.2,0-15.5,3.4-18.9,10.3c-3.4,6.9-3.2,13.9,0.9,21c2.3,4.3,7.1,8.5,14.4,12.7c7.3,4.2,15.2,8,23.8,11.6
		c8.6,3.6,17,7.5,25.3,11.8c8.3,4.3,15.2,9.7,20.8,16.1s8.4,13.8,8.4,22.1c0,16.9-7.3,30.6-21.9,41c-14.6,10.5-34.4,15.7-59.3,15.7
		c-21.5,0-38-5.3-49.6-15.9c-11.6-10.6-15.7-22.5-12.2-35.6c1.7-5.7,4.7-10.2,8.8-13.3c4.1-3.1,8.9-4.7,14.4-4.7
		c7.7,0,14.1,2.4,19.1,7.3c5,4.9,7.1,10.5,6.2,16.7c-0.9,4.6-3.6,8.8-8.4,12.7c-4.7,3.9-7.1,7.5-7.1,10.9c0.3,4,2.9,7.6,7.7,10.7
		c4.9,3.2,10.7,4.7,17.6,4.7c11.2,0,19.4-2.8,24.7-8.4c5.3-5.6,7.9-11.9,7.9-19.1c0-6-2.1-11.3-6.2-15.9c-4.2-4.6-9.4-8.3-15.7-11.2
		c-6.3-2.9-13.2-6.1-20.8-9.7c-7.6-3.6-14.7-7.2-21.3-10.7c-6.6-3.6-12.2-8.5-17-14.8c-4.7-6.3-7.5-13.6-8.4-21.9
		c-1.4-14.9,3.3-27.1,14.2-36.5C1566.2,366.9,1583.6,362.2,1607.7,362.2z"/>
</g>
<g class="st1">
	<path class="st2" d="M917.6,211.5c0,0.5,0,0.8-0.1,1.2c-0.1,0.3-0.1,0.6-0.3,0.8c-0.1,0.2-0.3,0.4-0.4,0.4
		c-0.2,0.1-0.4,0.1-0.6,0.1H902v40.1c0,0.2-0.1,0.4-0.2,0.5c-0.1,0.1-0.3,0.3-0.5,0.3c-0.3,0.1-0.6,0.2-1,0.2
		c-0.4,0.1-1,0.1-1.6,0.1c-0.6,0-1.2,0-1.6-0.1c-0.4-0.1-0.8-0.1-1.1-0.2c-0.3-0.1-0.4-0.2-0.5-0.3s-0.2-0.3-0.2-0.5v-40.1h-14.2
		c-0.2,0-0.4,0-0.6-0.1c-0.2-0.1-0.3-0.2-0.4-0.4c-0.1-0.2-0.2-0.5-0.3-0.8c-0.1-0.3-0.1-0.7-0.1-1.2c0-0.5,0-0.9,0.1-1.2
		c0.1-0.3,0.1-0.6,0.3-0.8s0.2-0.4,0.4-0.5c0.2-0.1,0.4-0.1,0.6-0.1h35.2c0.2,0,0.4,0,0.6,0.1c0.2,0.1,0.3,0.3,0.4,0.5
		s0.2,0.5,0.3,0.8C917.6,210.6,917.6,211,917.6,211.5z"/>
	<path class="st2" d="M964.5,254.2c0,0.2-0.1,0.4-0.2,0.5c-0.1,0.1-0.3,0.3-0.5,0.3c-0.3,0.1-0.6,0.2-1,0.2c-0.4,0.1-1,0.1-1.6,0.1
		c-0.7,0-1.2,0-1.6-0.1c-0.4-0.1-0.8-0.1-1-0.2c-0.3-0.1-0.4-0.2-0.5-0.3s-0.2-0.3-0.2-0.5v-20.5h-23v20.5c0,0.2-0.1,0.4-0.2,0.5
		c-0.1,0.1-0.3,0.3-0.5,0.3c-0.3,0.1-0.6,0.2-1,0.2c-0.4,0.1-1,0.1-1.6,0.1c-0.6,0-1.2,0-1.6-0.1c-0.4-0.1-0.8-0.1-1.1-0.2
		c-0.3-0.1-0.4-0.2-0.5-0.3c-0.1-0.1-0.2-0.3-0.2-0.5v-44.4c0-0.2,0.1-0.4,0.2-0.5c0.1-0.1,0.3-0.3,0.5-0.3s0.6-0.2,1.1-0.2
		c0.4-0.1,1-0.1,1.6-0.1c0.7,0,1.2,0,1.6,0.1s0.8,0.1,1,0.2c0.3,0.1,0.4,0.2,0.5,0.3c0.1,0.1,0.2,0.3,0.2,0.5v18.5h23v-18.5
		c0-0.2,0.1-0.4,0.2-0.5s0.3-0.3,0.5-0.3c0.3-0.1,0.6-0.2,1-0.2s1-0.1,1.6-0.1c0.6,0,1.2,0,1.6,0.1s0.8,0.1,1,0.2
		c0.3,0.1,0.4,0.2,0.5,0.3c0.1,0.1,0.2,0.3,0.2,0.5V254.2z"/>
	<path class="st2" d="M1009.3,252.5c0,0.4,0,0.8-0.1,1.1c-0.1,0.3-0.1,0.6-0.3,0.8c-0.1,0.2-0.3,0.4-0.5,0.5
		c-0.2,0.1-0.4,0.1-0.6,0.1h-24.3c-0.6,0-1.2-0.2-1.7-0.6c-0.5-0.4-0.8-1-0.8-1.9v-41.2c0-0.9,0.3-1.6,0.8-1.9
		c0.5-0.4,1.1-0.6,1.7-0.6h24c0.2,0,0.4,0,0.6,0.1c0.2,0.1,0.3,0.3,0.4,0.5s0.2,0.5,0.3,0.8c0.1,0.3,0.1,0.7,0.1,1.2
		c0,0.4,0,0.8-0.1,1.1c-0.1,0.3-0.2,0.6-0.3,0.8c-0.1,0.2-0.2,0.4-0.4,0.4c-0.2,0.1-0.4,0.1-0.6,0.1h-19.8v14.5h17
		c0.2,0,0.4,0.1,0.6,0.2c0.2,0.1,0.3,0.3,0.4,0.4c0.1,0.2,0.2,0.5,0.3,0.8c0.1,0.3,0.1,0.7,0.1,1.2c0,0.4,0,0.8-0.1,1.1
		c-0.1,0.3-0.1,0.6-0.3,0.8c-0.1,0.2-0.3,0.3-0.4,0.4s-0.4,0.1-0.6,0.1h-17V250h20.1c0.2,0,0.4,0,0.6,0.1c0.2,0.1,0.3,0.2,0.5,0.4
		c0.1,0.2,0.2,0.5,0.3,0.8C1009.3,251.7,1009.3,252.1,1009.3,252.5z"/>
</g>
<g class="st1">
	<path class="st2" d="M780.3,671c0,0.1,0,0.3-0.1,0.4c-0.1,0.1-0.2,0.2-0.4,0.3c-0.2,0.1-0.4,0.1-0.7,0.2c-0.3,0-0.6,0.1-1.1,0.1
		c-0.4,0-0.8,0-1-0.1c-0.3,0-0.5-0.1-0.7-0.2c-0.2-0.1-0.3-0.2-0.4-0.3c-0.1-0.1-0.1-0.2-0.1-0.4v-41c0-0.1,0-0.2,0.1-0.4
		c0.1-0.1,0.2-0.2,0.4-0.3s0.4-0.1,0.7-0.2c0.3,0,0.6-0.1,1-0.1c0.4,0,0.8,0,1.1,0.1c0.3,0,0.5,0.1,0.7,0.2c0.2,0.1,0.3,0.2,0.4,0.3
		c0.1,0.1,0.1,0.2,0.1,0.4V671z"/>
	<path class="st2" d="M800.4,671c0,0.1,0,0.3-0.1,0.4c-0.1,0.1-0.2,0.2-0.4,0.3c-0.2,0.1-0.4,0.1-0.7,0.2c-0.3,0-0.6,0.1-1.1,0.1
		c-0.4,0-0.8,0-1-0.1c-0.3,0-0.5-0.1-0.7-0.2c-0.2-0.1-0.3-0.2-0.4-0.3c-0.1-0.1-0.1-0.2-0.1-0.4v-41c0-0.1,0-0.2,0.1-0.4
		c0.1-0.1,0.2-0.2,0.4-0.3s0.4-0.1,0.7-0.2c0.3,0,0.6-0.1,1-0.1c0.4,0,0.8,0,1.1,0.1c0.3,0,0.5,0.1,0.7,0.2c0.2,0.1,0.3,0.2,0.4,0.3
		c0.1,0.1,0.1,0.2,0.1,0.4V671z"/>
	<path class="st2" d="M844.2,631.1c0,0.3,0,0.5-0.1,0.8c0,0.2-0.1,0.4-0.2,0.5c-0.1,0.1-0.2,0.3-0.4,0.3c-0.1,0.1-0.3,0.1-0.5,0.1
		h-13.8V671c0,0.1,0,0.3-0.1,0.4s-0.2,0.2-0.4,0.3c-0.2,0.1-0.4,0.1-0.7,0.2c-0.3,0-0.6,0.1-1,0.1c-0.4,0-0.8,0-1-0.1
		c-0.3,0-0.5-0.1-0.7-0.2c-0.2-0.1-0.3-0.2-0.4-0.3c-0.1-0.1-0.1-0.2-0.1-0.4v-38.1h-13.8c-0.2,0-0.4,0-0.5-0.1
		c-0.1-0.1-0.2-0.2-0.3-0.3c-0.1-0.1-0.2-0.3-0.2-0.5c0-0.2-0.1-0.5-0.1-0.8c0-0.3,0-0.6,0.1-0.8c0-0.2,0.1-0.4,0.2-0.6
		c0.1-0.2,0.2-0.3,0.3-0.3c0.1-0.1,0.3-0.1,0.5-0.1h32c0.2,0,0.3,0,0.5,0.1c0.1,0.1,0.3,0.2,0.4,0.3c0.1,0.2,0.2,0.3,0.2,0.6
		C844.2,630.6,844.2,630.8,844.2,631.1z"/>
	<path class="st2" d="M900.7,670.9c0,0.2,0,0.3-0.1,0.4c0,0.1-0.2,0.2-0.3,0.3s-0.4,0.1-0.7,0.2c-0.3,0-0.7,0.1-1.1,0.1
		c-0.4,0-0.9,0-1.3-0.1c-0.4,0-0.8-0.1-1-0.3c-0.2-0.1-0.4-0.3-0.6-0.5l-18.7-21.7V671c0,0.1,0,0.3-0.1,0.4
		c-0.1,0.1-0.2,0.2-0.4,0.3c-0.2,0.1-0.4,0.1-0.7,0.2c-0.3,0-0.6,0.1-1.1,0.1c-0.4,0-0.8,0-1-0.1c-0.3,0-0.5-0.1-0.7-0.2
		c-0.2-0.1-0.3-0.2-0.4-0.3c-0.1-0.1-0.1-0.2-0.1-0.4v-41c0-0.1,0-0.2,0.1-0.4c0.1-0.1,0.2-0.2,0.4-0.3s0.4-0.1,0.7-0.2
		c0.3,0,0.6-0.1,1-0.1c0.4,0,0.8,0,1.1,0.1c0.3,0,0.5,0.1,0.7,0.2s0.3,0.2,0.4,0.3c0.1,0.1,0.1,0.2,0.1,0.4v19.2l17.9-19.2
		c0.1-0.2,0.3-0.3,0.5-0.4c0.2-0.1,0.4-0.2,0.6-0.3s0.5-0.1,0.8-0.1c0.3,0,0.6,0,1.1,0c0.4,0,0.8,0,1,0.1c0.3,0,0.5,0.1,0.6,0.2
		s0.3,0.2,0.3,0.3c0,0.1,0.1,0.2,0.1,0.3c0,0.2-0.1,0.5-0.2,0.7c-0.1,0.2-0.4,0.5-0.7,0.8L882,649.1l18,20.6
		c0.3,0.4,0.5,0.7,0.6,0.8C900.7,670.7,900.7,670.8,900.7,670.9z"/>
	<path class="st2" d="M944.5,670.3c0.1,0.3,0.2,0.6,0.2,0.8c0,0.2-0.1,0.4-0.2,0.5c-0.2,0.1-0.4,0.2-0.7,0.2c-0.3,0-0.7,0-1.2,0
		s-0.9,0-1.2,0c-0.3,0-0.5-0.1-0.7-0.1s-0.3-0.2-0.4-0.3c-0.1-0.1-0.2-0.2-0.2-0.4l-4.4-11.3h-20.3l-4.3,11.2c0,0.2-0.1,0.3-0.2,0.4
		c-0.1,0.1-0.2,0.2-0.4,0.3c-0.2,0.1-0.4,0.1-0.7,0.2c-0.3,0-0.7,0.1-1.1,0.1c-0.5,0-0.9,0-1.3-0.1c-0.3,0-0.6-0.1-0.7-0.2
		c-0.2-0.1-0.2-0.3-0.2-0.5c0-0.2,0.1-0.5,0.2-0.8l16.2-40.3c0.1-0.2,0.2-0.3,0.3-0.4c0.1-0.1,0.3-0.2,0.6-0.3
		c0.2-0.1,0.5-0.1,0.8-0.1c0.3,0,0.7,0,1.1,0c0.4,0,0.8,0,1.1,0c0.3,0,0.6,0.1,0.8,0.1s0.4,0.2,0.5,0.3c0.1,0.1,0.2,0.3,0.3,0.4
		L944.5,670.3z M925.3,633.6L925.3,633.6l-8.8,22.8h17.7L925.3,633.6z"/>
	<path class="st2" d="M988.4,669.7c0,0.4-0.1,0.7-0.2,1s-0.3,0.5-0.5,0.6c-0.2,0.2-0.4,0.3-0.7,0.3c-0.2,0.1-0.5,0.1-0.7,0.1h-0.9
		c-0.5,0-0.9-0.1-1.3-0.2c-0.4-0.1-0.8-0.3-1.1-0.6c-0.4-0.3-0.7-0.6-1.1-1.1c-0.4-0.5-0.8-1-1.2-1.8l-16.3-26.4
		c-0.8-1.3-1.6-2.6-2.5-4c-0.8-1.4-1.6-2.7-2.3-4h0c0,1.6,0,3.2,0,4.9s0,3.3,0,4.9V671c0,0.1,0,0.3-0.1,0.4
		c-0.1,0.1-0.2,0.2-0.4,0.3c-0.2,0.1-0.4,0.1-0.7,0.2c-0.3,0-0.6,0.1-1.1,0.1c-0.4,0-0.8,0-1-0.1c-0.3,0-0.5-0.1-0.7-0.2
		c-0.2-0.1-0.3-0.2-0.4-0.3c-0.1-0.1-0.1-0.2-0.1-0.4v-39.6c0-0.8,0.2-1.3,0.7-1.6c0.5-0.3,0.9-0.4,1.3-0.4h1.8c0.6,0,1,0,1.4,0.1
		c0.4,0.1,0.7,0.2,1,0.4c0.3,0.2,0.6,0.5,0.9,0.9c0.3,0.4,0.6,0.9,1,1.5l12.5,20.2c0.8,1.3,1.5,2.5,2.2,3.6c0.7,1.2,1.4,2.3,2.1,3.4
		c0.7,1.1,1.3,2.2,2,3.3c0.7,1.1,1.3,2.2,1.9,3.3h0c0-1.8,0-3.7,0-5.7c0-2,0-3.9,0-5.7v-24.6c0-0.1,0-0.2,0.1-0.4
		c0.1-0.1,0.2-0.2,0.4-0.3c0.2-0.1,0.4-0.1,0.7-0.2c0.3,0,0.6,0,1.1,0c0.4,0,0.7,0,1,0c0.3,0,0.5,0.1,0.7,0.2
		c0.2,0.1,0.3,0.2,0.4,0.3c0.1,0.1,0.1,0.2,0.1,0.4V669.7z"/>
	<path class="st2" d="M1030.8,641.4c0,2-0.4,3.8-1.1,5.4c-0.7,1.6-1.8,3-3.1,4.2c-1.4,1.2-3,2.1-5,2.7c-2,0.7-4.3,1-7.1,1h-6V671
		c0,0.1,0,0.3-0.1,0.4c-0.1,0.1-0.2,0.2-0.4,0.3c-0.2,0.1-0.4,0.1-0.7,0.2c-0.3,0-0.6,0.1-1.1,0.1c-0.4,0-0.8,0-1-0.1
		c-0.3,0-0.5-0.1-0.7-0.2c-0.2-0.1-0.3-0.2-0.4-0.3c-0.1-0.1-0.1-0.2-0.1-0.4v-39.6c0-0.8,0.2-1.3,0.7-1.6c0.5-0.3,0.9-0.4,1.3-0.4
		h9.4c0.9,0,1.8,0,2.7,0.1s1.9,0.2,3.1,0.5s2.4,0.7,3.6,1.4s2.3,1.5,3.1,2.5c0.9,1,1.5,2.1,2,3.4
		C1030.5,638.5,1030.8,639.9,1030.8,641.4z M1026.1,641.8c0-1.8-0.4-3.4-1.2-4.7s-1.7-2.2-2.9-2.8s-2.3-1-3.5-1.2
		c-1.2-0.2-2.4-0.2-3.5-0.2h-6.6v18.4h6.3c2,0,3.7-0.2,5.1-0.7s2.5-1.1,3.4-1.9c0.9-0.8,1.6-1.8,2.1-3
		C1025.9,644.4,1026.1,643.2,1026.1,641.8z"/>
	<path class="st2" d="M1076.7,656c0,2.6-0.4,4.9-1.2,6.9s-1.9,3.7-3.4,5.1c-1.5,1.4-3.3,2.4-5.4,3.1c-2.1,0.7-4.4,1.1-7,1.1
		c-2.4,0-4.5-0.3-6.5-1c-2-0.7-3.7-1.7-5.2-3c-1.4-1.3-2.6-3-3.4-4.9s-1.2-4.2-1.2-6.8V630c0-0.1,0-0.2,0.1-0.4s0.2-0.2,0.4-0.3
		c0.2-0.1,0.4-0.1,0.7-0.2c0.3,0,0.6-0.1,1-0.1c0.4,0,0.8,0,1,0.1c0.3,0,0.5,0.1,0.7,0.2s0.3,0.2,0.4,0.3c0.1,0.1,0.1,0.2,0.1,0.4
		v25.9c0,2.1,0.3,4,0.8,5.6c0.6,1.6,1.4,2.9,2.4,4c1.1,1.1,2.3,1.9,3.9,2.4c1.5,0.5,3.2,0.8,5.1,0.8c1.9,0,3.7-0.3,5.2-0.8
		c1.5-0.5,2.8-1.3,3.8-2.3c1-1,1.9-2.3,2.4-3.9c0.6-1.6,0.8-3.4,0.8-5.5V630c0-0.1,0-0.2,0.1-0.4s0.2-0.2,0.4-0.3s0.4-0.1,0.7-0.2
		c0.3,0,0.6-0.1,1-0.1c0.4,0,0.8,0,1,0.1c0.3,0,0.5,0.1,0.7,0.2s0.3,0.2,0.4,0.3c0.1,0.1,0.1,0.2,0.1,0.4V656z"/>
	<path class="st2" d="M1121.3,670.9c0,0.2,0,0.3-0.1,0.4c-0.1,0.1-0.2,0.2-0.3,0.3c-0.2,0.1-0.4,0.1-0.7,0.2c-0.3,0-0.7,0.1-1.1,0.1
		c-0.4,0-0.7,0-1,0c-0.3,0-0.5-0.1-0.7-0.2c-0.2-0.1-0.3-0.2-0.5-0.4c-0.1-0.2-0.2-0.4-0.3-0.6l-4.3-10.3c-0.5-1.2-1-2.2-1.6-3.3
		c-0.6-1-1.3-1.9-2.1-2.7c-0.8-0.8-1.8-1.3-2.9-1.8c-1.1-0.4-2.5-0.7-4.1-0.7h-4.8V671c0,0.1,0,0.3-0.1,0.4
		c-0.1,0.1-0.2,0.2-0.4,0.3c-0.2,0.1-0.4,0.1-0.7,0.2c-0.3,0-0.6,0.1-1.1,0.1c-0.4,0-0.8,0-1-0.1c-0.3,0-0.5-0.1-0.7-0.2
		c-0.2-0.1-0.3-0.2-0.4-0.3c-0.1-0.1-0.1-0.2-0.1-0.4v-39.6c0-0.8,0.2-1.3,0.7-1.6c0.5-0.3,0.9-0.4,1.3-0.4h8.7c1.1,0,2.1,0,2.8,0.1
		c0.8,0.1,1.4,0.1,2.1,0.2c1.8,0.3,3.3,0.7,4.6,1.4c1.3,0.6,2.4,1.4,3.3,2.3c0.9,0.9,1.5,2,1.9,3.1c0.4,1.2,0.6,2.4,0.6,3.8
		c0,1.4-0.2,2.6-0.6,3.7c-0.4,1.1-1,2.1-1.8,2.9c-0.8,0.8-1.7,1.6-2.8,2.2c-1.1,0.6-2.3,1.1-3.6,1.5c0.8,0.3,1.5,0.7,2.1,1.2
		c0.6,0.5,1.2,1.1,1.8,1.7c0.5,0.7,1,1.5,1.5,2.3c0.5,0.9,1,1.9,1.4,3l4.3,9.9c0.3,0.8,0.5,1.3,0.6,1.6
		C1121.2,670.6,1121.3,670.8,1121.3,670.9z M1113.6,640.6c0-1.8-0.4-3.3-1.3-4.6c-0.9-1.3-2.4-2.2-4.4-2.7c-0.7-0.2-1.4-0.3-2.3-0.4
		c-0.8-0.1-1.9-0.1-3.2-0.1h-5.7v15.5h6.7c1.8,0,3.3-0.2,4.6-0.6s2.4-1,3.2-1.7c0.8-0.7,1.5-1.5,1.9-2.5S1113.6,641.7,1113.6,640.6z
		"/>
</g>
</svg>
