<?xml version="1.0" encoding="utf-8"?>
<!-- Generator: Adobe Illustrator 24.3.0, SVG Export Plug-In . SVG Version: 6.00 Build 0)  -->
<svg version="1.1" id="Layer_1" xmlns="http://www.w3.org/2000/svg" xmlns:xlink="http://www.w3.org/1999/xlink" x="0px" y="0px"
	 viewBox="0 0 1895.9 812" style="enable-background:new 0 0 1895.9 812;" xml:space="preserve">
<style type="text/css">
	.st0{fill:#AAD7CC;}
	.st1{display:none;}
	.st2{display:inline;}
</style>
<path class="st0" d="M243.4,292.4c-1.9,1.5-9.2,7.1-10.7,16.2c-1.3,7.9,3,10.2,1.5,19.3c-0.9,5.8-3.6,10.2-7,15.8
	c-4.3,7-5.6,6.6-8.1,11.4c-4.3,8.3-4.1,16.6-4.1,21.7c0.1,3.8,0.4,13.1,5.2,22.4c2.2,4.2,5.6,8.7,6.8,10.3c3.2,4.3,4.8,6.4,6.2,7.8
	c1.3,1.3,2.9,2.6,4.3,5.2c0.4,0.7,1.2,2.1,1.7,3.8c0.4,1.4,0.8,4.2-2,11.7c-0.4,1-1.3,3.3-4.2,9.4c-2.5,5.2-3.8,7.7-4.7,9.1
	c-3.7,5.5-8.1,8.4-11.5,10.6c-4.7,3.1-9.3,4.9-13.2,6c-0.8,0.2-1.4,0.7-1.9,1.4c-0.4,0.7-0.7,1.3-1,1.9c-4,8.7-0.3,18.4,1.1,21.7
	c0,0.1,0.1,0.2,0.2,0.3c7,12.6,11.9,15.2,15.2,14.9c0.9-0.1,1.8-0.4,3.3-0.2c5.4,0.6,8.9,5.9,10,7.5c7,10,22.3,20.6,29.6,24.4
	c9.9,5.1,19,4.7,30.7,4.2c12.3-0.5,13.2-3,35.3-7c14.2-2.6,21.5-3.9,32-3.7c9.2,0.1,12.3,1.2,27.7,2.2c8.8,0.6,16.1,0.7,21.3,0.8
	c1,0,1.9,0.5,2.5,1.3c2.2,3.2,5.6,6.9,10.4,9.2c5.6,2.7,9.5,1.6,25.3-0.8c21.3-3.3,23-2.8,36.4-5.6c4-0.9,8.5-3.7,15.3-3.6
	c5,0,5.9,1.2,13,2.2c6.7,0.9,11.7,0.6,18.5,0.2c9.7-0.6,9.2-1.4,18.2-2.1c11.1-0.8,10.4,0.7,22.9,0c9.6-0.5,11.8-1.5,17.3-0.2
	c5.3,1.3,5.8,2.8,11.5,3.6c3.5,0.5,6.9,0.3,13.8,0c5.2-0.3,5.8-0.5,8.8-0.6c7.5-0.3,13,0.6,16.2,1c15.1,2.1,17.1-1.2,35.5,0.6
	c13.4,1.3,15.8,3.4,26,2.7c4.8-0.4,7.1-1,14.1-1.3c9.6-0.4,11,0.6,18.1,0.4c14-0.3,16-4.6,26.8-4.1c8.6,0.3,14.5,3.3,18.5,5
	c10.3,4.3,27,7.5,54.5,1.9c0.8-0.2,1.6-0.7,2-1.5c0.4-0.6,0.9-1.2,1.6-1.6c1.1-0.7,2.1-0.7,2.5-0.7c9.9-0.5,17.6-3.6,30,0.3
	c3.5,1.1,2.8,1.3,6.4,2.5c3.3,1.1,12.8,3.9,34,0.7c3.9-0.6,18.3-2.9,29.4-2.7c2.3,0,6.3,0.2,8.4,3.1c2,2.7,1.1,6.2,2.9,7.1
	c1.7,0.9,4-1.5,6.1-3c2.5-1.7,5.9-3,18.9-1.9c12.2,1,15.3,2.7,23.5,3.5c5.4,0.6,13.1,0.8,22.7-0.8c0.8-0.1,1.6-0.7,2.1-1.4l0.7-1.1
	c0.6-1,1.7-1.5,2.8-1.4c5.5,0.5,13.4,1,22.8,0.7c14-0.4,19.1-2.2,28.3-1.9c7.3,0.2,17.8,1.7,30.6,7.7c1,0.5,2.2,0.4,3.2-0.4
	c0.7-0.6,1.6-1.2,2.6-1.9c1.8-1.2,5-3.2,9.3-3.8c1.1-0.2,9.2-1.2,15.2,4.4c0.6,0.5,1.1,1.1,1.5,1.6c0.7,0.8,1.7,1.3,2.7,1.1
	c2.9-0.4,6.8-0.8,11.3-1c14.5-0.6,22.6,1.5,32.9,2.7c24.7,2.9,22.6-3.8,45.2-0.9c0,0,19.1,2.4,30.9-1.8c3.7-1.3,3.7-1.3,3.7-1.3
	c4.2-1.5,4.6-1.8,5.4-1.9c3.9-0.6,7.5,4,8.7,5.3c6.5,7.2,21.1,4.7,39.4,3.3c9-0.7,22.3-1.4,39.1-1c11.6-0.4,21-0.3,27.6-0.1
	c12.4,0.3,18.7,1.1,29.8,0c6.4-0.6,6.2-1,14.6-1.9c5.8-0.6,14.4-1.5,25-1.3c7,0.1,16.1,0.7,26.8,2.5c0.4,0.1,0.8,0.1,1.2-0.1
	c3.1-0.8,6.5-1.6,10-2.2c13.6-2.3,25.8-1.7,35.6-0.2c0.1,0,0.2,0,0.3,0c7.6,0.4,15.3,0.8,22.9,1.2c1.3,0.1,2.6-0.7,3-2.1
	c0.2-0.6,0.5-1.2,0.9-1.8c3.2-5.3,10.8-5.5,18.1-5.5c7.7,0,17.6,0.3,29.3,1.3c1,0.1,2-0.3,2.6-1.2c0.9-1.2,2.1-2.5,3.8-3.5
	c4.7-3.1,9.2-1.8,12.8-2.4c8.4-1.2,13.3-12,16-17c5-8.9,15.2-20.7,38.7-32.2c0.9-0.5,1.6-1.4,1.8-2.5c1-6.2,1.6-13.5,1.4-21.8
	c-0.1-4.6-0.5-8.9-1.1-12.8c-0.1-0.7-0.4-1.3-0.8-1.8c-1-1.1-2.2-2.8-2.9-4.9c-1.7-4.8-0.2-8.8,1-13.9c0,0,1.1-4.4,1.2-36.7
	c0-0.4,0-1.2-0.4-2.1c-1-2.2-3.6-2.8-4.3-3c-4.7-1.5-7.9-14.1-8.7-23.1c-1.1-11.5,1.4-21.2,3.7-27.5c0.1-0.3,0.2-0.6,0.2-1
	c0.6-9.1,0.7-16.6,0.5-22.3c-0.4-13.5-1.7-16.6-3.7-18.8c-1.4-1.5-4.4-3-10.4-6.1c-3-1.6-4.6-2.4-6.4-2.8c-4.5-1.2-6.3,0.2-10.8-0.1
	c-6.2-0.4-6.2-3.2-11.9-3.8c-5.9-0.7-6.4,2.3-14.4,3c-7.4,0.6-8.8-1.8-15.3-0.9c-6.1,0.8-9.1,3.5-12.7,5.2
	c-11.2,5.1-23.6-2.2-32.6-6.1c-8.9-3.8-23.3-4.6-52.2-6.1c-17.7-0.9-66.6-2-89.8,2.7c-3.7,0.8-9.9,2.3-17.4,0.3
	c-6.4-1.7-8.1-4.4-15.2-6.1c-4.9-1.1-8-0.8-15.5-0.3c-8,0.5-15.9,0.4-23.9,0.9c-30.8,2.1-41.6-3.8-73.9-0.4
	c-19.4,2-20.8,4.7-31.5,3.3c-14.6-2-27.3-3.7-34.5-5.6c-0.6-0.2-2.4-0.6-4.7-0.4c-5.1,0.4-8.5,3.8-9.3,4.4c-6.8,6-29.4-0.1-38.2-2.1
	c-7.2-1.6-36.7-8.2-65.2,1.3c-10,3.4-15.2,7.2-26,6.9c-10.1-0.2-14-3.7-26.8-4.7c-10.7-0.9-11.3,1.3-23.1,1.5
	c-17.9,0.2-33.5-4.7-45-8.3c-11.8-3.7-16.8-6.5-25.7-5.3c-6.4,0.8-6.7,2.6-17,5.6c-4.5,1.3-15.4,4.4-28.7,4.1
	c-12.7-0.2-13.9-3.2-24.2-1.9c-7.8,1-9.2,2.9-17.7,4.7c-7.6,1.6-10.8,0.9-25.3,0.7c-21.9-0.3-23.2,1.1-43.5,0.4
	c-6.3-0.2-3.9-0.3-18.5-1c-28.8-1.5-32.8-1-42.9-2.4c-6.7-0.9-16.5-2.7-28.2-6.6c-0.9-0.3-1.8-0.2-2.6,0.4
	c-5.9,3.9-10.8,5.9-13.8,6.9c-4.8,1.6-6.7,1.4-8.1,0.9c-2.6-0.9-3.4-2.6-5.4-2.4c-1.4,0.2-1.6,1.1-5.2,4.1c-2.1,1.8-3.2,2.7-4.1,3
	c-3.5,1.1-7-1.6-7.6-2.1c-4.4-3.4-3.9-7.7-6.6-8.3c-2-0.4-2.9,1.8-7.3,4.4c0,0-2.4,1.4-7.6,3.3c-14.5,5-40.3-0.6-40.3-0.6
	c-9.5-2.1-22.3-5.7-37-12.5c-0.7-0.3-1.5-0.4-2.2-0.1c-1.4,0.5-3.8,1.4-6.6,2.4c-17.4,6.3-22.3,8.3-29.4,8c-3.2-0.1-2.1-0.5-7.2-1
	c-7.4-0.7-12.1-0.1-25.8,1.5c-15.9,1.9-18.3,2.1-22.1,2.2c-6.9,0.2-6.4-0.2-14.1-0.1c-2.4,0-14.1,0.2-29.7,2.7
	c-7.8,1.2-9,1.8-14.2,2.7c-15.9,2.6-27.6,0.9-37.1,0c-27-2.4-25.3,3.2-50.3,1.2C269.2,293,256.1,282.6,243.4,292.4z"/>
<g>
	<path d="M452.5,268.2c4.9,0,9.7,0.1,14.6,0.4c8.3,0.6,16.2,1.5,23.8,2.8c7.6,1.3,13.3,2.4,17.2,3.4c3.9,1,7.4,1.8,10.7,2.4
		c3.3,0.6,5.7,0.6,7.3,0c1.6-0.6,2.9-2,4.1-4.3c0.6-1.7,1.7-2.4,3.4-2.1c1.7,0.3,2.6,1.4,2.6,3.4v55.4c0,2-1,3.2-3,3.4
		c-1.7,0-2.9-0.9-3.4-2.6c-2.6-9.4-5.8-17.5-9.7-24.3c-3.9-6.7-7.9-12.1-12.2-16.1c-4.3-4-9.1-7.2-14.4-9.7c-5.3-2.4-10.3-4-15-4.7
		c-4.7-0.7-9.8-1.1-15.2-1.1c-10.3,0-20.3,2.6-30.1,7.7c-9.7,5.2-18.8,12.7-27.1,22.5c-8.3,9.9-15,23-20,39.5
		c-5,16.5-7.5,34.9-7.5,55.4c0,20.5,2.4,38.8,7.1,55c4.7,16.2,11.1,29.1,19.1,38.6c8,9.6,16.8,16.8,26.4,21.7
		c9.6,4.9,19.4,7.3,29.4,7.3c7.4-0.3,12.8-2.5,16.1-6.7c3.3-4.1,4.9-10.5,4.9-19.1V458c0-4.3-0.1-8.1-0.4-11.4
		c-0.3-3.3-0.7-6.4-1.3-9.2c-0.6-2.9-1.4-5.3-2.6-7.3c-1.1-2-2.5-3.7-4.1-5.2c-1.6-1.4-3.5-2.6-5.8-3.4c-2.3-0.9-5-1.4-8.2-1.7
		c-2.3-0.6-3.4-1.7-3.4-3.4c0-2,1.1-3,3.4-3h104.8c2,0,3,1,3,3c0,2-1.1,3.2-3.4,3.4c-8,1.1-13.7,4.7-17.2,10.5
		c-3.4,5.9-5.2,15.1-5.2,27.7v29.2v37.8c0,2.3-1,3.4-3,3.4c-0.9,0-1.4-0.1-1.7-0.4c-0.3-0.3-0.6-0.9-1.1-1.7
		c-0.4-0.9-0.6-1.4-0.6-1.7c-1.7-2.6-6.2-3.9-13.5-3.9c-7.3,0-15.2,0.8-23.6,2.4c-8.4,1.6-17.6,3.3-27.5,5.2
		c-9.9,1.9-17.1,2.8-21.7,2.8c-12.6,0-24.2-1.3-34.8-3.9c-28.3-6.9-51.3-22.1-68.9-45.7c-17.6-23.6-26.4-50.9-26.4-81.8
		c0-30.1,8.4-56.7,25.3-79.9c16.9-23.2,39.1-38.6,66.6-46.4C422.7,269.9,436.7,268.2,452.5,268.2z"/>
	<path d="M650,362.2c51.8-2.6,81.2,17.6,88,60.5l6.4,55.4c3.7,22.6,10.6,34.8,20.6,36.5c0.3,0.3,1.4,0.4,3.2,0.2
		c1.9-0.1,3.1-0.2,3.6-0.2c1.7,0,2.7,0.8,3,2.4c0.3,1.6-0.3,2.8-1.7,3.7c-12,7.2-25.6,10.7-40.8,10.7c-21.5,0-35.8-7.2-42.9-21.5
		c-2.6,2.9-5.4,5.4-8.4,7.5c-3,2.1-6.5,4.2-10.5,6.2c-4,2-9.1,3.7-15.2,5.2c-6.2,1.4-12.8,2.1-20,2.1c-10.3,0-19.7-1.3-28.1-3.9
		c-8.4-2.6-15.6-7.2-21.5-13.7c-5.9-6.6-8.8-15-8.8-25.3c0-10,2.1-18.3,6.4-24.9c4.3-6.6,10-11.3,17.2-14.2c7.2-2.9,14.4-5,21.7-6.4
		c7.3-1.4,15.2-2.8,23.6-4.1c8.4-1.3,14.8-2.9,19.1-4.9c5.2-2.3,8.5-5.3,10.1-9c1.6-3.7,1.9-8.9,1.1-15.5c-0.6-6-1.8-11.7-3.6-17.2
		c-1.9-5.4-5.2-10.7-10.1-15.7c-4.9-5-10.6-7.5-17.2-7.5c-6.3,0-10.9,1.5-14,4.5c-3,3-4.5,6.7-4.5,10.9c0,2.9,0.9,5.4,2.8,7.7
		c1.9,2.3,3.9,4.2,6.2,5.6c2.3,1.4,4.2,3.7,5.8,6.9c1.6,3.2,2,6.7,1.3,10.7c-0.7,4-2.7,7.5-6,10.5c-3.3,3-7,4.9-11.2,5.8
		c-4.2,0.9-8.4,1-12.9,0.4c-4.4-0.6-8.4-2.4-12-5.6c-3.6-3.1-5.9-7.2-7.1-12c-3.7-13.2-0.6-24.8,9.4-35
		C613.2,369,628.8,363.4,650,362.2z M678.7,430.9c-2.9,4-6.6,7.2-11.2,9.4c-0.9,0.6-3.2,2-7.1,4.3c-3.9,2.3-6.5,3.9-7.9,4.9
		c-1.4,1-3.7,2.8-6.9,5.4c-3.2,2.6-5.4,4.9-6.7,7.1c-1.3,2.1-2.5,5-3.6,8.6c-1.1,3.6-1.7,7.4-1.7,11.4c0,16,6.6,26.6,19.8,31.8
		c10.6,4,19.5,2.9,26.6-3.4c4.9-4,6.9-9.3,6-15.9L678.7,430.9z"/>
	<path d="M873.3,271.6c1.1-1.1,2.4-1.3,3.9-0.4c0.9,0.6,1.3,1.6,1.3,3v209.1c0,12.9,1.7,22.3,5.2,28.1c3.4,5.9,9.2,9.4,17.2,10.5
		c2.3,0.3,3.4,1.3,3.4,3c0,2.3-1,3.4-3,3.4H796.4c-2.3,0-3.4-1.1-3.4-3.4c0-1.7,1.1-2.7,3.4-3c8.9-1.1,14.8-4.6,17.8-10.3
		c3-5.7,4.5-15.2,4.5-28.3V350.6c0-13.7-1.7-24.1-4.9-31.1c-3.3-7-8.7-11.2-16.1-12.7c-2.6-0.6-3.9-1.7-3.9-3.4c0-2,1.3-3,3.9-3
		c12.3-0.6,24.8-3.2,37.4-7.9c12.6-4.7,21.3-8.7,26.2-12C866.1,277.1,870.1,274.2,873.3,271.6z"/>
	<path d="M987,362.2c51.8-2.6,81.2,17.6,88,60.5l6.4,55.4c3.7,22.6,10.6,34.8,20.6,36.5c0.3,0.3,1.4,0.4,3.2,0.2
		c1.9-0.1,3.1-0.2,3.6-0.2c1.7,0,2.7,0.8,3,2.4c0.3,1.6-0.3,2.8-1.7,3.7c-12,7.2-25.6,10.7-40.8,10.7c-21.5,0-35.8-7.2-42.9-21.5
		c-2.6,2.9-5.4,5.4-8.4,7.5s-6.5,4.2-10.5,6.2c-4,2-9.1,3.7-15.2,5.2c-6.2,1.4-12.8,2.1-20,2.1c-10.3,0-19.7-1.3-28.1-3.9
		c-8.4-2.6-15.6-7.2-21.5-13.7c-5.9-6.6-8.8-15-8.8-25.3c0-10,2.1-18.3,6.4-24.9c4.3-6.6,10-11.3,17.2-14.2c7.2-2.9,14.4-5,21.7-6.4
		c7.3-1.4,15.2-2.8,23.6-4.1c8.4-1.3,14.8-2.9,19.1-4.9c5.2-2.3,8.5-5.3,10.1-9c1.6-3.7,1.9-8.9,1.1-15.5c-0.6-6-1.8-11.7-3.7-17.2
		c-1.9-5.4-5.2-10.7-10.1-15.7c-4.9-5-10.6-7.5-17.2-7.5c-6.3,0-10.9,1.5-14,4.5c-3,3-4.5,6.7-4.5,10.9c0,2.9,0.9,5.4,2.8,7.7
		c1.9,2.3,3.9,4.2,6.2,5.6c2.3,1.4,4.2,3.7,5.8,6.9c1.6,3.2,2,6.7,1.3,10.7c-0.7,4-2.7,7.5-6,10.5c-3.3,3-7,4.9-11.2,5.8
		c-4.2,0.9-8.4,1-12.9,0.4c-4.4-0.6-8.4-2.4-12-5.6c-3.6-3.1-5.9-7.2-7.1-12c-3.7-13.2-0.6-24.8,9.4-35
		C950.2,369,965.8,363.4,987,362.2z M1015.8,430.9c-2.9,4-6.6,7.2-11.2,9.4c-0.9,0.6-3.2,2-7.1,4.3c-3.9,2.3-6.5,3.9-7.9,4.9
		c-1.4,1-3.7,2.8-6.9,5.4c-3.2,2.6-5.4,4.9-6.7,7.1c-1.3,2.1-2.5,5-3.6,8.6c-1.1,3.6-1.7,7.4-1.7,11.4c0,16,6.6,26.6,19.8,31.8
		c10.6,4,19.5,2.9,26.6-3.4c4.9-4,6.9-9.3,6-15.9L1015.8,430.9z"/>
	<path d="M1133.9,362.2h102.2c3.4,0,5.2,1,5.2,3c0,1.7-1.3,2.9-3.9,3.4c-9.2,2-9.6,9.4-1.3,22.3c1.7,2.3,8.3,11,19.8,26.2l6,7.7
		l30.5-29.2c6.3-8.3,8.8-14.7,7.5-19.3c-1.3-4.6-5.2-7.2-11.8-7.7c-2.3-0.3-3.4-1.4-3.4-3.4c0.3-2,1.4-3,3.4-3h58.4
		c2.3,0,3.4,1,3.4,3c0,2-1.1,3.2-3.4,3.4c-10.9,1.7-24.5,9.4-40.8,23.2l-39.5,37.8l16.3,21c2.3,2.6,5.6,6.7,10.1,12.5
		c4.4,5.7,8,10.3,10.7,13.7c2.7,3.4,6.2,7.7,10.3,12.7c4.1,5,7.6,9.1,10.3,12.2c2.7,3.2,5.6,6.3,8.6,9.4c3,3.2,5.6,5.7,7.9,7.5
		c2.3,1.9,4.1,2.9,5.6,3.2c2.6,0.6,3.9,1.6,3.9,3c0,2.3-1.3,3.4-3.9,3.4h-102.2c-3.4,0-5.2-1.1-5.2-3.4c0-1.4,1.3-2.4,3.9-3
		c9.2-2,9.6-9.4,1.3-22.3c-1.7-2.6-8.3-11.3-19.8-26.2l-6-7.7l-30.5,29.2c-6.3,8.3-8.9,14.7-7.7,19.3c1.1,4.6,5.2,7.2,12,7.7
		c2,0.3,3,1.3,3,3c0,2.3-1,3.4-3,3.4h-58.4c-2.3,0-3.4-1.1-3.4-3.4c0-1.7,1.1-2.7,3.4-3c10.9-1.7,24.5-9.4,40.8-23.2l39.5-38.2
		l-39.1-49.4c-6.3-8-10.7-13.6-13.1-16.7c-2.4-3.1-5.7-7.1-9.9-11.8c-4.2-4.7-7.6-8.1-10.3-10.1c-2.7-2-5.3-3.3-7.7-3.9
		c-2.4-0.6-3.6-1.7-3.6-3.4C1130,363.2,1131.3,362.2,1133.9,362.2z"/>
	<path d="M1371.7,362.2h94.5c3.4,0,5.2,1,5.2,3c0,1.7-1.3,2.9-3.9,3.4c-3.7,1.1-6.4,3-7.9,5.6c-1.6,2.6-2,5.9-1.3,10.1
		c0.7,4.2,1.5,7.7,2.4,10.7c0.9,3,2.3,6.9,4.3,11.8l32.2,73.4l29.6-76.9c8.9-23.2,6.6-34.8-6.9-34.8c-2.3-0.3-3.4-1.4-3.4-3.4
		c0.3-2,1.4-3,3.4-3h53.2c2.3,0,3.4,1,3.4,3c0,2-1.1,3.2-3.4,3.4c-9.7,0.3-17.6,3.2-23.6,8.8c-6,5.6-11.7,15.5-17.2,29.8
		l-62.7,162.3c-6,14.9-12.8,25.2-20.4,30.9c-7.6,5.7-16.5,8.9-26.8,9.4c-12,0.3-23-4.2-32.8-13.5c-9.9-9.3-14.1-21.5-12.7-36.7
		c0.9-8.3,4.2-14.7,9.9-19.3c5.7-4.6,12.3-6.9,19.8-6.9c7.2-0.3,13.1,1.4,17.8,5.2c4.7,3.7,7.1,9,7.1,15.9c0,2.9-0.9,6.4-2.8,10.5
		c-1.9,4.1-3.2,7.4-3.9,9.7c-0.7,2.3-0.1,5.6,1.9,9.9c4.9,5.7,11.3,6.5,19.3,2.4c8-4.2,13.9-10.8,17.6-20l3.4-8.2l-68.3-152.4
		c-3.2-6.6-5.1-10.6-5.8-12c-0.7-1.4-1.9-3.7-3.6-6.9c-1.7-3.1-3.2-5.6-4.5-7.3c-1.3-1.7-2.7-3.6-4.3-5.6c-1.6-2-3.1-3.5-4.7-4.5
		c-1.6-1-2.9-1.5-4.1-1.5c-2.6-0.3-3.9-1.4-3.9-3.4C1367.9,363.2,1369.2,362.2,1371.7,362.2z"/>
</g>
<g class="st1">
	<path class="st2" d="M917.6,211.5c0,0.5,0,0.8-0.1,1.2c-0.1,0.3-0.1,0.6-0.3,0.8c-0.1,0.2-0.3,0.4-0.4,0.4
		c-0.2,0.1-0.4,0.1-0.6,0.1H902v40.1c0,0.2-0.1,0.4-0.2,0.5c-0.1,0.1-0.3,0.3-0.5,0.3c-0.3,0.1-0.6,0.2-1,0.2
		c-0.4,0.1-1,0.1-1.6,0.1c-0.6,0-1.2,0-1.6-0.1c-0.4-0.1-0.8-0.1-1.1-0.2c-0.3-0.1-0.4-0.2-0.5-0.3s-0.2-0.3-0.2-0.5v-40.1h-14.2
		c-0.2,0-0.4,0-0.6-0.1c-0.2-0.1-0.3-0.2-0.4-0.4c-0.1-0.2-0.2-0.5-0.3-0.8c-0.1-0.3-0.1-0.7-0.1-1.2c0-0.5,0-0.9,0.1-1.2
		c0.1-0.3,0.1-0.6,0.3-0.8s0.2-0.4,0.4-0.5c0.2-0.1,0.4-0.1,0.6-0.1h35.2c0.2,0,0.4,0,0.6,0.1c0.2,0.1,0.3,0.3,0.4,0.5
		s0.2,0.5,0.3,0.8C917.6,210.6,917.6,211,917.6,211.5z"/>
	<path class="st2" d="M964.5,254.2c0,0.2-0.1,0.4-0.2,0.5c-0.1,0.1-0.3,0.3-0.5,0.3c-0.3,0.1-0.6,0.2-1,0.2c-0.4,0.1-1,0.1-1.6,0.1
		c-0.7,0-1.2,0-1.6-0.1c-0.4-0.1-0.8-0.1-1-0.2c-0.3-0.1-0.4-0.2-0.5-0.3s-0.2-0.3-0.2-0.5v-20.5h-23v20.5c0,0.2-0.1,0.4-0.2,0.5
		c-0.1,0.1-0.3,0.3-0.5,0.3c-0.3,0.1-0.6,0.2-1,0.2c-0.4,0.1-1,0.1-1.6,0.1c-0.6,0-1.2,0-1.6-0.1c-0.4-0.1-0.8-0.1-1.1-0.2
		c-0.3-0.1-0.4-0.2-0.5-0.3c-0.1-0.1-0.2-0.3-0.2-0.5v-44.4c0-0.2,0.1-0.4,0.2-0.5c0.1-0.1,0.3-0.3,0.5-0.3s0.6-0.2,1.1-0.2
		c0.4-0.1,1-0.1,1.6-0.1c0.7,0,1.2,0,1.6,0.1s0.8,0.1,1,0.2c0.3,0.1,0.4,0.2,0.5,0.3c0.1,0.1,0.2,0.3,0.2,0.5v18.5h23v-18.5
		c0-0.2,0.1-0.4,0.2-0.5s0.3-0.3,0.5-0.3c0.3-0.1,0.6-0.2,1-0.2s1-0.1,1.6-0.1c0.6,0,1.2,0,1.6,0.1s0.8,0.1,1,0.2
		c0.3,0.1,0.4,0.2,0.5,0.3c0.1,0.1,0.2,0.3,0.2,0.5V254.2z"/>
	<path class="st2" d="M1009.3,252.5c0,0.4,0,0.8-0.1,1.1c-0.1,0.3-0.1,0.6-0.3,0.8c-0.1,0.2-0.3,0.4-0.5,0.5
		c-0.2,0.1-0.4,0.1-0.6,0.1h-24.3c-0.6,0-1.2-0.2-1.7-0.6c-0.5-0.4-0.8-1-0.8-1.9v-41.2c0-0.9,0.3-1.6,0.8-1.9
		c0.5-0.4,1.1-0.6,1.7-0.6h24c0.2,0,0.4,0,0.6,0.1c0.2,0.1,0.3,0.3,0.4,0.5s0.2,0.5,0.3,0.8c0.1,0.3,0.1,0.7,0.1,1.2
		c0,0.4,0,0.8-0.1,1.1c-0.1,0.3-0.2,0.6-0.3,0.8c-0.1,0.2-0.2,0.4-0.4,0.4c-0.2,0.1-0.4,0.1-0.6,0.1h-19.8v14.5h17
		c0.2,0,0.4,0.1,0.6,0.2c0.2,0.1,0.3,0.3,0.4,0.4c0.1,0.2,0.2,0.5,0.3,0.8c0.1,0.3,0.1,0.7,0.1,1.2c0,0.4,0,0.8-0.1,1.1
		c-0.1,0.3-0.1,0.6-0.3,0.8c-0.1,0.2-0.3,0.3-0.4,0.4s-0.4,0.1-0.6,0.1h-17V250h20.1c0.2,0,0.4,0,0.6,0.1c0.2,0.1,0.3,0.2,0.5,0.4
		c0.1,0.2,0.2,0.5,0.3,0.8C1009.3,251.7,1009.3,252.1,1009.3,252.5z"/>
</g>
<g class="st1">
	<path class="st2" d="M780.3,671c0,0.1,0,0.3-0.1,0.4c-0.1,0.1-0.2,0.2-0.4,0.3c-0.2,0.1-0.4,0.1-0.7,0.2c-0.3,0-0.6,0.1-1.1,0.1
		c-0.4,0-0.8,0-1-0.1c-0.3,0-0.5-0.1-0.7-0.2c-0.2-0.1-0.3-0.2-0.4-0.3c-0.1-0.1-0.1-0.2-0.1-0.4v-41c0-0.1,0-0.2,0.1-0.4
		c0.1-0.1,0.2-0.2,0.4-0.3s0.4-0.1,0.7-0.2c0.3,0,0.6-0.1,1-0.1c0.4,0,0.8,0,1.1,0.1c0.3,0,0.5,0.1,0.7,0.2c0.2,0.1,0.3,0.2,0.4,0.3
		c0.1,0.1,0.1,0.2,0.1,0.4V671z"/>
	<path class="st2" d="M800.4,671c0,0.1,0,0.3-0.1,0.4c-0.1,0.1-0.2,0.2-0.4,0.3c-0.2,0.1-0.4,0.1-0.7,0.2c-0.3,0-0.6,0.1-1.1,0.1
		c-0.4,0-0.8,0-1-0.1c-0.3,0-0.5-0.1-0.7-0.2c-0.2-0.1-0.3-0.2-0.4-0.3c-0.1-0.1-0.1-0.2-0.1-0.4v-41c0-0.1,0-0.2,0.1-0.4
		c0.1-0.1,0.2-0.2,0.4-0.3s0.4-0.1,0.7-0.2c0.3,0,0.6-0.1,1-0.1c0.4,0,0.8,0,1.1,0.1c0.3,0,0.5,0.1,0.7,0.2c0.2,0.1,0.3,0.2,0.4,0.3
		c0.1,0.1,0.1,0.2,0.1,0.4V671z"/>
	<path class="st2" d="M844.2,631.1c0,0.3,0,0.5-0.1,0.8c0,0.2-0.1,0.4-0.2,0.5c-0.1,0.1-0.2,0.3-0.4,0.3c-0.1,0.1-0.3,0.1-0.5,0.1
		h-13.8V671c0,0.1,0,0.3-0.1,0.4s-0.2,0.2-0.4,0.3c-0.2,0.1-0.4,0.1-0.7,0.2c-0.3,0-0.6,0.1-1,0.1c-0.4,0-0.8,0-1-0.1
		c-0.3,0-0.5-0.1-0.7-0.2c-0.2-0.1-0.3-0.2-0.4-0.3c-0.1-0.1-0.1-0.2-0.1-0.4v-38.1h-13.8c-0.2,0-0.4,0-0.5-0.1
		c-0.1-0.1-0.2-0.2-0.3-0.3c-0.1-0.1-0.2-0.3-0.2-0.5c0-0.2-0.1-0.5-0.1-0.8c0-0.3,0-0.6,0.1-0.8c0-0.2,0.1-0.4,0.2-0.6
		c0.1-0.2,0.2-0.3,0.3-0.3c0.1-0.1,0.3-0.1,0.5-0.1h32c0.2,0,0.3,0,0.5,0.1c0.1,0.1,0.3,0.2,0.4,0.3c0.1,0.2,0.2,0.3,0.2,0.6
		C844.2,630.6,844.2,630.8,844.2,631.1z"/>
	<path class="st2" d="M900.7,670.9c0,0.2,0,0.3-0.1,0.4c0,0.1-0.2,0.2-0.3,0.3s-0.4,0.1-0.7,0.2c-0.3,0-0.7,0.1-1.1,0.1
		c-0.4,0-0.9,0-1.3-0.1c-0.4,0-0.8-0.1-1-0.3c-0.2-0.1-0.4-0.3-0.6-0.5l-18.7-21.7V671c0,0.1,0,0.3-0.1,0.4
		c-0.1,0.1-0.2,0.2-0.4,0.3c-0.2,0.1-0.4,0.1-0.7,0.2c-0.3,0-0.6,0.1-1.1,0.1c-0.4,0-0.8,0-1-0.1c-0.3,0-0.5-0.1-0.7-0.2
		c-0.2-0.1-0.3-0.2-0.4-0.3c-0.1-0.1-0.1-0.2-0.1-0.4v-41c0-0.1,0-0.2,0.1-0.4c0.1-0.1,0.2-0.2,0.4-0.3s0.4-0.1,0.7-0.2
		c0.3,0,0.6-0.1,1-0.1c0.4,0,0.8,0,1.1,0.1c0.3,0,0.5,0.1,0.7,0.2s0.3,0.2,0.4,0.3c0.1,0.1,0.1,0.2,0.1,0.4v19.2l17.9-19.2
		c0.1-0.2,0.3-0.3,0.5-0.4c0.2-0.1,0.4-0.2,0.6-0.3s0.5-0.1,0.8-0.1c0.3,0,0.6,0,1.1,0c0.4,0,0.8,0,1,0.1c0.3,0,0.5,0.1,0.6,0.2
		s0.3,0.2,0.3,0.3c0,0.1,0.1,0.2,0.1,0.3c0,0.2-0.1,0.5-0.2,0.7c-0.1,0.2-0.4,0.5-0.7,0.8L882,649.1l18,20.6
		c0.3,0.4,0.5,0.7,0.6,0.8C900.7,670.7,900.7,670.8,900.7,670.9z"/>
	<path class="st2" d="M944.5,670.3c0.1,0.3,0.2,0.6,0.2,0.8c0,0.2-0.1,0.4-0.2,0.5c-0.2,0.1-0.4,0.2-0.7,0.2c-0.3,0-0.7,0-1.2,0
		s-0.9,0-1.2,0c-0.3,0-0.5-0.1-0.7-0.1s-0.3-0.2-0.4-0.3c-0.1-0.1-0.2-0.2-0.2-0.4l-4.4-11.3h-20.3l-4.3,11.2c0,0.2-0.1,0.3-0.2,0.4
		c-0.1,0.1-0.2,0.2-0.4,0.3c-0.2,0.1-0.4,0.1-0.7,0.2c-0.3,0-0.7,0.1-1.1,0.1c-0.5,0-0.9,0-1.3-0.1c-0.3,0-0.6-0.1-0.7-0.2
		c-0.2-0.1-0.2-0.3-0.2-0.5c0-0.2,0.1-0.5,0.2-0.8l16.2-40.3c0.1-0.2,0.2-0.3,0.3-0.4c0.1-0.1,0.3-0.2,0.6-0.3
		c0.2-0.1,0.5-0.1,0.8-0.1c0.3,0,0.7,0,1.1,0c0.4,0,0.8,0,1.1,0c0.3,0,0.6,0.1,0.8,0.1s0.4,0.2,0.5,0.3c0.1,0.1,0.2,0.3,0.3,0.4
		L944.5,670.3z M925.3,633.6L925.3,633.6l-8.8,22.8h17.7L925.3,633.6z"/>
	<path class="st2" d="M988.4,669.7c0,0.4-0.1,0.7-0.2,1s-0.3,0.5-0.5,0.6c-0.2,0.2-0.4,0.3-0.7,0.3c-0.2,0.1-0.5,0.1-0.7,0.1h-0.9
		c-0.5,0-0.9-0.1-1.3-0.2c-0.4-0.1-0.8-0.3-1.1-0.6c-0.4-0.3-0.7-0.6-1.1-1.1c-0.4-0.5-0.8-1-1.2-1.8l-16.3-26.4
		c-0.8-1.3-1.6-2.6-2.5-4c-0.8-1.4-1.6-2.7-2.3-4h0c0,1.6,0,3.2,0,4.9s0,3.3,0,4.9V671c0,0.1,0,0.3-0.1,0.4
		c-0.1,0.1-0.2,0.2-0.4,0.3c-0.2,0.1-0.4,0.1-0.7,0.2c-0.3,0-0.6,0.1-1.1,0.1c-0.4,0-0.8,0-1-0.1c-0.3,0-0.5-0.1-0.7-0.2
		c-0.2-0.1-0.3-0.2-0.4-0.3c-0.1-0.1-0.1-0.2-0.1-0.4v-39.6c0-0.8,0.2-1.3,0.7-1.6c0.5-0.3,0.9-0.4,1.3-0.4h1.8c0.6,0,1,0,1.4,0.1
		c0.4,0.1,0.7,0.2,1,0.4c0.3,0.2,0.6,0.5,0.9,0.9c0.3,0.4,0.6,0.9,1,1.5l12.5,20.2c0.8,1.3,1.5,2.5,2.2,3.6c0.7,1.2,1.4,2.3,2.1,3.4
		c0.7,1.1,1.3,2.2,2,3.3c0.7,1.1,1.3,2.2,1.9,3.3h0c0-1.8,0-3.7,0-5.7c0-2,0-3.9,0-5.7v-24.6c0-0.1,0-0.2,0.1-0.4
		c0.1-0.1,0.2-0.2,0.4-0.3c0.2-0.1,0.4-0.1,0.7-0.2c0.3,0,0.6,0,1.1,0c0.4,0,0.7,0,1,0c0.3,0,0.5,0.1,0.7,0.2
		c0.2,0.1,0.3,0.2,0.4,0.3c0.1,0.1,0.1,0.2,0.1,0.4V669.7z"/>
	<path class="st2" d="M1030.8,641.4c0,2-0.4,3.8-1.1,5.4c-0.7,1.6-1.8,3-3.1,4.2c-1.4,1.2-3,2.1-5,2.7c-2,0.7-4.3,1-7.1,1h-6V671
		c0,0.1,0,0.3-0.1,0.4c-0.1,0.1-0.2,0.2-0.4,0.3c-0.2,0.1-0.4,0.1-0.7,0.2c-0.3,0-0.6,0.1-1.1,0.1c-0.4,0-0.8,0-1-0.1
		c-0.3,0-0.5-0.1-0.7-0.2c-0.2-0.1-0.3-0.2-0.4-0.3c-0.1-0.1-0.1-0.2-0.1-0.4v-39.6c0-0.8,0.2-1.3,0.7-1.6c0.5-0.3,0.9-0.4,1.3-0.4
		h9.4c0.9,0,1.8,0,2.7,0.1s1.9,0.2,3.1,0.5s2.4,0.7,3.6,1.4s2.3,1.5,3.1,2.5c0.9,1,1.5,2.1,2,3.4
		C1030.5,638.5,1030.8,639.9,1030.8,641.4z M1026.1,641.8c0-1.8-0.4-3.4-1.2-4.7s-1.7-2.2-2.9-2.8s-2.3-1-3.5-1.2
		c-1.2-0.2-2.4-0.2-3.5-0.2h-6.6v18.4h6.3c2,0,3.7-0.2,5.1-0.7s2.5-1.1,3.4-1.9c0.9-0.8,1.6-1.8,2.1-3
		C1025.9,644.4,1026.1,643.2,1026.1,641.8z"/>
	<path class="st2" d="M1076.7,656c0,2.6-0.4,4.9-1.2,6.9s-1.9,3.7-3.4,5.1c-1.5,1.4-3.3,2.4-5.4,3.1c-2.1,0.7-4.4,1.1-7,1.1
		c-2.4,0-4.5-0.3-6.5-1c-2-0.7-3.7-1.7-5.2-3c-1.4-1.3-2.6-3-3.4-4.9s-1.2-4.2-1.2-6.8V630c0-0.1,0-0.2,0.1-0.4s0.2-0.2,0.4-0.3
		c0.2-0.1,0.4-0.1,0.7-0.2c0.3,0,0.6-0.1,1-0.1c0.4,0,0.8,0,1,0.1c0.3,0,0.5,0.1,0.7,0.2s0.3,0.2,0.4,0.3c0.1,0.1,0.1,0.2,0.1,0.4
		v25.9c0,2.1,0.3,4,0.8,5.6c0.6,1.6,1.4,2.9,2.4,4c1.1,1.1,2.3,1.9,3.9,2.4c1.5,0.5,3.2,0.8,5.1,0.8c1.9,0,3.7-0.3,5.2-0.8
		c1.5-0.5,2.8-1.3,3.8-2.3c1-1,1.9-2.3,2.4-3.9c0.6-1.6,0.8-3.4,0.8-5.5V630c0-0.1,0-0.2,0.1-0.4s0.2-0.2,0.4-0.3s0.4-0.1,0.7-0.2
		c0.3,0,0.6-0.1,1-0.1c0.4,0,0.8,0,1,0.1c0.3,0,0.5,0.1,0.7,0.2s0.3,0.2,0.4,0.3c0.1,0.1,0.1,0.2,0.1,0.4V656z"/>
	<path class="st2" d="M1121.3,670.9c0,0.2,0,0.3-0.1,0.4c-0.1,0.1-0.2,0.2-0.3,0.3c-0.2,0.1-0.4,0.1-0.7,0.2c-0.3,0-0.7,0.1-1.1,0.1
		c-0.4,0-0.7,0-1,0c-0.3,0-0.5-0.1-0.7-0.2c-0.2-0.1-0.3-0.2-0.5-0.4c-0.1-0.2-0.2-0.4-0.3-0.6l-4.3-10.3c-0.5-1.2-1-2.2-1.6-3.3
		c-0.6-1-1.3-1.9-2.1-2.7c-0.8-0.8-1.8-1.3-2.9-1.8c-1.1-0.4-2.5-0.7-4.1-0.7h-4.8V671c0,0.1,0,0.3-0.1,0.4
		c-0.1,0.1-0.2,0.2-0.4,0.3c-0.2,0.1-0.4,0.1-0.7,0.2c-0.3,0-0.6,0.1-1.1,0.1c-0.4,0-0.8,0-1-0.1c-0.3,0-0.5-0.1-0.7-0.2
		c-0.2-0.1-0.3-0.2-0.4-0.3c-0.1-0.1-0.1-0.2-0.1-0.4v-39.6c0-0.8,0.2-1.3,0.7-1.6c0.5-0.3,0.9-0.4,1.3-0.4h8.7c1.1,0,2.1,0,2.8,0.1
		c0.8,0.1,1.4,0.1,2.1,0.2c1.8,0.3,3.3,0.7,4.6,1.4c1.3,0.6,2.4,1.4,3.3,2.3c0.9,0.9,1.5,2,1.9,3.1c0.4,1.2,0.6,2.4,0.6,3.8
		c0,1.4-0.2,2.6-0.6,3.7c-0.4,1.1-1,2.1-1.8,2.9c-0.8,0.8-1.7,1.6-2.8,2.2c-1.1,0.6-2.3,1.1-3.6,1.5c0.8,0.3,1.5,0.7,2.1,1.2
		c0.6,0.5,1.2,1.1,1.8,1.7c0.5,0.7,1,1.5,1.5,2.3c0.5,0.9,1,1.9,1.4,3l4.3,9.9c0.3,0.8,0.5,1.3,0.6,1.6
		C1121.2,670.6,1121.3,670.8,1121.3,670.9z M1113.6,640.6c0-1.8-0.4-3.3-1.3-4.6c-0.9-1.3-2.4-2.2-4.4-2.7c-0.7-0.2-1.4-0.3-2.3-0.4
		c-0.8-0.1-1.9-0.1-3.2-0.1h-5.7v15.5h6.7c1.8,0,3.3-0.2,4.6-0.6s2.4-1,3.2-1.7c0.8-0.7,1.5-1.5,1.9-2.5S1113.6,641.7,1113.6,640.6z
		"/>
</g>
</svg>
