<?xml version="1.0" encoding="utf-8"?>
<!-- Generator: Adobe Illustrator 24.3.0, SVG Export Plug-In . SVG Version: 6.00 Build 0)  -->
<svg version="1.1" id="Layer_1" xmlns="http://www.w3.org/2000/svg" xmlns:xlink="http://www.w3.org/1999/xlink" x="0px" y="0px"
	 viewBox="0 0 1895.9 812" style="enable-background:new 0 0 1895.9 812;" xml:space="preserve">
<style type="text/css">
	.st0{fill:#FCCF58;}
	.st1{display:none;}
	.st2{display:inline;}
</style>
<path class="st0" d="M134.8,285.6c-2.2,1.5-10.7,7.5-12.3,17c-1.4,8.3,3.4,10.7,1.7,20.3c-1.1,6.1-4.2,10.7-8.1,16.6
	c-4.9,7.4-6.4,6.9-9.4,12c-5,8.7-4.8,17.5-4.7,22.8c0.1,4,0.4,13.8,6.1,23.5c2.6,4.4,6.4,9.1,7.9,10.9c3.7,4.5,5.6,6.8,7.1,8.2
	c1.5,1.3,3.3,2.8,5,5.5c0.5,0.8,1.4,2.3,1.9,4c0.4,1.4,0.9,4.4-2.3,12.3c-0.4,1-1.5,3.5-4.9,9.9c-2.9,5.4-4.4,8.1-5.4,9.5
	c-4.2,5.8-9.3,8.8-13.3,11.2c-5.4,3.2-10.7,5.2-15.3,6.3c-0.9,0.2-1.7,0.8-2.2,1.5c-0.5,0.7-0.8,1.4-1.2,2
	c-4.6,9.2-0.4,19.3,1.3,22.9c0.1,0.1,0.1,0.2,0.2,0.3c8.1,13.3,13.8,15.9,17.6,15.7c1.1-0.1,2.1-0.4,3.8-0.2
	c6.2,0.6,10.3,6.2,11.6,7.9c8.1,10.5,25.8,21.7,34.3,25.7c11.5,5.4,21.9,5,35.5,4.5c14.2-0.5,15.3-3.2,40.9-7.4
	c16.5-2.7,24.9-4.1,37-3.9c10.6,0.1,14.2,1.3,32,2.3c10.1,0.6,18.6,0.8,24.6,0.8c1.1,0,2.2,0.5,2.8,1.4c2.5,3.3,6.4,7.3,12.1,9.7
	c6.5,2.8,11,1.7,29.3-0.8c24.7-3.4,26.6-2.9,42-5.9c4.6-0.9,9.8-3.9,17.7-3.8c5.8,0,6.9,1.3,15,2.3c7.7,0.9,13.5,0.6,21.4,0.2
	c11.2-0.6,10.6-1.5,21-2.2c12.9-0.8,12.1,0.7,26.4-0.1c11.1-0.6,13.6-1.6,20-0.2c6.2,1.3,6.7,3,13.3,3.8c4,0.5,8,0.4,16,0
	c6-0.3,6.7-0.5,10.2-0.6c8.7-0.3,15,0.6,18.7,1.1c17.5,2.2,19.7-1.3,41,0.6c15.5,1.4,18.2,3.6,30,2.8c5.6-0.4,8.3-1.1,16.3-1.4
	c11-0.4,12.8,0.6,20.9,0.5c16.2-0.3,18.5-4.8,31-4.4c10,0.4,16.7,3.5,21.4,5.3c11.9,4.5,31.2,7.9,63,2c1-0.2,1.8-0.8,2.4-1.5
	c0.4-0.6,1-1.3,1.9-1.7c1.2-0.7,2.4-0.8,2.9-0.8c11.5-0.6,20.3-3.8,34.6,0.3c4,1.2,3.2,1.4,7.3,2.6c3.9,1.2,14.8,4.1,39.3,0.8
	c4.5-0.6,21.2-3,34-2.8c2.7,0.1,7.3,0.3,9.7,3.3c2.4,2.9,1.3,6.5,3.4,7.5c2,0.9,4.6-1.6,7-3.1c2.8-1.8,6.8-3.2,21.9-2
	c14.1,1.1,17.7,2.8,27.1,3.7c6.2,0.6,15.1,0.9,26.3-0.8c1-0.2,1.8-0.7,2.4-1.5l0.8-1.1c0.7-1,2-1.6,3.3-1.5
	c6.3,0.5,15.4,1.1,26.4,0.7c16.1-0.5,22-2.3,32.7-2c8.4,0.2,20.5,1.8,35.3,8.1c1.2,0.5,2.6,0.4,3.7-0.4c0.8-0.6,1.8-1.3,3-2
	c2.1-1.2,5.8-3.4,10.7-4c1.3-0.2,10.6-1.3,17.6,4.7c0.7,0.6,1.2,1.1,1.7,1.7c0.8,0.9,1.9,1.3,3.1,1.2c3.3-0.4,7.8-0.8,13.1-1
	c16.7-0.6,26.1,1.5,38,2.8c28.5,3,26.2-4,52.2-0.9c0,0,22.1,2.6,35.8-1.9c4.2-1.4,4.3-1.4,4.3-1.4c4.8-1.6,5.3-1.9,6.2-2
	c4.5-0.7,8.7,4.2,10.1,5.6c7.5,7.6,24.4,4.9,45.5,3.4c10.5-0.8,25.8-1.5,45.2-1.1c13.4-0.5,24.3-0.3,31.9-0.2
	c14.3,0.4,21.6,1.1,34.5,0c7.4-0.6,7.1-1.1,16.9-2c6.7-0.6,16.6-1.6,28.9-1.4c8.1,0.1,18.7,0.7,31,2.7c0.5,0.1,1,0.1,1.4-0.1
	c3.6-0.9,7.5-1.7,11.6-2.3c15.8-2.4,29.9-1.8,41.2-0.2c0.1,0,0.2,0,0.3,0c8.8,0.4,17.7,0.8,26.5,1.3c1.5,0.1,3-0.8,3.5-2.2
	c0.2-0.6,0.6-1.3,1-1.9c3.7-5.5,12.5-5.8,20.9-5.8c8.9,0,20.3,0.3,33.9,1.4c1.2,0.1,2.3-0.4,3.1-1.2c1-1.2,2.5-2.6,4.4-3.7
	c5.5-3.3,10.6-1.9,14.8-2.5c9.7-1.3,15.3-12.7,18.5-17.9c5.7-9.4,17.6-21.8,44.7-33.9c1.1-0.5,1.9-1.4,2.1-2.6
	c1.1-6.5,1.9-14.2,1.6-22.9c-0.2-4.9-0.6-9.4-1.3-13.5c-0.1-0.7-0.4-1.4-0.9-1.9c-1.2-1.2-2.5-2.9-3.4-5.2c-1.9-5-0.3-9.3,1.1-14.6
	c0,0,1.2-4.7,1.4-38.6c0-0.4,0-1.2-0.5-2.2c-1.2-2.3-4.2-2.9-4.9-3.1c-5.4-1.5-9.1-14.8-10.1-24.3c-1.2-12.1,1.6-22.3,4.3-28.9
	c0.1-0.3,0.2-0.7,0.2-1c0.8-9.5,0.8-17.5,0.6-23.4c-0.4-14.2-1.9-17.5-4.3-19.8c-1.6-1.5-5.1-3.1-12-6.4c-3.5-1.6-5.3-2.5-7.3-3
	c-5.3-1.2-7.2,0.2-12.5-0.2c-7.2-0.4-7.2-3.3-13.7-4c-6.9-0.7-7.4,2.4-16.6,3.1c-8.6,0.7-10.2-1.9-17.7-0.9
	c-7.1,0.9-10.5,3.7-14.7,5.4c-12.9,5.4-27.3-2.3-37.7-6.4c-10.3-4-27-4.8-60.3-6.4c-20.4-1-76.9-2.1-103.8,2.8
	c-4.3,0.8-11.4,2.4-20.1,0.3c-7.4-1.8-9.4-4.6-17.6-6.4c-5.6-1.2-9.3-0.8-17.9-0.3c-9.2,0.5-18.4,0.4-27.6,0.9
	c-35.6,2.2-48.1-4-85.4-0.5c-22.4,2.1-24,5-36.4,3.4c-16.9-2.1-31.6-3.9-39.9-5.9c-0.7-0.2-2.8-0.7-5.4-0.5c-5.8,0.5-9.9,4-10.7,4.7
	c-7.9,6.3-34-0.1-44.2-2.2c-8.4-1.7-42.4-8.7-75.3,1.4c-11.6,3.5-17.6,7.5-30,7.3c-11.6-0.2-16.2-3.9-31-5
	c-12.4-0.9-13.1,1.4-26.7,1.6c-20.6,0.2-38.7-4.9-52-8.7c-13.7-3.9-19.4-6.8-29.7-5.6c-7.4,0.9-7.7,2.8-19.6,5.9
	c-5.2,1.4-17.8,4.6-33.2,4.4c-14.7-0.2-16-3.4-27.9-2c-9,1-10.6,3.1-20.4,5c-8.8,1.7-12.5,1-29.2,0.8c-25.4-0.3-26.8,1.2-50.3,0.5
	c-7.3-0.2-4.5-0.3-21.4-1.1c-33.3-1.6-37.9-1-49.6-2.5c-7.8-1-19-2.9-32.6-7c-1-0.3-2.1-0.2-3,0.4c-6.8,4.1-12.5,6.2-16,7.2
	c-5.5,1.7-7.8,1.4-9.4,0.9c-3-0.9-3.9-2.8-6.2-2.5c-1.6,0.2-1.9,1.2-6.1,4.4c-2.4,1.9-3.7,2.8-4.8,3.1c-4,1.1-8.1-1.7-8.8-2.2
	c-5.1-3.5-4.5-8.2-7.7-8.7c-2.3-0.4-3.3,1.8-8.5,4.7c0,0-2.8,1.5-8.8,3.4c-16.8,5.3-46.6-0.6-46.6-0.6c-11-2.2-25.8-6-42.8-13.2
	c-0.8-0.3-1.7-0.4-2.6-0.1c-1.7,0.6-4.4,1.4-7.6,2.5c-20.1,6.7-25.7,8.7-34,8.4c-3.7-0.1-2.4-0.6-8.3-1.1c-8.5-0.8-14-0.1-29.9,1.6
	c-18.4,2-21.1,2.2-25.5,2.3c-7.9,0.2-7.4-0.3-16.3-0.2c-2.8,0-16.3,0.2-34.3,2.8c-9,1.3-10.4,1.9-16.4,2.8
	c-18.4,2.7-31.9,0.9-42.9,0c-31.2-2.6-29.2,3.4-58.1,1.2C164.6,286.3,149.5,275.3,134.8,285.6z"/>
<g>
	<path d="M158.4,303.3h79.5c1.5,0,2.3,0.9,2.3,2.6c0,1.3-0.9,2.1-2.6,2.3c-6.1,0.9-10.4,3.5-13,8c-2.6,4.5-3.9,11.6-3.9,21.4v127.1
		c0,9.8,1.3,16.9,3.9,21.4c2.6,4.5,7,7.1,13,8c1.7,0.2,2.6,1,2.6,2.3c0,1.7-0.8,2.6-2.3,2.6h-79.5c-1.7,0-2.6-0.9-2.6-2.6
		c0-1.3,0.9-2.1,2.6-2.3c4.6-0.7,8.1-2.1,10.6-4.2c2.5-2.2,4.2-5.2,5.1-9.1c0.9-3.9,1.3-9.2,1.3-16V337.6c0-10-1.1-17.2-3.4-21.5
		c-2.3-4.3-6.8-7-13.5-7.8c-1.7-0.2-2.6-1-2.6-2.3C155.7,304.2,156.6,303.3,158.4,303.3z"/>
	<path d="M320,372.4c0.4,0,0.9,0.1,1.3,0.3c0.7,0.4,1,1.2,1,2.3v12.1c7.8-9.3,18.6-14,32.3-14c24.8,0,41.3,9.1,49.5,27.4
		c7.8-17.2,21.8-26.3,42-27.4c31.5,0,49.7,15.2,54.4,45.6l5.5,46c1.1,9.6,3.1,16.6,6.2,21c3,4.5,7.7,7.2,14,8.3c2,0.2,2.9,1,2.9,2.3
		c0.2,1.7-0.7,2.6-2.6,2.6h-78.9c-2,0-2.9-0.9-2.9-2.6c0-1.3,1-2.1,2.9-2.3c6.3-1.1,10.3-3.7,12.1-8c1.7-4.2,2-11.4,0.7-21.4
		l-5.2-50.5c-1.1-8.9-4-16.3-8.8-22.3c-4.8-6-11-8.5-18.6-7.7c-14.1,2-20.2,15.1-18.3,39.4l4.9,41.1c1.3,9.6,3.5,16.6,6.5,21
		c3,4.5,7.7,7.2,14,8.3c2,0.2,2.9,1,2.9,2.3c0,1.7-0.9,2.6-2.6,2.6h-78.9c-2,0-2.9-0.9-2.9-2.6c0-1.3,1-2.1,2.9-2.3
		c6.3-1.1,10.3-3.7,11.9-8s1.9-11.4,0.8-21.4l-5.2-50.5c-1.3-9.8-3.9-17.9-7.8-24.3c-3.9-6.4-9.6-9.1-16.9-8
		c-7,0.9-11.5,4.8-13.7,11.9c-2.2,7.1-3.3,18.4-3.3,34.1v36.8c0,9.8,1.3,16.9,3.9,21.4c2.6,4.5,7,7.1,13,8c1.7,0.2,2.6,1,2.6,2.3
		c0,1.7-0.8,2.6-2.3,2.6H260c-1.7,0-2.6-0.9-2.6-2.6c0-1.3,0.9-2.1,2.6-2.3c6.7-0.9,11.2-3.5,13.5-7.8c2.3-4.3,3.4-11.5,3.4-21.5
		v-31.3c0-7.4-0.3-13-1-17c-0.7-3.9-2.2-7.4-4.6-10.4c-2.4-3-5.9-5.1-10.4-6.2c-1.7-0.4-2.6-1.3-2.6-2.6c0-1.5,0.9-2.4,2.6-2.6
		c9.3-0.2,18.8-2.2,28.4-5.9c9.6-3.7,16.2-6.7,19.9-9.1c3.7-2.4,6.7-4.6,9.1-6.5C318.8,372.6,319.4,372.4,320,372.4z"/>
	<path d="M587.6,373.4c0.9-0.9,1.8-1,2.9-0.3c0.9,0.4,1.3,1.2,1.3,2.3v9.1c8.7-7,18.6-10.8,29.7-11.4h2.9c0.2-0.2,0.5-0.3,1-0.3
		c0.2,0,0.4,0,0.7,0l1,0.3c15,0.7,27.8,6.8,38.5,18.4c10.6,11.6,16.5,25.6,17.6,41.9c1.1,17.8-3.6,33.3-14.2,46.4
		c-10.5,13.2-23.7,20.3-39.6,21.3c-14.1,0.7-26.6-3.5-37.5-12.4v-0.3v45.6c0,9.8,1.2,16.9,3.7,21.3c2.5,4.5,6.9,7.1,13.2,8
		c1.5,0.2,2.3,1,2.3,2.3c0,1.7-0.8,2.6-2.3,2.6h-79.2c-2,0-2.9-0.9-2.9-2.6c0-1.3,1-2.1,2.9-2.3c6.5-0.9,10.9-3.5,13.2-7.8
		c2.3-4.3,3.4-11.5,3.4-21.5V433.4c0-10.4-1.2-18.3-3.6-23.6c-2.4-5.3-6.5-8.5-12.4-9.6c-1.7-0.4-2.6-1.3-2.6-2.6
		c0-1.5,0.9-2.3,2.6-2.3c9.6-0.4,19.1-2.5,28.7-6.2c9.6-3.7,16.1-6.7,19.7-9.1C582.2,377.5,585.2,375.4,587.6,373.4z M610.8,384.8
		c-2.8-1.5-5.6-2-8.3-1.3c-2.7,0.7-4.9,2.5-6.7,5.5c-2.8,4.3-4.1,10.6-3.9,18.9c0,10.9,2,23.3,5.9,37.2c4.3,16.3,9.7,29.2,16.1,38.8
		c6.4,9.6,12.7,13.5,18.7,11.7c6.5-1.5,10-8.2,10.6-20c0.5-11.8-1.4-25.6-5.7-41.2c-3.5-12.8-7.6-23.7-12.2-32.6
		C620.6,392.9,615.8,387.2,610.8,384.8z"/>
	<path d="M787.4,371.1c11.5,0,19.9,4.3,25.3,13c5.3,8.7,5.1,18-0.8,28c-2.6,4.1-6.2,7-10.9,8.6c-4.7,1.6-9.3,1.8-13.9,0.5
		c-7.6-2.2-11.4-6.6-11.4-13.4c0-3.5,1.9-6.5,5.7-9.1c3.8-2.6,5.7-5.2,5.7-7.8c0-3.9-1.3-7.1-3.9-9.5c-2.6-2.4-6-3.3-10.1-2.6
		c-7.2,2.2-12,6.9-14.3,14.2c-2.4,7.3-3.6,18.4-3.6,33.4v38.1c0,9.8,1.2,16.9,3.7,21.4c2.5,4.5,6.9,7.1,13.2,8
		c1.7,0.2,2.6,1,2.6,2.3c0,1.7-0.9,2.6-2.6,2.6h-79.2c-1.7,0-2.6-0.9-2.6-2.6c0-1.3,0.9-2.1,2.6-2.3c6.5-0.9,11-3.5,13.4-7.8
		c2.4-4.3,3.6-11.5,3.6-21.5v-31.3c0-10.4-1.3-18.3-3.7-23.6c-2.5-5.3-6.6-8.5-12.2-9.6c-2-0.4-2.9-1.3-2.9-2.6c0-1.5,1-2.3,2.9-2.3
		c9.3-0.4,18.8-2.5,28.4-6.2c9.6-3.7,16.1-6.7,19.7-9.1c3.6-2.4,6.6-4.6,9-6.5c0.9-0.7,1.8-0.8,2.8-0.5c1,0.3,1.5,1.1,1.5,2.4v9.8
		c6.5-6.3,13.3-10.4,20.2-12.4C779.7,371.7,783.7,371.1,787.4,371.1z"/>
	<path d="M892.4,372.8c5.6,0,11.3,0.7,16.9,2.1c5.6,1.4,11.1,3.6,16.3,6.7c5.2,3,9.6,6.7,13,11.1c2.8,3.7,4.8,7.8,5.9,12.4
		c1.1,4.6,1.1,9,0.2,13.2s-3.4,7.9-7.2,11.1c-3.8,3.2-8.9,5.1-15.2,5.7l-47.6,5.5c2.2,10.4,6.5,18.9,13,25.4
		c6.5,6.5,13.5,10.5,21,12.1c7.5,1.5,14.9,0.9,22.2-1.8c7.3-2.7,12.9-7.4,16.8-14.2c0.2-0.2,0.3-0.4,0.3-0.7c1.5-3,3-4.2,4.6-3.6
		c1.1,0.7,1.5,1.6,1.3,2.9c-7.2,26.7-27.5,40.1-61,40.1c-9.3,0-18.3-1.7-26.7-5.1c-8.5-3.4-16-8.5-22.7-15.5
		c-6.6-7-11.2-15.1-13.9-24.4c-1.3-3.7-2.2-7.8-2.6-12.4c-0.9-9.8-0.3-18.8,1.8-27.1c2.1-8.3,5.6-15.7,10.6-22.3
		c5-6.6,11.9-11.8,20.9-15.6C869.4,374.7,880,372.8,892.4,372.8z M892.1,377.6c-5.7,0-10.3,3.4-14,10.3c-3.7,6.8-5.7,14.6-6,23.1
		c-0.3,8.6,0.3,16.9,1.8,24.9c12.2-1.5,21.6-4.7,28.4-9.5c6.7-4.8,9.7-12.1,8.8-21.8c-0.4-4.3-1-8-1.8-11.1c-0.8-3-1.8-5.9-3.3-8.5
		c-1.4-2.6-3.3-4.5-5.5-5.7C898.1,378.2,895.3,377.6,892.1,377.6z"/>
	<path d="M1023.4,372.8c5.2,0,10.4,0.3,15.5,1c5.1,0.7,8.4,1.1,9.8,1.5c1.4,0.3,3.1,0.3,5.1-0.2c2.2-1.5,3.5-2.3,3.9-2.3
		c1.5,0,2.4,0.8,2.6,2.3l3.3,35.9c0,1.7-0.8,2.6-2.3,2.6c-1.3,0.2-2.2-0.5-2.6-2.3c-3.3-14.1-8.7-23.7-16.3-28.7
		c-5-3.3-11.3-4.9-18.9-4.9c-7,0-11.7,2.6-14.3,7.8c-2.6,5.2-2.4,10.5,0.7,16c1.7,3.3,5.4,6.5,10.9,9.6c5.5,3.2,11.6,6.1,18.1,8.8
		c6.5,2.7,12.9,5.7,19.2,9c6.3,3.3,11.6,7.3,15.8,12.2c4.2,4.9,6.4,10.5,6.4,16.8c0,12.8-5.5,23.2-16.6,31.1
		c-11.1,7.9-26.1,11.9-45,11.9c-16.3,0-28.8-4-37.6-12.1c-8.8-8-11.9-17.1-9.3-27.1c1.3-4.3,3.5-7.7,6.7-10.1
		c3.1-2.4,6.8-3.6,10.9-3.6c5.9,0,10.7,1.8,14.5,5.5c3.8,3.7,5.4,7.9,4.7,12.7c-0.7,3.5-2.8,6.7-6.4,9.6c-3.6,2.9-5.4,5.7-5.4,8.3
		c0.2,3,2.2,5.8,5.9,8.1c3.7,2.4,8.1,3.6,13.4,3.6c8.5,0,14.7-2.1,18.7-6.4c4-4.2,6-9.1,6-14.5c0-4.6-1.6-8.6-4.7-12.1
		c-3.2-3.5-7.1-6.3-11.9-8.5c-4.8-2.2-10.1-4.6-15.8-7.3c-5.8-2.7-11.1-5.4-16.1-8.1c-5-2.7-9.3-6.5-12.9-11.2
		c-3.6-4.8-5.7-10.3-6.4-16.6c-1.1-11.3,2.5-20.5,10.8-27.7S1005.2,372.8,1023.4,372.8z"/>
	<path d="M1148.9,372.8c5.2,0,10.4,0.3,15.5,1c5.1,0.7,8.4,1.1,9.8,1.5c1.4,0.3,3.1,0.3,5.1-0.2c2.2-1.5,3.5-2.3,3.9-2.3
		c1.5,0,2.4,0.8,2.6,2.3l3.3,35.9c0,1.7-0.8,2.6-2.3,2.6c-1.3,0.2-2.2-0.5-2.6-2.3c-3.3-14.1-8.7-23.7-16.3-28.7
		c-5-3.3-11.3-4.9-18.9-4.9c-7,0-11.7,2.6-14.3,7.8c-2.6,5.2-2.4,10.5,0.7,16c1.7,3.3,5.4,6.5,10.9,9.6c5.5,3.2,11.6,6.1,18.1,8.8
		c6.5,2.7,12.9,5.7,19.2,9c6.3,3.3,11.6,7.3,15.8,12.2c4.2,4.9,6.4,10.5,6.4,16.8c0,12.8-5.5,23.2-16.6,31.1
		c-11.1,7.9-26.1,11.9-45,11.9c-16.3,0-28.8-4-37.6-12.1c-8.8-8-11.9-17.1-9.3-27.1c1.3-4.3,3.5-7.7,6.7-10.1
		c3.1-2.4,6.8-3.6,10.9-3.6c5.9,0,10.7,1.8,14.5,5.5c3.8,3.7,5.4,7.9,4.7,12.7c-0.7,3.5-2.8,6.7-6.4,9.6c-3.6,2.9-5.4,5.7-5.4,8.3
		c0.2,3,2.2,5.8,5.9,8.1c3.7,2.4,8.1,3.6,13.4,3.6c8.5,0,14.7-2.1,18.7-6.4c4-4.2,6-9.1,6-14.5c0-4.6-1.6-8.6-4.7-12.1
		c-3.2-3.5-7.1-6.3-11.9-8.5c-4.8-2.2-10.1-4.6-15.8-7.3c-5.8-2.7-11.1-5.4-16.1-8.1c-5-2.7-9.3-6.5-12.9-11.2
		c-3.6-4.8-5.7-10.3-6.4-16.6c-1.1-11.3,2.5-20.5,10.8-27.7S1130.7,372.8,1148.9,372.8z"/>
	<path d="M1273.1,373.4c0.7-0.7,1.5-0.8,2.4-0.5c1,0.3,1.5,1.1,1.5,2.4v89.3c0,6.5,0.5,11.8,1.6,15.8c1.1,4,2.9,7.1,5.4,9.3
		c2.5,2.2,5.8,3.6,9.9,4.2c1.7,0.2,2.6,1,2.6,2.3c0,1.7-0.8,2.6-2.3,2.6h-79.5c-1.7,0-2.6-0.9-2.6-2.6c0-1.3,0.9-2.1,2.6-2.3
		c6.7-0.9,11.2-3.5,13.5-7.8c2.3-4.3,3.4-11.5,3.4-21.5v-31.3c0-10.4-1.3-18.3-3.7-23.6c-2.5-5.3-6.6-8.5-12.2-9.6
		c-1.7-0.4-2.6-1.3-2.6-2.6c0-1.5,0.9-2.3,2.6-2.3c9.3-0.4,18.8-2.5,28.4-6.2c9.6-3.7,16.2-6.7,19.9-9.1
		C1267.7,377.5,1270.7,375.4,1273.1,373.4z M1250.6,303.3c6.5,0,12.5,2.4,18.1,7.3c5.5,4.9,8.3,11.2,8.3,19.1
		c0,7.4-2.6,13.7-7.7,18.9c-5.1,5.2-11.4,7.8-18.7,7.8c-6.3,0-12.3-2.5-17.9-7.5c-5.7-5-8.5-11.4-8.5-19.2c0-7.2,2.6-13.4,7.7-18.6
		C1237,305.9,1243.2,303.3,1250.6,303.3z"/>
	<path d="M1364.7,372.8c17.8,0,33,6.2,45.5,18.7c12.5,12.5,18.7,27.7,18.7,45.5c0,17.6-6.2,32.7-18.7,45.1
		c-12.5,12.5-27.7,18.7-45.5,18.7c-17.6,0-32.7-6.2-45.1-18.7c-12.5-12.5-18.7-27.5-18.7-45.1c0-17.8,6.2-33,18.7-45.5
		C1332,379,1347.1,372.8,1364.7,372.8z M1352,379.6c-1.1,0-2,0-2.6,0c-6.3,1.7-9.7,8.8-10.3,21c-0.5,12.3,1.4,26.2,5.7,41.9
		c4.6,16.3,10,29.4,16.5,39.3c6.4,9.9,12.8,14,19.1,12.2c6.3-1.7,9.7-8.7,10.3-20.9c0.5-12.2-1.4-26.1-5.7-41.7
		c-4.1-15.2-9.2-27.7-15.2-37.5C1363.8,384.2,1357.8,379.4,1352,379.6z"/>
	<path d="M1499,372.4c0.4,0,0.9,0.1,1.3,0.3c0.7,0.4,1,1.2,1,2.3v12.1c7.8-9.3,18.6-14,32.3-14c31.7,0,50,15.2,54.8,45.6l5.2,46
		c1.3,9.6,3.5,16.6,6.5,21c3,4.5,7.7,7.2,14,8.3c2,0.2,2.9,1,2.9,2.3c0,1.7-0.9,2.6-2.6,2.6h-78.9c-2,0-2.9-0.9-2.9-2.6
		c0-1.3,1-2.1,2.9-2.3c6.3-1.1,10.3-3.7,11.9-8s1.9-11.4,0.8-21.4l-5.2-50.5c-1.3-9.8-3.9-17.9-7.8-24.3c-3.9-6.4-9.6-9.1-16.9-8
		c-3.7,0.4-6.7,1.7-9,3.9c-2.3,2.2-4,5.4-5.1,9.6c-1.1,4.2-1.8,8.8-2.3,13.7c-0.4,4.9-0.7,11.1-0.7,18.7v36.8
		c0,9.8,1.3,16.9,3.9,21.4c2.6,4.5,7,7.1,13,8c1.7,0.2,2.6,1,2.6,2.3c0,1.7-0.8,2.6-2.3,2.6H1439c-1.7,0-2.6-0.9-2.6-2.6
		c0-1.3,0.9-2.1,2.6-2.3c6.7-0.9,11.2-3.5,13.5-7.8c2.3-4.3,3.4-11.5,3.4-21.5v-31.3c0-10.9-1-18.7-2.9-23.6c-2-4.9-6.3-8.2-13-9.9
		c-1.7-0.4-2.6-1.3-2.6-2.6c0-1.5,0.9-2.4,2.6-2.6c9.3-0.2,18.8-2.2,28.4-5.9c9.6-3.7,16.2-6.7,19.9-9.1c3.7-2.4,6.7-4.6,9.1-6.5
		C1497.8,372.6,1498.3,372.4,1499,372.4z"/>
	<path d="M1676.9,372.8c5.2,0,10.4,0.3,15.5,1c5.1,0.7,8.4,1.1,9.8,1.5c1.4,0.3,3.1,0.3,5.1-0.2c2.2-1.5,3.5-2.3,3.9-2.3
		c1.5,0,2.4,0.8,2.6,2.3l3.3,35.9c0,1.7-0.8,2.6-2.3,2.6c-1.3,0.2-2.2-0.5-2.6-2.3c-3.3-14.1-8.7-23.7-16.3-28.7
		c-5-3.3-11.3-4.9-18.9-4.9c-7,0-11.7,2.6-14.3,7.8c-2.6,5.2-2.4,10.5,0.7,16c1.7,3.3,5.4,6.5,10.9,9.6c5.5,3.2,11.6,6.1,18.1,8.8
		c6.5,2.7,12.9,5.7,19.2,9c6.3,3.3,11.6,7.3,15.8,12.2c4.2,4.9,6.4,10.5,6.4,16.8c0,12.8-5.5,23.2-16.6,31.1
		c-11.1,7.9-26.1,11.9-45,11.9c-16.3,0-28.8-4-37.6-12.1c-8.8-8-11.9-17.1-9.3-27.1c1.3-4.3,3.5-7.7,6.7-10.1
		c3.1-2.4,6.8-3.6,10.9-3.6c5.9,0,10.7,1.8,14.5,5.5c3.8,3.7,5.4,7.9,4.7,12.7c-0.7,3.5-2.8,6.7-6.4,9.6c-3.6,2.9-5.4,5.7-5.4,8.3
		c0.2,3,2.2,5.8,5.9,8.1c3.7,2.4,8.1,3.6,13.4,3.6c8.5,0,14.7-2.1,18.7-6.4c4-4.2,6-9.1,6-14.5c0-4.6-1.6-8.6-4.7-12.1
		c-3.2-3.5-7.1-6.3-11.9-8.5c-4.8-2.2-10.1-4.6-15.8-7.3c-5.8-2.7-11.1-5.4-16.1-8.1c-5-2.7-9.3-6.5-12.9-11.2
		c-3.6-4.8-5.7-10.3-6.4-16.6c-1.1-11.3,2.5-20.5,10.8-27.7S1658.7,372.8,1676.9,372.8z"/>
</g>
<g class="st1">
	<path class="st2" d="M917.6,211.5c0,0.5,0,0.8-0.1,1.2c-0.1,0.3-0.1,0.6-0.3,0.8c-0.1,0.2-0.3,0.4-0.4,0.4
		c-0.2,0.1-0.4,0.1-0.6,0.1H902v40.1c0,0.2-0.1,0.4-0.2,0.5c-0.1,0.1-0.3,0.3-0.5,0.3c-0.3,0.1-0.6,0.2-1,0.2
		c-0.4,0.1-1,0.1-1.6,0.1c-0.6,0-1.2,0-1.6-0.1c-0.4-0.1-0.8-0.1-1.1-0.2c-0.3-0.1-0.4-0.2-0.5-0.3s-0.2-0.3-0.2-0.5v-40.1h-14.2
		c-0.2,0-0.4,0-0.6-0.1c-0.2-0.1-0.3-0.2-0.4-0.4c-0.1-0.2-0.2-0.5-0.3-0.8c-0.1-0.3-0.1-0.7-0.1-1.2c0-0.5,0-0.9,0.1-1.2
		c0.1-0.3,0.1-0.6,0.3-0.8s0.2-0.4,0.4-0.5c0.2-0.1,0.4-0.1,0.6-0.1h35.2c0.2,0,0.4,0,0.6,0.1c0.2,0.1,0.3,0.3,0.4,0.5
		s0.2,0.5,0.3,0.8C917.6,210.6,917.6,211,917.6,211.5z"/>
	<path class="st2" d="M964.5,254.2c0,0.2-0.1,0.4-0.2,0.5c-0.1,0.1-0.3,0.3-0.5,0.3c-0.3,0.1-0.6,0.2-1,0.2c-0.4,0.1-1,0.1-1.6,0.1
		c-0.7,0-1.2,0-1.6-0.1c-0.4-0.1-0.8-0.1-1-0.2c-0.3-0.1-0.4-0.2-0.5-0.3s-0.2-0.3-0.2-0.5v-20.5h-23v20.5c0,0.2-0.1,0.4-0.2,0.5
		c-0.1,0.1-0.3,0.3-0.5,0.3c-0.3,0.1-0.6,0.2-1,0.2c-0.4,0.1-1,0.1-1.6,0.1c-0.6,0-1.2,0-1.6-0.1c-0.4-0.1-0.8-0.1-1.1-0.2
		c-0.3-0.1-0.4-0.2-0.5-0.3c-0.1-0.1-0.2-0.3-0.2-0.5v-44.4c0-0.2,0.1-0.4,0.2-0.5c0.1-0.1,0.3-0.3,0.5-0.3s0.6-0.2,1.1-0.2
		c0.4-0.1,1-0.1,1.6-0.1c0.7,0,1.2,0,1.6,0.1s0.8,0.1,1,0.2c0.3,0.1,0.4,0.2,0.5,0.3c0.1,0.1,0.2,0.3,0.2,0.5v18.5h23v-18.5
		c0-0.2,0.1-0.4,0.2-0.5s0.3-0.3,0.5-0.3c0.3-0.1,0.6-0.2,1-0.2s1-0.1,1.6-0.1c0.6,0,1.2,0,1.6,0.1s0.8,0.1,1,0.2
		c0.3,0.1,0.4,0.2,0.5,0.3c0.1,0.1,0.2,0.3,0.2,0.5V254.2z"/>
	<path class="st2" d="M1009.3,252.5c0,0.4,0,0.8-0.1,1.1c-0.1,0.3-0.1,0.6-0.3,0.8c-0.1,0.2-0.3,0.4-0.5,0.5
		c-0.2,0.1-0.4,0.1-0.6,0.1h-24.3c-0.6,0-1.2-0.2-1.7-0.6c-0.5-0.4-0.8-1-0.8-1.9v-41.2c0-0.9,0.3-1.6,0.8-1.9
		c0.5-0.4,1.1-0.6,1.7-0.6h24c0.2,0,0.4,0,0.6,0.1c0.2,0.1,0.3,0.3,0.4,0.5s0.2,0.5,0.3,0.8c0.1,0.3,0.1,0.7,0.1,1.2
		c0,0.4,0,0.8-0.1,1.1c-0.1,0.3-0.2,0.6-0.3,0.8c-0.1,0.2-0.2,0.4-0.4,0.4c-0.2,0.1-0.4,0.1-0.6,0.1h-19.8v14.5h17
		c0.2,0,0.4,0.1,0.6,0.2c0.2,0.1,0.3,0.3,0.4,0.4c0.1,0.2,0.2,0.5,0.3,0.8c0.1,0.3,0.1,0.7,0.1,1.2c0,0.4,0,0.8-0.1,1.1
		c-0.1,0.3-0.1,0.6-0.3,0.8c-0.1,0.2-0.3,0.3-0.4,0.4s-0.4,0.1-0.6,0.1h-17V250h20.1c0.2,0,0.4,0,0.6,0.1c0.2,0.1,0.3,0.2,0.5,0.4
		c0.1,0.2,0.2,0.5,0.3,0.8C1009.3,251.7,1009.3,252.1,1009.3,252.5z"/>
</g>
<g class="st1">
	<path class="st2" d="M780.3,671c0,0.1,0,0.3-0.1,0.4c-0.1,0.1-0.2,0.2-0.4,0.3c-0.2,0.1-0.4,0.1-0.7,0.2c-0.3,0-0.6,0.1-1.1,0.1
		c-0.4,0-0.8,0-1-0.1c-0.3,0-0.5-0.1-0.7-0.2c-0.2-0.1-0.3-0.2-0.4-0.3c-0.1-0.1-0.1-0.2-0.1-0.4v-41c0-0.1,0-0.2,0.1-0.4
		c0.1-0.1,0.2-0.2,0.4-0.3s0.4-0.1,0.7-0.2c0.3,0,0.6-0.1,1-0.1c0.4,0,0.8,0,1.1,0.1c0.3,0,0.5,0.1,0.7,0.2c0.2,0.1,0.3,0.2,0.4,0.3
		c0.1,0.1,0.1,0.2,0.1,0.4V671z"/>
	<path class="st2" d="M800.4,671c0,0.1,0,0.3-0.1,0.4c-0.1,0.1-0.2,0.2-0.4,0.3c-0.2,0.1-0.4,0.1-0.7,0.2c-0.3,0-0.6,0.1-1.1,0.1
		c-0.4,0-0.8,0-1-0.1c-0.3,0-0.5-0.1-0.7-0.2c-0.2-0.1-0.3-0.2-0.4-0.3c-0.1-0.1-0.1-0.2-0.1-0.4v-41c0-0.1,0-0.2,0.1-0.4
		c0.1-0.1,0.2-0.2,0.4-0.3s0.4-0.1,0.7-0.2c0.3,0,0.6-0.1,1-0.1c0.4,0,0.8,0,1.1,0.1c0.3,0,0.5,0.1,0.7,0.2c0.2,0.1,0.3,0.2,0.4,0.3
		c0.1,0.1,0.1,0.2,0.1,0.4V671z"/>
	<path class="st2" d="M844.2,631.1c0,0.3,0,0.5-0.1,0.8c0,0.2-0.1,0.4-0.2,0.5c-0.1,0.1-0.2,0.3-0.4,0.3c-0.1,0.1-0.3,0.1-0.5,0.1
		h-13.8V671c0,0.1,0,0.3-0.1,0.4s-0.2,0.2-0.4,0.3c-0.2,0.1-0.4,0.1-0.7,0.2c-0.3,0-0.6,0.1-1,0.1c-0.4,0-0.8,0-1-0.1
		c-0.3,0-0.5-0.1-0.7-0.2c-0.2-0.1-0.3-0.2-0.4-0.3c-0.1-0.1-0.1-0.2-0.1-0.4v-38.1h-13.8c-0.2,0-0.4,0-0.5-0.1
		c-0.1-0.1-0.2-0.2-0.3-0.3c-0.1-0.1-0.2-0.3-0.2-0.5c0-0.2-0.1-0.5-0.1-0.8c0-0.3,0-0.6,0.1-0.8c0-0.2,0.1-0.4,0.2-0.6
		c0.1-0.2,0.2-0.3,0.3-0.3c0.1-0.1,0.3-0.1,0.5-0.1h32c0.2,0,0.3,0,0.5,0.1c0.1,0.1,0.3,0.2,0.4,0.3c0.1,0.2,0.2,0.3,0.2,0.6
		C844.2,630.6,844.2,630.8,844.2,631.1z"/>
	<path class="st2" d="M900.7,670.9c0,0.2,0,0.3-0.1,0.4c0,0.1-0.2,0.2-0.3,0.3s-0.4,0.1-0.7,0.2c-0.3,0-0.7,0.1-1.1,0.1
		c-0.4,0-0.9,0-1.3-0.1c-0.4,0-0.8-0.1-1-0.3c-0.2-0.1-0.4-0.3-0.6-0.5l-18.7-21.7V671c0,0.1,0,0.3-0.1,0.4
		c-0.1,0.1-0.2,0.2-0.4,0.3c-0.2,0.1-0.4,0.1-0.7,0.2c-0.3,0-0.6,0.1-1.1,0.1c-0.4,0-0.8,0-1-0.1c-0.3,0-0.5-0.1-0.7-0.2
		c-0.2-0.1-0.3-0.2-0.4-0.3c-0.1-0.1-0.1-0.2-0.1-0.4v-41c0-0.1,0-0.2,0.1-0.4c0.1-0.1,0.2-0.2,0.4-0.3s0.4-0.1,0.7-0.2
		c0.3,0,0.6-0.1,1-0.1c0.4,0,0.8,0,1.1,0.1c0.3,0,0.5,0.1,0.7,0.2s0.3,0.2,0.4,0.3c0.1,0.1,0.1,0.2,0.1,0.4v19.2l17.9-19.2
		c0.1-0.2,0.3-0.3,0.5-0.4c0.2-0.1,0.4-0.2,0.6-0.3s0.5-0.1,0.8-0.1c0.3,0,0.6,0,1.1,0c0.4,0,0.8,0,1,0.1c0.3,0,0.5,0.1,0.6,0.2
		s0.3,0.2,0.3,0.3c0,0.1,0.1,0.2,0.1,0.3c0,0.2-0.1,0.5-0.2,0.7c-0.1,0.2-0.4,0.5-0.7,0.8L882,649.1l18,20.6
		c0.3,0.4,0.5,0.7,0.6,0.8C900.7,670.7,900.7,670.8,900.7,670.9z"/>
	<path class="st2" d="M944.5,670.3c0.1,0.3,0.2,0.6,0.2,0.8c0,0.2-0.1,0.4-0.2,0.5c-0.2,0.1-0.4,0.2-0.7,0.2c-0.3,0-0.7,0-1.2,0
		s-0.9,0-1.2,0c-0.3,0-0.5-0.1-0.7-0.1s-0.3-0.2-0.4-0.3c-0.1-0.1-0.2-0.2-0.2-0.4l-4.4-11.3h-20.3l-4.3,11.2c0,0.2-0.1,0.3-0.2,0.4
		c-0.1,0.1-0.2,0.2-0.4,0.3c-0.2,0.1-0.4,0.1-0.7,0.2c-0.3,0-0.7,0.1-1.1,0.1c-0.5,0-0.9,0-1.3-0.1c-0.3,0-0.6-0.1-0.7-0.2
		c-0.2-0.1-0.2-0.3-0.2-0.5c0-0.2,0.1-0.5,0.2-0.8l16.2-40.3c0.1-0.2,0.2-0.3,0.3-0.4c0.1-0.1,0.3-0.2,0.6-0.3
		c0.2-0.1,0.5-0.1,0.8-0.1c0.3,0,0.7,0,1.1,0c0.4,0,0.8,0,1.1,0c0.3,0,0.6,0.1,0.8,0.1s0.4,0.2,0.5,0.3c0.1,0.1,0.2,0.3,0.3,0.4
		L944.5,670.3z M925.3,633.6L925.3,633.6l-8.8,22.8h17.7L925.3,633.6z"/>
	<path class="st2" d="M988.4,669.7c0,0.4-0.1,0.7-0.2,1s-0.3,0.5-0.5,0.6c-0.2,0.2-0.4,0.3-0.7,0.3c-0.2,0.1-0.5,0.1-0.7,0.1h-0.9
		c-0.5,0-0.9-0.1-1.3-0.2c-0.4-0.1-0.8-0.3-1.1-0.6c-0.4-0.3-0.7-0.6-1.1-1.1c-0.4-0.5-0.8-1-1.2-1.8l-16.3-26.4
		c-0.8-1.3-1.6-2.6-2.5-4c-0.8-1.4-1.6-2.7-2.3-4h0c0,1.6,0,3.2,0,4.9s0,3.3,0,4.9V671c0,0.1,0,0.3-0.1,0.4
		c-0.1,0.1-0.2,0.2-0.4,0.3c-0.2,0.1-0.4,0.1-0.7,0.2c-0.3,0-0.6,0.1-1.1,0.1c-0.4,0-0.8,0-1-0.1c-0.3,0-0.5-0.1-0.7-0.2
		c-0.2-0.1-0.3-0.2-0.4-0.3c-0.1-0.1-0.1-0.2-0.1-0.4v-39.6c0-0.8,0.2-1.3,0.7-1.6c0.5-0.3,0.9-0.4,1.3-0.4h1.8c0.6,0,1,0,1.4,0.1
		c0.4,0.1,0.7,0.2,1,0.4c0.3,0.2,0.6,0.5,0.9,0.9c0.3,0.4,0.6,0.9,1,1.5l12.5,20.2c0.8,1.3,1.5,2.5,2.2,3.6c0.7,1.2,1.4,2.3,2.1,3.4
		c0.7,1.1,1.3,2.2,2,3.3c0.7,1.1,1.3,2.2,1.9,3.3h0c0-1.8,0-3.7,0-5.7c0-2,0-3.9,0-5.7v-24.6c0-0.1,0-0.2,0.1-0.4
		c0.1-0.1,0.2-0.2,0.4-0.3c0.2-0.1,0.4-0.1,0.7-0.2c0.3,0,0.6,0,1.1,0c0.4,0,0.7,0,1,0c0.3,0,0.5,0.1,0.7,0.2
		c0.2,0.1,0.3,0.2,0.4,0.3c0.1,0.1,0.1,0.2,0.1,0.4V669.7z"/>
	<path class="st2" d="M1030.8,641.4c0,2-0.4,3.8-1.1,5.4c-0.7,1.6-1.8,3-3.1,4.2c-1.4,1.2-3,2.1-5,2.7c-2,0.7-4.3,1-7.1,1h-6V671
		c0,0.1,0,0.3-0.1,0.4c-0.1,0.1-0.2,0.2-0.4,0.3c-0.2,0.1-0.4,0.1-0.7,0.2c-0.3,0-0.6,0.1-1.1,0.1c-0.4,0-0.8,0-1-0.1
		c-0.3,0-0.5-0.1-0.7-0.2c-0.2-0.1-0.3-0.2-0.4-0.3c-0.1-0.1-0.1-0.2-0.1-0.4v-39.6c0-0.8,0.2-1.3,0.7-1.6c0.5-0.3,0.9-0.4,1.3-0.4
		h9.4c0.9,0,1.8,0,2.7,0.1s1.9,0.2,3.1,0.5s2.4,0.7,3.6,1.4s2.3,1.5,3.1,2.5c0.9,1,1.5,2.1,2,3.4
		C1030.5,638.5,1030.8,639.9,1030.8,641.4z M1026.1,641.8c0-1.8-0.4-3.4-1.2-4.7s-1.7-2.2-2.9-2.8s-2.3-1-3.5-1.2
		c-1.2-0.2-2.4-0.2-3.5-0.2h-6.6v18.4h6.3c2,0,3.7-0.2,5.1-0.7s2.5-1.1,3.4-1.9c0.9-0.8,1.6-1.8,2.1-3
		C1025.9,644.4,1026.1,643.2,1026.1,641.8z"/>
	<path class="st2" d="M1076.7,656c0,2.6-0.4,4.9-1.2,6.9s-1.9,3.7-3.4,5.1c-1.5,1.4-3.3,2.4-5.4,3.1c-2.1,0.7-4.4,1.1-7,1.1
		c-2.4,0-4.5-0.3-6.5-1c-2-0.7-3.7-1.7-5.2-3c-1.4-1.3-2.6-3-3.4-4.9s-1.2-4.2-1.2-6.8V630c0-0.1,0-0.2,0.1-0.4s0.2-0.2,0.4-0.3
		c0.2-0.1,0.4-0.1,0.7-0.2c0.3,0,0.6-0.1,1-0.1c0.4,0,0.8,0,1,0.1c0.3,0,0.5,0.1,0.7,0.2s0.3,0.2,0.4,0.3c0.1,0.1,0.1,0.2,0.1,0.4
		v25.9c0,2.1,0.3,4,0.8,5.6c0.6,1.6,1.4,2.9,2.4,4c1.1,1.1,2.3,1.9,3.9,2.4c1.5,0.5,3.2,0.8,5.1,0.8c1.9,0,3.7-0.3,5.2-0.8
		c1.5-0.5,2.8-1.3,3.8-2.3c1-1,1.9-2.3,2.4-3.9c0.6-1.6,0.8-3.4,0.8-5.5V630c0-0.1,0-0.2,0.1-0.4s0.2-0.2,0.4-0.3s0.4-0.1,0.7-0.2
		c0.3,0,0.6-0.1,1-0.1c0.4,0,0.8,0,1,0.1c0.3,0,0.5,0.1,0.7,0.2s0.3,0.2,0.4,0.3c0.1,0.1,0.1,0.2,0.1,0.4V656z"/>
	<path class="st2" d="M1121.3,670.9c0,0.2,0,0.3-0.1,0.4c-0.1,0.1-0.2,0.2-0.3,0.3c-0.2,0.1-0.4,0.1-0.7,0.2c-0.3,0-0.7,0.1-1.1,0.1
		c-0.4,0-0.7,0-1,0c-0.3,0-0.5-0.1-0.7-0.2c-0.2-0.1-0.3-0.2-0.5-0.4c-0.1-0.2-0.2-0.4-0.3-0.6l-4.3-10.3c-0.5-1.2-1-2.2-1.6-3.3
		c-0.6-1-1.3-1.9-2.1-2.7c-0.8-0.8-1.8-1.3-2.9-1.8c-1.1-0.4-2.5-0.7-4.1-0.7h-4.8V671c0,0.1,0,0.3-0.1,0.4
		c-0.1,0.1-0.2,0.2-0.4,0.3c-0.2,0.1-0.4,0.1-0.7,0.2c-0.3,0-0.6,0.1-1.1,0.1c-0.4,0-0.8,0-1-0.1c-0.3,0-0.5-0.1-0.7-0.2
		c-0.2-0.1-0.3-0.2-0.4-0.3c-0.1-0.1-0.1-0.2-0.1-0.4v-39.6c0-0.8,0.2-1.3,0.7-1.6c0.5-0.3,0.9-0.4,1.3-0.4h8.7c1.1,0,2.1,0,2.8,0.1
		c0.8,0.1,1.4,0.1,2.1,0.2c1.8,0.3,3.3,0.7,4.6,1.4c1.3,0.6,2.4,1.4,3.3,2.3c0.9,0.9,1.5,2,1.9,3.1c0.4,1.2,0.6,2.4,0.6,3.8
		c0,1.4-0.2,2.6-0.6,3.7c-0.4,1.1-1,2.1-1.8,2.9c-0.8,0.8-1.7,1.6-2.8,2.2c-1.1,0.6-2.3,1.1-3.6,1.5c0.8,0.3,1.5,0.7,2.1,1.2
		c0.6,0.5,1.2,1.1,1.8,1.7c0.5,0.7,1,1.5,1.5,2.3c0.5,0.9,1,1.9,1.4,3l4.3,9.9c0.3,0.8,0.5,1.3,0.6,1.6
		C1121.2,670.6,1121.3,670.8,1121.3,670.9z M1113.6,640.6c0-1.8-0.4-3.3-1.3-4.6c-0.9-1.3-2.4-2.2-4.4-2.7c-0.7-0.2-1.4-0.3-2.3-0.4
		c-0.8-0.1-1.9-0.1-3.2-0.1h-5.7v15.5h6.7c1.8,0,3.3-0.2,4.6-0.6s2.4-1,3.2-1.7c0.8-0.7,1.5-1.5,1.9-2.5S1113.6,641.7,1113.6,640.6z
		"/>
</g>
</svg>
