<?xml version="1.0" encoding="utf-8"?>
<!-- Generator: Adobe Illustrator 24.3.0, SVG Export Plug-In . SVG Version: 6.00 Build 0)  -->
<svg version="1.1" id="Layer_1" xmlns="http://www.w3.org/2000/svg" xmlns:xlink="http://www.w3.org/1999/xlink" x="0px" y="0px"
	 viewBox="0 0 1895.9 812" style="enable-background:new 0 0 1895.9 812;" xml:space="preserve">
<style type="text/css">
	.st0{fill:#FDD6BB;}
	.st1{display:none;}
	.st2{display:inline;}
</style>
<path class="st0" d="M245.1,275c-1.9,1.7-9.2,8.3-10.7,18.8c-1.2,9.2,3,11.8,1.5,22.4c-0.9,6.8-3.6,11.8-7,18.3
	c-4.3,8.2-5.6,7.6-8.1,13.3c-4.3,9.6-4.1,19.3-4,25.2c0.1,4.4,0.4,15.2,5.2,26c2.2,4.9,5.6,10.1,6.8,12c3.2,5,4.8,7.5,6.2,9
	c1.3,1.5,2.9,3.1,4.3,6.1c0.4,0.8,1.2,2.5,1.7,4.5c0.4,1.6,0.8,4.8-2,13.6c-0.4,1.1-1.3,3.9-4.2,10.9c-2.5,6-3.8,9-4.7,10.5
	c-3.6,6.4-8,9.7-11.5,12.3c-4.7,3.6-9.3,5.7-13.2,7c-0.8,0.2-1.4,0.8-1.9,1.7c-0.4,0.8-0.7,1.5-1,2.2c-3.9,10.1-0.3,21.3,1.1,25.2
	c0,0.1,0.1,0.3,0.2,0.4c7,14.7,11.9,17.6,15.2,17.3c0.9-0.1,1.8-0.4,3.3-0.2c5.4,0.7,8.9,6.8,10,8.7c7,11.6,22.2,23.9,29.6,28.4
	c9.9,5.9,18.9,5.5,30.7,4.9c12.3-0.6,13.2-3.5,35.3-8.1c14.2-3,21.5-4.5,32-4.3c9.2,0.1,12.2,1.4,27.6,2.5
	c8.7,0.6,16.1,0.8,21.2,0.9c1,0,1.9,0.6,2.4,1.6c2.2,3.7,5.5,8,10.4,10.7c5.6,3.1,9.5,1.9,25.3-0.9c21.3-3.8,22.9-3.2,36.3-6.5
	c4-1,8.5-4.3,15.2-4.2c5,0,5.9,1.4,12.9,2.5c6.7,1,11.7,0.7,18.5,0.2c9.6-0.7,9.2-1.7,18.1-2.4c11.1-0.9,10.4,0.8,22.8-0.1
	c9.6-0.6,11.8-1.7,17.2-0.2c5.3,1.5,5.8,3.3,11.5,4.2c3.5,0.6,6.9,0.4,13.8,0c5.2-0.3,5.8-0.5,8.8-0.7c7.5-0.4,13,0.7,16.1,1.2
	c15.1,2.4,17-1.4,35.4,0.7c13.3,1.5,15.7,4,25.9,3.1c4.8-0.4,7.1-1.2,14-1.5c9.5-0.5,11,0.7,18,0.5c14-0.4,16-5.3,26.7-4.8
	c8.6,0.4,14.4,3.9,18.5,5.8c10.3,5,26.9,8.7,54.4,2.2c0.8-0.2,1.6-0.8,2-1.7c0.4-0.7,0.9-1.4,1.6-1.9c1-0.8,2.1-0.8,2.5-0.9
	c9.9-0.6,17.5-4.2,29.9,0.3c3.5,1.3,2.8,1.5,6.3,2.9c3.3,1.3,12.8,4.6,33.9,0.9c3.8-0.7,18.3-3.4,29.3-3.1c2.3,0.1,6.3,0.3,8.4,3.6
	c2,3.2,1.1,7.2,2.9,8.2c1.7,1,4-1.8,6.1-3.4c2.5-2,5.8-3.5,18.9-2.2c12.2,1.2,15.2,3.1,23.4,4.1c5.3,0.7,13.1,1,22.7-0.9
	c0.8-0.2,1.6-0.8,2.1-1.6l0.7-1.3c0.6-1.1,1.7-1.8,2.8-1.7c5.5,0.6,13.3,1.2,22.7,0.8c13.9-0.5,19-2.5,28.2-2.2
	c7.3,0.2,17.7,1.9,30.5,9c1,0.6,2.2,0.4,3.2-0.4c0.7-0.7,1.6-1.4,2.6-2.2c1.8-1.4,5-3.7,9.2-4.5c1.1-0.2,9.2-1.4,15.2,5.1
	c0.6,0.6,1.1,1.3,1.5,1.8c0.7,1,1.7,1.5,2.7,1.3c2.9-0.4,6.7-0.9,11.3-1.1c14.4-0.7,22.6,1.7,32.8,3.1c24.6,3.4,22.6-4.4,45-1
	c0,0,19.1,2.8,30.9-2.1c3.7-1.5,3.7-1.5,3.7-1.5c4.2-1.8,4.6-2.1,5.4-2.2c3.9-0.7,7.5,4.7,8.7,6.2c6.5,8.4,21.1,5.4,39.3,3.8
	c9-0.8,22.3-1.6,39-1.2c11.6-0.5,21-0.4,27.5-0.2c12.4,0.4,18.6,1.2,29.8,0c6.4-0.7,6.1-1.2,14.6-2.2c5.8-0.7,14.4-1.7,24.9-1.5
	c7,0.1,16.1,0.8,26.8,3c0.4,0.1,0.8,0.1,1.2-0.1c3.1-1,6.5-1.9,10-2.6c13.6-2.7,25.8-2,35.5-0.2c0.1,0,0.2,0,0.3,0
	c7.6,0.5,15.2,0.9,22.8,1.4c1.3,0.1,2.6-0.9,3-2.4c0.2-0.7,0.5-1.4,0.9-2.1c3.2-6.1,10.8-6.4,18-6.3c7.7,0,17.5,0.3,29.3,1.5
	c1,0.1,2-0.4,2.6-1.4c0.9-1.4,2.1-2.9,3.8-4.1c4.7-3.6,9.2-2.1,12.8-2.7c8.4-1.4,13.2-14,16-19.7c4.9-10.4,15.2-24,38.6-37.4
	c0.9-0.5,1.6-1.6,1.8-2.8c1-7.1,1.6-15.7,1.4-25.3c-0.1-5.4-0.5-10.4-1.1-14.9c-0.1-0.8-0.4-1.5-0.8-2.1c-1-1.3-2.2-3.2-2.9-5.7
	c-1.7-5.5-0.2-10.3,1-16.1c0,0,1.1-5.1,1.2-42.5c0-0.4,0-1.4-0.4-2.4c-1-2.5-3.6-3.2-4.3-3.4c-4.6-1.7-7.8-16.4-8.7-26.8
	c-1.1-13.4,1.4-24.6,3.7-31.9c0.1-0.4,0.2-0.7,0.2-1.1c0.6-10.5,0.7-19.3,0.5-25.8c-0.4-15.7-1.7-19.3-3.7-21.8
	c-1.4-1.7-4.4-3.5-10.3-7c-3-1.8-4.6-2.7-6.3-3.3c-4.5-1.4-6.2,0.2-10.7-0.2c-6.2-0.5-6.2-3.7-11.8-4.5c-5.9-0.8-6.4,2.6-14.3,3.4
	c-7.4,0.8-8.8-2.1-15.3-1c-6.1,1-9.1,4.1-12.7,6c-11.2,5.9-23.6-2.6-32.5-7c-8.9-4.5-23.3-5.3-52.1-7c-17.6-1.1-66.4-2.4-89.5,3.1
	c-3.7,0.9-9.8,2.6-17.4,0.3c-6.4-2-8.1-5.1-15.2-7c-4.9-1.3-8-0.9-15.4-0.3c-7.9,0.6-15.9,0.4-23.8,1c-30.7,2.4-41.5-4.4-73.7-0.5
	c-19.4,2.4-20.7,5.5-31.4,3.8c-14.6-2.3-27.2-4.3-34.4-6.5c-0.6-0.2-2.4-0.7-4.7-0.5c-5,0.5-8.5,4.4-9.2,5.1
	c-6.8,7-29.3-0.1-38.2-2.4c-7.2-1.9-36.6-9.5-65,1.5c-10,3.9-15.2,8.3-25.9,8.1c-10-0.2-14-4.3-26.7-5.5c-10.7-1-11.3,1.5-23,1.7
	c-17.8,0.3-33.4-5.4-44.9-9.6c-11.8-4.3-16.7-7.5-25.6-6.2c-6.4,1-6.7,3.1-16.9,6.5c-4.4,1.5-15.4,5.1-28.6,4.8
	c-12.7-0.2-13.8-3.7-24.1-2.2c-7.7,1.1-9.2,3.4-17.6,5.5c-7.6,1.9-10.8,1.1-25.2,0.9c-21.9-0.3-23.1,1.3-43.4,0.5
	c-6.3-0.3-3.9-0.3-18.5-1.2c-28.7-1.7-32.7-1.1-42.8-2.7c-6.7-1.1-16.4-3.2-28.1-7.7c-0.9-0.3-1.8-0.2-2.6,0.4
	c-5.9,4.5-10.8,6.8-13.8,8c-4.8,1.8-6.7,1.6-8.1,1c-2.6-1-3.4-3.1-5.4-2.7c-1.4,0.2-1.6,1.3-5.2,4.8c-2.1,2.1-3.2,3.1-4.1,3.4
	c-3.5,1.2-7-1.9-7.6-2.4c-4.4-3.9-3.9-9-6.6-9.6c-2-0.4-2.9,2-7.3,5.1c0,0-2.4,1.7-7.6,3.8c-14.5,5.9-40.2-0.7-40.2-0.7
	c-9.5-2.4-22.3-6.6-36.9-14.5c-0.7-0.4-1.5-0.4-2.2-0.1c-1.4,0.6-3.8,1.6-6.6,2.8c-17.3,7.3-22.2,9.6-29.3,9.3
	c-3.2-0.2-2.1-0.6-7.2-1.2c-7.4-0.9-12.1-0.2-25.8,1.7c-15.9,2.2-18.2,2.4-22,2.6c-6.9,0.3-6.4-0.3-14-0.2c-2.4,0-14,0.3-29.6,3.1
	c-7.8,1.4-9,2.1-14.2,3.1c-15.9,3-27.5,1-37.1,0c-27-2.8-25.2,3.8-50.1,1.4C270.8,275.7,257.8,263.6,245.1,275z"/>
<g>
	<path d="M555.2,238.9h55.2c1.1,0,1.6,0.6,1.6,1.8c0,0.9-0.6,1.4-1.8,1.6c-4.2,0.6-7.2,2.5-9.1,5.5c-1.8,3.1-2.7,8-2.7,14.8V351
		c0,6.8,0.9,11.7,2.7,14.8c1.8,3.1,4.8,4.9,9.1,5.5c1.2,0.2,1.8,0.7,1.8,1.6c0,1.2-0.5,1.8-1.6,1.8h-55.2c-1.2,0-1.8-0.6-1.8-1.8
		c0-0.9,0.6-1.4,1.8-1.6c3.2-0.5,5.6-1.4,7.4-2.9c1.7-1.5,2.9-3.6,3.5-6.3c0.6-2.7,0.9-6.4,0.9-11.1v-88.3c0-6.9-0.8-11.9-2.4-14.9
		c-1.6-3-4.7-4.8-9.4-5.4c-1.2-0.1-1.8-0.7-1.8-1.6C553.4,239.5,554,238.9,555.2,238.9z"/>
	<path d="M667.5,286.9c0.3,0,0.6,0.1,0.9,0.2c0.5,0.3,0.7,0.8,0.7,1.6v8.4c5.4-6.5,12.9-9.7,22.4-9.7c22,0,34.7,10.6,38,31.7
		l3.6,31.9c0.9,6.6,2.4,11.5,4.5,14.6c2.1,3.1,5.4,5,9.7,5.8c1.4,0.2,2,0.7,2,1.6c0,1.2-0.6,1.8-1.8,1.8h-54.8c-1.4,0-2-0.6-2-1.8
		c0-0.9,0.7-1.4,2-1.6c4.4-0.8,7.1-2.6,8.3-5.5c1.1-2.9,1.3-7.9,0.6-14.8l-3.6-35.1c-0.9-6.8-2.7-12.4-5.4-16.9
		c-2.7-4.5-6.6-6.3-11.8-5.5c-2.6,0.3-4.6,1.2-6.2,2.7c-1.6,1.5-2.8,3.7-3.5,6.7c-0.8,2.9-1.3,6.1-1.6,9.5c-0.3,3.4-0.5,7.7-0.5,13
		V351c0,6.8,0.9,11.7,2.7,14.8c1.8,3.1,4.8,4.9,9.1,5.5c1.2,0.2,1.8,0.7,1.8,1.6c0,1.2-0.5,1.8-1.6,1.8h-55.2
		c-1.2,0-1.8-0.6-1.8-1.8c0-0.9,0.6-1.4,1.8-1.6c4.7-0.6,7.8-2.4,9.4-5.4c1.6-3,2.4-8,2.4-14.9v-21.7c0-7.5-0.7-13-2-16.4
		c-1.4-3.4-4.4-5.7-9.1-6.9c-1.2-0.3-1.8-0.9-1.8-1.8c0-1.1,0.6-1.7,1.8-1.8c6.5-0.1,13.1-1.5,19.7-4.1c6.6-2.6,11.2-4.7,13.8-6.3
		c2.6-1.7,4.7-3.2,6.3-4.5C666.7,287.1,667.1,286.9,667.5,286.9z"/>
	<path d="M784.8,256.6c0.3-0.9,0.9-1.3,1.8-1.1c0.9,0.2,1.4,0.8,1.4,1.8v34.6h15.6c1.2,0,1.8,0.6,1.8,1.7c0,1.1-0.6,1.7-1.8,1.7H788
		v49.1c0,11.8,2.4,17.6,7.2,17.4c1.8,0,3.6-0.8,5.4-2.5c1.8-1.7,3.2-3.5,4.1-5.7c0.3-0.8,0.8-1.1,1.6-1.1c0.6,0,1.1,0.3,1.4,0.8
		c0.3,0.5,0.3,1.1,0,1.7c-2.6,5.9-6.3,10.9-11.3,14.9c-5,4.1-10.5,6.1-16.5,6.1c-7.9,0-13.7-2.5-17.7-7.4c-3.9-4.9-5.9-13-5.9-24.3
		l0.2-34.9c0-2.7,0-4.8,0-6.1s-0.2-2.7-0.6-4.1c-0.4-1.4-0.7-2.2-0.9-2.6c-0.2-0.4-0.9-0.8-2-1.1c-1.1-0.4-2.2-0.6-3.1-0.6
		s-2.4,0-4.5,0c-1.4-0.3-2-0.9-2-1.8s0.6-1.4,1.8-1.6c6.3-1.4,14-5.8,23-13.2C777.2,271,782.7,263.7,784.8,256.6z"/>
	<path d="M858.6,287.1c3.9,0,7.8,0.5,11.8,1.5c3.9,1,7.7,2.5,11.3,4.6c3.6,2.1,6.6,4.7,9.1,7.7c2,2.6,3.3,5.4,4.1,8.6
		c0.8,3.2,0.8,6.2,0.1,9.2s-2.3,5.5-5,7.7c-2.6,2.2-6.2,3.5-10.5,4l-33.1,3.8c1.5,7.2,4.5,13.1,9.1,17.7c4.5,4.5,9.4,7.3,14.6,8.4
		c5.2,1.1,10.3,0.6,15.4-1.2c5.1-1.9,8.9-5.2,11.7-9.8c0.1-0.1,0.2-0.3,0.2-0.5c1.1-2.1,2.1-2.9,3.2-2.5c0.8,0.5,1.1,1.1,0.9,2
		c-5,18.6-19.1,27.8-42.3,27.8c-6.5,0-12.7-1.2-18.6-3.5c-5.9-2.3-11.1-5.9-15.7-10.8c-4.6-4.8-7.8-10.5-9.6-17
		c-0.9-2.6-1.5-5.4-1.8-8.6c-0.6-6.8-0.2-13.1,1.2-18.8c1.4-5.7,3.9-10.9,7.4-15.5c3.5-4.6,8.3-8.2,14.5-10.9
		C842.6,288.5,850,287.1,858.6,287.1z M858.4,290.5c-3.9,0-7.2,2.4-9.7,7.1c-2.6,4.8-4,10.1-4.2,16.1c-0.2,6,0.2,11.7,1.2,17.3
		c8.5-1.1,15-3.2,19.7-6.6c4.7-3.3,6.7-8.4,6.1-15.2c-0.3-3-0.7-5.6-1.2-7.7c-0.5-2.1-1.3-4.1-2.3-5.9c-1-1.8-2.3-3.1-3.8-4
		C862.6,291,860.7,290.5,858.4,290.5z"/>
	<path d="M973.9,286c8,0,13.8,3,17.5,9.1c3.7,6,3.5,12.5-0.6,19.5c-1.8,2.9-4.3,4.9-7.6,6c-3.2,1.1-6.5,1.2-9.6,0.3
		c-5.3-1.5-7.9-4.6-7.9-9.3c0-2.4,1.3-4.5,4-6.3c2.6-1.8,4-3.6,4-5.4c0-2.7-0.9-4.9-2.7-6.6c-1.8-1.7-4.2-2.3-7-1.8
		c-5,1.5-8.3,4.8-10,9.8c-1.7,5.1-2.5,12.8-2.5,23.2V351c0,6.8,0.9,11.7,2.6,14.8c1.7,3.1,4.8,4.9,9.2,5.5c1.2,0.2,1.8,0.7,1.8,1.6
		c0,1.2-0.6,1.8-1.8,1.8h-55c-1.2,0-1.8-0.6-1.8-1.8c0-0.9,0.6-1.4,1.8-1.6c4.5-0.6,7.6-2.4,9.3-5.4c1.7-3,2.5-8,2.5-14.9v-21.7
		c0-7.2-0.9-12.7-2.6-16.4c-1.7-3.7-4.6-5.9-8.5-6.7c-1.4-0.3-2-0.9-2-1.8c0-1.1,0.7-1.6,2-1.6c6.5-0.3,13.1-1.7,19.7-4.3
		c6.6-2.6,11.2-4.7,13.7-6.3c2.5-1.7,4.6-3.2,6.2-4.5c0.6-0.5,1.2-0.6,1.9-0.3c0.7,0.2,1,0.8,1,1.7v6.8c4.5-4.4,9.2-7.2,14-8.6
		C968.5,286.4,971.3,286,973.9,286z"/>
	<path d="M1071.7,238.9h55.2c1.1,0,1.6,0.6,1.6,1.8c0,0.9-0.6,1.4-1.8,1.6c-4.2,0.6-7.2,2.5-9.1,5.5c-1.8,3.1-2.7,8-2.7,14.8V351
		c0,6.8,0.9,11.7,2.7,14.8c1.8,3.1,4.8,4.9,9.1,5.5c1.2,0.2,1.8,0.7,1.8,1.6c0,1.2-0.5,1.8-1.6,1.8h-55.2c-1.2,0-1.8-0.6-1.8-1.8
		c0-0.9,0.6-1.4,1.8-1.6c3.2-0.5,5.6-1.4,7.4-2.9c1.7-1.5,2.9-3.6,3.5-6.3c0.6-2.7,0.9-6.4,0.9-11.1v-88.3c0-6.9-0.8-11.9-2.4-14.9
		c-1.6-3-4.7-4.8-9.4-5.4c-1.2-0.1-1.8-0.7-1.8-1.6C1069.9,239.5,1070.5,238.9,1071.7,238.9z"/>
	<path d="M1142.3,238.9h55.2c1.1,0,1.6,0.6,1.6,1.8c0,0.9-0.6,1.4-1.8,1.6c-4.2,0.6-7.2,2.5-9.1,5.5c-1.8,3.1-2.7,8-2.7,14.8V351
		c0,6.8,0.9,11.7,2.7,14.8c1.8,3.1,4.8,4.9,9.1,5.5c1.2,0.2,1.8,0.7,1.8,1.6c0,1.2-0.5,1.8-1.6,1.8h-55.2c-1.2,0-1.8-0.6-1.8-1.8
		c0-0.9,0.6-1.4,1.8-1.6c3.2-0.5,5.6-1.4,7.4-2.9c1.7-1.5,2.9-3.6,3.5-6.3c0.6-2.7,0.9-6.4,0.9-11.1v-88.3c0-6.9-0.8-11.9-2.4-14.9
		c-1.6-3-4.7-4.8-9.4-5.4c-1.2-0.1-1.8-0.7-1.8-1.6C1140.5,239.5,1141.1,238.9,1142.3,238.9z"/>
	<path d="M1215,238.9h111.9l3.8,37.6c0.1,1.2-0.4,1.9-1.6,2c-1.2,0.2-1.8-0.4-1.8-1.6l-1.6-12.9c-2-14.5-9.6-21.7-22.9-21.7h-16.1
		V351c0,6.8,0.9,11.7,2.7,14.8c1.8,3.1,4.9,4.9,9.3,5.5c1.1,0.2,1.6,0.7,1.6,1.6c0,1.2-0.5,1.8-1.6,1.8h-55c-1.4,0-2-0.6-2-1.8
		c0-0.9,0.7-1.4,2-1.6c4.5-0.6,7.6-2.4,9.2-5.4c1.6-3,2.4-8,2.4-14.9V242.3H1239c-13.4,0-21.1,7.2-23.1,21.7l-1.4,12.9
		c-0.2,1.2-0.8,1.7-1.9,1.6c-1.1-0.1-1.6-0.8-1.5-2L1215,238.9z"/>
	<path d="M364.9,431.8c8.9-2.4,18.9-3.2,29.9-2.5c4.4,0.3,8.6,0.8,12.6,1.5c4,0.7,7,1.3,9.1,1.8c2,0.5,3.9,0.9,5.7,1.2
		c1.7,0.3,3,0.3,3.8,0c0.8-0.3,1.5-1.1,2.2-2.3c0.3-0.9,0.9-1.3,1.8-1.1c0.9,0.2,1.4,0.8,1.4,1.8v29.2c0,1.1-0.5,1.7-1.6,1.8
		c-0.9,0-1.5-0.5-1.8-1.4c-1.7-6-3.8-11.1-6.5-15.2c-2.6-4.1-5.6-7.1-8.9-9.1c-3.3-2-6.5-3.3-9.5-4.1c-3-0.8-6.4-1.1-10.2-1.1
		c-5.4,0-10.7,1.4-15.8,4.1c-5.1,2.7-9.9,6.7-14.3,11.9c-4.4,5.2-7.9,12.2-10.5,20.8c-2.6,8.7-4,18.4-4,29.2
		c0,10.8,1.2,20.5,3.7,29.2c2.5,8.7,5.8,15.6,10.1,20.7c4.2,5.1,8.9,9,13.9,11.7c5.1,2.6,10.2,4,15.5,4c8.5-0.1,16-3.1,22.8-8.9
		c6.7-5.8,11.3-13.5,13.7-23c0.3-0.9,0.9-1.3,1.9-1.2c1,0.1,1.5,0.6,1.5,1.7v31.9c0,1.1-0.4,1.7-1.1,1.8c-0.8,0.1-1.4-0.2-2-1.1
		c-1.1-1.5-2.9-2.3-5.5-2.4c-2.6-0.1-5.6,0.3-8.8,1c-3.2,0.8-7.6,1.6-13,2.5s-10.6,1.4-15.6,1.4c-6.6-0.2-12.8-0.8-18.3-2
		c-14.9-3.6-27.1-11.7-36.3-24.1s-13.9-26.8-13.9-43.1c0-15.8,4.5-29.9,13.4-42.1C338.7,444,350.4,435.9,364.9,431.8z"/>
	<path d="M481.5,478.7c1.2,0,1.8,0.6,1.8,1.8v55.2c0,8,1.1,14.6,3.4,19.7c2.3,5.1,6,7.7,11.1,7.7c4.8-0.1,8.7-3.3,11.5-9.5
		c2.9-6.2,4.3-13,4.3-20.4v-12.5c0-4.8-0.3-8.8-1-12c-0.7-3.2-1.9-5.7-3.5-7.6c-1.7-1.9-3.8-3.1-6.3-3.5c-1.4-0.3-2-0.9-2-1.8
		c0-1.1,0.6-1.6,1.8-1.6c5.1-0.1,10.1-0.9,15.1-2.4c4.9-1.4,9.2-3.1,12.8-5.1c3.6-2,6.3-3.5,7.9-4.6c1.7-1.1,3-2.2,4.1-3.1
		c0.3-0.3,0.7-0.5,1.1-0.5c1.2,0,1.8,0.6,1.8,1.8v57.7c0,5.6,0.5,10.1,1.4,13.6c1.2,4.2,3.3,6.6,6.3,7.2c0.3,0.2,0.9,0.2,1.9,0.1
		c1-0.1,1.5-0.1,1.7-0.1c0.9,0,1.5,0.4,1.7,1.2c0.2,0.8,0,1.5-0.8,1.9c-6.6,3.6-13.2,5.4-19.7,5.4c-10.9,0-18.3-3.4-22.2-10.2
		c-5.1,6.9-14.3,10.3-27.6,10.2c-10.7,0-19.5-2.8-26.3-8.4c-6.8-5.6-10.2-13.4-10.2-23.5v-14.9c0-7.2-0.8-12.7-2.5-16.4
		c-1.7-3.7-4.5-5.9-8.4-6.7c-1.4-0.3-2-0.9-2-1.8c0-1.1,0.6-1.6,1.8-1.6c6.6-0.3,13.3-1.7,19.9-4.3c6.6-2.6,11.2-4.7,13.7-6.3
		c2.5-1.7,4.6-3.2,6.2-4.5C480.7,478.8,481.1,478.7,481.5,478.7z"/>
	<path d="M612.6,430.9c0.6-0.6,1.3-0.7,2-0.2c0.5,0.3,0.7,0.8,0.7,1.6v110.3c0,6.8,0.9,11.7,2.7,14.8c1.8,3.1,4.8,4.9,9.1,5.5
		c1.2,0.2,1.8,0.7,1.8,1.6c0,1.2-0.5,1.8-1.6,1.8h-55.2c-1.2,0-1.8-0.6-1.8-1.8c0-0.9,0.6-1.4,1.8-1.6c4.7-0.6,7.8-2.4,9.4-5.4
		c1.6-3,2.4-8,2.4-14.9v-70c0-7.2-0.9-12.7-2.6-16.4c-1.7-3.7-4.6-5.9-8.5-6.7c-1.4-0.3-2-0.9-2-1.8c0-1.1,0.7-1.6,2-1.6
		c6.5-0.3,13.1-1.7,19.7-4.2c6.6-2.5,11.2-4.6,13.8-6.3C608.9,433.8,611,432.2,612.6,430.9z"/>
	<path d="M668.8,448.1c0.3-0.9,0.9-1.3,1.8-1.1c0.9,0.2,1.4,0.8,1.4,1.8v34.6h15.6c1.2,0,1.8,0.6,1.8,1.7c0,1.1-0.6,1.7-1.8,1.7H672
		v49.1c0,11.8,2.4,17.6,7.2,17.4c1.8,0,3.6-0.8,5.4-2.5c1.8-1.7,3.2-3.5,4.1-5.7c0.3-0.8,0.8-1.1,1.6-1.1c0.6,0,1.1,0.3,1.4,0.8
		c0.3,0.5,0.3,1.1,0,1.7c-2.6,5.9-6.3,10.9-11.3,14.9c-5,4.1-10.5,6.1-16.5,6.1c-7.9,0-13.7-2.5-17.7-7.4c-3.9-4.9-5.9-13-5.9-24.3
		l0.2-34.9c0-2.7,0-4.8,0-6.1s-0.2-2.7-0.6-4.1c-0.4-1.4-0.7-2.2-0.9-2.6c-0.2-0.4-0.9-0.8-2-1.1c-1.1-0.4-2.2-0.6-3.1-0.6
		s-2.4,0-4.5,0c-1.4-0.3-2-0.9-2-1.8c0-0.9,0.6-1.4,1.8-1.6c6.3-1.4,14-5.8,23-13.2C661.1,462.5,666.7,455.2,668.8,448.1z"/>
	<path d="M735.4,478.7c1.2,0,1.8,0.6,1.8,1.8v55.2c0,8,1.1,14.6,3.4,19.7c2.3,5.1,6,7.7,11.1,7.7c4.8-0.1,8.7-3.3,11.5-9.5
		c2.9-6.2,4.3-13,4.3-20.4v-12.5c0-4.8-0.3-8.8-1-12c-0.7-3.2-1.9-5.7-3.5-7.6c-1.7-1.9-3.8-3.1-6.3-3.5c-1.4-0.3-2-0.9-2-1.8
		c0-1.1,0.6-1.6,1.8-1.6c5.1-0.1,10.1-0.9,15.1-2.4c4.9-1.4,9.2-3.1,12.8-5.1c3.6-2,6.3-3.5,7.9-4.6c1.7-1.1,3-2.2,4.1-3.1
		c0.3-0.3,0.7-0.5,1.1-0.5c1.2,0,1.8,0.6,1.8,1.8v57.7c0,5.6,0.5,10.1,1.4,13.6c1.2,4.2,3.3,6.6,6.3,7.2c0.3,0.2,0.9,0.2,1.9,0.1
		c1-0.1,1.5-0.1,1.7-0.1c0.9,0,1.5,0.4,1.7,1.2c0.2,0.8,0,1.5-0.8,1.9c-6.6,3.6-13.2,5.4-19.7,5.4c-10.9,0-18.3-3.4-22.2-10.2
		c-5.1,6.9-14.3,10.3-27.6,10.2c-10.7,0-19.5-2.8-26.3-8.4c-6.8-5.6-10.2-13.4-10.2-23.5v-14.9c0-7.2-0.8-12.7-2.5-16.4
		c-1.7-3.7-4.5-5.9-8.4-6.7c-1.4-0.3-2-0.9-2-1.8c0-1.1,0.6-1.6,1.8-1.6c6.6-0.3,13.3-1.7,19.9-4.3c6.6-2.6,11.2-4.7,13.7-6.3
		c2.5-1.7,4.6-3.2,6.2-4.5C734.5,478.8,734.9,478.7,735.4,478.7z"/>
	<path d="M891.6,477.5c8,0,13.8,3,17.5,9.1c3.7,6,3.5,12.5-0.6,19.5c-1.8,2.9-4.3,4.9-7.6,6c-3.2,1.1-6.5,1.2-9.6,0.3
		c-5.3-1.5-7.9-4.6-7.9-9.3c0-2.4,1.3-4.5,4-6.3c2.6-1.8,4-3.6,4-5.4c0-2.7-0.9-4.9-2.7-6.6c-1.8-1.7-4.2-2.3-7-1.8
		c-5,1.5-8.3,4.8-10,9.8c-1.7,5.1-2.5,12.8-2.5,23.2v26.5c0,6.8,0.9,11.7,2.6,14.8c1.7,3.1,4.8,4.9,9.2,5.5c1.2,0.2,1.8,0.7,1.8,1.6
		c0,1.2-0.6,1.8-1.8,1.8h-55c-1.2,0-1.8-0.6-1.8-1.8c0-0.9,0.6-1.4,1.8-1.6c4.5-0.6,7.6-2.4,9.3-5.4c1.7-3,2.5-8,2.5-14.9v-21.7
		c0-7.2-0.9-12.7-2.6-16.4c-1.7-3.7-4.6-5.9-8.5-6.7c-1.4-0.3-2-0.9-2-1.8c0-1.1,0.7-1.6,2-1.6c6.5-0.3,13.1-1.7,19.7-4.3
		c6.6-2.6,11.2-4.7,13.7-6.3c2.5-1.7,4.6-3.2,6.2-4.5c0.6-0.5,1.2-0.6,1.9-0.3c0.7,0.2,1,0.8,1,1.7v6.8c4.5-4.4,9.2-7.2,14-8.6
		C886.2,477.9,889,477.5,891.6,477.5z"/>
	<path d="M957.5,478.7c27.3-1.4,42.8,9.3,46.4,31.9l3.4,29.2c2,11.9,5.6,18.3,10.9,19.2c0.1,0.2,0.7,0.2,1.7,0.1
		c1-0.1,1.6-0.1,1.9-0.1c0.9,0,1.4,0.4,1.6,1.2c0.1,0.8-0.2,1.5-0.9,1.9c-6.3,3.8-13.5,5.7-21.5,5.7c-11.3,0-18.9-3.8-22.6-11.3
		c-1.4,1.5-2.8,2.8-4.4,4c-1.6,1.1-3.4,2.2-5.5,3.3c-2.1,1.1-4.8,2-8,2.7c-3.2,0.8-6.8,1.1-10.5,1.1c-5.4,0-10.4-0.7-14.8-2
		c-4.5-1.4-8.2-3.8-11.3-7.2c-3.1-3.5-4.6-7.9-4.6-13.4c0-5.3,1.1-9.7,3.4-13.1c2.3-3.5,5.3-6,9.1-7.5c3.8-1.5,7.6-2.6,11.4-3.4
		c3.8-0.8,8-1.5,12.5-2.2c4.5-0.7,7.8-1.5,10.1-2.6c2.7-1.2,4.5-2.8,5.3-4.8c0.8-2,1-4.7,0.6-8.2c-0.3-3.2-0.9-6.2-1.9-9.1
		c-1-2.9-2.8-5.6-5.3-8.3c-2.6-2.6-5.6-4-9.1-4c-3.3,0-5.8,0.8-7.4,2.4c-1.6,1.6-2.4,3.5-2.4,5.8c0,1.5,0.5,2.9,1.5,4.1
		c1,1.2,2.1,2.2,3.3,2.9c1.2,0.8,2.2,2,3.1,3.6c0.8,1.7,1.1,3.5,0.7,5.7c-0.4,2.1-1.4,4-3.2,5.5c-1.7,1.6-3.7,2.6-5.9,3.1
		c-2.2,0.5-4.5,0.5-6.8,0.2c-2.3-0.3-4.5-1.3-6.3-2.9c-1.9-1.7-3.1-3.8-3.7-6.3c-2-6.9-0.3-13.1,5-18.5
		C938.1,482.2,946.3,479.3,957.5,478.7z M972.6,514.9c-1.5,2.1-3.5,3.8-5.9,5c-0.5,0.3-1.7,1.1-3.7,2.3c-2,1.2-3.4,2.1-4.2,2.6
		c-0.8,0.5-2,1.5-3.6,2.8c-1.7,1.4-2.8,2.6-3.5,3.7c-0.7,1.1-1.3,2.6-1.9,4.5c-0.6,1.9-0.9,3.9-0.9,6c0,8.5,3.5,14,10.4,16.8
		c5.6,2.1,10.3,1.5,14-1.8c2.6-2.1,3.6-4.9,3.2-8.4L972.6,514.9z"/>
	<path d="M1075.2,430.9c0.6-0.6,1.3-0.7,2-0.2c0.5,0.3,0.7,0.8,0.7,1.6v110.3c0,6.8,0.9,11.7,2.7,14.8c1.8,3.1,4.8,4.9,9.1,5.5
		c1.2,0.2,1.8,0.7,1.8,1.6c0,1.2-0.5,1.8-1.6,1.8h-55.2c-1.2,0-1.8-0.6-1.8-1.8c0-0.9,0.6-1.4,1.8-1.6c4.7-0.6,7.8-2.4,9.4-5.4
		c1.6-3,2.4-8,2.4-14.9v-70c0-7.2-0.9-12.7-2.6-16.4c-1.7-3.7-4.6-5.9-8.5-6.7c-1.4-0.3-2-0.9-2-1.8c0-1.1,0.7-1.6,2-1.6
		c6.5-0.3,13.1-1.7,19.7-4.2c6.6-2.5,11.2-4.6,13.8-6.3C1071.4,433.8,1073.5,432.2,1075.2,430.9z"/>
	<path d="M1167.1,430.4h40.3l34.6,89.9l33.1-89.9h43.5c1.1,0,1.6,0.6,1.6,1.8c0,0.9-0.5,1.4-1.6,1.6c-4.4,0.6-7.4,2.5-9.2,5.5
		c-1.7,3.1-2.6,8-2.6,14.8v88.3c0,6.8,0.9,11.7,2.6,14.8c1.7,3.1,4.8,4.9,9.2,5.5c1.1,0.2,1.6,0.7,1.6,1.6c0,1.2-0.5,1.8-1.6,1.8
		h-55c-1.4,0-2-0.6-2-1.8c0-0.9,0.7-1.4,2-1.6c3-0.5,5.4-1.4,7.1-2.9c1.7-1.5,2.9-3.6,3.5-6.3c0.6-2.7,0.9-6.4,0.9-11.1V440.2
		l-46.2,126.1h-2.9l-43.7-113.7c0,0.5,0,1,0,1.6v88.3c0,0.5,0,0.8,0,1.1c0,6.3,0.9,11,2.7,13.9s4.8,4.7,9.1,5.3
		c1.2,0.2,1.8,0.7,1.8,1.6c-0.2,1.2-0.8,1.8-1.8,1.8h-26.9c-1.2,0-1.8-0.6-1.8-1.8c0-0.9,0.6-1.4,1.8-1.6c4.7-0.6,7.8-2.4,9.4-5.4
		c1.6-3,2.4-8,2.4-14.9v-88.3c0-6.9-0.8-11.9-2.4-14.9c-1.6-3-4.7-4.8-9.4-5.4c-1.2-0.1-1.8-0.7-1.8-1.6
		C1165.3,431,1165.9,430.4,1167.1,430.4z"/>
	<path d="M1370.9,478.7c3.9,0,7.8,0.5,11.8,1.5c3.9,1,7.7,2.5,11.3,4.6c3.6,2.1,6.6,4.7,9.1,7.7c2,2.6,3.3,5.4,4.1,8.6
		c0.8,3.2,0.8,6.2,0.1,9.2c-0.7,2.9-2.3,5.5-5,7.7c-2.6,2.2-6.2,3.5-10.5,4l-33.1,3.8c1.5,7.2,4.5,13.1,9.1,17.7s9.4,7.3,14.6,8.4
		c5.2,1.1,10.3,0.6,15.4-1.2c5.1-1.9,8.9-5.2,11.7-9.8c0.1-0.1,0.2-0.3,0.2-0.5c1.1-2.1,2.1-2.9,3.2-2.5c0.8,0.5,1.1,1.1,0.9,2
		c-5,18.6-19.1,27.8-42.3,27.8c-6.5,0-12.7-1.2-18.6-3.5c-5.9-2.3-11.1-5.9-15.7-10.8c-4.6-4.8-7.8-10.5-9.6-17
		c-0.9-2.6-1.5-5.4-1.8-8.6c-0.6-6.8-0.2-13.1,1.2-18.8c1.4-5.7,3.9-10.9,7.4-15.5c3.5-4.6,8.3-8.2,14.5-10.9
		C1354.9,480,1362.3,478.7,1370.9,478.7z M1370.7,482.1c-3.9,0-7.2,2.4-9.7,7.1c-2.6,4.8-4,10.1-4.2,16.1c-0.2,6,0.2,11.7,1.2,17.3
		c8.5-1.1,15-3.2,19.7-6.6c4.7-3.3,6.7-8.4,6.1-15.2c-0.3-3-0.7-5.6-1.2-7.7c-0.5-2.1-1.3-4.1-2.3-5.9c-1-1.8-2.3-3.1-3.8-4
		C1374.9,482.5,1372.9,482.1,1370.7,482.1z"/>
	<path d="M1468.7,478.7c3.9,0,7.8,0.5,11.8,1.5c3.9,1,7.7,2.5,11.3,4.6c3.6,2.1,6.6,4.7,9.1,7.7c2,2.6,3.3,5.4,4.1,8.6
		c0.8,3.2,0.8,6.2,0.1,9.2c-0.7,2.9-2.3,5.5-5,7.7c-2.6,2.2-6.2,3.5-10.5,4l-33.1,3.8c1.5,7.2,4.5,13.1,9.1,17.7s9.4,7.3,14.6,8.4
		c5.2,1.1,10.3,0.6,15.4-1.2c5.1-1.9,8.9-5.2,11.7-9.8c0.1-0.1,0.2-0.3,0.2-0.5c1.1-2.1,2.1-2.9,3.2-2.5c0.8,0.5,1.1,1.1,0.9,2
		c-5,18.6-19.1,27.8-42.3,27.8c-6.5,0-12.7-1.2-18.6-3.5c-5.9-2.3-11.1-5.9-15.7-10.8c-4.6-4.8-7.8-10.5-9.6-17
		c-0.9-2.6-1.5-5.4-1.8-8.6c-0.6-6.8-0.2-13.1,1.2-18.8c1.4-5.7,3.9-10.9,7.4-15.5c3.5-4.6,8.3-8.2,14.5-10.9
		C1452.7,480,1460.1,478.7,1468.7,478.7z M1468.5,482.1c-3.9,0-7.2,2.4-9.7,7.1c-2.6,4.8-4,10.1-4.2,16.1c-0.2,6,0.2,11.7,1.2,17.3
		c8.5-1.1,15-3.2,19.7-6.6c4.7-3.3,6.7-8.4,6.1-15.2c-0.3-3-0.7-5.6-1.2-7.7c-0.5-2.1-1.3-4.1-2.3-5.9c-1-1.8-2.3-3.1-3.8-4
		C1472.7,482.5,1470.8,482.1,1468.5,482.1z"/>
	<path d="M1553.4,448.1c0.3-0.9,0.9-1.3,1.8-1.1c0.9,0.2,1.4,0.8,1.4,1.8v34.6h15.6c1.2,0,1.8,0.6,1.8,1.7c0,1.1-0.6,1.7-1.8,1.7
		h-15.6v49.1c0,11.8,2.4,17.6,7.2,17.4c1.8,0,3.6-0.8,5.4-2.5c1.8-1.7,3.2-3.5,4.1-5.7c0.3-0.8,0.8-1.1,1.6-1.1
		c0.6,0,1.1,0.3,1.4,0.8c0.3,0.5,0.3,1.1,0,1.7c-2.6,5.9-6.3,10.9-11.3,14.9s-10.5,6.1-16.5,6.1c-7.9,0-13.7-2.5-17.7-7.4
		c-3.9-4.9-5.9-13-5.9-24.3l0.2-34.9c0-2.7,0-4.8,0-6.1s-0.2-2.7-0.6-4.1c-0.4-1.4-0.7-2.2-0.9-2.6c-0.2-0.4-0.9-0.8-2-1.1
		c-1.1-0.4-2.2-0.6-3.1-0.6s-2.4,0-4.5,0c-1.4-0.3-2-0.9-2-1.8c0-0.9,0.6-1.4,1.8-1.6c6.3-1.4,14-5.8,23-13.2
		C1545.7,462.5,1551.3,455.2,1553.4,448.1z"/>
</g>
<g class="st1">
	<path class="st2" d="M917.6,211.5c0,0.5,0,0.8-0.1,1.2c-0.1,0.3-0.1,0.6-0.3,0.8c-0.1,0.2-0.3,0.4-0.4,0.4
		c-0.2,0.1-0.4,0.1-0.6,0.1H902v40.1c0,0.2-0.1,0.4-0.2,0.5c-0.1,0.1-0.3,0.3-0.5,0.3c-0.3,0.1-0.6,0.2-1,0.2
		c-0.4,0.1-1,0.1-1.6,0.1c-0.6,0-1.2,0-1.6-0.1c-0.4-0.1-0.8-0.1-1.1-0.2c-0.3-0.1-0.4-0.2-0.5-0.3s-0.2-0.3-0.2-0.5v-40.1h-14.2
		c-0.2,0-0.4,0-0.6-0.1c-0.2-0.1-0.3-0.2-0.4-0.4c-0.1-0.2-0.2-0.5-0.3-0.8c-0.1-0.3-0.1-0.7-0.1-1.2c0-0.5,0-0.9,0.1-1.2
		c0.1-0.3,0.1-0.6,0.3-0.8s0.2-0.4,0.4-0.5c0.2-0.1,0.4-0.1,0.6-0.1h35.2c0.2,0,0.4,0,0.6,0.1c0.2,0.1,0.3,0.3,0.4,0.5
		s0.2,0.5,0.3,0.8C917.6,210.6,917.6,211,917.6,211.5z"/>
	<path class="st2" d="M964.5,254.2c0,0.2-0.1,0.4-0.2,0.5c-0.1,0.1-0.3,0.3-0.5,0.3c-0.3,0.1-0.6,0.2-1,0.2c-0.4,0.1-1,0.1-1.6,0.1
		c-0.7,0-1.2,0-1.6-0.1c-0.4-0.1-0.8-0.1-1-0.2c-0.3-0.1-0.4-0.2-0.5-0.3s-0.2-0.3-0.2-0.5v-20.5h-23v20.5c0,0.2-0.1,0.4-0.2,0.5
		c-0.1,0.1-0.3,0.3-0.5,0.3c-0.3,0.1-0.6,0.2-1,0.2c-0.4,0.1-1,0.1-1.6,0.1c-0.6,0-1.2,0-1.6-0.1c-0.4-0.1-0.8-0.1-1.1-0.2
		c-0.3-0.1-0.4-0.2-0.5-0.3c-0.1-0.1-0.2-0.3-0.2-0.5v-44.4c0-0.2,0.1-0.4,0.2-0.5c0.1-0.1,0.3-0.3,0.5-0.3s0.6-0.2,1.1-0.2
		c0.4-0.1,1-0.1,1.6-0.1c0.7,0,1.2,0,1.6,0.1s0.8,0.1,1,0.2c0.3,0.1,0.4,0.2,0.5,0.3c0.1,0.1,0.2,0.3,0.2,0.5v18.5h23v-18.5
		c0-0.2,0.1-0.4,0.2-0.5s0.3-0.3,0.5-0.3c0.3-0.1,0.6-0.2,1-0.2s1-0.1,1.6-0.1c0.6,0,1.2,0,1.6,0.1s0.8,0.1,1,0.2
		c0.3,0.1,0.4,0.2,0.5,0.3c0.1,0.1,0.2,0.3,0.2,0.5V254.2z"/>
	<path class="st2" d="M1009.3,252.5c0,0.4,0,0.8-0.1,1.1c-0.1,0.3-0.1,0.6-0.3,0.8c-0.1,0.2-0.3,0.4-0.5,0.5
		c-0.2,0.1-0.4,0.1-0.6,0.1h-24.3c-0.6,0-1.2-0.2-1.7-0.6c-0.5-0.4-0.8-1-0.8-1.9v-41.2c0-0.9,0.3-1.6,0.8-1.9
		c0.5-0.4,1.1-0.6,1.7-0.6h24c0.2,0,0.4,0,0.6,0.1c0.2,0.1,0.3,0.3,0.4,0.5s0.2,0.5,0.3,0.8c0.1,0.3,0.1,0.7,0.1,1.2
		c0,0.4,0,0.8-0.1,1.1c-0.1,0.3-0.2,0.6-0.3,0.8c-0.1,0.2-0.2,0.4-0.4,0.4c-0.2,0.1-0.4,0.1-0.6,0.1h-19.8v14.5h17
		c0.2,0,0.4,0.1,0.6,0.2c0.2,0.1,0.3,0.3,0.4,0.4c0.1,0.2,0.2,0.5,0.3,0.8c0.1,0.3,0.1,0.7,0.1,1.2c0,0.4,0,0.8-0.1,1.1
		c-0.1,0.3-0.1,0.6-0.3,0.8c-0.1,0.2-0.3,0.3-0.4,0.4s-0.4,0.1-0.6,0.1h-17V250h20.1c0.2,0,0.4,0,0.6,0.1c0.2,0.1,0.3,0.2,0.5,0.4
		c0.1,0.2,0.2,0.5,0.3,0.8C1009.3,251.7,1009.3,252.1,1009.3,252.5z"/>
</g>
<g class="st1">
	<path class="st2" d="M780.3,671c0,0.1,0,0.3-0.1,0.4c-0.1,0.1-0.2,0.2-0.4,0.3c-0.2,0.1-0.4,0.1-0.7,0.2c-0.3,0-0.6,0.1-1.1,0.1
		c-0.4,0-0.8,0-1-0.1c-0.3,0-0.5-0.1-0.7-0.2c-0.2-0.1-0.3-0.2-0.4-0.3c-0.1-0.1-0.1-0.2-0.1-0.4v-41c0-0.1,0-0.2,0.1-0.4
		c0.1-0.1,0.2-0.2,0.4-0.3s0.4-0.1,0.7-0.2c0.3,0,0.6-0.1,1-0.1c0.4,0,0.8,0,1.1,0.1c0.3,0,0.5,0.1,0.7,0.2c0.2,0.1,0.3,0.2,0.4,0.3
		c0.1,0.1,0.1,0.2,0.1,0.4V671z"/>
	<path class="st2" d="M800.4,671c0,0.1,0,0.3-0.1,0.4c-0.1,0.1-0.2,0.2-0.4,0.3c-0.2,0.1-0.4,0.1-0.7,0.2c-0.3,0-0.6,0.1-1.1,0.1
		c-0.4,0-0.8,0-1-0.1c-0.3,0-0.5-0.1-0.7-0.2c-0.2-0.1-0.3-0.2-0.4-0.3c-0.1-0.1-0.1-0.2-0.1-0.4v-41c0-0.1,0-0.2,0.1-0.4
		c0.1-0.1,0.2-0.2,0.4-0.3s0.4-0.1,0.7-0.2c0.3,0,0.6-0.1,1-0.1c0.4,0,0.8,0,1.1,0.1c0.3,0,0.5,0.1,0.7,0.2c0.2,0.1,0.3,0.2,0.4,0.3
		c0.1,0.1,0.1,0.2,0.1,0.4V671z"/>
	<path class="st2" d="M844.2,631.1c0,0.3,0,0.5-0.1,0.8c0,0.2-0.1,0.4-0.2,0.5c-0.1,0.1-0.2,0.3-0.4,0.3c-0.1,0.1-0.3,0.1-0.5,0.1
		h-13.8V671c0,0.1,0,0.3-0.1,0.4s-0.2,0.2-0.4,0.3c-0.2,0.1-0.4,0.1-0.7,0.2c-0.3,0-0.6,0.1-1,0.1c-0.4,0-0.8,0-1-0.1
		c-0.3,0-0.5-0.1-0.7-0.2c-0.2-0.1-0.3-0.2-0.4-0.3c-0.1-0.1-0.1-0.2-0.1-0.4v-38.1h-13.8c-0.2,0-0.4,0-0.5-0.1
		c-0.1-0.1-0.2-0.2-0.3-0.3c-0.1-0.1-0.2-0.3-0.2-0.5c0-0.2-0.1-0.5-0.1-0.8c0-0.3,0-0.6,0.1-0.8c0-0.2,0.1-0.4,0.2-0.6
		c0.1-0.2,0.2-0.3,0.3-0.3c0.1-0.1,0.3-0.1,0.5-0.1h32c0.2,0,0.3,0,0.5,0.1c0.1,0.1,0.3,0.2,0.4,0.3c0.1,0.2,0.2,0.3,0.2,0.6
		C844.2,630.6,844.2,630.8,844.2,631.1z"/>
	<path class="st2" d="M900.7,670.9c0,0.2,0,0.3-0.1,0.4c0,0.1-0.2,0.2-0.3,0.3s-0.4,0.1-0.7,0.2c-0.3,0-0.7,0.1-1.1,0.1
		c-0.4,0-0.9,0-1.3-0.1c-0.4,0-0.8-0.1-1-0.3c-0.2-0.1-0.4-0.3-0.6-0.5l-18.7-21.7V671c0,0.1,0,0.3-0.1,0.4
		c-0.1,0.1-0.2,0.2-0.4,0.3c-0.2,0.1-0.4,0.1-0.7,0.2c-0.3,0-0.6,0.1-1.1,0.1c-0.4,0-0.8,0-1-0.1c-0.3,0-0.5-0.1-0.7-0.2
		c-0.2-0.1-0.3-0.2-0.4-0.3c-0.1-0.1-0.1-0.2-0.1-0.4v-41c0-0.1,0-0.2,0.1-0.4c0.1-0.1,0.2-0.2,0.4-0.3s0.4-0.1,0.7-0.2
		c0.3,0,0.6-0.1,1-0.1c0.4,0,0.8,0,1.1,0.1c0.3,0,0.5,0.1,0.7,0.2s0.3,0.2,0.4,0.3c0.1,0.1,0.1,0.2,0.1,0.4v19.2l17.9-19.2
		c0.1-0.2,0.3-0.3,0.5-0.4c0.2-0.1,0.4-0.2,0.6-0.3s0.5-0.1,0.8-0.1c0.3,0,0.6,0,1.1,0c0.4,0,0.8,0,1,0.1c0.3,0,0.5,0.1,0.6,0.2
		s0.3,0.2,0.3,0.3c0,0.1,0.1,0.2,0.1,0.3c0,0.2-0.1,0.5-0.2,0.7c-0.1,0.2-0.4,0.5-0.7,0.8L882,649.1l18,20.6
		c0.3,0.4,0.5,0.7,0.6,0.8C900.7,670.7,900.7,670.8,900.7,670.9z"/>
	<path class="st2" d="M944.5,670.3c0.1,0.3,0.2,0.6,0.2,0.8c0,0.2-0.1,0.4-0.2,0.5c-0.2,0.1-0.4,0.2-0.7,0.2c-0.3,0-0.7,0-1.2,0
		s-0.9,0-1.2,0c-0.3,0-0.5-0.1-0.7-0.1s-0.3-0.2-0.4-0.3c-0.1-0.1-0.2-0.2-0.2-0.4l-4.4-11.3h-20.3l-4.3,11.2c0,0.2-0.1,0.3-0.2,0.4
		c-0.1,0.1-0.2,0.2-0.4,0.3c-0.2,0.1-0.4,0.1-0.7,0.2c-0.3,0-0.7,0.1-1.1,0.1c-0.5,0-0.9,0-1.3-0.1c-0.3,0-0.6-0.1-0.7-0.2
		c-0.2-0.1-0.2-0.3-0.2-0.5c0-0.2,0.1-0.5,0.2-0.8l16.2-40.3c0.1-0.2,0.2-0.3,0.3-0.4c0.1-0.1,0.3-0.2,0.6-0.3
		c0.2-0.1,0.5-0.1,0.8-0.1c0.3,0,0.7,0,1.1,0c0.4,0,0.8,0,1.1,0c0.3,0,0.6,0.1,0.8,0.1s0.4,0.2,0.5,0.3c0.1,0.1,0.2,0.3,0.3,0.4
		L944.5,670.3z M925.3,633.6L925.3,633.6l-8.8,22.8h17.7L925.3,633.6z"/>
	<path class="st2" d="M988.4,669.7c0,0.4-0.1,0.7-0.2,1s-0.3,0.5-0.5,0.6c-0.2,0.2-0.4,0.3-0.7,0.3c-0.2,0.1-0.5,0.1-0.7,0.1h-0.9
		c-0.5,0-0.9-0.1-1.3-0.2c-0.4-0.1-0.8-0.3-1.1-0.6c-0.4-0.3-0.7-0.6-1.1-1.1c-0.4-0.5-0.8-1-1.2-1.8l-16.3-26.4
		c-0.8-1.3-1.6-2.6-2.5-4c-0.8-1.4-1.6-2.7-2.3-4h0c0,1.6,0,3.2,0,4.9s0,3.3,0,4.9V671c0,0.1,0,0.3-0.1,0.4
		c-0.1,0.1-0.2,0.2-0.4,0.3c-0.2,0.1-0.4,0.1-0.7,0.2c-0.3,0-0.6,0.1-1.1,0.1c-0.4,0-0.8,0-1-0.1c-0.3,0-0.5-0.1-0.7-0.2
		c-0.2-0.1-0.3-0.2-0.4-0.3c-0.1-0.1-0.1-0.2-0.1-0.4v-39.6c0-0.8,0.2-1.3,0.7-1.6c0.5-0.3,0.9-0.4,1.3-0.4h1.8c0.6,0,1,0,1.4,0.1
		c0.4,0.1,0.7,0.2,1,0.4c0.3,0.2,0.6,0.5,0.9,0.9c0.3,0.4,0.6,0.9,1,1.5l12.5,20.2c0.8,1.3,1.5,2.5,2.2,3.6c0.7,1.2,1.4,2.3,2.1,3.4
		c0.7,1.1,1.3,2.2,2,3.3c0.7,1.1,1.3,2.2,1.9,3.3h0c0-1.8,0-3.7,0-5.7c0-2,0-3.9,0-5.7v-24.6c0-0.1,0-0.2,0.1-0.4
		c0.1-0.1,0.2-0.2,0.4-0.3c0.2-0.1,0.4-0.1,0.7-0.2c0.3,0,0.6,0,1.1,0c0.4,0,0.7,0,1,0c0.3,0,0.5,0.1,0.7,0.2
		c0.2,0.1,0.3,0.2,0.4,0.3c0.1,0.1,0.1,0.2,0.1,0.4V669.7z"/>
	<path class="st2" d="M1030.8,641.4c0,2-0.4,3.8-1.1,5.4c-0.7,1.6-1.8,3-3.1,4.2c-1.4,1.2-3,2.1-5,2.7c-2,0.7-4.3,1-7.1,1h-6V671
		c0,0.1,0,0.3-0.1,0.4c-0.1,0.1-0.2,0.2-0.4,0.3c-0.2,0.1-0.4,0.1-0.7,0.2c-0.3,0-0.6,0.1-1.1,0.1c-0.4,0-0.8,0-1-0.1
		c-0.3,0-0.5-0.1-0.7-0.2c-0.2-0.1-0.3-0.2-0.4-0.3c-0.1-0.1-0.1-0.2-0.1-0.4v-39.6c0-0.8,0.2-1.3,0.7-1.6c0.5-0.3,0.9-0.4,1.3-0.4
		h9.4c0.9,0,1.8,0,2.7,0.1s1.9,0.2,3.1,0.5s2.4,0.7,3.6,1.4s2.3,1.5,3.1,2.5c0.9,1,1.5,2.1,2,3.4
		C1030.5,638.5,1030.8,639.9,1030.8,641.4z M1026.1,641.8c0-1.8-0.4-3.4-1.2-4.7s-1.7-2.2-2.9-2.8s-2.3-1-3.5-1.2
		c-1.2-0.2-2.4-0.2-3.5-0.2h-6.6v18.4h6.3c2,0,3.7-0.2,5.1-0.7s2.5-1.1,3.4-1.9c0.9-0.8,1.6-1.8,2.1-3
		C1025.9,644.4,1026.1,643.2,1026.1,641.8z"/>
	<path class="st2" d="M1076.7,656c0,2.6-0.4,4.9-1.2,6.9s-1.9,3.7-3.4,5.1c-1.5,1.4-3.3,2.4-5.4,3.1c-2.1,0.7-4.4,1.1-7,1.1
		c-2.4,0-4.5-0.3-6.5-1c-2-0.7-3.7-1.7-5.2-3c-1.4-1.3-2.6-3-3.4-4.9s-1.2-4.2-1.2-6.8V630c0-0.1,0-0.2,0.1-0.4s0.2-0.2,0.4-0.3
		c0.2-0.1,0.4-0.1,0.7-0.2c0.3,0,0.6-0.1,1-0.1c0.4,0,0.8,0,1,0.1c0.3,0,0.5,0.1,0.7,0.2s0.3,0.2,0.4,0.3c0.1,0.1,0.1,0.2,0.1,0.4
		v25.9c0,2.1,0.3,4,0.8,5.6c0.6,1.6,1.4,2.9,2.4,4c1.1,1.1,2.3,1.9,3.9,2.4c1.5,0.5,3.2,0.8,5.1,0.8c1.9,0,3.7-0.3,5.2-0.8
		c1.5-0.5,2.8-1.3,3.8-2.3c1-1,1.9-2.3,2.4-3.9c0.6-1.6,0.8-3.4,0.8-5.5V630c0-0.1,0-0.2,0.1-0.4s0.2-0.2,0.4-0.3s0.4-0.1,0.7-0.2
		c0.3,0,0.6-0.1,1-0.1c0.4,0,0.8,0,1,0.1c0.3,0,0.5,0.1,0.7,0.2s0.3,0.2,0.4,0.3c0.1,0.1,0.1,0.2,0.1,0.4V656z"/>
	<path class="st2" d="M1121.3,670.9c0,0.2,0,0.3-0.1,0.4c-0.1,0.1-0.2,0.2-0.3,0.3c-0.2,0.1-0.4,0.1-0.7,0.2c-0.3,0-0.7,0.1-1.1,0.1
		c-0.4,0-0.7,0-1,0c-0.3,0-0.5-0.1-0.7-0.2c-0.2-0.1-0.3-0.2-0.5-0.4c-0.1-0.2-0.2-0.4-0.3-0.6l-4.3-10.3c-0.5-1.2-1-2.2-1.6-3.3
		c-0.6-1-1.3-1.9-2.1-2.7c-0.8-0.8-1.8-1.3-2.9-1.8c-1.1-0.4-2.5-0.7-4.1-0.7h-4.8V671c0,0.1,0,0.3-0.1,0.4
		c-0.1,0.1-0.2,0.2-0.4,0.3c-0.2,0.1-0.4,0.1-0.7,0.2c-0.3,0-0.6,0.1-1.1,0.1c-0.4,0-0.8,0-1-0.1c-0.3,0-0.5-0.1-0.7-0.2
		c-0.2-0.1-0.3-0.2-0.4-0.3c-0.1-0.1-0.1-0.2-0.1-0.4v-39.6c0-0.8,0.2-1.3,0.7-1.6c0.5-0.3,0.9-0.4,1.3-0.4h8.7c1.1,0,2.1,0,2.8,0.1
		c0.8,0.1,1.4,0.1,2.1,0.2c1.8,0.3,3.3,0.7,4.6,1.4c1.3,0.6,2.4,1.4,3.3,2.3c0.9,0.9,1.5,2,1.9,3.1c0.4,1.2,0.6,2.4,0.6,3.8
		c0,1.4-0.2,2.6-0.6,3.7c-0.4,1.1-1,2.1-1.8,2.9c-0.8,0.8-1.7,1.6-2.8,2.2c-1.1,0.6-2.3,1.1-3.6,1.5c0.8,0.3,1.5,0.7,2.1,1.2
		c0.6,0.5,1.2,1.1,1.8,1.7c0.5,0.7,1,1.5,1.5,2.3c0.5,0.9,1,1.9,1.4,3l4.3,9.9c0.3,0.8,0.5,1.3,0.6,1.6
		C1121.2,670.6,1121.3,670.8,1121.3,670.9z M1113.6,640.6c0-1.8-0.4-3.3-1.3-4.6c-0.9-1.3-2.4-2.2-4.4-2.7c-0.7-0.2-1.4-0.3-2.3-0.4
		c-0.8-0.1-1.9-0.1-3.2-0.1h-5.7v15.5h6.7c1.8,0,3.3-0.2,4.6-0.6s2.4-1,3.2-1.7c0.8-0.7,1.5-1.5,1.9-2.5S1113.6,641.7,1113.6,640.6z
		"/>
</g>
</svg>
