<?xml version="1.0" encoding="utf-8"?>
<!-- Generator: Adobe Illustrator 24.3.0, SVG Export Plug-In . SVG Version: 6.00 Build 0)  -->
<svg version="1.1" id="Layer_1" xmlns="http://www.w3.org/2000/svg" xmlns:xlink="http://www.w3.org/1999/xlink" x="0px" y="0px"
	 viewBox="0 0 1895.9 812" style="enable-background:new 0 0 1895.9 812;" xml:space="preserve">
<style type="text/css">
	.st0{fill:#FDD6BB;}
	.st1{display:none;}
	.st2{display:inline;}
</style>
<path class="st0" d="M245.1,305.6c-1.9,1.4-9.2,7-10.7,15.8c-1.2,7.7,3,10,1.5,18.9c-0.9,5.7-3.6,10-7,15.5
	c-4.3,6.9-5.6,6.4-8.1,11.2c-4.3,8.1-4.1,16.3-4,21.2c0.1,3.7,0.4,12.9,5.2,21.9c2.2,4.1,5.6,8.5,6.8,10.1c3.2,4.2,4.8,6.3,6.2,7.6
	c1.3,1.2,2.9,2.6,4.3,5.1c0.4,0.7,1.2,2.1,1.7,3.8c0.4,1.3,0.8,4.1-2,11.5c-0.4,0.9-1.3,3.3-4.2,9.2c-2.5,5-3.8,7.6-4.7,8.9
	c-3.6,5.4-8,8.2-11.5,10.4c-4.7,3-9.3,4.8-13.2,5.9c-0.8,0.2-1.4,0.7-1.9,1.4c-0.4,0.6-0.7,1.3-1,1.9c-3.9,8.5-0.3,18,1.1,21.3
	c0,0.1,0.1,0.2,0.2,0.3c7,12.4,11.9,14.8,15.2,14.6c0.9-0.1,1.8-0.4,3.3-0.2c5.4,0.6,8.9,5.7,10,7.3c7,9.8,22.2,20.2,29.6,23.9
	c9.9,5,18.9,4.6,30.7,4.2c12.3-0.5,13.2-3,35.3-6.9c14.2-2.5,21.5-3.8,32-3.7c9.2,0.1,12.2,1.2,27.6,2.1c8.7,0.5,16.1,0.7,21.2,0.8
	c1,0,1.9,0.5,2.4,1.3c2.2,3.1,5.5,6.8,10.4,9c5.6,2.6,9.5,1.6,25.3-0.8c21.3-3.2,22.9-2.7,36.3-5.5c4-0.8,8.5-3.6,15.2-3.6
	c5,0,5.9,1.2,12.9,2.1c6.7,0.9,11.7,0.6,18.5,0.2c9.6-0.6,9.2-1.4,18.1-2c11.1-0.8,10.4,0.6,22.8,0c9.6-0.5,11.8-1.5,17.2-0.2
	c5.3,1.3,5.8,2.8,11.5,3.6c3.5,0.5,6.9,0.3,13.8,0c5.2-0.3,5.8-0.5,8.8-0.6c7.5-0.3,13,0.6,16.1,1c15.1,2,17-1.2,35.4,0.6
	c13.3,1.3,15.7,3.3,25.9,2.6c4.8-0.3,7.1-1,14-1.3c9.5-0.4,11,0.6,18,0.4c14-0.3,16-4.5,26.7-4.1c8.6,0.3,14.4,3.3,18.5,4.9
	c10.3,4.2,26.9,7.3,54.4,1.9c0.8-0.2,1.6-0.7,2-1.4c0.4-0.6,0.9-1.2,1.6-1.6c1-0.7,2.1-0.7,2.5-0.7c9.9-0.5,17.5-3.5,29.9,0.3
	c3.5,1.1,2.8,1.3,6.3,2.5c3.3,1.1,12.8,3.8,33.9,0.7c3.8-0.6,18.3-2.8,29.3-2.6c2.3,0,6.3,0.2,8.4,3c2,2.7,1.1,6.1,2.9,7
	c1.7,0.8,4-1.5,6.1-2.9c2.5-1.7,5.8-3,18.9-1.9c12.2,1,15.2,2.6,23.4,3.5c5.3,0.6,13.1,0.8,22.7-0.8c0.8-0.1,1.6-0.6,2.1-1.4
	l0.7-1.1c0.6-1,1.7-1.5,2.8-1.4c5.5,0.5,13.3,1,22.7,0.7c13.9-0.4,19-2.1,28.2-1.9c7.3,0.2,17.7,1.6,30.5,7.6c1,0.5,2.2,0.4,3.2-0.4
	c0.7-0.6,1.6-1.2,2.6-1.8c1.8-1.2,5-3.1,9.2-3.8c1.1-0.2,9.2-1.2,15.2,4.3c0.6,0.5,1.1,1.1,1.5,1.6c0.7,0.8,1.7,1.2,2.7,1.1
	c2.9-0.4,6.7-0.8,11.3-0.9c14.4-0.6,22.6,1.4,32.8,2.6c24.6,2.8,22.6-3.7,45-0.9c0,0,19.1,2.4,30.9-1.7c3.7-1.3,3.7-1.3,3.7-1.3
	c4.2-1.5,4.6-1.8,5.4-1.9c3.9-0.6,7.5,4,8.7,5.2c6.5,7.1,21.1,4.6,39.3,3.2c9-0.7,22.3-1.4,39-1c11.6-0.4,21-0.3,27.5-0.1
	c12.4,0.3,18.6,1,29.8,0c6.4-0.6,6.1-1,14.6-1.9c5.8-0.6,14.4-1.5,24.9-1.3c7,0.1,16.1,0.7,26.8,2.5c0.4,0.1,0.8,0.1,1.2-0.1
	c3.1-0.8,6.5-1.6,10-2.2c13.6-2.3,25.8-1.7,35.5-0.2c0.1,0,0.2,0,0.3,0c7.6,0.4,15.2,0.8,22.8,1.2c1.3,0.1,2.6-0.7,3-2
	c0.2-0.6,0.5-1.2,0.9-1.8c3.2-5.1,10.8-5.4,18-5.4c7.7,0,17.5,0.3,29.3,1.3c1,0.1,2-0.3,2.6-1.2c0.9-1.2,2.1-2.4,3.8-3.5
	c4.7-3,9.2-1.8,12.8-2.3c8.4-1.2,13.2-11.8,16-16.7c4.9-8.8,15.2-20.3,38.6-31.6c0.9-0.4,1.6-1.3,1.8-2.4c1-6,1.6-13.2,1.4-21.3
	c-0.1-4.6-0.5-8.8-1.1-12.6c-0.1-0.7-0.4-1.3-0.8-1.7c-1-1.1-2.2-2.7-2.9-4.8c-1.7-4.7-0.2-8.7,1-13.6c0,0,1.1-4.3,1.2-35.9
	c0-0.3,0-1.2-0.4-2c-1-2.1-3.6-2.7-4.3-2.9c-4.6-1.4-7.8-13.8-8.7-22.6c-1.1-11.3,1.4-20.8,3.7-26.9c0.1-0.3,0.2-0.6,0.2-0.9
	c0.6-8.9,0.7-16.3,0.5-21.8c-0.4-13.2-1.7-16.3-3.7-18.4c-1.4-1.4-4.4-2.9-10.3-5.9c-3-1.5-4.6-2.3-6.3-2.8
	c-4.5-1.2-6.2,0.2-10.7-0.1c-6.2-0.4-6.2-3.1-11.8-3.8c-5.9-0.7-6.4,2.2-14.3,2.9c-7.4,0.6-8.8-1.7-15.3-0.9
	c-6.1,0.8-9.1,3.5-12.7,5.1c-11.2,5-23.6-2.2-32.5-5.9c-8.9-3.8-23.3-4.5-52.1-5.9c-17.6-0.9-66.4-2-89.5,2.6
	c-3.7,0.7-9.8,2.2-17.4,0.3c-6.4-1.7-8.1-4.3-15.2-5.9c-4.9-1.1-8-0.7-15.4-0.3c-7.9,0.5-15.9,0.3-23.8,0.9
	c-30.7,2-41.5-3.7-73.7-0.4c-19.4,2-20.7,4.6-31.4,3.2c-14.6-1.9-27.2-3.6-34.4-5.5c-0.6-0.2-2.4-0.6-4.7-0.4
	c-5,0.4-8.5,3.7-9.2,4.3c-6.8,5.9-29.3-0.1-38.2-2c-7.2-1.6-36.6-8.1-65,1.3c-10,3.3-15.2,7-25.9,6.8c-10-0.2-14-3.6-26.7-4.6
	c-10.7-0.9-11.3,1.3-23,1.4c-17.8,0.2-33.4-4.6-44.9-8.1c-11.8-3.6-16.7-6.3-25.6-5.2c-6.4,0.8-6.7,2.6-16.9,5.5
	c-4.4,1.3-15.4,4.3-28.6,4.1c-12.7-0.2-13.8-3.2-24.1-1.9c-7.7,1-9.2,2.9-17.6,4.6c-7.6,1.6-10.8,0.9-25.2,0.7
	c-21.9-0.3-23.1,1.1-43.4,0.4c-6.3-0.2-3.9-0.3-18.5-1c-28.7-1.5-32.7-1-42.8-2.3c-6.7-0.9-16.4-2.7-28.1-6.5
	c-0.9-0.3-1.8-0.2-2.6,0.3c-5.9,3.8-10.8,5.7-13.8,6.7c-4.8,1.6-6.7,1.3-8.1,0.9c-2.6-0.9-3.4-2.6-5.4-2.3c-1.4,0.2-1.6,1.1-5.2,4.1
	c-2.1,1.7-3.2,2.6-4.1,2.9c-3.5,1-7-1.6-7.6-2c-4.4-3.3-3.9-7.6-6.6-8.1c-2-0.4-2.9,1.7-7.3,4.3c0,0-2.4,1.4-7.6,3.2
	c-14.5,4.9-40.2-0.6-40.2-0.6c-9.5-2-22.3-5.6-36.9-12.2c-0.7-0.3-1.5-0.4-2.2-0.1c-1.4,0.5-3.8,1.3-6.6,2.4
	c-17.3,6.2-22.2,8.1-29.3,7.8c-3.2-0.1-2.1-0.5-7.2-1c-7.4-0.7-12.1-0.1-25.8,1.4c-15.9,1.8-18.2,2-22,2.2c-6.9,0.2-6.4-0.2-14-0.1
	c-2.4,0-14,0.2-29.6,2.6c-7.8,1.2-9,1.8-14.2,2.6c-15.9,2.6-27.5,0.8-37.1,0c-27-2.4-25.2,3.2-50.1,1.2
	C270.8,306.2,257.8,295.9,245.1,305.6z"/>
<g>
	<path d="M325.8,288.8H392L449,436.5l54.3-147.7h71.4c1.7,0,2.6,1,2.6,3c0,1.5-0.9,2.4-2.6,2.6c-7.2,1-12.2,4-15.1,9.1
		c-2.9,5.1-4.3,13.2-4.3,24.4V473c0,11.2,1.4,19.3,4.3,24.4c2.8,5.1,7.9,8.1,15.1,9.1c1.7,0.2,2.6,1.1,2.6,2.6c0,2-0.9,3-2.6,3
		h-90.4c-2.2,0-3.3-1-3.3-3c0-1.5,1.1-2.4,3.3-2.6c5-0.7,8.9-2.4,11.7-4.8c2.8-2.5,4.8-6,5.8-10.4c1-4.5,1.5-10.5,1.5-18.2V304.8
		L427.4,512h-4.8l-71.8-186.7c0,0.7,0,1.6,0,2.6V473c0,0.7,0,1.4,0,1.9c0,10.4,1.5,18,4.5,22.9c3,4.8,7.9,7.8,14.9,8.7
		c2,0.2,3,1.1,3,2.6c-0.2,2-1.2,3-3,3h-44.3c-2,0-3-1-3-3c0-1.5,1-2.4,3-2.6c7.7-1,12.8-4,15.4-8.9c2.6-5,3.9-13.1,3.9-24.6V327.9
		c0-11.4-1.3-19.6-3.9-24.6c-2.6-5-7.8-7.9-15.4-8.9c-2-0.2-3-1.1-3-2.6C322.9,289.8,323.8,288.8,325.8,288.8z"/>
	<path d="M658.8,368.1c20.3,0,37.6,7.1,51.9,21.4c14.3,14.3,21.4,31.6,21.4,51.9c0,20.1-7.1,37.3-21.4,51.5
		c-14.3,14.3-31.6,21.4-51.9,21.4c-20.1,0-37.3-7.1-51.5-21.4c-14.3-14.3-21.4-31.4-21.4-51.5c0-20.3,7.1-37.6,21.4-51.9
		C621.5,375.2,638.7,368.1,658.8,368.1z M644.2,375.9c-1.2,0-2.2,0-3,0c-7.2,2-11.1,10-11.7,24c-0.6,14,1.5,29.9,6.5,47.8
		c5.2,18.6,11.5,33.5,18.8,44.8c7.3,11.3,14.6,15.9,21.8,13.9c7.2-2,11.1-9.9,11.7-23.8c0.6-13.9-1.6-29.8-6.5-47.6
		c-4.7-17.4-10.5-31.6-17.3-42.8C657.7,381.1,650.9,375.6,644.2,375.9z"/>
	<path d="M812,367.7c0.5,0,1,0.1,1.5,0.4c0.7,0.5,1.1,1.4,1.1,2.6v13.8c8.9-10.7,21.2-16,36.8-16c36.2,0,57,17.4,62.5,52.1l6,52.4
		c1.5,10.9,4,18.9,7.4,24c3.5,5.1,8.8,8.2,16,9.5c2.2,0.2,3.3,1.1,3.3,2.6c0,2-1,3-3,3h-90c-2.2,0-3.3-1-3.3-3
		c0-1.5,1.1-2.4,3.3-2.6c7.2-1.2,11.7-4.3,13.6-9.1s2.2-13,0.9-24.4l-6-57.7c-1.5-11.2-4.5-20.4-8.9-27.7
		c-4.5-7.3-10.9-10.4-19.3-9.1c-4.2,0.5-7.6,2-10.2,4.5c-2.6,2.5-4.5,6.1-5.8,11c-1.2,4.8-2.1,10-2.6,15.6
		c-0.5,5.6-0.7,12.7-0.7,21.4v42c0,11.2,1.5,19.3,4.5,24.4c3,5.1,7.9,8.1,14.9,9.1c2,0.2,3,1.1,3,2.6c0,2-0.9,3-2.6,3h-90.8
		c-2,0-3-1-3-3c0-1.5,1-2.4,3-2.6c7.7-1,12.8-4,15.4-8.9c2.6-5,3.9-13.1,3.9-24.6v-35.7c0-12.4-1.1-21.4-3.3-27
		c-2.2-5.6-7.2-9.4-14.9-11.3c-2-0.5-3-1.5-3-3c0-1.7,1-2.7,3-3c10.7-0.2,21.4-2.5,32.4-6.7c10.9-4.2,18.5-7.7,22.7-10.4
		c4.2-2.7,7.7-5.2,10.4-7.4C810.6,367.9,811.3,367.7,812,367.7z"/>
	<path d="M1004.7,317.8c0.5-1.5,1.5-2.1,3-1.9c1.5,0.2,2.2,1.2,2.2,3v56.9h25.7c2,0,3,0.9,3,2.8s-1,2.8-3,2.8h-25.7v80.7
		c0,19.3,4,28.9,11.9,28.6c3,0,6-1.4,8.9-4.1c3-2.7,5.2-5.8,6.7-9.3c0.5-1.2,1.4-1.9,2.6-1.9c1,0,1.7,0.4,2.2,1.3
		c0.5,0.9,0.5,1.8,0,2.8c-4.2,9.7-10.4,17.9-18.6,24.6s-17.2,10-27.2,10c-12.9,0-22.6-4-29-12.1c-6.5-8.1-9.7-21.4-9.7-40l0.4-57.3
		c0-4.5,0-7.8,0-10s-0.3-4.5-0.9-6.7c-0.6-2.2-1.1-3.7-1.5-4.3c-0.4-0.6-1.5-1.2-3.3-1.9c-1.9-0.6-3.5-0.9-5-0.9s-4,0-7.4,0
		c-2.2-0.5-3.3-1.5-3.3-3c0-1.5,1-2.4,3-2.6c10.4-2.2,23-9.5,37.8-21.8C992.1,341.5,1001.2,329.5,1004.7,317.8z"/>
	<path d="M1121.9,368.1c44.9-2.2,70.3,15.3,76.3,52.4l5.6,48c3.2,19.6,9.2,30.1,17.9,31.6c0.2,0.2,1.2,0.3,2.8,0.2
		c1.6-0.1,2.7-0.2,3.2-0.2c1.5,0,2.4,0.7,2.6,2c0.2,1.4-0.2,2.4-1.5,3.2c-10.4,6.2-22.2,9.3-35.3,9.3c-18.6,0-31-6.2-37.2-18.6
		c-2.2,2.5-4.7,4.6-7.3,6.5c-2.6,1.9-5.6,3.7-9.1,5.4c-3.5,1.7-7.9,3.2-13.2,4.5c-5.3,1.2-11.1,1.9-17.3,1.9
		c-8.9,0-17.1-1.1-24.4-3.3c-7.3-2.2-13.5-6.2-18.6-11.9c-5.1-5.7-7.6-13-7.6-21.9c0-8.7,1.9-15.9,5.6-21.6
		c3.7-5.7,8.7-9.8,14.9-12.3c6.2-2.5,12.5-4.3,18.8-5.6c6.3-1.2,13.1-2.4,20.5-3.5c7.3-1.1,12.8-2.5,16.6-4.3c4.5-2,7.4-4.6,8.7-7.8
		c1.4-3.2,1.7-7.7,0.9-13.4c-0.5-5.2-1.6-10.2-3.2-14.9c-1.6-4.7-4.5-9.2-8.7-13.6c-4.2-4.3-9.2-6.5-14.9-6.5
		c-5.5,0-9.5,1.3-12.1,3.9c-2.6,2.6-3.9,5.8-3.9,9.5c0,2.5,0.8,4.7,2.4,6.7c1.6,2,3.4,3.6,5.4,4.8c2,1.2,3.7,3.2,5,6
		c1.4,2.7,1.7,5.8,1.1,9.3c-0.6,3.5-2.4,6.5-5.2,9.1c-2.9,2.6-6.1,4.3-9.7,5c-3.6,0.7-7.3,0.9-11.2,0.4c-3.8-0.5-7.3-2.1-10.4-4.8
		c-3.1-2.7-5.1-6.2-6.1-10.4c-3.2-11.4-0.5-21.5,8.2-30.3C1090,374,1103.5,369.1,1121.9,368.1z M1146.8,427.6
		c-2.5,3.5-5.7,6.2-9.7,8.2c-0.7,0.5-2.8,1.7-6.1,3.7c-3.3,2-5.6,3.4-6.9,4.3c-1.2,0.9-3.2,2.4-6,4.7c-2.7,2.2-4.6,4.3-5.8,6.1
		c-1.1,1.9-2.2,4.3-3.2,7.4c-1,3.1-1.5,6.4-1.5,9.9c0,13.9,5.7,23.1,17.1,27.5c9.2,3.5,16.9,2.5,23.1-3c4.2-3.5,6-8.1,5.2-13.8
		L1146.8,427.6z"/>
	<path d="M1349.9,338.3c8.7-8.2,18.3-12.3,29-12.3c5.7,0,10.7,1.4,15.1,4.3c4.3,2.9,7.3,6.8,8.7,11.7c1.7,5.5,1.9,10.4,0.6,14.7
		c-1.4,4.3-3.8,8-7.4,11c-3.6,3-7.5,4.6-11.7,4.8c-6.9,0.2-11.2-1.9-12.6-6.3c-0.5-2-0.6-4.6-0.2-7.8c0.4-3.2-0.1-5.6-1.3-7.1
		c-5-6.7-11.5-6.6-19.7,0.4c-5.2,4.2-8.4,9.3-9.7,15.3c13.9,4,25.2,11.2,33.9,21.6c8.7,10.4,13,22.2,13,35.3
		c0,16.4-6.5,30.4-19.5,42c-13,11.7-28.8,17.5-47.4,17.5c-13.1,0-25-3-35.7-8.9c-7.7,2-10.9,5.5-9.7,10.4c1,4,5,7.4,12.1,10.2
		c7.1,2.9,16.3,4.3,27.7,4.3c14.6,0,26.7,0.4,36.1,1.3c9.4,0.9,18.2,2.6,26.2,5.2c8.1,2.6,13.9,6.4,17.7,11.5
		c3.7,5.1,5.6,11.6,5.6,19.5c0,12.4-4.2,23-12.5,31.8c-8.3,8.8-18.8,15.2-31.4,19.2c-12.6,4-26.7,6-42,6c-5.5,0-10.9-0.2-16.2-0.6
		c-5.3-0.4-11.3-1.3-18-2.8c-6.7-1.5-12.4-3.4-17.1-5.8c-4.7-2.4-8.8-5.8-12.3-10.2c-3.5-4.5-5.2-9.7-5.2-15.6
		c0-11.2,7.3-18.8,21.9-23.1c-6.5-1.7-11.4-5.5-14.9-11.3c-3.5-5.8-5.1-12.2-4.8-19c0.2-6.8,3-13.6,8.4-20.3
		c5.3-6.7,12.8-11.5,22.5-14.5c-16.9-11.9-25.3-27.5-25.3-46.9c0-16.4,6.5-30.4,19.5-42c13-11.7,28.8-17.5,47.4-17.5
		c4.7,0,9.5,0.5,14.5,1.5c1.7-5.7,3.5-10.2,5.2-13.4C1342.7,347,1345.9,342.3,1349.9,338.3z M1287.8,540.7c-6,5.2-9.2,11.5-9.7,19
		c-0.5,7.4,2.5,14.1,8.9,19.9c6.4,5.8,15.7,8.7,27.9,8.7c16.9,0,30.5-5.3,40.9-16c8.2-8.4,9.9-15.6,5.2-21.6
		c-3.2-4.2-9.3-6.6-18.2-7.1C1322.5,542.9,1304.1,541.9,1287.8,540.7z M1310.1,371.4c-4.5,0-7.8,3.2-10,9.7
		c-3.7,9.9-2.6,25.7,3.3,47.2c4.2,15.1,9.2,27.2,15.1,36.1c5.8,8.9,11.6,12.6,17.3,11.2c5.7-1.7,8.9-8.1,9.5-19
		c0.6-10.9-1.1-23.6-5-37.9c-6-21.3-12.9-35.7-20.8-43.1C1316.2,372.8,1313.1,371.4,1310.1,371.4z"/>
	<path d="M1483.4,368.1c6.4,0,12.9,0.8,19.3,2.4c6.4,1.6,12.6,4.2,18.6,7.6c6,3.5,10.9,7.7,14.9,12.6c3.2,4.2,5.5,8.9,6.7,14.1
		c1.2,5.2,1.3,10.2,0.2,15.1c-1.1,4.8-3.8,9.1-8.2,12.6c-4.3,3.6-10.1,5.8-17.3,6.5l-54.3,6.3c2.5,11.9,7.4,21.6,14.9,29
		c7.4,7.4,15.4,12,24,13.8c8.6,1.7,17,1.1,25.3-2c8.3-3.1,14.7-8.5,19.2-16.2c0.2-0.2,0.4-0.5,0.4-0.7c1.7-3.5,3.5-4.8,5.2-4.1
		c1.2,0.7,1.7,1.9,1.5,3.3c-8.2,30.5-31.4,45.8-69.6,45.8c-10.7,0-20.8-1.9-30.5-5.8c-9.7-3.8-18.3-9.7-25.9-17.7
		c-7.6-7.9-12.8-17.2-15.8-27.9c-1.5-4.2-2.5-8.9-3-14.1c-1-11.2-0.3-21.4,2-30.9c2.4-9.4,6.4-17.9,12.1-25.5
		c5.7-7.6,13.6-13.5,23.8-17.9C1457.1,370.2,1469.3,368.1,1483.4,368.1z M1483,373.6c-6.5,0-11.8,3.9-16,11.7
		c-4.2,7.8-6.5,16.6-6.9,26.4c-0.4,9.8,0.3,19.3,2,28.5c13.9-1.7,24.7-5.3,32.4-10.8c7.7-5.5,11-13.8,10-24.9c-0.5-5-1.2-9.2-2-12.6
		c-0.9-3.5-2.1-6.7-3.7-9.7c-1.6-3-3.7-5.1-6.3-6.5C1489.9,374.3,1486.8,373.6,1483,373.6z"/>
</g>
<g class="st1">
	<path class="st2" d="M917.6,211.5c0,0.5,0,0.8-0.1,1.2c-0.1,0.3-0.1,0.6-0.3,0.8c-0.1,0.2-0.3,0.4-0.4,0.4
		c-0.2,0.1-0.4,0.1-0.6,0.1H902v40.1c0,0.2-0.1,0.4-0.2,0.5c-0.1,0.1-0.3,0.3-0.5,0.3c-0.3,0.1-0.6,0.2-1,0.2
		c-0.4,0.1-1,0.1-1.6,0.1c-0.6,0-1.2,0-1.6-0.1c-0.4-0.1-0.8-0.1-1.1-0.2c-0.3-0.1-0.4-0.2-0.5-0.3s-0.2-0.3-0.2-0.5v-40.1h-14.2
		c-0.2,0-0.4,0-0.6-0.1c-0.2-0.1-0.3-0.2-0.4-0.4c-0.1-0.2-0.2-0.5-0.3-0.8c-0.1-0.3-0.1-0.7-0.1-1.2c0-0.5,0-0.9,0.1-1.2
		c0.1-0.3,0.1-0.6,0.3-0.8s0.2-0.4,0.4-0.5c0.2-0.1,0.4-0.1,0.6-0.1h35.2c0.2,0,0.4,0,0.6,0.1c0.2,0.1,0.3,0.3,0.4,0.5
		s0.2,0.5,0.3,0.8C917.6,210.6,917.6,211,917.6,211.5z"/>
	<path class="st2" d="M964.5,254.2c0,0.2-0.1,0.4-0.2,0.5c-0.1,0.1-0.3,0.3-0.5,0.3c-0.3,0.1-0.6,0.2-1,0.2c-0.4,0.1-1,0.1-1.6,0.1
		c-0.7,0-1.2,0-1.6-0.1c-0.4-0.1-0.8-0.1-1-0.2c-0.3-0.1-0.4-0.2-0.5-0.3s-0.2-0.3-0.2-0.5v-20.5h-23v20.5c0,0.2-0.1,0.4-0.2,0.5
		c-0.1,0.1-0.3,0.3-0.5,0.3c-0.3,0.1-0.6,0.2-1,0.2c-0.4,0.1-1,0.1-1.6,0.1c-0.6,0-1.2,0-1.6-0.1c-0.4-0.1-0.8-0.1-1.1-0.2
		c-0.3-0.1-0.4-0.2-0.5-0.3c-0.1-0.1-0.2-0.3-0.2-0.5v-44.4c0-0.2,0.1-0.4,0.2-0.5c0.1-0.1,0.3-0.3,0.5-0.3s0.6-0.2,1.1-0.2
		c0.4-0.1,1-0.1,1.6-0.1c0.7,0,1.2,0,1.6,0.1s0.8,0.1,1,0.2c0.3,0.1,0.4,0.2,0.5,0.3c0.1,0.1,0.2,0.3,0.2,0.5v18.5h23v-18.5
		c0-0.2,0.1-0.4,0.2-0.5s0.3-0.3,0.5-0.3c0.3-0.1,0.6-0.2,1-0.2s1-0.1,1.6-0.1c0.6,0,1.2,0,1.6,0.1s0.8,0.1,1,0.2
		c0.3,0.1,0.4,0.2,0.5,0.3c0.1,0.1,0.2,0.3,0.2,0.5V254.2z"/>
	<path class="st2" d="M1009.3,252.5c0,0.4,0,0.8-0.1,1.1c-0.1,0.3-0.1,0.6-0.3,0.8c-0.1,0.2-0.3,0.4-0.5,0.5
		c-0.2,0.1-0.4,0.1-0.6,0.1h-24.3c-0.6,0-1.2-0.2-1.7-0.6c-0.5-0.4-0.8-1-0.8-1.9v-41.2c0-0.9,0.3-1.6,0.8-1.9
		c0.5-0.4,1.1-0.6,1.7-0.6h24c0.2,0,0.4,0,0.6,0.1c0.2,0.1,0.3,0.3,0.4,0.5s0.2,0.5,0.3,0.8c0.1,0.3,0.1,0.7,0.1,1.2
		c0,0.4,0,0.8-0.1,1.1c-0.1,0.3-0.2,0.6-0.3,0.8c-0.1,0.2-0.2,0.4-0.4,0.4c-0.2,0.1-0.4,0.1-0.6,0.1h-19.8v14.5h17
		c0.2,0,0.4,0.1,0.6,0.2c0.2,0.1,0.3,0.3,0.4,0.4c0.1,0.2,0.2,0.5,0.3,0.8c0.1,0.3,0.1,0.7,0.1,1.2c0,0.4,0,0.8-0.1,1.1
		c-0.1,0.3-0.1,0.6-0.3,0.8c-0.1,0.2-0.3,0.3-0.4,0.4s-0.4,0.1-0.6,0.1h-17V250h20.1c0.2,0,0.4,0,0.6,0.1c0.2,0.1,0.3,0.2,0.5,0.4
		c0.1,0.2,0.2,0.5,0.3,0.8C1009.3,251.7,1009.3,252.1,1009.3,252.5z"/>
</g>
<g class="st1">
	<path class="st2" d="M780.3,671c0,0.1,0,0.3-0.1,0.4c-0.1,0.1-0.2,0.2-0.4,0.3c-0.2,0.1-0.4,0.1-0.7,0.2c-0.3,0-0.6,0.1-1.1,0.1
		c-0.4,0-0.8,0-1-0.1c-0.3,0-0.5-0.1-0.7-0.2c-0.2-0.1-0.3-0.2-0.4-0.3c-0.1-0.1-0.1-0.2-0.1-0.4v-41c0-0.1,0-0.2,0.1-0.4
		c0.1-0.1,0.2-0.2,0.4-0.3s0.4-0.1,0.7-0.2c0.3,0,0.6-0.1,1-0.1c0.4,0,0.8,0,1.1,0.1c0.3,0,0.5,0.1,0.7,0.2c0.2,0.1,0.3,0.2,0.4,0.3
		c0.1,0.1,0.1,0.2,0.1,0.4V671z"/>
	<path class="st2" d="M800.4,671c0,0.1,0,0.3-0.1,0.4c-0.1,0.1-0.2,0.2-0.4,0.3c-0.2,0.1-0.4,0.1-0.7,0.2c-0.3,0-0.6,0.1-1.1,0.1
		c-0.4,0-0.8,0-1-0.1c-0.3,0-0.5-0.1-0.7-0.2c-0.2-0.1-0.3-0.2-0.4-0.3c-0.1-0.1-0.1-0.2-0.1-0.4v-41c0-0.1,0-0.2,0.1-0.4
		c0.1-0.1,0.2-0.2,0.4-0.3s0.4-0.1,0.7-0.2c0.3,0,0.6-0.1,1-0.1c0.4,0,0.8,0,1.1,0.1c0.3,0,0.5,0.1,0.7,0.2c0.2,0.1,0.3,0.2,0.4,0.3
		c0.1,0.1,0.1,0.2,0.1,0.4V671z"/>
	<path class="st2" d="M844.2,631.1c0,0.3,0,0.5-0.1,0.8c0,0.2-0.1,0.4-0.2,0.5c-0.1,0.1-0.2,0.3-0.4,0.3c-0.1,0.1-0.3,0.1-0.5,0.1
		h-13.8V671c0,0.1,0,0.3-0.1,0.4s-0.2,0.2-0.4,0.3c-0.2,0.1-0.4,0.1-0.7,0.2c-0.3,0-0.6,0.1-1,0.1c-0.4,0-0.8,0-1-0.1
		c-0.3,0-0.5-0.1-0.7-0.2c-0.2-0.1-0.3-0.2-0.4-0.3c-0.1-0.1-0.1-0.2-0.1-0.4v-38.1h-13.8c-0.2,0-0.4,0-0.5-0.1
		c-0.1-0.1-0.2-0.2-0.3-0.3c-0.1-0.1-0.2-0.3-0.2-0.5c0-0.2-0.1-0.5-0.1-0.8c0-0.3,0-0.6,0.1-0.8c0-0.2,0.1-0.4,0.2-0.6
		c0.1-0.2,0.2-0.3,0.3-0.3c0.1-0.1,0.3-0.1,0.5-0.1h32c0.2,0,0.3,0,0.5,0.1c0.1,0.1,0.3,0.2,0.4,0.3c0.1,0.2,0.2,0.3,0.2,0.6
		C844.2,630.6,844.2,630.8,844.2,631.1z"/>
	<path class="st2" d="M900.7,670.9c0,0.2,0,0.3-0.1,0.4c0,0.1-0.2,0.2-0.3,0.3s-0.4,0.1-0.7,0.2c-0.3,0-0.7,0.1-1.1,0.1
		c-0.4,0-0.9,0-1.3-0.1c-0.4,0-0.8-0.1-1-0.3c-0.2-0.1-0.4-0.3-0.6-0.5l-18.7-21.7V671c0,0.1,0,0.3-0.1,0.4
		c-0.1,0.1-0.2,0.2-0.4,0.3c-0.2,0.1-0.4,0.1-0.7,0.2c-0.3,0-0.6,0.1-1.1,0.1c-0.4,0-0.8,0-1-0.1c-0.3,0-0.5-0.1-0.7-0.2
		c-0.2-0.1-0.3-0.2-0.4-0.3c-0.1-0.1-0.1-0.2-0.1-0.4v-41c0-0.1,0-0.2,0.1-0.4c0.1-0.1,0.2-0.2,0.4-0.3s0.4-0.1,0.7-0.2
		c0.3,0,0.6-0.1,1-0.1c0.4,0,0.8,0,1.1,0.1c0.3,0,0.5,0.1,0.7,0.2s0.3,0.2,0.4,0.3c0.1,0.1,0.1,0.2,0.1,0.4v19.2l17.9-19.2
		c0.1-0.2,0.3-0.3,0.5-0.4c0.2-0.1,0.4-0.2,0.6-0.3s0.5-0.1,0.8-0.1c0.3,0,0.6,0,1.1,0c0.4,0,0.8,0,1,0.1c0.3,0,0.5,0.1,0.6,0.2
		s0.3,0.2,0.3,0.3c0,0.1,0.1,0.2,0.1,0.3c0,0.2-0.1,0.5-0.2,0.7c-0.1,0.2-0.4,0.5-0.7,0.8L882,649.1l18,20.6
		c0.3,0.4,0.5,0.7,0.6,0.8C900.7,670.7,900.7,670.8,900.7,670.9z"/>
	<path class="st2" d="M944.5,670.3c0.1,0.3,0.2,0.6,0.2,0.8c0,0.2-0.1,0.4-0.2,0.5c-0.2,0.1-0.4,0.2-0.7,0.2c-0.3,0-0.7,0-1.2,0
		s-0.9,0-1.2,0c-0.3,0-0.5-0.1-0.7-0.1s-0.3-0.2-0.4-0.3c-0.1-0.1-0.2-0.2-0.2-0.4l-4.4-11.3h-20.3l-4.3,11.2c0,0.2-0.1,0.3-0.2,0.4
		c-0.1,0.1-0.2,0.2-0.4,0.3c-0.2,0.1-0.4,0.1-0.7,0.2c-0.3,0-0.7,0.1-1.1,0.1c-0.5,0-0.9,0-1.3-0.1c-0.3,0-0.6-0.1-0.7-0.2
		c-0.2-0.1-0.2-0.3-0.2-0.5c0-0.2,0.1-0.5,0.2-0.8l16.2-40.3c0.1-0.2,0.2-0.3,0.3-0.4c0.1-0.1,0.3-0.2,0.6-0.3
		c0.2-0.1,0.5-0.1,0.8-0.1c0.3,0,0.7,0,1.1,0c0.4,0,0.8,0,1.1,0c0.3,0,0.6,0.1,0.8,0.1s0.4,0.2,0.5,0.3c0.1,0.1,0.2,0.3,0.3,0.4
		L944.5,670.3z M925.3,633.6L925.3,633.6l-8.8,22.8h17.7L925.3,633.6z"/>
	<path class="st2" d="M988.4,669.7c0,0.4-0.1,0.7-0.2,1s-0.3,0.5-0.5,0.6c-0.2,0.2-0.4,0.3-0.7,0.3c-0.2,0.1-0.5,0.1-0.7,0.1h-0.9
		c-0.5,0-0.9-0.1-1.3-0.2c-0.4-0.1-0.8-0.3-1.1-0.6c-0.4-0.3-0.7-0.6-1.1-1.1c-0.4-0.5-0.8-1-1.2-1.8l-16.3-26.4
		c-0.8-1.3-1.6-2.6-2.5-4c-0.8-1.4-1.6-2.7-2.3-4h0c0,1.6,0,3.2,0,4.9s0,3.3,0,4.9V671c0,0.1,0,0.3-0.1,0.4
		c-0.1,0.1-0.2,0.2-0.4,0.3c-0.2,0.1-0.4,0.1-0.7,0.2c-0.3,0-0.6,0.1-1.1,0.1c-0.4,0-0.8,0-1-0.1c-0.3,0-0.5-0.1-0.7-0.2
		c-0.2-0.1-0.3-0.2-0.4-0.3c-0.1-0.1-0.1-0.2-0.1-0.4v-39.6c0-0.8,0.2-1.3,0.7-1.6c0.5-0.3,0.9-0.4,1.3-0.4h1.8c0.6,0,1,0,1.4,0.1
		c0.4,0.1,0.7,0.2,1,0.4c0.3,0.2,0.6,0.5,0.9,0.9c0.3,0.4,0.6,0.9,1,1.5l12.5,20.2c0.8,1.3,1.5,2.5,2.2,3.6c0.7,1.2,1.4,2.3,2.1,3.4
		c0.7,1.1,1.3,2.2,2,3.3c0.7,1.1,1.3,2.2,1.9,3.3h0c0-1.8,0-3.7,0-5.7c0-2,0-3.9,0-5.7v-24.6c0-0.1,0-0.2,0.1-0.4
		c0.1-0.1,0.2-0.2,0.4-0.3c0.2-0.1,0.4-0.1,0.7-0.2c0.3,0,0.6,0,1.1,0c0.4,0,0.7,0,1,0c0.3,0,0.5,0.1,0.7,0.2
		c0.2,0.1,0.3,0.2,0.4,0.3c0.1,0.1,0.1,0.2,0.1,0.4V669.7z"/>
	<path class="st2" d="M1030.8,641.4c0,2-0.4,3.8-1.1,5.4c-0.7,1.6-1.8,3-3.1,4.2c-1.4,1.2-3,2.1-5,2.7c-2,0.7-4.3,1-7.1,1h-6V671
		c0,0.1,0,0.3-0.1,0.4c-0.1,0.1-0.2,0.2-0.4,0.3c-0.2,0.1-0.4,0.1-0.7,0.2c-0.3,0-0.6,0.1-1.1,0.1c-0.4,0-0.8,0-1-0.1
		c-0.3,0-0.5-0.1-0.7-0.2c-0.2-0.1-0.3-0.2-0.4-0.3c-0.1-0.1-0.1-0.2-0.1-0.4v-39.6c0-0.8,0.2-1.3,0.7-1.6c0.5-0.3,0.9-0.4,1.3-0.4
		h9.4c0.9,0,1.8,0,2.7,0.1s1.9,0.2,3.1,0.5s2.4,0.7,3.6,1.4s2.3,1.5,3.1,2.5c0.9,1,1.5,2.1,2,3.4
		C1030.5,638.5,1030.8,639.9,1030.8,641.4z M1026.1,641.8c0-1.8-0.4-3.4-1.2-4.7s-1.7-2.2-2.9-2.8s-2.3-1-3.5-1.2
		c-1.2-0.2-2.4-0.2-3.5-0.2h-6.6v18.4h6.3c2,0,3.7-0.2,5.1-0.7s2.5-1.1,3.4-1.9c0.9-0.8,1.6-1.8,2.1-3
		C1025.9,644.4,1026.1,643.2,1026.1,641.8z"/>
	<path class="st2" d="M1076.7,656c0,2.6-0.4,4.9-1.2,6.9s-1.9,3.7-3.4,5.1c-1.5,1.4-3.3,2.4-5.4,3.1c-2.1,0.7-4.4,1.1-7,1.1
		c-2.4,0-4.5-0.3-6.5-1c-2-0.7-3.7-1.7-5.2-3c-1.4-1.3-2.6-3-3.4-4.9s-1.2-4.2-1.2-6.8V630c0-0.1,0-0.2,0.1-0.4s0.2-0.2,0.4-0.3
		c0.2-0.1,0.4-0.1,0.7-0.2c0.3,0,0.6-0.1,1-0.1c0.4,0,0.8,0,1,0.1c0.3,0,0.5,0.1,0.7,0.2s0.3,0.2,0.4,0.3c0.1,0.1,0.1,0.2,0.1,0.4
		v25.9c0,2.1,0.3,4,0.8,5.6c0.6,1.6,1.4,2.9,2.4,4c1.1,1.1,2.3,1.9,3.9,2.4c1.5,0.5,3.2,0.8,5.1,0.8c1.9,0,3.7-0.3,5.2-0.8
		c1.5-0.5,2.8-1.3,3.8-2.3c1-1,1.9-2.3,2.4-3.9c0.6-1.6,0.8-3.4,0.8-5.5V630c0-0.1,0-0.2,0.1-0.4s0.2-0.2,0.4-0.3s0.4-0.1,0.7-0.2
		c0.3,0,0.6-0.1,1-0.1c0.4,0,0.8,0,1,0.1c0.3,0,0.5,0.1,0.7,0.2s0.3,0.2,0.4,0.3c0.1,0.1,0.1,0.2,0.1,0.4V656z"/>
	<path class="st2" d="M1121.3,670.9c0,0.2,0,0.3-0.1,0.4c-0.1,0.1-0.2,0.2-0.3,0.3c-0.2,0.1-0.4,0.1-0.7,0.2c-0.3,0-0.7,0.1-1.1,0.1
		c-0.4,0-0.7,0-1,0c-0.3,0-0.5-0.1-0.7-0.2c-0.2-0.1-0.3-0.2-0.5-0.4c-0.1-0.2-0.2-0.4-0.3-0.6l-4.3-10.3c-0.5-1.2-1-2.2-1.6-3.3
		c-0.6-1-1.3-1.9-2.1-2.7c-0.8-0.8-1.8-1.3-2.9-1.8c-1.1-0.4-2.5-0.7-4.1-0.7h-4.8V671c0,0.1,0,0.3-0.1,0.4
		c-0.1,0.1-0.2,0.2-0.4,0.3c-0.2,0.1-0.4,0.1-0.7,0.2c-0.3,0-0.6,0.1-1.1,0.1c-0.4,0-0.8,0-1-0.1c-0.3,0-0.5-0.1-0.7-0.2
		c-0.2-0.1-0.3-0.2-0.4-0.3c-0.1-0.1-0.1-0.2-0.1-0.4v-39.6c0-0.8,0.2-1.3,0.7-1.6c0.5-0.3,0.9-0.4,1.3-0.4h8.7c1.1,0,2.1,0,2.8,0.1
		c0.8,0.1,1.4,0.1,2.1,0.2c1.8,0.3,3.3,0.7,4.6,1.4c1.3,0.6,2.4,1.4,3.3,2.3c0.9,0.9,1.5,2,1.9,3.1c0.4,1.2,0.6,2.4,0.6,3.8
		c0,1.4-0.2,2.6-0.6,3.7c-0.4,1.1-1,2.1-1.8,2.9c-0.8,0.8-1.7,1.6-2.8,2.2c-1.1,0.6-2.3,1.1-3.6,1.5c0.8,0.3,1.5,0.7,2.1,1.2
		c0.6,0.5,1.2,1.1,1.8,1.7c0.5,0.7,1,1.5,1.5,2.3c0.5,0.9,1,1.9,1.4,3l4.3,9.9c0.3,0.8,0.5,1.3,0.6,1.6
		C1121.2,670.6,1121.3,670.8,1121.3,670.9z M1113.6,640.6c0-1.8-0.4-3.3-1.3-4.6c-0.9-1.3-2.4-2.2-4.4-2.7c-0.7-0.2-1.4-0.3-2.3-0.4
		c-0.8-0.1-1.9-0.1-3.2-0.1h-5.7v15.5h6.7c1.8,0,3.3-0.2,4.6-0.6s2.4-1,3.2-1.7c0.8-0.7,1.5-1.5,1.9-2.5S1113.6,641.7,1113.6,640.6z
		"/>
</g>
</svg>
