<?xml version="1.0" encoding="utf-8"?>
<!-- Generator: Adobe Illustrator 24.3.0, SVG Export Plug-In . SVG Version: 6.00 Build 0)  -->
<svg version="1.1" id="Layer_1" xmlns="http://www.w3.org/2000/svg" xmlns:xlink="http://www.w3.org/1999/xlink" x="0px" y="0px"
	 viewBox="0 0 1895.9 812" style="enable-background:new 0 0 1895.9 812;" xml:space="preserve">
<style type="text/css">
	.st0{fill:#88BCE6;}
	.st1{display:none;}
	.st2{display:inline;}
</style>
<path class="st0" d="M304.6,294.9c-1.7,1.4-8.4,7-9.7,15.8c-1.1,7.7,2.7,10,1.3,18.9c-0.9,5.7-3.3,10-6.4,15.5
	c-3.9,6.9-5.1,6.4-7.4,11.2c-3.9,8.1-3.8,16.3-3.7,21.3c0.1,3.7,0.3,12.9,4.8,21.9c2,4.1,5.1,8.5,6.2,10.1c2.9,4.2,4.4,6.3,5.6,7.6
	c1.2,1.2,2.6,2.6,3.9,5.1c0.4,0.7,1.1,2.1,1.5,3.8c0.3,1.3,0.7,4.1-1.8,11.5c-0.3,0.9-1.2,3.3-3.9,9.2c-2.3,5.1-3.5,7.6-4.3,8.9
	c-3.3,5.4-7.4,8.2-10.5,10.4c-4.3,3-8.5,4.8-12.1,5.9c-0.7,0.2-1.3,0.7-1.7,1.4c-0.4,0.6-0.7,1.3-0.9,1.9c-3.6,8.5-0.3,18,1,21.3
	c0,0.1,0.1,0.2,0.1,0.3c6.4,12.4,10.9,14.8,13.9,14.6c0.8-0.1,1.6-0.4,3-0.2c4.9,0.6,8.1,5.7,9.2,7.3c6.4,9.8,20.3,20.2,27,24
	c9,5,17.3,4.6,28,4.2c11.2-0.5,12-3,32.2-6.9c13-2.5,19.6-3.8,29.2-3.7c8.4,0.1,11.2,1.2,25.3,2.1c8,0.5,14.7,0.7,19.4,0.8
	c0.9,0,1.7,0.5,2.2,1.3c2,3.1,5.1,6.8,9.5,9c5.1,2.6,8.7,1.6,23.1-0.8c19.5-3.2,21-2.7,33.2-5.5c3.6-0.8,7.8-3.6,13.9-3.6
	c4.5,0,5.4,1.2,11.8,2.1c6.1,0.9,10.7,0.6,16.9,0.2c8.8-0.6,8.4-1.4,16.6-2c10.1-0.8,9.5,0.6,20.9,0c8.8-0.5,10.8-1.5,15.7-0.2
	c4.9,1.3,5.3,2.8,10.5,3.6c3.2,0.5,6.3,0.3,12.6,0c4.7-0.3,5.3-0.5,8.1-0.6c6.9-0.3,11.9,0.6,14.7,1c13.8,2,15.6-1.2,32.4,0.6
	c12.2,1.3,14.4,3.3,23.7,2.6c4.4-0.3,6.5-1,12.8-1.3c8.7-0.4,10.1,0.6,16.5,0.4c12.8-0.3,14.6-4.5,24.4-4.1
	c7.9,0.3,13.2,3.3,16.9,4.9c9.4,4.2,24.6,7.3,49.7,1.9c0.8-0.2,1.4-0.7,1.9-1.4c0.3-0.6,0.8-1.2,1.5-1.6c1-0.7,1.9-0.7,2.3-0.7
	c9-0.5,16-3.5,27.3,0.3c3.2,1.1,2.6,1.3,5.8,2.5c3,1.1,11.7,3.8,31,0.7c3.5-0.6,16.7-2.8,26.8-2.6c2.1,0,5.7,0.2,7.7,3
	c1.9,2.7,1,6.1,2.6,7c1.6,0.8,3.7-1.5,5.5-2.9c2.2-1.7,5.3-3,17.3-1.9c11.1,1,13.9,2.6,21.4,3.5c4.9,0.6,11.9,0.8,20.7-0.8
	c0.8-0.1,1.4-0.6,1.9-1.4l0.6-1.1c0.6-1,1.6-1.5,2.6-1.4c5,0.5,12.2,1,20.8,0.7c12.7-0.4,17.4-2.1,25.8-1.9
	c6.6,0.2,16.2,1.6,27.9,7.6c1,0.5,2.1,0.4,2.9-0.4c0.7-0.6,1.5-1.2,2.4-1.8c1.7-1.2,4.5-3.1,8.4-3.8c1-0.2,8.4-1.2,13.9,4.3
	c0.5,0.5,1,1.1,1.4,1.6c0.6,0.8,1.5,1.2,2.4,1.1c2.6-0.4,6.2-0.8,10.3-0.9c13.2-0.6,20.6,1.4,30,2.6c22.5,2.8,20.7-3.7,41.2-0.9
	c0,0,17.4,2.4,28.2-1.7c3.3-1.3,3.4-1.3,3.4-1.3c3.8-1.5,4.2-1.8,4.9-1.9c3.5-0.6,6.9,4,7.9,5.2c5.9,7.1,19.2,4.6,35.9,3.2
	c8.3-0.7,20.4-1.4,35.6-1c10.6-0.4,19.2-0.3,25.2-0.1c11.3,0.3,17,1.1,27.2,0c5.9-0.6,5.6-1,13.3-1.9c5.3-0.6,13.1-1.5,22.8-1.3
	c6.4,0.1,14.7,0.7,24.5,2.5c0.4,0.1,0.8,0.1,1.1-0.1c2.9-0.8,5.9-1.6,9.1-2.2c12.4-2.3,23.6-1.7,32.5-0.2c0.1,0,0.2,0,0.2,0
	c7,0.4,13.9,0.8,20.9,1.2c1.2,0.1,2.3-0.7,2.8-2c0.2-0.6,0.4-1.2,0.8-1.8c2.9-5.2,9.9-5.4,16.5-5.4c7,0,16,0.3,26.8,1.3
	c0.9,0.1,1.8-0.3,2.4-1.2c0.8-1.2,1.9-2.4,3.4-3.5c4.3-3,8.4-1.8,11.7-2.3c7.7-1.2,12.1-11.8,14.6-16.7c4.5-8.8,13.9-20.3,35.3-31.6
	c0.9-0.4,1.5-1.3,1.6-2.4c0.9-6,1.5-13.2,1.3-21.3c-0.1-4.6-0.5-8.8-1-12.6c-0.1-0.7-0.3-1.3-0.7-1.7c-0.9-1.1-2-2.7-2.7-4.8
	c-1.5-4.7-0.2-8.7,0.9-13.6c0,0,1-4.3,1.1-35.9c0-0.3,0-1.2-0.4-2c-0.9-2.1-3.3-2.7-3.9-2.9c-4.2-1.4-7.2-13.8-7.9-22.6
	c-1-11.3,1.3-20.8,3.4-26.9c0.1-0.3,0.2-0.6,0.2-0.9c0.6-8.9,0.6-16.3,0.5-21.8c-0.3-13.3-1.5-16.3-3.4-18.4c-1.3-1.4-4-2.9-9.4-5.9
	c-2.8-1.5-4.2-2.3-5.8-2.8c-4.1-1.2-5.7,0.2-9.8-0.1c-5.7-0.4-5.6-3.1-10.8-3.8c-5.4-0.7-5.8,2.2-13.1,2.9c-6.8,0.6-8-1.7-14-0.9
	c-5.6,0.8-8.3,3.5-11.6,5.1c-10.2,5-21.6-2.2-29.7-5.9c-8.1-3.8-21.3-4.5-47.6-5.9c-16.1-0.9-60.7-2-81.9,2.6
	c-3.4,0.7-9,2.2-15.9,0.3c-5.9-1.7-7.4-4.3-13.9-5.9c-4.5-1.1-7.3-0.7-14.1-0.3c-7.3,0.5-14.5,0.3-21.8,0.9
	c-28.1,2-37.9-3.7-67.4-0.4c-17.7,2-19,4.6-28.7,3.2c-13.4-1.9-24.9-3.6-31.5-5.5c-0.6-0.2-2.2-0.6-4.3-0.4
	c-4.6,0.4-7.8,3.7-8.4,4.3c-6.2,5.9-26.8-0.1-34.9-2c-6.6-1.6-33.5-8.1-59.4,1.3c-9.2,3.3-13.9,7-23.7,6.8
	c-9.2-0.2-12.8-3.6-24.4-4.6c-9.8-0.9-10.3,1.3-21,1.4c-16.3,0.2-30.5-4.6-41.1-8.1c-10.8-3.6-15.3-6.3-23.4-5.2
	c-5.9,0.8-6.1,2.6-15.5,5.5c-4.1,1.3-14.1,4.3-26.2,4.1c-11.6-0.2-12.7-3.2-22-1.9c-7.1,1-8.4,2.9-16.1,4.6c-6.9,1.6-9.9,0.9-23,0.7
	c-20-0.3-21.1,1.1-39.7,0.4c-5.8-0.2-3.5-0.3-16.9-1c-26.3-1.5-29.9-1-39.2-2.3c-6.1-0.9-15-2.7-25.7-6.5c-0.8-0.3-1.7-0.2-2.4,0.3
	c-5.4,3.8-9.8,5.7-12.6,6.7c-4.4,1.6-6.1,1.3-7.4,0.9c-2.4-0.9-3.1-2.6-4.9-2.3c-1.3,0.2-1.5,1.1-4.8,4.1c-1.9,1.7-2.9,2.6-3.8,2.9
	c-3.2,1-6.4-1.6-6.9-2c-4.1-3.3-3.5-7.6-6-8.1c-1.8-0.4-2.6,1.7-6.7,4.3c0,0-2.2,1.4-6.9,3.2c-13.2,4.9-36.8-0.6-36.8-0.6
	c-8.7-2-20.4-5.6-33.8-12.2c-0.6-0.3-1.4-0.4-2-0.1c-1.3,0.5-3.5,1.3-6,2.4c-15.8,6.2-20.3,8.1-26.8,7.8c-2.9-0.1-1.9-0.5-6.5-1
	c-6.7-0.7-11-0.1-23.5,1.4c-14.5,1.8-16.7,2-20.1,2.2c-6.3,0.2-5.8-0.2-12.8-0.1c-2.2,0-12.8,0.2-27.1,2.6c-7.1,1.2-8.2,1.8-13,2.6
	c-14.5,2.6-25.2,0.8-33.9,0c-24.7-2.4-23.1,3.2-45.8,1.2C328.1,295.6,316.2,285.3,304.6,294.9z"/>
<g>
	<path d="M421.1,287c6.9,0,13.9,0.7,20.8,2c6.9,1.4,12.3,2.6,16.2,3.7c3.8,1.1,7.3,1.6,10.4,1.5c3.1-0.1,5.3-1.3,6.5-3.5
		c0.7-1.5,1.9-2.1,3.3-1.9c1.5,0.2,2.2,1.2,2.2,3v48c0,1.7-0.9,2.7-2.6,3c-1.5,0-2.5-0.7-3-2.2c-2.5-9.4-5.8-17.3-9.9-23.8
		c-4.1-6.4-8.7-11.3-13.8-14.5c-5.1-3.2-10-5.6-14.7-7.1c-4.7-1.5-9.9-2.4-15.6-2.6c-11.2,0-20.1,3.7-26.8,11
		c-6.7,7.3-10,16.4-10,27.3c0,7.2,2.2,13.6,6.5,19.1c4.3,5.6,10,10.2,16.9,13.9c6.9,3.7,14.6,7.3,23.1,10.8
		c8.4,3.5,16.9,7.3,25.3,11.5c8.4,4.2,16.2,8.9,23.2,14.1c7.1,5.2,12.8,11.9,17.1,20.1c4.3,8.2,6.5,17.6,6.5,28.3
		c0,18.3-8.6,33.9-25.7,46.7c-17.1,12.8-40.3,19.1-69.5,19.1c-28,0-50.1-5.4-66.2-16.2c-16.1-10.8-24.2-26.3-24.2-46.7
		c0-10.9,2.9-20.3,8.7-28.1c5.8-7.8,14.2-11.7,25.1-11.7c9.7,0,17.3,2.6,23.1,7.8c5.7,5.2,8.6,11.7,8.6,19.3c0,4.5-1.1,8.5-3.2,12.1
		c-2.1,3.6-4.4,6.4-6.9,8.4c-2.5,2-4.7,4.7-6.7,8.2c-2,3.5-3,7.6-3,12.3c0.2,7.4,4,14.1,11.3,20.1c7.3,5.9,18.3,8.9,32.9,8.9
		c14.9,0,27.1-4.4,36.8-13.2c9.7-8.8,14.5-17.9,14.5-27.3c0-5.4-1.4-10.5-4.1-15.1c-2.7-4.6-6.3-8.6-10.8-11.9
		c-4.5-3.3-9.6-6.5-15.4-9.5c-5.8-3-12-5.9-18.4-8.9c-6.4-3-12.9-6-19.3-9.1c-6.4-3.1-12.6-6.7-18.4-10.8c-5.8-4.1-11-8.6-15.4-13.6
		c-4.5-5-8.1-11-10.8-18c-2.7-7.1-4.1-14.8-4.1-23.2c0-7.4,1.3-14.6,3.9-21.4c2.6-6.8,6.8-13.3,12.5-19.5
		c5.7-6.2,13.9-11.2,24.7-14.9C393.8,288.9,406.5,287,421.1,287z"/>
	<path d="M600.7,368.1c6.4,0,12.9,0.8,19.3,2.4c6.4,1.6,12.6,4.2,18.6,7.6c5.9,3.5,10.9,7.7,14.9,12.6c3.2,4.2,5.4,8.9,6.7,14.1
		c1.2,5.2,1.3,10.2,0.2,15.1c-1.1,4.8-3.8,9.1-8.2,12.6c-4.3,3.6-10.1,5.8-17.3,6.5l-54.3,6.3c2.5,11.9,7.4,21.6,14.9,29
		s15.4,12,24,13.8c8.6,1.7,17,1.1,25.3-2c8.3-3.1,14.7-8.5,19.1-16.2c0.2-0.2,0.4-0.5,0.4-0.7c1.7-3.5,3.5-4.8,5.2-4.1
		c1.2,0.7,1.7,1.9,1.5,3.3c-8.2,30.5-31.4,45.7-69.5,45.7c-10.7,0-20.8-1.9-30.5-5.8c-9.7-3.8-18.3-9.7-25.8-17.7
		c-7.6-7.9-12.8-17.2-15.8-27.9c-1.5-4.2-2.5-8.9-3-14.1c-1-11.2-0.3-21.4,2-30.9c2.4-9.4,6.4-17.9,12.1-25.5
		c5.7-7.6,13.6-13.5,23.8-17.8C574.4,370.2,586.6,368.1,600.7,368.1z M600.3,373.7c-6.4,0-11.8,3.9-16,11.7
		c-4.2,7.8-6.5,16.6-6.9,26.4c-0.4,9.8,0.3,19.3,2,28.4c13.9-1.7,24.7-5.3,32.3-10.8c7.7-5.4,11-13.8,10-24.9c-0.5-5-1.2-9.2-2-12.6
		c-0.9-3.5-2.1-6.7-3.7-9.7c-1.6-3-3.7-5.1-6.3-6.5C607.2,374.3,604,373.7,600.3,373.7z"/>
	<path d="M789.9,366.2c13.1,0,22.7,5,28.8,14.9c6.1,9.9,5.8,20.6-0.9,32c-3,4.7-7.1,8-12.5,9.9c-5.3,1.9-10.6,2-15.8,0.6
		c-8.7-2.5-13-7.6-13-15.2c0-4,2.2-7.4,6.5-10.4c4.3-3,6.5-5.9,6.5-8.9c0-4.5-1.5-8.1-4.5-10.8c-3-2.7-6.8-3.7-11.5-3
		c-8.2,2.5-13.6,7.9-16.4,16.2c-2.7,8.3-4.1,21-4.1,38.1v43.5c0,11.2,1.4,19.3,4.3,24.4c2.8,5.1,7.9,8.1,15.1,9.1c2,0.2,3,1.1,3,2.6
		c0,2-1,3-3,3h-90.4c-2,0-3-1-3-3c0-1.5,1-2.4,3-2.6c7.4-1,12.5-4,15.2-8.9c2.7-5,4.1-13.1,4.1-24.5v-35.7c0-11.9-1.4-20.9-4.3-27
		c-2.9-6.1-7.5-9.7-13.9-11c-2.2-0.5-3.3-1.5-3.3-3c0-1.7,1.1-2.6,3.3-2.6c10.7-0.5,21.4-2.8,32.3-7.1c10.9-4.2,18.4-7.7,22.5-10.4
		c4.1-2.7,7.5-5.2,10.2-7.4c1-0.7,2-0.9,3.2-0.6c1.1,0.4,1.7,1.3,1.7,2.8v11.2c7.4-7.2,15.1-11.9,23.1-14.1
		C781.1,366.8,785.7,366.2,789.9,366.2z"/>
	<path d="M838.3,368.1h81.8c2.7,0,4.1,0.9,4.1,2.6c0,1.5-1.1,2.5-3.3,3c-3,1-5.1,2.6-6.5,4.8c-1.4,2.2-1.8,5.1-1.3,8.7
		c0.5,3.6,1.2,6.7,2,9.3c0.9,2.6,2,6,3.5,10.2L945,464l23.1-60.2c7.7-20.1,5.7-30.1-5.9-30.1c-2-0.2-3-1.2-3-3
		c0.2-1.7,1.2-2.6,3-2.6h46.1c2,0,3,0.9,3,2.6c0,1.7-1,2.7-3,3c-4.2,0-7.9,0.6-11.2,1.9c-3.2,1.2-6.3,3.2-9.1,5.8
		c-2.9,2.6-5.5,6-8,10.2c-2.5,4.2-4.8,9.4-7.1,15.6L932.7,512h-24.5l-46.5-105.6c-2.7-5.7-4.5-9.2-5.2-10.4
		c-0.7-1.2-1.9-3.2-3.3-5.9c-1.5-2.7-2.7-4.8-3.7-6.3c-1-1.5-2.2-3.1-3.7-4.8c-1.5-1.7-2.8-3-4.1-3.9c-1.2-0.9-2.5-1.3-3.7-1.3
		c-2-0.2-3-1.2-3-3C834.9,368.9,836,368.1,838.3,368.1z"/>
	<path d="M1089.3,368.8c0.7-0.7,1.7-0.9,2.8-0.6c1.1,0.4,1.7,1.3,1.7,2.8v101.9c0,7.4,0.6,13.5,1.9,18c1.2,4.6,3.3,8.1,6.1,10.6
		c2.8,2.5,6.6,4.1,11.3,4.8c2,0.2,3,1.1,3,2.6c0,2-0.9,3-2.6,3h-90.7c-2,0-3-1-3-3c0-1.5,1-2.4,3-2.6c7.7-1,12.8-4,15.4-8.9
		c2.6-5,3.9-13.1,3.9-24.5v-35.7c0-11.9-1.4-20.9-4.3-27c-2.9-6.1-7.5-9.7-13.9-11c-2-0.5-3-1.5-3-3c0-1.7,1-2.6,3-2.6
		c10.7-0.5,21.4-2.8,32.3-7.1c10.9-4.2,18.5-7.7,22.7-10.4C1083.1,373.5,1086.5,371.1,1089.3,368.8z M1063.6,288.9
		c7.4,0,14.3,2.8,20.6,8.4c6.3,5.6,9.5,12.8,9.5,21.8c0,8.4-2.9,15.6-8.7,21.6c-5.8,5.9-13,8.9-21.4,8.9c-7.2,0-14-2.8-20.5-8.6
		c-6.4-5.7-9.7-13-9.7-21.9c0-8.2,2.9-15.2,8.7-21.2C1048,291.9,1055.2,288.9,1063.6,288.9z"/>
	<path d="M1200.1,368.1c10.7,0,20.2,1.7,28.6,5c8.4,3.3,14.7,7.7,19,13c4.2,5.3,6.8,11.5,7.8,18.4c1,6.9-0.5,14.1-4.5,21.6
		c-2.2,4.2-5.5,7.4-9.9,9.5c-4.3,2.1-8.7,3-13.2,2.8c-4.5-0.2-8.6-1.7-12.5-4.3c-3.8-2.6-6.4-6.1-7.6-10.6
		c-1.2-4.2-1.1-7.8,0.4-10.8s3.4-5.2,5.8-6.7c2.4-1.5,4.6-3.5,6.9-5.9c2.2-2.5,3.3-5.1,3.3-7.8c-0.2-5-2.2-9.3-5.9-13
		c-3.7-3.7-8.7-5.6-14.9-5.6c-10.2,0-18.2,6.4-24.2,19.3c-5.9,12.9-7.6,28.4-4.8,46.5c2.2,15.4,8.1,28,17.7,37.7
		c9.5,9.8,20.1,14.6,31.8,14.3c8.2,0,15.6-2.4,22.1-7.1c6.6-4.7,11.5-10.5,14.7-17.5c0.5-1.7,1.7-2.4,3.5-2s2.5,1.6,2,3.5
		c-2.5,9.2-7.3,17.3-14.3,24.4c-7.1,7.1-15.4,12.5-25.1,16.2c-9.7,3.7-19.8,5.6-30.5,5.6c-18.8-0.2-35.6-6.3-50.4-18
		c-14.7-11.8-23-27.7-24.7-47.8c-2-22.8,3.8-42,17.3-57.4C1152,375.8,1172.5,368.1,1200.1,368.1z"/>
	<path d="M1357,368.1c6.4,0,12.9,0.8,19.3,2.4c6.4,1.6,12.6,4.2,18.6,7.6c5.9,3.5,10.9,7.7,14.9,12.6c3.2,4.2,5.4,8.9,6.7,14.1
		c1.2,5.2,1.3,10.2,0.2,15.1s-3.8,9.1-8.2,12.6c-4.3,3.6-10.1,5.8-17.3,6.5l-54.3,6.3c2.5,11.9,7.4,21.6,14.9,29s15.4,12,24,13.8
		c8.6,1.7,17,1.1,25.3-2c8.3-3.1,14.7-8.5,19.1-16.2c0.2-0.2,0.4-0.5,0.4-0.7c1.7-3.5,3.5-4.8,5.2-4.1c1.2,0.7,1.7,1.9,1.5,3.3
		c-8.2,30.5-31.4,45.7-69.5,45.7c-10.7,0-20.8-1.9-30.5-5.8c-9.7-3.8-18.3-9.7-25.8-17.7c-7.6-7.9-12.8-17.2-15.8-27.9
		c-1.5-4.2-2.5-8.9-3-14.1c-1-11.2-0.3-21.4,2-30.9c2.4-9.4,6.4-17.9,12.1-25.5c5.7-7.6,13.6-13.5,23.8-17.8
		C1330.7,370.2,1342.8,368.1,1357,368.1z M1356.6,373.7c-6.4,0-11.8,3.9-16,11.7c-4.2,7.8-6.5,16.6-6.9,26.4
		c-0.4,9.8,0.3,19.3,2,28.4c13.9-1.7,24.7-5.3,32.3-10.8c7.7-5.4,11-13.8,10-24.9c-0.5-5-1.2-9.2-2-12.6c-0.9-3.5-2.1-6.7-3.7-9.7
		c-1.6-3-3.7-5.1-6.3-6.5C1363.5,374.3,1360.3,373.7,1356.6,373.7z"/>
	<path d="M1506.4,368.1c5.9,0,11.8,0.4,17.7,1.1c5.8,0.7,9.5,1.3,11.2,1.7c1.6,0.4,3.5,0.3,5.8-0.2c2.5-1.7,4-2.6,4.5-2.6
		c1.7,0,2.7,0.9,3,2.6l3.7,40.9c0,2-0.9,3-2.6,3c-1.5,0.2-2.5-0.6-3-2.6c-3.7-16.1-9.9-27-18.6-32.7c-5.7-3.7-12.9-5.6-21.6-5.6
		c-7.9,0-13.4,3-16.4,8.9s-2.7,12,0.7,18.2c2,3.7,6.1,7.4,12.5,11c6.3,3.6,13.2,6.9,20.6,10c7.4,3.1,14.7,6.5,21.9,10.2
		c7.2,3.7,13.2,8.4,18,13.9c4.8,5.6,7.3,12,7.3,19.1c0,14.6-6.3,26.5-19,35.5c-12.6,9.1-29.7,13.6-51.3,13.6
		c-18.6,0-32.9-4.6-42.9-13.8c-10-9.2-13.6-19.5-10.6-30.9c1.5-5,4-8.8,7.6-11.5c3.6-2.7,7.7-4.1,12.5-4.1c6.7,0,12.2,2.1,16.5,6.3
		c4.3,4.2,6.1,9.1,5.4,14.5c-0.7,4-3.2,7.6-7.3,11s-6.1,6.5-6.1,9.5c0.2,3.5,2.5,6.6,6.7,9.3c4.2,2.7,9.3,4.1,15.2,4.1
		c9.7,0,16.8-2.4,21.4-7.2c4.6-4.8,6.9-10.3,6.9-16.5c0-5.2-1.8-9.8-5.4-13.8c-3.6-4-8.1-7.2-13.6-9.7c-5.5-2.5-11.5-5.3-18-8.4
		c-6.6-3.1-12.7-6.2-18.4-9.3c-5.7-3.1-10.6-7.4-14.7-12.8c-4.1-5.4-6.5-11.8-7.3-19c-1.2-12.9,2.9-23.4,12.3-31.6
		C1470.5,372.2,1485.6,368.1,1506.4,368.1z"/>
</g>
<g class="st1">
	<path class="st2" d="M917.6,211.5c0,0.5,0,0.8-0.1,1.2c-0.1,0.3-0.1,0.6-0.3,0.8c-0.1,0.2-0.3,0.4-0.4,0.4
		c-0.2,0.1-0.4,0.1-0.6,0.1H902v40.1c0,0.2-0.1,0.4-0.2,0.5c-0.1,0.1-0.3,0.3-0.5,0.3c-0.3,0.1-0.6,0.2-1,0.2
		c-0.4,0.1-1,0.1-1.6,0.1c-0.6,0-1.2,0-1.6-0.1c-0.4-0.1-0.8-0.1-1.1-0.2c-0.3-0.1-0.4-0.2-0.5-0.3s-0.2-0.3-0.2-0.5v-40.1h-14.2
		c-0.2,0-0.4,0-0.6-0.1c-0.2-0.1-0.3-0.2-0.4-0.4c-0.1-0.2-0.2-0.5-0.3-0.8c-0.1-0.3-0.1-0.7-0.1-1.2c0-0.5,0-0.9,0.1-1.2
		c0.1-0.3,0.1-0.6,0.3-0.8s0.2-0.4,0.4-0.5c0.2-0.1,0.4-0.1,0.6-0.1h35.2c0.2,0,0.4,0,0.6,0.1c0.2,0.1,0.3,0.3,0.4,0.5
		s0.2,0.5,0.3,0.8C917.6,210.6,917.6,211,917.6,211.5z"/>
	<path class="st2" d="M964.5,254.2c0,0.2-0.1,0.4-0.2,0.5c-0.1,0.1-0.3,0.3-0.5,0.3c-0.3,0.1-0.6,0.2-1,0.2c-0.4,0.1-1,0.1-1.6,0.1
		c-0.7,0-1.2,0-1.6-0.1c-0.4-0.1-0.8-0.1-1-0.2c-0.3-0.1-0.4-0.2-0.5-0.3s-0.2-0.3-0.2-0.5v-20.5h-23v20.5c0,0.2-0.1,0.4-0.2,0.5
		c-0.1,0.1-0.3,0.3-0.5,0.3c-0.3,0.1-0.6,0.2-1,0.2c-0.4,0.1-1,0.1-1.6,0.1c-0.6,0-1.2,0-1.6-0.1c-0.4-0.1-0.8-0.1-1.1-0.2
		c-0.3-0.1-0.4-0.2-0.5-0.3c-0.1-0.1-0.2-0.3-0.2-0.5v-44.4c0-0.2,0.1-0.4,0.2-0.5c0.1-0.1,0.3-0.3,0.5-0.3s0.6-0.2,1.1-0.2
		c0.4-0.1,1-0.1,1.6-0.1c0.7,0,1.2,0,1.6,0.1s0.8,0.1,1,0.2c0.3,0.1,0.4,0.2,0.5,0.3c0.1,0.1,0.2,0.3,0.2,0.5v18.5h23v-18.5
		c0-0.2,0.1-0.4,0.2-0.5s0.3-0.3,0.5-0.3c0.3-0.1,0.6-0.2,1-0.2s1-0.1,1.6-0.1c0.6,0,1.2,0,1.6,0.1s0.8,0.1,1,0.2
		c0.3,0.1,0.4,0.2,0.5,0.3c0.1,0.1,0.2,0.3,0.2,0.5V254.2z"/>
	<path class="st2" d="M1009.3,252.5c0,0.4,0,0.8-0.1,1.1c-0.1,0.3-0.1,0.6-0.3,0.8c-0.1,0.2-0.3,0.4-0.5,0.5
		c-0.2,0.1-0.4,0.1-0.6,0.1h-24.3c-0.6,0-1.2-0.2-1.7-0.6c-0.5-0.4-0.8-1-0.8-1.9v-41.2c0-0.9,0.3-1.6,0.8-1.9
		c0.5-0.4,1.1-0.6,1.7-0.6h24c0.2,0,0.4,0,0.6,0.1c0.2,0.1,0.3,0.3,0.4,0.5s0.2,0.5,0.3,0.8c0.1,0.3,0.1,0.7,0.1,1.2
		c0,0.4,0,0.8-0.1,1.1c-0.1,0.3-0.2,0.6-0.3,0.8c-0.1,0.2-0.2,0.4-0.4,0.4c-0.2,0.1-0.4,0.1-0.6,0.1h-19.8v14.5h17
		c0.2,0,0.4,0.1,0.6,0.2c0.2,0.1,0.3,0.3,0.4,0.4c0.1,0.2,0.2,0.5,0.3,0.8c0.1,0.3,0.1,0.7,0.1,1.2c0,0.4,0,0.8-0.1,1.1
		c-0.1,0.3-0.1,0.6-0.3,0.8c-0.1,0.2-0.3,0.3-0.4,0.4s-0.4,0.1-0.6,0.1h-17V250h20.1c0.2,0,0.4,0,0.6,0.1c0.2,0.1,0.3,0.2,0.5,0.4
		c0.1,0.2,0.2,0.5,0.3,0.8C1009.3,251.7,1009.3,252.1,1009.3,252.5z"/>
</g>
<g class="st1">
	<path class="st2" d="M780.3,671c0,0.1,0,0.3-0.1,0.4c-0.1,0.1-0.2,0.2-0.4,0.3c-0.2,0.1-0.4,0.1-0.7,0.2c-0.3,0-0.6,0.1-1.1,0.1
		c-0.4,0-0.8,0-1-0.1c-0.3,0-0.5-0.1-0.7-0.2c-0.2-0.1-0.3-0.2-0.4-0.3c-0.1-0.1-0.1-0.2-0.1-0.4v-41c0-0.1,0-0.2,0.1-0.4
		c0.1-0.1,0.2-0.2,0.4-0.3s0.4-0.1,0.7-0.2c0.3,0,0.6-0.1,1-0.1c0.4,0,0.8,0,1.1,0.1c0.3,0,0.5,0.1,0.7,0.2c0.2,0.1,0.3,0.2,0.4,0.3
		c0.1,0.1,0.1,0.2,0.1,0.4V671z"/>
	<path class="st2" d="M800.4,671c0,0.1,0,0.3-0.1,0.4c-0.1,0.1-0.2,0.2-0.4,0.3c-0.2,0.1-0.4,0.1-0.7,0.2c-0.3,0-0.6,0.1-1.1,0.1
		c-0.4,0-0.8,0-1-0.1c-0.3,0-0.5-0.1-0.7-0.2c-0.2-0.1-0.3-0.2-0.4-0.3c-0.1-0.1-0.1-0.2-0.1-0.4v-41c0-0.1,0-0.2,0.1-0.4
		c0.1-0.1,0.2-0.2,0.4-0.3s0.4-0.1,0.7-0.2c0.3,0,0.6-0.1,1-0.1c0.4,0,0.8,0,1.1,0.1c0.3,0,0.5,0.1,0.7,0.2c0.2,0.1,0.3,0.2,0.4,0.3
		c0.1,0.1,0.1,0.2,0.1,0.4V671z"/>
	<path class="st2" d="M844.2,631.1c0,0.3,0,0.5-0.1,0.8c0,0.2-0.1,0.4-0.2,0.5c-0.1,0.1-0.2,0.3-0.4,0.3c-0.1,0.1-0.3,0.1-0.5,0.1
		h-13.8V671c0,0.1,0,0.3-0.1,0.4s-0.2,0.2-0.4,0.3c-0.2,0.1-0.4,0.1-0.7,0.2c-0.3,0-0.6,0.1-1,0.1c-0.4,0-0.8,0-1-0.1
		c-0.3,0-0.5-0.1-0.7-0.2c-0.2-0.1-0.3-0.2-0.4-0.3c-0.1-0.1-0.1-0.2-0.1-0.4v-38.1h-13.8c-0.2,0-0.4,0-0.5-0.1
		c-0.1-0.1-0.2-0.2-0.3-0.3c-0.1-0.1-0.2-0.3-0.2-0.5c0-0.2-0.1-0.5-0.1-0.8c0-0.3,0-0.6,0.1-0.8c0-0.2,0.1-0.4,0.2-0.6
		c0.1-0.2,0.2-0.3,0.3-0.3c0.1-0.1,0.3-0.1,0.5-0.1h32c0.2,0,0.3,0,0.5,0.1c0.1,0.1,0.3,0.2,0.4,0.3c0.1,0.2,0.2,0.3,0.2,0.6
		C844.2,630.6,844.2,630.8,844.2,631.1z"/>
	<path class="st2" d="M900.7,670.9c0,0.2,0,0.3-0.1,0.4c0,0.1-0.2,0.2-0.3,0.3s-0.4,0.1-0.7,0.2c-0.3,0-0.7,0.1-1.1,0.1
		c-0.4,0-0.9,0-1.3-0.1c-0.4,0-0.8-0.1-1-0.3c-0.2-0.1-0.4-0.3-0.6-0.5l-18.7-21.7V671c0,0.1,0,0.3-0.1,0.4
		c-0.1,0.1-0.2,0.2-0.4,0.3c-0.2,0.1-0.4,0.1-0.7,0.2c-0.3,0-0.6,0.1-1.1,0.1c-0.4,0-0.8,0-1-0.1c-0.3,0-0.5-0.1-0.7-0.2
		c-0.2-0.1-0.3-0.2-0.4-0.3c-0.1-0.1-0.1-0.2-0.1-0.4v-41c0-0.1,0-0.2,0.1-0.4c0.1-0.1,0.2-0.2,0.4-0.3s0.4-0.1,0.7-0.2
		c0.3,0,0.6-0.1,1-0.1c0.4,0,0.8,0,1.1,0.1c0.3,0,0.5,0.1,0.7,0.2s0.3,0.2,0.4,0.3c0.1,0.1,0.1,0.2,0.1,0.4v19.2l17.9-19.2
		c0.1-0.2,0.3-0.3,0.5-0.4c0.2-0.1,0.4-0.2,0.6-0.3s0.5-0.1,0.8-0.1c0.3,0,0.6,0,1.1,0c0.4,0,0.8,0,1,0.1c0.3,0,0.5,0.1,0.6,0.2
		s0.3,0.2,0.3,0.3c0,0.1,0.1,0.2,0.1,0.3c0,0.2-0.1,0.5-0.2,0.7c-0.1,0.2-0.4,0.5-0.7,0.8L882,649.1l18,20.6
		c0.3,0.4,0.5,0.7,0.6,0.8C900.7,670.7,900.7,670.8,900.7,670.9z"/>
	<path class="st2" d="M944.5,670.3c0.1,0.3,0.2,0.6,0.2,0.8c0,0.2-0.1,0.4-0.2,0.5c-0.2,0.1-0.4,0.2-0.7,0.2c-0.3,0-0.7,0-1.2,0
		s-0.9,0-1.2,0c-0.3,0-0.5-0.1-0.7-0.1s-0.3-0.2-0.4-0.3c-0.1-0.1-0.2-0.2-0.2-0.4l-4.4-11.3h-20.3l-4.3,11.2c0,0.2-0.1,0.3-0.2,0.4
		c-0.1,0.1-0.2,0.2-0.4,0.3c-0.2,0.1-0.4,0.1-0.7,0.2c-0.3,0-0.7,0.1-1.1,0.1c-0.5,0-0.9,0-1.3-0.1c-0.3,0-0.6-0.1-0.7-0.2
		c-0.2-0.1-0.2-0.3-0.2-0.5c0-0.2,0.1-0.5,0.2-0.8l16.2-40.3c0.1-0.2,0.2-0.3,0.3-0.4c0.1-0.1,0.3-0.2,0.6-0.3
		c0.2-0.1,0.5-0.1,0.8-0.1c0.3,0,0.7,0,1.1,0c0.4,0,0.8,0,1.1,0c0.3,0,0.6,0.1,0.8,0.1s0.4,0.2,0.5,0.3c0.1,0.1,0.2,0.3,0.3,0.4
		L944.5,670.3z M925.3,633.6L925.3,633.6l-8.8,22.8h17.7L925.3,633.6z"/>
	<path class="st2" d="M988.4,669.7c0,0.4-0.1,0.7-0.2,1s-0.3,0.5-0.5,0.6c-0.2,0.2-0.4,0.3-0.7,0.3c-0.2,0.1-0.5,0.1-0.7,0.1h-0.9
		c-0.5,0-0.9-0.1-1.3-0.2c-0.4-0.1-0.8-0.3-1.1-0.6c-0.4-0.3-0.7-0.6-1.1-1.1c-0.4-0.5-0.8-1-1.2-1.8l-16.3-26.4
		c-0.8-1.3-1.6-2.6-2.5-4c-0.8-1.4-1.6-2.7-2.3-4h0c0,1.6,0,3.2,0,4.9s0,3.3,0,4.9V671c0,0.1,0,0.3-0.1,0.4
		c-0.1,0.1-0.2,0.2-0.4,0.3c-0.2,0.1-0.4,0.1-0.7,0.2c-0.3,0-0.6,0.1-1.1,0.1c-0.4,0-0.8,0-1-0.1c-0.3,0-0.5-0.1-0.7-0.2
		c-0.2-0.1-0.3-0.2-0.4-0.3c-0.1-0.1-0.1-0.2-0.1-0.4v-39.6c0-0.8,0.2-1.3,0.7-1.6c0.5-0.3,0.9-0.4,1.3-0.4h1.8c0.6,0,1,0,1.4,0.1
		c0.4,0.1,0.7,0.2,1,0.4c0.3,0.2,0.6,0.5,0.9,0.9c0.3,0.4,0.6,0.9,1,1.5l12.5,20.2c0.8,1.3,1.5,2.5,2.2,3.6c0.7,1.2,1.4,2.3,2.1,3.4
		c0.7,1.1,1.3,2.2,2,3.3c0.7,1.1,1.3,2.2,1.9,3.3h0c0-1.8,0-3.7,0-5.7c0-2,0-3.9,0-5.7v-24.6c0-0.1,0-0.2,0.1-0.4
		c0.1-0.1,0.2-0.2,0.4-0.3c0.2-0.1,0.4-0.1,0.7-0.2c0.3,0,0.6,0,1.1,0c0.4,0,0.7,0,1,0c0.3,0,0.5,0.1,0.7,0.2
		c0.2,0.1,0.3,0.2,0.4,0.3c0.1,0.1,0.1,0.2,0.1,0.4V669.7z"/>
	<path class="st2" d="M1030.8,641.4c0,2-0.4,3.8-1.1,5.4c-0.7,1.6-1.8,3-3.1,4.2c-1.4,1.2-3,2.1-5,2.7c-2,0.7-4.3,1-7.1,1h-6V671
		c0,0.1,0,0.3-0.1,0.4c-0.1,0.1-0.2,0.2-0.4,0.3c-0.2,0.1-0.4,0.1-0.7,0.2c-0.3,0-0.6,0.1-1.1,0.1c-0.4,0-0.8,0-1-0.1
		c-0.3,0-0.5-0.1-0.7-0.2c-0.2-0.1-0.3-0.2-0.4-0.3c-0.1-0.1-0.1-0.2-0.1-0.4v-39.6c0-0.8,0.2-1.3,0.7-1.6c0.5-0.3,0.9-0.4,1.3-0.4
		h9.4c0.9,0,1.8,0,2.7,0.1s1.9,0.2,3.1,0.5s2.4,0.7,3.6,1.4s2.3,1.5,3.1,2.5c0.9,1,1.5,2.1,2,3.4
		C1030.5,638.5,1030.8,639.9,1030.8,641.4z M1026.1,641.8c0-1.8-0.4-3.4-1.2-4.7s-1.7-2.2-2.9-2.8s-2.3-1-3.5-1.2
		c-1.2-0.2-2.4-0.2-3.5-0.2h-6.6v18.4h6.3c2,0,3.7-0.2,5.1-0.7s2.5-1.1,3.4-1.9c0.9-0.8,1.6-1.8,2.1-3
		C1025.9,644.4,1026.1,643.2,1026.1,641.8z"/>
	<path class="st2" d="M1076.7,656c0,2.6-0.4,4.9-1.2,6.9s-1.9,3.7-3.4,5.1c-1.5,1.4-3.3,2.4-5.4,3.1c-2.1,0.7-4.4,1.1-7,1.1
		c-2.4,0-4.5-0.3-6.5-1c-2-0.7-3.7-1.7-5.2-3c-1.4-1.3-2.6-3-3.4-4.9s-1.2-4.2-1.2-6.8V630c0-0.1,0-0.2,0.1-0.4s0.2-0.2,0.4-0.3
		c0.2-0.1,0.4-0.1,0.7-0.2c0.3,0,0.6-0.1,1-0.1c0.4,0,0.8,0,1,0.1c0.3,0,0.5,0.1,0.7,0.2s0.3,0.2,0.4,0.3c0.1,0.1,0.1,0.2,0.1,0.4
		v25.9c0,2.1,0.3,4,0.8,5.6c0.6,1.6,1.4,2.9,2.4,4c1.1,1.1,2.3,1.9,3.9,2.4c1.5,0.5,3.2,0.8,5.1,0.8c1.9,0,3.7-0.3,5.2-0.8
		c1.5-0.5,2.8-1.3,3.8-2.3c1-1,1.9-2.3,2.4-3.9c0.6-1.6,0.8-3.4,0.8-5.5V630c0-0.1,0-0.2,0.1-0.4s0.2-0.2,0.4-0.3s0.4-0.1,0.7-0.2
		c0.3,0,0.6-0.1,1-0.1c0.4,0,0.8,0,1,0.1c0.3,0,0.5,0.1,0.7,0.2s0.3,0.2,0.4,0.3c0.1,0.1,0.1,0.2,0.1,0.4V656z"/>
	<path class="st2" d="M1121.3,670.9c0,0.2,0,0.3-0.1,0.4c-0.1,0.1-0.2,0.2-0.3,0.3c-0.2,0.1-0.4,0.1-0.7,0.2c-0.3,0-0.7,0.1-1.1,0.1
		c-0.4,0-0.7,0-1,0c-0.3,0-0.5-0.1-0.7-0.2c-0.2-0.1-0.3-0.2-0.5-0.4c-0.1-0.2-0.2-0.4-0.3-0.6l-4.3-10.3c-0.5-1.2-1-2.2-1.6-3.3
		c-0.6-1-1.3-1.9-2.1-2.7c-0.8-0.8-1.8-1.3-2.9-1.8c-1.1-0.4-2.5-0.7-4.1-0.7h-4.8V671c0,0.1,0,0.3-0.1,0.4
		c-0.1,0.1-0.2,0.2-0.4,0.3c-0.2,0.1-0.4,0.1-0.7,0.2c-0.3,0-0.6,0.1-1.1,0.1c-0.4,0-0.8,0-1-0.1c-0.3,0-0.5-0.1-0.7-0.2
		c-0.2-0.1-0.3-0.2-0.4-0.3c-0.1-0.1-0.1-0.2-0.1-0.4v-39.6c0-0.8,0.2-1.3,0.7-1.6c0.5-0.3,0.9-0.4,1.3-0.4h8.7c1.1,0,2.1,0,2.8,0.1
		c0.8,0.1,1.4,0.1,2.1,0.2c1.8,0.3,3.3,0.7,4.6,1.4c1.3,0.6,2.4,1.4,3.3,2.3c0.9,0.9,1.5,2,1.9,3.1c0.4,1.2,0.6,2.4,0.6,3.8
		c0,1.4-0.2,2.6-0.6,3.7c-0.4,1.1-1,2.1-1.8,2.9c-0.8,0.8-1.7,1.6-2.8,2.2c-1.1,0.6-2.3,1.1-3.6,1.5c0.8,0.3,1.5,0.7,2.1,1.2
		c0.6,0.5,1.2,1.1,1.8,1.7c0.5,0.7,1,1.5,1.5,2.3c0.5,0.9,1,1.9,1.4,3l4.3,9.9c0.3,0.8,0.5,1.3,0.6,1.6
		C1121.2,670.6,1121.3,670.8,1121.3,670.9z M1113.6,640.6c0-1.8-0.4-3.3-1.3-4.6c-0.9-1.3-2.4-2.2-4.4-2.7c-0.7-0.2-1.4-0.3-2.3-0.4
		c-0.8-0.1-1.9-0.1-3.2-0.1h-5.7v15.5h6.7c1.8,0,3.3-0.2,4.6-0.6s2.4-1,3.2-1.7c0.8-0.7,1.5-1.5,1.9-2.5S1113.6,641.7,1113.6,640.6z
		"/>
</g>
</svg>
